<svg xmlns="http://www.w3.org/2000/svg" width="24" height="24" viewBox="0 0 18.7 20.6" fill="none">
<path d="M9.83333 4.1C9.264 4.1 8.78278 3.90183 8.38967 3.5055C7.99656 3.10917 7.8 2.624 7.8 2.05C7.8 1.476 7.99656 0.990833 8.38967 0.5945C8.78278 0.198167 9.264 0 9.83333 0V4.1C9.83333 3.526 10.0299 3.04083 10.423 2.6445C10.8161 2.24817 11.2973 2.05 11.8667 2.05C12.436 2.05 12.9172 2.24817 13.3103 2.6445C13.7034 3.04083 13.9 3.526 13.9 4.1H9.83333Z" fill="var(--fill-0, #696F88)"/>
<path fill-rule="evenodd" clip-rule="evenodd" d="M13.9 13C12.3536 13 11.1 14.2536 11.1 15.8C11.1 17.3464 12.3536 18.6 13.9 18.6C15.4464 18.6 16.7 17.3464 16.7 15.8C16.7 14.2536 15.4464 13 13.9 13ZM9.1 15.8C9.1 13.149 11.249 11 13.9 11C16.551 11 18.7 13.149 18.7 15.8C18.7 18.451 16.551 20.6 13.9 20.6C11.249 20.6 9.1 18.451 9.1 15.8Z" fill="var(--fill-0, #696F88)"/>
<path d="M15.4487 14.4015C15.8795 14.9079 16.0278 15.4968 15.78 15.7169C15.5322 15.937 14.9821 15.7049 14.5513 15.1985C14.1206 14.6921 13.9722 14.1032 14.22 13.8831C14.4678 13.663 15.0179 13.8951 15.4487 14.4015Z" fill="currentColor"/>
<path fill-rule="evenodd" clip-rule="evenodd" d="M9.7 6.6C8.1536 6.6 6.9 7.8536 6.9 9.4C6.9 10.9464 8.1536 12.2 9.7 12.2C11.2464 12.2 12.5 10.9464 12.5 9.4C12.5 7.8536 11.2464 6.6 9.7 6.6ZM4.9 9.4C4.9 6.74903 7.04903 4.6 9.7 4.6C12.351 4.6 14.5 6.74903 14.5 9.4C14.5 12.051 12.351 14.2 9.7 14.2C7.04903 14.2 4.9 12.051 4.9 9.4Z" fill="var(--fill-0, #696F88)"/>
<path d="M11.2487 8.00148C11.6795 8.50786 11.8278 9.09679 11.58 9.31688C11.3322 9.53698 10.7821 9.3049 10.3513 8.79852C9.92055 8.29214 9.77219 7.70321 10.02 7.48312C10.2678 7.26302 10.8179 7.4951 11.2487 8.00148Z" fill="currentColor"/>
<path fill-rule="evenodd" clip-rule="evenodd" d="M4.8 12.4C3.2536 12.4 2 13.6536 2 15.2C2 16.7464 3.2536 18 4.8 18C6.3464 18 7.6 16.7464 7.6 15.2C7.6 13.6536 6.3464 12.4 4.8 12.4ZM0 15.2C0 12.549 2.14903 10.4 4.8 10.4C7.45097 10.4 9.6 12.549 9.6 15.2C9.6 17.851 7.45097 20 4.8 20C2.14903 20 0 17.851 0 15.2Z" fill="var(--fill-0, #696F88)"/>
<path d="M6.34866 13.8015C6.77945 14.3079 6.92781 14.8968 6.68002 15.1169C6.43224 15.337 5.88214 15.1049 5.45134 14.5985C5.02055 14.0921 4.87219 13.5032 5.11998 13.2831C5.36776 13.063 5.91786 13.2951 6.34866 13.8015Z" fill="currentColor"/>
</svg>