<svg width="24" height="24" viewBox="0 0 24 24" fill="none" xmlns="http://www.w3.org/2000/svg">
<path fill-rule="evenodd" clip-rule="evenodd" d="M8.92119 11.8843C8.40663 12.6269 8.19995 13.7712 8.19995 15.3507C8.19995 16.6212 8.83061 17.782 9.77584 18.6488C10.735 19.5285 11.9037 19.9999 12.8 19.9999C13.649 19.9999 14.3559 19.6199 14.8845 18.8752C15.4319 18.1043 15.8 16.9128 15.8 15.3507C15.8 13.7729 15.5909 12.6286 15.0741 11.8859C14.6157 11.227 13.778 10.6999 11.9942 10.6999C10.2105 10.6999 9.37675 11.2269 8.92119 11.8843ZM7.27728 10.7452C8.2203 9.38427 9.78365 8.6999 11.9942 8.6999C14.2048 8.6999 15.7699 9.38414 16.7158 10.7436C17.6033 12.0192 17.7999 13.7004 17.7999 15.3507C17.7999 17.1988 17.368 18.8319 16.5154 20.033C15.644 21.2604 14.3509 21.9999 12.8 21.9999C11.2962 21.9999 9.66492 21.2608 8.42406 20.1228C7.16929 18.9721 6.19995 17.3083 6.19995 15.3507C6.19995 13.7021 6.39327 12.021 7.27728 10.7452Z" fill="#696F88"/>
<path d="M13.6 15.4002C13.6 16.547 13.0666 17.2999 12.2666 17.2999C11.4666 17.2999 10.4 16.4857 10.4 15.4002C10.4 14.3146 10.6666 13.4999 11.998 13.4999C13.3295 13.4999 13.6 14.3146 13.6 15.4002Z" fill="#696F88"/>
<path fill-rule="evenodd" clip-rule="evenodd" d="M5.10863 5.2809C5.2673 5.0511 5.51483 4.89811 5.79133 4.85896C7.06614 4.67846 8.80018 4.62963 10.1748 5.57135L10.1808 5.57552C11.5485 6.52729 12.1173 8.16614 12.4002 9.4222C12.4615 9.69463 12.4062 9.98031 12.2475 10.2101C12.0888 10.4399 11.8413 10.5929 11.5648 10.632C10.29 10.8125 8.55596 10.8614 7.18133 9.91966L7.17529 9.91549C5.80761 8.96372 5.23887 7.32487 4.95596 6.06881C4.8946 5.79638 4.94995 5.5107 5.10863 5.2809ZM8.31469 8.27178C8.78616 8.59353 9.40875 8.72832 10.1129 8.73624C9.85602 8.08055 9.50937 7.54611 9.04145 7.21923C8.56998 6.89749 7.94739 6.76269 7.2432 6.75477C7.50012 7.41046 7.84677 7.9449 8.31469 8.27178Z" fill="#696F88"/>
<path fill-rule="evenodd" clip-rule="evenodd" d="M12.0499 1.8999C12.3287 1.8999 12.5949 2.01629 12.7842 2.22099C13.6622 3.17052 14.6938 4.5743 14.6999 6.24622V6.25358C14.6938 7.92551 13.6622 9.32929 12.7842 10.2788C12.5949 10.4835 12.3287 10.5999 12.0499 10.5999C11.7712 10.5999 11.505 10.4835 11.3157 10.2788C10.4377 9.32929 9.4061 7.92551 9.39996 6.25358V6.24623C9.4061 4.5743 10.4377 3.17052 11.3157 2.22099C11.505 2.01629 11.7712 1.8999 12.0499 1.8999ZM11.4 6.2499C11.4031 6.826 11.6501 7.42053 12.0499 8.0099C12.4498 7.42053 12.6968 6.826 12.6999 6.2499C12.6968 5.67381 12.4498 5.07928 12.0499 4.4899C11.6501 5.07928 11.4031 5.67381 11.4 6.2499Z" fill="#696F88"/>
</svg>
