<svg xmlns="http://www.w3.org/2000/svg" width="24" height="24" viewBox="0 0 12.8684 20.1" fill="none">
<path fill-rule="evenodd" clip-rule="evenodd" d="M3.98967 9.9844C3.47511 10.727 3.26843 11.8713 3.26843 13.4508C3.26843 14.7213 3.89909 15.8821 4.84432 16.7489C5.80347 17.6285 6.97215 18.1 7.86843 18.1C8.71746 18.1 9.42437 17.72 9.95302 16.9753C10.5004 16.2044 10.8684 15.0129 10.8684 13.4508C10.8684 11.873 10.6593 10.7287 10.1426 9.98597C9.68415 9.3271 8.84647 8.8 7.06272 8.8C5.27903 8.8 4.44523 9.32696 3.98967 9.9844ZM2.34576 8.8453C3.28878 7.48437 4.85213 6.8 7.06272 6.8C9.27326 6.8 10.8384 7.48424 11.7843 8.84373C12.6718 10.1193 12.8684 11.8004 12.8684 13.4508C12.8684 15.2989 12.4365 16.932 11.5838 18.1331C10.7125 19.3605 9.41941 20.1 7.86843 20.1C6.36471 20.1 4.7334 19.3609 3.49254 18.2229C2.23777 17.0722 1.26843 15.4083 1.26843 13.4508C1.26843 11.8022 1.46175 10.1211 2.34576 8.8453Z" fill="var(--fill-0, #696F88)"/>
<path d="M8.66843 13.5003C8.66843 14.6471 8.1351 15.4 7.3351 15.4C6.5351 15.4 5.46843 14.5858 5.46843 13.5003C5.46843 12.4147 5.7351 11.6 7.06653 11.6C8.39796 11.6 8.66843 12.4147 8.66843 13.5003Z" fill="var(--fill-0, #696F88)"/>
<path fill-rule="evenodd" clip-rule="evenodd" d="M0.177107 3.381C0.335779 3.15119 0.583314 2.99821 0.859815 2.95906C2.13462 2.77856 3.86867 2.72973 5.24329 3.67145L5.24933 3.67561C6.61701 4.62739 7.18576 6.26623 7.46866 7.5223C7.53002 7.79473 7.47467 8.08041 7.31599 8.31021C7.15732 8.54001 6.90979 8.693 6.63329 8.73215C5.35848 8.91265 3.62444 8.96148 2.24981 8.01976L2.24377 8.01559C0.87609 7.06382 0.307347 5.42497 0.0244437 4.16891C-0.0369169 3.89648 0.0184356 3.6108 0.177107 3.381ZM3.38317 6.37188C3.85464 6.69362 4.47723 6.82842 5.18142 6.83634C4.9245 6.18065 4.57785 5.64621 4.10993 5.31933C3.63846 4.99758 3.01587 4.86279 2.31168 4.85486C2.5686 5.51056 2.91525 6.045 3.38317 6.37188Z" fill="var(--fill-0, #696F88)"/>
<path fill-rule="evenodd" clip-rule="evenodd" d="M7.11843 0C7.39723 0 7.66337 0.116387 7.85265 0.321084C8.73066 1.27061 9.76228 2.67439 9.76843 4.34632V4.35368C9.76228 6.02561 8.73066 7.42939 7.85265 8.37892C7.66337 8.58361 7.39723 8.7 7.11843 8.7C6.83963 8.7 6.57349 8.58361 6.38421 8.37892C5.5062 7.42939 4.47459 6.02561 4.46844 4.35368V4.34632C4.47459 2.67439 5.5062 1.27061 6.38421 0.321084C6.57349 0.116387 6.83963 0 7.11843 0ZM6.46844 4.35C6.4716 4.9261 6.71858 5.52063 7.11843 6.11C7.51828 5.52063 7.76527 4.9261 7.76842 4.35C7.76527 3.7739 7.51828 3.17938 7.11843 2.59C6.71858 3.17938 6.4716 3.7739 6.46844 4.35Z" fill="var(--fill-0, #696F88)"/>
</svg>