<svg xmlns="http://www.w3.org/2000/svg" width="24" height="24" viewBox="0 0 13.733 19.5" fill="none">
<path id="vector" fill-rule="evenodd" clip-rule="evenodd" d="M7.19187 0.0543844C7.08882 0.0189092 6.9791 -8.50449e-08 6.86651 0C6.75402 8.49649e-08 6.64441 0.0188737 6.54144 0.054284C5.88861 0.274767 5.26513 0.803208 4.72466 1.38598C4.15609 1.99906 3.57694 2.78561 3.03126 3.67122C1.94137 5.44006 0.93168 7.69121 0.397742 9.92797C-0.128357 12.1319 -0.234842 14.502 0.714585 16.3721C1.72017 18.3528 3.7587 19.5 6.86651 19.5C9.97432 19.5 12.0128 18.3528 13.0184 16.3721C13.9679 14.502 13.8614 12.1319 13.3353 9.92797C12.8013 7.69121 11.7916 5.44006 10.7018 3.67122C10.1561 2.78561 9.57693 1.99906 9.00836 1.38598C8.46796 0.803296 7.84459 0.274927 7.19187 0.0543844ZM4.49883 5.11275C3.59604 6.66108 2.78297 8.54959 2.34309 10.3923C1.85747 12.4267 1.86825 14.2265 2.49792 15.4667C2.81132 16.084 3.31639 16.6339 4.13103 17.0056C4.09221 16.8844 4.05651 16.7615 4.02361 16.6377C3.63925 15.1917 3.55525 13.2941 3.65292 11.3407C3.75471 9.3048 4.061 7.09539 4.49883 5.11275ZM9.602 17.0056C9.64082 16.8844 9.67652 16.7615 9.70942 16.6377C10.0938 15.1917 10.1778 13.2941 10.0801 11.3407C9.97831 9.30481 9.67203 7.0954 9.2342 5.11276C10.137 6.66109 10.9501 8.54959 11.3899 10.3923C11.8756 12.4267 11.8648 14.2265 11.2351 15.4667C10.9217 16.084 10.4166 16.6338 9.602 17.0056ZM6.86651 17.5C6.74235 17.5 6.62513 17.4626 6.47367 17.2829C6.29721 17.0736 6.11018 16.7022 5.9565 16.124C5.65042 14.9724 5.55669 13.3153 5.65043 11.4406C5.77993 8.85043 6.25471 6.04282 6.86651 3.88827C7.47832 6.04282 7.9531 8.85043 8.0826 11.4406C8.17634 13.3153 8.08261 14.9724 7.77653 16.124C7.62285 16.7022 7.43582 17.0736 7.25936 17.2829C7.1079 17.4626 6.99068 17.5 6.86651 17.5Z" fill="var(--fill-0, #696F88)"/>
</svg>