<svg width="24" height="24" viewBox="0 0 24 24" fill="none" xmlns="http://www.w3.org/2000/svg">
<path fill-rule="evenodd" clip-rule="evenodd" d="M12.3254 2.30438C12.2224 2.26891 12.1126 2.25 12.0001 2.25C11.8876 2.25 11.778 2.26887 11.675 2.30428C11.0222 2.52477 10.3987 3.05321 9.85821 3.63598C9.28964 4.24906 8.71049 5.03561 8.1648 5.92122C7.07492 7.69006 6.06522 9.94121 5.53129 12.178C5.00519 14.3819 4.8987 16.752 5.84813 18.6221C6.85372 20.6028 8.89224 21.75 12.0001 21.75C15.1079 21.75 17.1464 20.6028 18.152 18.6221C19.1014 16.752 18.9949 14.3819 18.4688 12.178C17.9349 9.94121 16.9252 7.69006 15.8353 5.92122C15.2896 5.03561 14.7105 4.24906 14.1419 3.63598C13.6015 3.0533 12.9781 2.52493 12.3254 2.30438ZM9.63237 7.36275C8.72958 8.91108 7.91651 10.7996 7.47663 12.6423C6.99101 14.6767 7.00179 16.4765 7.63146 17.7167C7.94487 18.334 8.44994 18.8839 9.26457 19.2556C9.22576 19.1344 9.19005 19.0115 9.15715 18.8877C8.7728 17.4417 8.68879 15.5441 8.78647 13.5907C8.88826 11.5548 9.19454 9.34539 9.63237 7.36275ZM14.7355 19.2556C14.7744 19.1344 14.8101 19.0115 14.843 18.8877C15.2273 17.4417 15.3113 15.5441 15.2137 13.5907C15.1119 11.5548 14.8056 9.34541 14.3677 7.36276C15.2705 8.91109 16.0836 10.7996 16.5235 12.6423C17.0091 14.6767 16.9983 16.4765 16.3686 17.7167C16.0552 18.334 15.5502 18.8838 14.7355 19.2556ZM12.0001 19.75C11.8759 19.75 11.7587 19.7126 11.6072 19.5329C11.4308 19.3236 11.2437 18.9522 11.09 18.374C10.784 17.2224 10.6902 15.5653 10.784 13.6906C10.9135 11.1004 11.3883 8.29282 12.0001 6.13827C12.6119 8.29282 13.0866 11.1004 13.2161 13.6906C13.3099 15.5653 13.2162 17.2224 12.9101 18.374C12.7564 18.9522 12.5694 19.3236 12.3929 19.5329C12.2414 19.7126 12.1242 19.75 12.0001 19.75Z" fill="#696F88"/>
</svg>
