<svg xmlns="http://www.w3.org/2000/svg" width="24" height="24" viewBox="0 0 20.1459 16.1501" fill="none">
<path d="M11.2187 4.16599C11.5728 4.93254 11.8166 5.74724 11.945 6.59777C12.1247 6.27727 12.3322 5.96546 12.5679 5.67071C12.7806 5.40463 13.0156 5.15321 13.2736 4.92211C12.8422 5.63067 12.5493 6.32297 12.3532 6.95637C12.3069 7.1059 12.2661 7.25181 12.2301 7.39354C12.9849 6.90924 13.8421 6.52596 14.8042 6.27042C15.3273 5.30902 16.1816 4.25842 17.5814 3.30662C17.9473 3.05778 18.1062 2.59802 17.9719 2.17634C17.8377 1.75467 17.4423 1.47137 16.9998 1.47987C14.4551 1.52881 12.5283 2.65484 11.2187 4.16599Z" fill="var(--fill-0, #696F88)"/>
<path d="M4.2618 0.382036C4.54352 0.0236762 5.03194 -0.0988107 5.44943 0.0841982C9.07268 1.67247 10.9982 4.56337 11.0502 7.89119C11.0503 7.8964 11.0503 7.90161 11.0503 7.90682V8.3045C10.8674 8.47309 10.6926 8.64871 10.5261 8.83072C10.3657 9.00611 10.2144 9.18579 10.0718 9.36891C9.92988 9.18684 9.77934 9.00817 9.61977 8.83375C9.43959 8.63679 9.2498 8.44732 9.05033 8.26614V7.9149C9.02874 6.62513 8.63892 5.39858 7.84388 4.33517C7.97806 4.81279 8.06795 5.2609 8.12622 5.66994C8.2271 6.378 8.23301 6.96645 8.21206 7.38652C8.20849 7.4581 8.20414 7.52485 8.19933 7.58654C7.60403 7.17026 6.94059 6.81911 6.20773 6.54767C6.19623 6.36604 6.1768 6.1667 6.14622 5.95203C5.98559 4.82455 5.51633 3.26356 4.25275 1.60641C3.97635 1.24392 3.98007 0.740396 4.2618 0.382036Z" fill="var(--fill-0, #696F88)"/>
<path fill-rule="evenodd" clip-rule="evenodd" d="M11.8294 16.147H13.7157C13.9869 16.147 14.2464 16.0369 14.4349 15.8419C14.6223 15.6479 14.7234 15.3864 14.7152 15.1169L14.7152 15.1148C14.7151 15.1107 14.715 15.102 14.715 15.0888C14.7151 15.0623 14.7156 15.0183 14.718 14.9586C14.7229 14.839 14.7353 14.6579 14.766 14.4314C14.8277 13.9766 14.9614 13.3505 15.2475 12.6748C15.8091 11.348 16.9699 9.79017 19.4667 8.94447C19.9096 8.79444 20.1894 8.35747 20.1403 7.89241C20.0913 7.42734 19.7264 7.05838 19.262 7.00409C15.4955 6.56385 12.9021 7.71502 11.264 9.50573C11.0483 9.74143 10.851 9.98628 10.6709 10.2375C11.1182 10.9729 11.4449 11.7393 11.6718 12.4882C11.9324 11.9155 12.2832 11.3546 12.7396 10.8557C13.3194 10.2219 14.0944 9.66053 15.1268 9.3056C14.3119 10.136 13.7662 11.0436 13.4057 11.895C13.039 12.7613 12.867 13.5598 12.7863 14.147H12.0257C12.0681 14.4859 12.0905 14.8117 12.0953 15.1188C12.101 15.4824 12.0075 15.8372 11.8294 16.147Z" fill="var(--fill-0, #696F88)"/>
<path fill-rule="evenodd" clip-rule="evenodd" d="M8.88194 9.50875C10.4766 11.2519 11.0698 13.4949 11.0955 15.1344C11.0996 15.4023 10.9962 15.6607 10.8082 15.8516C10.6202 16.0426 10.3635 16.1501 10.0956 16.1501H6.43021C6.15902 16.1501 5.89945 16.0399 5.71102 15.8449C5.52359 15.6509 5.42253 15.3894 5.43067 15.1199L5.43081 15.1156L5.43074 15.1175C5.43081 15.1134 5.43089 15.105 5.43088 15.0918C5.43085 15.0654 5.4303 15.0213 5.42786 14.9616C5.42298 14.842 5.41056 14.6609 5.37988 14.4345C5.31824 13.9796 5.18453 13.3535 4.89844 12.6778C4.33676 11.3511 3.17605 9.79319 0.679234 8.94749C0.236302 8.79746 -0.0435047 8.3605 0.00556106 7.89543C0.0546269 7.43036 0.41946 7.0614 0.883948 7.00711C4.6504 6.56687 7.24378 7.71804 8.88194 9.50875ZM7.3596 14.1501C7.2789 13.5628 7.10694 12.7643 6.74019 11.8981C6.37975 11.0467 5.83396 10.139 5.01908 9.30863C6.05153 9.66355 6.82645 10.2249 7.40628 10.8587C8.30682 11.8431 8.7963 13.0686 8.99269 14.1501H7.3596Z" fill="var(--fill-0, #696F88)"/>
</svg>