<svg width="24" height="24" viewBox="0 0 24 24" fill="none" xmlns="http://www.w3.org/2000/svg">
<path d="M13.1707 9.16591C13.5248 9.93247 13.7687 10.7472 13.897 11.5977C14.0768 11.2772 14.2842 10.9654 14.5199 10.6706C14.7326 10.4046 14.9676 10.1531 15.2256 9.92203C14.7942 10.6306 14.5014 11.3229 14.3052 11.9563C14.2589 12.1058 14.2181 12.2517 14.1821 12.3935C14.9369 11.9092 15.7942 11.5259 16.7562 11.2703C17.2793 10.3089 18.1337 9.25835 19.5334 8.30654C19.8993 8.0577 20.0582 7.59794 19.9239 7.17627C19.7897 6.75459 19.3943 6.47129 18.9518 6.4798C16.4071 6.52874 14.4803 7.65477 13.1707 9.16591Z" fill="#696F88"/>
<path d="M6.21382 5.38196C6.49555 5.0236 6.98397 4.90111 7.40145 5.08412C11.0247 6.6724 12.9502 9.5633 13.0022 12.8911C13.0023 12.8963 13.0024 12.9015 13.0024 12.9067V13.3044C12.8194 13.473 12.6447 13.6486 12.4782 13.8306C12.3177 14.006 12.1664 14.1857 12.0238 14.3688C11.8819 14.1868 11.7314 14.0081 11.5718 13.8337C11.3916 13.6367 11.2018 13.4472 11.0024 13.2661V12.9148C10.9808 11.6251 10.5909 10.3985 9.79591 9.33509C9.93009 9.81272 10.02 10.2608 10.0782 10.6699C10.1791 11.3779 10.185 11.9664 10.1641 12.3864C10.1605 12.458 10.1562 12.5248 10.1514 12.5865C9.55605 12.1702 8.89262 11.819 8.15976 11.5476C8.14826 11.366 8.12883 11.1666 8.09824 10.952C7.93761 9.82448 7.46835 8.26349 6.20477 6.60633C5.92838 6.24385 5.9321 5.74032 6.21382 5.38196Z" fill="#696F88"/>
<path fill-rule="evenodd" clip-rule="evenodd" d="M13.7814 21.147H15.6677C15.9389 21.147 16.1985 21.0368 16.3869 20.8418C16.5743 20.6478 16.6754 20.3863 16.6673 20.1168L16.6672 20.1147C16.6672 20.1107 16.667 20.1019 16.6671 20.0887C16.6671 20.0623 16.6676 20.0182 16.6701 19.9585C16.6749 19.8389 16.6874 19.6579 16.7181 19.4314C16.7797 18.9765 16.9134 18.3504 17.1995 17.6747C17.7612 16.348 18.9219 14.7901 21.4187 13.9444C21.8616 13.7944 22.1414 13.3574 22.0924 12.8923C22.0433 12.4273 21.6785 12.0583 21.214 12.004C17.4475 11.5638 14.8541 12.7149 13.216 14.5056C13.0004 14.7414 12.803 14.9862 12.623 15.2375C13.0702 15.9728 13.3969 16.7392 13.6238 17.4881C13.8844 16.9154 14.2352 16.3546 14.6917 15.8556C15.2715 15.2218 16.0464 14.6605 17.0788 14.3055C16.264 15.1359 15.7182 16.0436 15.3577 16.895C14.991 17.7612 14.819 18.5597 14.7383 19.147H13.9777C14.0201 19.4858 14.0426 19.8116 14.0474 20.1187C14.053 20.4823 13.9595 20.8371 13.7814 21.147Z" fill="#696F88"/>
<path fill-rule="evenodd" clip-rule="evenodd" d="M10.834 14.5087C12.4286 16.2518 13.0219 18.4948 13.0475 20.1344C13.0517 20.4023 12.9482 20.6606 12.7602 20.8516C12.5722 21.0425 12.3155 21.15 12.0476 21.15H8.38224C8.11104 21.15 7.85148 21.0398 7.66305 20.8448C7.47561 20.6508 7.37455 20.3893 7.38269 20.1198L7.38283 20.1155L7.38277 20.1174C7.38284 20.1133 7.38292 20.1049 7.3829 20.0917C7.38287 20.0653 7.38233 20.0212 7.37989 19.9615C7.37501 19.8419 7.36259 19.6609 7.3319 19.4344C7.27026 18.9795 7.13656 18.3535 6.85047 17.6777C6.28879 16.351 5.12807 14.7931 2.63126 13.9474C2.18833 13.7974 1.90852 13.3604 1.95759 12.8954C2.00665 12.4303 2.37149 12.0613 2.83597 12.007C6.60243 11.5668 9.19581 12.718 10.834 14.5087ZM9.31163 19.15C9.23093 18.5627 9.05897 17.7643 8.69222 16.898C8.33177 16.0466 7.78598 15.1389 6.97111 14.3085C8.00356 14.6635 8.77848 15.2248 9.3583 15.8586C10.2588 16.843 10.7483 18.0685 10.9447 19.15H9.31163Z" fill="#696F88"/>
</svg>
