<svg xmlns="http://www.w3.org/2000/svg" width="24" height="24" viewBox="0 0 20.2952 19.3471" fill="none">
<path d="M10.4944 5.77778C10.4933 6.1635 10.2994 6.52324 10.0944 6.8C9.88949 6.52324 9.69557 6.1635 9.69443 5.77778C9.69557 5.39206 9.88949 5.07676 10.0944 4.8C10.2994 5.07676 10.4933 5.39206 10.4944 5.77778Z" fill="var(--fill-0, #696F88)"/>
<path d="M5.66754 8.65796C6.03403 8.77823 6.31625 9.07383 6.51613 9.35426C6.18958 9.46365 5.78752 9.53691 5.42033 9.4188C5.05384 9.29853 4.81389 9.01666 4.61401 8.73623C4.94055 8.62684 5.30035 8.53984 5.66754 8.65796Z" fill="var(--fill-0, #696F88)"/>
<path d="M6.95593 14.2226C7.18357 13.9112 7.55191 13.7342 7.88038 13.6307C7.88351 13.9751 7.82894 14.3801 7.60314 14.6928C7.3755 15.0042 7.03329 15.1453 6.70481 15.2488C6.70168 14.9044 6.73013 14.5353 6.95593 14.2226Z" fill="var(--fill-0, #696F88)"/>
<path d="M12.6464 14.7169C12.4206 14.4042 12.366 13.9991 12.3692 13.6548C12.6976 13.7582 13.066 13.9353 13.2936 14.2467C13.5194 14.5594 13.5479 14.9284 13.5447 15.2728C13.2163 15.1694 12.874 15.0283 12.6464 14.7169Z" fill="var(--fill-0, #696F88)"/>
<path d="M14.8749 9.45765C14.5077 9.57576 14.1057 9.5025 13.7791 9.39311C13.979 9.11267 14.2612 8.81708 14.6277 8.6968C14.9949 8.57869 15.3547 8.66568 15.6812 8.77508C15.4813 9.05551 15.2414 9.33737 14.8749 9.45765Z" fill="var(--fill-0, #696F88)"/>
<path fill-rule="evenodd" clip-rule="evenodd" d="M10.8862 0.389222C10.6969 0.143767 10.4044 0 10.0944 0C9.78443 0 9.49197 0.143767 9.30263 0.389222C8.26036 1.7404 7.1012 3.48362 7.09443 5.69027V5.6964C7.09522 5.95389 7.11167 6.20808 7.14182 6.45843C6.90123 6.3451 6.65186 6.24485 6.3936 6.16006L6.38776 6.15816C4.28703 5.48271 2.27092 6.04645 0.663801 6.62017C0.371851 6.72439 0.144743 6.95812 0.0489492 7.25294C-0.0468446 7.54776 -0.000491941 7.87034 0.174441 8.12626C1.13741 9.53505 2.43711 11.1762 4.53366 11.8645L4.5395 11.8664C4.81843 11.9561 5.09955 12.0252 5.38124 12.0761C5.1763 12.2886 4.9831 12.5162 4.80466 12.7602L4.80106 12.7652C3.5095 14.5544 3.42264 16.646 3.47165 18.3518C3.48055 18.6616 3.63266 18.9498 3.88345 19.1321C4.13424 19.3143 4.45536 19.3699 4.75281 19.2826C6.39022 18.8021 8.35264 18.0731 9.65515 16.2919L9.65876 16.2869C9.83025 16.0494 9.98282 15.8033 10.1183 15.5512C10.2571 15.8117 10.4139 16.0658 10.5908 16.3109L10.5944 16.3159C11.8969 18.0971 13.8593 18.8261 15.4967 19.3066C15.7942 19.3939 16.1153 19.3383 16.3661 19.1561C16.6169 18.9739 16.769 18.6856 16.7779 18.3758C16.8269 16.67 16.74 14.5784 15.4485 12.7892L15.4449 12.7842C15.2719 12.5477 15.0851 12.3266 14.8872 12.1198C15.1778 12.0684 15.468 11.9978 15.7557 11.9052L15.7616 11.9033C17.8581 11.215 19.1578 9.5739 20.1208 8.16511C20.2957 7.90919 20.3421 7.58661 20.2463 7.29179C20.1505 6.99696 19.9234 6.76324 19.6314 6.65901C18.0243 6.0853 16.0082 5.52156 13.9075 6.19701L13.9016 6.19891C13.6007 6.29772 13.3118 6.41753 13.0348 6.55457C13.0727 6.27323 13.0935 5.98692 13.0944 5.6964V5.69027C13.0877 3.48362 11.9285 1.7404 10.8862 0.389222ZM10.0858 8.81793L10.0959 8.8299C10.6822 7.84469 11.0903 6.77201 11.0944 5.69333C11.0904 4.62396 10.6903 3.66314 10.0944 2.72517C9.49857 3.66314 9.09847 4.62396 9.09444 5.69333C9.09849 6.76764 9.50333 7.83601 10.0858 8.81793ZM5.15462 9.96333C6.18264 10.2931 7.33002 10.236 8.44909 9.98231C7.69287 9.11928 6.79815 8.39872 5.77265 8.06122C4.75437 7.73461 3.71693 7.81821 2.64074 8.09506C3.34867 8.95161 4.13883 9.62903 5.15462 9.96333ZM8.03892 15.1138C8.6702 14.238 8.9705 13.1292 9.07503 11.9865C8.02055 12.439 7.05877 13.0673 6.4209 13.9383C5.7956 14.8058 5.55453 15.8183 5.48527 16.9273C6.51865 16.5188 7.40709 15.9766 8.03892 15.1138ZM13.8286 13.9623C13.1908 13.0913 12.229 12.463 11.1745 12.0105C11.279 13.1532 11.5793 14.262 12.2106 15.1379C12.8425 16.0006 13.7309 16.5428 14.7643 16.9514C14.695 15.8423 14.4539 14.8298 13.8286 13.9623ZM14.5226 8.10007C13.4971 8.43757 12.6024 9.15813 11.8461 10.0212C12.9652 10.2749 14.1126 10.3319 15.1406 10.0022C16.1564 9.66788 16.9466 8.99046 17.6545 8.13391C16.5783 7.85706 15.5409 7.77346 14.5226 8.10007Z" fill="var(--fill-0, #696F88)"/>
</svg>