<svg width="24" height="24" viewBox="0 0 24 24" fill="none" xmlns="http://www.w3.org/2000/svg">
<path fill-rule="evenodd" clip-rule="evenodd" d="M9.88565 2.92583C9.40287 2.65762 8.79407 2.83156 8.52585 3.31434C8.25764 3.79713 8.43158 4.40593 8.91437 4.67414C9.71197 5.11726 10.0626 5.41192 10.4414 6.01309C10.7176 6.50156 10.9251 7.09206 10.9835 7.67557C10.5175 7.45573 9.62814 7.09998 8.5 7.09998C7.02838 7.09998 5.81747 7.80235 5.11913 8.67528C4.32298 9.67047 4 11.0786 4 12.5C4 14.3553 4.48375 16.3847 5.43807 18.007C6.51099 19.831 8.07632 21.3 10.2 21.3C10.8466 21.3 11.4531 21.1652 12 20.8854C12.5469 21.1652 13.1534 21.3 13.8 21.3C15.9237 21.3 17.489 19.831 18.5619 18.007C19.5162 16.3847 20 14.3553 20 12.5C20 11.0786 19.677 9.67047 18.8809 8.67528C18.2608 7.90022 17.2367 7.25961 15.9848 7.12571C16.236 6.10138 16.0184 5.0234 15.7905 4.23925C15.6409 3.72463 15.1122 3.41939 14.5918 3.54718C13.811 3.73887 12.7887 4.08155 12.0305 4.78846C11.4473 3.91868 10.8177 3.44366 9.88565 2.92583ZM13.6449 9.59556C13.7949 9.53323 13.9453 9.46395 14.0937 9.38674C14.4414 9.24473 14.923 9.09998 15.5 9.09998C16.3284 9.09998 16.9775 9.4976 17.3191 9.92467C17.723 10.4295 18 11.3214 18 12.5C18 14.0446 17.5896 15.7153 16.8381 16.993C15.911 18.569 14.8763 19.3 13.8 19.3C13.3112 19.3 12.9407 19.1674 12.6371 18.929C12.5729 18.8758 12.5033 18.8317 12.43 18.7969C12.2934 18.7317 12.1464 18.6998 12 18.6999C11.8536 18.6998 11.7066 18.7317 11.57 18.7969C11.4967 18.8317 11.4271 18.8758 11.3629 18.929C11.0593 19.1674 10.6888 19.3 10.2 19.3C9.12368 19.3 8.08901 18.569 7.16193 16.993C6.41036 15.7153 6 14.0446 6 12.5C6 11.3214 6.27702 10.4295 6.68087 9.92467C7.02253 9.4976 7.67162 9.09998 8.5 9.09998C9.36708 9.09998 10.0186 9.4268 10.3242 9.58007L10.3528 9.5944C10.5849 9.71048 10.869 9.80704 11.1322 9.87472C11.3911 9.94129 11.707 9.99998 12 9.99998C12.0536 9.99998 12.108 9.99801 12.1627 9.99439C12.2674 10.0029 12.3752 9.99502 12.4826 9.96864C12.5416 9.95416 12.602 9.93882 12.6635 9.92252C12.7343 9.90762 12.8029 9.89142 12.8678 9.87472C13.1301 9.80727 13.4132 9.71112 13.6449 9.59556ZM13.2411 7.57467C13.1483 7.61426 13.0655 7.65217 12.9936 7.68644C12.9476 7.21263 12.9984 6.82302 13.159 6.53957C13.3255 6.25654 13.6411 6.01623 14.0797 5.81826C14.1276 6.2971 14.0773 6.69058 13.9154 6.97624C13.782 7.2031 13.5527 7.40251 13.2411 7.57467Z" fill="#696F88"/>
</svg>
