<svg width="24" height="24" viewBox="0 0 24 24" fill="none" xmlns="http://www.w3.org/2000/svg">
<path fill-rule="evenodd" clip-rule="evenodd" d="M8.00254 2.53017C8.25402 2.05792 8.83022 1.86979 9.30918 2.09452L9.35518 2.11757L9.46318 2.17558C10.4316 2.70003 11.1088 3.19275 11.7301 4.02616C12.0422 3.61099 12.4289 3.24234 12.9109 2.97255L12.9182 2.96854C14.2578 2.23323 15.8527 2.518 16.9955 2.85995L17.1047 2.89315C17.6006 3.04674 17.8938 3.55257 17.7873 4.05507L17.7757 4.1037C17.5767 4.85702 17.2553 5.78417 16.6793 6.55331C17.831 6.98211 18.7996 7.78687 19.5098 8.88739L19.5614 8.96854L19.6036 9.037C20.4824 10.4789 20.8852 12.3206 20.8852 14.1777C20.8852 16.0177 20.4756 17.8496 19.5912 19.2864L19.5908 19.287L19.5904 19.2877C18.5016 21.0538 16.7685 22.1002 14.6721 22.1002C13.6189 22.1002 12.6576 21.8318 11.8244 21.3392C11.5373 21.6375 11.1582 21.8578 10.7089 21.9478L10.709 21.948C10.4248 22.0051 9.93454 22.1002 9.40098 22.1002C7.33053 22.1002 5.61676 21.067 4.52422 19.3357L4.52432 19.3356C3.60924 17.8867 3.18506 16.0392 3.18506 14.1777C3.18506 12.3189 3.59724 10.4732 4.49004 9.02235L4.49053 9.02157L4.54199 8.93944C5.63153 7.22443 7.33694 6.20019 9.40098 6.20019C9.88935 6.20019 10.3087 6.25382 10.6688 6.33446C10.6744 6.31432 10.6801 6.29407 10.6858 6.27372C10.5789 5.99111 10.4483 5.72056 10.3018 5.47245C9.86131 4.80162 9.44447 4.4474 8.59287 3.97899L8.41514 3.8828L8.37031 3.85751C7.91654 3.58552 7.75106 3.00241 8.00254 2.53017ZM14.6693 8.20019C13.7719 8.20019 13.2595 8.45084 12.8468 8.65468L12.7382 8.7079C12.4904 8.82784 12.2764 8.91639 12.0074 8.9164L11.9482 8.91503C11.6575 8.90177 11.4409 8.79138 11.1709 8.65194C10.7926 8.45715 10.3232 8.21577 9.4834 8.20087L9.40098 8.20019C8.0548 8.20019 6.94678 8.84755 6.19336 10.0706C5.54244 11.1284 5.18516 12.5856 5.18516 14.1777L5.18623 14.3261C5.2083 15.8547 5.57153 17.249 6.21553 18.2683C6.95989 19.4479 8.03711 20.0802 9.33877 20.0997L9.40098 20.1002C9.62669 20.1002 9.8538 20.0709 10.0646 20.0344C10.1497 20.0196 10.2365 20.0031 10.315 19.9873C10.4161 19.9674 10.4605 19.8467 10.3954 19.7669C9.84975 19.092 9.42314 18.2326 9.12676 17.2134C8.85254 16.2658 8.7085 15.2079 8.7085 14.1529C8.7085 13.4777 8.76597 12.8162 8.87754 12.1967C8.96531 11.7094 9.46684 11.436 9.9415 11.5767C10.3994 11.7126 10.6646 12.1853 10.5937 12.6576L10.5805 12.7486C10.5165 13.205 10.484 13.6824 10.484 14.1777C10.484 15.7671 10.8441 17.2216 11.5006 18.2683C12.2368 19.4479 13.3111 20.0802 14.6101 20.0997L14.6721 20.1002C16.0054 20.1002 17.1026 19.4756 17.8525 18.2947L17.888 18.2381C18.5105 17.2267 18.8627 15.8404 18.8841 14.3248L18.8852 14.1777C18.8852 12.5525 18.5223 11.0788 17.8658 10.0293C17.1296 8.85247 16.0472 8.22016 14.7321 8.20067L14.6693 8.20019ZM15.5176 4.56425C14.8565 4.45869 14.2953 4.49592 13.8842 4.72001C13.4763 4.94995 13.1473 5.40608 12.8865 6.02265C13.5476 6.1282 14.1088 6.09095 14.5199 5.86688C14.9278 5.63697 15.2568 5.18077 15.5176 4.56425Z" fill="#696F88"/>
</svg>
