<svg xmlns="http://www.w3.org/2000/svg" width="24" height="24" viewBox="0 0 17.7001 20.1002" fill="none">
<path id="vector" fill-rule="evenodd" clip-rule="evenodd" d="M4.81748 0.530166C5.06897 0.0579216 5.64516 -0.13021 6.12412 0.0945213L6.17012 0.117568L6.27813 0.175576C7.24656 0.700028 7.9237 1.19275 8.54502 2.02616C8.85718 1.61099 9.24389 1.24234 9.72588 0.972549L9.73311 0.968545C11.0728 0.233233 12.6676 0.518004 13.8104 0.859951L13.9196 0.893154C14.4155 1.04674 14.7088 1.55257 14.6022 2.05507L14.5906 2.1037C14.3917 2.85702 14.0702 3.78417 13.4942 4.55331C14.6459 4.98211 15.6146 5.78687 16.3247 6.88739L16.3764 6.96854L16.4186 7.037C17.2973 8.4789 17.7001 10.3206 17.7001 12.1777C17.7001 14.0177 17.2906 15.8496 16.4062 17.2864L16.4058 17.287L16.4054 17.2877C15.3165 19.0538 13.5834 20.1002 11.487 20.1002C10.4338 20.1002 9.47254 19.8318 8.63936 19.3392C8.35223 19.6375 7.97312 19.8578 7.52383 19.9478L7.52393 19.948C7.23978 20.0051 6.74948 20.1002 6.21592 20.1002C4.14547 20.1002 2.4317 19.067 1.33916 17.3357L1.33926 17.3356C0.424181 15.8867 1.79605e-06 14.0392 0 12.1777C1.07507e-06 10.3189 0.412182 8.47317 1.30498 7.02235L1.30547 7.02157L1.35693 6.93944C2.44647 5.22443 4.15188 4.20019 6.21592 4.20019C6.70429 4.20019 7.12368 4.25382 7.48369 4.33446C7.48929 4.31432 7.495 4.29407 7.50078 4.27372C7.39387 3.99111 7.26325 3.72056 7.1167 3.47245C6.67625 2.80162 6.25941 2.4474 5.40781 1.97899L5.23008 1.8828L5.18525 1.85751C4.73148 1.58552 4.566 1.00241 4.81748 0.530166ZM11.4843 6.20019C10.5869 6.20019 10.0744 6.45084 9.66172 6.65468L9.55313 6.7079C9.30533 6.82784 9.09136 6.91639 8.82236 6.9164L8.76318 6.91503C8.47246 6.90177 8.25588 6.79138 7.98584 6.65194C7.6075 6.45715 7.13813 6.21577 6.29834 6.20087L6.21592 6.20019C4.86974 6.20019 3.76172 6.84755 3.0083 8.0706C2.35738 9.12837 2.0001 10.5856 2.0001 12.1777L2.00117 12.3261C2.02325 13.8547 2.38647 15.249 3.03047 16.2683C3.77483 17.4479 4.85206 18.0802 6.15371 18.0997L6.21592 18.1002C6.44163 18.1002 6.66874 18.0709 6.87949 18.0344C6.96461 18.0196 7.05142 18.0031 7.12998 17.9873C7.23105 17.9674 7.27548 17.8467 7.21035 17.7669C6.66469 17.092 6.23808 16.2326 5.9417 15.2134C5.66748 14.2658 5.52344 13.2079 5.52344 12.1529C5.52344 11.4777 5.58091 10.8162 5.69248 10.1967C5.78025 9.70942 6.28178 9.43601 6.75645 9.57675C7.21433 9.71256 7.47951 10.1853 7.40859 10.6576L7.39541 10.7486C7.33148 11.205 7.29893 11.6824 7.29893 12.1777C7.29893 13.7671 7.65906 15.2216 8.31553 16.2683C9.05171 17.4479 10.1261 18.0802 11.425 18.0997L11.487 18.1002C12.8203 18.1002 13.9175 17.4756 14.6675 16.2947L14.7029 16.2381C15.3255 15.2267 15.6776 13.8404 15.699 12.3248L15.7001 12.1777C15.7001 10.5525 15.3372 9.0788 14.6808 8.02929C13.9446 6.85247 12.8621 6.22016 11.5471 6.20067L11.4843 6.20019ZM12.3325 2.56425C11.6714 2.45869 11.1103 2.49592 10.6991 2.72001C10.2912 2.94995 9.96226 3.40608 9.70146 4.02265C10.3625 4.1282 10.9237 4.09095 11.3349 3.86688C11.7428 3.63697 12.0717 3.18077 12.3325 2.56425Z" fill="var(--fill-0, #696F88)"/>
</svg>