<svg xmlns="http://www.w3.org/2000/svg" width="24" height="24" viewBox="0 0 15.3737 18.277" fill="none">
<path id="vector" fill-rule="evenodd" clip-rule="evenodd" d="M5.46333 17.0909C5.03838 17.8269 4.35022 18.2071 3.60769 18.268C2.90997 18.3253 2.21507 18.1023 1.62994 17.7645C1.07386 17.4434 0.517336 16.9835 0.217113 16.3452C-0.112577 15.6444 -0.0666013 14.869 0.35377 14.1409C0.352974 14.1423 0.353183 14.1418 0.354292 14.1394C0.359266 14.1285 0.38234 14.0779 0.413958 13.9756C0.449224 13.8615 0.485638 13.7139 0.515648 13.5437C0.57669 13.1975 0.602482 12.8083 0.564634 12.4629C0.54572 12.2903 0.518347 12.1412 0.487096 11.9709L0.478538 11.9242C0.446769 11.7505 0.404351 11.5173 0.397697 11.2725C0.381628 10.6813 0.572694 10.1547 1.02552 9.60464C1.24436 9.3388 1.35523 8.94245 1.54612 8.23435L1.55299 8.20883C1.7109 7.62267 1.94997 6.73518 2.61533 6.10815C2.67464 6.05226 2.7744 5.9176 2.91629 5.63674C3.01858 5.43426 3.11387 5.21713 3.22421 4.9657C3.265 4.87274 3.30786 4.77508 3.35388 4.67176C3.65419 3.99754 4.10122 3.0306 4.89291 2.44475C5.19104 2.22414 5.38401 2.03429 5.60465 1.81721C5.71882 1.70489 5.84041 1.58526 5.9878 1.45033C6.39536 1.07721 6.90405 0.702658 7.68167 0.568261C7.77586 0.551982 7.90932 0.510407 8.13559 0.428207C8.16926 0.415974 8.20523 0.402749 8.24312 0.388819C8.42922 0.320393 8.66162 0.23494 8.89599 0.166343C9.46884 -0.00132342 10.2792 -0.141223 11.1125 0.263647C11.3498 0.378923 11.6834 0.488394 12.0601 0.606727L12.1191 0.625263C12.2755 0.674317 12.4406 0.726073 12.5832 0.775673C12.7218 0.82387 12.9355 0.901425 13.1121 1.01171C13.981 1.55411 14.4941 2.42883 14.7982 3.1494C15.1097 3.8872 15.256 4.59358 15.3197 4.94602C15.4759 5.81101 15.3211 6.97599 14.4889 7.78117C14.3257 7.93912 14.1203 8.19191 13.8674 8.5032C13.7999 8.58622 13.7287 8.6739 13.6544 8.76455C13.4941 8.96002 13.3193 9.16837 13.152 9.34366C13.0299 9.47162 12.8216 9.68198 12.5672 9.81996C12.5537 9.83395 12.5336 9.85586 12.5063 9.888C12.4345 9.97266 12.36 10.0702 12.2619 10.1986C12.2259 10.2457 12.1863 10.2976 12.1429 10.354C11.8569 10.7255 11.4233 11.2727 10.8487 11.6521C10.5079 11.8771 10.1764 12.1227 9.85793 12.3587L9.77867 12.4174C9.50847 12.6175 9.20476 12.8423 8.94045 12.9982C8.91184 13.0369 8.87241 13.0949 8.82132 13.1769C8.7078 13.3589 8.58193 13.5847 8.43608 13.8463L8.43524 13.8478C8.41232 13.8889 8.38891 13.9309 8.36497 13.9738C8.19785 14.2729 8.00661 14.611 7.8152 14.8982C7.71893 15.0426 7.61076 15.1923 7.49352 15.3269C7.38487 15.4515 7.22336 15.6162 7.01124 15.7374C6.42316 16.0734 5.81947 16.4741 5.46333 17.0909ZM11.4606 2.51478C11.1119 2.40521 10.6325 2.25397 10.2385 2.06257C10.0706 1.98098 9.85401 1.96985 9.4578 2.08581C9.29431 2.13366 9.13842 2.19084 8.9549 2.25814C8.91131 2.27413 8.86567 2.29087 8.81849 2.30801C8.59964 2.38751 8.3129 2.48882 8.02228 2.53904C7.77375 2.582 7.60433 2.68196 7.33832 2.92549C7.27695 2.98167 7.20152 3.05557 7.11401 3.1413C6.8574 3.39269 6.49692 3.74584 6.08259 4.05244C5.77555 4.27965 5.50919 4.74835 5.18084 5.48552C5.16267 5.52632 5.14414 5.56828 5.12529 5.61111C5.32385 5.62439 5.54196 5.64142 5.76266 5.6723C6.37644 5.75816 7.07725 5.95866 7.66123 6.54404C7.85626 6.73954 7.85588 7.05612 7.66039 7.25115C7.46489 7.44617 7.14831 7.4458 6.95328 7.2503C6.58642 6.88257 6.13216 6.73373 5.62411 6.66265C5.39368 6.63042 5.16599 6.61575 4.93088 6.6006L4.84667 6.59514C4.79158 6.59154 4.73536 6.58776 4.67855 6.58349C4.51333 6.90526 4.29324 7.27508 3.987 7.56368C3.78831 7.75091 3.65936 8.0791 3.47718 8.75491C3.46534 8.79886 3.45314 8.84495 3.44046 8.89291C3.29339 9.4489 3.07995 10.2558 2.56961 10.8758C2.54158 10.9098 2.51833 10.9402 2.49902 10.9671C2.53147 10.9637 2.56381 10.9612 2.59569 10.9595C2.81556 10.9478 3.08439 10.9698 3.37013 11.0297C3.9397 11.149 4.64397 11.4337 5.20584 11.9969C5.40087 12.1924 5.40049 12.509 5.20499 12.704C5.0095 12.899 4.69291 12.8986 4.49789 12.7031C4.10892 12.3133 3.59985 12.0995 3.16508 12.0084C2.94864 11.9631 2.76755 11.9518 2.64868 11.9581C2.628 11.9592 2.61053 11.9608 2.59616 11.9625C2.57251 11.9789 2.54758 11.9932 2.5217 12.0053C2.53293 12.0812 2.54356 12.1613 2.55273 12.245C2.6162 12.8242 2.57018 13.4093 2.48527 13.8909C2.48271 13.9054 2.48009 13.92 2.47743 13.9345C2.87753 13.9445 3.27955 14.0981 3.63728 14.3046C3.97977 14.5023 4.3049 14.7621 4.52266 15.0831C5.02957 14.5892 5.57619 14.2553 5.97271 14.0274C5.97645 14.0234 5.98083 14.0185 5.98584 14.0127C6.02555 13.9672 6.08061 13.8945 6.15097 13.789C6.29283 13.5761 6.44849 13.3035 6.61892 12.9984C6.6409 12.9591 6.66324 12.919 6.68585 12.8784C6.82875 12.6219 6.98235 12.3462 7.12422 12.1186C7.20703 11.9858 7.3007 11.845 7.40064 11.7203C7.48094 11.62 7.64548 11.4251 7.88723 11.2966C7.96228 11.2567 8.06938 11.186 8.21798 11.0803C8.20782 11.0567 8.19405 11.029 8.1754 10.9969C8.08924 10.8483 7.93432 10.6708 7.7207 10.4896C7.28771 10.1224 6.72425 9.83173 6.31073 9.75352C6.03939 9.7022 5.86104 9.44064 5.91235 9.16931C5.96367 8.89798 6.22523 8.71962 6.49656 8.77094C7.12406 8.88962 7.84134 9.28068 8.36756 9.72702C8.62949 9.94919 8.87038 10.2069 9.03287 10.4822C9.25664 10.319 9.49866 10.1469 9.74667 9.9831C10.0117 9.80808 10.2672 9.5118 10.5582 9.13389C10.5861 9.09758 10.6156 9.05898 10.646 9.0191C10.7533 8.87857 10.8729 8.72187 10.9811 8.59429C11.0896 8.46634 11.3015 8.22222 11.5938 8.07115C11.6075 8.05922 11.6437 8.02731 11.7051 7.96291C11.7438 7.92243 11.7851 7.87697 11.8293 7.82685C11.4592 6.8738 10.6418 5.99181 9.47793 5.75364C9.20739 5.69828 9.03296 5.43409 9.08832 5.16355C9.14368 4.89302 9.40787 4.71858 9.67841 4.77394C11.0291 5.05035 11.9959 5.95947 12.5352 6.97204C12.7251 6.74259 12.9233 6.51303 13.0982 6.34382C13.3124 6.13657 13.4281 5.72556 13.3515 5.30145C13.2987 5.00933 13.184 4.468 12.9557 3.92714C12.7236 3.37727 12.4239 2.947 12.069 2.71838C12.068 2.7181 12.0653 2.71699 12.0606 2.71507C12.0442 2.70831 12.0032 2.69145 11.9264 2.66474C11.8148 2.62595 11.6815 2.5841 11.5187 2.533L11.4606 2.51478ZM2.08583 15.1409C2.01587 15.2621 2.00272 15.3378 2.00052 15.3742C1.99847 15.4079 2.00335 15.4439 2.02688 15.4939C2.08397 15.6153 2.25335 15.815 2.62994 16.0324C2.97747 16.233 3.26626 16.2893 3.44406 16.2747C3.52569 16.268 3.57643 16.2477 3.6094 16.2275C3.64037 16.2085 3.68424 16.1724 3.73128 16.0909L3.73278 16.0883C3.81117 15.951 3.80595 15.8383 3.73063 15.7021C3.63949 15.5372 3.44143 15.3462 3.13728 15.1706C2.83274 14.9948 2.58336 14.9277 2.41207 14.9345C2.27546 14.9399 2.1739 14.9884 2.08583 15.1409ZM5.95631 14.0441C5.95661 14.0438 5.95744 14.0431 5.95812 14.0425L5.95717 14.0434C5.95659 14.0439 5.95631 14.0441 5.95631 14.0441ZM8.9803 12.9491C8.98029 12.9494 8.97704 12.9533 8.97057 12.9597C8.97401 12.9556 8.97654 12.9528 8.97815 12.9511C8.97959 12.9496 8.9803 12.9491 8.9803 12.9491Z" fill="var(--fill-0, #696F88)"/>
</svg>