<svg xmlns="http://www.w3.org/2000/svg" width="24" height="24" viewBox="0 0 15.61 19.9934" fill="none">
<path id="vector" fill-rule="evenodd" clip-rule="evenodd" d="M7.79997 1.06293e-05C6.31651 0.00417099 5.05302 0.923915 4.05703 2.19388C3.0468 3.48201 2.1882 5.27692 1.51338 7.39026C1.43582 7.63315 1.30656 7.94594 1.13213 8.368L1.13209 8.3681L1.13012 8.37288C0.961945 8.7798 0.764146 9.26028 0.583984 9.77691C0.227887 10.7981 -0.0946022 12.0543 0.0256203 13.3367C0.088028 14.0024 0.275669 15.0769 0.863306 16.0341C1.48127 17.0406 2.5344 17.8933 4.18279 17.9954C5.20991 18.0591 5.96281 17.7453 6.53093 17.4914L6.59913 17.4608C6.66601 17.4309 6.72902 17.4027 6.78878 17.3763V18.9934C6.78878 19.5457 7.2365 19.9934 7.78878 19.9934C8.34107 19.9934 8.78878 19.5457 8.78878 18.9934V17.362C8.85822 17.3925 8.93205 17.4256 9.01131 17.461L9.07911 17.4914C9.64723 17.7453 10.4001 18.0591 11.4273 17.9954C13.0756 17.8933 14.1288 17.0406 14.7467 16.0341C15.3344 15.0769 15.522 14.0024 15.5844 13.3367C15.7046 12.0543 15.3822 10.7981 15.0261 9.77691C14.8459 9.26028 14.6481 8.7798 14.4799 8.37288L14.4779 8.36796C14.3035 7.94591 14.1742 7.63315 14.0967 7.39026C13.4218 5.27692 12.5632 3.48201 11.553 2.19388C10.557 0.923915 9.29353 0.00417099 7.81007 1.06293e-05L7.80502 0L7.79997 1.06293e-05ZM7.80502 2.00001C7.20127 2.00211 6.45214 2.38081 5.63078 3.42811C4.81911 4.46305 4.05189 6.01536 3.41861 7.99863C3.31517 8.32256 3.15777 8.7032 3.00382 9.07549L2.97849 9.13676C2.80939 9.54593 2.63179 9.97855 2.47245 10.4355C2.14955 11.3614 1.93664 12.2941 2.01689 13.15C2.06698 13.6844 2.21154 14.4075 2.56773 14.9877C2.89358 15.5184 3.39589 15.9428 4.30648 15.9992C4.82936 16.0316 5.21147 15.8905 5.71471 15.6655C5.75684 15.6467 5.80076 15.6267 5.84644 15.6059C6.10554 15.488 6.42133 15.3443 6.78878 15.2382V13.9765L5.03156 12.9221C4.79477 12.78 4.71799 12.4729 4.86006 12.2361C5.00213 11.9993 5.30926 11.9225 5.54605 12.0646L6.78878 12.8103V10.7765L5.03156 9.72212C4.79477 9.58004 4.71799 9.27291 4.86006 9.03612C5.00213 8.79933 5.30926 8.72255 5.54605 8.86462L6.78878 9.61026V7.29337C6.78878 6.74108 7.2365 6.29337 7.78878 6.29337C8.34107 6.29337 8.78878 6.74108 8.78878 7.29337V9.61028L10.0315 8.86462C10.2683 8.72255 10.5755 8.79933 10.7175 9.03612C10.8596 9.27291 10.7828 9.58004 10.546 9.72212L8.78878 10.7765V12.8103L10.0315 12.0646C10.2683 11.9225 10.5755 11.9993 10.7175 12.2361C10.8596 12.4729 10.7828 12.78 10.546 12.9221L8.78878 13.9765V15.2289C9.17012 15.3359 9.49688 15.4845 9.76359 15.6059L9.76377 15.606C9.80939 15.6267 9.85325 15.6467 9.89533 15.6655C10.3986 15.8905 10.7807 16.0316 11.3036 15.9992C12.2141 15.9428 12.7165 15.5184 13.0423 14.9877C13.3985 14.4075 13.5431 13.6844 13.5932 13.15C13.6734 12.2941 13.4605 11.3614 13.1376 10.4355C12.9782 9.97855 12.8006 9.54593 12.6315 9.13676L12.6062 9.07549L12.6062 9.07539C12.4522 8.70314 12.2949 8.32252 12.1914 7.99863C11.5581 6.01536 10.7909 4.46305 9.97926 3.42811C9.1579 2.38081 8.40877 2.00211 7.80502 2.00001Z" fill="var(--fill-0, #696F88)"/>
</svg>