<svg xmlns="http://www.w3.org/2000/svg" width="24" height="24" viewBox="0 0 17 20" fill="none">
<path d="M2.47326 2.05761C2.76824 2.37573 3.02242 2.71336 3.22794 3.06776L3.8 2.54304L4.37206 3.06776C4.57758 2.71336 4.83176 2.37573 5.12674 2.05761C5.0611 1.78293 4.95151 1.50701 4.79859 1.23232C4.56169 0.805966 4.22609 0.390828 3.8 0C3.37391 0.390828 3.03831 0.805966 2.80141 1.23232C2.64849 1.50701 2.53889 1.78293 2.47326 2.05761Z" fill="var(--fill-0, #696F88)"/>
<path d="M3.94933 4.04159C4.30514 4.39053 4.59009 4.75708 4.79859 5.13232C5.0651 5.61104 5.2 6.0935 5.2 6.56661C5.2 7.02663 5.06346 7.41558 4.80682 7.69047C4.55182 7.95788 4.2047 8.1 3.79835 8.1C3.39201 8.1 3.04489 7.95788 2.79318 7.69047C2.5349 7.41558 2.4 7.02663 2.4 6.56661C2.4 6.43244 2.41085 6.29753 2.43247 6.16216C2.48686 5.82166 2.60941 5.47829 2.79893 5.1368L2.80141 5.13232C3.00991 4.75708 3.29486 4.39053 3.65067 4.04159C3.69914 3.99406 3.74892 3.94686 3.8 3.9C3.85108 3.94685 3.90086 3.99406 3.94933 4.04159Z" fill="var(--fill-0, #696F88)"/>
<path d="M1.39835 6.6C0.992009 6.6 0.644888 6.45788 0.393185 6.19047C0.1349 5.91558 0 5.52662 0 5.06661C0 4.5935 0.1349 4.11104 0.40141 3.63232C0.638307 3.20597 0.973913 2.79083 1.4 2.4C1.82609 2.79083 2.16169 3.20597 2.39859 3.63232C2.43342 3.69489 2.466 3.75751 2.49633 3.82017C2.27768 4.08392 2.08671 4.35976 1.92748 4.64628C1.59136 5.25015 1.4 5.8984 1.4 6.56661L1.40017 6.6L1.39835 6.6Z" fill="var(--fill-0, #696F88)"/>
<path d="M6.2 6.56661L6.19983 6.6C6.60554 6.59966 6.95213 6.45756 7.20682 6.19047C7.46346 5.91558 7.6 5.52662 7.6 5.06661C7.6 4.5935 7.4651 4.11104 7.19859 3.63232C6.96169 3.20597 6.62609 2.79083 6.2 2.4C5.77391 2.79083 5.43831 3.20597 5.20141 3.63232C5.16658 3.69489 5.134 3.75751 5.10367 3.82017C5.32241 4.08403 5.51345 4.35999 5.67272 4.64664C6.00871 5.25041 6.2 5.89852 6.2 6.56661Z" fill="var(--fill-0, #696F88)"/>
<path fill-rule="evenodd" clip-rule="evenodd" d="M1.86305 10.7839L2.31076 10.8834C2.48005 10.921 2.64349 10.9672 2.8 11.022V10.1715C1.39521 9.80295 0.299245 8.67694 0.124395 7.25118C0.504897 7.48596 0.944235 7.6 1.39836 7.6L1.4366 7.59973C1.77446 8.46091 2.67842 9.11034 3.8 9.11034C4.92157 9.11034 5.82551 8.46093 6.16338 7.59978L6.19835 7.6C6.65525 7.6 7.09488 7.4847 7.47579 7.24969C7.30152 8.67616 6.20528 9.80282 4.8 10.1715V13.8327C4.99015 13.7594 5.19138 13.6995 5.40165 13.6528L5.84935 13.5533L5.98704 13.9908C6.11526 14.3981 6.18083 14.8006 6.17454 15.1852C6.16773 15.6192 6.06844 16.0262 5.86316 16.3817C5.66221 16.7298 5.36339 17.0066 4.97904 17.1238L4.97651 17.1246L4.97398 17.1253C4.91611 17.1423 4.85806 17.1553 4.8 17.1644V19C4.8 19.5523 4.35228 20 3.8 20C3.24772 20 2.8 19.5523 2.8 19V14.3728C2.77842 14.3674 2.75685 14.3615 2.73532 14.355C2.34775 14.2381 2.04945 13.9591 1.84924 13.6124C1.64397 13.2568 1.54467 12.8499 1.53786 12.4159C1.53156 12.0313 1.59714 11.6288 1.72536 11.2214L1.86305 10.7839ZM2.56607 12.0016C2.54481 12.1417 2.53568 12.2746 2.53773 12.3996C2.54227 12.6904 2.60758 12.9259 2.71527 13.1124C2.81932 13.2926 2.93325 13.3702 3.02347 13.3974C3.11015 13.4234 3.21413 13.4184 3.34063 13.3453C3.46544 13.2733 3.52356 13.1861 3.54639 13.0948C3.56721 13.0016 3.55589 12.8636 3.45344 12.6862C3.34576 12.4997 3.17484 12.3256 2.92531 12.1763C2.81807 12.112 2.69801 12.0532 2.56607 12.0016ZM4.78745 14.9454C4.89468 14.8812 5.01439 14.8226 5.14633 14.771C5.16759 14.911 5.17672 15.044 5.17467 15.169C5.17013 15.4598 5.10482 15.6952 4.99714 15.8817C4.89468 16.0592 4.78086 16.138 4.6897 16.1666C4.59926 16.1924 4.4947 16.1857 4.36989 16.1136C4.2434 16.0406 4.18701 15.9531 4.16618 15.865C4.14468 15.7732 4.15491 15.6358 4.25896 15.4556C4.36665 15.269 4.53792 15.0947 4.78745 14.9454Z" fill="var(--fill-0, #696F88)"/>
<path d="M11.8733 2.05761C12.1683 2.37573 12.4224 2.71336 12.628 3.06776L13.2 2.54304L13.7721 3.06776C13.9776 2.71336 14.2318 2.37573 14.5268 2.05761C14.4611 1.78293 14.3515 1.50701 14.1986 1.23232C13.9617 0.805966 13.6261 0.390828 13.2 0C12.7739 0.390828 12.4383 0.805966 12.2014 1.23232C12.0485 1.50701 11.9389 1.78293 11.8733 2.05761Z" fill="var(--fill-0, #696F88)"/>
<path d="M13.3494 4.04159C13.7052 4.39053 13.9901 4.75708 14.1986 5.13232C14.4651 5.61104 14.6 6.0935 14.6 6.56661C14.6 7.02663 14.4635 7.41558 14.2068 7.69047C13.9518 7.95788 13.6047 8.1 13.1984 8.1C12.792 8.1 12.4449 7.95788 12.1932 7.69047C11.9349 7.41558 11.8 7.02663 11.8 6.56661C11.8 6.43244 11.8109 6.29753 11.8325 6.16216C11.8869 5.82166 12.0094 5.47829 12.1989 5.1368L12.2014 5.13232C12.4099 4.75708 12.6949 4.39053 13.0507 4.04159C13.0992 3.99406 13.1489 3.94686 13.2 3.9C13.2511 3.94685 13.3009 3.99406 13.3494 4.04159Z" fill="var(--fill-0, #696F88)"/>
<path d="M10.7984 6.6C10.392 6.6 10.0449 6.45788 9.79321 6.19047C9.53492 5.91558 9.40002 5.52662 9.40002 5.06661C9.40002 4.5935 9.53492 4.11104 9.80143 3.63232C10.0383 3.20597 10.3739 2.79083 10.8 2.4C11.2261 2.79083 11.5617 3.20597 11.7986 3.63232C11.8334 3.69489 11.866 3.75751 11.8964 3.82017C11.6777 4.08392 11.4867 4.35976 11.3275 4.64628C10.9914 5.25015 10.8 5.8984 10.8 6.56661L10.8002 6.6L10.7984 6.6Z" fill="var(--fill-0, #696F88)"/>
<path d="M15.6 6.56661L15.5999 6.6C16.0056 6.59966 16.3522 6.45756 16.6068 6.19047C16.8635 5.91558 17 5.52662 17 5.06661C17 4.5935 16.8651 4.11104 16.5986 3.63232C16.3617 3.20597 16.0261 2.79083 15.6 2.4C15.1739 2.79083 14.8383 3.20597 14.6014 3.63232C14.5666 3.69489 14.534 3.75751 14.5037 3.82017C14.7224 4.08403 14.9135 4.35999 15.0727 4.64664C15.4087 5.25041 15.6 5.89852 15.6 6.56661Z" fill="var(--fill-0, #696F88)"/>
<path fill-rule="evenodd" clip-rule="evenodd" d="M11.2631 10.7839L11.7108 10.8834C11.8801 10.921 12.0435 10.9672 12.2 11.022V10.1715C10.7952 9.80295 9.69927 8.67694 9.52442 7.25118C9.90492 7.48596 10.3443 7.6 10.7984 7.6L10.8366 7.59973C11.1745 8.46091 12.0784 9.11034 13.2 9.11034C14.3216 9.11034 15.2255 8.46093 15.5634 7.59978L15.5984 7.6C16.0553 7.6 16.4949 7.4847 16.8758 7.24969C16.7015 8.67616 15.6053 9.80282 14.2 10.1715V13.8327C14.3902 13.7594 14.5914 13.6995 14.8017 13.6528L15.2494 13.5533L15.3871 13.9908C15.5153 14.3981 15.5809 14.8006 15.5746 15.1852C15.5678 15.6192 15.4685 16.0262 15.2632 16.3817C15.0622 16.7298 14.7634 17.0066 14.3791 17.1238L14.3765 17.1246L14.374 17.1253C14.3161 17.1423 14.2581 17.1553 14.2 17.1644V19C14.2 19.5523 13.7523 20 13.2 20C12.6477 20 12.2 19.5523 12.2 19V14.3728C12.1784 14.3674 12.1569 14.3615 12.1353 14.355C11.7478 14.2381 11.4495 13.9591 11.2493 13.6124C11.044 13.2568 10.9447 12.8499 10.9379 12.4159C10.9316 12.0313 10.9972 11.6288 11.1254 11.2214L11.2631 10.7839ZM11.9661 12.0016C11.9448 12.1417 11.9357 12.2746 11.9378 12.3996C11.9423 12.6904 12.0076 12.9259 12.1153 13.1124C12.2193 13.2926 12.3333 13.3702 12.4235 13.3974C12.5102 13.4234 12.6142 13.4184 12.7407 13.3453C12.8655 13.2733 12.9236 13.1861 12.9464 13.0948C12.9672 13.0016 12.9559 12.8636 12.8535 12.6862C12.7458 12.4997 12.5749 12.3256 12.3253 12.1763C12.2181 12.112 12.098 12.0532 11.9661 12.0016ZM14.1875 14.9454C14.2947 14.8812 14.4144 14.8226 14.5464 14.771C14.5676 14.911 14.5767 15.044 14.5747 15.169C14.5702 15.4598 14.5048 15.6952 14.3972 15.8817C14.2947 16.0592 14.1809 16.138 14.0897 16.1666C13.9993 16.1924 13.8947 16.1857 13.7699 16.1136C13.6434 16.0406 13.587 15.9531 13.5662 15.865C13.5447 15.7732 13.5549 15.6358 13.659 15.4556C13.7667 15.269 13.9379 15.0947 14.1875 14.9454Z" fill="var(--fill-0, #696F88)"/>
</svg>