<svg xmlns="http://www.w3.org/2000/svg" width="24" height="24" viewBox="0 0 18.22 20.0802" fill="none">
<path d="M11.8601 11.594C12.2992 11.8475 12.4708 12.216 12.2958 12.5192C12.1208 12.8223 11.5757 13.0464 11.1601 12.8065C10.7444 12.5665 10.4909 12.2854 10.7821 11.7809C11.0734 11.2765 11.4444 11.3541 11.8601 11.594Z" fill="currentColor"/>
<path d="M6.07918 12.5192C5.90418 12.216 6.07579 11.8475 6.51487 11.594C6.9305 11.3541 7.3016 11.2765 7.59285 11.7809C7.8841 12.2854 7.6305 12.5665 7.21487 12.8065C6.79923 13.0464 6.25418 12.8223 6.07918 12.5192Z" fill="currentColor"/>
<path d="M8.58745 15.2265C8.58745 15.7335 8.82078 16.0664 9.17078 16.0664C9.52078 16.0664 9.98745 15.7065 9.98745 15.2265C9.98745 14.7466 9.87078 14.3864 9.28828 14.3864C8.70578 14.3864 8.58745 14.7466 8.58745 15.2265Z" fill="currentColor"/>
<path d="M12.3733 9.54539C12.5483 9.24228 12.3767 8.87377 11.9376 8.62027C11.5219 8.3803 11.1508 8.30269 10.8596 8.80715C10.5683 9.31161 10.8219 9.59274 11.2376 9.8327C11.6532 10.0727 12.1983 9.8485 12.3733 9.54539Z" fill="currentColor"/>
<path d="M6.43738 8.62027C5.9983 8.87377 5.82669 9.24228 6.00169 9.54539C6.17669 9.8485 6.72174 10.0727 7.13738 9.8327C7.55301 9.59274 7.80661 9.31161 7.51536 8.80715C7.22411 8.30269 6.85301 8.3803 6.43738 8.62027Z" fill="currentColor"/>
<path fill-rule="evenodd" clip-rule="evenodd" d="M10.6515 0.111496C11.1424 -0.141707 11.7455 0.0509218 11.9987 0.541744C12.2519 1.03257 12.0593 1.63572 11.5685 1.88892C10.9749 2.19514 10.7441 2.38221 10.4897 2.75567C10.2611 3.13326 10.11 3.58913 10.11 4.00021C10.11 4.04601 10.1069 4.09108 10.101 4.13525C10.2828 3.94716 10.5377 3.83021 10.82 3.83021C11.1753 3.83021 11.4872 4.01546 11.6646 4.29462L11.6671 4.29442C11.8181 3.93367 12.1745 3.68021 12.59 3.68021C13.048 3.68021 13.434 3.98807 13.5525 4.40813C13.5845 4.41511 13.6163 4.42235 13.648 4.42984C13.831 4.22741 14.0956 4.10021 14.39 4.10021C14.9423 4.10021 15.39 4.54793 15.39 5.10021C15.39 5.13312 15.3884 5.16565 15.3853 5.19774C15.4066 5.21264 15.4278 5.22771 15.4489 5.24295C15.5769 5.18344 15.7196 5.15021 15.87 5.15021C16.4223 5.15021 16.87 5.59793 16.87 6.15021C16.87 6.32882 16.8232 6.4965 16.7411 6.64163C16.7533 6.66138 16.7654 6.6812 16.7773 6.70111C16.7915 6.70051 16.8057 6.70021 16.82 6.70021C17.3723 6.70021 17.82 7.14793 17.82 7.70021C17.82 8.00519 17.6835 8.27828 17.4682 8.46171C17.4737 8.48628 17.4792 8.5109 17.4844 8.53555C17.9084 8.6515 18.22 9.03946 18.22 9.50021C18.22 9.90205 17.983 10.2485 17.6411 10.4075C17.6403 10.4307 17.6393 10.454 17.6383 10.4773C17.9436 10.6485 18.15 10.9753 18.15 11.3502C18.15 11.8327 17.8083 12.2354 17.3536 12.3295C17.3506 12.341 17.3475 12.3525 17.3444 12.3641C17.5561 12.5474 17.69 12.8182 17.69 13.1202C17.69 13.6725 17.2423 14.1202 16.69 14.1202L16.6852 14.1202L16.6794 14.1202C16.6748 14.1293 16.6702 14.1385 16.6656 14.1476C16.7878 14.3135 16.86 14.5184 16.86 14.7402C16.86 15.2925 16.4123 15.7402 15.86 15.7402C15.7918 15.7402 15.7252 15.7334 15.6609 15.7204C15.6501 15.734 15.6392 15.7476 15.6282 15.7612C15.6871 15.8886 15.72 16.0306 15.72 16.1802C15.72 16.7325 15.2723 17.1802 14.72 17.1802C14.5795 17.1802 14.4457 17.1512 14.3244 17.0989C14.3172 17.1051 14.31 17.1112 14.3027 17.1173C14.3206 17.192 14.33 17.27 14.33 17.3502C14.33 17.9025 13.8823 18.3502 13.33 18.3502C13.1191 18.3502 12.9234 18.2849 12.7621 18.1734C12.7346 18.1884 12.7071 18.2032 12.6798 18.2177C12.6799 18.2252 12.68 18.2327 12.68 18.2402C12.68 18.7925 12.2323 19.2402 11.68 19.2402C11.433 19.2402 11.207 19.1507 11.0325 19.0023C10.914 19.4224 10.528 19.7302 10.07 19.7302C10.0066 19.7302 9.94451 19.7243 9.88435 19.713C9.70097 19.9372 9.42219 20.0802 9.11 20.0802C8.7954 20.0802 8.51474 19.9349 8.33143 19.7078C8.26327 19.7225 8.19254 19.7302 8.12 19.7302C7.66931 19.7302 7.28825 19.4321 7.16331 19.0222C6.99237 19.1587 6.77571 19.2402 6.54 19.2402C5.98772 19.2402 5.54 18.7925 5.54 18.2402C5.54 18.2359 5.54003 18.2317 5.54008 18.2274C5.54012 18.2242 5.54018 18.2209 5.54025 18.2177C5.51287 18.2032 5.48542 18.1884 5.45789 18.1734C5.29658 18.2849 5.10092 18.3502 4.89 18.3502C4.33772 18.3502 3.89 17.9025 3.89 17.3502C3.89 17.27 3.89944 17.192 3.91727 17.1173L3.90439 17.1064L3.89559 17.0989C3.77426 17.1512 3.64052 17.1802 3.5 17.1802C2.94772 17.1802 2.5 16.7325 2.5 16.1802C2.5 16.0306 2.53286 15.8886 2.59176 15.7612C2.58083 15.7476 2.56994 15.734 2.5591 15.7204C2.49476 15.7334 2.42817 15.7402 2.36 15.7402C1.80772 15.7402 1.36 15.2925 1.36 14.7402C1.36 14.5184 1.43221 14.3135 1.5544 14.1476L1.54714 14.1332L1.54063 14.1202C1.53709 14.1202 1.53355 14.1202 1.53 14.1202C0.977715 14.1202 0.53 13.6725 0.53 13.1202C0.53 12.8182 0.663892 12.5474 0.875557 12.3641C0.872479 12.3525 0.869423 12.341 0.866392 12.3295C0.411743 12.2354 0.07 11.8327 0.07 11.3502C0.07 10.9753 0.276366 10.6485 0.581715 10.4773C0.580672 10.454 0.579728 10.4307 0.578882 10.4075C0.237019 10.2485 0 9.90205 0 9.50021C0 9.03946 0.311605 8.65149 0.735572 8.53555C0.740848 8.5109 0.746257 8.48628 0.7518 8.46171C0.536528 8.27829 0.4 8.00519 0.4 7.70021C0.4 7.14793 0.847715 6.70021 1.4 6.70021C1.41429 6.70021 1.42852 6.70051 1.44266 6.70111C1.4546 6.6812 1.46667 6.66138 1.47887 6.64163C1.39683 6.4965 1.35 6.32882 1.35 6.15021C1.35 5.59793 1.79772 5.15021 2.35 5.15021C2.50045 5.15021 2.64314 5.18344 2.77113 5.24295C2.79219 5.22771 2.81338 5.21264 2.8347 5.19774C2.83159 5.16565 2.83 5.13312 2.83 5.10021C2.83 4.54793 3.27772 4.10021 3.83 4.10021C4.12438 4.10021 4.38904 4.22741 4.57204 4.42984C4.6037 4.42235 4.63551 4.41511 4.66746 4.40813C4.78596 3.98807 5.17203 3.68021 5.63 3.68021C6.04554 3.68021 6.40188 3.93367 6.55287 4.29442L6.55537 4.29462C6.73276 4.01546 7.04475 3.83021 7.4 3.83021C7.68226 3.83021 7.93721 3.94716 8.11903 4.13524C8.11307 4.09108 8.11 4.046 8.11 4.00021C8.11 3.13179 8.4158 2.30953 8.7968 1.6904L8.80749 1.67303L8.81887 1.65612C9.32898 0.898249 9.86956 0.514898 10.6515 0.111496ZM12.5143 5.67739C12.0734 5.65417 11.6094 5.6895 11.151 5.77414C11.0683 5.80312 10.9807 5.82155 10.8898 5.82782C10.4318 5.93151 9.98491 6.08332 9.57815 6.2738C9.51883 6.30159 9.45816 6.32304 9.39691 6.33844C9.30603 6.36562 9.20972 6.38021 9.11 6.38021C9.01028 6.38021 8.91396 6.36561 8.82307 6.33844C8.76183 6.32304 8.70117 6.30158 8.64185 6.2738C8.2351 6.08332 7.78821 5.93151 7.33024 5.82782C7.23928 5.82155 7.15166 5.80312 7.06901 5.77413C6.61059 5.6895 6.14663 5.65417 5.70568 5.67739C5.69346 5.67831 5.68117 5.679 5.66882 5.67947C5.59908 5.68368 5.52994 5.68936 5.46151 5.69656C5.03462 5.74148 4.64776 5.83904 4.30043 5.98287C4.25569 6.00677 4.20892 6.02736 4.16044 6.04433C3.74266 6.23841 3.38572 6.50246 3.08866 6.8243C3.08678 6.82636 3.08489 6.82841 3.083 6.83045C2.77176 7.1693 2.5266 7.57183 2.34644 8.02393C2.33767 8.04958 2.32788 8.07477 2.31713 8.09944C2.19902 8.41186 2.11119 8.74704 2.05329 9.10048C2.03061 9.23892 2.01277 9.37963 1.99976 9.5222C1.99888 9.5629 1.99557 9.60301 1.98997 9.64237C1.88635 11.086 2.27064 12.7076 3.13298 14.1057C3.18354 14.1673 3.2269 14.2349 3.26177 14.3075C3.43155 14.5645 3.618 14.813 3.82106 15.0504C3.94214 15.192 4.06405 15.3261 4.18642 15.453C4.20701 15.4724 4.22677 15.4927 4.24565 15.5139C4.62052 15.8953 4.99918 16.211 5.37117 16.4734C5.42919 16.5053 5.4837 16.5428 5.53398 16.5851C5.99104 16.8904 6.43555 17.117 6.84773 17.2885C6.89363 17.3033 6.93808 17.3213 6.98081 17.3424C7.64559 17.6045 8.21741 17.7248 8.60872 17.8071C8.74868 17.8366 8.86559 17.8612 8.95535 17.8856C9.00922 17.9003 9.06085 17.9192 9.11 17.9417C9.15915 17.9192 9.21079 17.9003 9.26466 17.8856C9.35442 17.8612 9.47128 17.8366 9.61124 17.8071C9.67048 17.7947 9.73391 17.7813 9.80112 17.7668C9.83588 17.7571 9.87141 17.7492 9.90758 17.7433C10.2695 17.6623 10.7267 17.5445 11.2392 17.3424C11.2819 17.3213 11.3264 17.3033 11.3723 17.2884C11.7845 17.117 12.229 16.8904 12.686 16.5851C12.7363 16.5428 12.7908 16.5053 12.8489 16.4734C13.2208 16.211 13.5995 15.8953 13.9743 15.5139C13.9932 15.4928 14.013 15.4724 14.0336 15.453C14.156 15.326 14.2779 15.192 14.3989 15.0504C14.602 14.813 14.7884 14.5645 14.9582 14.3075C14.9931 14.2349 15.0365 14.1673 15.087 14.1057C15.9494 12.7076 16.3336 11.0861 16.23 9.64241C16.2244 9.60302 16.2211 9.56289 16.2202 9.52216C16.2072 9.3796 16.1894 9.23891 16.1667 9.10048C16.1088 8.74706 16.021 8.4119 15.9029 8.09949C15.8921 8.07479 15.8823 8.04957 15.8735 8.02387C15.6934 7.57193 15.4484 7.16953 15.1373 6.83076C15.1352 6.82852 15.1331 6.82626 15.1311 6.82399C14.8341 6.50229 14.4772 6.23835 14.0596 6.04433C14.0111 6.02736 13.9643 6.00677 13.9196 5.98286C13.5722 5.83904 13.1854 5.74148 12.7585 5.69656C12.6901 5.68936 12.6209 5.68368 12.5512 5.67947C12.5388 5.679 12.5265 5.67831 12.5143 5.67739Z" fill="currentColor"/>
</svg>