<svg width="24" height="24" viewBox="0 0 24 24" fill="none" xmlns="http://www.w3.org/2000/svg">
<path d="M14.7502 13.5938C15.1893 13.8473 15.3609 14.2158 15.1859 14.5189C15.0109 14.822 14.4659 15.0462 14.0502 14.8062C13.6346 14.5663 13.381 14.2851 13.6722 13.7807C13.9635 13.2762 14.3346 13.3538 14.7502 13.5938Z" fill="#696F88"/>
<path d="M8.96931 14.5189C8.79431 14.2158 8.96593 13.8473 9.40501 13.5938C9.82064 13.3538 10.1917 13.2762 10.483 13.7807C10.7742 14.2851 10.5206 14.5663 10.105 14.8062C9.68937 15.0462 9.14431 14.822 8.96931 14.5189Z" fill="#696F88"/>
<path d="M11.4776 17.2263C11.4776 17.7333 11.7109 18.0662 12.0609 18.0662C12.4109 18.0662 12.8776 17.7062 12.8776 17.2263C12.8776 16.7464 12.7609 16.3862 12.1784 16.3862C11.5959 16.3862 11.4776 16.7464 11.4776 17.2263Z" fill="#696F88"/>
<path d="M15.2634 11.5451C15.4384 11.242 15.2668 10.8735 14.8277 10.62C14.4121 10.3801 14.041 10.3024 13.7497 10.8069C13.4585 11.3114 13.7121 11.5925 14.1277 11.8325C14.5433 12.0724 15.0884 11.8483 15.2634 11.5451Z" fill="#696F88"/>
<path d="M9.32752 10.62C8.88844 10.8735 8.71682 11.242 8.89182 11.5451C9.06682 11.8483 9.61188 12.0724 10.0275 11.8325C10.4431 11.5925 10.6967 11.3114 10.4055 10.8069C10.1142 10.3024 9.74315 10.3801 9.32752 10.62Z" fill="#696F88"/>
<path fill-rule="evenodd" clip-rule="evenodd" d="M13.5417 2.11125C14.0325 1.85805 14.6356 2.05068 14.8888 2.5415C15.142 3.03232 14.9494 3.63547 14.4586 3.88868C13.865 4.1949 13.6343 4.38197 13.3798 4.75542C13.1513 5.13302 13.0001 5.58889 13.0001 5.99996C13.0001 6.04576 12.9971 6.09084 12.9911 6.135C13.1729 5.94692 13.4279 5.82997 13.7101 5.82997C14.0654 5.82997 14.3774 6.01521 14.5548 6.29438L14.5573 6.29418C14.7083 5.93342 15.0646 5.67997 15.4801 5.67997C15.9381 5.67997 16.3242 5.98783 16.4427 6.40788C16.4746 6.41486 16.5064 6.4221 16.5381 6.4296C16.7211 6.22717 16.9858 6.09997 17.2801 6.09997C17.8324 6.09997 18.2801 6.54768 18.2801 7.09997C18.2801 7.13287 18.2785 7.1654 18.2754 7.19749C18.2968 7.21239 18.3179 7.22746 18.339 7.2427C18.467 7.18319 18.6097 7.14997 18.7601 7.14997C19.3124 7.14997 19.7601 7.59768 19.7601 8.14997C19.7601 8.32858 19.7133 8.49625 19.6313 8.64138C19.6435 8.66113 19.6555 8.68096 19.6675 8.70086C19.6816 8.70027 19.6958 8.69997 19.7101 8.69997C20.2624 8.69997 20.7101 9.14768 20.7101 9.69997C20.7101 10.0049 20.5736 10.278 20.3583 10.4615C20.3639 10.486 20.3693 10.5107 20.3746 10.5353C20.7985 10.6513 21.1101 11.0392 21.1101 11.5C21.1101 11.9018 20.8731 12.2483 20.5313 12.4072C20.5304 12.4305 20.5295 12.4538 20.5284 12.4771C20.8338 12.6483 21.0401 12.975 21.0401 13.35C21.0401 13.8325 20.6984 14.2352 20.2437 14.3292C20.2407 14.3408 20.2377 14.3523 20.2346 14.3638C20.4462 14.5472 20.5801 14.8179 20.5801 15.12C20.5801 15.6723 20.1324 16.12 19.5801 16.12L19.5753 16.12L19.5695 16.1199C19.5649 16.1291 19.5603 16.1382 19.5557 16.1474C19.6779 16.3132 19.7501 16.5182 19.7501 16.74C19.7501 17.2923 19.3024 17.74 18.7501 17.74C18.682 17.74 18.6154 17.7331 18.551 17.7201C18.5402 17.7338 18.5293 17.7474 18.5184 17.7609C18.5773 17.8884 18.6101 18.0303 18.6101 18.18C18.6101 18.7323 18.1624 19.18 17.6101 19.18C17.4696 19.18 17.3359 19.151 17.2145 19.0987C17.2073 19.1048 17.2001 19.1109 17.1929 19.117C17.2107 19.1918 17.2201 19.2698 17.2201 19.35C17.2201 19.9023 16.7724 20.35 16.2201 20.35C16.0092 20.35 15.8136 20.2847 15.6523 20.1732C15.6247 20.1882 15.5973 20.2029 15.5699 20.2175C15.5701 20.2249 15.5701 20.2324 15.5701 20.24C15.5701 20.7923 15.1224 21.24 14.5701 21.24C14.3232 21.24 14.0971 21.1504 13.9227 21.0021C13.8042 21.4221 13.4181 21.73 12.9601 21.73C12.8967 21.73 12.8346 21.7241 12.7745 21.7128C12.5911 21.9369 12.3123 22.08 12.0001 22.08C11.6855 22.08 11.4049 21.9347 11.2216 21.7076C11.1534 21.7222 11.0827 21.73 11.0101 21.73C10.5594 21.73 10.1784 21.4318 10.0534 21.022C9.88251 21.1584 9.66585 21.24 9.43014 21.24C8.87785 21.24 8.43014 20.7923 8.43014 20.24C8.43014 20.2357 8.43016 20.2314 8.43022 20.2272C8.43026 20.2239 8.43031 20.2207 8.43039 20.2175C8.40301 20.2029 8.37555 20.1882 8.34802 20.1732C8.18672 20.2847 7.99105 20.35 7.78014 20.35C7.22785 20.35 6.78014 19.9023 6.78014 19.35C6.78014 19.2698 6.78958 19.1918 6.80741 19.117L6.79453 19.1061L6.78573 19.0987C6.6644 19.151 6.53065 19.18 6.39014 19.18C5.83785 19.18 5.39014 18.7323 5.39014 18.18C5.39014 18.0303 5.423 17.8884 5.4819 17.7609C5.47097 17.7474 5.46008 17.7338 5.44923 17.7201C5.38489 17.7331 5.31831 17.74 5.25014 17.74C4.69785 17.74 4.25014 17.2923 4.25014 16.74C4.25014 16.5182 4.32235 16.3132 4.44454 16.1474L4.43728 16.1329L4.43077 16.1199C4.42723 16.12 4.42368 16.12 4.42014 16.12C3.86785 16.12 3.42014 15.6723 3.42014 15.12C3.42014 14.8179 3.55403 14.5472 3.76569 14.3638C3.76262 14.3523 3.75956 14.3408 3.75653 14.3292C3.30188 14.2352 2.96014 13.8325 2.96014 13.35C2.96014 12.975 3.1665 12.6483 3.47185 12.4771C3.47081 12.4538 3.46986 12.4305 3.46902 12.4072C3.12716 12.2483 2.89014 11.9018 2.89014 11.5C2.89014 11.0392 3.20174 10.6512 3.62571 10.5353C3.63099 10.5107 3.63639 10.486 3.64194 10.4615C3.42666 10.278 3.29014 10.0049 3.29014 9.69997C3.29014 9.14768 3.73785 8.69997 4.29014 8.69997C4.30443 8.69997 4.31865 8.70027 4.3328 8.70086C4.34474 8.68096 4.35681 8.66113 4.36901 8.64138C4.28696 8.49625 4.24014 8.32858 4.24014 8.14997C4.24014 7.59768 4.68785 7.14997 5.24014 7.14997C5.39059 7.14997 5.53328 7.18319 5.66127 7.24271C5.68233 7.22746 5.70352 7.21239 5.72483 7.19749C5.72173 7.16541 5.72014 7.13287 5.72014 7.09997C5.72014 6.54768 6.16785 6.09997 6.72014 6.09997C7.01451 6.09997 7.27918 6.22717 7.46218 6.4296C7.49384 6.4221 7.52564 6.41487 7.5576 6.40788C7.6761 5.98783 8.06217 5.67997 8.52014 5.67997C8.93568 5.67997 9.29202 5.93342 9.443 6.29417L9.44551 6.29438C9.6229 6.01521 9.93488 5.82997 10.2901 5.82997C10.5724 5.82997 10.8273 5.94691 11.0092 6.13499C11.0032 6.09083 11.0001 6.04576 11.0001 5.99996C11.0001 5.13155 11.3059 4.30928 11.6869 3.69016L11.6976 3.67279L11.709 3.65588C12.2191 2.89801 12.7597 2.51465 13.5417 2.11125ZM15.4044 7.67715C14.9635 7.65392 14.4995 7.68926 14.0411 7.77389C13.9585 7.80287 13.8709 7.8213 13.7799 7.82757C13.3219 7.93127 12.875 8.08307 12.4683 8.27356C12.409 8.30134 12.3483 8.3228 12.2871 8.3382C12.1962 8.36537 12.0999 8.37997 12.0001 8.37997C11.9004 8.37997 11.8041 8.36537 11.7132 8.33819C11.652 8.32279 11.5913 8.30134 11.532 8.27356C11.1252 8.08307 10.6784 7.93127 10.2204 7.82757C10.1294 7.8213 10.0418 7.80287 9.95915 7.77389C9.50072 7.68925 9.03677 7.65392 8.59582 7.67715C8.58359 7.67806 8.57131 7.67876 8.55896 7.67923C8.48922 7.68343 8.42007 7.68912 8.35164 7.69632C7.92476 7.74124 7.5379 7.8388 7.19057 7.98263C7.14583 8.00652 7.09905 8.02712 7.05058 8.04408C6.6328 8.23816 6.27585 8.50221 5.97879 8.82406C5.97692 8.82612 5.97503 8.82817 5.97313 8.83021C5.6619 9.16905 5.41674 9.57158 5.23658 10.0237C5.22781 10.0493 5.21802 10.0745 5.20727 10.0992C5.08916 10.4116 5.00132 10.7468 4.94343 11.1002C4.92075 11.2387 4.90291 11.3794 4.8899 11.522C4.88902 11.5627 4.88571 11.6028 4.88011 11.6421C4.77649 13.0858 5.16078 14.7073 6.02312 16.1055C6.07368 16.167 6.11704 16.2347 6.15191 16.3072C6.32169 16.5642 6.50814 16.8128 6.7112 17.0502C6.83228 17.1918 6.95418 17.3258 7.07656 17.4528C7.09714 17.4722 7.11691 17.4925 7.13579 17.5136C7.51065 17.8951 7.88932 18.2108 8.2613 18.4731C8.31932 18.505 8.37384 18.5425 8.42411 18.5849C8.88117 18.8902 9.32569 19.1168 9.73787 19.2882C9.78377 19.303 9.82822 19.3211 9.87095 19.3421C10.5357 19.6043 11.1075 19.7246 11.4989 19.8069C11.6388 19.8363 11.7557 19.8609 11.8455 19.8854C11.8994 19.9001 11.951 19.9189 12.0001 19.9414C12.0493 19.9189 12.1009 19.9001 12.1548 19.8854C12.2446 19.8609 12.3614 19.8363 12.5014 19.8069C12.5606 19.7944 12.624 19.7811 12.6913 19.7665C12.726 19.7568 12.7615 19.749 12.7977 19.7431C13.1596 19.662 13.6168 19.5442 14.1293 19.3421C14.1721 19.3211 14.2165 19.303 14.2624 19.2882C14.6746 19.1168 15.1191 18.8902 15.5761 18.5849C15.6264 18.5425 15.681 18.505 15.739 18.4731C16.111 18.2108 16.4896 17.8951 16.8644 17.5137C16.8834 17.4925 16.9031 17.4722 16.9238 17.4527C17.0461 17.3258 17.168 17.1918 17.2891 17.0502C17.4921 16.8128 17.6786 16.5642 17.8484 16.3072C17.8832 16.2347 17.9266 16.167 17.9772 16.1055C18.8395 14.7073 19.2238 13.0858 19.1202 11.6422C19.1146 11.6028 19.1112 11.5626 19.1104 11.5219C19.0974 11.3794 19.0795 11.2387 19.0569 11.1002C18.999 10.7468 18.9111 10.4117 18.793 10.0992C18.7823 10.0745 18.7725 10.0493 18.7637 10.0236C18.5836 9.57169 18.3385 9.16929 18.0274 8.83052C18.0253 8.82827 18.0233 8.82601 18.0212 8.82374C17.7242 8.50205 17.3673 8.2381 16.9497 8.04409C16.9012 8.02712 16.8544 8.00652 16.8097 7.98262C16.4624 7.83879 16.0755 7.74124 15.6486 7.69632C15.5802 7.68912 15.5111 7.68343 15.4413 7.67923C15.429 7.67876 15.4167 7.67806 15.4044 7.67715Z" fill="#696F88"/>
</svg>
