<svg width="24" height="24" viewBox="0 0 24 24" fill="none" xmlns="http://www.w3.org/2000/svg">
<path d="M14.9523 14.8713C14.9523 16.5664 13.5836 17.9406 11.8951 17.9406C10.2067 17.9406 8.83791 16.5664 8.83791 14.8713C8.83791 13.3861 9.82411 10.8119 11.8951 10.8119C13.9661 10.8119 14.9523 13.3861 14.9523 14.8713Z" fill="#696F88"/>
<path fill-rule="evenodd" clip-rule="evenodd" d="M11.8943 2C9.39914 2.00044 7.94964 3.9734 7.03332 5.90616C6.55918 6.90625 6.1759 8.00153 5.83992 9.03076C5.73188 9.36172 5.62976 9.68235 5.53119 9.99185C5.31551 10.669 5.11679 11.2929 4.91014 11.8553L4.90845 11.8599L4.90682 11.8645C3.81235 14.9359 4.6058 17.5155 6.18266 19.2961C7.70795 21.0184 9.9644 21.9944 11.8882 22C11.8905 22 11.8928 22 11.8951 22C11.8967 22 11.8983 22 11.8999 22C11.9015 22 11.9031 22 11.9047 22C11.907 22 11.9093 22 11.9116 22C13.8354 21.9944 16.0919 21.0184 17.6171 19.2961C19.194 17.5155 19.9875 14.9359 18.893 11.8645L18.8914 11.8599L18.8897 11.8553C18.6841 11.2959 18.4863 10.6761 18.2716 10.0035C18.1716 9.69019 18.0679 9.36543 17.9581 9.03001C17.6212 8.0006 17.2367 6.90533 16.7612 5.90523C15.8424 3.97226 14.3901 2 11.8951 2M7.42605 10.5447C7.20384 11.2422 6.98392 11.9325 6.76237 12.5359C5.92613 14.8871 6.5333 16.7119 7.65667 17.9803C8.82655 19.3013 10.56 20.0181 11.8999 20.0198C13.2398 20.0181 14.9733 19.3013 16.1431 17.9803C17.2665 16.7119 17.8737 14.8871 17.0374 12.5359C16.8173 11.9364 16.5983 11.2505 16.377 10.5572C16.28 10.2534 16.1825 9.94822 16.0843 9.64821C15.7529 8.63553 15.4 7.63923 14.9812 6.75814C14.1116 4.92875 13.1477 3.98021 11.8951 3.9802C10.6432 3.9802 9.68157 4.92781 8.81426 6.7572C8.39653 7.6383 8.04485 8.63461 7.71421 9.64746C7.61755 9.94359 7.52161 10.2447 7.4261 10.5445L7.42605 10.5447Z" fill="#696F88"/>
</svg>
