<svg width="24" height="24" viewBox="0 0 24 24" fill="none" xmlns="http://www.w3.org/2000/svg">
<path d="M18.0483 10.3366C18.1663 10.087 18.4637 9.98043 18.7134 10.0983C18.963 10.2163 19.0696 10.5137 18.9517 10.7634C18.0805 12.6082 17.0967 14.0025 15.9155 15.0983C14.7344 16.1941 13.3766 16.9728 11.7866 17.6139C11.5306 17.717 11.2395 17.5926 11.1362 17.3366C11.0333 17.0807 11.1568 16.7895 11.4126 16.6862C12.9226 16.0773 14.166 15.3566 15.2349 14.3649C16.3037 13.3733 17.2195 12.0917 18.0483 10.3366Z" fill="#696F88"/>
<path fill-rule="evenodd" clip-rule="evenodd" d="M17.8013 2.42156C18.4312 2.27618 19.0817 2.59553 19.3403 3.19695C19.6179 3.84249 20.053 4.88225 20.2847 5.59344C21.4175 6.65774 22.172 8.66232 22.1069 10.8669C22.0343 13.3254 20.9568 16.1481 18.1597 18.6022C16.0875 20.4202 13.1575 21.4561 10.4536 21.6764C7.80789 21.892 5.0199 21.3442 3.52881 19.5358C3.48135 19.4782 3.44284 19.415 3.40967 19.3493C3.30698 19.286 3.1881 19.2101 3.07666 19.1354C3.01496 19.0941 2.95235 19.0511 2.88916 19.0085C2.7509 18.9152 2.61135 18.8211 2.48096 18.736C2.13753 18.512 1.8999 18.1239 1.8999 17.6843V17.4997C1.90011 16.8371 2.43748 16.3005 3.1001 16.3005H3.50537C3.63285 16.0747 3.82537 15.8438 4.10889 15.6393C4.73257 15.1895 5.72632 14.9001 7.30029 14.9001C12.572 14.8999 16.0905 10.5183 16.5044 6.0573C16.5121 5.97435 16.5297 5.89453 16.5562 5.81902C16.553 5.79642 16.5503 5.77315 16.5503 5.74969C16.5502 5.55891 16.4822 5.0828 16.3931 4.55926C16.2291 3.59503 16.8308 2.6458 17.8013 2.42156ZM18.3755 7.15008C17.5209 12.0886 13.4615 16.8999 7.30029 16.9001C5.987 16.9001 5.46576 17.138 5.30029 17.2468V18.5065C6.24574 19.3931 8.05919 19.865 10.2905 19.6833C12.6595 19.4903 15.1547 18.5772 16.8403 17.0983C19.2291 15.0025 20.052 12.6997 20.1079 10.8083C20.1592 9.07171 19.5749 7.75739 19.0151 7.15008H18.3755ZM3.1001 17.3005C2.98977 17.3005 2.90011 17.3894 2.8999 17.4997V17.6843C2.8999 17.757 2.9412 17.8432 3.02686 17.8991C3.11443 17.9562 3.20755 18.0184 3.30029 18.0807V17.3005H3.1001ZM18.0269 3.39519C17.5896 3.49611 17.3001 3.93206 17.3784 4.39226C17.4207 4.64093 17.4633 4.90834 17.4956 5.15008H19.0601C18.8554 4.61977 18.6126 4.03405 18.4224 3.59148C18.3579 3.44191 18.1935 3.3569 18.0269 3.39519Z" fill="#696F88"/>
</svg>
