<svg xmlns="http://www.w3.org/2000/svg" width="24" height="24" viewBox="0 0 20 20.0003" fill="none">
<path id="vector" fill-rule="evenodd" clip-rule="evenodd" d="M9.70457 0.000257001C9.82213 -0.00241876 9.94216 0.0157482 10.0596 0.0571617C10.5805 0.240784 10.8539 0.811885 10.6703 1.33275C10.2301 2.58128 10.2606 3.43047 10.4607 4.05608C10.5139 4.2223 10.5818 4.38159 10.6635 4.53611C11.0864 3.92091 11.6543 3.35693 12.4248 3.04149L12.4268 3.04066L12.4322 3.03848C13.8278 2.48015 15.3756 2.93704 16.4361 3.37054C16.9527 3.58171 17.2082 4.15566 17.0087 4.65667C16.5991 5.68518 15.8685 7.06421 14.4778 7.63356L14.4736 7.63531L14.4704 7.63657C14.2947 7.70689 14.1165 7.7611 13.9372 7.80129C14.3314 8.21876 14.7003 8.70245 14.9557 9.27986L14.9913 9.27419C15.1691 9.24582 15.3764 9.21273 15.5777 9.18715C16.1539 9.11394 16.9 9.06791 17.6591 9.30525C19.3189 9.82425 20 11.5245 20 13.0927C20 15.5528 17.7421 18.0003 14.3004 18.0003C13.0913 18.0003 11.9801 17.6531 11.0662 17.0863C10.194 18.7262 8.30634 20.0003 5.8 20.0003C2.55102 20.0003 0 17.5386 0 15.0092C0 13.2108 1.00254 11.6303 2.60172 11.1569C3.35375 10.9342 4.04981 10.9777 4.59889 11.0513C4.67777 11.0619 4.75898 11.074 4.83905 11.0865C4.68563 8.23183 4.98732 6.13534 5.69355 4.45491C6.46947 2.60867 7.68901 1.37424 9.05989 0.232003C9.24823 0.0750742 9.47722 -0.000892684 9.70457 0.000257001ZM10.746 12.2284C11.3365 12.9963 11.5985 14.0221 11.6 15.0008C11.8429 15.2193 12.1268 15.4164 12.4484 15.5766C12.2782 15.0175 12.2338 14.3383 12.2338 13.63C12.2338 12.7788 12.2973 11.9935 12.5761 11.4117C12.6178 11.3247 12.6649 11.2409 12.7178 11.1615C12.3542 11.1221 12.0374 11.1278 11.7308 11.2185C11.3416 11.3338 10.9504 11.676 10.746 12.2284ZM7.10728 11.0415C7.65215 10.9723 8.34394 10.9272 9.05632 11.1133C9.49251 10.2455 10.2227 9.57919 11.163 9.30082C11.6203 9.16544 12.0564 9.13003 12.45 9.13976C12.4007 9.08837 12.3492 9.03655 12.2956 8.98418C12.0221 8.71719 11.7151 8.45699 11.3727 8.17018L11.3023 8.11121C10.9881 7.84821 10.6462 7.56196 10.3213 7.25727C10.2899 7.22777 10.2584 7.19794 10.227 7.16777C10.1569 7.11443 10.095 7.05315 10.042 6.98592C9.43805 6.3763 8.86478 5.63141 8.55577 4.66544C8.46479 4.38101 8.39922 4.08559 8.36076 3.77788C8.03732 4.21862 7.76272 4.69352 7.53734 5.22979C6.97983 6.55635 6.68547 8.35222 6.84169 11.0784C6.92942 11.0654 7.01889 11.0527 7.10728 11.0415ZM14.2775 16.0002C14.2567 16.0001 14.2359 15.9999 14.2152 15.9995C14.0082 15.9926 13.8709 15.9418 13.7732 15.876C13.6664 15.8041 13.5679 15.6878 13.4836 15.4988C13.3052 15.0985 13.2338 14.4752 13.2338 13.63C13.2338 12.7816 13.3062 12.2021 13.4779 11.8439C13.557 11.6787 13.6494 11.5785 13.7538 11.515C13.8602 11.4502 14.0178 11.4003 14.264 11.4003C14.5102 11.4003 14.6677 11.4502 14.7741 11.515C14.8785 11.5785 14.9709 11.6787 15.05 11.8439C15.2217 12.2021 15.2941 12.7816 15.2941 13.63C15.2941 14.4752 15.2227 15.0985 15.0443 15.4988C14.96 15.6878 14.8615 15.8041 14.7547 15.876C14.6516 15.9455 14.5043 15.9982 14.2775 16.0002ZM16.0507 15.6664C17.3555 15.1128 18 13.978 18 13.0927C18 11.9497 17.5257 11.3591 17.0622 11.2141C16.7181 11.1065 16.3167 11.1093 15.8298 11.1712L15.8175 11.1728C15.8674 11.2488 15.9121 11.3288 15.9518 11.4117C16.2306 11.9935 16.2941 12.7788 16.2941 13.63C16.2941 14.3767 16.2448 15.091 16.0507 15.6664ZM13.6607 5.80794C14.0345 5.65359 14.3648 5.31925 14.6543 4.85065C14.0997 4.72367 13.618 4.71795 13.2419 4.86712C12.8681 5.02146 12.5378 5.3558 12.2483 5.8244C12.8029 5.95139 13.2846 5.95711 13.6607 5.80794ZM5.9814 13.2104C5.92082 13.2137 5.86017 13.2155 5.8 13.2155C5.73906 13.2155 5.67825 13.2137 5.61801 13.2105C5.47014 13.2296 5.36344 13.2718 5.28321 13.3232C5.1734 13.3935 5.07471 13.5055 4.99052 13.6876C4.81055 14.077 4.73726 14.6931 4.73726 15.558C4.73726 16.4209 4.80988 17.0677 4.99429 17.4866C5.08179 17.6854 5.18457 17.8091 5.29631 17.8857C5.36416 17.9322 5.44968 17.9712 5.56192 17.9942C5.6402 17.9982 5.71957 18.0003 5.8 18.0003C5.87867 18.0003 5.9561 17.9986 6.03231 17.9954C6.14744 17.9726 6.23476 17.933 6.30378 17.8857C6.41553 17.8091 6.51831 17.6854 6.60581 17.4866C6.79022 17.0677 6.86284 16.4209 6.86284 15.558C6.86284 14.6931 6.78954 14.077 6.60957 13.6876C6.52539 13.5055 6.42669 13.3935 6.31688 13.3232C6.23653 13.2717 6.12963 13.2295 5.9814 13.2104ZM7.38463 13.0224C7.43397 13.1009 7.47801 13.1831 7.51729 13.2681C7.79739 13.874 7.86284 14.6871 7.86284 15.558C7.86284 16.3239 7.81193 17.0586 7.61326 17.6502C8.94155 17.079 9.6 15.9192 9.6 15.0092C9.6 13.8373 9.11337 13.2222 8.62714 13.0702C8.27734 12.9608 7.87162 12.9622 7.38463 13.0224ZM3.97043 17.6C2.72018 17.0078 2 15.875 2 15.0092C2 13.9132 2.58365 13.248 3.16946 13.0746C3.4952 12.9782 3.83141 12.9749 4.2175 13.0191C4.16734 13.0987 4.12262 13.1819 4.08281 13.2681C3.8027 13.874 3.73726 14.6871 3.73726 15.558C3.73726 16.3024 3.78534 17.0172 3.97043 17.6Z" fill="var(--fill-0, #696F88)"/>
</svg>