<svg xmlns="http://www.w3.org/2000/svg" width="24" height="24" viewBox="0 0 20.0165 20.7552" fill="none">
<path d="M16.3899 4.70998C16.5279 4.47084 16.446 4.16504 16.2069 4.02697C15.9677 3.8889 15.6619 3.97084 15.5238 4.20998L15.2549 4.67587C15.253 4.67344 15.2511 4.67101 15.2492 4.66857C15.143 4.53013 15.0651 4.37212 15.0199 4.20357C14.9484 3.93683 14.6743 3.77854 14.4075 3.85001C14.1408 3.92148 13.9825 4.19565 14.054 4.46238C14.1331 4.75779 14.2697 5.0347 14.4559 5.27733C14.5394 5.38625 14.6323 5.4873 14.7332 5.57943L14.4083 6.14224L14.406 6.14607L14.4038 6.14992L14.0489 6.76459C13.9926 6.71073 13.9395 6.65393 13.89 6.59451C13.7348 6.40805 13.6196 6.201 13.5485 5.9867C13.4615 5.7246 13.1786 5.58259 12.9165 5.66952C12.6544 5.75645 12.5124 6.0394 12.5993 6.3015C12.7113 6.63924 12.8896 6.95569 13.1215 7.23429C13.2468 7.38489 13.3869 7.52329 13.5392 7.64753L13.1768 8.2752C13.1753 8.27764 13.1739 8.28009 13.1725 8.28256C13.0344 8.5217 13.1163 8.8275 13.3555 8.96557C13.6719 9.14824 14.0181 9.27429 14.3753 9.33583C14.7325 9.39738 15.0957 9.3935 15.4442 9.32164C15.7147 9.26587 15.8887 9.00142 15.8329 8.73096C15.7771 8.46051 15.5127 8.28648 15.2422 8.34225C15.0211 8.38784 14.7842 8.39154 14.5451 8.35035C14.4689 8.33723 14.3932 8.31967 14.3184 8.2978L15.0492 7.03205C15.1794 7.07337 15.3134 7.10324 15.4495 7.12116C15.7527 7.16108 16.0608 7.14088 16.3562 7.06173C16.6229 6.99026 16.7812 6.71609 16.7097 6.44936C16.6383 6.18262 16.3641 6.02433 16.0974 6.0958C15.9288 6.14097 15.753 6.15249 15.58 6.12971C15.577 6.12931 15.5739 6.1289 15.5709 6.12848L16.3899 4.70998Z" fill="var(--fill-0, #696F88)"/>
<path d="M4.18293 8.62265C3.98767 8.42739 3.67109 8.42739 3.47582 8.62265C3.28056 8.81792 3.28056 9.1345 3.47582 9.32976L4.47891 10.3328L4.481 10.3349L4.4831 10.337L4.94961 10.8035C4.82056 10.8165 4.66671 10.807 4.49137 10.766C4.22247 10.7032 3.95356 10.8703 3.89075 11.1392C3.82795 11.4081 3.99502 11.677 4.26393 11.7398C4.59276 11.8166 4.92429 11.833 5.2354 11.7708C5.41247 11.7354 5.58071 11.6748 5.73423 11.5882L5.86929 11.7232C6.06455 11.9185 6.38113 11.9185 6.5764 11.7232C6.77166 11.528 6.77166 11.2114 6.5764 11.0161L5.48138 9.9211C5.54403 9.79185 5.58956 9.65357 5.61839 9.50944C5.68061 9.19833 5.66419 8.8668 5.58739 8.53797C5.52458 8.26906 5.25567 8.10199 4.98677 8.16479C4.71786 8.2276 4.55079 8.49651 4.61359 8.76541C4.64181 8.88621 4.65511 8.99681 4.65641 9.09613L4.18293 8.62265Z" fill="var(--fill-0, #696F88)"/>
<path fill-rule="evenodd" clip-rule="evenodd" d="M17.552 0.00532018C17.8395 0.0222051 18.1775 0.0840251 18.4848 0.261475C18.7972 0.441828 19.0201 0.70963 19.1766 0.952541C19.3392 1.20479 19.4711 1.49411 19.5778 1.79438C19.7912 2.39535 19.9339 3.12676 19.9899 3.90126C20.1007 5.43359 19.8837 7.31548 19.0041 8.85148L19.0018 8.85537L19 8.85851C18.2792 10.0938 17.1591 10.9043 15.9495 11.4614C14.8479 11.9687 13.6214 12.2893 12.4471 12.5281C12.2 12.9427 11.9326 13.4535 11.6943 14.2576C11.3681 15.3583 11.0894 17.045 11.0894 19.7552C11.0894 20.3074 10.6417 20.7552 10.0894 20.7552C9.5371 20.7552 9.08939 20.3074 9.08939 19.7552C9.08939 18.9251 9.11426 18.1762 9.15936 17.4986C9.15735 16.0415 8.48296 14.9839 7.99183 14.4142C7.0333 14.4688 6.00971 14.4706 5.03861 14.3016C3.95628 14.1132 2.87396 13.7012 2.01736 12.8524C2.01547 12.8505 2.01359 12.8486 2.01172 12.8468C0.946946 11.7747 0.36748 10.3162 0.131627 9.07496C0.0124486 8.44773 -0.0274231 7.83382 0.0186602 7.30343C0.0416888 7.03838 0.0880468 6.77215 0.169205 6.52584C0.247075 6.2895 0.377827 6.00757 0.609807 5.77559C0.845912 5.53948 1.13364 5.40978 1.37141 5.33401C1.61989 5.25483 1.88822 5.21112 2.15446 5.19063C2.68742 5.14961 3.30419 5.19474 3.9321 5.31688C5.17179 5.55802 6.63155 6.13541 7.68091 7.17743C7.68281 7.17933 7.68471 7.18123 7.68661 7.18314C8.53543 8.03974 8.94743 9.12206 9.13582 10.2044C9.28652 11.0701 9.30139 11.9776 9.26415 12.8435C9.43598 13.0222 9.63143 13.2464 9.82999 13.5149C10.1476 12.5049 10.5173 11.85 10.8014 11.3839C10.4543 10.3163 10.1567 9.18027 10.0531 8.05709C9.93078 6.73102 10.0726 5.35571 10.782 4.11384L10.7843 4.10984L10.786 4.1069C11.6966 2.54204 13.2161 1.41148 14.6004 0.747788C15.2987 0.412985 16.0013 0.177999 16.6266 0.0690556C16.9392 0.014607 17.254 -0.0121744 17.552 0.00532018ZM12.5167 5.10931C12.0775 5.8801 11.946 6.80399 12.0447 7.87336C12.1204 8.69469 12.3283 9.56194 12.603 10.4491C13.5087 10.2435 14.3636 9.98981 15.1128 9.64477C16.0882 9.19553 16.8226 8.61972 17.2705 7.85406C17.8878 6.77374 18.0879 5.32869 17.9951 4.04549C17.9492 3.41152 17.8347 2.86241 17.6931 2.46376C17.6223 2.26422 17.5522 2.12396 17.4955 2.03599C17.4878 2.02404 17.4809 2.01382 17.4747 2.00515C17.4634 2.00393 17.4502 2.00279 17.4347 2.00188C17.3306 1.99577 17.1755 2.00355 16.9699 2.03938C16.5588 2.11099 16.032 2.27942 15.465 2.55123C14.3201 3.10018 13.1668 3.99432 12.5167 5.10931ZM3.42773 11.4343C3.90142 11.9024 4.5531 12.187 5.38159 12.3312C5.96577 12.4329 6.60508 12.4591 7.27667 12.4424C7.29334 11.7709 7.26714 11.1316 7.16545 10.5474C7.02126 9.71901 6.7367 9.0674 6.26877 8.59374C5.5896 7.92098 4.54487 7.47356 3.55022 7.28009C3.06026 7.18478 2.62673 7.1602 2.30794 7.18473C2.19783 7.19321 2.11233 7.20673 2.04962 7.22076C2.03497 7.28288 2.02062 7.36755 2.01115 7.47655C1.98391 7.79012 2.00443 8.21718 2.09647 8.70162C2.28281 9.68226 2.72813 10.7282 3.42773 11.4343ZM2.08343 7.11391C2.08343 7.11391 2.08292 7.11513 2.08173 7.11729C2.08281 7.11495 2.08343 7.11391 2.08343 7.11391ZM1.94542 7.2517C1.94294 7.25302 1.94154 7.25358 1.94154 7.25358C1.94154 7.25358 1.94272 7.25288 1.94542 7.2517Z" fill="var(--fill-0, #696F88)"/>
</svg>