<svg xmlns="http://www.w3.org/2000/svg" width="24" height="24" viewBox="0 0 14.6568 14.88" fill="none">
<path id="vector" d="M2.37841 14.88C1.73041 14.88 1.128 14.6808 0.681602 14.3208C0.242401 13.9656 0 13.4904 0 12.984C0 12.3456 0.439201 11.6664 1.1472 11.2128C2.22961 10.5312 2.70961 9.8256 3.12001 8.3112C3.28321 7.7016 3.77281 7.368 4.49281 7.368C5.15762 7.368 5.77442 7.6368 6.23042 8.124C6.68882 8.616 6.94322 9.2856 6.94322 10.008C6.94322 11.1264 6.42002 12.3648 5.54162 13.3224C4.63681 14.3136 3.48241 14.88 2.37841 14.88ZM11.988 14.712C11.3856 14.712 10.956 14.4792 10.6704 14.0016C10.3968 13.5432 10.2576 12.8448 10.2576 11.928C10.2576 10.8048 9.73443 10.0752 9.31443 9.4872C9.02163 9.0792 8.76963 8.7264 8.76963 8.352C8.76963 7.872 9.03123 7.4064 9.50403 7.0368C9.95283 6.6888 10.5384 6.48 11.076 6.48C12.0096 6.48 12.9096 7.0176 13.6128 7.9968C14.2656 8.9064 14.6568 10.0992 14.6568 11.184C14.6568 12.1176 14.3856 12.9984 13.8912 13.6656C13.3872 14.34 12.7128 14.712 11.988 14.712ZM6.84722 5.424C5.81762 5.424 4.84562 5.124 4.11121 4.5768C3.36481 4.0248 2.95441 3.276 2.95441 2.472C2.95441 1.452 3.68881 0.792 4.82882 0.792C5.22722 0.792 5.45762 0.8352 5.68082 0.8784C5.89442 0.9192 6.11522 0.96 6.46322 0.96C7.36562 0.96 8.01122 0.6264 8.52963 0.3576C8.89923 0.1656 9.22083 0 9.53763 0C9.99363 0 10.428 0.24 10.764 0.6792C11.0832 1.0968 11.268 1.6368 11.268 2.16C11.268 4.1136 8.98083 5.424 6.84722 5.424Z" fill="var(--fill-0, #696F88)"/>
</svg>