<svg width="24" height="24" viewBox="0 0 24 24" fill="none" xmlns="http://www.w3.org/2000/svg">
<path d="M6.88329 19.2355C6.23529 19.2355 5.63289 19.0363 5.18649 18.6763C4.74728 18.3211 4.50488 17.8459 4.50488 17.3395C4.50488 16.7011 4.94408 16.0219 5.65209 15.5683C6.73449 14.8867 7.21449 14.1811 7.62489 12.6667C7.78809 12.0571 8.27769 11.7235 8.9977 11.7235C9.6625 11.7235 10.2793 11.9923 10.7353 12.4795C11.1937 12.9715 11.4481 13.6411 11.4481 14.3635C11.4481 15.4819 10.9249 16.7203 10.0465 17.6779C9.1417 18.6691 7.98729 19.2355 6.88329 19.2355ZM16.4929 19.0675C15.8905 19.0675 15.4609 18.8347 15.1753 18.3571C14.9017 17.8987 14.7625 17.2003 14.7625 16.2835C14.7625 15.1603 14.2393 14.4307 13.8193 13.8427C13.5265 13.4347 13.2745 13.0819 13.2745 12.7075C13.2745 12.2275 13.5361 11.7619 14.0089 11.3923C14.4577 11.0443 15.0433 10.8355 15.5809 10.8355C16.5145 10.8355 17.4145 11.3731 18.1177 12.3523C18.7705 13.2619 19.1617 14.4547 19.1617 15.5395C19.1617 16.4731 18.8905 17.3539 18.3961 18.0211C17.8921 18.6955 17.2177 19.0675 16.4929 19.0675ZM11.3521 9.77947C10.3225 9.77947 9.3505 9.47947 8.6161 8.93227C7.86969 8.38027 7.45929 7.63147 7.45929 6.82747C7.45929 5.80747 8.19369 5.14747 9.3337 5.14747C9.7321 5.14747 9.9625 5.19067 10.1857 5.23387C10.3993 5.27467 10.6201 5.31547 10.9681 5.31547C11.8705 5.31547 12.5161 4.98187 13.0345 4.71307C13.4041 4.52107 13.7257 4.35547 14.0425 4.35547C14.4985 4.35547 14.9329 4.59547 15.2689 5.03467C15.5881 5.45227 15.7729 5.99227 15.7729 6.51547C15.7729 8.46907 13.4857 9.77947 11.3521 9.77947Z" fill="#696F88"/>
</svg>
