<svg width="24" height="24" viewBox="0 0 24 24" fill="none" xmlns="http://www.w3.org/2000/svg">
<path d="M10.5397 5.5055C10.9328 5.90183 11.414 6.1 11.9833 6.1H16.05C16.05 5.526 15.8534 5.04083 15.4603 4.6445C15.0672 4.24817 14.586 4.05 14.0167 4.05C13.4473 4.05 12.9661 4.24817 12.573 4.6445C12.1799 5.04083 11.9833 5.526 11.9833 6.1V2C11.414 2 10.9328 2.19817 10.5397 2.5945C10.1466 2.99083 9.95 3.476 9.95 4.05C9.95 4.624 10.1466 5.10917 10.5397 5.5055Z" fill="#696F88"/>
<path d="M7 14.3C8.10457 14.3 9 13.4046 9 12.3C9 11.1954 8.10457 10.3 7 10.3C5.89543 10.3 5 11.1954 5 12.3C5 13.4046 5.89543 14.3 7 14.3Z" fill="#696F88"/>
<path d="M12 14.3C13.1046 14.3 14 13.4046 14 12.3C14 11.1954 13.1046 10.3 12 10.3C10.8954 10.3 10 11.1954 10 12.3C10 13.4046 10.8954 14.3 12 14.3Z" fill="#696F88"/>
<path d="M7.59615 19.3856C8.42683 19.3042 9.15811 18.884 9.65 18.265C10.0784 18.8041 10.6885 19.1924 11.3876 19.3375C11.4604 19.5448 11.5 19.7678 11.5 20C11.5 21.1046 10.6046 22 9.5 22C8.39543 22 7.5 21.1046 7.5 20C7.5 19.7856 7.53372 19.5792 7.59615 19.3856Z" fill="#696F88"/>
<path d="M12.6124 19.3375C12.5396 19.5448 12.5 19.7678 12.5 20C12.5 21.1046 13.3954 22 14.5 22C15.6046 22 16.5 21.1046 16.5 20C16.5 19.7856 16.4663 19.5792 16.4038 19.3856C15.5732 19.3042 14.8419 18.884 14.35 18.265C13.9216 18.8041 13.3115 19.1924 12.6124 19.3375Z" fill="#696F88"/>
<path d="M19 12.3C19 13.4046 18.1046 14.3 17 14.3C15.8954 14.3 15 13.4046 15 12.3C15 11.1954 15.8954 10.3 17 10.3C18.1046 10.3 19 11.1954 19 12.3Z" fill="#696F88"/>
<path d="M5.81722 15.0578C5.4958 15.4127 5.3 15.8835 5.3 16.4C5.3 17.5046 6.19543 18.4 7.3 18.4C8.40457 18.4 9.3 17.5046 9.3 16.4C9.3 15.7783 9.01634 15.2229 8.57137 14.856C8.11438 15.1376 7.57616 15.3 7 15.3C6.57999 15.3 6.18014 15.2137 5.81722 15.0578Z" fill="#696F88"/>
<path d="M10 16.4C10 15.8346 10.2346 15.324 10.6118 14.9602C11.0269 15.1773 11.4991 15.3 12 15.3C12.5009 15.3 12.9731 15.1773 13.3882 14.9602C13.7654 15.324 14 15.8346 14 16.4C14 17.5046 13.1046 18.4 12 18.4C10.8954 18.4 10 17.5046 10 16.4Z" fill="#696F88"/>
<path d="M15.4286 14.856C14.9837 15.2229 14.7 15.7783 14.7 16.4C14.7 17.5046 15.5954 18.4 16.7 18.4C17.8046 18.4 18.7 17.5046 18.7 16.4C18.7 15.8835 18.5042 15.4127 18.1828 15.0578C17.8199 15.2137 17.42 15.3 17 15.3C16.4238 15.3 15.8856 15.1376 15.4286 14.856Z" fill="#696F88"/>
<path d="M11.4701 9.34666C11.4897 9.23406 11.5 9.11823 11.5 9C11.5 7.89543 10.6046 7 9.5 7C8.39543 7 7.5 7.89543 7.5 9C7.5 9.11823 7.51026 9.23406 7.52993 9.34666C8.35056 9.49292 9.05568 9.97284 9.5 10.6411C9.94432 9.97284 10.6494 9.49292 11.4701 9.34666Z" fill="#696F88"/>
<path d="M16.5 9C16.5 9.11823 16.4897 9.23406 16.4701 9.34666C15.6494 9.49292 14.9443 9.97284 14.5 10.6411C14.0557 9.97284 13.3506 9.49292 12.5299 9.34666C12.5103 9.23406 12.5 9.11823 12.5 9C12.5 7.89543 13.3954 7 14.5 7C15.6046 7 16.5 7.89543 16.5 9Z" fill="#696F88"/>
</svg>
