<svg width="24" height="24" viewBox="0 0 24 24" fill="none" xmlns="http://www.w3.org/2000/svg">
<path fill-rule="evenodd" clip-rule="evenodd" d="M12.1328 1.97085C13.4655 1.96326 14.9637 2.25844 16.5394 3.09672C16.5597 3.10146 16.5799 3.1068 16.6 3.11284C18.0584 3.55169 21.5701 5.78685 21.9631 10.6413L21.9718 10.7564L21.974 10.8078C21.9741 10.8123 21.9739 10.8169 21.9739 10.8214L21.974 10.823C21.9741 10.8266 21.9739 10.8302 21.9739 10.8337L21.974 10.8348C21.9747 10.8708 21.9732 10.9065 21.9701 10.9416C21.9713 10.9799 21.9728 11.0292 21.9735 11.0885C21.9753 11.2302 21.9741 11.4302 21.9633 11.6745C21.9416 12.1612 21.8809 12.8344 21.7231 13.5813C21.4181 15.0248 20.7177 16.8925 19.075 18.1277L18.9961 18.186C18.3199 18.677 17.8086 19.1338 17.3635 19.5566C16.9399 19.9591 16.5027 20.4055 16.0784 20.7654C15.1496 21.5532 14.1355 22.0661 12.3715 22.23L12.1984 22.2448C10.5647 22.3721 9.48683 22.0114 8.5905 21.4577C8.17859 21.2032 7.80519 20.9065 7.49372 20.6697C7.18692 20.4364 6.90826 20.2352 6.59724 20.0645L6.53464 20.0307C5.42104 19.4428 4.50043 18.3179 3.90027 17.4587C3.58743 17.0109 3.33528 16.5961 3.16111 16.2932C3.07377 16.1413 3.0053 16.0163 2.95798 15.9278C2.93431 15.8835 2.91593 15.8483 2.903 15.8233C2.89654 15.8108 2.89136 15.8009 2.88767 15.7937C2.88583 15.7901 2.88431 15.7871 2.88318 15.7848C2.88262 15.7837 2.88219 15.7827 2.88181 15.782C2.88162 15.7816 2.88137 15.7813 2.88122 15.781L2.88103 15.7805L2.97195 15.7346L2.97185 15.7344L2.88083 15.7802C2.7967 15.613 2.76268 15.4287 2.77771 15.248C1.38676 11.4625 2.26974 8.59405 3.59509 6.66977C4.26559 5.69629 5.03415 4.98342 5.63191 4.5144C5.93204 4.27891 6.19298 4.10192 6.38288 3.98159C6.39118 3.97633 6.39936 3.9712 6.40739 3.96616C6.43088 3.94227 6.45553 3.91937 6.48152 3.8978L6.49382 3.91264C6.49411 3.91247 6.49441 3.91233 6.4947 3.91215C6.48259 3.89736 6.4823 3.89711 6.4823 3.89711C6.48245 3.89698 6.48286 3.8966 6.48318 3.89633C6.48381 3.89581 6.48457 3.8953 6.48532 3.89467C6.48686 3.89341 6.48865 3.89185 6.4907 3.89018C6.49479 3.88684 6.49991 3.88269 6.50603 3.87778C6.51831 3.86792 6.53473 3.85496 6.55505 3.8392C6.59569 3.8077 6.6523 3.76493 6.72409 3.71342C6.86756 3.61049 7.07255 3.47186 7.33279 3.31762C7.85173 3.01005 8.5999 2.63463 9.52575 2.35825C10.2766 2.1341 11.1432 1.97622 12.0938 1.97085H12.1328ZM19.3537 11.6767C18.5456 11.6428 17.5116 11.7361 16.4938 12.2032L16.3954 12.2496C14.3504 13.2383 12.5855 14.1082 11.0876 14.7613C9.59988 15.4099 8.28388 15.8867 7.13825 16.0449C6.50944 16.1317 5.95413 16.1919 5.48523 16.234C5.50328 16.2603 5.52138 16.2869 5.53991 16.3134C6.10823 17.127 6.80142 17.91 7.46843 18.2622L7.55905 18.3109C8.00741 18.557 8.38159 18.8324 8.70407 19.0776C9.0638 19.3511 9.33495 19.5667 9.64167 19.7562C10.1827 20.0905 10.8389 20.3447 12.0429 20.2508L12.1781 20.2394C13.5504 20.1136 14.1772 19.7554 14.7846 19.2402C15.1532 18.9276 15.4811 18.5863 15.986 18.1066C16.4695 17.6472 17.0502 17.1274 17.8208 16.5677L17.8728 16.5292C18.9563 15.7142 19.5048 14.4053 19.7663 13.1678C19.8816 12.6219 19.9346 12.1186 19.9577 11.728C19.7808 11.7054 19.5774 11.6861 19.3537 11.6767ZM5.97429 6.90151C5.72589 7.16446 5.47564 7.46525 5.24216 7.80424C4.28057 9.20038 3.54858 11.3113 4.56325 14.2987C4.56705 14.2984 4.57086 14.2983 4.57468 14.2981C5.10862 14.2649 5.89043 14.1982 6.86482 14.0637C7.0527 14.0378 7.25245 13.9992 7.46521 13.9482C6.44781 11.905 6.09765 9.71917 6.00349 8.00229C5.9821 7.61226 5.97385 7.24317 5.97429 6.90151ZM16.4152 5.23579C15.6658 5.77237 14.9071 6.25361 14.2301 6.706C13.3792 7.27449 12.6266 7.81676 11.988 8.45395C10.9529 9.48664 10.152 10.8309 9.93357 13.0802C10.0494 13.0311 10.1676 12.9806 10.2883 12.928C11.7394 12.2953 13.4523 11.451 15.5249 10.449L15.6593 10.3856C17.0488 9.7478 18.4217 9.6358 19.4377 9.67846C19.5624 9.6837 19.6823 9.6912 19.7969 9.70053C19.6723 9.15493 19.4959 8.66379 19.286 8.22368C18.4841 6.54831 17.1921 5.61252 16.4152 5.23579ZM12.1517 3.97036C11.4081 3.97342 10.7337 4.09907 10.1486 4.27475C9.41637 4.49462 8.82182 4.79469 8.41267 5.03862C8.26813 5.12479 8.14797 5.20339 8.05427 5.26772C8.04276 5.38156 8.0304 5.51539 8.01931 5.66704C7.97915 6.21596 7.95119 6.99258 8.00056 7.89282C8.04695 8.73861 8.16082 9.67526 8.38845 10.626C8.85747 9.13066 9.62181 7.98957 10.5755 7.03813C11.3591 6.25632 12.2474 5.62531 13.1189 5.04301C13.5009 4.78778 13.8752 4.54421 14.2446 4.29926C13.5037 4.06542 12.8017 3.97143 12.1517 3.97036Z" fill="#696F88"/>
</svg>
