<svg xmlns="http://www.w3.org/2000/svg" width="24" height="24" viewBox="0 0 19.9001 20.2997" fill="none">
<path id="vector" fill-rule="evenodd" clip-rule="evenodd" d="M10.0587 0.000142222C11.3914 -0.00744761 12.8896 0.287742 14.4653 1.12602C14.4856 1.13076 14.5058 1.13609 14.5259 1.14213C15.9843 1.58099 19.496 3.81615 19.889 8.67055L19.8977 8.78569L19.8999 8.83706C19.9 8.84161 19.8998 8.84619 19.8998 8.85073L19.8999 8.85229C19.9 8.85587 19.8998 8.85946 19.8998 8.86303L19.8999 8.86411C19.9006 8.90013 19.8991 8.93576 19.896 8.97094C19.8972 9.00918 19.8987 9.05847 19.8994 9.11782C19.9012 9.25954 19.9 9.45945 19.8892 9.70376C19.8675 10.1905 19.8068 10.8637 19.649 11.6106C19.344 13.0541 18.6436 14.9218 17.0009 16.157L16.922 16.2153C16.2458 16.7063 15.7345 17.1631 15.2895 17.5859C14.8658 17.9884 14.4286 18.4348 14.0043 18.7947C13.0755 19.5825 12.0614 20.0954 10.2974 20.2593L10.1243 20.2741C8.4906 20.4014 7.41274 20.0407 6.5164 19.487C6.10449 19.2325 5.7311 18.9358 5.41963 18.699C5.11283 18.4657 4.83416 18.2645 4.52314 18.0938L4.46054 18.06C3.34694 17.4721 2.42634 16.3472 1.82617 15.488C1.51333 15.0402 1.26118 14.6254 1.08701 14.3225C0.999669 14.1706 0.931208 14.0456 0.883884 13.9571C0.860217 13.9128 0.841838 13.8775 0.828904 13.8526C0.822447 13.8401 0.81726 13.8302 0.813572 13.823C0.811732 13.8194 0.810216 13.8163 0.809079 13.8141C0.808527 13.813 0.808095 13.812 0.807712 13.8113C0.807523 13.8109 0.807272 13.8106 0.807126 13.8103L0.806931 13.8098L0.897849 13.7639L0.897751 13.7637L0.806736 13.8095C0.722608 13.6423 0.688584 13.458 0.703611 13.2773C-0.687336 9.49178 0.195641 6.62335 1.52099 4.69907C2.1915 3.72558 2.96005 3.01272 3.55781 2.5437C3.85794 2.3082 4.11888 2.13122 4.30879 2.01088C4.31708 2.00563 4.32527 2.0005 4.3333 1.99545C4.35679 1.97157 4.38144 1.94867 4.40742 1.9271L4.41972 1.94194C4.42001 1.94176 4.42032 1.94162 4.4206 1.94145C4.40849 1.92666 4.4082 1.92641 4.4082 1.92641C4.40836 1.92628 4.40876 1.92589 4.40908 1.92563C4.40971 1.92511 4.41047 1.92459 4.41123 1.92397C4.41276 1.92271 4.41455 1.92115 4.4166 1.91948C4.42069 1.91614 4.42581 1.91199 4.43193 1.90708C4.44421 1.89721 4.46063 1.88426 4.48095 1.8685C4.52159 1.837 4.57821 1.79423 4.65 1.74272C4.79347 1.63979 4.99845 1.50116 5.25869 1.34692C5.77763 1.03935 6.5258 0.66393 7.45166 0.387545C8.20255 0.163396 9.06915 0.00551435 10.0197 0.000142222H10.0587ZM17.2796 9.706C16.4715 9.67207 15.4375 9.76538 14.4197 10.2325L14.3213 10.2789C12.2763 11.2676 10.5114 12.1375 9.01347 12.7906C7.52578 13.4391 6.20979 13.916 5.06416 14.0742C4.43534 14.161 3.88003 14.2212 3.41113 14.2633C3.42919 14.2896 3.44729 14.3162 3.46582 14.3427C4.03414 15.1563 4.72733 15.9393 5.39433 16.2915L5.48496 16.3402C5.93332 16.5863 6.30749 16.8617 6.62998 17.1069C6.9897 17.3804 7.26085 17.596 7.56758 17.7855C8.1086 18.1198 8.76484 18.374 9.96885 18.2801L10.104 18.2687C11.4763 18.1429 12.1031 17.7847 12.7105 17.2695C13.0791 16.9569 13.407 16.6156 13.9119 16.1359C14.3954 15.6765 14.9761 15.1567 15.7467 14.597L15.7987 14.5585C16.8822 13.7435 17.4307 12.4346 17.6922 11.1971C17.8075 10.6512 17.8605 10.1479 17.8836 9.75727C17.7067 9.73467 17.5033 9.7154 17.2796 9.706ZM3.90019 4.93081C3.65179 5.19376 3.40155 5.49455 3.16806 5.83354C2.20647 7.22968 1.47448 9.34058 2.48916 12.328C2.49295 12.3277 2.49676 12.3276 2.50058 12.3274C3.03452 12.2942 3.81633 12.2275 4.79072 12.093C4.97861 12.0671 5.17835 12.0285 5.39111 11.9775C4.37371 9.93432 4.02355 7.74847 3.92939 6.03159C3.908 5.64156 3.89976 5.27247 3.90019 4.93081ZM14.3411 3.26508C13.5917 3.80167 12.8331 4.2829 12.156 4.7353C11.3051 5.30378 10.5525 5.84606 9.91387 6.48325C8.87878 7.51594 8.07788 8.86024 7.85947 11.1095C7.97528 11.0604 8.09355 11.0099 8.21416 10.9573C9.66532 10.3246 11.3782 9.48031 13.4508 8.47827L13.5853 8.41489C14.9747 7.7771 16.3476 7.66509 17.3636 7.70776C17.4883 7.713 17.6082 7.7205 17.7228 7.72983C17.5982 7.18423 17.4218 6.69309 17.2119 6.25297C16.41 4.57761 15.118 3.64182 14.3411 3.26508ZM10.0776 1.99965C9.33396 2.00272 8.65961 2.12836 8.07451 2.30405C7.34227 2.52392 6.74773 2.82399 6.33857 3.06792C6.19403 3.15409 6.07387 3.23269 5.98017 3.29702C5.96866 3.41086 5.95631 3.54469 5.94521 3.69633C5.90506 4.24526 5.87709 5.02188 5.92646 5.92212C5.97285 6.76791 6.08673 7.70455 6.31435 8.65532C6.78337 7.15996 7.54772 6.01887 8.50137 5.06743C9.28499 4.28562 10.1733 3.6546 11.0448 3.07231C11.4268 2.81708 11.8011 2.5735 12.1705 2.32856C11.4296 2.09472 10.7276 2.00072 10.0776 1.99965Z" fill="var(--fill-0, #696F88)"/>
</svg>