<svg width="24" height="24" viewBox="0 0 24 24" fill="none" xmlns="http://www.w3.org/2000/svg">
<path fill-rule="evenodd" clip-rule="evenodd" d="M11.1241 3.03317C12.0958 2.55265 13.3641 2.45015 14.6192 2.7154C15.9177 2.98982 17.2794 3.67021 18.4377 4.85202L18.5008 4.83366C18.8755 4.72926 19.4487 4.6453 20.0369 4.71452C20.6618 4.78805 21.5031 5.06662 21.9741 5.91442L22.0009 5.96491C22.1301 6.22138 22.1901 6.53576 22.0999 6.87057C22.0202 7.16602 21.8476 7.37143 21.7656 7.46501C21.5239 7.74062 21.4941 7.72298 21.3458 7.93268C21.1799 8.16722 20.8627 8.75313 21.1279 10.3517L21.1513 10.5001C21.3805 12.0268 21.261 13.6771 20.8359 15.0789L20.8346 15.0842L20.8265 15.1104L20.8187 15.1361L20.817 15.1405C20.1038 17.4217 18.604 19.3173 16.553 20.4221L15.8978 20.7751L15.881 20.7583C14.6629 21.3112 12.9706 21.7708 10.867 21.4272C10.6908 21.4446 10.537 21.4173 10.4856 21.4083C10.3209 21.3794 10.1255 21.3244 9.95661 21.2733C9.60601 21.1673 9.16054 21.013 8.87087 20.9165L8.87067 20.9164L8.85837 20.9123C6.3995 20.067 4.61194 18.3852 3.64548 15.992L3.64313 15.9861L3.6029 15.8846L3.60173 15.8818L3.60056 15.8789C2.92252 14.1373 2.6629 12.7948 2.92722 10.7329L2.9322 10.694L2.9402 10.6555C3.04039 10.1758 2.99701 9.9075 2.94724 9.75798C2.89702 9.60715 2.81026 9.48434 2.66013 9.32887C2.56088 9.22611 2.51312 9.18561 2.38122 9.05417C2.27987 8.95316 2.13957 8.80755 2.02019 8.62809C1.89355 8.43773 1.77694 8.19005 1.74304 7.88415C1.70915 7.57831 1.76614 7.28846 1.87312 7.02448L1.90104 6.95866C2.19908 6.28709 2.78007 5.89597 3.36491 5.70749C3.9236 5.52744 4.54359 5.50718 5.13327 5.5987C5.35984 5.22113 5.65178 4.87387 5.95456 4.57761C6.59039 3.95549 7.43691 3.39594 8.36071 3.08337C9.20402 2.79803 10.1827 2.69774 11.1241 3.03317ZM19.7716 6.69762C19.4944 6.67069 19.2038 6.71492 19.0457 6.75807L19.0148 6.76696C18.5887 6.89759 18.3415 7.15026 18.14 7.64001L18.119 7.69264L18.1191 7.69274L18.1164 7.69977L18.1163 7.69968L18.1159 7.70075C17.934 8.17223 17.5326 8.52401 17.0465 8.64391L17.0304 8.64782L16.9617 8.66237L16.9436 8.66559C16.0802 8.81558 15.5522 9.10385 15.3044 9.48219L15.3017 9.4863L15.2991 9.4903C15.0346 9.88583 14.973 10.5257 15.19 11.4405L15.1981 11.4754C15.2352 11.6481 15.2203 11.7948 15.208 11.8736C15.1907 11.9841 15.1529 12.1185 15.0761 12.2559L15.0259 12.3459L14.9585 12.4236C14.7694 12.6415 14.507 12.7842 14.2239 12.8138L14.224 12.8139L14.2163 12.8148L14.2114 12.8154L14.2066 12.8159C13.9477 12.8428 13.017 13.0086 12.2858 14.0244L12.2366 14.0938C11.7935 14.7351 11.5206 15.5572 11.4301 16.5479L11.4213 16.6548L11.4097 16.8174C11.3647 17.5194 11.372 18.338 11.6184 19.5103C13.3544 19.6867 14.6849 19.1655 15.5978 18.6648L15.6967 18.6105C17.2093 17.7637 18.3507 16.3269 18.9082 14.5436L18.915 14.5165L18.9234 14.4938C19.2591 13.384 19.3592 12.0365 19.1738 10.7993L19.1549 10.679C18.8286 8.7123 19.1645 7.55344 19.7128 6.77809C19.7324 6.75036 19.7521 6.72356 19.7716 6.69762ZM4.89519 7.58669C4.51663 7.51778 4.19397 7.54162 3.97839 7.6111C3.91428 7.63176 3.86648 7.65356 3.83083 7.67438C3.89875 7.74055 4.01604 7.85393 4.0987 7.93952C4.35002 8.19975 4.66149 8.5753 4.84489 9.12614C5.02502 9.66719 5.05313 10.2895 4.907 11.0192C4.69897 12.6735 4.88906 13.6743 5.46208 15.1474L5.50163 15.2473C6.23578 17.0622 7.54626 18.3191 9.41286 18.9873L9.39899 18.882C9.27245 17.8656 9.26658 16.8942 9.37829 15.9955L9.37878 15.9912L9.37936 15.987C9.51299 14.9822 9.81056 14.075 10.264 13.2901C10.3414 12.634 10.2906 12.0724 10.1224 11.6153L10.0997 11.5558L10.099 11.5539L10.0983 11.552C9.96432 11.1977 9.74094 10.9175 9.52136 10.7855L9.51296 10.7811C9.41923 10.732 9.24633 10.6682 8.99128 10.5935L8.97009 10.5874L8.95768 10.5831L8.8322 10.5434L8.83024 10.5428C8.21677 10.3461 7.28882 10.0208 6.74099 9.06305L6.73601 9.05436L6.68825 8.96686L6.68747 8.9653L6.61452 8.83005L6.5944 8.78083C6.35363 8.19293 5.68148 7.72984 4.89519 7.58669ZM12.9972 7.29665C12.4515 7.19588 11.958 7.28606 11.509 7.49098C10.854 7.7899 10.3149 8.32638 9.95993 8.80466C10.1174 8.86065 10.2772 8.92529 10.423 9.00026L10.4811 9.02917L10.5349 9.0612C11.249 9.4836 11.7198 10.1878 11.9675 10.8408L11.9915 10.9033L11.9933 10.9081L11.9951 10.9129C12.0618 11.0927 12.1165 11.2756 12.1601 11.4608C12.4888 11.2631 12.807 11.1253 13.0913 11.0297C12.9981 10.1645 13.0859 9.23571 13.6028 8.42995L13.6366 8.37839C13.7891 8.14707 13.9651 7.94558 14.158 7.77009C13.7245 7.50106 13.3361 7.35923 12.9972 7.29665ZM10.5694 4.96393C10.1455 4.77278 9.6095 4.77226 9.00173 4.9779C8.3943 5.18342 7.80017 5.56985 7.35319 6.00719C7.23158 6.12619 7.13015 6.2394 7.04636 6.3445C7.54625 6.68154 7.98809 7.1302 8.29216 7.6986C8.81317 6.9719 9.62112 6.15405 10.6785 5.67145C10.8471 5.59451 11.0224 5.52597 11.2039 5.46784C10.9909 5.20859 10.771 5.05486 10.5694 4.96393ZM14.2057 4.67223C13.776 4.58141 13.3791 4.55729 13.0299 4.57995C13.1839 4.81339 13.3241 5.0693 13.4497 5.34733C14.3511 5.53212 15.2636 5.99742 16.1729 6.78268C16.2319 6.76873 16.2906 6.75565 16.349 6.74343C16.4635 6.48826 16.6011 6.24414 16.7675 6.01862C15.9514 5.2718 15.0442 4.84944 14.2057 4.67223Z" fill="#696F88"/>
</svg>
