<svg width="24" height="24" viewBox="0 0 24 24" fill="none" xmlns="http://www.w3.org/2000/svg">
<path fill-rule="evenodd" clip-rule="evenodd" d="M9.73887 2.29147C10.0109 1.8308 10.5949 1.66824 11.0635 1.91384L11.1084 1.93884L11.1912 1.98864C12.0122 2.49081 12.6413 3.14 12.9193 3.87126L12.9297 3.89987C13.6454 4.05781 14.2977 4.40151 14.8367 4.91911L14.8708 4.95251C15.2206 5.3 15.4769 5.73555 15.6635 6.12224C15.8366 6.48105 15.9737 6.84869 16.0787 7.16423L16.1218 7.29606L16.1241 7.30349L16.1264 7.31101C16.3938 8.19205 16.5104 8.54694 16.6562 8.90808L16.6841 8.97604C16.8223 9.3074 17.0699 9.83137 17.3651 10.3452L17.4291 10.455L17.4295 10.4557L17.4298 10.4563C17.8725 11.2092 18.5 12.3523 18.5 13.6713L18.4993 13.7458C18.4719 15.3055 17.5855 16.5985 16.3737 17.4002L16.3736 17.4001C15.7143 17.8371 14.9768 18.1182 14.1964 18.2869C14.3766 18.7899 14.4399 19.3441 14.3749 19.89L14.375 19.8901C14.2636 20.8452 13.7777 21.6917 13.018 22.2077L12.9437 22.2565C12.4757 22.5541 11.9264 22.7144 11.3895 22.6989H11.3889C10.8783 22.6835 10.39 22.5067 10.0514 22.1459L10.019 22.1103C9.56665 21.5975 9.55565 20.8603 9.83164 20.2371L9.83262 20.235L9.8335 20.2331L9.86055 20.1718C9.99021 19.8706 10.0351 19.6411 10.0232 19.4125C10.01 19.1585 9.92444 18.8586 9.71973 18.42L9.71982 18.4199C9.69414 18.3652 9.6725 18.3095 9.65488 18.2532C8.9295 18.0817 8.24369 17.8093 7.62637 17.4001L7.62627 17.4002C6.41449 16.5985 5.52811 15.3055 5.50068 13.7458L5.5 13.6713C5.50001 12.4348 6.05146 11.3528 6.48516 10.602L6.57021 10.4563L6.57051 10.4557L6.5709 10.455L6.63486 10.3452C6.93006 9.83137 7.17773 9.3074 7.31592 8.97604L7.34385 8.90808C7.48962 8.54694 7.60619 8.19205 7.87363 7.31101L7.87588 7.30349L7.87822 7.29606L7.92129 7.16423C8.02633 6.84869 8.16339 6.48105 8.33652 6.12224C8.52311 5.73555 8.77945 5.3 9.1292 4.95251L9.16328 4.91911C9.5846 4.51454 10.0751 4.21621 10.611 4.02976C10.4889 3.92361 10.3375 3.81107 10.1514 3.69704L10.0915 3.66101L10.0478 3.63366C9.60648 3.34191 9.46686 2.75213 9.73887 2.29147ZM10.8148 18.4437C10.9329 18.7599 11.0062 19.0592 11.0219 19.3606C11.0452 19.8088 10.9393 20.2145 10.746 20.642L10.731 20.6774C10.5822 21.04 10.652 21.3162 10.7689 21.4488L10.7917 21.473C10.9114 21.5928 11.1189 21.6902 11.4189 21.6993C11.7419 21.7085 12.0957 21.6107 12.4069 21.4128L12.4558 21.3806C12.955 21.0416 13.3009 20.4669 13.3817 19.7743L13.3818 19.7736L13.3819 19.7728C13.4382 19.3017 13.361 18.836 13.1818 18.4441C12.7931 18.4828 12.3979 18.5 12 18.5L11.852 18.4992C11.503 18.4954 11.1564 18.4778 10.8148 18.4437ZM11.9453 5.80056C11.3831 5.8127 10.9123 6.0124 10.5485 6.36169L10.5257 6.38454C10.41 6.50409 10.2755 6.70615 10.1378 6.99147C9.99716 7.28293 9.87972 7.60522 9.78477 7.90075C9.52008 8.77252 9.38099 9.20457 9.19854 9.65661L9.16396 9.74089C8.98221 10.1773 8.66739 10.8373 8.29424 11.47C7.85396 12.2188 7.50001 12.9452 7.5 13.6713L7.50127 13.7454C7.52701 14.4844 7.93711 15.1798 8.65674 15.6825L8.72969 15.7321L8.73066 15.7328C9.49867 16.2421 10.5437 16.4846 11.8707 16.4993L12 16.5C13.3886 16.5 14.4766 16.2585 15.2693 15.7328L15.2703 15.7321L15.3433 15.6825C16.0629 15.1798 16.473 14.4844 16.4987 13.7454L16.5 13.6713C16.5 12.9452 16.146 12.2189 15.7058 11.4701C15.3326 10.8374 15.0178 10.1773 14.836 9.74089L14.8015 9.65661C14.619 9.20457 14.4799 8.77252 14.2152 7.90075C14.1203 7.60522 14.0028 7.28293 13.8622 6.99147C13.7245 6.70615 13.59 6.50409 13.4743 6.38454L13.4515 6.36169C13.0877 6.0124 12.6169 5.8127 12.0547 5.80056L12 5.79997L11.9453 5.80056Z" fill="#696F88"/>
</svg>
