<svg width="24" height="24" viewBox="0 0 24 24" fill="none" xmlns="http://www.w3.org/2000/svg">
<path fill-rule="evenodd" clip-rule="evenodd" d="M13.9795 2.42962C15.2267 1.74503 16.7023 2.01324 17.7397 2.32376L17.8387 2.35394C18.3346 2.50751 18.6279 3.01341 18.5214 3.51595L18.5098 3.56449C18.2358 4.60175 17.6991 6.03427 16.46 6.76302L16.4005 6.7972C16.3981 6.79854 16.3957 6.79988 16.3933 6.8012C16.1597 6.92938 15.9182 7.02399 15.673 7.09134C18.2434 8.42212 20 11.1059 20 14.2C20 18.6183 16.4183 22.2 12 22.2C7.58173 22.2 4.00002 18.6183 4 14.2C4 10.1208 7.05319 6.75458 10.999 6.26204C10.8584 6.07145 10.5674 5.80002 10.0357 5.53499L9.96797 5.50189L9.92217 5.47845C9.45723 5.22603 9.26702 4.65052 9.49814 4.168C9.72929 3.68549 10.297 3.47298 10.7851 3.67708L10.832 3.69818L10.9225 3.74232C11.417 3.98844 11.8547 4.28401 12.2066 4.62054C12.5448 3.78992 13.0818 2.93208 13.9723 2.43363L13.9795 2.42962ZM12 8.20003C8.68629 8.20003 6 10.8863 6 14.2C6.00002 17.5137 8.6863 20.2 12 20.2C15.3137 20.2 18 17.5137 18 14.2C18 10.8863 15.3137 8.20003 12 8.20003ZM16.237 4.03304C15.7077 3.96342 15.2676 4.00577 14.9456 4.18099C14.6264 4.36119 14.3571 4.71203 14.1356 5.19788C14.665 5.26751 15.1052 5.22515 15.4271 5.04993C15.7464 4.86975 16.0155 4.51886 16.237 4.03304Z" fill="#696F88"/>
</svg>
