<svg xmlns="http://www.w3.org/2000/svg" width="24" height="24" viewBox="0 0 16.0253 16" fill="none">
<path id="vector" d="M3.84843 16C2.89124 16 1.95369 15.5818 1.21264 14.8267L1.20983 14.8239C0.435089 14.066 0.0056144 13.1144 0.0056144 12.146C0.0056144 11.2926 0.336843 10.4982 0.937547 9.90596C1.69825 9.13403 3.1579 8.72702 5.3923 8.65965C5.51581 9.13965 5.75721 9.56912 6.09686 9.90596C6.45616 10.254 6.88283 10.4954 7.34599 10.6105C7.29265 12.8225 6.88564 14.2821 6.09686 15.0681C5.49896 15.6688 4.69896 16 3.84843 16ZM12.1572 15.9888C11.3123 15.9888 10.5207 15.6604 9.92565 15.0653C9.15652 14.2961 8.74669 12.8365 8.67652 10.6077C9.13687 10.4926 9.56635 10.2512 9.92284 9.90316C10.2625 9.56351 10.5039 9.13403 10.6274 8.65403C12.8478 8.70737 14.3046 9.11439 15.0822 9.90035C15.6913 10.5067 16.0253 11.3067 16.0253 12.1516C16.0253 13.1088 15.6071 14.0435 14.8492 14.7846L14.8464 14.7874C14.0885 15.5621 13.1341 15.9888 12.1572 15.9888ZM8.01687 9.19579C7.36002 9.19579 6.82669 8.66246 6.82669 8.00842C6.82669 7.35439 7.36002 6.82105 8.01687 6.82105C8.67371 6.82105 9.20705 7.35439 9.20705 8.00842C9.20705 8.66246 8.67371 9.19579 8.01687 9.19579ZM5.39791 7.33193C4.24142 7.30947 3.27019 7.18035 2.50948 6.95018C1.8358 6.74807 1.30807 6.45895 0.943161 6.09123C0.336843 5.48491 0 4.68491 0 3.84281C0 2.88561 0.418247 1.95088 1.17614 1.20982L1.17895 1.20702C1.93685 0.432281 2.89404 0.00561395 3.87089 0.00561395C4.7158 0.00561395 5.50739 0.334035 6.10248 0.929123C6.8716 1.69825 7.28143 3.1579 7.3516 5.38667C6.89125 5.50175 6.46177 5.74316 6.10528 6.09123C5.76283 6.43088 5.52142 6.85754 5.39791 7.33193ZM10.6274 7.33193C10.5039 6.85754 10.2597 6.43088 9.92284 6.09403C9.56354 5.74596 9.13687 5.50456 8.67371 5.38947C8.72705 3.17754 9.13406 1.71789 9.92284 0.93193C10.5235 0.331228 11.3235 0 12.1741 0C13.1313 0 14.0688 0.418246 14.8099 1.17333L14.8127 1.17614C15.5874 1.93404 16.0169 2.88561 16.0169 3.85404C16.0169 4.70737 15.6857 5.50175 15.085 6.09403C14.7229 6.45614 14.1923 6.74246 13.5102 6.94737C12.7523 7.16912 11.7839 7.30105 10.6274 7.33193Z" fill="var(--fill-0, #696F88)"/>
</svg>