<svg width="24" height="24" viewBox="0 0 24 24" fill="none" xmlns="http://www.w3.org/2000/svg">
<path fill-rule="evenodd" clip-rule="evenodd" d="M12 2C12.5523 2 13 2.44772 13 3V4.83857L14.0475 3.6415C14.4112 3.22588 15.0429 3.18379 15.4585 3.54746C15.8742 3.91114 15.9163 4.54286 15.5526 4.9585L13.7349 7.03574C14.2662 7.13622 14.739 7.29606 15.1486 7.52783C15.9903 8.0041 16.471 8.72895 16.6755 9.58398C16.8679 10.3881 16.8136 11.2902 16.6731 12.1948C16.531 13.1096 16.282 14.1316 16.0171 15.1989L15.8983 15.6771C15.6111 16.8272 15.2541 18.1975 14.8095 19.3315C14.5569 19.976 14.2508 20.6122 13.8705 21.1038C13.5038 21.5778 12.9219 22.1 12.1042 22.1L12.0528 22.0987C12.0519 22.0987 12.051 22.0985 12.05 22.0984C12.0491 22.0985 12.0482 22.0987 12.0473 22.0987L11.9958 22.1C11.1782 22.1 10.5963 21.5778 10.2296 21.1038C9.84932 20.6122 9.54322 19.976 9.29057 19.3315C8.84601 18.1975 8.48894 16.8272 8.2018 15.6771L8.08296 15.1989C7.81805 14.1316 7.56909 13.1096 7.427 12.1948C7.28649 11.2902 7.23217 10.3881 7.42456 9.58398C7.62911 8.72895 8.10977 8.0041 8.95151 7.52783C9.33905 7.30856 9.78305 7.15361 10.2797 7.05244L8.44751 4.9585C8.08383 4.54286 8.12593 3.91114 8.54155 3.54746C8.95718 3.1838 9.58891 3.22588 9.95259 3.6415L11 4.83857V3C11 2.44772 11.4478 2 12 2ZM12 8.9C10.9246 8.9 10.2966 9.06476 9.93637 9.26855C9.62658 9.44385 9.45867 9.67732 9.36968 10.0493C9.2685 10.4722 9.27562 11.066 9.40327 11.8879C9.52934 12.6996 9.7554 13.6347 10.0241 14.7172L10.1444 15.2011C10.4309 16.3471 10.7582 17.5955 11.1526 18.6017C11.3793 19.1801 11.6031 19.6106 11.8115 19.88C11.9302 20.0335 12.0043 20.0856 12.0317 20.101C12.0378 20.1012 12.0439 20.1017 12.05 20.1021C12.0562 20.1017 12.0623 20.1012 12.0684 20.101C12.0958 20.0856 12.1699 20.0334 12.2886 19.88C12.497 19.6106 12.7208 19.1801 12.9475 18.6017C13.3419 17.5955 13.6692 16.3471 13.9557 15.2011L14.076 14.7172C14.3447 13.6347 14.5708 12.6996 14.6968 11.8879C14.8245 11.066 14.8316 10.4722 14.7304 10.0493C14.6414 9.67732 14.4735 9.44385 14.1637 9.26855C13.8035 9.06476 13.1755 8.9 12.1 8.9C12.0833 8.9 12.0666 8.89955 12.05 8.89873C12.0335 8.89955 12.0168 8.9 12 8.9Z" fill="#696F88"/>
</svg>
