<svg width="24" height="24" viewBox="0 0 24 24" fill="none" xmlns="http://www.w3.org/2000/svg">
<path d="M15.203 15.9071C15.4675 15.9047 15.6903 16.1101 15.7063 16.3771C15.7229 16.6528 15.5128 16.8897 15.2372 16.9062L15.2509 16.9054C15.2523 16.9062 15.2189 16.9135 15.1408 16.9471C15.0541 16.9844 14.9489 17.038 14.8423 17.0996C14.7356 17.1611 14.6366 17.2255 14.561 17.2819C14.4689 17.3505 14.4592 17.3724 14.4774 17.3448L14.4627 17.366C14.3059 17.579 14.008 17.634 13.7847 17.4866C13.5543 17.3344 13.4908 17.0244 13.6429 16.7939L13.6596 16.7696C13.7461 16.6496 13.8721 16.5482 13.9632 16.4802C14.0769 16.3955 14.21 16.3099 14.3423 16.2336C14.4746 16.1572 14.6152 16.0846 14.7455 16.0286C14.8569 15.9806 15.021 15.9175 15.1772 15.9081L15.203 15.9071Z" fill="#696F88"/>
<path d="M11.7632 9.43747C12.0273 9.42303 12.2591 9.61823 12.2873 9.88424C12.3154 10.1502 12.1294 10.3895 11.8681 10.4306L11.8426 10.434L11.8065 10.4384C11.4279 10.493 10.88 10.7897 10.3811 11.3053C10.1891 11.5038 9.87255 11.509 9.67409 11.3171C9.47564 11.1251 9.47038 10.8085 9.66237 10.61C10.246 10.0068 10.9877 9.54357 11.6715 9.44772L11.7375 9.43961L11.7632 9.43747Z" fill="#696F88"/>
<path fill-rule="evenodd" clip-rule="evenodd" d="M6.82282 2.0028C7.27565 1.77111 7.83129 1.91789 8.1112 2.34137C8.47777 2.27394 8.84217 2.25921 9.20153 2.29489C10.0293 2.37707 10.758 2.71881 11.3698 3.17174C12.5338 4.03345 13.3761 5.36938 13.863 6.53297L13.909 6.64499C14.6618 8.51388 17.1243 12.5952 17.8657 13.8072C18.0114 14.0454 18.1495 14.3071 18.2598 14.5988L18.2815 14.6575C18.4979 15.2579 18.9199 16.5547 19.0327 17.8761C19.137 19.0992 19.0153 20.8752 17.5205 21.7382C16.0256 22.6013 14.4266 21.8188 13.4196 21.1169C12.3316 20.3585 11.4195 19.3446 11.0078 18.857L10.9677 18.8089C10.7703 18.5674 10.6127 18.317 10.4793 18.0717C9.80034 16.8237 7.49717 12.6504 6.25505 11.064L6.18102 10.9681C5.41677 9.96467 4.68094 8.56726 4.51667 7.12839C4.43032 6.37207 4.49876 5.57012 4.84147 4.81217C4.99024 4.48314 5.18516 4.175 5.42682 3.89128C5.19238 3.42188 5.3613 2.84522 5.82174 2.57936L6.7776 2.02751L6.82282 2.0028ZM9.00397 4.28512C8.62324 4.24733 8.17353 4.32204 7.64225 4.62878C7.11097 4.93551 6.82146 5.28758 6.66383 5.6362C6.5021 5.99391 6.4485 6.41738 6.50378 6.90153C6.51886 7.03368 6.54197 7.16764 6.57194 7.3026C6.89291 7.00497 7.32578 6.70549 7.90758 6.43044L8.01022 6.38297L8.03395 6.37292C8.28001 6.27588 8.5616 6.38787 8.67223 6.63141C8.78285 6.87497 8.68192 7.16074 8.44694 7.28219L8.42379 7.29342L8.33542 7.33434C7.55845 7.70154 7.15442 8.0878 6.94303 8.38063C7.16716 8.86941 7.45575 9.34059 7.76881 9.75211L7.82975 9.83102C8.84383 11.1262 10.4187 13.8484 11.4294 15.6547C11.6846 15.3815 12.0738 15.0846 12.6658 14.7998C12.9146 14.6801 13.2134 14.7847 13.3332 15.0336C13.4529 15.2824 13.3482 15.5811 13.0994 15.7008C12.4735 16.002 12.1904 16.2823 12.0662 16.4488C12.0039 16.5322 11.9786 16.5909 11.9695 16.616C11.9684 16.619 11.9675 16.6215 11.9668 16.6237C12.0749 16.8205 12.166 16.9871 12.2361 17.1161C12.3207 17.2716 12.4053 17.4035 12.4964 17.5184L12.5359 17.5667C12.9125 18.0127 13.6909 18.8682 14.5632 19.4761C15.5164 20.1406 16.1477 20.2214 16.5205 20.0062C16.8932 19.791 17.1388 19.2039 17.04 18.0462C16.9496 16.9868 16.5979 15.8848 16.4 15.3357L16.378 15.2774C16.324 15.1411 16.252 15.0019 16.1596 14.8508C15.8782 14.3908 15.2966 13.433 14.647 12.3177C14.1605 12.3636 13.8254 12.5888 13.4951 12.7796C13.256 12.9176 12.9501 12.8357 12.8121 12.5965C12.674 12.3574 12.756 12.0516 12.9951 11.9135C13.2291 11.7784 13.5989 11.5314 14.1177 11.399C13.2948 9.9539 12.4627 8.40755 12.0538 7.39225L12.0159 7.30006C11.9739 7.1999 11.929 7.09939 11.8815 6.99899C11.4335 7.05917 11.1155 7.27138 10.8018 7.45251C10.5627 7.59055 10.2569 7.50861 10.1188 7.2695C9.98077 7.03037 10.0627 6.72457 10.3018 6.58649C10.5275 6.45621 10.8792 6.22187 11.3691 6.08659C11.0294 5.57216 10.6249 5.10869 10.1798 4.77917C9.78813 4.48925 9.3946 4.32392 9.00397 4.28512ZM11.9672 16.6139C11.9674 16.6123 11.9676 16.6105 11.9678 16.6087C11.9681 16.6066 11.9683 16.6044 11.9685 16.6021C11.9686 16.601 11.9687 16.5997 11.9688 16.5985C11.9689 16.5979 11.9689 16.5973 11.9689 16.5966L11.9672 16.6139Z" fill="#696F88"/>
</svg>
