<svg xmlns="http://www.w3.org/2000/svg" width="24" height="24" viewBox="0 0 14.5779 20.2246" fill="none">
<path d="M10.7202 14.0138C10.9847 14.0113 11.2075 14.2168 11.2235 14.4838C11.2401 14.7594 11.03 14.9963 10.7544 15.0129L10.7682 15.0121C10.7695 15.0129 10.7361 15.0202 10.658 15.0538C10.5713 15.0911 10.4661 15.1447 10.3595 15.2063C10.2528 15.2678 10.1539 15.3322 10.0782 15.3886C9.98616 15.4572 9.97636 15.4791 9.99462 15.4515L9.97987 15.4727C9.82314 15.6857 9.52517 15.7406 9.30194 15.5933C9.07152 15.4411 9.00802 15.131 9.16015 14.9006L9.17685 14.8763C9.26329 14.7563 9.38928 14.6549 9.48046 14.5869C9.59412 14.5022 9.72716 14.4166 9.85946 14.3402C9.99179 14.2639 10.1324 14.1913 10.2627 14.1353C10.3741 14.0873 10.5382 14.0241 10.6944 14.0148L10.7202 14.0138Z" fill="var(--fill-0, #696F88)"/>
<path d="M7.28036 7.54416C7.54447 7.52971 7.77635 7.72492 7.80448 7.99093C7.83258 8.25692 7.64661 8.49621 7.38534 8.53732L7.35985 8.54074L7.32372 8.54513C6.94511 8.59965 6.3972 8.89643 5.89833 9.41203C5.70633 9.61048 5.38976 9.61573 5.1913 9.42375C4.99285 9.23174 4.98759 8.91517 5.17958 8.71671C5.76321 8.1135 6.50496 7.65026 7.18866 7.55441L7.25468 7.5463L7.28036 7.54416Z" fill="var(--fill-0, #696F88)"/>
<path fill-rule="evenodd" clip-rule="evenodd" d="M2.34003 0.109488C2.79286 -0.122198 3.3485 0.0245842 3.62841 0.448062C3.99499 0.380626 4.35938 0.365902 4.71874 0.401578C5.54648 0.483762 6.27519 0.825503 6.887 1.27843C8.05097 2.14014 8.89327 3.47607 9.38017 4.63966L9.42626 4.75168C10.179 6.62057 12.6415 10.7019 13.3829 11.9139C13.5286 12.1521 13.6667 12.4138 13.777 12.7055L13.7987 12.7642C14.0152 13.3646 14.4371 14.6614 14.5499 15.9828C14.6543 17.2059 14.5325 18.9819 13.0377 19.8449C11.5428 20.708 9.94385 19.9255 8.93681 19.2236C7.84878 18.4652 6.93673 17.4513 6.52499 16.9637L6.48495 16.9155C6.28753 16.6741 6.1299 16.4237 5.99648 16.1784C5.31755 14.9304 3.01438 10.7571 1.77226 9.17072L1.69823 9.07482C0.933987 8.07136 0.198151 6.67395 0.0338781 5.23507C-0.0524663 4.47876 0.0159745 3.6768 0.358683 2.91886C0.507456 2.58983 0.702369 2.28169 0.944034 1.99796C0.709594 1.52857 0.878509 0.951909 1.33896 0.686051L2.29482 0.134195L2.34003 0.109488ZM4.52118 2.39181C4.14045 2.35401 3.69075 2.42873 3.15946 2.73546C2.62819 3.0422 2.33868 3.39427 2.18105 3.74289C2.01931 4.10059 1.96572 4.52407 2.02099 5.00822C2.03608 5.14037 2.05918 5.27433 2.08915 5.40929C2.41012 5.11166 2.84299 4.81218 3.4248 4.53713L3.52743 4.48966L3.55116 4.47961C3.79722 4.38257 4.07881 4.49456 4.18944 4.7381C4.30006 4.98166 4.19913 5.26743 3.96415 5.38888L3.94101 5.40011L3.85263 5.44103C3.07566 5.80823 2.67163 6.19449 2.46025 6.48732C2.68437 6.9761 2.97297 7.44728 3.28603 7.8588L3.34696 7.93771C4.36104 9.23284 5.93592 11.9551 6.94657 13.7613C7.20178 13.4882 7.59105 13.1913 8.183 12.9065C8.43183 12.7868 8.73065 12.8914 8.85038 13.1402C8.9701 13.3891 8.86541 13.6878 8.61659 13.8075C7.99066 14.1087 7.70766 14.389 7.58339 14.5555C7.52112 14.6389 7.4958 14.6976 7.48671 14.7227C7.48562 14.7257 7.48469 14.7282 7.48398 14.7304C7.59213 14.9272 7.68317 15.0938 7.75331 15.2228C7.83793 15.3783 7.92249 15.5102 8.01357 15.6251L8.05312 15.6734C8.42969 16.1193 9.20811 16.9748 10.0804 17.5828C11.0336 18.2473 11.6649 18.3281 12.0377 18.1129C12.4104 17.8977 12.656 17.3106 12.5572 16.1528C12.4668 15.0935 12.1151 13.9915 11.9172 13.4424L11.8952 13.3841C11.8412 13.2477 11.7693 13.1086 11.6768 12.9575C11.3954 12.4975 10.8138 11.5397 10.1642 10.4244C9.67769 10.4703 9.34262 10.6955 9.0123 10.8862C8.77316 11.0243 8.46736 10.9424 8.32929 10.7032C8.19124 10.4641 8.27318 10.1583 8.5123 10.0202C8.74636 9.88509 9.11607 9.63805 9.63495 9.50568C8.812 8.06059 7.97994 6.51424 7.57099 5.49894L7.5331 5.40675C7.49112 5.30659 7.44618 5.20608 7.39872 5.10568C6.95075 5.16586 6.63275 5.37807 6.31903 5.5592C6.0799 5.69724 5.7741 5.6153 5.63603 5.37619C5.49798 5.13706 5.57992 4.83126 5.81903 4.69318C6.04469 4.5629 6.3964 4.32856 6.88632 4.19328C6.54658 3.67885 6.14208 3.21538 5.69696 2.88586C5.30534 2.59594 4.91181 2.43061 4.52118 2.39181ZM7.48437 14.7206C7.48457 14.719 7.48485 14.7172 7.48505 14.7153C7.48527 14.7133 7.48552 14.7111 7.48573 14.7088C7.48584 14.7077 7.48593 14.7064 7.48603 14.7052C7.48608 14.7046 7.48608 14.704 7.48612 14.7033L7.48437 14.7206Z" fill="var(--fill-0, #696F88)"/>
</svg>