<svg xmlns="http://www.w3.org/2000/svg" width="24" height="24" viewBox="0 0 16.726 20.7511" fill="none">
<path id="vector" fill-rule="evenodd" clip-rule="evenodd" d="M7.37852 0.0771678C7.8883 -0.135225 8.47371 0.10587 8.68613 0.615644C8.94584 1.23895 9.10939 1.70847 9.20957 2.15725C9.25648 2.36738 9.28754 2.56512 9.30977 2.76086L9.85918 3.17375L11.6077 2.78264L12.6026 4.45734L14.3229 4.8424L14.667 6.78781L16.1064 7.87004L15.7678 9.78664L16.726 11.4002L15.7678 13.0139L16.1064 14.9304L14.667 16.0127L14.3229 17.958L12.6026 18.3432L11.6077 20.0178L9.85918 19.6267L8.36299 20.7511L6.86689 19.6267L5.11826 20.0178L4.12344 18.3432L2.40313 17.958L2.05908 16.0127L0.619531 14.9304L0.958203 13.0139L0 11.4002L0.958203 9.78664L0.619531 7.87004L2.05908 6.78781L2.40313 4.8424L4.12344 4.45734L5.11826 2.78264L6.86689 3.17375L7.3042 2.84494C7.29158 2.75971 7.27648 2.67749 7.25762 2.59299C7.19411 2.30852 7.0803 1.96142 6.84004 1.38479C6.62766 0.875001 6.86874 0.289582 7.37852 0.0771678ZM7.33076 5.32688L6.09707 5.051L5.40234 6.22043L4.14053 6.50295L3.89111 7.91252L2.80264 8.73088L3.05684 10.1695L2.32607 11.4002L3.05684 12.631L2.80264 14.0696L3.89111 14.8879L4.14053 16.2976L5.40234 16.58L6.09707 17.7495L7.33076 17.4736L8.36299 18.2493L9.39521 17.4736L10.629 17.7495L11.3236 16.58L12.5855 16.2976L12.8349 14.8879L13.9234 14.0696L13.6691 12.631L14.4 11.4002L13.6691 10.1695L13.9234 8.73088L12.8349 7.91252L12.5855 6.50295L11.3236 6.22043L10.629 5.051L9.39521 5.32688L8.36299 4.55119L7.33076 5.32688Z" fill="var(--fill-0, #696F88)"/>
</svg>