<svg width="24" height="24" viewBox="0 0 24 24" fill="none" xmlns="http://www.w3.org/2000/svg">
<path fill-rule="evenodd" clip-rule="evenodd" d="M11.9856 1.75C12.468 1.75006 12.8591 2.15845 12.8591 2.66221V2.9126C12.8591 2.99603 12.9585 3.04614 13.0344 3.01162C13.3539 2.86646 13.7395 2.93027 14.0008 3.20312C14.3312 3.54823 14.3416 4.1011 14.0319 4.45918L14.0008 4.49316L13.8716 4.62812C13.8095 4.69303 13.8585 4.81056 13.9454 4.8333C13.9685 4.83934 13.9914 4.84656 14.014 4.85459C14.0406 4.82783 14.0692 4.80263 14.0998 4.7793C14.4231 4.53361 14.8617 4.57733 15.1286 4.86484L15.1929 4.45869C15.264 4.0101 15.6698 3.70162 16.0994 3.76963C16.5289 3.83769 16.8196 4.25648 16.7486 4.70508L16.6843 5.11133C17.0269 4.92028 17.4577 5.01426 17.6892 5.34785C17.9347 5.70176 17.8659 6.19554 17.5396 6.4707L17.5073 6.49658L17.1958 6.7333C17.4122 6.75929 17.616 6.87835 17.7481 7.07939C17.9848 7.43985 17.9039 7.93177 17.571 8.19824L17.5379 8.22344C17.5329 8.22792 16.9495 8.7437 16.2345 9.00215C16.2385 9.03581 16.2402 9.07019 16.2392 9.10508C16.2194 9.80391 16.2577 10.8918 16.2826 12.1836C16.307 13.456 16.3173 14.8963 16.2364 16.2381C16.1564 17.5633 15.9843 18.8631 15.6116 19.8211C15.4249 20.3008 15.1641 20.7585 14.7813 21.0801C14.468 21.3432 14.0959 21.4946 13.6836 21.5109C13.6843 21.5239 13.685 21.5369 13.685 21.55C13.685 21.9245 13.3909 22.2303 13.021 22.2491L12.985 22.25H10.985C10.5984 22.25 10.285 21.9366 10.285 21.55C10.285 21.5364 10.2854 21.523 10.2862 21.5096C9.88595 21.4872 9.52433 21.3368 9.21869 21.0801C8.8359 20.7585 8.57501 20.3008 8.38832 19.8211C8.01556 18.8631 7.84355 17.5633 7.76361 16.2381C7.68268 14.8963 7.69297 13.456 7.71742 12.1836C7.74225 10.8918 7.78045 9.80391 7.76068 9.10508C7.7597 9.07023 7.7614 9.03587 7.76537 9.00225C7.05054 8.74387 6.46732 8.22819 6.46195 8.22344L6.42894 8.19824C6.09606 7.93177 6.01519 7.43987 6.25189 7.07939C6.38394 6.87836 6.58781 6.75928 6.80414 6.7333L6.49271 6.49658L6.46029 6.4707C6.13394 6.19553 6.06522 5.70176 6.31078 5.34785C6.54228 5.01426 6.97304 4.92025 7.31566 5.11133L7.25131 4.70508C7.1803 4.25648 7.47106 3.83767 7.90062 3.76963C8.33015 3.70167 8.73599 4.01013 8.80707 4.45869L8.87143 4.86484C9.13825 4.57734 9.57692 4.53359 9.90014 4.7793C9.92792 4.80042 9.95387 4.82321 9.97826 4.84717C9.9939 4.84209 10.0097 4.83744 10.0255 4.8333C10.1124 4.81054 10.1615 4.69302 10.0994 4.62812L9.97006 4.49316L9.9391 4.45918C9.62932 4.10109 9.63963 3.54824 9.97006 3.20312C10.2314 2.93023 10.6171 2.86637 10.9367 3.01162C11.0126 3.04611 11.112 2.99611 11.112 2.9127V2.66221C11.112 2.15841 11.5032 1.75001 11.9856 1.75ZM12.0838 10.4749C12.064 10.3654 11.907 10.3654 11.8871 10.4749C11.8447 10.7089 11.8015 10.9482 11.7582 11.191C11.5118 12.5742 11.2594 14.103 11.1211 15.5264C10.9813 16.9657 10.966 18.2295 11.1574 19.1101C11.2529 19.5495 11.3868 19.8288 11.5251 19.9881C11.6413 20.1218 11.7743 20.1912 11.9855 20.1912C12.1966 20.1912 12.3297 20.1219 12.4458 19.9881C12.5842 19.8288 12.7181 19.5495 12.8136 19.1101C13.005 18.2295 12.9897 16.9657 12.8498 15.5264C12.7116 14.103 12.459 12.5742 12.2126 11.191C12.1694 10.9482 12.1262 10.7089 12.0838 10.4749ZM14.6481 12.1732C14.4453 12.7589 14.2365 13.3748 14.0383 13.997C14.1016 14.4664 14.1576 14.9352 14.2023 15.395C14.3445 16.859 14.3802 18.3002 14.1414 19.3987C14.1074 19.5553 14.0663 19.7101 14.0175 19.8607C14.1114 19.7374 14.2109 19.56 14.3069 19.3134C14.5963 18.5697 14.7605 17.4536 14.8389 16.1538C14.9163 14.8705 14.9071 13.4765 14.8828 12.2104C14.8784 11.9837 14.8735 11.76 14.8685 11.5412C14.7962 11.7477 14.7223 11.9589 14.6481 12.1732ZM9.11723 12.2104C9.09289 13.4765 9.08367 14.8705 9.16107 16.1538C9.23948 17.4536 9.40362 18.5697 9.69301 19.3134C9.77135 19.5147 9.852 19.6699 9.93002 19.7872C9.8913 19.6599 9.85805 19.5299 9.82953 19.3987C9.59076 18.3001 9.62649 16.859 9.76869 15.395C9.81536 14.9146 9.87431 14.4243 9.94115 13.9337C9.74903 13.3331 9.54772 12.739 9.3518 12.1732C9.27759 11.959 9.20369 11.7477 9.13139 11.5412C9.12643 11.76 9.12158 11.9837 9.11723 12.2104ZM13.2405 7.34023C13.1605 7.39128 13.0777 7.44022 12.9925 7.48535C12.9697 7.49743 12.9583 7.52343 12.9629 7.54883L12.9683 7.5833L12.9886 7.73291C13.0974 8.5049 13.3153 9.63298 13.5504 10.9527C13.555 10.9783 13.5594 11.004 13.564 11.0298C13.8855 10.1116 14.1586 9.34173 14.3176 8.80078C14.3275 8.76731 14.3396 8.73507 14.3537 8.7043C13.7541 8.23791 13.359 7.56778 13.355 7.56094L13.3314 7.52676C13.2926 7.46781 13.2625 7.40503 13.2405 7.34023ZM10.7541 7.35537C10.7326 7.41479 10.7043 7.47241 10.6686 7.52676L10.6449 7.56094C10.6411 7.56741 10.2459 8.23778 9.64603 8.7043C9.66022 8.73508 9.67242 8.7673 9.68227 8.80078C9.83809 9.33089 10.1034 10.0809 10.4165 10.9748C10.4179 10.9674 10.4191 10.9601 10.4204 10.9527C10.6556 9.63297 10.8736 8.5049 10.9824 7.73291L11.0027 7.5833L11.008 7.54883C11.0126 7.52347 11.0011 7.49754 10.9784 7.48545C10.9016 7.44477 10.8267 7.40096 10.7541 7.35537Z" fill="#696F88"/>
</svg>
