<svg xmlns="http://www.w3.org/2000/svg" width="24" height="24" viewBox="0 0 11.768 20.5" fill="none">
<path id="vector" fill-rule="evenodd" clip-rule="evenodd" d="M5.86962 0C6.35199 6.46037e-05 6.74314 0.408449 6.74315 0.912207V1.1626C6.74315 1.24603 6.84249 1.29614 6.91845 1.26162C7.23793 1.11646 7.62356 1.18027 7.88485 1.45313C8.21525 1.79823 8.22565 2.3511 7.91591 2.70918L7.88485 2.74316L7.75565 2.87813C7.6935 2.94303 7.74254 3.06056 7.82948 3.0833C7.85257 3.08934 7.8754 3.09656 7.89804 3.10459C7.92459 3.07783 7.95319 3.05263 7.98388 3.0293C8.30709 2.78361 8.74577 2.82733 9.01259 3.11484L9.07694 2.70869C9.14802 2.2601 9.55383 1.95162 9.98339 2.01963C10.4129 2.08769 10.7036 2.50648 10.6326 2.95508L10.5683 3.36133C10.911 3.17028 11.3417 3.26426 11.5732 3.59785C11.8187 3.95176 11.75 4.44554 11.4236 4.7207L11.3913 4.74658L11.0799 4.9833C11.2962 5.00929 11.5001 5.12835 11.6321 5.32939C11.8688 5.68985 11.7879 6.18177 11.4551 6.44824L11.422 6.47344C11.4169 6.47792 10.8336 6.9937 10.1185 7.25215C10.1225 7.28581 10.1242 7.32019 10.1232 7.35508C10.1035 8.05391 10.1418 9.14183 10.1666 10.4336C10.191 11.706 10.2013 13.1463 10.1204 14.4881C10.0405 15.8133 9.86836 17.1131 9.49559 18.0711C9.30891 18.5508 9.04809 19.0085 8.66532 19.3301C8.35203 19.5932 7.97989 19.7446 7.56767 19.7609C7.56838 19.7739 7.56903 19.7869 7.56903 19.8C7.56903 20.1745 7.2749 20.4803 6.90507 20.4991L6.86903 20.5H4.86903C4.48244 20.5 4.16903 20.1866 4.16903 19.8C4.16903 19.7864 4.16944 19.773 4.1702 19.7596C3.76998 19.7372 3.40837 19.5868 3.10272 19.3301C2.71994 19.0085 2.45904 18.5508 2.27235 18.0711C1.89959 17.1131 1.72759 15.8133 1.64765 14.4881C1.56671 13.1463 1.577 11.706 1.60145 10.4336C1.62628 9.14183 1.66448 8.05391 1.64472 7.35508C1.64373 7.32023 1.64543 7.28587 1.6494 7.25225C0.93457 6.99387 0.351357 6.47819 0.345986 6.47344L0.312978 6.44824C-0.0199069 6.18177 -0.100779 5.68987 0.135927 5.32939C0.267975 5.12836 0.471843 5.00928 0.688173 4.9833L0.376747 4.74658L0.344326 4.7207C0.0179754 4.44553 -0.0507427 3.95176 0.194814 3.59785C0.426316 3.26426 0.857072 3.17025 1.1997 3.36133L1.13534 2.95508C1.06433 2.50648 1.35509 2.08767 1.78466 2.01963C2.21419 1.95167 2.62003 2.26013 2.6911 2.70869L2.75546 3.11484C3.02228 2.82734 3.46096 2.78359 3.78417 3.0293C3.81195 3.05042 3.8379 3.07321 3.86229 3.09717C3.87793 3.09209 3.89372 3.08744 3.90956 3.0833C3.99646 3.06054 4.04549 2.94302 3.98339 2.87813L3.85409 2.74316L3.82313 2.70918C3.51335 2.35109 3.52366 1.79824 3.85409 1.45313C4.11543 1.18023 4.50118 1.11637 4.82069 1.26162C4.89664 1.29611 4.99599 1.24611 4.99599 1.1627V0.912207C4.996 0.408414 5.38721 8.71081e-06 5.86962 0ZM5.96786 8.7249C5.94801 8.61542 5.79105 8.61543 5.77118 8.7249C5.72876 8.95886 5.68553 9.1982 5.64227 9.44102C5.39586 10.8242 5.14343 12.353 5.00517 13.7764C4.86535 15.2157 4.85002 16.4795 5.0414 17.3601C5.13691 17.7995 5.27082 18.0788 5.40917 18.2381C5.52535 18.3718 5.65838 18.4412 5.86952 18.4412C6.08064 18.4412 6.2137 18.3719 6.32987 18.2381C6.46821 18.0788 6.60214 17.7995 6.69765 17.3601C6.88902 16.4795 6.87369 15.2157 6.73388 13.7764C6.59562 12.353 6.34308 10.8242 6.09667 9.44102C6.05341 9.1982 6.01028 8.95886 5.96786 8.7249ZM8.53212 10.4232C8.32931 11.0089 8.12056 11.6248 7.92235 12.247C7.98568 12.7164 8.04165 13.1852 8.08632 13.645C8.22852 15.109 8.26425 16.5502 8.02548 17.6487C7.99144 17.8053 7.95037 17.9601 7.90155 18.1107C7.99545 17.9874 8.09492 17.81 8.19091 17.5634C8.4803 16.8197 8.64454 15.7036 8.72294 14.4038C8.80034 13.1205 8.79112 11.7265 8.76679 10.4604C8.76243 10.2337 8.75748 10.01 8.75253 9.79121C8.68022 9.99772 8.60633 10.2089 8.53212 10.4232ZM3.00126 10.4604C2.97693 11.7265 2.9677 13.1205 3.04511 14.4038C3.12351 15.7036 3.28765 16.8197 3.57704 17.5634C3.65538 17.7647 3.73603 17.9199 3.81405 18.0372C3.77533 17.9099 3.74208 17.7799 3.71356 17.6487C3.47479 16.5502 3.51052 15.109 3.65272 13.645C3.69939 13.1646 3.75835 12.6743 3.82519 12.1837C3.63306 11.5831 3.43175 10.989 3.23583 10.4232C3.16162 10.209 3.08772 9.99771 3.01542 9.79121C3.01046 10.01 3.00562 10.2337 3.00126 10.4604ZM7.1245 5.59023C7.04453 5.64128 6.96178 5.69022 6.87655 5.73535C6.85374 5.74743 6.84236 5.77343 6.84696 5.79883L6.85233 5.8333L6.87265 5.98291C6.98139 6.7549 7.19935 7.88298 7.43446 9.20273C7.43903 9.22835 7.44347 9.25405 7.44804 9.27979C7.76955 8.36164 8.04264 7.59173 8.20165 7.05078C8.21149 7.01731 8.2236 6.98507 8.23778 6.9543C7.63817 6.48791 7.24308 5.81778 7.23905 5.81094L7.21542 5.77676C7.17666 5.71781 7.14654 5.65503 7.1245 5.59023ZM4.63817 5.60537C4.61667 5.66479 4.58835 5.72241 4.55263 5.77676L4.5289 5.81094C4.52509 5.81741 4.12989 6.48778 3.53007 6.9543C3.54426 6.98508 3.55645 7.0173 3.5663 7.05078C3.72212 7.58089 3.98743 8.33091 4.30058 9.2248C4.30189 9.21745 4.30317 9.21008 4.30448 9.20273C4.53959 7.88297 4.75766 6.7549 4.8664 5.98291L4.88671 5.8333L4.89208 5.79883C4.89668 5.77347 4.88515 5.74754 4.86239 5.73545C4.78558 5.69477 4.71076 5.65096 4.63817 5.60537Z" fill="var(--fill-0, #696F88)"/>
</svg>