<svg xmlns="http://www.w3.org/2000/svg" width="24" height="24" viewBox="0 0 11.6276 21.05" fill="none">
<path d="M7.60681 4.05001C7.60264 3.28996 7.02139 2.58473 6.30681 1.98773V0.5C6.30681 0.223858 6.08295 0 5.80681 0C5.53067 0 5.30681 0.223858 5.30681 0.5V1.98773C4.59223 2.58473 4.01098 3.28996 4.00681 4.05001C4.01192 4.9819 4.88456 5.83137 5.80681 6.50001C6.72906 5.83137 7.6017 4.9819 7.60681 4.05001Z" fill="var(--fill-0, #696F88)"/>
<path d="M7.31542 5.80819C7.96245 5.27034 8.90439 5.17706 9.83877 5.25733L10.8062 4.44554C11.0178 4.26804 11.3331 4.29563 11.5106 4.50717C11.6881 4.71871 11.6605 5.03409 11.449 5.21159L10.4816 6.02338C10.3984 6.9575 10.1429 7.86894 9.5009 8.41274C8.69652 9.0814 7.43633 9.06295 6.30154 8.87813C6.31658 7.72848 6.51724 6.48424 7.31542 5.80819Z" fill="var(--fill-0, #696F88)"/>
<path d="M4.31221 6.70846C3.66518 6.17061 2.72324 6.07733 1.78886 6.1576L0.821405 5.34581C0.609868 5.16831 0.29449 5.1959 0.116989 5.40744C-0.0605115 5.61898 -0.0329195 5.93435 0.178618 6.11186L1.14607 6.92364C1.22927 7.85777 1.48469 8.76921 2.12673 9.31301C2.93111 9.98166 4.1913 9.96322 5.32609 9.7784C5.31105 8.62875 5.11039 7.38451 4.31221 6.70846Z" fill="var(--fill-0, #696F88)"/>
<path d="M7.31542 9.8798C7.96245 9.34194 8.90439 9.24866 9.83877 9.32894L10.8062 8.51715C11.0178 8.33965 11.3331 8.36724 11.5106 8.57878C11.6881 8.79031 11.6605 9.10569 11.449 9.28319L10.4816 10.095C10.3984 11.0291 10.1429 11.9405 9.5009 12.4843C8.69652 13.153 7.43633 13.1346 6.30154 12.9497C6.31658 11.8001 6.51724 10.5558 7.31542 9.8798Z" fill="var(--fill-0, #696F88)"/>
<path d="M4.31221 10.7801C3.66518 10.2422 2.72324 10.1489 1.78886 10.2292L0.821405 9.41742C0.609868 9.23992 0.29449 9.26751 0.116989 9.47905C-0.0605115 9.69058 -0.0329195 10.006 0.178618 10.1835L1.14607 10.9953C1.22927 11.9294 1.48469 12.8408 2.12673 13.3846C2.93111 14.0533 4.1913 14.0348 5.32609 13.85C5.31105 12.7004 5.11039 11.4561 4.31221 10.7801Z" fill="var(--fill-0, #696F88)"/>
<path d="M7.31542 13.9514C7.96245 13.4135 8.90439 13.3203 9.83877 13.4005L10.8062 12.5887C11.0178 12.4112 11.3331 12.4388 11.5106 12.6504C11.6881 12.8619 11.6605 13.1773 11.449 13.3548L10.4816 14.1666C10.3984 15.1007 10.1429 16.0121 9.5009 16.5559C8.69652 17.2246 7.43633 17.2061 6.30154 17.0213C6.31658 15.8717 6.51724 14.6274 7.31542 13.9514Z" fill="var(--fill-0, #696F88)"/>
<path d="M4.31221 14.8517C3.66518 14.3138 2.72324 14.2205 1.78886 14.3008L0.821405 13.489C0.609868 13.3115 0.29449 13.3391 0.116989 13.5506C-0.0605115 13.7622 -0.0329195 14.0776 0.178618 14.2551L1.14607 15.0668C1.22927 16.001 1.48469 16.9124 2.12673 17.4562C2.80997 18.0242 3.82204 18.0964 4.80681 17.992V20.05C4.80681 20.6023 5.25452 21.05 5.80681 21.05C6.35909 21.05 6.80681 20.6023 6.80681 20.05V18.8579C6.55254 18.7681 6.31823 18.6425 6.11345 18.4722C5.66207 18.0899 5.40178 17.5259 5.25808 16.9C5.25626 16.8921 5.25395 16.8849 5.25118 16.8784C5.13667 16.076 4.87072 15.3247 4.31221 14.8517Z" fill="var(--fill-0, #696F88)"/>
</svg>