<svg width="24" height="24" viewBox="0 0 24 24" fill="none" xmlns="http://www.w3.org/2000/svg">
<path d="M12.5056 20.944C12.04 20.944 11.644 20.7664 11.3608 20.428C11.092 20.1088 10.9456 19.6696 10.9456 19.192C10.9456 18.3016 11.2384 17.1136 11.812 15.6568C12.0256 15.6976 12.2656 15.736 12.5056 15.736C12.7456 15.736 12.9856 15.6976 13.1992 15.6568C13.7752 17.1136 14.0656 18.3016 14.0656 19.192C14.0656 19.672 13.9168 20.1112 13.6504 20.428C13.3672 20.7664 12.9712 20.944 12.5056 20.944ZM17.4592 18.9016C17.008 18.9016 16.5304 18.6976 16.1464 18.3376C15.5272 17.6944 14.9056 16.6696 14.2456 15.208C14.6488 14.956 14.992 14.6128 15.2464 14.2096C16.7656 14.9032 17.7568 15.508 18.3568 16.108C18.7408 16.4776 18.9592 16.9528 18.9592 17.4136C18.9592 17.8072 18.8008 18.1672 18.5032 18.4552C18.208 18.748 17.8504 18.9016 17.4592 18.9016ZM7.53519 18.8968C7.15359 18.8968 6.79839 18.7456 6.5128 18.4576C6.2152 18.1696 6.0544 17.8096 6.052 17.4184C6.0472 16.9576 6.2608 16.48 6.6328 16.108C7.20399 15.5176 8.16399 14.9296 9.74319 14.2096C9.99519 14.6128 10.3384 14.956 10.744 15.208C10.1056 16.6456 9.47439 17.6824 8.86479 18.292C8.47839 18.676 7.99599 18.8968 7.53519 18.8968ZM5.7544 14.056C4.9096 14.0344 4 13.5232 4 12.448C4 11.4256 4.8808 10.888 5.752 10.888C6.6712 10.912 7.89999 11.212 9.30879 11.752C9.26079 11.9536 9.23679 12.1816 9.23679 12.448C9.23679 12.724 9.25839 12.9448 9.31119 13.1656C7.75359 13.7488 6.6208 14.032 5.7544 14.056ZM19.2088 14.032C18.3664 14.032 17.2096 13.7488 15.676 13.1656C15.7264 12.9448 15.7504 12.724 15.7504 12.448C15.7504 12.184 15.7264 11.9536 15.6784 11.7544C17.212 11.1712 18.3664 10.888 19.2088 10.888C19.6888 10.888 20.128 11.0368 20.4472 11.3032C20.7856 11.5864 20.9632 11.9824 20.9632 12.448C20.9632 12.9232 20.7856 13.3264 20.4472 13.6144C20.128 13.8832 19.6888 14.032 19.2088 14.032ZM12.5056 13.792C11.776 13.792 11.1832 13.1896 11.1832 12.448C11.1832 12.1072 11.32 11.7832 11.572 11.5384C11.824 11.2888 12.1552 11.152 12.5056 11.152C13.2088 11.152 13.804 11.7448 13.804 12.448C13.804 13.1896 13.2208 13.792 12.5056 13.792ZM15.2416 10.7128C14.968 10.3024 14.6392 9.9808 14.2456 9.736C14.9416 8.1928 15.5368 7.1896 16.1224 6.5824C16.5208 6.2248 17.008 6.0184 17.4592 6.0184C17.8504 6.0184 18.2128 6.172 18.5008 6.46C18.7984 6.748 18.9568 7.1008 18.9592 7.4848C18.964 7.9408 18.7432 8.4256 18.3568 8.812C17.6848 9.4552 16.6384 10.096 15.2416 10.7128ZM9.74559 10.7128C8.22879 10.0216 7.21119 9.4144 6.6328 8.86C6.2968 8.488 6.0928 8.056 6.0568 7.6408C6.0184 7.1944 6.1744 6.7864 6.5104 6.4624C6.80079 6.172 7.15599 6.0208 7.54239 6.0208C7.99599 6.0208 8.47839 6.2344 8.86239 6.604C9.32319 7.1032 10.024 8.044 10.7656 9.7096C10.372 9.9472 10.036 10.276 9.74559 10.7128ZM13.1992 9.2872C12.9856 9.2464 12.7456 9.208 12.5056 9.208C12.2656 9.208 12.0256 9.2464 11.812 9.2872C11.236 7.8304 10.9456 6.6424 10.9456 5.752C10.9456 5.272 11.0944 4.8328 11.3608 4.516C11.644 4.18 12.04 4 12.5056 4C12.9712 4 13.3672 4.1776 13.6504 4.516C13.9192 4.8352 14.0656 5.2744 14.0656 5.752C14.068 6.6424 13.7752 7.8304 13.1992 9.2872Z" fill="#696F88"/>
</svg>
