<svg xmlns="http://www.w3.org/2000/svg" width="24" height="24" viewBox="0 0 16.9632 16.944" fill="none">
<path id="vector" d="M8.50558 16.944C8.03999 16.944 7.64399 16.7664 7.36079 16.428C7.09199 16.1088 6.94559 15.6696 6.94559 15.192C6.94559 14.3016 7.23839 13.1136 7.81199 11.6568C8.02559 11.6976 8.26559 11.736 8.50558 11.736C8.74558 11.736 8.98558 11.6976 9.19918 11.6568C9.77518 13.1136 10.0656 14.3016 10.0656 15.192C10.0656 15.672 9.91678 16.1112 9.65038 16.428C9.36718 16.7664 8.97118 16.944 8.50558 16.944ZM13.4592 14.9016C13.008 14.9016 12.5304 14.6976 12.1464 14.3376C11.5272 13.6944 10.9056 12.6696 10.2456 11.208C10.6488 10.956 10.992 10.6128 11.2464 10.2096C12.7656 10.9032 13.7568 11.508 14.3568 12.108C14.7408 12.4776 14.9592 12.9528 14.9592 13.4136C14.9592 13.8072 14.8008 14.1672 14.5032 14.4552C14.208 14.748 13.8504 14.9016 13.4592 14.9016ZM3.53519 14.8968C3.15359 14.8968 2.79839 14.7456 2.5128 14.4576C2.2152 14.1696 2.0544 13.8096 2.052 13.4184C2.0472 12.9576 2.2608 12.48 2.6328 12.108C3.20399 11.5176 4.16399 10.9296 5.74319 10.2096C5.99519 10.6128 6.33839 10.956 6.74399 11.208C6.10559 12.6456 5.47439 13.6824 4.86479 14.292C4.47839 14.676 3.99599 14.8968 3.53519 14.8968ZM1.7544 10.056C0.909598 10.0344 0 9.5232 0 8.448C0 7.4256 0.880798 6.888 1.752 6.888C2.6712 6.912 3.89999 7.212 5.30879 7.752C5.26079 7.9536 5.23679 8.1816 5.23679 8.448C5.23679 8.724 5.25839 8.9448 5.31119 9.1656C3.75359 9.7488 2.6208 10.032 1.7544 10.056ZM15.2088 10.032C14.3664 10.032 13.2096 9.7488 11.676 9.1656C11.7264 8.9448 11.7504 8.724 11.7504 8.448C11.7504 8.184 11.7264 7.9536 11.6784 7.7544C13.212 7.1712 14.3664 6.888 15.2088 6.888C15.6888 6.888 16.128 7.0368 16.4472 7.3032C16.7856 7.5864 16.9632 7.9824 16.9632 8.448C16.9632 8.9232 16.7856 9.3264 16.4472 9.6144C16.128 9.8832 15.6888 10.032 15.2088 10.032ZM8.50558 9.792C7.77599 9.792 7.18319 9.1896 7.18319 8.448C7.18319 8.1072 7.31999 7.7832 7.57199 7.5384C7.82399 7.2888 8.15519 7.152 8.50558 7.152C9.20878 7.152 9.80398 7.7448 9.80398 8.448C9.80398 9.1896 9.22078 9.792 8.50558 9.792ZM11.2416 6.7128C10.968 6.3024 10.6392 5.9808 10.2456 5.736C10.9416 4.1928 11.5368 3.1896 12.1224 2.5824C12.5208 2.2248 13.008 2.0184 13.4592 2.0184C13.8504 2.0184 14.2128 2.172 14.5008 2.46C14.7984 2.748 14.9568 3.1008 14.9592 3.4848C14.964 3.9408 14.7432 4.4256 14.3568 4.812C13.6848 5.4552 12.6384 6.096 11.2416 6.7128ZM5.74559 6.7128C4.22879 6.0216 3.21119 5.4144 2.6328 4.86C2.2968 4.488 2.0928 4.056 2.0568 3.6408C2.0184 3.1944 2.1744 2.7864 2.5104 2.4624C2.80079 2.172 3.15599 2.0208 3.54239 2.0208C3.99599 2.0208 4.47839 2.2344 4.86239 2.604C5.32319 3.1032 6.02399 4.044 6.76559 5.7096C6.37199 5.9472 6.03599 6.276 5.74559 6.7128ZM9.19918 5.2872C8.98558 5.2464 8.74558 5.208 8.50558 5.208C8.26559 5.208 8.02559 5.2464 7.81199 5.2872C7.23599 3.8304 6.94559 2.6424 6.94559 1.752C6.94559 1.272 7.09439 0.8328 7.36079 0.516C7.64399 0.18 8.03999 0 8.50558 0C8.97118 0 9.36718 0.1776 9.65038 0.516C9.91918 0.8352 10.0656 1.2744 10.0656 1.752C10.068 2.6424 9.77518 3.8304 9.19918 5.2872Z" fill="var(--fill-0, #696F88)"/>
</svg>