<svg xmlns="http://www.w3.org/2000/svg" width="24" height="24" viewBox="0 0 20 20.3812" fill="none">
<path id="vector" fill-rule="evenodd" clip-rule="evenodd" d="M9.70615 0.0002236C9.82321 -0.00224936 9.94272 0.0157344 10.0597 0.0569619C10.5642 0.234878 10.8365 0.776343 10.6861 1.28352L10.6702 1.33255L10.6304 1.44837C10.2322 2.63384 10.2668 3.44974 10.4606 4.05579C10.5138 4.22208 10.5819 4.38139 10.6637 4.53597C11.0866 3.92076 11.6542 3.35669 12.4247 3.04124L12.4321 3.03821C13.7841 2.49732 15.2791 2.90923 16.3354 3.32962L16.4361 3.37024C16.9527 3.58141 17.2082 4.15538 17.0087 4.65638C16.5991 5.68487 15.8685 7.06397 14.4778 7.63333C14.4754 7.63434 14.4729 7.63537 14.4704 7.63636C14.2946 7.70669 14.1164 7.76082 13.937 7.801C14.3276 8.21457 14.6932 8.69314 14.9483 9.26341C15.1326 9.23176 15.3541 9.19344 15.5679 9.16419C16.1479 9.08484 16.9069 9.03378 17.6795 9.29388L17.7571 9.32122C19.3709 9.9131 20 11.6908 20 13.2923C20 15.8254 17.8129 18.5 14.3 18.5C13.0312 18.5 11.9006 18.1033 10.9892 17.4794C10.094 19.1091 8.26134 20.3812 5.8 20.3812C2.49938 20.3812 4.77374e-05 17.7571 0 15.1735C0 13.3316 0.97213 11.6724 2.5876 11.1682L2.65889 11.1468C3.39285 10.9336 4.07091 10.9796 4.60596 11.0553C4.68262 11.0661 4.76161 11.0786 4.83965 11.0914C4.68558 8.23416 4.98691 6.13616 5.69355 4.45472C6.44523 2.66616 7.61322 1.45172 8.93184 0.339091L9.05986 0.231767L9.1002 0.199833C9.28087 0.0641689 9.49426 -0.001192 9.70615 0.0002236ZM8.6125 13.0725C8.26627 12.9583 7.86168 12.9609 7.36611 13.0273C7.11109 13.0614 6.8902 13.1029 6.61846 13.1466C6.37385 13.186 6.08228 13.228 5.8 13.228C5.51821 13.228 5.24027 13.1879 5.00781 13.1494C4.74627 13.1062 4.55971 13.0687 4.32598 13.0357C3.92089 12.9784 3.57756 12.9696 3.24902 13.0583L3.1835 13.0774C2.61402 13.2551 2 13.9638 2 15.1735C2.00005 16.5504 3.49889 18.3812 5.8 18.3812C8.29231 18.3812 9.59995 16.5812 9.6 15.1735C9.6 13.9337 9.12141 13.2721 8.65732 13.0888L8.6125 13.0725ZM17.0414 11.1894C16.7108 11.0781 16.3221 11.0796 15.839 11.1457C15.5899 11.1798 15.3753 11.221 15.108 11.265C14.8782 11.3027 14.6036 11.3431 14.3345 11.3464C14.2616 11.3527 14.1895 11.3506 14.1192 11.3413C13.9034 11.3291 13.696 11.2979 13.5175 11.2677C13.2598 11.2242 13.0792 11.187 12.8508 11.154C12.4566 11.0971 12.1269 11.0891 11.8127 11.1758L11.75 11.1944C11.3763 11.3135 10.9778 11.6736 10.7607 12.2944C11.3473 13.0982 11.6 14.1667 11.6 15.1735C11.6 15.2482 11.598 15.323 11.5941 15.3979C12.2553 16.0479 13.1964 16.5 14.3 16.5C16.7093 16.5 18 14.7198 18 13.2923C18 12.0403 17.5248 11.3834 17.0839 11.2051L17.0414 11.1894ZM8.36094 3.77767C8.03748 4.21842 7.76269 4.69323 7.5373 5.22952C6.97947 6.55685 6.68535 8.35405 6.84219 11.0829C6.92766 11.0696 7.01467 11.0565 7.10059 11.045C7.65287 10.971 8.36041 10.9223 9.08848 11.1272C9.52043 10.2613 10.2257 9.58118 11.1426 9.2889L11.2131 9.26722C11.6421 9.13995 12.0516 9.10452 12.4235 9.11224C12.3823 9.06981 12.3397 9.02701 12.2956 8.98392C12.0222 8.71694 11.715 8.45675 11.3727 8.16995C11.0396 7.89097 10.6706 7.58465 10.3213 7.25706C10.2898 7.22754 10.2585 7.19741 10.2271 7.16722C10.1571 7.1139 10.095 7.05287 10.0421 6.98567C9.43811 6.37603 8.86478 5.63115 8.55576 4.66517C8.46479 4.38078 8.39939 4.08532 8.36094 3.77767ZM14.654 4.85052C14.0995 4.72359 13.618 4.71787 13.2419 4.86702C12.8682 5.02136 12.538 5.35555 12.2485 5.82405C12.803 5.95099 13.2846 5.95678 13.6606 5.80765C14.0344 5.65333 14.3646 5.31902 14.654 4.85052Z" fill="var(--fill-0, #696F88)"/>
</svg>