<svg width="24" height="24" viewBox="0 0 24 24" fill="none" xmlns="http://www.w3.org/2000/svg">
<path fill-rule="evenodd" clip-rule="evenodd" d="M11.7062 1.80027C11.8232 1.7978 11.9427 1.81578 12.0597 1.85701C12.5642 2.03493 12.8365 2.57639 12.6861 3.08357L12.6702 3.1326L12.6304 3.24842C12.2322 4.43388 12.2668 5.24979 12.4606 5.85584C12.5138 6.02212 12.5819 6.18144 12.6637 6.33601C13.0866 5.72081 13.6542 5.15673 14.4247 4.84129L14.4321 4.83826C15.7841 4.29737 17.2791 4.70928 18.3354 5.12967L18.4361 5.17029C18.9527 5.38146 19.2082 5.95543 19.0087 6.45642C18.5991 7.48492 17.8685 8.86402 16.4778 9.43338C16.4754 9.43439 16.4729 9.43542 16.4704 9.43641C16.2946 9.50674 16.1164 9.56087 15.937 9.60105C16.3276 10.0146 16.6932 10.4932 16.9483 11.0635C17.1326 11.0318 17.3541 10.9935 17.5679 10.9642C18.1479 10.8849 18.9069 10.8338 19.6795 11.0939L19.7571 11.1213C21.3709 11.7131 22 13.4908 22 15.0924C22 17.6254 19.8129 20.3001 16.3 20.3001C15.0312 20.3001 13.9006 19.9034 12.9892 19.2795C12.094 20.9092 10.2613 22.1812 7.8 22.1812C4.49938 22.1812 2.00005 19.5572 2 16.9735C2 15.1316 2.97213 13.4725 4.5876 12.9682L4.65889 12.9469C5.39285 12.7336 6.07091 12.7797 6.60596 12.8554C6.68262 12.8662 6.76161 12.8787 6.83965 12.8915C6.68558 10.0342 6.98691 7.93621 7.69355 6.25476C8.44523 4.46621 9.61322 3.25177 10.9318 2.13914L11.0599 2.03182L11.1002 1.99988C11.2809 1.86422 11.4943 1.79886 11.7062 1.80027ZM10.6125 14.8725C10.2663 14.7584 9.86168 14.7609 9.36611 14.8273C9.11109 14.8615 8.8902 14.9029 8.61846 14.9467C8.37385 14.986 8.08228 15.028 7.8 15.028C7.51821 15.028 7.24027 14.988 7.00781 14.9495C6.74627 14.9062 6.55971 14.8688 6.32598 14.8357C5.92089 14.7784 5.57756 14.7696 5.24902 14.8584L5.1835 14.8774C4.61402 15.0552 4 15.7638 4 16.9735C4.00005 18.3504 5.49889 20.1812 7.8 20.1812C10.2923 20.1812 11.6 18.3812 11.6 16.9735C11.6 15.7338 11.1214 15.0721 10.6573 14.8888L10.6125 14.8725ZM19.0414 12.9894C18.7108 12.8781 18.3221 12.8797 17.839 12.9458C17.5899 12.9798 17.3753 13.0211 17.108 13.065C16.8782 13.1028 16.6036 13.1432 16.3345 13.1465C16.2616 13.1527 16.1895 13.1506 16.1192 13.1414C15.9034 13.1292 15.696 13.0979 15.5175 13.0678C15.2598 13.0242 15.0792 12.9871 14.8508 12.9541C14.4566 12.8972 14.1269 12.8891 13.8127 12.9759L13.75 12.9944C13.3763 13.1135 12.9778 13.4737 12.7607 14.0944C13.3473 14.8983 13.6 15.9668 13.6 16.9735C13.6 17.0483 13.598 17.1231 13.5941 17.1979C14.2553 17.8479 15.1964 18.3001 16.3 18.3001C18.7094 18.3001 20 16.5198 20 15.0924C20 13.8404 19.5248 13.1834 19.0839 13.0052L19.0414 12.9894ZM10.3609 5.57771C10.0375 6.01847 9.76269 6.49328 9.5373 7.02957C8.97947 8.3569 8.68535 10.1541 8.84219 12.883C8.92766 12.8696 9.01467 12.8565 9.10059 12.845C9.65287 12.771 10.3604 12.7224 11.0885 12.9272C11.5204 12.0614 12.2257 11.3812 13.1426 11.0889L13.2131 11.0673C13.6421 10.94 14.0516 10.9046 14.4235 10.9123C14.3823 10.8699 14.3397 10.8271 14.2956 10.784C14.0222 10.517 13.715 10.2568 13.3727 9.97C13.0396 9.69102 12.6706 9.3847 12.3213 9.05711C12.2898 9.02759 12.2585 8.99745 12.2271 8.96726C12.1571 8.91395 12.095 8.85291 12.0421 8.78572C11.4381 8.17608 10.8648 7.4312 10.5558 6.46521C10.4648 6.18082 10.3994 5.88537 10.3609 5.57771ZM16.654 6.65057C16.0995 6.52363 15.618 6.51792 15.2419 6.66707C14.8682 6.82141 14.538 7.1556 14.2485 7.6241C14.803 7.75104 15.2846 7.75683 15.6606 7.60769C16.0344 7.45337 16.3646 7.11906 16.654 6.65057Z" fill="#696F88"/>
</svg>
