<svg xmlns="http://www.w3.org/2000/svg" width="24" height="24" viewBox="0 0 8.6 20.9" fill="none">
<path d="M3.22588 11.0117C3.85831 10.8724 4.54204 10.8536 5.04717 11.0112L5.09541 11.027L5.11953 11.0359C5.36512 11.1342 5.49312 11.4089 5.40645 11.662C5.31975 11.9151 5.05016 12.0537 4.7959 11.9808L4.77139 11.973L4.74541 11.9646C4.47071 11.88 3.98144 11.8692 3.44092 11.9883C3.17125 12.0477 2.90451 11.8772 2.84512 11.6075C2.78573 11.3378 2.95621 11.0711 3.22588 11.0117Z" fill="currentColor"/>
<path fill-rule="evenodd" clip-rule="evenodd" d="M4.3 0C4.85228 0 5.3 0.447715 5.3 1V2.03857L5.64746 1.6415L5.68232 1.60361C6.05042 1.22364 6.65586 1.19515 7.0585 1.54746C7.46113 1.89979 7.51324 2.50368 7.18545 2.91895L7.15254 2.9585L5.82715 4.47314C6.0371 4.52912 6.23921 4.60066 6.43223 4.69072C7.09175 4.99847 7.57325 5.48798 7.90215 6.1335C8.21585 6.74919 8.38155 7.48748 8.47578 8.30771C8.57077 9.13458 8.6 10.1149 8.6 11.25C8.6 13.5573 8.33817 15.8401 7.74863 17.5829C7.45463 18.4521 7.05738 19.2528 6.51475 19.8523C5.97271 20.4512 5.25809 20.873 4.38496 20.8987L4.3 20.9L4.20938 20.8985C3.27973 20.8685 2.54814 20.3776 2.01514 19.7358C1.47851 19.0897 1.09124 18.2373 0.80752 17.3385C0.237553 15.5328 3.00573e-08 13.26 0 11.25C0 9.32252 0.104592 7.61631 0.684375 6.38613C0.992048 5.73334 1.44483 5.18504 2.09365 4.81348C2.31686 4.68565 2.55349 4.58441 2.80215 4.50674L1.44746 2.9585C1.08378 2.54286 1.12588 1.91114 1.5415 1.54746C1.95714 1.18379 2.58886 1.22588 2.95254 1.6415L3.3 2.03857V1C3.3 0.447715 3.74772 0 4.3 0ZM4.3 6.3C3.70884 6.3 3.33482 6.40745 3.0876 6.54902C2.85243 6.6837 2.65708 6.8917 2.49346 7.23887C2.45717 7.31586 2.42334 7.39788 2.3916 7.48506C2.74415 7.40862 3.1719 7.37651 3.68838 7.41885L3.78184 7.42725L3.80742 7.43037C4.06905 7.46931 4.25697 7.7071 4.23105 7.97334C4.20513 8.23958 3.97487 8.43667 3.71064 8.42441L3.68496 8.42256L3.60713 8.41553C2.81375 8.35036 2.36565 8.50259 2.13311 8.63193C2.13243 8.63231 2.13172 8.63263 2.13105 8.63301C2.0384 9.32081 2 10.1823 2 11.25C2 12.5839 2.11337 13.9986 2.35137 15.2586C2.65317 15.1418 3.0628 15.0716 3.61338 15.1111L3.67588 15.116L3.70146 15.1188C3.96355 15.1546 4.15428 15.3902 4.13154 15.6567C4.1088 15.9233 3.88095 16.1231 3.6166 16.114L3.59092 16.1124L3.49404 16.1055C3.02433 16.0781 2.76974 16.1598 2.65029 16.218C2.61835 16.2335 2.59427 16.2483 2.57686 16.2604C2.6203 16.4237 2.66617 16.5826 2.71475 16.7365C2.95975 17.5127 3.24939 18.0915 3.55371 18.4579C3.8263 18.7861 4.05716 18.8875 4.25986 18.8989L4.3 18.9C4.52327 18.9 4.75987 18.8107 5.03193 18.5102C5.32088 18.1909 5.60688 17.6729 5.8541 16.9421C6.08299 16.2654 6.25997 15.4626 6.38408 14.5771C6.3586 14.5691 6.33343 14.5591 6.30889 14.5468L6.28623 14.5346L6.24355 14.5111C5.80427 14.2766 5.41108 14.3013 5.0334 14.3013C4.75727 14.3013 4.53342 14.0774 4.5334 13.8013C4.5334 13.5251 4.75726 13.3013 5.0334 13.3013C5.32736 13.3013 5.88474 13.2646 6.50303 13.5279C6.56732 12.8012 6.6 12.0353 6.6 11.25C6.6 10.7062 6.59283 10.2163 6.57617 9.77461C6.54873 9.76549 6.52172 9.75395 6.49551 9.73975L6.47324 9.72695L6.43477 9.7042C6.03866 9.47743 5.68784 9.50127 5.3334 9.50127C5.05727 9.50127 4.83342 9.27739 4.8334 9.00127C4.8334 8.72513 5.05726 8.50127 5.3334 8.50127C5.57028 8.50127 6.00387 8.47294 6.50039 8.64189C6.49664 8.60618 6.49287 8.57089 6.48887 8.53604C6.40647 7.8188 6.27771 7.35081 6.12012 7.0415C5.97772 6.76204 5.81101 6.60778 5.58652 6.50303C5.331 6.3838 4.93584 6.3 4.3 6.3Z" fill="currentColor"/>
</svg>