<svg xmlns="http://www.w3.org/2000/svg" width="24" height="24" viewBox="0 0 20.3531 15.4291" fill="none">
<path id="vector" fill-rule="evenodd" clip-rule="evenodd" d="M8.06533 6.92067e-05C8.0735 0.000172321 8.08167 0.000450514 8.08984 0.0007528C8.0971 0.00102562 8.10436 0.00120168 8.11162 0.00163171C8.12126 0.00219821 8.13089 0.0030334 8.14052 0.0038778C8.14541 0.00430913 8.15029 0.00474229 8.15517 0.00524499C8.16596 0.00635065 8.17674 0.00759856 8.18749 0.00905358C8.19209 0.00967766 8.19668 0.0103192 8.20126 0.0110067C8.21374 0.0128701 8.22616 0.0150204 8.23857 0.0173544C8.24049 0.0177166 8.24241 0.0180552 8.24433 0.0184286C8.25622 0.0207381 8.26806 0.0233037 8.27988 0.0260458C8.28414 0.0270382 8.28841 0.0280246 8.29267 0.0290731C8.30375 0.031799 8.31478 0.0347542 8.32578 0.0378622C8.32939 0.0388857 8.33301 0.0399227 8.33662 0.0409872C8.3483 0.0444319 8.35991 0.0481447 8.37148 0.0520223C8.3745 0.0530364 8.37754 0.0540064 8.38056 0.0550497C8.39208 0.0590342 8.40354 0.063232 8.41494 0.0676473C8.41819 0.0689092 8.42146 0.0701593 8.4247 0.0714559C8.43611 0.0760141 8.44742 0.0808195 8.45869 0.0858114C8.46168 0.0871391 8.46468 0.0884572 8.46767 0.0898153C8.47873 0.0948512 8.48967 0.100179 8.50058 0.105636C8.5039 0.107295 8.50724 0.108918 8.51054 0.110616C8.52086 0.115926 8.53104 0.121528 8.54121 0.127218C8.54475 0.129201 8.54832 0.131145 8.55185 0.133175C8.5618 0.138908 8.57165 0.144847 8.58144 0.150948C8.58555 0.153505 8.58967 0.156042 8.59374 0.158663C8.60198 0.163967 8.61015 0.169404 8.61826 0.174972C8.62395 0.17888 8.62962 0.182849 8.63525 0.186886C8.64251 0.192101 8.64968 0.19747 8.65683 0.202901C8.66233 0.207077 8.66781 0.211295 8.67324 0.215597C8.68011 0.221048 8.68689 0.226639 8.69365 0.232296C8.69943 0.237135 8.70524 0.241958 8.71093 0.246944C8.71731 0.252537 8.72361 0.258253 8.72988 0.264034C8.73594 0.269629 8.74199 0.275258 8.74794 0.281026C8.75051 0.283514 8.75321 0.285928 8.75576 0.288448L8.76376 0.296847C8.77067 0.303844 8.77754 0.310898 8.78427 0.318136L8.7914 0.325655L8.87958 0.420382C9.32559 0.890524 9.8471 1.30855 10.4709 1.78366C10.5385 1.83518 10.6076 1.88715 10.6775 1.94011C11.7137 1.1536 12.5859 0.622283 12.9453 0.357491L13.0041 0.313057L13.01 0.308761C13.0202 0.300841 13.0306 0.29318 13.041 0.285714L13.0454 0.282296C13.047 0.281176 13.0487 0.280181 13.0503 0.279073C13.0608 0.271765 13.0713 0.264642 13.082 0.257784C13.0854 0.255644 13.0887 0.253532 13.0921 0.251436C13.1027 0.244803 13.1134 0.238393 13.1242 0.232198C13.1274 0.230342 13.1307 0.228545 13.134 0.226729C13.1443 0.220961 13.1547 0.215304 13.1651 0.209932C13.1704 0.207225 13.1757 0.204628 13.181 0.202022C13.1898 0.19772 13.1987 0.193551 13.2075 0.189522C13.2137 0.186702 13.2199 0.183907 13.2262 0.181222C13.2344 0.177668 13.2427 0.174189 13.2511 0.17087C13.2577 0.168209 13.2645 0.165665 13.2712 0.163155C13.2795 0.160043 13.2879 0.156954 13.2963 0.154073C13.3041 0.15138 13.312 0.148848 13.3199 0.146358C13.3266 0.144261 13.3333 0.142161 13.3399 0.140206C13.3484 0.13772 13.357 0.135427 13.3655 0.133175C13.3729 0.131224 13.3804 0.129288 13.3878 0.127511C13.3955 0.125656 13.4034 0.124 13.4111 0.122335C13.4185 0.120756 13.4259 0.119058 13.4333 0.117647C13.4429 0.115813 13.4526 0.114311 13.4623 0.112765C13.468 0.11186 13.4736 0.110838 13.4793 0.11003C13.4892 0.108616 13.4992 0.10753 13.5092 0.106417C13.5152 0.105747 13.5212 0.104929 13.5271 0.104366C13.5358 0.103558 13.5445 0.102996 13.5531 0.102413C13.5604 0.101918 13.5678 0.101283 13.5751 0.100948C13.5842 0.100534 13.5934 0.100526 13.6025 0.100362C13.609 0.100244 13.6155 0.0999662 13.622 0.0999716C13.6305 0.0999835 13.639 0.10033 13.6475 0.100557C13.6549 0.100754 13.6624 0.100783 13.6698 0.101143C13.6766 0.101477 13.6834 0.102039 13.6902 0.102511C13.6995 0.103151 13.7088 0.103763 13.7181 0.104659C13.7243 0.105265 13.7305 0.106182 13.7367 0.106905C13.7456 0.10793 13.7545 0.108772 13.7633 0.11003C13.7684 0.110759 13.7734 0.111762 13.7785 0.112569C13.8474 0.123506 13.9154 0.141569 13.9811 0.166866C13.9842 0.168048 13.9874 0.16917 13.9904 0.170382C14.0029 0.175331 14.0153 0.180636 14.0276 0.186104C14.0297 0.18702 14.0318 0.187909 14.0339 0.188839C14.0437 0.193292 14.0535 0.198114 14.0632 0.202901C14.068 0.205277 14.0729 0.207574 14.0777 0.21003C14.086 0.214252 14.0941 0.21875 14.1022 0.223214C14.1084 0.226566 14.1145 0.229884 14.1206 0.23337C14.1282 0.237741 14.1357 0.242359 14.1432 0.246944C14.1493 0.250686 14.1555 0.254391 14.1615 0.258272C14.1681 0.262511 14.1746 0.26695 14.1811 0.271358C14.1889 0.276587 14.1967 0.281813 14.2043 0.287276C14.2091 0.290768 14.2139 0.294429 14.2187 0.298018C14.2269 0.304081 14.235 0.310239 14.243 0.316573C14.2477 0.320361 14.2524 0.324307 14.2571 0.328194C14.2654 0.335023 14.2736 0.341966 14.2817 0.349093C14.2863 0.353117 14.2908 0.357276 14.2953 0.361397C14.303 0.368475 14.3107 0.375719 14.3183 0.383077C14.323 0.387669 14.3277 0.392339 14.3323 0.397042C14.3395 0.404341 14.3467 0.411747 14.3537 0.419307C14.3557 0.421403 14.3577 0.423443 14.3597 0.425557C14.7656 0.870197 15.2465 1.25758 15.8373 1.70759C16.3779 2.11934 17.0123 2.58475 17.6727 3.15407L17.8051 3.26931C19.7767 5.00297 20.5739 7.51414 20.3012 9.63728C20.1641 10.7038 19.7494 11.7239 19.0161 12.4903C18.2675 13.2728 17.2358 13.7366 16.0024 13.7366C15.3881 13.7366 14.7868 13.67 14.2144 13.5308C14.1562 13.5994 14.0961 13.6666 14.0337 13.7319C13.2153 14.5873 12.0873 15.0958 10.7327 15.0958C9.96824 15.0958 9.22386 15.0033 8.52382 14.8092C7.43014 15.2636 6.1361 15.5087 4.91816 15.4058L4.78935 15.3936C3.37913 15.2452 2.26513 14.6881 1.46425 13.8387C0.674128 13.0008 0.246641 11.9408 0.0818307 10.8671C-0.241361 8.76146 0.411444 6.37105 1.71025 4.89099L1.81718 4.77028C3.99818 2.33228 6.614 0.820684 7.36757 0.26462L7.44374 0.206905C7.45203 0.200526 7.46041 0.194335 7.46884 0.188253L7.47695 0.182296C7.47907 0.180795 7.48126 0.179383 7.48339 0.177901C7.4924 0.171645 7.50148 0.165564 7.51064 0.15964C7.51502 0.156805 7.51941 0.153999 7.52382 0.151241C7.5328 0.145631 7.54186 0.140228 7.55097 0.134932C7.55636 0.131796 7.56175 0.128681 7.56718 0.125655C7.57516 0.121212 7.58323 0.116971 7.5913 0.112765C7.59805 0.109243 7.60481 0.105767 7.61162 0.102413C7.61927 0.0986448 7.62694 0.0949369 7.63466 0.0913778C7.64109 0.0884131 7.64753 0.0855051 7.654 0.0826864C7.66152 0.0794166 7.66908 0.0762889 7.67665 0.0732137C7.68441 0.0700602 7.69218 0.0669817 7.69999 0.0640341C7.70632 0.06165 7.71267 0.059351 7.71904 0.0571005C7.72774 0.0540196 7.73645 0.051043 7.74521 0.0482137C7.75115 0.0462963 7.75711 0.0444501 7.76308 0.0426473C7.77259 0.0397709 7.78213 0.0370275 7.79169 0.0344442C7.79702 0.0330084 7.80237 0.0316886 7.80771 0.0303426C7.81678 0.0280555 7.82585 0.0258262 7.83496 0.0237997C7.84207 0.0222178 7.8492 0.0207318 7.85634 0.0193075C7.86453 0.017673 7.87273 0.0161436 7.88095 0.0147176C7.88836 0.013431 7.89578 0.0122227 7.90322 0.0111044C7.91086 0.00995502 7.91851 0.00885223 7.92617 0.00788171C7.93429 0.0068504 7.94244 0.0059787 7.95058 0.00514733C7.95781 0.00441169 7.96503 0.00367431 7.97226 0.00309655C7.98003 0.00247309 7.98782 0.00207385 7.9956 0.00163171C8.004 0.00115781 8.01239 0.000722132 8.02079 0.000459832C8.02779 0.000238147 8.03479 0.000144694 8.04179 6.92067e-05C8.04964 -1.15171e-05 8.05748 -3.39419e-05 8.06533 6.92067e-05ZM7.94472 2.30105C6.7867 3.08119 4.99522 4.21581 3.31308 6.09773L3.21347 6.21013C2.33811 7.20766 1.81718 8.99004 2.05869 10.5635C2.17624 11.3294 2.46575 11.9855 2.91943 12.4667C3.36238 12.9364 4.01913 13.3015 4.99872 13.4046L5.08935 13.4132C5.36909 13.4366 5.66059 13.4335 5.95517 13.4072C5.04363 12.561 4.41411 11.4153 4.14414 10.0044L4.12939 9.92497L4.12148 9.87409C4.05398 9.34939 4.40925 8.85832 4.93574 8.76325C5.46226 8.66821 5.9669 9.00408 6.0871 9.51931L6.09755 9.5697L6.11943 9.68454C6.35647 10.8597 6.9121 11.677 7.64853 12.2159C8.4233 12.7828 9.47438 13.0958 10.7327 13.0958C11.5523 13.0958 12.1549 12.8026 12.5886 12.3493C13.0376 11.88 13.3534 11.1853 13.4624 10.337C13.6816 8.63034 13.0328 6.51013 11.358 5.03747L11.2226 4.9195C10.5475 4.33743 9.90299 3.86512 9.25908 3.37468C8.81428 3.0359 8.36833 2.68728 7.94472 2.30105ZM13.5155 2.39763C13.1645 2.63338 12.7553 2.90306 12.3109 3.22009C12.3837 3.28116 12.457 3.3432 12.5305 3.40651L12.6786 3.53552C14.8654 5.45836 15.7479 8.24278 15.4461 10.5919C15.3982 10.9645 15.3196 11.3314 15.2094 11.6853C15.4611 11.719 15.7257 11.7366 16.0024 11.7366C16.7009 11.7366 17.2071 11.488 17.571 11.1077C17.9503 10.7113 18.223 10.1178 18.3175 9.38249C18.5077 7.90178 17.944 6.05476 16.4844 4.77126L16.3647 4.66706C15.7685 4.15293 15.1994 3.73591 14.6254 3.2987C14.2526 3.01474 13.8763 2.72109 13.5155 2.39763Z" fill="var(--fill-0, #696F88)"/>
</svg>