<svg width="26" height="24" viewBox="0 0 26 24" fill="none" xmlns="http://www.w3.org/2000/svg">
<path d="M13.0162 16.8001C13.0026 17.2366 12.9926 17.6843 12.9865 18.1435C12.9975 18.6111 13.0023 19.0903 12.9996 19.581C12.9955 19.8705 12.9917 20.1459 12.9892 20.4059C12.9905 20.5762 12.9915 20.7417 12.9915 20.9021C12.9915 21.4533 12.5488 21.9001 12.0027 21.9001C12.0018 21.9001 12.0009 21.9 12 21.9C11.9992 21.9 11.9983 21.9001 11.9975 21.9001C11.4514 21.9001 11.0086 21.4533 11.0086 20.9021C11.0086 20.7417 11.0096 20.5762 11.0109 20.4059C11.0084 20.1459 11.0046 19.8705 11.0005 19.581C10.998 19.116 11.0046 18.6591 11.0192 18.2104C11.0168 17.7256 11.0116 17.2557 11.0046 16.8001H13.0162Z" fill="#696F88"/>
<path d="M16.0822 16.8001C16.0306 18.0804 16 19.4507 16 20.9001C16 21.4524 15.5523 21.9001 15 21.9001C14.4477 21.9001 14 21.4524 14 20.9001C14 19.4009 14.0505 18.0378 14.1389 16.8001H16.0822Z" fill="#696F88"/>
<path d="M9.84719 16.8001C9.94446 17.8489 10 18.9519 10 20.1033C9.99925 20.3449 9.99846 20.5784 9.99846 20.803C9.99846 21.3537 9.55335 21.8001 9.00422 21.8001C8.4551 21.8001 8.00999 21.3537 8.00999 20.803C8.00999 20.5998 8.01033 20.3917 8.01077 20.1793C8.01185 19.0068 7.98521 17.8776 7.9384 16.8001H9.84719Z" fill="#696F88"/>
<path d="M16.2489 13.8001C16.2037 14.4358 16.1627 15.1031 16.1276 15.8001H7.8886C7.84959 15.1087 7.80257 14.4412 7.74973 13.8001H16.2489Z" fill="#696F88"/>
<path d="M6.40002 4.7001C6.40002 4.7001 8.19038 7.75025 9.24592 12.8001H7.66077C7.18698 7.84132 6.40002 4.7001 6.40002 4.7001Z" fill="#696F88"/>
<path d="M16.05 1.8501C16.05 1.8501 14.0201 4.73645 13.2613 12.8001H10.8738C10.4744 5.18555 9.40002 3.2001 9.40002 3.2001C9.40002 3.2001 11.0688 5.56634 12.1341 10.55C13.6231 4.95565 16.05 1.8501 16.05 1.8501Z" fill="#696F88"/>
<path d="M17.25 5.6001C17.25 5.6001 16.6957 8.27485 16.3253 12.8001H14.6106C15.5518 7.30888 17.25 5.6001 17.25 5.6001Z" fill="#696F88"/>
</svg>
