<svg xmlns="http://www.w3.org/2000/svg" width="24" height="24" viewBox="0 0 10.85 20.05" fill="none">
<path d="M6.61621 14.95C6.60261 15.3865 6.59253 15.8342 6.58643 16.2934C6.59747 16.761 6.60224 17.2402 6.59961 17.7309C6.59548 18.0204 6.59164 18.2958 6.58916 18.5558C6.59047 18.7261 6.5915 18.8916 6.5915 19.052C6.5915 19.6032 6.14876 20.05 5.60264 20.05C5.60177 20.05 5.60086 20.0499 5.6 20.0499C5.59917 20.0499 5.5983 20.05 5.59746 20.05C5.05134 20.05 4.60859 19.6032 4.60859 19.052C4.60859 18.8916 4.60953 18.7261 4.61084 18.5558C4.60836 18.2958 4.60462 18.0204 4.60049 17.7309C4.59799 17.2659 4.60453 16.809 4.61914 16.3603C4.61674 15.8755 4.61159 15.4056 4.60459 14.95H6.61621Z" fill="var(--fill-0, #696F88)"/>
<path d="M9.68213 14.95C9.63057 16.2303 9.6 17.6006 9.6 19.05C9.6 19.6023 9.15227 20.05 8.6 20.05C8.04772 20.05 7.6 19.6023 7.6 19.05C7.6 17.5508 7.6505 16.1877 7.73887 14.95H9.68213Z" fill="var(--fill-0, #696F88)"/>
<path d="M3.44717 14.95C3.54444 15.9988 3.6 17.1018 3.6 18.2532C3.59923 18.4948 3.59844 18.7283 3.59844 18.9529C3.59844 19.5036 3.15333 19.95 2.6042 19.95C2.05507 19.95 1.60996 19.5036 1.60996 18.9529C1.60996 18.7497 1.6103 18.5416 1.61074 18.3292C1.61182 17.1567 1.58518 16.0275 1.53838 14.95H3.44717Z" fill="var(--fill-0, #696F88)"/>
<path d="M9.84883 11.95C9.80364 12.5857 9.76264 13.253 9.72754 13.95H1.48857C1.44957 13.2586 1.40255 12.5911 1.34971 11.95H9.84883Z" fill="var(--fill-0, #696F88)"/>
<path d="M0 2.85C0 2.85 1.79036 5.90016 2.8459 10.95H1.26074C0.78696 5.99122 0 2.85 0 2.85Z" fill="var(--fill-0, #696F88)"/>
<path d="M9.65 0C9.65 0 7.62009 2.88635 6.86123 10.95H4.47373C4.0744 3.33545 3 1.35 3 1.35C3 1.35 4.6688 3.71624 5.73408 8.6999C7.22306 3.10556 9.65 0 9.65 0Z" fill="var(--fill-0, #696F88)"/>
<path d="M10.85 3.75C10.85 3.75 10.2957 6.42475 9.92529 10.95H8.21055C9.15182 5.45878 10.85 3.75 10.85 3.75Z" fill="var(--fill-0, #696F88)"/>
</svg>