<svg xmlns="http://www.w3.org/2000/svg" width="24" height="24" viewBox="0 0 19.5071 19.686" fill="none">
<path d="M1.79423 9.25019C2.99997 8.69968 4.42368 9.2308 4.97421 10.4365C5.09305 10.6968 5.16137 10.9673 5.18349 11.2369C5.30376 11.1717 5.41982 11.1156 5.52665 11.0675L5.63622 11.0193C6.11181 10.8155 6.6613 11.0085 6.90712 11.4577L6.92988 11.502C7.19338 12.0451 7.56349 12.9867 7.24189 13.9203L7.22597 13.9648C7.22502 13.9674 7.22401 13.97 7.22304 13.9726L7.20527 14.0182C6.91007 14.7509 6.28196 15.1931 5.63876 15.3415L6.97617 18.2704C7.20554 18.7728 6.98422 19.366 6.48183 19.5954C5.97944 19.8248 5.38622 19.6035 5.15683 19.1011L3.82021 16.1738C3.28735 16.5587 2.54551 16.7407 1.80214 16.4851L1.75595 16.4686C1.75337 16.4677 1.75081 16.4667 1.74824 16.4657L1.70419 16.4486C0.788061 16.0801 0.319001 15.1838 0.0811453 14.6289L0.0625906 14.5827C-0.11581 14.1028 0.0982268 13.5611 0.563762 13.3353L0.671868 13.284C0.793003 13.228 0.929762 13.1696 1.07861 13.1157C0.888001 12.9217 0.727295 12.6919 0.607805 12.4302C0.0572873 11.2244 0.588487 9.80072 1.79423 9.25019Z" fill="currentColor"/>
<path d="M13.6195 9.78047C13.7762 8.46429 14.9701 7.52424 16.2863 7.68086C17.6025 7.83748 18.5425 9.03147 18.3859 10.3477C18.3521 10.6318 18.2698 10.8982 18.1485 11.14C18.2851 11.1469 18.4134 11.1593 18.5297 11.1737L18.6483 11.1896C19.1605 11.2628 19.5296 11.7133 19.506 12.2248L19.5024 12.2745C19.4451 12.8755 19.2717 13.8721 18.5116 14.5024L18.4749 14.5322C18.4727 14.5339 18.4705 14.5357 18.4684 14.5374L18.4295 14.567C17.7964 15.0394 17.03 15.0906 16.4034 14.883L16.023 18.0803C15.9578 18.6287 15.4603 19.0204 14.9119 18.9552C14.3635 18.8899 13.9718 18.3924 14.0371 17.8439L14.4172 14.6486C13.7619 14.7004 13.0336 14.47 12.5315 13.8651L12.5007 13.8272C12.499 13.8251 12.4972 13.8229 12.4955 13.8207L12.4668 13.7831C11.8758 12.992 11.9411 11.9825 12.0265 11.3849L12.0347 11.3357C12.1318 10.833 12.5962 10.4817 13.1113 10.5308L13.2304 10.5432C13.3629 10.5583 13.51 10.5795 13.6651 10.6108C13.6032 10.3461 13.5855 10.0661 13.6195 9.78047Z" fill="currentColor"/>
<path d="M9.24179 1.51445C9.73119 0.28265 11.1265 -0.319156 12.3583 0.170212C13.5901 0.659603 14.192 2.05489 13.7026 3.28672C13.597 3.55257 13.4491 3.78897 13.2698 3.9915C13.4001 4.03318 13.5208 4.07828 13.6295 4.12207L13.7401 4.16787C14.2164 4.37011 14.4572 4.90029 14.3031 5.38857L14.287 5.43564C14.0773 6.00176 13.6537 6.92048 12.7572 7.33447L12.7141 7.35381C12.7115 7.35491 12.709 7.35604 12.7064 7.35713L12.6612 7.37578C11.928 7.66978 11.1741 7.52251 10.6219 7.16094L9.4332 10.1532C9.22928 10.6665 8.64782 10.9172 8.13456 10.7133C7.62133 10.5093 7.3706 9.92799 7.5745 9.41474L8.76259 6.42412C8.11596 6.30585 7.47123 5.89624 7.1413 5.18271L7.12118 5.13808C7.12008 5.13556 7.11904 5.133 7.11796 5.13047L7.0998 5.08681C6.73182 4.17046 7.05418 3.21156 7.29013 2.65586L7.31074 2.61054C7.53373 2.14963 8.07281 1.92925 8.558 2.10898L8.66992 2.15156C8.79414 2.20022 8.93082 2.25857 9.07265 2.32871C9.08077 2.05689 9.13557 1.7818 9.24179 1.51445Z" fill="currentColor"/>
</svg>