<svg xmlns="http://www.w3.org/2000/svg" width="24" height="24" viewBox="0 0 19.2544 20.468" fill="none">
<path id="vector" fill-rule="evenodd" clip-rule="evenodd" d="M11.6554 0.000976562C12.5502 0.0214491 13.4578 0.361251 14.1126 1.14131C14.7461 1.89594 14.9393 2.82096 14.9393 3.63203C14.9392 4.77961 14.521 5.95584 13.8989 6.97734C14.0562 6.97098 14.2141 6.96797 14.372 6.96797C15.4541 6.96797 16.5518 7.26138 17.4677 7.85254L17.4678 7.85244C18.298 8.38667 19.2544 9.37984 19.2544 10.792C19.2544 12.2442 18.3456 13.3249 17.308 13.9096V13.96C17.308 14.7949 17.0726 15.6668 16.5037 16.3731C15.911 17.109 15.023 17.568 14.0119 17.568C12.624 17.568 11.4694 16.815 10.6265 15.8804V19.468C10.6265 20.0203 10.1787 20.468 9.62646 20.468C9.07418 20.468 8.62646 20.0203 8.62646 19.468V15.8799C7.78366 16.8136 6.62941 17.5655 5.24238 17.5655C4.2313 17.5655 3.34344 17.1067 2.75068 16.3708C2.18176 15.6645 1.94639 14.7925 1.94639 13.9575V13.9072C0.925916 13.3323 0.0301743 12.2775 0.00078125 10.8614L0 10.7896L0.000683594 10.7237C0.0298937 9.34775 0.970872 8.37847 1.78135 7.85342L1.78447 7.85137L1.7876 7.84941C2.70167 7.26208 3.79879 6.96797 4.88242 6.96797C5.03869 6.96797 5.19492 6.97102 5.35068 6.97725C4.72862 5.95577 4.31046 4.77957 4.31045 3.63203C4.31045 2.82096 4.50364 1.89594 5.13711 1.14131C5.81304 0.336094 6.75835 0 7.68086 0L7.73389 0.000390625C8.60795 0.0131023 9.25161 0.33786 9.6252 0.567285C10.002 0.33604 10.6654 0 11.5688 0L11.6554 0.000976562ZM14.372 8.96797C13.2968 8.96797 12.3727 9.13836 11.6983 9.45996L11.6358 9.49072C10.9985 9.81295 10.6472 10.2634 10.6472 10.768L10.6483 10.8693C10.6719 11.921 11.0589 13.0874 11.696 14.0128C12.3646 14.9861 13.1936 15.5502 13.9748 15.5676L14.0119 15.568C14.7632 15.568 15.2913 14.9261 15.3076 14.0041L15.308 13.96V13.5279C15.308 12.7168 15.6392 12.5127 16.2271 12.2199C16.8502 11.9084 17.2301 11.3986 17.2532 10.8456L17.2544 10.792C17.2544 10.348 16.9375 9.88957 16.3855 9.53437C15.8392 9.18097 15.1509 8.98072 14.4407 8.96855L14.372 8.96797ZM4.88242 8.96797C4.14802 8.96797 3.43275 9.16953 2.86875 9.53193L2.81777 9.56582C2.29734 9.91823 2.00001 10.3618 2 10.7896C2 11.3631 2.38405 11.896 3.02725 12.2176C3.61282 12.5104 3.94639 12.7168 3.94639 13.5256V13.9575L3.94678 14.0017C3.96283 14.9091 4.4745 15.5451 5.20684 15.565L5.24238 15.5655C6.00963 15.5655 6.82645 15.034 7.49424 14.1019L7.5584 14.0104C8.19311 13.085 8.58234 11.9187 8.60605 10.867L8.60723 10.7655C8.60721 10.261 8.25805 9.8106 7.61875 9.48838L7.55596 9.45752C6.90495 9.1483 6.0152 8.97875 4.98271 8.96846L4.88242 8.96797ZM11.5688 2C11.0792 2 10.7648 2.20881 10.4864 2.39121L10.3905 2.45352C10.1671 2.59684 9.94191 2.72002 9.6248 2.72002L9.59102 2.71953C9.28953 2.71118 9.07221 2.59174 8.8583 2.45352L8.76328 2.39121C8.48728 2.20881 8.17045 2 7.68086 2C6.80966 2 6.31045 2.59523 6.31045 3.63203L6.31172 3.71631C6.33847 4.59336 6.77781 5.65372 7.50088 6.57441C8.20253 7.46978 9.00417 8.03026 9.59678 8.04756L9.6248 8.04795C10.22 8.04795 11.036 7.484 11.7488 6.57441C12.4719 5.65372 12.9112 4.59336 12.938 3.71631L12.9393 3.63203C12.9393 2.59523 12.44 2 11.5688 2Z" fill="var(--fill-0, #696F88)"/>
</svg>