<svg xmlns="http://www.w3.org/2000/svg" width="24" height="24" viewBox="0 0 20.4 18.8" fill="none">
<path fill-rule="evenodd" clip-rule="evenodd" d="M16.5918 7.13035C17.2268 7.07676 17.8401 7.0882 18.3568 7.21131C18.8031 7.31768 19.4074 7.56792 19.7054 8.1659L19.7184 8.16102C21.4443 12.6383 19.7854 16.8551 15.9542 18.3237C12.2453 19.7454 8.23073 17.9207 6.41711 13.6959C6.37468 13.6239 6.33669 13.5465 6.30451 13.463C6.03555 12.7652 6.33874 12.1159 6.61779 11.7111C6.91873 11.2746 7.36634 10.8565 7.87385 10.4721C8.83286 9.74586 10.1761 9.01302 11.7052 8.39988C11.6856 8.40777 11.666 8.41571 11.6464 8.42361C11.6724 8.41311 11.6984 8.40251 11.7245 8.39207C11.8253 8.35179 11.9268 8.31204 12.0291 8.27283C13.6921 7.63537 15.3078 7.23872 16.5918 7.13035ZM18.3835 11.1485C18.3223 11.1974 18.2599 11.2459 18.1967 11.2938C17.8327 11.5695 17.4133 11.8459 16.9494 12.1166C16.9875 12.2645 17.0276 12.4389 17.0632 12.6061C17.131 12.9249 17.1982 13.2896 17.2224 13.5277L17.2243 13.5533C17.2376 13.8171 17.0411 14.0478 16.7745 14.0747C16.4994 14.1024 16.2537 13.9025 16.2259 13.6281L16.2173 13.5539C16.193 13.3668 16.1416 13.0872 16.0834 12.8134C16.0686 12.7436 16.0535 12.6755 16.0388 12.611C15.4212 12.9237 14.7492 13.2218 14.0415 13.493C13.3616 13.7537 12.6895 13.974 12.0448 14.1509C12.1075 14.2397 12.1824 14.3339 12.2647 14.4277C12.3989 14.5807 12.5329 14.7108 12.6248 14.7902L12.6615 14.821L12.6811 14.8379C12.8775 15.0151 12.9021 15.3167 12.7327 15.5236C12.5633 15.7305 12.262 15.7668 12.0486 15.6103L12.0281 15.5946L11.9729 15.5483C11.8389 15.4329 11.6713 15.268 11.5111 15.0854C11.342 14.8927 11.1581 14.6545 11.0323 14.4119L11.0259 14.3991C10.4744 14.5157 9.95384 14.5954 9.47873 14.6355C9.41111 14.6412 9.34371 14.646 9.27668 14.6502C10.8365 16.6315 13.106 17.2211 15.1223 16.5011C14.9353 16.3532 14.7803 16.2098 14.6676 16.0979C14.6011 16.032 14.5484 15.9762 14.5115 15.936C14.4932 15.916 14.4787 15.8996 14.4684 15.8879C14.4632 15.882 14.4589 15.8773 14.4558 15.8737C14.4542 15.8719 14.453 15.8704 14.452 15.8692C14.4515 15.8687 14.4511 15.8682 14.4507 15.8678C14.4505 15.8675 14.4504 15.8672 14.4502 15.8671L14.45 15.8669C14.4505 15.8663 14.4654 15.8535 14.832 15.5439L14.4498 15.8666C14.2711 15.6561 14.2974 15.3411 14.5084 15.1629C14.7194 14.9848 15.0351 15.0108 15.2139 15.221L15.2145 15.2216C15.2156 15.2229 15.2178 15.2253 15.2208 15.2288C15.227 15.2358 15.2371 15.2472 15.2507 15.2621C15.2781 15.292 15.3199 15.3363 15.3739 15.3899C15.4828 15.4979 15.6384 15.6407 15.8252 15.7809C15.9303 15.8598 16.0396 15.9331 16.1508 15.9982C17.6524 15.0371 18.5515 13.3057 18.3835 11.1485ZM17.648 9.11483C17.4273 9.09205 17.1321 9.08934 16.7608 9.12068C15.7129 9.20912 14.2858 9.54767 12.7479 10.1372C11.2099 10.7267 9.9227 11.4286 9.08527 12.0629C8.78847 12.2877 8.57115 12.4868 8.42258 12.6512C8.64329 12.6739 8.93847 12.6766 9.30988 12.6453C10.3577 12.5569 11.7848 12.2182 13.3228 11.6287C14.8607 11.0392 16.1479 10.3373 16.9854 9.70311C17.2822 9.47832 17.4994 9.27915 17.648 9.11483Z" fill="currentColor"/>
<path fill-rule="evenodd" clip-rule="evenodd" d="M3.02619 0.891192C6.45616 -1.41528 13.3714 0.860885 14.3588 6.49676C13.5473 6.69192 12.6932 6.95512 11.8329 7.27772L11.6712 7.33904C9.99976 7.97974 8.48784 8.77499 7.37638 9.59549L7.27013 9.67498C6.73812 10.0779 6.21425 10.5529 5.83107 11.0913L5.79445 11.1436C5.45614 11.6344 4.92071 12.6533 5.3715 13.8227L5.39152 13.8731C5.43008 13.9672 5.47342 14.0568 5.52053 14.142C5.66833 14.4817 5.82995 14.808 6.00402 15.1205C3.07944 14.4902 0.296766 12.0354 0.0366386 8.26356C-0.19169 4.95262 0.628383 2.50362 3.02619 0.891192ZM6.73039 5.9575C6.73037 5.20922 5.83505 4.88885 5.40783 5.16922C5.13093 5.351 5.03615 5.62714 5.06252 6.00037C5.09765 6.49729 5.5308 6.79146 5.92287 6.79149C6.14824 6.79145 6.73037 6.67428 6.73039 5.9575ZM4.95695 3.12C4.95693 2.37173 4.06161 2.05135 3.63439 2.33172C3.35749 2.5135 3.26271 2.78963 3.28908 3.16287C3.3242 3.6598 3.75736 3.95396 4.14943 3.95399C4.3748 3.95395 4.95695 3.83679 4.95695 3.12ZM8.35178 3.12C8.35175 2.37173 7.45643 2.05135 7.02922 2.33172C6.75231 2.5135 6.65754 2.78963 6.6839 3.16287C6.71903 3.6598 7.15218 3.95396 7.54426 3.95399C7.76963 3.95395 8.35177 3.83679 8.35178 3.12Z" fill="currentColor"/>
</svg>