<svg xmlns="http://www.w3.org/2000/svg" width="24" height="24" viewBox="0 0 15.8 20.2" fill="none">
<path id="vector" fill-rule="evenodd" clip-rule="evenodd" d="M13.5116 17.5935C14.9994 15.8016 15.7987 13.2182 15.8 10.1074L15.8 10.1C15.8 6.98604 15.0007 4.40276 13.5115 2.60641L13.5108 2.60561C12.808 1.75964 11.9707 1.10926 11.0183 0.666265L11.0175 0.665929L11.0168 0.665595C10.0666 0.22543 9.01784 0 7.9 0C6.78262 0 5.73699 0.225247 4.78377 0.665324L4.78243 0.665942L4.7811 0.666565C3.82835 1.10984 2.98821 1.76047 2.28866 2.60622L2.2884 2.60654C0.800596 4.39836 0.00132472 6.98164 1.64528e-06 10.0923L0 10.1C-1.6459e-06 13.214 0.79931 15.7972 2.28851 17.5936L2.28917 17.5944C2.99197 18.4404 3.82934 19.0907 4.78174 19.5337L4.78246 19.5341L4.78318 19.5344C5.73343 19.9746 6.78216 20.2 7.9 20.2C9.01738 20.2 10.063 19.9748 11.0162 19.5347L11.0176 19.5341L11.0189 19.5334C11.9717 19.0902 12.8118 18.4395 13.5113 17.5938L13.5116 17.5935ZM3.82771 16.3165C2.71974 14.9797 2.00192 12.9 2 10.1112L2 10.1C2 7.30408 2.71897 5.21875 3.82711 3.88418L3.8272 3.88407L3.82947 3.88134L3.82979 3.88094C4.34487 3.25822 4.94842 2.79486 5.62324 2.48062C5.65857 2.46432 5.69411 2.44841 5.72988 2.4329C7.29259 3.78466 7.59997 5.80551 7.59997 6.50052C7.59997 7.15907 7.43312 7.82742 7.1707 8.87858C7.09673 9.17487 7.01516 9.50158 6.9276 9.86706L6.92749 9.86703C6.85948 10.1509 6.79009 10.4267 6.72247 10.6953L6.72245 10.6954C6.44632 11.7927 6.19997 12.7716 6.19997 13.7C6.19997 14.496 6.45398 16.4736 7.75024 18.1982C6.96579 18.1794 6.25632 18.0125 5.6247 17.7201C4.95206 17.4071 4.34915 16.9442 3.82771 16.3165ZM10.0697 17.7673C8.5073 16.4155 8.19997 14.395 8.19997 13.7C8.19997 13.0415 8.36683 12.3731 8.62925 11.3219L8.62928 11.3218C8.70324 11.0255 8.78479 10.6989 8.87234 10.3335L8.87245 10.3335C8.94047 10.0496 9.00988 9.77378 9.0775 9.50506C9.35363 8.4078 9.59997 7.42891 9.59997 6.50052C9.59997 5.70442 9.34591 3.72649 8.0493 2.00178C8.83394 2.02055 9.54355 2.18747 10.1753 2.47994C10.8479 2.79291 11.4508 3.25584 11.9723 3.88345C13.0804 5.22042 13.7982 7.30033 13.8 10.0894L13.8 10.1C13.8 12.8959 13.081 14.9812 11.9729 16.3158L11.9728 16.3159L11.9705 16.3187L11.9702 16.3191C11.4551 16.9418 10.8516 17.4051 10.1768 17.7194C10.1413 17.7357 10.1056 17.7517 10.0697 17.7673Z" fill="var(--fill-0, #696F88)"/>
</svg>