<svg xmlns="http://www.w3.org/2000/svg" width="24" height="24" viewBox="0 0 17.9 20.7" fill="none">
<path id="vector" fill-rule="evenodd" clip-rule="evenodd" d="M8.96777 0.000195313L8.99785 0.000683594L9.01455 0.00117188C9.6431 0.0228707 10.2356 0.35452 10.7158 0.739063L10.7157 0.73916C11.1526 1.08705 11.5839 1.54746 11.99 2.07646C12.4212 1.98999 12.8043 1.94316 13.166 1.94316H13.1749L13.2341 1.94375C13.9294 1.95626 14.6203 2.16559 15.142 2.66172C15.6792 3.17238 15.913 3.86797 15.913 4.58066V4.59082L15.9124 4.64307L15.9123 4.65361C15.8968 5.40004 15.6457 6.1429 15.355 6.77354C15.3128 6.86496 15.2689 6.95538 15.224 7.04482C15.8067 7.10527 16.3618 7.26113 16.8229 7.54707L16.8846 7.58652C17.5143 8.00125 17.9 8.63937 17.9 9.42744L17.8998 9.44609L17.899 9.48896C17.8989 9.49501 17.8988 9.50109 17.8985 9.50713C17.876 10.1187 17.5966 10.7144 17.2006 11.2952C17.2747 11.432 17.3528 11.5849 17.4277 11.7474C17.6202 12.1647 17.8542 12.7746 17.8542 13.3792L17.8541 13.396L17.8534 13.4331L17.853 13.4496C17.8266 14.2453 17.3686 14.8444 16.7803 15.2444C16.3474 15.5388 15.8078 15.7551 15.2008 15.9135C15.0608 16.4314 14.8525 16.9025 14.5539 17.2858C14.1334 17.8257 13.5381 18.1775 12.8193 18.1989L12.7494 18.2C12.7435 18.2 12.7375 18.1999 12.7315 18.1998L12.6968 18.1992L12.6777 18.1987C11.9633 18.1723 11.3077 17.7592 10.7712 17.2942C10.4849 17.0461 10.1938 16.7489 9.9 16.409V19.7C9.9 20.2523 9.45228 20.7 8.9 20.7C8.34772 20.7 7.9 20.2523 7.9 19.7V16.523C7.6312 16.8256 7.3648 17.0921 7.10225 17.317C6.57652 17.7674 5.92735 18.1739 5.21924 18.1988L5.15059 18.2C5.14584 18.2 5.14107 18.2 5.13633 18.1999L5.09883 18.1993C5.09409 18.1992 5.08931 18.1992 5.08457 18.199C4.34717 18.178 3.74584 17.8114 3.32666 17.2606C3.03863 16.8822 2.83617 16.4205 2.69912 15.9136C2.09251 15.7554 1.55303 15.5396 1.12012 15.2455C0.549387 14.8578 0.102059 14.2832 0.0506836 13.5236L0.0469727 13.4496L0.046582 13.4332L0.0458984 13.3959C0.045806 13.3903 0.0458008 13.3848 0.0458008 13.3792C0.045813 12.7746 0.279762 12.1647 0.472266 11.7474C0.547219 11.5849 0.625264 11.432 0.699414 11.2952C0.319362 10.7378 0.046686 10.1666 0.00546875 9.58086L0.00146484 9.50713L0.000976563 9.48896L0.000195313 9.44609C7.97424e-05 9.43989 -9.93956e-08 9.43365 0 9.42744C1.90005e-05 8.61436 0.410513 7.96084 1.07607 7.54766C1.53821 7.25919 2.09389 7.10438 2.67578 7.04453C2.63096 6.95519 2.58712 6.86485 2.54502 6.77354C2.26335 6.16261 2.01896 5.4464 1.98984 4.72363L1.9877 4.65361L1.9876 4.64307L1.98701 4.59082C1.98698 4.58744 1.98701 4.58405 1.98701 4.58066C1.98701 3.87166 2.21865 3.17216 2.75801 2.66172L2.80908 2.61455C3.3417 2.13668 4.0375 1.94317 4.73398 1.94316L4.74453 1.94326L4.82021 1.94404L4.83193 1.94424L4.92432 1.94717C5.22922 1.96012 5.55212 2.00376 5.91016 2.07568C6.31569 1.54698 6.74759 1.08483 7.18613 0.737598C7.67776 0.345901 8.29397 1.55487e-05 8.95 0L8.96777 0.000195313ZM8.9502 2.00127C8.93576 2.00422 8.89801 2.01347 8.83467 2.04229C8.74692 2.08221 8.6319 2.14963 8.49326 2.25449L8.43242 2.30176C8.43143 2.30255 8.43039 2.30332 8.42939 2.3041C8.08991 2.57248 7.6909 3.0071 7.28232 3.58428L7.20049 3.70156L7.19971 3.70283L7.15605 3.76611C6.92945 4.09484 6.52994 4.25623 6.14053 4.17988L6.10283 4.17178L6.02871 4.1543L6.01357 4.15059C5.43384 4.00406 5.06583 3.9502 4.79033 3.94375L4.73311 3.94316C4.40175 3.94332 4.23035 4.03062 4.15098 4.09785L4.13623 4.11104L4.1332 4.11387C4.0728 4.17083 3.98701 4.29982 3.98701 4.58066L3.9874 4.61455C3.99531 4.96799 4.12399 5.42135 4.36133 5.93613C4.56464 6.3771 4.82381 6.81263 5.07979 7.19697L5.18916 7.3584L5.18965 7.35918L5.33359 7.56875C5.55969 7.89791 5.5683 8.33008 5.35547 8.66797C5.14263 9.00583 4.74919 9.18471 4.35469 9.12295L4.10391 9.08369C4.103 9.08355 4.10208 9.08335 4.10117 9.0832C3.84658 9.04262 3.60236 9.02097 3.37402 9.01602L3.27188 9.01494C2.72368 9.01504 2.36526 9.11583 2.17119 9.22314L2.13457 9.24473C2.13347 9.24541 2.13235 9.24609 2.13125 9.24678C2.04457 9.30054 2.01975 9.33902 2.01445 9.34805C2.01114 9.35371 2.00044 9.37133 2 9.42412L2.00029 9.43594C2.00523 9.54024 2.09079 9.84847 2.58623 10.4893L2.63594 10.5528L2.6376 10.555L2.68555 10.616C2.94666 10.949 2.96989 11.4104 2.74355 11.768L2.70205 11.8334C2.70129 11.8346 2.70057 11.8358 2.6998 11.837C2.61699 11.9666 2.44072 12.2547 2.28838 12.585C2.12401 12.9413 2.04714 13.2217 2.0459 13.3755L2.046 13.386C2.04644 13.3952 2.048 13.4037 2.06016 13.4229C2.07773 13.4505 2.12622 13.5111 2.24395 13.5911C2.47634 13.749 2.88565 13.9196 3.52686 14.0542L3.6583 14.0807L3.6707 14.0831L3.74492 14.0983L3.78223 14.1068C4.16577 14.2012 4.45936 14.5134 4.52813 14.9048L4.54111 14.9791L4.54229 14.986C4.63673 15.5467 4.7882 15.8786 4.91816 16.0494C5.02459 16.1892 5.09172 16.1982 5.13906 16.1997L5.14902 16.1998C5.15605 16.1989 5.20726 16.1919 5.31045 16.1407C5.43374 16.0796 5.59813 15.9719 5.80098 15.7981C6.20851 15.449 6.69673 14.8979 7.23789 14.1348L7.23818 14.1343L7.40967 13.8926C7.46082 13.8059 7.56182 13.6457 7.69922 13.4817C7.79532 13.367 7.93535 13.2186 8.11621 13.0922C8.29131 12.9698 8.58133 12.8148 8.95527 12.8159L8.98994 12.8164C9.34544 12.8267 9.62101 12.9764 9.78955 13.0951C9.96929 13.2217 10.1084 13.3698 10.2039 13.4844C10.3397 13.6472 10.4395 13.8063 10.4906 13.8932L10.6618 14.1343L10.662 14.1346L10.7614 14.2732C11.2556 14.9543 11.7025 15.4547 12.0811 15.7828C12.282 15.957 12.4466 16.0676 12.5725 16.1323C12.6828 16.1891 12.7397 16.1984 12.7502 16.1998L12.7527 16.1999C12.8068 16.1996 12.8719 16.1905 12.9761 16.0568C13.1068 15.889 13.2617 15.5563 13.3577 14.986L13.3589 14.9791L13.3719 14.9048L13.3793 14.8672C13.4624 14.4811 13.7659 14.1785 14.1551 14.0983L14.2293 14.0831L14.2417 14.0807C14.9583 13.9425 15.4076 13.7593 15.6557 13.5906C15.7736 13.5104 15.8223 13.4495 15.84 13.4217C15.8519 13.403 15.8535 13.3946 15.8539 13.3864L15.854 13.3755C15.8528 13.2217 15.776 12.9413 15.6116 12.585C15.4783 12.296 15.3267 12.0393 15.2354 11.8929L15.2002 11.837L15.1979 11.8334L15.1564 11.768C14.9301 11.4104 14.9534 10.9491 15.2145 10.6161L15.2624 10.555L15.2641 10.5528L15.3138 10.4893C15.8092 9.84848 15.8947 9.54024 15.8996 9.43594L15.8999 9.42412C15.8995 9.37133 15.8889 9.35371 15.8855 9.34805C15.8809 9.34015 15.8613 9.30972 15.7984 9.26621L15.7688 9.24678C15.5881 9.13473 15.2332 9.02198 14.6794 9.01523L14.6257 9.01494C14.3744 9.01504 14.0957 9.03788 13.796 9.08359L13.7961 9.08369L13.5453 9.12295C13.1508 9.18471 12.7574 9.00583 12.5445 8.66797C12.3317 8.33008 12.3403 7.89791 12.5664 7.56875L12.7104 7.35918L12.7108 7.3584L12.8202 7.19697C13.0762 6.81263 13.3354 6.3771 13.5387 5.93613C13.776 5.42136 13.9046 4.96799 13.9125 4.61455L13.913 4.58066L13.912 4.53018C13.9031 4.3025 13.8346 4.18494 13.7763 4.12354L13.7638 4.11104C13.6939 4.04464 13.5314 3.94959 13.1989 3.94346L13.1623 3.94316C12.9008 3.9436 12.5515 3.98961 11.9981 4.12314L11.8842 4.15117L11.8713 4.1543L11.7972 4.17178C11.3961 4.26651 10.9779 4.10545 10.7439 3.76611L10.7003 3.70283L10.6995 3.70156C10.291 3.10709 9.887 2.65244 9.5375 2.35889L9.46836 2.30234C9.46747 2.30163 9.46652 2.30091 9.46563 2.3002C9.3073 2.17341 9.17539 2.09317 9.07588 2.04678C9.00705 2.01469 8.9658 2.00445 8.9502 2.00127Z" fill="var(--fill-0, #696F88)"/>
</svg>