<svg width="24" height="24" viewBox="0 0 24 24" fill="none" xmlns="http://www.w3.org/2000/svg">
<path fill-rule="evenodd" clip-rule="evenodd" d="M12.0677 1.6002L12.0978 1.60069L12.1145 1.60118C12.7431 1.62288 13.3356 1.95453 13.8158 2.33907L13.8157 2.33917C14.2526 2.68706 14.6839 3.14747 15.09 3.67647C15.5212 3.59 15.9042 3.54317 16.266 3.54317H16.2749L16.3341 3.54376C17.0294 3.55626 17.7203 3.76559 18.242 4.26172C18.7792 4.77239 19.013 5.46798 19.013 6.18067V6.19083L19.0124 6.24307L19.0123 6.25362C18.9968 7.00004 18.7457 7.74291 18.455 8.37354C18.4128 8.46496 18.3689 8.55539 18.324 8.64483C18.9067 8.70527 19.4617 8.86114 19.9228 9.14708L19.9845 9.18653C20.6143 9.60125 21 10.2394 21 11.0274L20.9998 11.0461L20.999 11.089C20.9989 11.095 20.9987 11.1011 20.9985 11.1071C20.976 11.7187 20.6965 12.3144 20.3006 12.8952C20.3747 13.032 20.4528 13.1849 20.5277 13.3474C20.7202 13.7648 20.9542 14.3746 20.9542 14.9792L20.9541 14.996L20.9534 15.0331L20.953 15.0496C20.9266 15.8453 20.4686 16.4444 19.8802 16.8444C19.4473 17.1388 18.9078 17.3551 18.3008 17.5135C18.1607 18.0314 17.9525 18.5025 17.6539 18.8858C17.2334 19.4257 16.6381 19.7775 15.9193 19.7989L15.8494 19.8C15.8434 19.8 15.8375 19.7999 15.8315 19.7998L15.7968 19.7992L15.7777 19.7987C15.0632 19.7723 14.4076 19.3592 13.8712 18.8942C13.5849 18.6461 13.2937 18.3489 13 18.009V21.3C13 21.8523 12.5523 22.3 12 22.3C11.4477 22.3 11 21.8523 11 21.3V18.1231C10.7312 18.4256 10.4648 18.6921 10.2022 18.917C9.67649 19.3674 9.02733 19.7739 8.31921 19.7988L8.25056 19.8C8.24582 19.8 8.24104 19.8 8.2363 19.7999L8.1988 19.7993C8.19406 19.7993 8.18928 19.7992 8.18455 19.799C7.44714 19.778 6.84582 19.4114 6.42664 18.8607C6.13861 18.4822 5.93615 18.0205 5.7991 17.5136C5.19248 17.3554 4.65301 17.1396 4.22009 16.8455C3.64936 16.4578 3.20203 15.8832 3.15066 15.1236L3.14695 15.0496L3.14656 15.0332L3.14587 14.9959C3.14578 14.9904 3.14578 14.9848 3.14578 14.9792C3.14579 14.3746 3.37974 13.7648 3.57224 13.3474C3.64719 13.1849 3.72524 13.032 3.79939 12.8952C3.41934 12.3378 3.14666 11.7666 3.10544 11.1809L3.10144 11.1071L3.10095 11.089L3.10017 11.0461C3.10006 11.0399 3.09998 11.0337 3.09998 11.0274C3.09999 10.2144 3.51049 9.56084 4.17605 9.14766C4.63818 8.85919 5.19387 8.70439 5.77576 8.64454C5.73094 8.5552 5.6871 8.46486 5.645 8.37354C5.36333 7.76262 5.11894 7.04641 5.08982 6.32364L5.08767 6.25362L5.08757 6.24307L5.08699 6.19083C5.08695 6.18744 5.08699 6.18405 5.08699 6.18067C5.08699 5.47167 5.31862 4.77217 5.85798 4.26172L5.90906 4.21456C6.44167 3.73669 7.13748 3.54317 7.83396 3.54317L7.84451 3.54327L7.92019 3.54405L7.93191 3.54424L8.02429 3.54717C8.32919 3.56013 8.65209 3.60377 9.01013 3.67569C9.41566 3.14699 9.84756 2.68484 10.2861 2.3376C10.7777 1.94591 11.3939 1.60002 12.05 1.60001L12.0677 1.6002ZM12.0502 3.60128C12.0357 3.60423 11.998 3.61347 11.9346 3.64229C11.8469 3.68221 11.7319 3.74964 11.5932 3.8545L11.5324 3.90176C11.5314 3.90255 11.5304 3.90332 11.5294 3.90411C11.1899 4.17249 10.7909 4.6071 10.3823 5.18428L10.3005 5.30157L10.2997 5.30284L10.256 5.36612C10.0294 5.69484 9.62991 5.85623 9.2405 5.77989L9.20281 5.77178L9.12869 5.7543L9.11355 5.75059C8.53382 5.60407 8.16581 5.55021 7.89031 5.54376L7.83308 5.54317C7.50172 5.54333 7.33033 5.63063 7.25095 5.69786L7.23621 5.71104L7.23318 5.71387C7.17277 5.77084 7.08699 5.89983 7.08699 6.18067L7.08738 6.21456C7.09529 6.568 7.22397 7.02136 7.4613 7.53614C7.66461 7.97711 7.92378 8.41264 8.17976 8.79698L8.28914 8.9584L8.28962 8.95919L8.43357 9.16876C8.65966 9.49792 8.66828 9.93009 8.45544 10.268C8.24261 10.6058 7.84917 10.7847 7.45466 10.723L7.20388 10.6837C7.20298 10.6836 7.20205 10.6834 7.20115 10.6832C6.94656 10.6426 6.70234 10.621 6.474 10.616L6.37185 10.6149C5.82366 10.615 5.46523 10.7158 5.27117 10.8232L5.23455 10.8447C5.23345 10.8454 5.23233 10.8461 5.23123 10.8468C5.14454 10.9005 5.11972 10.939 5.11443 10.9481C5.11111 10.9537 5.10041 10.9713 5.09998 11.0241L5.10027 11.0359C5.1052 11.1402 5.19077 11.4485 5.68621 12.0893L5.73591 12.1528L5.73757 12.155L5.78552 12.216C6.04663 12.549 6.06987 13.0104 5.84353 13.368L5.80203 13.4334C5.80127 13.4346 5.80054 13.4358 5.79978 13.437C5.71697 13.5666 5.5407 13.8547 5.38835 14.185C5.22399 14.5414 5.14712 14.8217 5.14587 14.9755L5.14597 14.986C5.14641 14.9952 5.14798 15.0037 5.16013 15.0229C5.17771 15.0505 5.22619 15.1111 5.34392 15.1911C5.57632 15.349 5.98562 15.5196 6.62683 15.6542L6.75828 15.6807L6.77068 15.6831L6.8449 15.6983L6.8822 15.7068C7.26575 15.8012 7.55934 16.1134 7.6281 16.5048L7.64109 16.5791L7.64226 16.586C7.7367 17.1468 7.88818 17.4786 8.01814 17.6494C8.12456 17.7893 8.1917 17.7982 8.23904 17.7997L8.249 17.7998C8.25603 17.7989 8.30724 17.7919 8.41042 17.7407C8.53372 17.6796 8.69811 17.5719 8.90095 17.3982C9.30849 17.049 9.79671 16.4979 10.3379 15.7348L10.3382 15.7343L10.5096 15.4926C10.5608 15.4059 10.6618 15.2457 10.7992 15.0817C10.8953 14.967 11.0353 14.8186 11.2162 14.6922C11.3913 14.5698 11.6813 14.4148 12.0552 14.4159L12.0899 14.4164C12.4454 14.4267 12.721 14.5764 12.8895 14.6951C13.0693 14.8217 13.2084 14.9698 13.3039 15.0844C13.4396 15.2472 13.5395 15.4063 13.5906 15.4932L13.7618 15.7343L13.762 15.7346L13.8614 15.8732C14.3555 16.5543 14.8024 17.0547 15.181 17.3828C15.382 17.557 15.5466 17.6676 15.6724 17.7323C15.7828 17.7891 15.8396 17.7984 15.8502 17.7998L15.8527 17.7999C15.9068 17.7996 15.9719 17.7905 16.076 17.6568C16.2068 17.489 16.3616 17.1563 16.4577 16.586L16.4589 16.5791L16.4719 16.5048L16.4793 16.4672C16.5624 16.0811 16.8659 15.7785 17.2551 15.6983L17.3293 15.6831L17.3417 15.6807C18.0583 15.5425 18.5076 15.3593 18.7556 15.1906C18.8736 15.1104 18.9223 15.0495 18.94 15.0217C18.9519 15.003 18.9534 14.9946 18.9539 14.9864L18.954 14.9755C18.9527 14.8217 18.876 14.5414 18.7116 14.185C18.5783 13.896 18.4267 13.6393 18.3354 13.4929L18.3002 13.437L18.2979 13.4334L18.2564 13.368C18.0301 13.0104 18.0534 12.5491 18.3144 12.2161L18.3624 12.155L18.364 12.1528L18.4137 12.0893C18.9092 11.4485 18.9946 11.1402 18.9996 11.0359L18.9999 11.0241C18.9994 10.9713 18.9888 10.9537 18.9855 10.9481C18.9809 10.9402 18.9613 10.9097 18.8984 10.8662L18.8687 10.8468C18.688 10.7347 18.3332 10.622 17.7794 10.6152L17.7257 10.6149C17.4743 10.615 17.1957 10.6379 16.896 10.6836L16.8961 10.6837L16.6453 10.723C16.2508 10.7847 15.8573 10.6058 15.6445 10.268C15.4317 9.93009 15.4403 9.49792 15.6664 9.16876L15.8103 8.95919L15.8108 8.9584L15.9202 8.79698C16.1762 8.41264 16.4353 7.97711 16.6386 7.53614C16.876 7.02136 17.0046 6.568 17.0125 6.21456L17.013 6.18067L17.012 6.13018C17.0031 5.90251 16.9346 5.78494 16.8762 5.72354L16.8637 5.71104C16.7939 5.64464 16.6313 5.54959 16.2989 5.54346L16.2623 5.54317C16.0008 5.5436 15.6515 5.58962 15.0981 5.72315L14.9842 5.75118L14.9713 5.7543L14.8971 5.77178C14.496 5.86651 14.0778 5.70545 13.8439 5.36612L13.8003 5.30284L13.7995 5.30157C13.391 4.7071 12.987 4.25245 12.6375 3.95889L12.5683 3.90235C12.5674 3.90164 12.5665 3.90091 12.5656 3.9002C12.4073 3.77341 12.2754 3.69318 12.1759 3.64678C12.107 3.6147 12.0658 3.60445 12.0502 3.60128Z" fill="#696F88"/>
</svg>
