<svg width="24" height="24" viewBox="0 0 24 24" fill="none" xmlns="http://www.w3.org/2000/svg">
<path fill-rule="evenodd" clip-rule="evenodd" d="M7.49214 5.08907C8.28127 3.3041 9.96604 2 12 2C14.034 2 15.7188 3.3041 16.5079 5.08907C18.5301 5.74331 20.1 7.47269 20.1 9.65C20.1 10.7216 19.7246 11.6814 19.1008 12.4587L19.5136 12.7853L18.9578 13.5604C18.9578 13.5604 18.9576 13.5607 18.9574 13.5609L18.957 13.5615L18.956 13.5628L18.9536 13.5662C18.9517 13.5688 18.9494 13.572 18.9466 13.5758C18.941 13.5834 18.9336 13.5934 18.9244 13.6057C18.906 13.6304 18.8803 13.6641 18.8476 13.7059C18.7823 13.7893 18.6887 13.9049 18.5687 14.043C18.3295 14.3183 17.9812 14.6879 17.5395 15.0713C16.6711 15.8252 15.3626 16.7011 13.7521 16.9274C13.4879 16.9646 13.2436 16.9865 13 16.9995V21C13 21.5523 12.5523 22 12 22C11.4477 22 11 21.5523 11 21V16.9958C10.7789 16.9826 10.5551 16.9615 10.3131 16.9274C8.70257 16.7011 7.39412 15.8252 6.5257 15.0713C6.08399 14.6879 5.73576 14.3183 5.49656 14.043C5.37656 13.9049 5.28292 13.7893 5.2176 13.7059C5.18491 13.6641 5.15924 13.6304 5.14082 13.6057C5.1316 13.5934 5.1242 13.5834 5.11863 13.5758C5.11585 13.572 5.11352 13.5688 5.11166 13.5662L5.10921 13.5628L5.10783 13.5609C5.10767 13.5607 5.10921 13.5628 5.10921 13.5628L5.10746 13.5604L4.55159 12.7853L4.92465 12.4901C4.28572 11.7073 3.90002 10.7361 3.90002 9.65C3.90002 7.47269 5.46991 5.74331 7.49214 5.08907ZM6.60484 11.3679C6.64278 11.3478 6.68141 11.3277 6.7207 11.3075C7.42959 10.9434 8.39716 10.5488 9.49019 10.3978C9.82727 9.72586 10.2172 9.16219 10.5427 8.74559C10.7504 8.47967 10.9361 8.26825 11.0723 8.12096C11.1405 8.0472 11.1966 7.98917 11.2373 7.94808C11.2576 7.92753 11.2741 7.91118 11.2863 7.89919L11.2949 7.89076L11.3014 7.88448L11.3064 7.8796L11.3083 7.87779L11.3095 7.8767C11.3096 7.87654 12 7.21805 12 7.21805C12 7.21805 12.6904 7.87654 12.6905 7.8767L12.6917 7.87778L12.6935 7.8796L12.6986 7.88447C12.7025 7.88827 12.7076 7.89318 12.7137 7.89917C12.7259 7.91115 12.7424 7.92748 12.7627 7.94802C12.8032 7.98907 12.8593 8.04704 12.9274 8.12073C13.0635 8.26787 13.249 8.47908 13.4566 8.74475C13.7807 9.15953 14.1689 9.72023 14.5051 10.3885C15.6149 10.5305 16.599 10.927 17.3198 11.2948C17.3524 11.3115 17.3845 11.3281 17.4161 11.3446C17.8534 10.8534 18.1 10.2549 18.1 9.65C18.1 8.42455 17.1118 7.2445 15.5411 6.89647L14.9854 6.77335L14.8075 6.23273C14.359 4.86988 13.2257 4 12 4C10.7744 4 9.64104 4.86988 9.19257 6.23273L9.01466 6.77335L8.459 6.89647C6.88824 7.2445 5.90002 8.42455 5.90002 9.65C5.90002 10.2644 6.15456 10.8724 6.60484 11.3679ZM16.6275 13.1909C16.5076 13.3095 16.3742 13.4344 16.2284 13.561C15.5007 14.1927 14.543 14.7966 13.4737 14.9469C13.0202 15.0107 12.6421 15.0179 12.0255 15.0176C11.414 15.0173 11.0452 15.0107 10.5915 14.9469C9.52218 14.7966 8.56452 14.1927 7.8368 13.561C7.691 13.4344 7.55759 13.3095 7.4377 13.1909C7.50065 13.1565 7.56631 13.1216 7.63449 13.0865C8.33815 12.7251 9.25208 12.3809 10.2029 12.3385L10.8391 12.3101L11.0824 11.7216C11.3396 11.0994 11.687 10.5526 12 10.1325C12.3126 10.5521 12.6595 11.0981 12.9167 11.7194L13.1634 12.3155L13.8082 12.3364C14.7684 12.3676 15.6952 12.7112 16.4108 13.0763C16.4861 13.1148 16.5584 13.1531 16.6275 13.1909Z" fill="#696F88"/>
</svg>
