<svg width="24" height="24" viewBox="0 0 24 24" fill="none" xmlns="http://www.w3.org/2000/svg">
<path fill-rule="evenodd" clip-rule="evenodd" d="M11.308 2.17817C11.6948 1.80727 12.3053 1.80727 12.6921 2.17817C13.7366 3.17959 14.9925 4.68272 15 6.49585C15 6.49861 15 6.50138 15 6.50414C14.9925 8.31727 13.7366 9.8204 12.6921 10.8218C12.3053 11.1927 11.6948 11.1927 11.308 10.8218C10.2635 9.8204 9.00756 8.31727 9.00004 6.50414C9.00003 6.50138 9.00003 6.49861 9.00004 6.49585C9.00756 4.68272 10.2635 3.17959 11.308 2.17817ZM11 6.49999C11.0044 7.19127 11.3874 7.92029 12 8.64642C12.6126 7.92029 12.9956 7.19127 13 6.49999C12.9956 5.80872 12.6126 5.0797 12 4.35357C11.3874 5.0797 11.0044 5.80872 11 6.49999Z" fill="#696F88"/>
<path fill-rule="evenodd" clip-rule="evenodd" d="M5.91447 7.83337C5.92574 7.29757 6.3574 6.86591 6.89321 6.85463C8.33987 6.82419 10.2908 6.99899 11.5782 8.27575C11.5802 8.27769 11.5821 8.27965 11.5841 8.28161C12.8608 9.56901 13.0356 11.52 13.0052 12.9666C12.9939 13.5024 12.5623 13.9341 12.0265 13.9454C10.5798 13.9758 8.62884 13.801 7.34145 12.5242C7.33948 12.5223 7.33753 12.5203 7.33558 12.5184C6.05882 11.231 5.88402 9.28003 5.91447 7.83337ZM8.75273 11.1071C9.24464 11.5928 10.0309 11.8375 10.9776 11.9177C10.8973 10.9711 10.6526 10.1848 10.1669 9.69289C9.67502 9.20719 8.88871 8.96251 7.94208 8.88224C8.02234 9.82888 8.26702 10.6152 8.75273 11.1071Z" fill="#696F88"/>
<path fill-rule="evenodd" clip-rule="evenodd" d="M18.0856 7.83337C18.0743 7.29757 17.6427 6.86591 17.1069 6.85463C15.6602 6.82419 13.7092 6.99899 12.4219 8.27575C12.4199 8.27769 12.4179 8.27965 12.416 8.28161C11.1392 9.56901 10.9644 11.52 10.9949 12.9666C11.0061 13.5024 11.4378 13.9341 11.9736 13.9454C13.4203 13.9758 15.3712 13.801 16.6586 12.5242C16.6606 12.5223 16.6625 12.5203 16.6645 12.5184C17.9412 11.231 18.116 9.28003 18.0856 7.83337ZM15.2473 11.1071C14.7554 11.5928 13.9691 11.8375 13.0225 11.9177C13.1027 10.9711 13.3474 10.1848 13.8331 9.69289C14.325 9.20719 15.1114 8.96251 16.058 8.88224C15.9777 9.82888 15.733 10.6152 15.2473 11.1071Z" fill="#696F88"/>
<path fill-rule="evenodd" clip-rule="evenodd" d="M5.91447 12.3334C5.92574 11.7976 6.3574 11.3659 6.89321 11.3546C8.33987 11.3242 10.2908 11.499 11.5782 12.7757C11.5802 12.7777 11.5821 12.7796 11.5841 12.7816C12.8608 14.069 13.0356 16.02 13.0052 17.4666C12.9939 18.0024 12.5623 18.4341 12.0265 18.4454C10.5798 18.4758 8.62884 18.301 7.34145 17.0242C7.33948 17.0223 7.33753 17.0203 7.33558 17.0184C6.05882 15.731 5.88402 13.78 5.91447 12.3334ZM8.75273 15.6071C9.24464 16.0928 10.0309 16.3375 10.9776 16.4177C10.8973 15.4711 10.6526 14.6848 10.1669 14.1929C9.67502 13.7072 8.88871 13.4625 7.94208 13.3822C8.02234 14.3289 8.26702 15.1152 8.75273 15.6071Z" fill="#696F88"/>
<path fill-rule="evenodd" clip-rule="evenodd" d="M18.0856 12.3334C18.0743 11.7976 17.6427 11.3659 17.1069 11.3546C15.6602 11.3242 13.7092 11.499 12.4219 12.7757C12.4199 12.7777 12.4179 12.7796 12.416 12.7816C11.1392 14.069 10.9644 16.02 10.9949 17.4666C11.0061 18.0024 11.4378 18.4341 11.9736 18.4454C13.4203 18.4758 15.3712 18.301 16.6586 17.0242C16.6606 17.0223 16.6625 17.0203 16.6645 17.0184C17.9412 15.731 18.116 13.78 18.0856 12.3334ZM15.2473 15.6071C14.7554 16.0928 13.9691 16.3375 13.0225 16.4177C13.1027 15.4711 13.3474 14.6848 13.8331 14.1929C14.325 13.7072 15.1114 13.4625 16.058 13.3822C15.9777 14.3289 15.733 15.1152 15.2473 15.6071Z" fill="#696F88"/>
<path fill-rule="evenodd" clip-rule="evenodd" d="M12 22.05C11.4477 22.05 11 21.6023 11 21.05V11.9C11 11.3477 11.4477 10.9 12 10.9C12.5523 10.9 13 11.3477 13 11.9V21.05C13 21.6023 12.5523 22.05 12 22.05Z" fill="#696F88"/>
</svg>
