<svg xmlns="http://www.w3.org/2000/svg" width="24" height="24" viewBox="0 0 12.4435 20.2019" fill="none">
<path id="vector" fill-rule="evenodd" clip-rule="evenodd" d="M7.87979 0.428524C9.12703 -0.256069 10.6026 0.0121387 11.64 0.322664L11.739 0.35284C12.2349 0.50641 12.5282 1.01231 12.4217 1.51485L12.4101 1.56339C12.1379 2.59403 11.6061 4.01468 10.3838 4.74766C10.7042 5.12895 10.9524 5.55292 11.1429 5.99991C11.7542 7.43467 11.7989 9.20313 11.8006 10.7161L11.8002 11.3472C11.8002 14.4224 10.8981 16.3658 9.71104 17.6776C9.13175 18.3178 8.51157 18.7774 7.96875 19.1333C7.70075 19.309 7.44124 19.4658 7.22666 19.5977C7.00223 19.7356 6.83192 19.8431 6.69648 19.9422L6.65156 19.9736C6.1979 20.278 5.60268 20.278 5.14902 19.9736L5.1041 19.9422L5.05166 19.9046C4.92527 19.8158 4.77031 19.7183 4.57393 19.5977C4.35935 19.4658 4.09984 19.309 3.83184 19.1333C3.28902 18.7774 2.66884 18.3178 2.08955 17.6776C0.902447 16.3658 0.000395848 14.4224 0.000390625 11.3472L0 10.7161C0.00163949 9.20313 0.0464324 7.43467 0.657715 5.99991C1.02493 5.13804 1.60618 4.36127 2.50811 3.81241C2.84112 3.60976 3.2066 3.44497 3.60557 3.31807C3.30427 3.02711 3.20756 2.5654 3.39844 2.1669C3.62958 1.68439 4.19727 1.47188 4.68535 1.67598L4.73232 1.69708L4.82275 1.74122C5.31726 1.98734 5.75503 2.28291 6.10693 2.61944C6.44512 1.78882 6.98206 0.93098 7.87256 0.432528L7.87979 0.428524ZM5.88516 4.99893C5.88464 4.99893 5.88411 4.99894 5.88359 4.99893C4.77235 5.00111 4.04061 5.22098 3.54775 5.52091C3.06281 5.81602 2.73118 6.23578 2.49766 6.7839C1.99481 7.96418 2.00039 9.56279 2.00039 11.3472L2.00098 11.47C2.02408 14.0323 2.76962 15.4483 3.57256 16.3357C3.99466 16.8021 4.46201 17.1549 4.92842 17.4607C5.165 17.6158 5.39052 17.7521 5.6209 17.8937C5.71256 17.95 5.80663 18.0082 5.90029 18.0679C5.99395 18.0082 6.08803 17.95 6.17969 17.8937C6.41006 17.7521 6.63558 17.6158 6.87217 17.4607C7.33858 17.1549 7.80593 16.8021 8.22803 16.3357C9.0437 15.4342 9.80019 13.9872 9.8002 11.3472L9.79941 10.6872C9.79362 9.16969 9.74293 7.81665 9.30293 6.7839C9.0694 6.23578 8.73777 5.81602 8.25283 5.52091C7.75751 5.21948 7.02091 4.99893 5.90029 4.99893C5.89524 4.99893 5.89019 4.99892 5.88516 4.99893ZM10.1373 2.03194C9.60797 1.96233 9.16787 2.00467 8.8459 2.17989C8.52666 2.36009 8.25742 2.71093 8.03594 3.19679C8.5653 3.26642 9.00546 3.22406 9.32744 3.04884C9.64668 2.86865 9.91583 2.51776 10.1373 2.03194Z" fill="var(--fill-0, #696F88)"/>
</svg>