<svg xmlns="http://www.w3.org/2000/svg" width="24" height="24" viewBox="0 0 16.3793 19.7999" fill="none">
<path d="M11.9169 16.9163C11.9703 16.8167 12.0922 16.7728 12.1961 16.8176C12.7943 17.0754 13.436 17.1796 14.0848 17.0878L14.0866 17.0874C14.3353 17.0519 14.5731 16.9887 14.7987 16.9011C15.0102 16.8189 15.2712 17.0826 15.1195 17.2513C14.8569 17.5433 14.5602 17.8149 14.2305 18.0644C12.7006 19.1977 10.6178 19.7999 8.17974 19.7999C5.74168 19.7999 3.65891 19.1977 2.14869 18.0644C1.81501 17.8135 1.51565 17.5403 1.25132 17.2464C1.09956 17.0776 1.36071 16.8151 1.57203 16.8979C1.80031 16.9873 2.04108 17.0516 2.29312 17.0875L2.294 17.0877C2.94249 17.1796 3.58386 17.0756 4.18189 16.8181C4.28575 16.7733 4.40763 16.8173 4.46099 16.917C4.67289 17.313 4.97347 17.6642 5.35748 17.9543L5.35816 17.9549L5.4314 18.0086C6.19482 18.5546 7.16347 18.7999 8.18599 18.7999C9.24324 18.7999 10.2377 18.5378 11.016 17.9586L11.0201 17.9556L11.0242 17.9524C11.4048 17.6631 11.7048 17.3124 11.9169 16.9163Z" fill="var(--fill-0, #696F88)"/>
<path d="M8.1897 11.2C9.13317 11.8142 9.87628 12.4665 10.4008 13.1365C10.991 13.8888 11.2897 14.647 11.2897 15.3904C11.2897 16.1133 10.9873 16.7245 10.419 17.1564C9.85437 17.5767 9.08575 17.8 8.18599 17.8C7.28624 17.8 6.51765 17.5767 5.96031 17.1564C5.38841 16.7245 5.08972 16.1133 5.0897 15.3904C5.0897 14.647 5.38835 13.8888 5.97847 13.1365C6.50303 12.4665 7.24623 11.8142 8.1897 11.2Z" fill="var(--fill-0, #696F88)"/>
<path d="M0.378082 9.84336C1.41048 9.91378 2.32599 10.1154 3.09937 10.4393C3.96853 10.8024 4.63752 11.3132 5.08873 11.9576C5.17978 12.0877 5.25858 12.22 5.32545 12.3538C5.29961 12.3848 5.2741 12.416 5.24898 12.4472L5.19117 12.52C4.50297 13.3976 4.0897 14.3666 4.0897 15.3904C4.0897 15.5084 4.0957 15.6248 4.10718 15.7394C3.55899 16.0528 2.98637 16.1758 2.43433 16.0976C1.77231 16.0031 1.19248 15.6196 0.753766 14.9931C0.302561 14.3487 0.0512251 13.5452 0.0072814 12.6043C-0.0325672 11.7668 0.0911579 10.8376 0.378082 9.84336Z" fill="var(--fill-0, #696F88)"/>
<path d="M16.0013 9.84336C16.2882 10.8376 16.4119 11.7668 16.372 12.6043C16.3281 13.5452 16.0768 14.3487 15.6256 14.9931C15.1869 15.6196 14.6071 16.0031 13.9451 16.0976C13.393 16.1758 12.8202 16.0529 12.2719 15.7394C12.2835 15.6248 12.2897 15.5085 12.2897 15.3904C12.2897 14.3666 11.8764 13.3976 11.1881 12.52C11.1445 12.4643 11.0997 12.4089 11.0538 12.3537C11.1206 12.22 11.1996 12.0876 11.2907 11.9576C11.7419 11.3132 12.4109 10.8024 13.28 10.4393C14.0534 10.1154 14.9689 9.91377 16.0013 9.84336Z" fill="var(--fill-0, #696F88)"/>
<path d="M8.2897 5.5C9.05056 6.11415 9.64988 6.76654 10.0729 7.43652C10.5488 8.18878 10.7897 8.94699 10.7897 9.69043C10.7897 10.3896 10.5615 10.9843 10.1319 11.4134C9.71579 11.0468 9.24807 10.6958 8.73521 10.3619L8.1897 10.0068L7.6442 10.3619C7.17595 10.6667 6.74525 10.9857 6.35718 11.318C5.98394 10.8979 5.78971 10.3392 5.7897 9.69043C5.7897 8.94698 6.0306 8.18879 6.5065 7.43652C6.92953 6.76654 7.52884 6.11415 8.2897 5.5Z" fill="var(--fill-0, #696F88)"/>
<path d="M2.13863 4.66074C3.12696 4.81554 3.9917 5.08687 4.70923 5.46396C5.22204 5.7329 5.65179 6.05268 5.99459 6.41914C5.87564 6.57782 5.76448 6.73877 5.66148 6.90186C5.10439 7.78245 4.7897 8.72346 4.7897 9.69043C4.78971 9.89013 4.80407 10.0872 4.83297 10.28C4.45744 9.99667 4.03705 9.75574 3.57906 9.55664L3.48492 9.5165C2.95876 9.29623 2.3866 9.12922 1.77691 9.01357C1.59989 8.49902 1.52317 7.92164 1.54888 7.28857C1.58107 6.47862 1.77852 5.59408 2.13863 4.66074Z" fill="var(--fill-0, #696F88)"/>
<path d="M14.2407 4.66074C14.6008 5.59407 14.7982 6.47862 14.8304 7.28857C14.8561 7.92164 14.7794 8.49902 14.6024 9.01357C13.9927 9.12921 13.4206 9.29624 12.8945 9.5165L12.8003 9.55664C12.4299 9.71765 12.084 9.90596 11.7666 10.1219C11.7819 9.97999 11.7897 9.83597 11.7897 9.69043C11.7897 8.72347 11.4751 7.78244 10.918 6.90186C10.79 6.69916 10.6492 6.49984 10.4966 6.304C10.8195 5.98533 11.2117 5.70437 11.6701 5.46396C12.3876 5.08687 13.2524 4.81554 14.2407 4.66074Z" fill="var(--fill-0, #696F88)"/>
<path d="M8.2397 0C8.98534 0.614153 9.5727 1.26654 9.98726 1.93652C10.4536 2.68878 10.6897 3.44699 10.6897 4.19043C10.6897 4.45754 10.6569 4.70937 10.5931 4.94258C10.3189 5.12715 10.0656 5.33013 9.83589 5.55166C9.55512 5.26563 9.24833 4.98866 8.91783 4.72188L8.2897 4.21484L7.66158 4.72188C7.29215 5.02007 6.9523 5.33092 6.64537 5.65303C6.42345 5.42652 6.1776 5.21855 5.9106 5.02881C5.83053 4.77185 5.78971 4.49079 5.7897 4.19043C5.7897 3.44698 6.02576 2.68879 6.49214 1.93652C6.90672 1.26654 7.49406 0.614153 8.2397 0Z" fill="var(--fill-0, #696F88)"/>
</svg>