<svg width="24" height="24" viewBox="0 0 24 24" fill="none" xmlns="http://www.w3.org/2000/svg">
<path d="M15.7273 19.0163C15.7806 18.9167 15.9026 18.8728 16.0064 18.9176C16.6046 19.1754 17.2463 19.2796 17.8951 19.1878L17.8969 19.1874C18.1456 19.1519 18.3834 19.0887 18.609 19.0011C18.8205 18.9189 19.0815 19.1825 18.9298 19.3512C18.6672 19.6432 18.3705 19.9149 18.0408 20.1643C16.5109 21.2976 14.4281 21.8999 11.99 21.8999C9.55199 21.8999 7.46921 21.2976 5.95899 20.1643C5.62532 19.9135 5.32595 19.6402 5.06163 19.3464C4.90986 19.1776 5.17102 18.915 5.38233 18.9978C5.61061 19.0873 5.85138 19.1515 6.10342 19.1875L6.1043 19.1877C6.75279 19.2796 7.39417 19.1756 7.99219 18.918C8.09605 18.8733 8.21794 18.9173 8.2713 19.017C8.48319 19.413 8.78377 19.7642 9.16778 20.0543L9.16846 20.0549L9.24171 20.1086C10.0051 20.6546 10.9738 20.8999 11.9963 20.8999C13.0535 20.8999 14.048 20.6378 14.8263 20.0586L14.8304 20.0555L14.8345 20.0524C15.2151 19.7631 15.5151 19.4123 15.7273 19.0163Z" fill="#696F88"/>
<path d="M12 13.3C12.9435 13.9141 13.6866 14.5665 14.2111 15.2365C14.8013 15.9888 15.1 16.747 15.1 17.4904C15.1 18.2133 14.7976 18.8245 14.2293 19.2564C13.6647 19.6766 12.896 19.9 11.9963 19.9C11.0965 19.9 10.328 19.6766 9.77061 19.2564C9.19871 18.8245 8.90002 18.2133 8.90001 17.4904C8.90001 16.747 9.19866 15.9888 9.78878 15.2365C10.3133 14.5665 11.0565 13.9141 12 13.3Z" fill="#696F88"/>
<path d="M4.18838 11.9433C5.22078 12.0138 6.13629 12.2153 6.90967 12.5392C7.77883 12.9023 8.44782 13.4132 8.89903 14.0576C8.99008 14.1876 9.06888 14.32 9.13575 14.4538C9.10991 14.4848 9.0844 14.5159 9.05928 14.5471L9.00147 14.62C8.31327 15.4975 7.90001 16.4666 7.90001 17.4904C7.90001 17.6084 7.906 17.7248 7.91749 17.8393C7.3693 18.1528 6.79667 18.2758 6.24464 18.1975C5.58261 18.1031 5.00279 17.7196 4.56407 17.093C4.11286 16.4487 3.86153 15.6452 3.81758 14.7043C3.77774 13.8668 3.90146 12.9375 4.18838 11.9433Z" fill="#696F88"/>
<path d="M19.8116 11.9433C20.0985 12.9375 20.2222 13.8668 20.1823 14.7043C20.1384 15.6452 19.8871 16.4487 19.4359 17.093C18.9972 17.7196 18.4174 18.1031 17.7554 18.1975C17.2033 18.2758 16.6305 18.1528 16.0822 17.8393C16.0938 17.7248 16.1 17.6084 16.1 17.4904C16.1 16.4666 15.6867 15.4975 14.9984 14.62C14.9548 14.5643 14.91 14.5089 14.8641 14.4537C14.9309 14.3199 15.0099 14.1876 15.101 14.0576C15.5522 13.4132 16.2212 12.9023 17.0903 12.5392C17.8637 12.2153 18.7792 12.0137 19.8116 11.9433Z" fill="#696F88"/>
<path d="M12.1 7.59998C12.8609 8.21413 13.4602 8.86652 13.8832 9.5365C14.3591 10.2888 14.6 11.047 14.6 11.7904C14.6 12.4896 14.3718 13.0843 13.9422 13.5134C13.5261 13.1467 13.0584 12.7957 12.5455 12.4619L12 12.1068L11.4545 12.4619C10.9863 12.7667 10.5556 13.0857 10.1675 13.4179C9.79424 12.9979 9.60002 12.4392 9.60001 11.7904C9.60001 11.047 9.8409 10.2888 10.3168 9.5365C10.7398 8.86651 11.3391 8.21413 12.1 7.59998Z" fill="#696F88"/>
<path d="M5.94893 6.76072C6.93727 6.91552 7.802 7.18685 8.51954 7.56394C9.03235 7.83287 9.46209 8.15265 9.80489 8.51912C9.68594 8.67779 9.57479 8.83875 9.47178 9.00183C8.91469 9.88243 8.60001 10.8234 8.60001 11.7904C8.60001 11.9901 8.61437 12.1872 8.64327 12.38C8.26775 12.0966 7.84735 11.8557 7.38936 11.6566L7.29522 11.6165C6.76907 11.3962 6.1969 11.2292 5.58721 11.1136C5.41019 10.599 5.33347 10.0216 5.35919 9.38855C5.39138 8.57859 5.58882 7.69405 5.94893 6.76072Z" fill="#696F88"/>
<path d="M18.051 6.76072C18.4111 7.69405 18.6085 8.5786 18.6407 9.38855C18.6664 10.0216 18.5897 10.599 18.4127 11.1136C17.803 11.2292 17.2309 11.3962 16.7048 11.6165L16.6106 11.6566C16.2402 11.8176 15.8943 12.0059 15.5769 12.2219C15.5922 12.08 15.6 11.9359 15.6 11.7904C15.6 10.8234 15.2854 9.88242 14.7283 9.00183C14.6003 8.79914 14.4595 8.59982 14.3069 8.40398C14.6298 8.08531 15.022 7.80434 15.4804 7.56394C16.1979 7.18685 17.0627 6.91552 18.051 6.76072Z" fill="#696F88"/>
<path d="M12.05 2.09998C12.7956 2.71413 13.383 3.36652 13.7976 4.0365C14.2639 4.78876 14.5 5.54696 14.5 6.29041C14.5 6.55751 14.4672 6.80935 14.4034 7.04255C14.1292 7.22713 13.8759 7.43011 13.6462 7.65164C13.3654 7.3656 13.0586 7.08863 12.7281 6.82185L12.1 6.31482L11.4719 6.82185C11.1025 7.12004 10.7626 7.43089 10.4557 7.753C10.2338 7.52649 9.9879 7.31852 9.7209 7.12878C9.64083 6.87183 9.60001 6.59077 9.60001 6.29041C9.60001 5.54696 9.83606 4.78876 10.3024 4.0365C10.717 3.36651 11.3044 2.71413 12.05 2.09998Z" fill="#696F88"/>
</svg>
