<svg xmlns="http://www.w3.org/2000/svg" width="24" height="24" viewBox="0 0 17.9361 20.0002" fill="none">
<path id="vector" fill-rule="evenodd" clip-rule="evenodd" d="M0.447144 0.54219C0.69221 0.0665794 1.26587 -0.129353 1.74783 0.0888699L1.79412 0.111233L1.89041 0.161819C2.61576 0.550232 3.21132 1.0389 3.60964 1.59405C4.01261 1.46673 4.43381 1.38692 4.86541 1.35674C6.72023 1.22706 8.4027 1.99489 9.29539 3.17471L9.33718 3.23125L9.34128 3.23682L10.5625 4.92823C10.7851 5.23659 10.6666 5.66447 10.3332 5.82149C10.3334 5.82181 10.3336 5.82214 10.3339 5.82246C10.4293 5.95644 10.5162 6.07329 10.5792 6.15645C10.6105 6.19789 10.6357 6.23071 10.6526 6.25264C10.6611 6.2636 10.6676 6.27181 10.6717 6.27705C10.6737 6.27964 10.6751 6.28153 10.676 6.28262C10.6764 6.28316 10.6768 6.28369 10.6768 6.28369L10.6767 6.2836L10.6877 6.29746L10.6982 6.31182C11.1079 6.87224 11.4463 7.21018 11.7913 7.47295C12.1048 7.71171 12.4465 7.90693 12.9189 8.15537L13.1298 8.26543L13.1299 8.26553L13.2573 8.33213C14.5224 8.99888 15.4962 9.66385 16.2534 10.419L16.3284 10.4948L16.3288 10.4953L16.4247 10.5955C17.4013 11.6357 17.9361 12.8142 17.9361 14.1624C17.9361 15.6809 17.2877 17.1638 16.1869 18.2516L16.1849 18.2534L16.183 18.2554C15.0367 19.3758 13.5208 20.0002 11.9128 20.0002C10.4854 20.0002 9.09307 19.5266 7.7821 18.6537C6.59821 17.8666 5.46721 16.7497 4.41492 15.3629L4.41433 15.3621C3.42315 14.0533 2.5084 12.4902 1.69138 10.7261L1.68347 10.709L1.62976 10.7592C1.28505 11.0808 0.721031 10.8975 0.631324 10.4347L0.102906 7.70791C-0.184655 6.17763 0.125727 4.60495 1.09363 3.3502V3.35C1.31538 3.06213 1.56274 2.80339 1.83123 2.575C1.64299 2.37376 1.35933 2.14635 0.949878 1.92686L0.878101 1.88916L0.832886 1.86436C0.375524 1.59854 0.202137 1.01776 0.447144 0.54219ZM7.90378 6.63438C7.70942 6.69904 7.56148 6.85841 7.5114 7.05703L7.06765 8.817C6.98031 9.16344 6.61139 9.35724 6.27654 9.23262L4.47185 8.56094C4.25889 8.4817 4.01944 8.52957 3.8533 8.68457L3.25105 9.24639L3.51648 9.90752C4.2826 11.5583 5.12337 12.9854 6.00818 14.1539L6.09763 14.2708C6.99292 15.4308 7.90559 16.3159 8.80056 16.9282L8.88992 16.9885L8.8906 16.989L8.98816 17.0528C9.99564 17.7021 10.9756 18.0002 11.9128 18.0002C12.9933 18.0002 14.0084 17.5838 14.7842 16.8259C15.5248 16.0924 15.9361 15.1148 15.9361 14.1624C15.9361 13.3838 15.6393 12.6533 14.8965 11.8911C14.3076 11.2877 13.4741 10.6977 12.2083 10.0405C11.63 9.74042 11.0917 9.4541 10.5796 9.06407C10.0585 8.66726 9.59303 8.18627 9.09626 7.50928C9.09585 7.50875 9.09544 7.50819 9.095 7.50762C9.08915 7.50013 9.08087 7.48951 9.07048 7.47608C9.04973 7.44924 9.02039 7.41097 8.98445 7.36348C8.91273 7.26871 8.81379 7.13587 8.70466 6.98262C8.60184 6.83823 8.48199 6.66458 8.36443 6.48106L7.90378 6.63438ZM7.7197 4.40752C7.29812 3.82789 6.31746 3.27968 5.06472 3.34815L5.00486 3.35186C4.05892 3.41801 3.23332 3.84971 2.6781 4.57051C2.09138 5.3304 1.87562 6.31187 2.06853 7.33848C2.08825 7.44022 2.21218 7.48054 2.28796 7.40987L3.39265 6.3792C3.5588 6.22418 3.79824 6.17631 4.01121 6.25557L4.88279 6.57998C5.21762 6.7046 5.58654 6.51078 5.6739 6.16436L5.84001 5.50528C5.8901 5.30666 6.03813 5.14728 6.2325 5.08262L7.65457 4.60957C7.73891 4.58151 7.77176 4.47958 7.7197 4.40752Z" fill="var(--fill-0, #696F88)"/>
</svg>