<svg width="24" height="24" viewBox="0 0 24 24" fill="none" xmlns="http://www.w3.org/2000/svg">
<path fill-rule="evenodd" clip-rule="evenodd" d="M3.82446 2.58913C4.06953 2.11352 4.64319 1.91758 5.12515 2.13581L5.17144 2.15817L5.26772 2.20876C5.99308 2.59717 6.58864 3.08584 6.98696 3.64098C7.38993 3.51367 7.81112 3.43386 8.24272 3.40368C10.0976 3.274 11.78 4.04182 12.6727 5.22165L12.7145 5.27819L12.7186 5.28376L13.9398 6.97516C14.1624 7.28352 14.0439 7.71141 13.7105 7.86842C13.7107 7.86875 13.711 7.86908 13.7112 7.8694C13.8066 8.00337 13.8936 8.12023 13.9565 8.20338C13.9879 8.24483 14.013 8.27765 14.0299 8.29958C14.0384 8.31053 14.0449 8.31875 14.049 8.32399C14.051 8.32658 14.0524 8.32847 14.0533 8.32956C14.0537 8.3301 14.0542 8.33063 14.0542 8.33063L14.0541 8.33053L14.065 8.3444L14.0755 8.35876C14.4852 8.91918 14.8236 9.25712 15.1686 9.51989C15.4821 9.75864 15.8239 9.95387 16.2962 10.2023L16.5071 10.3124L16.5072 10.3125L16.6346 10.3791C17.8997 11.0458 18.8736 11.7108 19.6307 12.466L19.7057 12.5418L19.7061 12.5423L19.802 12.6424C20.7787 13.6826 21.3134 14.8612 21.3134 16.2093C21.3134 17.7278 20.665 19.2107 19.5642 20.2985L19.5623 20.3004L19.5603 20.3023C18.414 21.4227 16.8981 22.0471 15.2901 22.0471C13.8627 22.0471 12.4704 21.5736 11.1594 20.7007C9.97553 19.9135 8.84453 18.7967 7.79224 17.4098L7.79165 17.409C6.80047 16.1002 5.88572 14.5372 5.0687 12.773L5.06079 12.7559L5.00708 12.8061C4.66237 13.1277 4.09835 12.9445 4.00864 12.4816L3.48023 9.75485C3.19266 8.22456 3.50305 6.65189 4.47095 5.39713V5.39694C4.6927 5.10906 4.94006 4.85033 5.20855 4.62194C5.02031 4.42069 4.73665 4.19329 4.3272 3.97379L4.25542 3.9361L4.21021 3.91129C3.75284 3.64547 3.57946 3.0647 3.82446 2.58913ZM11.2811 8.68131C11.0867 8.74597 10.9388 8.90534 10.8887 9.10397L10.445 10.8639C10.3576 11.2104 9.9887 11.4042 9.65386 11.2796L7.84917 10.6079C7.63621 10.5286 7.39676 10.5765 7.23062 10.7315L6.62837 11.2933L6.8938 11.9545C7.65992 13.6053 8.50069 15.0324 9.3855 16.2008L9.47495 16.3177C10.3702 17.4777 11.2829 18.3629 12.1779 18.9752L12.2672 19.0354L12.2679 19.0359L12.3655 19.0998C13.373 19.7491 14.3529 20.0471 15.2901 20.0471C16.3706 20.0471 17.3857 19.6307 18.1615 18.8728C18.9021 18.1393 19.3134 17.1617 19.3134 16.2093C19.3134 15.4307 19.0166 14.7003 18.2738 13.9381C17.6849 13.3346 16.8514 12.7447 15.5856 12.0875C15.0074 11.7874 14.469 11.501 13.9569 11.111C13.4359 10.7142 12.9704 10.2332 12.4736 9.55622C12.4732 9.55569 12.4728 9.55512 12.4723 9.55456C12.4665 9.54707 12.4582 9.53644 12.4478 9.52301C12.4271 9.49618 12.3977 9.4579 12.3618 9.41042C12.29 9.31565 12.1911 9.1828 12.082 9.02956C11.9792 8.88517 11.8593 8.71152 11.7417 8.52799L11.2811 8.68131ZM11.097 6.45446C10.6754 5.87483 9.69478 5.32662 8.44204 5.39508L8.38218 5.39879C7.43624 5.46495 6.61064 5.89664 6.05542 6.61745C5.4687 7.37733 5.25294 8.3588 5.44585 9.38542C5.46557 9.48715 5.5895 9.52748 5.66528 9.4568L6.76997 8.42614C6.93612 8.27112 7.17556 8.22324 7.38853 8.30251L8.26011 8.62692C8.59494 8.75153 8.96386 8.55772 9.05122 8.21129L9.21733 7.55221C9.26742 7.35359 9.41545 7.19421 9.60981 7.12956L11.0319 6.65651C11.1162 6.62845 11.1491 6.52651 11.097 6.45446Z" fill="#696F88"/>
</svg>
