<svg width="24" height="24" viewBox="0 0 24 24" fill="none" xmlns="http://www.w3.org/2000/svg">
<path fill-rule="evenodd" clip-rule="evenodd" d="M12.031 2C12.8081 2.00012 13.628 2.44535 14.1361 2.85817L14.1535 2.87176L14.1768 2.87758L14.3201 2.91739C15.0412 3.1506 15.8215 3.8955 16.5366 5.01427C17.1274 5.94131 17.6265 7.05529 17.9116 8.06931L18.0201 8.49743L18.021 8.49937L18.0239 8.51684L18.0346 8.52946C18.3735 8.92143 18.6134 9.60221 18.7695 10.371C18.9262 11.1426 19 12.0133 19 12.7941C19 14.8316 18.3519 16.0338 17.4759 17.3412L17.0876 17.9101C16.3873 18.9469 16.0659 19.4383 15.6544 20.1342L15.6525 20.139L15.6486 20.1497L15.6467 20.1487C15.2707 20.7861 14.9383 21.3537 14.2852 21.6855C13.8143 21.9289 13.2825 22 12.1385 22C10.9063 22 10.3641 21.915 9.94232 21.6369C9.68469 21.4678 9.43669 21.2117 9.19187 20.9108C8.94677 20.6095 8.70135 20.26 8.45013 19.9031C8.16455 19.4967 7.87118 19.0807 7.56315 18.7129C6.83647 17.8516 6.30657 17.1004 5.91216 16.3704L5.75142 16.0588C5.24781 15.0532 5.00008 14.079 5 13.0756C5 11.7806 5.20879 10.2711 5.64878 8.90321C6.08843 7.53646 6.76112 6.30281 7.69194 5.56761L7.70549 5.55597L7.71227 5.54335L7.71324 5.5414C8.17669 4.68431 8.86292 3.80073 9.62761 3.13096C10.3906 2.46269 11.2409 2 12.031 2ZM16.8232 11.6593L16.8222 11.6583L16.1628 12.4271C15.7608 12.8918 15.3074 13.4201 15.1451 13.6144C14.2737 14.6678 13.8301 15.3305 13.4806 16.484L13.4767 16.5005V16.5102C13.5307 17.6211 13.4389 18.6047 13.1814 19.6332L13.0603 20.0769L13.0361 20.1604L13.1368 20.174C13.1598 20.1769 13.1743 20.1788 13.191 20.1788C13.319 20.1787 13.463 20.125 13.6587 19.908C13.8562 19.689 14.1005 19.3103 14.4266 18.6731C14.9592 17.6349 15.3815 17.0203 15.7532 16.4772C15.9437 16.1986 16.1233 15.9388 16.2877 15.6628L16.431 15.4084C16.7452 14.8234 16.9221 14.2941 17.0062 13.7493C17.1025 13.1259 17.0773 12.4789 16.9946 11.6991L16.9714 11.4835L16.8232 11.6593ZM8.47821 7.40433C7.95962 8.05955 7.58046 9.00593 7.33172 10.0274C7.0832 11.048 6.96569 12.1385 6.96569 13.0756C6.96583 14.4733 7.60577 15.8311 9.12408 17.6266C9.57707 18.1602 10.0206 18.7881 10.4129 19.341C10.5783 19.577 10.7382 19.7968 10.8826 19.9973L10.9929 20.1487L11.0501 19.975C11.3766 18.9872 11.5352 18.0583 11.5352 17.1335C11.5351 15.5438 11.0577 14.1542 10.4507 12.6174L10.1834 11.9485L10.1495 11.8621C9.63688 10.6042 9.05581 9.09068 8.6467 7.43151L8.60119 7.24609L8.47821 7.40433ZM14.5961 5.74041C14.4202 6.63523 14.1328 7.51367 13.741 8.34696C13.6704 8.49726 13.5941 8.65594 13.5145 8.81973C13.1933 9.47857 12.8359 10.212 12.6459 10.9758C12.4562 11.7383 12.4345 12.5267 12.7785 13.2979L12.8463 13.4484L12.9461 13.3125L13.2608 12.9048C13.6177 12.4629 14.0725 11.9474 14.3734 11.6059L14.7161 11.2117L14.7171 11.2108C15.4153 10.4224 15.8628 9.81388 16.1696 9.24104L16.1802 9.21872L16.1764 9.19542C15.9692 8.15421 15.3793 6.68582 14.7752 5.71226L14.6426 5.50063L14.5961 5.74041ZM11.9758 3.79109C11.8816 3.79109 11.7615 3.82692 11.6204 3.90176C11.48 3.97629 11.3225 4.08709 11.1547 4.22891C10.8191 4.51249 10.4453 4.91865 10.0837 5.40549L10.0827 5.40452L10.0643 5.42976L10.0905 5.52005C10.4585 6.86855 10.6455 7.54457 11.1421 9.02844L11.2244 9.27502L11.3222 9.0333C11.4892 8.61276 11.6925 8.22304 11.8886 7.84798C12.1342 7.37767 12.3837 6.89762 12.5723 6.34909C12.8371 5.56541 12.9102 4.96702 12.9838 4.38326L12.9896 4.32793L12.9635 4.30172C12.8385 4.17789 12.6718 4.04832 12.4948 3.95127C12.3165 3.85347 12.1334 3.79118 11.9758 3.79109Z" fill="#696F88"/>
</svg>
