<svg width="24" height="24" viewBox="0 0 24 24" fill="none" xmlns="http://www.w3.org/2000/svg">
<path fill-rule="evenodd" clip-rule="evenodd" d="M7.97217 1.81451C9.11787 1.7904 10.7364 1.92348 11.8176 2.99576L11.8235 3.00162C12.0086 3.18819 12.1654 3.39088 12.2985 3.60425C13.377 2.63247 14.9225 2.50941 16.0279 2.53267C16.547 2.54362 16.9683 2.94911 17.0043 3.46158L17.0066 3.51148C17.0307 4.65718 16.8977 6.27557 15.8254 7.35679C15.8235 7.35874 15.8215 7.36072 15.8195 7.36265L15.7685 7.41216C14.9882 8.1536 13.9446 8.42665 13.0001 8.51226V9.11441C13.9821 8.58887 15.1453 8.5141 16.0279 8.53267C16.547 8.54362 16.9683 8.94911 17.0043 9.46158L17.0066 9.51148C17.0307 10.6572 16.8977 12.2756 15.8254 13.3568C15.8235 13.3587 15.8215 13.3607 15.8195 13.3627L15.7685 13.4122C14.9882 14.1536 13.9446 14.4266 13.0001 14.5123V15.1144C13.9821 14.5889 15.1453 14.5141 16.0279 14.5327C16.547 14.5436 16.9683 14.9491 17.0043 15.4616L17.0066 15.5115C17.0307 16.6572 16.8977 18.2756 15.8254 19.3568C15.8235 19.3587 15.8215 19.3607 15.8195 19.3627L15.7685 19.4122C14.9882 20.1536 13.9446 20.4266 13.0001 20.5123V21.3501C13.0001 21.9023 12.5524 22.35 12.0001 22.3501C11.4478 22.3501 11.0001 21.9023 11.0001 21.3501V19.7941C10.0556 19.7085 9.01192 19.4355 8.23164 18.6941L8.18057 18.6446C8.17861 18.6426 8.17665 18.6406 8.17471 18.6386C7.10244 17.5574 6.96935 15.939 6.99346 14.7933L6.9958 14.7434C7.03186 14.231 7.45313 13.8255 7.97217 13.8145C8.85482 13.7959 10.0181 13.8707 11.0001 14.3962V13.7941C10.0556 13.7085 9.01192 13.4355 8.23164 12.6941L8.18057 12.6446C8.17861 12.6426 8.17665 12.6406 8.17471 12.6386C7.10244 11.5574 6.96935 9.93901 6.99346 8.79332L6.9958 8.74341C7.03186 8.23096 7.45313 7.82546 7.97217 7.81451C8.85482 7.79593 10.0181 7.87067 11.0001 8.39625V7.7941C10.0556 7.70849 9.01192 7.43554 8.23164 6.6941L8.18057 6.64458C8.17861 6.64264 8.17665 6.64058 8.17471 6.63863C7.10244 5.5574 6.96935 3.93901 6.99346 2.79331L6.9958 2.74341C7.03186 2.23096 7.45313 1.82546 7.97217 1.81451ZM14.9577 16.5817C14.3611 16.6618 13.891 16.8384 13.5939 17.1311C13.3012 17.4282 13.1246 17.8981 13.0445 18.4948C13.6412 18.4147 14.1111 18.2382 14.4082 17.9455C14.7009 17.6484 14.8776 17.1784 14.9577 16.5817ZM9.04248 15.8635C9.12258 16.4602 9.29919 16.9302 9.5919 17.2273C9.88896 17.52 10.3589 17.6966 10.9556 17.7767C10.8755 17.1801 10.6989 16.7101 10.4062 16.413C10.1091 16.1203 9.63915 15.9436 9.04248 15.8635ZM14.9577 10.5817C14.3611 10.6618 13.891 10.8384 13.5939 11.1311C13.3012 11.4282 13.1246 11.8981 13.0445 12.4948C13.6412 12.4147 14.1111 12.2382 14.4082 11.9455C14.7009 11.6484 14.8776 11.1784 14.9577 10.5817ZM9.04248 9.86353C9.12258 10.4602 9.29919 10.9302 9.5919 11.2273C9.88896 11.52 10.3589 11.6966 10.9556 11.7767C10.8755 11.1801 10.6989 10.7101 10.4062 10.413C10.1091 10.1203 9.63915 9.94362 9.04248 9.86353ZM14.9577 4.58169C14.3611 4.66178 13.891 4.83841 13.5939 5.13111C13.3012 5.42817 13.1246 5.89815 13.0445 6.49478C13.6412 6.41468 14.1111 6.23816 14.4082 5.94546C14.7009 5.64838 14.8776 5.17836 14.9577 4.58169ZM9.04248 3.86353C9.12258 4.46019 9.29919 4.93022 9.5919 5.2273C9.88896 5.52 10.3589 5.69661 10.9556 5.77671C10.8755 5.18007 10.6989 4.71011 10.4062 4.41304C10.1091 4.12033 9.63915 3.94362 9.04248 3.86353Z" fill="#696F88"/>
</svg>
