<svg xmlns="http://www.w3.org/2000/svg" width="24" height="24" viewBox="0 0 19.8348 20.1506" fill="none">
<path id="vector" fill-rule="evenodd" clip-rule="evenodd" d="M9.09559 0.210427C9.42794 -0.0478877 9.88513 -0.0696282 10.2395 0.152126L10.2735 0.174392C12.7329 1.85504 15.7138 4.81758 17.6554 7.62732C18.6197 9.02293 19.3912 10.4705 19.6654 11.7634C19.804 12.4166 19.8306 13.0995 19.6286 13.7372C19.4247 14.3808 19.0085 14.9092 18.3979 15.2729C18.5023 15.5805 18.5902 15.8644 18.6639 16.1254C18.8806 16.8937 18.9756 17.4634 19.0157 17.8497C19.0322 18.0084 19.0389 18.1362 19.0414 18.234C19.3311 18.5738 19.5755 18.9522 19.7639 19.3825L19.7963 19.4583L19.8056 19.4822C19.8948 19.7312 19.774 20.0092 19.527 20.1121C19.4361 20.15 19.3404 20.1589 19.2501 20.1432C19.2484 20.1429 19.2467 20.1428 19.245 20.1425C19.2258 20.1389 19.2069 20.1341 19.1883 20.1284C19.1552 20.1182 19.1232 20.1048 19.0929 20.0881C19.0905 20.0867 19.0881 20.0853 19.0857 20.084C19.0006 20.0352 18.929 19.9612 18.8839 19.8669L18.8734 19.8433L18.8584 19.8092C18.7782 19.6332 18.619 19.3845 18.4555 19.1522C18.3724 19.0342 18.2948 18.9296 18.238 18.8546C18.2097 18.8172 18.1866 18.7872 18.1709 18.767C18.1631 18.7569 18.1571 18.7491 18.1531 18.7441C18.1512 18.7416 18.1497 18.7397 18.1488 18.7386C18.1484 18.738 18.1479 18.7377 18.1477 18.7375L18.1476 18.7373C18.1432 18.7317 18.1389 18.726 18.1348 18.7202C17.5156 18.0669 16.6329 17.5455 15.5039 16.9884C15.284 16.8798 15.0553 16.7704 14.8191 16.6585C14.7934 16.7006 14.7671 16.7428 14.7398 16.7847C14.3355 17.4062 13.7664 17.8095 13.0885 17.9782C12.4393 18.1398 11.7594 18.0702 11.1161 17.8908C9.84298 17.5358 8.44687 16.675 7.11463 15.6248C4.4325 13.5104 1.66332 10.3491 0.140611 7.78894L0.120493 7.75359C-0.0785479 7.38593 -0.028142 6.93106 0.250571 6.6156C0.538299 6.28998 1.00347 6.18746 1.40145 6.36189C3.88681 7.4513 6.05317 8.34132 7.91405 9.13367C9.75552 9.91775 11.3091 10.6108 12.4905 11.2828C13.6372 11.9351 14.617 12.665 15.0901 13.6033C15.4515 14.32 15.4702 15.0447 15.2433 15.7523C15.4827 15.8659 15.7173 15.9784 15.9465 16.0915C16.6527 16.44 17.3176 16.798 17.9025 17.2132C17.8539 16.9783 17.7888 16.7066 17.7015 16.3969C17.6401 16.1793 17.5678 15.9429 17.4827 15.6874C17.0704 15.8186 16.6566 15.872 16.2471 15.8301C16.4202 15.1731 16.4362 14.4781 16.219 13.7722C16.3532 13.8361 16.5186 13.8708 16.757 13.8167C16.2714 12.7043 15.6034 11.3741 14.6845 9.81072L14.5087 9.51404L14.4961 9.49148C14.3723 9.2578 14.4521 8.96549 14.6817 8.8284C14.9114 8.69131 15.2067 8.7598 15.3536 8.97976L15.3674 9.00144L15.5465 9.30398C16.4578 10.8544 17.1328 12.189 17.6322 13.3219C17.672 13.2632 17.7007 13.2004 17.7221 13.1331C17.7854 12.9331 17.8037 12.6248 17.709 12.1783C17.5166 11.2713 16.9214 10.0834 16.0099 8.76433C14.8845 7.13568 13.373 5.44337 11.851 4.02732C12.2744 5.23646 12.6586 6.34858 13.0127 7.35076C13.6251 9.08405 14.1457 10.4804 14.643 11.5514C14.1606 11.1458 13.6223 10.797 13.0882 10.4883L12.9784 10.4254C12.6062 10.2136 12.2007 10.0012 11.7658 9.78611C11.559 9.23023 11.3469 8.63958 11.1269 8.01707C10.4531 6.11005 9.70101 3.89198 8.77001 1.34304C8.62096 0.934896 8.75254 0.477106 9.09559 0.210427ZM3.88661 9.60554C5.20418 11.2137 6.79822 12.8285 8.35292 14.0541C9.61208 15.0467 10.7602 15.7153 11.6533 15.9643C12.0931 16.0869 12.4018 16.088 12.6054 16.0374C12.7503 16.0013 12.8767 15.9318 12.9928 15.7906C11.9383 15.2749 10.8005 14.6733 9.63827 13.9045L9.42831 13.7639L9.40731 13.749C9.19612 13.5898 9.14473 13.2911 9.29471 13.0696C9.44475 12.8481 9.74124 12.7851 9.96747 12.9221L9.98905 12.9359L10.192 13.0718C11.2992 13.8043 12.3738 14.3741 13.3902 14.8717C13.3948 14.7221 13.3559 14.6059 13.3044 14.5038C13.1174 14.133 12.6049 13.6487 11.5016 13.0212C10.4331 12.4134 8.9793 11.761 7.13055 10.9738C6.1526 10.5574 5.06677 10.1042 3.88661 9.60554Z" fill="var(--fill-0, #696F88)"/>
</svg>