<svg xmlns="http://www.w3.org/2000/svg" width="24" height="24" viewBox="0 0 20.4781 18.7998" fill="none">
<path id="vector" fill-rule="evenodd" clip-rule="evenodd" d="M11.3241 0C12.0231 0 12.6137 0.515207 12.7108 1.2041L13.4627 7.62598C13.5661 7.49534 13.6693 7.36158 13.7694 7.22363C14.6538 6.00483 15.2752 4.70256 15.5477 4.08203L15.5623 4.0498C15.874 3.38576 16.6628 3.04678 17.3739 3.33691L17.408 3.35156L19.6375 4.3291C20.3766 4.65317 20.6894 5.53002 20.327 6.24707L20.3094 6.28125C19.9823 6.88728 19.321 8.14731 18.7078 9.52051C18.1001 10.8815 17.5904 12.2461 17.4461 13.1875L17.4324 13.2773C17.3619 13.8129 17.3456 15.2528 16.5028 16.4609C15.6098 17.7407 13.9669 18.6137 11.1395 18.7734L11.0037 18.7803H11.0018C10.7221 18.7932 10.4303 18.7998 10.1258 18.7998C6.86281 18.7998 4.89039 18.1118 3.81038 16.959C2.69283 15.7658 2.77187 14.345 2.93538 13.5312L2.94905 13.4707C2.96416 13.4101 2.98352 13.3506 3.00667 13.293L3.0262 13.2432C2.88243 12.2931 2.37466 10.9148 1.76643 9.54297C1.15339 8.16029 0.492387 6.89269 0.166825 6.28516L0.149247 6.25098C-0.20393 5.54726 0.0919016 4.69024 0.802567 4.35352L0.837723 4.33789L3.06331 3.35449L3.09749 3.33984C3.81028 3.04673 4.60271 3.38721 4.9139 4.05469L4.92854 4.08691C5.20081 4.71159 5.82146 6.02256 6.70491 7.24902C6.80559 7.3888 6.90949 7.52397 7.0135 7.65625L7.76936 1.2041C7.86646 0.515201 8.45699 0 9.15608 0H11.3241ZM17.1356 5.41602C16.7726 6.1793 16.1789 7.30912 15.3885 8.39844C14.4264 9.72421 13.0417 11.1761 11.2782 11.6426L11.1942 11.6641C10.851 11.7481 10.494 11.7949 10.1258 11.7949C9.37176 11.7949 8.17057 11.927 7.07698 12.3125C5.98225 12.6985 5.20118 13.2622 4.8846 13.9863C4.78767 14.5188 4.8165 15.1083 5.26936 15.5918C5.77712 16.1339 7.04701 16.7998 10.1258 16.7998C10.3325 16.7998 10.531 16.7965 10.7215 16.79L10.91 16.7822C13.4729 16.6594 14.4423 15.9196 14.8631 15.3164C15.348 14.6212 15.3369 13.8741 15.45 13.0156L15.4666 12.8965C15.6556 11.6528 16.2736 10.0669 16.8817 8.70508C17.3674 7.61733 17.8789 6.60313 18.2459 5.90234L17.1356 5.41602ZM2.22932 5.90918C2.59551 6.6133 3.10815 7.63537 3.59456 8.73242C3.96156 9.56019 4.33085 10.4707 4.60823 11.3369C5.17652 10.9337 5.80846 10.6395 6.41194 10.4268C6.52903 10.3855 6.6475 10.3491 6.76546 10.3125C6.10914 9.73482 5.54563 9.06179 5.08186 8.41797C4.29311 7.32295 3.70001 6.18743 3.33772 5.41992L2.22932 5.90918ZM8.83382 9.31641C8.83203 9.33163 8.82747 9.34635 8.82503 9.36133C9.113 9.53676 9.40523 9.66918 9.70003 9.74805L9.74983 9.76172C9.79142 9.77198 9.83196 9.7848 9.87093 9.7998C9.95938 9.79733 10.0446 9.79492 10.1258 9.79492C10.3251 9.7949 10.5226 9.7697 10.7186 9.72168L10.7694 9.70898C11.0656 9.63029 11.3582 9.4972 11.6473 9.32227V9.31641L10.7908 2H9.69026L8.83382 9.31641Z" fill="var(--fill-0, #696F88)"/>
</svg>