<svg width="24" height="24" viewBox="0 0 24 24" fill="none" xmlns="http://www.w3.org/2000/svg">
<path d="M4.90002 14.3546C4.90002 15.9248 5.48536 17.3625 6.62063 18.4134C7.75671 19.4651 9.5223 20.2 12 20.2C14.4777 20.2 16.2433 19.4651 17.3794 18.4134C18.5147 17.3625 19.1 15.9248 19.1 14.3546C19.1 11.101 17.0712 9.66512 14.9522 8.17495C13.7507 7.33005 12.7855 6.06391 12.1412 5.07192C12.0926 4.99702 12.0456 4.92313 12 4.85063C11.9545 4.92313 11.9075 4.99702 11.8588 5.07192C11.2145 6.06391 10.2493 7.33005 9.04788 8.17495C6.92883 9.66512 4.90003 11.101 4.90002 14.3546ZM12.9064 2.37759L12.9063 2.3772C12.9063 2.37723 12.9063 2.37746 12.9064 2.37759ZM11.0936 2.37769L11.0937 2.37749C11.0937 2.37736 11.0938 2.37723 11.0938 2.3772L11.0937 2.37749V2.37778C11.0936 2.37773 11.0936 2.37769 11.0936 2.37769ZM2.90002 14.3546C2.90003 9.96439 5.83579 7.98869 7.89739 6.53892C8.78623 5.91385 9.58473 4.90152 10.1816 3.98257C10.4734 3.53321 10.7042 3.12639 10.8614 2.83306C10.9398 2.68673 10.9994 2.56949 11.0387 2.49048C11.0583 2.451 11.0729 2.42114 11.0821 2.402C11.0867 2.39243 11.0899 2.38554 11.0918 2.38149C11.0926 2.37988 11.0933 2.37878 11.0936 2.37808L11.0935 2.37798C11.2576 2.02547 11.6112 1.80005 12 1.80005C12.3889 1.80005 12.7424 2.02547 12.9066 2.37798C12.9069 2.37868 12.9075 2.37991 12.9082 2.38149C12.9101 2.38554 12.9134 2.39243 12.918 2.402C12.9272 2.42114 12.9417 2.451 12.9614 2.49048C13.0006 2.56949 13.0603 2.68673 13.1387 2.83306C13.2959 3.12639 13.5266 3.53321 13.8185 3.98257C14.4153 4.90152 15.2138 5.91385 16.1027 6.53892C18.1643 7.98869 21.1 9.96439 21.1 14.3546C21.1 16.4378 20.3136 18.4227 18.738 19.8812C17.1632 21.339 14.8788 22.2 12 22.2C9.12129 22.2 6.83684 21.339 5.26204 19.8812C3.68644 18.4227 2.90002 16.4378 2.90002 14.3546Z" fill="#696F88"/>
<path fill-rule="evenodd" clip-rule="evenodd" d="M12 7.72837C12.5687 8.39338 13.2304 9.04234 13.9743 9.56548C16.1422 11.09 17.4 12.0672 17.4 14.3546C17.4 15.4888 16.9856 16.4615 16.2245 17.166C15.4614 17.8724 14.1368 18.5001 12 18.5001C9.8632 18.5 8.53867 17.8724 7.77551 17.166C7.01447 16.4615 6.60002 15.4888 6.60002 14.3546C6.60003 12.1387 7.78044 11.1524 9.82512 9.70689L10.0257 9.56548C10.7696 9.04234 11.4314 8.39338 12 7.72837ZM11.1 16.5001C10.8239 16.5001 10.6 16.7239 10.6 17.0001C10.6 17.2762 10.8239 17.5001 11.1 17.5001C11.3762 17.5001 11.6 17.2762 11.6 17.0001C11.6 16.7239 11.3762 16.5001 11.1 16.5001ZM15 15.6001C14.7239 15.6001 14.5 15.8239 14.5 16.1001C14.5 16.3762 14.7239 16.6001 15 16.6001C15.2762 16.6001 15.5 16.3762 15.5 16.1001C15.5 15.8239 15.2762 15.6001 15 15.6001ZM8.80002 15.4001C8.52388 15.4001 8.30002 15.6239 8.30002 15.9001C8.30002 16.1762 8.52388 16.4001 8.80002 16.4001C9.07617 16.4001 9.30002 16.1762 9.30002 15.9001C9.30002 15.6239 9.07617 15.4001 8.80002 15.4001ZM10.3 14.6001C10.0239 14.6001 9.80002 14.8239 9.80002 15.1001C9.80002 15.3762 10.0239 15.6001 10.3 15.6001C10.5762 15.6001 10.8 15.3762 10.8 15.1001C10.8 14.8239 10.5762 14.6001 10.3 14.6001ZM13.2 14.6001C12.9239 14.6001 12.7 14.8239 12.7 15.1001C12.7 15.3762 12.9239 15.6001 13.2 15.6001C13.4762 15.6001 13.7 15.3762 13.7 15.1001C13.7 14.8239 13.4762 14.6001 13.2 14.6001ZM8.70002 13.3C8.42388 13.3 8.20002 13.5239 8.20002 13.8C8.20002 14.0762 8.42388 14.3 8.70002 14.3C8.97617 14.3 9.20002 14.0762 9.20002 13.8C9.20002 13.5239 8.97617 13.3 8.70002 13.3ZM11.6 12.8C11.3239 12.8 11.1 13.0239 11.1 13.3C11.1 13.5762 11.3239 13.8 11.6 13.8C11.8762 13.8 12.1 13.5762 12.1 13.3C12.1 13.0239 11.8762 12.8 11.6 12.8ZM15.3 12.8C15.0239 12.8 14.8 13.0239 14.8 13.3C14.8 13.5762 15.0239 13.8 15.3 13.8C15.5762 13.8 15.8 13.5762 15.8 13.3C15.8 13.0239 15.5762 12.8 15.3 12.8ZM9.50002 11.5C9.22388 11.5 9.00002 11.7239 9.00002 12C9.00002 12.2762 9.22388 12.5 9.50002 12.5C9.77617 12.5 10 12.2762 10 12C10 11.7239 9.77617 11.5 9.50002 11.5ZM13.7 10.8C13.4239 10.8 13.2 11.0239 13.2 11.3C13.2 11.5762 13.4239 11.8 13.7 11.8C13.9762 11.8 14.2 11.5762 14.2 11.3C14.2 11.0239 13.9762 10.8 13.7 10.8ZM11 10.3C10.7239 10.3 10.5 10.5239 10.5 10.8C10.5 11.0762 10.7239 11.3 11 11.3C11.2762 11.3 11.5 11.0762 11.5 10.8C11.5 10.5239 11.2762 10.3 11 10.3Z" fill="#696F88"/>
</svg>
