<svg width="24" height="24" viewBox="0 0 24 24" fill="none" xmlns="http://www.w3.org/2000/svg">
<path fill-rule="evenodd" clip-rule="evenodd" d="M12.0666 2.82372C13.4463 2.03346 14.8435 1.86612 16.055 1.9871C17.6633 2.14772 18.9259 2.81037 19.4259 3.10742L19.4663 3.13242C19.873 3.39717 20.0131 3.85664 19.9455 4.24052C19.8799 4.61273 19.6145 4.96737 19.1941 5.10175L19.1529 5.11406C19.1388 5.11797 19.1244 5.1223 19.1094 5.12665C19.7451 5.26456 20.3355 5.51669 20.8248 5.91318L20.8488 5.9332C21.3377 6.35222 21.3534 7.08968 20.9119 7.53398L20.8901 7.55527C20.6394 7.79404 20.2961 8.05067 20.089 8.21972C19.8459 8.4182 19.6401 8.60773 19.4671 8.83476C19.1509 9.24955 18.8424 9.92217 18.9201 11.2686L18.9252 11.3622C19.0221 13.3214 18.5887 14.8483 17.6996 15.8866C16.9963 16.7079 16.0802 17.1385 15.1289 17.2601C15.3813 17.678 15.5208 18.1533 15.6071 18.5524C15.6619 18.8062 15.5136 19.0581 15.2685 19.1351L15.2445 19.1419C14.5845 19.3139 13.668 19.4498 12.9252 19.0186L12.89 18.9977C12.8888 18.9969 12.8876 18.9962 12.8864 18.9955C12.8125 18.9496 12.7431 18.8994 12.6777 18.8456C12.5694 20.4131 12.4572 21.8414 12.2546 23.5102C12.2213 23.7844 11.972 23.9796 11.6979 23.9463C11.4238 23.913 11.2285 23.6639 11.2618 23.3897C11.3311 22.8186 11.3892 22.2767 11.4407 21.7476L11.4263 21.7322L10.6263 20.8322L10.6097 20.8125C10.4443 20.6062 10.4679 20.304 10.6678 20.1263C10.8678 19.9485 11.1707 19.9605 11.3562 20.149L11.3738 20.1678L11.5617 20.3792C11.6033 19.8602 11.6412 19.3394 11.6785 18.8003C11.5979 18.8714 11.5108 18.937 11.4166 18.9955C11.4154 18.9962 11.4142 18.9969 11.4131 18.9977L11.3778 19.0186C10.635 19.4498 9.7185 19.3139 9.05856 19.1419L9.03444 19.1351C8.78938 19.0581 8.64102 18.8062 8.69586 18.5524C8.76931 18.2127 8.88123 17.8176 9.06862 17.4499C8.0485 17.2637 7.12866 16.7433 6.47194 15.8264C5.71363 14.7675 5.39425 13.3035 5.50368 11.5092C5.65109 9.09166 4.09024 7.91769 3.60368 7.61034L3.57008 7.58827C3.22925 7.35575 3.06932 6.97356 3.08873 6.61376C3.10882 6.24198 3.32836 5.84288 3.75495 5.66279L3.79694 5.64609C4.14803 5.51386 4.88845 5.26718 5.84137 5.13808C5.64804 5.0272 5.47422 4.94672 5.34235 4.89208L5.30621 4.87626C4.569 4.53645 4.34172 3.35483 5.25319 2.89482L5.29811 2.87314C5.83305 2.62701 7.20815 2.07374 8.8653 2.06142C9.87444 2.05393 10.9889 2.24913 12.0666 2.82372ZM11.4973 17.2354C11.0614 17.1731 10.6837 17.2022 10.4123 17.3667C10.1429 17.5348 9.94666 17.8588 9.80573 18.2761C10.2416 18.3384 10.6194 18.3094 10.8909 18.1448C11.1602 17.9767 11.3564 17.6526 11.4973 17.2354ZM13.8907 17.3667C13.6192 17.2022 13.2415 17.1731 12.8056 17.2354C12.9465 17.6526 13.1428 17.9767 13.4121 18.1448C13.6835 18.3094 14.0613 18.3384 14.4972 18.2761C14.3563 17.8588 14.16 17.5348 13.8907 17.3667ZM7.33356 7.06025C6.87506 7.04046 6.43956 7.07215 6.04996 7.12812C6.85099 8.06835 7.62769 9.53644 7.49996 11.6309C7.40713 13.1532 7.69882 14.1044 8.09801 14.6618C8.47678 15.1907 9.03215 15.4783 9.76842 15.5232C10.182 15.5485 10.5288 15.4815 10.8215 15.3491C10.4375 14.7712 10.1795 14.1066 10.0469 13.4147C9.75298 11.8807 10.0414 10.131 10.916 8.66161C9.79846 7.48876 8.49925 7.11058 7.33356 7.06025ZM18.4093 7.033C17.9065 6.96358 17.299 6.98088 16.6211 7.1162C15.3518 7.36958 14.0933 7.99271 13.2686 8.85009L13.1903 8.93378C12.1478 10.076 11.7555 11.7035 12.0112 13.0383C12.259 14.3313 13.0592 15.211 14.3799 15.2916C15.1062 15.3359 15.7357 15.1051 16.1804 14.5858C16.6242 14.0676 16.9966 13.1289 16.9311 11.5396L16.9234 11.3838C16.823 9.6442 17.2237 8.47883 17.8764 7.62245C18.0489 7.39622 18.2313 7.20192 18.4093 7.033ZM8.88014 4.06152C8.52788 4.06414 8.18945 4.09966 7.87575 4.1539C8.21323 4.45288 8.54636 4.81618 8.8317 5.25204C9.96382 5.5141 11.1411 6.06996 12.1949 7.10966C12.4597 6.87319 12.7437 6.65581 13.0419 6.4579C12.919 6.2424 12.7811 6.03938 12.6284 5.85273L12.5736 5.78681C11.421 4.41788 10.0733 4.05266 8.88014 4.06152ZM15.8563 3.97704C15.2361 3.91511 14.5505 3.95496 13.8413 4.20253C13.9285 4.29616 14.015 4.39342 14.1003 4.49462L14.1763 4.58622C14.4228 4.8874 14.64 5.21222 14.8285 5.55409C15.0182 5.48344 15.2092 5.4194 15.4006 5.362C15.776 4.83939 16.2215 4.43262 16.6651 4.11845C16.4115 4.05563 16.1402 4.0054 15.8563 3.97704Z" fill="#696F88"/>
</svg>
