<svg width="24" height="24" viewBox="0 0 24 24" fill="none" xmlns="http://www.w3.org/2000/svg">
<path d="M16.0691 2.0002C16.3456 1.99317 16.6127 2.10098 16.8068 2.29796L18.3926 3.90704C18.419 3.90597 18.4473 3.90495 18.4779 3.90391C18.6427 3.89832 18.856 3.89506 19.0667 3.91983C19.2629 3.9429 19.5598 4.00037 19.8236 4.19053C20.1404 4.41886 20.3219 4.7747 20.3219 5.18419C20.3219 5.76788 19.8978 6.12328 19.6818 6.26651C19.6218 6.30629 19.5566 6.34425 19.4874 6.37901C19.4489 6.51278 19.3946 6.64872 19.319 6.77676C19.2039 6.97174 19.0083 7.19844 18.697 7.31963C18.3761 7.4446 18.052 7.41097 17.776 7.30596C17.2214 7.09487 16.9876 6.60226 16.8969 6.26075C16.8264 5.99505 16.811 5.71951 16.8286 5.4754C16.8263 5.47167 16.8399 5.36459 16.874 5.21553L16.1717 4.50284C15.8211 4.9903 15.5084 5.51007 15.2298 6.05557L16.8862 7.56133C16.91 7.56218 16.9355 7.56321 16.963 7.56436C17.1108 7.57054 17.3017 7.58211 17.4885 7.61856C17.6625 7.65251 17.9242 7.7241 18.1473 7.91212C18.4152 8.13786 18.5534 8.46846 18.5257 8.83477C18.4861 9.35691 18.0826 9.646 17.8797 9.75948C17.8233 9.791 17.7624 9.82058 17.6981 9.84698C17.6546 9.96403 17.5968 10.0819 17.5205 10.1913C17.4043 10.3579 17.214 10.5475 16.9273 10.6348C16.6317 10.7248 16.344 10.6727 16.1043 10.5601C15.6225 10.3336 15.4468 9.87708 15.3888 9.56544C15.3461 9.3353 15.3483 9.10059 15.3762 8.89161L14.4049 8.0085C14.2523 8.44913 14.1159 8.89979 13.994 9.35782L15.3363 10.7001C15.388 10.6978 15.4409 10.6969 15.4939 10.6984C15.6434 10.7028 15.8711 10.7264 16.0827 10.8523C16.3367 11.0033 16.4973 11.2595 16.5246 11.5683C16.5634 12.0084 16.2673 12.3046 16.1139 12.427C16.0714 12.4609 16.0247 12.4939 15.9748 12.5247C15.9546 12.6281 15.9228 12.7343 15.8743 12.8358C15.8005 12.9905 15.6681 13.1744 15.4415 13.2865C15.2078 13.4021 14.9611 13.3983 14.7461 13.3375C14.3139 13.2152 14.1047 12.8594 14.0136 12.6079C13.9535 12.4418 13.923 12.2677 13.9133 12.1056L13.5 11.6923C13.452 11.986 13.4084 12.2808 13.3691 12.5761C12.927 15.9021 13.0333 19.1254 13.0333 21.2999C13.0333 21.8522 12.5856 22.2999 12.0333 22.2999C11.481 22.2999 11.0333 21.8522 11.0333 21.2999C11.0333 20.1846 11.0017 18.6988 11.0424 17.0256C11.029 16.9999 11.0138 16.9704 10.9967 16.9377C10.922 16.7949 10.8126 16.5872 10.6748 16.3297C10.402 15.8201 10.0184 15.1167 9.57234 14.335L9.43083 14.6181C9.43912 14.688 9.44329 14.7595 9.44206 14.8314C9.43772 15.0861 9.35936 15.4714 9.00769 15.7152C8.8327 15.8365 8.61156 15.9162 8.36521 15.8843C8.12632 15.8533 7.95016 15.7285 7.83581 15.6119C7.76074 15.5354 7.69922 15.4497 7.6491 15.3627C7.59461 15.3504 7.54232 15.3351 7.49343 15.3176C7.31743 15.2547 6.95904 15.0793 6.85798 14.6707C6.78708 14.384 6.85252 14.1035 7.03474 13.8888C7.18651 13.71 7.38447 13.6183 7.51785 13.5682C7.59765 13.5382 7.67954 13.5142 7.75652 13.4945L8.35828 12.2911C8.00836 11.728 7.65072 11.1768 7.30007 10.6732L6.95701 11.1324C7.00308 11.2791 7.0252 11.3892 7.02322 11.3929C7.05289 11.6052 7.05561 11.8469 7.00955 12.0832C6.95033 12.387 6.7749 12.8312 6.30261 13.0482C6.06764 13.1561 5.78633 13.2045 5.49851 13.1141C5.21941 13.0264 5.03524 12.8397 4.92322 12.6761C4.84965 12.5686 4.79431 12.453 4.75281 12.3384C4.69027 12.3121 4.631 12.2827 4.57624 12.2515C4.37912 12.139 3.9877 11.8532 3.95349 11.3432C3.9295 10.9853 4.06721 10.6637 4.33064 10.4456C4.55003 10.264 4.80613 10.1964 4.97624 10.1648C5.06088 10.149 5.14638 10.1385 5.2281 10.1313C5.25414 10.0795 5.28489 10.0292 5.32078 9.98116L6.50105 8.40137L6.51872 8.37842C6.70417 8.14463 6.98488 8.00548 7.28425 8.0001C7.59328 7.99457 7.88756 8.13225 8.08132 8.37305L8.18347 8.50147C9.23432 9.83608 10.3851 11.7276 11.2719 13.2781C11.3056 12.9577 11.3436 12.6355 11.3865 12.3125C11.8496 8.82847 12.9026 5.083 15.3475 2.33516L15.3829 2.29747C15.5641 2.11387 15.8099 2.0068 16.0691 2.0002Z" fill="#696F88"/>
</svg>
