<svg width="24" height="24" viewBox="0 0 24 24" fill="none" xmlns="http://www.w3.org/2000/svg">
<path d="M12.075 18C13.2486 18 14.2 18.9514 14.2 20.125C14.2 21.2986 13.2486 22.25 12.075 22.25C10.9014 22.25 9.94999 21.2986 9.94999 20.125C9.94999 18.9514 10.9014 18 12.075 18Z" fill="#696F88"/>
<path d="M9.64999 13.35C10.8236 13.35 11.775 14.3014 11.775 15.475C11.775 16.6486 10.8236 17.6 9.64999 17.6C8.4764 17.6 7.52499 16.6486 7.52499 15.475C7.52499 14.3014 8.4764 13.35 9.64999 13.35Z" fill="#696F88"/>
<path d="M14.5 13.35C15.6736 13.35 16.625 14.3014 16.625 15.475C16.625 16.6486 15.6736 17.6 14.5 17.6C13.3264 17.6 12.375 16.6486 12.375 15.475C12.375 14.3014 13.3264 13.35 14.5 13.35Z" fill="#696F88"/>
<path d="M7.22499 8.7C8.39859 8.7 9.34999 9.65139 9.34999 10.825C9.34999 11.9986 8.39859 12.95 7.22499 12.95C6.0514 12.95 5.09999 11.9986 5.09999 10.825C5.09999 9.65141 6.0514 8.70002 7.22499 8.7Z" fill="#696F88"/>
<path d="M12.075 8.7C13.2486 8.7 14.2 9.65139 14.2 10.825C14.2 11.9986 13.2486 12.95 12.075 12.95C10.9014 12.95 9.94999 11.9986 9.94999 10.825C9.94999 9.65141 10.9014 8.70002 12.075 8.7Z" fill="#696F88"/>
<path d="M16.925 8.7C18.0986 8.7 19.05 9.65139 19.05 10.825C19.05 11.9986 18.0986 12.95 16.925 12.95C15.7514 12.95 14.8 11.9986 14.8 10.825C14.8 9.65141 15.7514 8.70002 16.925 8.7Z" fill="#696F88"/>
<path fill-rule="evenodd" clip-rule="evenodd" d="M12 2C12.5523 2 13 2.44772 13 3V4.42773C13.3642 4.02162 13.8106 3.67033 14.3599 3.44541L14.3674 3.44238C15.7193 2.90151 17.2142 3.31331 18.2705 3.73369L18.3713 3.77441C18.8879 3.98558 19.1434 4.55954 18.9438 5.06055C18.5342 6.08905 17.8036 7.46815 16.413 8.0375C16.4105 8.03851 16.408 8.03954 16.4056 8.04053C15.01 8.59883 13.4621 8.14189 12.4016 7.7084L12.354 7.6876C12.1913 7.61166 12.0571 7.49862 11.9576 7.36377C11.8582 7.4986 11.724 7.61167 11.5613 7.6876L11.5136 7.7084C10.4531 8.14188 8.90529 8.59882 7.50975 8.04053C7.50729 8.03954 7.50478 8.0385 7.50233 8.0375C6.11166 7.46815 5.381 6.08905 4.97137 5.06055C4.77187 4.55956 5.02738 3.98559 5.54393 3.77441L5.64481 3.73369C6.70106 3.31331 8.19598 2.90151 9.54794 3.44238L9.55536 3.44541C10.1481 3.68807 10.6208 4.07781 11 4.5248V3C11 2.44773 11.4477 2.00002 12 2ZM8.73817 5.27119C8.36212 5.12204 7.88065 5.12776 7.32616 5.25469C7.61558 5.72317 7.94567 6.0575 8.31942 6.21182C8.6955 6.36096 9.1771 6.35518 9.73163 6.22822C9.4422 5.7597 9.11193 5.42553 8.73817 5.27119ZM16.5891 5.25469C16.0347 5.12776 15.5532 5.12205 15.1771 5.27119C14.8034 5.42553 14.4731 5.7597 14.1837 6.22822C14.7382 6.35518 15.2198 6.36096 15.5959 6.21182C15.9696 6.0575 16.2997 5.72317 16.5891 5.25469Z" fill="#696F88"/>
</svg>
