<svg width="24" height="24" viewBox="0 0 24 24" fill="none" xmlns="http://www.w3.org/2000/svg">
<path d="M16.4023 2C16.4023 2 13.4476 6.44209 13.4988 20.4897C13.5047 21.0072 13.5102 21.4931 13.5102 21.9416C13.5102 22.5261 13.07 23 12.5269 23C11.9838 23 11.5436 22.5261 11.5436 21.9416C11.5436 21.5204 11.5373 21.051 11.5305 20.5403C11.4708 8.66947 16.4023 2 16.4023 2Z" fill="#696F88"/>
<path d="M3 10.0608C3 10.0608 7.41375 14.5009 7.41375 21.9416C7.41375 22.5261 6.97351 23 6.43045 23C5.88739 23 5.44715 22.5261 5.44715 21.9416C5.44715 16.3637 3 10.0608 3 10.0608Z" fill="#696F88"/>
<path d="M10.3652 21.1988C10.3652 11.3574 5.91487 4.63479 5.91487 4.63479C5.91487 4.63479 8.40615 11.7063 8.39792 21.2794C8.39749 21.5048 8.39707 21.7259 8.39707 21.9416C8.39707 22.5261 8.8373 23 9.38036 23C9.92343 23 10.3637 22.5261 10.3637 21.9416C10.3637 21.7032 10.3644 21.4551 10.3652 21.1988Z" fill="#696F88"/>
<path d="M18.1681 14.4781C19.1441 16.5225 20.0002 19.0875 20 21.7942L20 21.9416C20 22.5261 19.5598 23 19.0167 23C18.4736 23 18.0334 22.5261 18.0334 21.9416C18.0334 20.4929 17.8083 18.8748 17.4891 17.3084C17.1699 18.8748 16.9448 20.4929 16.9448 21.9416C16.9448 22.5261 16.5046 23 15.9615 23C15.4184 23 14.9782 22.5261 14.9782 21.9416L14.9782 21.7942C14.978 19.0875 15.8341 16.5225 16.81 14.4781C16.1107 11.9138 15.3715 9.97389 15.3715 9.97389C15.3715 9.97389 16.4011 11.2032 17.4891 13.1625C18.5771 11.2032 19.6067 9.97389 19.6067 9.97389C19.6067 9.97389 18.8675 11.9138 18.1681 14.4781Z" fill="#696F88"/>
</svg>
