<svg xmlns="http://www.w3.org/2000/svg" width="24" height="24" viewBox="0 0 17 21" fill="none">
<path d="M13.4023 0C13.4023 0 10.4476 4.44209 10.4988 18.4897C10.5047 19.0072 10.5102 19.4931 10.5102 19.9416C10.5102 20.5261 10.07 21 9.5269 21C8.98384 21 8.5436 20.5261 8.5436 19.9416C8.5436 19.5204 8.53732 19.051 8.53049 18.5403C8.4708 6.66947 13.4023 0 13.4023 0Z" fill="var(--fill-0, #696F88)"/>
<path d="M0 8.06077C0 8.06077 4.41375 12.5009 4.41375 19.9416C4.41375 20.5261 3.97351 21 3.43045 21C2.88739 21 2.44715 20.5261 2.44715 19.9416C2.44715 14.3637 0 8.06077 0 8.06077Z" fill="var(--fill-0, #696F88)"/>
<path d="M7.36516 19.1988C7.36516 9.35736 2.91487 2.63479 2.91487 2.63479C2.91487 2.63479 5.40615 9.70633 5.39792 19.2794C5.39749 19.5048 5.39707 19.7259 5.39707 19.9416C5.39707 20.5261 5.8373 21 6.38036 21C6.92343 21 7.36366 20.5261 7.36366 19.9416C7.36366 19.7032 7.3644 19.4551 7.36516 19.1988Z" fill="var(--fill-0, #696F88)"/>
<path d="M15.1681 12.4781C16.1441 14.5225 17.0002 17.0875 17 19.7942L17 19.9416C17 20.5261 16.5598 21 16.0167 21C15.4736 21 15.0334 20.5261 15.0334 19.9416C15.0334 18.4929 14.8083 16.8748 14.4891 15.3084C14.1699 16.8748 13.9448 18.4929 13.9448 19.9416C13.9448 20.5261 13.5046 21 12.9615 21C12.4184 21 11.9782 20.5261 11.9782 19.9416L11.9782 19.7942C11.978 17.0875 12.8341 14.5225 13.81 12.4781C13.1107 9.91378 12.3715 7.97389 12.3715 7.97389C12.3715 7.97389 13.4011 9.20323 14.4891 11.1625C15.5771 9.20323 16.6067 7.97389 16.6067 7.97389C16.6067 7.97389 15.8675 9.91377 15.1681 12.4781Z" fill="var(--fill-0, #696F88)"/>
</svg>