<svg width="24" height="24" viewBox="0 0 24 24" fill="none" xmlns="http://www.w3.org/2000/svg">
<path fill-rule="evenodd" clip-rule="evenodd" d="M12.4914 2.16143C13.5599 1.57493 14.8046 1.81109 15.6383 2.06085L15.7176 2.08507C16.2135 2.23864 16.5069 2.74453 16.4003 3.24708L16.3887 3.29571C16.1696 4.12531 15.7264 5.33814 14.6654 5.96202L14.6144 5.99132C14.612 5.99266 14.6096 5.99399 14.6072 5.99532L14.5553 6.02305C14.0443 6.28956 13.4956 6.37275 12.9724 6.35987C12.9903 6.52251 13 6.68726 13 6.85323C13 6.86384 12.9995 6.87443 12.9991 6.88497C13.1251 6.93635 13.246 6.9984 13.3622 7.0711C13.7294 7.30069 13.9972 7.60548 14.2011 7.85362C14.6254 8.36991 14.9468 8.84596 15.6542 9.33301C16.503 9.91737 17.5038 10.6287 18.2759 11.6359C19.0732 12.6761 19.6 13.9917 19.6 15.7391C19.6 17.4599 18.9353 19.1008 17.6082 20.3034C16.2838 21.5037 14.3772 22.2 12 22.2C9.62289 22.2 7.71622 21.5037 6.39182 20.3034C5.06479 19.1008 4.40003 17.4599 4.40002 15.7391C4.40003 13.9917 4.92682 12.6761 5.72415 11.6359C6.49627 10.6287 7.49709 9.91737 8.34583 9.33301C9.05324 8.84596 9.37461 8.36991 9.79895 7.85362C10.0029 7.60549 10.2707 7.30069 10.6378 7.0711C10.754 6.99843 10.8749 6.93644 11.0008 6.88507C11.0005 6.8745 11 6.86388 11 6.85323C11 6.32175 10.8169 5.75085 10.5522 5.28858C10.2713 4.85052 10.0142 4.62132 9.44065 4.29747L9.32004 4.23048L9.27551 4.20469C8.82483 3.92759 8.66597 3.34262 8.92278 2.87325C9.17959 2.40393 9.75784 2.22228 10.2342 2.45235L10.28 2.47598L10.4372 2.56348C10.8013 2.76995 11.1131 2.9758 11.3945 3.21993C11.661 2.80733 12.0133 2.429 12.4842 2.16544L12.4914 2.16143ZM12 8.70001C11.8211 8.70001 11.747 8.73631 11.6983 8.7668C11.6218 8.81461 11.5244 8.90412 11.3441 9.12354C10.9998 9.54243 10.4758 10.2948 9.48 10.9804C8.62555 11.5687 7.86996 12.1241 7.31145 12.8526C6.77816 13.5483 6.40003 14.4376 6.40002 15.7391C6.40003 16.9326 6.85306 18.0223 7.73489 18.8215C8.61936 19.6231 10.0127 20.2 12 20.2C13.9874 20.2 15.3807 19.6231 16.2652 18.8215C17.147 18.0223 17.6 16.9326 17.6 15.7391C17.6 14.4376 17.2219 13.5483 16.6886 12.8526C16.1301 12.1241 15.3745 11.5687 14.52 10.9804C13.5243 10.2948 13.0003 9.54243 12.656 9.12354C12.4756 8.90412 12.3782 8.81461 12.3018 8.7668C12.253 8.73631 12.1789 8.70001 12 8.70001ZM14.0589 3.7959C13.8091 3.79158 13.6077 3.83146 13.4574 3.9128C13.3089 3.9971 13.1684 4.14671 13.0397 4.36085C13.2895 4.36516 13.4908 4.32526 13.641 4.24395C13.7896 4.15966 13.9302 4.01005 14.0589 3.7959Z" fill="#696F88"/>
</svg>
