<svg xmlns="http://www.w3.org/2000/svg" width="24" height="24" viewBox="0 0 15.2 20.4045" fill="none">
<path id="vector" fill-rule="evenodd" clip-rule="evenodd" d="M8.09141 0.3659C9.15992 -0.220605 10.4045 0.0155593 11.2383 0.265314L11.3176 0.289533C11.8135 0.443106 12.1069 0.948993 12.0003 1.45154L11.9887 1.50018C11.7696 2.32977 11.3264 3.54261 10.2653 4.16649L10.2144 4.19578C10.212 4.19713 10.2095 4.19846 10.2071 4.19979L10.1553 4.22752C9.6443 4.49402 9.09557 4.57722 8.57236 4.56434C8.59023 4.72698 8.6 4.89172 8.6 5.0577C8.6 5.06831 8.59945 5.0789 8.59912 5.08944C8.72507 5.14082 8.84595 5.20287 8.96221 5.27557C9.32934 5.50516 9.59713 5.80995 9.80107 6.05809C10.2254 6.57438 10.5468 7.05043 11.2542 7.53748C12.1029 8.12184 13.1038 8.83319 13.8759 9.84041C14.6732 10.8805 15.2 12.1962 15.2 13.9435C15.2 15.6644 14.5352 17.3052 13.2082 18.5079C11.8838 19.7082 9.97714 20.4045 7.6 20.4045C5.22286 20.4045 3.3162 19.7082 1.9918 18.5079C0.664765 17.3052 4.90771e-06 15.6644 0 13.9435C6.00463e-06 12.1962 0.526794 10.8805 1.32412 9.84041C2.09624 8.83319 3.09706 8.12184 3.9458 7.53748C4.65322 7.05043 4.97459 6.57438 5.39893 6.05809C5.60287 5.80995 5.87066 5.50515 6.23779 5.27557C6.35401 5.20289 6.47488 5.14091 6.60078 5.08953C6.60045 5.07897 6.6 5.06834 6.6 5.0577C6.59999 4.52622 6.41687 3.95532 6.15215 3.49305C5.87132 3.05498 5.61419 2.82578 5.04063 2.50194L4.92002 2.43494L4.87549 2.40916C4.42481 2.13206 4.26594 1.54709 4.52275 1.07772C4.77956 0.608394 5.35782 0.426745 5.83418 0.656818L5.87998 0.680451L6.03721 0.767951C6.40125 0.974419 6.71304 1.18027 6.99443 1.4244C7.26095 1.01179 7.61331 0.633471 8.08418 0.369904L8.09141 0.3659ZM7.6 6.90447C7.42112 6.90447 7.34702 6.94078 7.29824 6.97127C7.22179 7.01908 7.12439 7.10859 6.94404 7.32801C6.59976 7.7469 6.07577 8.49925 5.07998 9.18485C4.22553 9.77313 3.46994 10.3286 2.91143 11.0571C2.37813 11.7528 2.00001 12.642 2 13.9435C2 15.1371 2.45303 16.2268 3.33486 17.026C4.21933 17.8275 5.61266 18.4045 7.6 18.4045C9.58734 18.4045 10.9807 17.8275 11.8651 17.026C12.747 16.2268 13.2 15.1371 13.2 13.9435C13.2 12.642 12.8219 11.7528 12.2886 11.0571C11.7301 10.3286 10.9745 9.77313 10.12 9.18485C9.12423 8.49924 8.60024 7.7469 8.25596 7.32801C8.07561 7.10859 7.97821 7.01908 7.90176 6.97127C7.85298 6.94078 7.77888 6.90447 7.6 6.90447ZM9.65889 2.00037C9.40904 1.99605 9.20765 2.03593 9.05742 2.11727C8.90887 2.20157 8.76836 2.35118 8.63965 2.56531C8.88943 2.56963 9.09081 2.52973 9.24102 2.44842C9.38959 2.36413 9.53017 2.21452 9.65889 2.00037Z" fill="var(--fill-0, #696F88)"/>
</svg>