<svg xmlns="http://www.w3.org/2000/svg" width="24" height="24" viewBox="0 0 19.4998 19.8579" fill="none">
<path id="vector" fill-rule="evenodd" clip-rule="evenodd" d="M9.73619 0C9.73619 0 10.1818 0.221398 10.1823 0.221094L10.1909 0.225391C10.1956 0.227767 10.2021 0.230982 10.2101 0.235059C10.2263 0.24326 10.2491 0.254903 10.2781 0.269922C10.336 0.299969 10.4187 0.343604 10.5231 0.400488C10.7318 0.514242 11.0276 0.681367 11.3852 0.899121C12.0991 1.33382 13.0661 1.97487 14.0801 2.80205C16.0775 4.43136 18.3895 6.88989 19.1535 10.0261L19.1782 10.1244C19.6878 12.1832 19.5789 13.8341 18.9423 15.1465C18.2961 16.4788 17.1834 17.3016 16.028 17.8441C14.8854 18.3806 13.6164 18.6813 12.5647 18.9211C12.0221 19.0448 11.5476 19.1495 11.1297 19.2639C10.7063 19.3797 10.4115 19.4875 10.2194 19.5931L9.73766 19.8579L9.25592 19.5931C9.06356 19.4873 8.76989 19.38 8.34937 19.2648C7.93408 19.1511 7.46319 19.0472 6.92428 18.9244C5.87992 18.6865 4.61935 18.388 3.48219 17.8526C2.33135 17.3108 1.2246 16.489 0.57457 15.1592C-0.0753389 13.8295 -0.192717 12.1478 0.319003 10.0379C1.07788 6.90894 3.39367 4.44622 5.39283 2.8125C6.40679 1.98389 7.37395 1.34047 8.08785 0.903809C8.44544 0.685084 8.74128 0.517122 8.94996 0.402734C9.05434 0.345518 9.1371 0.301608 9.19498 0.271387C9.22391 0.256283 9.2467 0.244571 9.26285 0.236328C9.27091 0.232216 9.27736 0.22895 9.28209 0.226563L9.2899 0.222656C9.29016 0.222526 9.29059 0.222266 9.29059 0.222266C9.29114 0.22266 9.73619 0 9.73619 0ZM9.63648 14.9168C7.8272 14.9168 6.15955 15.4092 4.78922 16.2395C5.59217 16.5573 6.48018 16.772 7.36852 16.9744C7.88168 17.0913 8.40903 17.2075 8.8776 17.3358C9.16637 17.4149 9.46012 17.5054 9.73785 17.616C10.0165 17.5051 10.3116 17.4143 10.6018 17.3349C11.0727 17.206 11.6032 17.0889 12.1202 16.9711C12.9587 16.7799 13.7979 16.5776 14.566 16.2899C13.1804 15.4292 11.4822 14.9168 9.63648 14.9168ZM9.73902 2.25254C9.57375 2.34578 9.36806 2.46521 9.13141 2.60996C8.47459 3.01171 7.58565 3.60345 6.65836 4.36123C4.77497 5.90034 2.86735 8.01608 2.26266 10.5093C1.82261 12.3237 1.98771 13.496 2.37135 14.2809C2.517 14.5788 2.70513 14.8434 2.9318 15.0803C4.76065 13.7228 7.10075 12.9168 9.63648 12.9168C12.2342 12.9168 14.6266 13.7627 16.4744 15.1809C16.7514 14.9166 16.9763 14.6171 17.1429 14.2735C17.5208 13.4944 17.6774 12.3288 17.2157 10.5211L17.2141 10.515L17.2127 10.509C16.6055 8.00232 14.6975 5.88667 12.816 4.35186C11.8893 3.59596 11.0011 3.00691 10.345 2.60732C10.109 2.46364 9.90394 2.34509 9.73902 2.25254Z" fill="var(--fill-0, #696F88)"/>
</svg>