<svg width="24" height="24" viewBox="0 0 24 24" fill="none" xmlns="http://www.w3.org/2000/svg">
<path fill-rule="evenodd" clip-rule="evenodd" d="M11.7076 1.75024C11.8569 1.56534 12.1411 1.56536 12.2905 1.75024L12.3049 1.76938L12.423 1.93686C14.7841 5.30986 15.7845 8.24989 15.5744 11.3457C17.1258 10.5723 18.924 10.1863 20.9198 10.1863C21.0664 10.1863 21.2149 10.1881 21.3651 10.1919L21.3871 10.1931C21.6048 10.211 21.7589 10.4111 21.7259 10.6238L21.722 10.6451C21.1215 13.453 19.579 15.5409 17.0391 16.993C17.6714 17.5884 18.2811 18.4703 18.6751 19.3471L18.6829 19.3658C18.7556 19.5536 18.6657 19.7629 18.485 19.8429L18.4667 19.8505C17.4515 20.2376 16.5107 20.4314 15.6062 20.4314C14.6893 20.4314 13.834 20.2332 13.0001 19.8307V21.4C13.0001 21.9523 12.5523 22.4 12.0001 22.4C11.4478 22.4 11.0001 21.9523 11.0001 21.4V19.836C10.1677 20.2383 9.31059 20.4362 8.3942 20.4362C7.51568 20.4362 6.60755 20.2543 5.62887 19.8911L5.53395 19.8553C5.33462 19.7793 5.23613 19.5499 5.32584 19.3512L5.36803 19.2594C5.76424 18.4136 6.35332 17.5724 6.96159 16.998C4.46256 15.5693 2.92902 13.5251 2.30826 10.7853L2.27838 10.6498C2.2298 10.4225 2.39869 10.2028 2.63522 10.1967L2.85895 10.1924C2.93334 10.1915 3.00748 10.1911 3.08063 10.1911C5.07593 10.1911 6.87611 10.577 8.42584 11.3502C8.21005 8.19894 9.24733 5.21283 11.6931 1.76938L11.7076 1.75024ZM12.0036 5.06411C11.1263 6.53927 10.6418 7.93451 10.474 9.43608V9.43637C10.3252 10.757 10.3949 12.1928 10.7302 14.3499L10.7338 14.3795C10.7569 14.6729 10.4384 14.8853 10.1756 14.7353L10.1496 14.719C8.92146 13.8902 7.88941 13.298 7.00045 12.9037L6.83932 12.8339C6.17786 12.5536 5.56633 12.3707 4.95084 12.2683C5.4953 13.2741 6.02609 13.9217 6.73326 14.4801L6.81139 14.5409C7.62768 15.1657 8.72527 15.7098 10.1362 16.3168L10.1619 16.3289C10.4116 16.4583 10.4343 16.8123 10.2004 16.9713L10.1761 16.9866C9.48738 17.3859 8.71663 17.9433 8.2567 18.488C8.35024 18.494 8.44122 18.4974 8.53102 18.4974H8.5317L8.62926 18.4964C9.63618 18.4746 10.6107 18.0793 11.7666 17.1687L11.7927 17.1498C11.9177 17.0677 12.0804 17.0677 12.2053 17.1498L12.2315 17.1687L12.3427 17.2552C13.4868 18.1325 14.4574 18.4998 15.4766 18.4998C15.5661 18.4998 15.6563 18.497 15.7483 18.4914C15.4135 18.1001 14.8132 17.5654 13.9415 17.0501L13.8334 16.9872C13.5603 16.8302 13.594 16.4366 13.872 16.3164L14.0545 16.2373C15.905 15.4289 16.6894 14.9412 17.2747 14.4799C17.9815 13.9218 18.5103 13.2744 19.0562 12.2683C18.391 12.3785 17.7308 12.5818 17.0079 12.9034L17.0076 12.9035C16.1741 13.2732 15.2149 13.8169 14.0862 14.5664L13.8582 14.719C13.5824 14.9051 13.228 14.6683 13.2774 14.3499L13.3081 14.1497C13.6169 12.1029 13.6778 10.7135 13.5337 9.43647C13.3636 7.93469 12.8789 6.53928 12.0036 5.06411Z" fill="#696F88"/>
</svg>
