<svg xmlns="http://www.w3.org/2000/svg" width="24" height="24" viewBox="0 0 19.4604 20.7885" fill="none">
<path id="vector" fill-rule="evenodd" clip-rule="evenodd" d="M9.43756 0.138667C9.58693 -0.0462331 9.87109 -0.0462115 10.0205 0.138667L10.0349 0.157807L10.153 0.325288C12.5141 3.69829 13.5145 6.63831 13.3044 9.73417C14.8558 8.96072 16.654 8.57472 18.6498 8.5747C18.7964 8.5747 18.9449 8.57657 19.0951 8.58037L19.1171 8.58154C19.3348 8.59945 19.4889 8.79958 19.4559 9.0122L19.452 9.03349C18.8515 11.8414 17.309 13.9293 14.7691 15.3814C15.4014 15.9768 16.0111 16.8587 16.405 17.7355L16.4129 17.7542C16.4856 17.942 16.3957 18.1514 16.215 18.2313L16.1966 18.239C15.1815 18.626 14.2407 18.8198 13.3362 18.8198C12.4192 18.8198 11.564 18.6216 10.73 18.2191V19.7885C10.73 20.3407 10.2823 20.7885 9.73004 20.7885C9.17776 20.7885 8.73005 20.3408 8.73004 19.7885V18.2244C7.89765 18.6267 7.04057 18.8246 6.12418 18.8246C5.24566 18.8246 4.33753 18.6427 3.35885 18.2795L3.26393 18.2437C3.0646 18.1677 2.96611 17.9383 3.05582 17.7396L3.09801 17.6478C3.49422 16.802 4.0833 15.9608 4.69157 15.3864C2.19254 13.9577 0.659003 11.9135 0.0382453 9.17372L0.0083625 9.03828C-0.0402223 8.81095 0.128666 8.59123 0.365198 8.58515L0.588929 8.58085C0.66332 8.57991 0.73746 8.57949 0.810609 8.57949C2.80591 8.57949 4.60609 8.96538 6.15582 9.73867C5.94003 6.58736 6.97731 3.60125 9.42311 0.157807L9.43756 0.138667ZM9.73356 3.45253C8.85629 4.9277 8.37179 6.32293 8.20397 7.82451V7.8248C8.0552 9.1454 8.1249 10.5812 8.46022 12.7384L8.46373 12.768C8.48689 13.0613 8.16835 13.2737 7.90563 13.1237L7.87955 13.1074C6.65144 12.2786 5.61939 11.6865 4.73043 11.2921L4.5693 11.2224C3.90784 10.9421 3.29631 10.7591 2.68082 10.6567C3.22528 11.6626 3.75607 12.3101 4.46325 12.8685L4.54137 12.9293C5.35766 13.5542 6.45525 14.0982 7.86618 14.7053L7.89186 14.7174C8.14162 14.8468 8.16429 15.2008 7.93034 15.3598L7.90612 15.375C7.21736 15.7743 6.44661 16.3317 5.98668 16.8765C6.08022 16.8825 6.1712 16.8858 6.261 16.8858H6.26168L6.35924 16.8849C7.36616 16.863 8.3407 16.4677 9.49655 15.5571L9.52272 15.5383C9.64768 15.4561 9.81035 15.4561 9.93532 15.5383L9.96149 15.5571L10.0727 15.6436C11.2168 16.5209 12.1874 16.8883 13.2066 16.8883C13.2961 16.8883 13.3863 16.8854 13.4783 16.8799C13.1435 16.4885 12.5431 15.9538 11.6714 15.4386L11.5633 15.3756C11.2903 15.2187 11.324 14.825 11.602 14.7049L11.7844 14.6257C13.6349 13.8173 14.4193 13.3296 15.0047 12.8684C15.7114 12.3102 16.2402 11.6628 16.7862 10.6567C16.121 10.767 15.4608 10.9703 14.7379 11.2918L14.7376 11.2919C13.9041 11.6616 12.9449 12.2053 11.8162 12.9548L11.5881 13.1074C11.3124 13.2935 10.9579 13.0567 11.0074 12.7384L11.0381 12.5382C11.3469 10.4913 11.4077 9.1019 11.2636 7.8249C11.0936 6.32312 10.6089 4.92771 9.73356 3.45253Z" fill="var(--fill-0, #696F88)"/>
</svg>