<svg xmlns="http://www.w3.org/2000/svg" width="24" height="24" viewBox="0 0 14.6825 19.5944" fill="none">
<path fill-rule="evenodd" clip-rule="evenodd" d="M0.00377818 0.982519C0.0150528 0.446715 0.446715 0.015053 0.982519 0.00377819C2.77855 -0.034015 5.11552 0.189277 6.64224 1.70338C6.64421 1.70533 6.64616 1.70729 6.64811 1.70925C8.16222 3.23597 8.38551 5.57294 8.34771 7.36897C8.33644 7.90478 7.90478 8.33644 7.36897 8.34771C5.57294 8.38551 3.23597 8.16222 1.70925 6.64811C1.70729 6.64616 1.70533 6.64421 1.70339 6.64224C0.189279 5.11552 -0.0340151 2.77855 0.00377818 0.982519ZM3.12054 5.23096C3.84261 5.9448 5.00089 6.25706 6.3326 6.33259C6.25707 5.00089 5.9448 3.84261 5.23096 3.12053C4.50888 2.4067 3.3506 2.09443 2.0189 2.0189C2.09443 3.3506 2.4067 4.50888 3.12054 5.23096Z" fill="var(--fill-0, #696F88)"/>
<path fill-rule="evenodd" clip-rule="evenodd" d="M0.762017 9.2439C0.773292 8.70809 1.20495 8.27643 1.74076 8.26516C3.32541 8.23181 5.42882 8.42576 6.81074 9.79627C6.81271 9.79821 6.81466 9.80017 6.81661 9.80213C8.18711 11.1841 8.38106 13.2875 8.34772 14.8721C8.33644 15.4079 7.90478 15.8396 7.36898 15.8509C5.78433 15.8842 3.68091 15.6903 2.29899 14.3197C2.29703 14.3178 2.29508 14.3158 2.29313 14.3139C0.922625 12.932 0.728672 10.8285 0.762017 9.2439ZM3.71028 12.9026C4.29268 13.478 5.22536 13.7504 6.32597 13.8291C6.24724 12.7285 5.97485 11.7958 5.39946 11.2134C4.81706 10.638 3.88438 10.3656 2.78376 10.2869C2.86249 11.3875 3.13488 12.3202 3.71028 12.9026Z" fill="var(--fill-0, #696F88)"/>
<path fill-rule="evenodd" clip-rule="evenodd" d="M14.6787 1.98252C14.6674 1.44672 14.2357 1.01505 13.6999 1.00378C11.9039 0.965985 9.56694 1.18928 8.04022 2.70338C8.03825 2.70533 8.0363 2.70729 8.03435 2.70925C6.52024 4.23597 6.29695 6.57294 6.33474 8.36897C6.34602 8.90478 6.77768 9.33644 7.31349 9.34771C9.10951 9.38551 11.4465 9.16222 12.9732 7.64811C12.9752 7.64616 12.9771 7.64421 12.9791 7.64224C14.4932 6.11552 14.7165 3.77855 14.6787 1.98252ZM11.5619 6.23096C10.8398 6.9448 9.68157 7.25706 8.34986 7.33259C8.42539 6.00089 8.73766 4.84261 9.4515 4.12053C10.1736 3.4067 11.3319 3.09443 12.6636 3.0189C12.588 4.3506 12.2758 5.50888 11.5619 6.23096Z" fill="var(--fill-0, #696F88)"/>
<path fill-rule="evenodd" clip-rule="evenodd" d="M13.9204 10.2439C13.9092 9.70809 13.4775 9.27643 12.9417 9.26516C11.3571 9.23181 9.25364 9.42576 7.87172 10.7963C7.86975 10.7982 7.8678 10.8002 7.86585 10.8021C6.49535 12.1841 6.3014 14.2875 6.33474 15.8721C6.34602 16.4079 6.77768 16.8396 7.31348 16.8509C8.89813 16.8842 11.0015 16.6903 12.3835 15.3197C12.3854 15.3178 12.3874 15.3158 12.3893 15.3139C13.7598 13.932 13.9538 11.8285 13.9204 10.2439ZM10.9722 13.9026C10.3898 14.478 9.4571 14.7504 8.35649 14.8291C8.43522 13.7285 8.70761 12.7958 9.283 12.2134C9.8654 11.638 10.7981 11.3656 11.8987 11.2869C11.82 12.3875 11.5476 13.3202 10.9722 13.9026Z" fill="var(--fill-0, #696F88)"/>
<path fill-rule="evenodd" clip-rule="evenodd" d="M7.34123 19.5944C6.78895 19.5944 6.34123 19.1467 6.34123 18.5944V6.24437C6.34123 6.24437 7.78895 6.24437 8.34123 6.24437V18.5944C8.34123 19.1467 7.89351 19.5944 7.34123 19.5944Z" fill="var(--fill-0, #696F88)"/>
</svg>