<svg width="24" height="24" viewBox="0 0 24 24" fill="none" xmlns="http://www.w3.org/2000/svg">
<path fill-rule="evenodd" clip-rule="evenodd" d="M4.66259 3.43821C4.67387 2.9024 5.10553 2.47074 5.64133 2.45947C7.43736 2.42167 9.77434 2.64497 11.3011 4.15907C11.303 4.16102 11.305 4.16298 11.3069 4.16494C12.821 5.69166 13.0443 8.02863 13.0065 9.82466C12.9953 10.3605 12.5636 10.7921 12.0278 10.8034C10.2318 10.8412 7.89479 10.6179 6.36807 9.1038C6.3661 9.10185 6.36415 9.09989 6.3622 9.09793C4.84809 7.57121 4.6248 5.23424 4.66259 3.43821ZM7.77935 7.68665C8.50142 8.40049 9.6597 8.71275 10.9914 8.78828C10.9159 7.45658 10.6036 6.2983 9.88977 5.57622C9.1677 4.86238 8.00942 4.55012 6.67771 4.47459C6.75324 5.80629 7.06551 6.96457 7.77935 7.68665Z" fill="#696F88"/>
<path fill-rule="evenodd" clip-rule="evenodd" d="M5.42083 11.6996C5.43211 11.1638 5.86377 10.7321 6.39957 10.7208C7.98422 10.6875 10.0876 10.8815 11.4696 12.252C11.4715 12.2539 11.4735 12.2559 11.4754 12.2578C12.8459 13.6397 13.0399 15.7432 13.0065 17.3278C12.9953 17.8636 12.5636 18.2953 12.0278 18.3065C10.4431 18.3399 8.33973 18.1459 6.95781 16.7754C6.95584 16.7735 6.95389 16.7715 6.95194 16.7696C5.58144 15.3876 5.38749 13.2842 5.42083 11.6996ZM8.36909 15.3583C8.95149 15.9337 9.88417 16.2061 10.9848 16.2848C10.9061 15.1842 10.6337 14.2515 10.0583 13.6691C9.47587 13.0937 8.54319 12.8213 7.44258 12.7426C7.52131 13.8432 7.7937 14.7759 8.36909 15.3583Z" fill="#696F88"/>
<path fill-rule="evenodd" clip-rule="evenodd" d="M19.3375 4.43821C19.3262 3.9024 18.8946 3.47074 18.3588 3.45947C16.5627 3.42167 14.2258 3.64497 12.699 5.15907C12.6971 5.16102 12.6951 5.16298 12.6932 5.16494C11.1791 6.69166 10.9558 9.02863 10.9936 10.8247C11.0048 11.3605 11.4365 11.7921 11.9723 11.8034C13.7683 11.8412 16.1053 11.6179 17.632 10.1038C17.634 10.1018 17.6359 10.0999 17.6379 10.0979C19.152 8.57121 19.3753 6.23424 19.3375 4.43821ZM16.2207 8.68665C15.4987 9.40049 14.3404 9.71275 13.0087 9.78828C13.0842 8.45658 13.3965 7.2983 14.1103 6.57622C14.8324 5.86238 15.9907 5.55012 17.3224 5.47459C17.2468 6.80629 16.9346 7.96457 16.2207 8.68665Z" fill="#696F88"/>
<path fill-rule="evenodd" clip-rule="evenodd" d="M18.5793 12.6996C18.568 12.1638 18.1363 11.7321 17.6005 11.7208C16.0159 11.6875 13.9125 11.8815 12.5305 13.252C12.5286 13.2539 12.5266 13.2559 12.5247 13.2578C11.1542 14.6397 10.9602 16.7432 10.9936 18.3278C11.0048 18.8636 11.4365 19.2953 11.9723 19.3065C13.5569 19.3399 15.6604 19.1459 17.0423 17.7754C17.0442 17.7735 17.0462 17.7715 17.0481 17.7696C18.4186 16.3876 18.6126 14.2842 18.5793 12.6996ZM15.631 16.3583C15.0486 16.9337 14.1159 17.2061 13.0153 17.2848C13.094 16.1842 13.3664 15.2515 13.9418 14.6691C14.5242 14.0937 15.4569 13.8213 16.5575 13.7426C16.4788 14.8432 16.2064 15.7759 15.631 16.3583Z" fill="#696F88"/>
<path fill-rule="evenodd" clip-rule="evenodd" d="M12 22.0501C11.4478 22.0501 11 21.6023 11 21.0501V8.70006C11 8.70006 12.4478 8.70006 13 8.70006V21.0501C13 21.6023 12.5523 22.0501 12 22.0501Z" fill="#696F88"/>
</svg>
