<svg width="24" height="24" viewBox="0 0 24 24" fill="none" xmlns="http://www.w3.org/2000/svg">
<path d="M5.29873 14.556C5.05258 13.7031 4.94648 12.9059 4.98067 12.1875C5.00054 11.7618 5.07003 11.369 5.18789 11.0117C5.05982 10.9694 4.93157 10.9231 4.80332 10.8731L4 10.5595L4.13164 9.70337C4.24172 8.98751 4.44114 8.32368 4.7419 7.74575C5.08157 7.09194 5.55493 6.545 6.17559 6.18472C6.73 5.8629 8.2344 5.00425 11.0003 4.8311C11.0029 4.33863 11.0436 3.31586 11.6136 2.33472L11.6425 2.28579C11.9266 1.81224 12.5409 1.65861 13.0145 1.94272C13.488 2.22687 13.6416 2.84114 13.3575 3.3147L13.3276 3.36616C13.0447 3.86991 13.0041 4.43162 13.0004 4.831C15.7668 5.00396 17.2698 5.86275 17.8244 6.18472C18.4451 6.54501 18.9184 7.09212 19.2581 7.74595C19.5589 8.32387 19.7583 8.98752 19.8684 9.70337L20 10.5595L19.1967 10.8731C19.0685 10.9231 18.9403 10.9694 18.8122 11.0117C18.9301 11.369 18.9995 11.7618 19.0193 12.1875C19.0535 12.9059 18.9474 13.7031 18.7013 14.556C17.8156 14.4956 17.0302 14.3226 16.3668 14.0448C15.6212 13.7333 15.0472 13.2949 14.6602 12.7421C14.6168 12.6802 14.5767 12.6176 14.5397 12.5546C14.5987 12.4861 14.6557 12.4171 14.7106 12.3475C15.0408 11.93 15.3024 11.4857 15.4735 11.02C15.3613 10.9706 15.2512 10.9151 15.1438 10.8528C14.98 10.7577 14.826 10.6479 14.6848 10.5244C14.6079 10.672 14.5234 10.8176 14.4318 10.961C14.4054 11.0024 14.3784 11.0437 14.3508 11.0848C14.2368 11.2992 14.0952 11.5138 13.9259 11.7278C13.469 12.3064 12.8217 12.8698 12 13.4002L11.8479 13.3004C11.0981 12.7994 10.5024 12.2702 10.0741 11.7278C9.90468 11.5136 9.76297 11.2988 9.64893 11.0841C9.62147 11.0433 9.59456 11.0022 9.56826 10.961C9.47668 10.8176 9.39224 10.672 9.31533 10.5244C9.17412 10.6479 9.02001 10.7577 8.85615 10.8528C8.74881 10.9151 8.63881 10.9707 8.52656 11.02C8.69763 11.4857 8.95907 11.93 9.28926 12.3475C9.34423 12.4171 9.4013 12.4861 9.46025 12.5546C9.42327 12.6176 9.3832 12.6802 9.33984 12.7421C8.95277 13.2949 8.37884 13.7333 7.6332 14.0448C6.96975 14.3226 6.18438 14.4956 5.29873 14.556Z" fill="#696F88"/>
<path d="M11.9499 18.3002C11.2956 17.7698 10.7802 17.2064 10.4164 16.6278C10.0071 15.9781 9.79991 15.3234 9.7999 14.6813C9.7999 14.1501 9.95191 13.6889 10.2399 13.3333C10.6044 13.6504 11.0124 13.953 11.4576 14.2404L11.9999 14.5905L12.5422 14.2404C12.9635 13.9684 13.3515 13.6827 13.7008 13.3841C13.9637 13.7324 14.0999 14.1752 14.0999 14.6813C14.0999 15.3234 13.8928 15.9781 13.4835 16.6278C13.1197 17.2064 12.6042 17.7698 11.9499 18.3002Z" fill="#696F88"/>
<path d="M17.1909 19.0019C16.3431 18.8691 15.6013 18.6363 14.9857 18.3128C14.607 18.1142 14.2811 17.8833 14.0102 17.6223C14.1247 17.471 14.2313 17.3171 14.3296 17.1608C14.8197 16.3828 15.0999 15.5459 15.0999 14.6813C15.0999 14.6224 15.0984 14.5638 15.0956 14.5054C15.3458 14.6665 15.6144 14.8087 15.8985 14.9323L15.9812 14.9675C16.4643 15.1698 16.9902 15.3202 17.55 15.4213C17.667 15.8231 17.7164 16.2666 17.6969 16.7476C17.6693 17.4424 17.4998 18.2012 17.1909 19.0019Z" fill="#696F88"/>
<path d="M6.80889 19.0019C6.49997 18.2012 6.33064 17.4424 6.30303 16.7476C6.28349 16.2666 6.33288 15.8231 6.4499 15.4213C7.00966 15.3202 7.53554 15.1698 8.01865 14.9675L8.10127 14.9323C8.34708 14.8254 8.58119 14.7046 8.80186 14.5697C8.80074 14.6068 8.7999 14.644 8.7999 14.6813C8.79991 15.5189 9.06291 16.3306 9.5249 17.0877L9.57021 17.1608C9.68038 17.336 9.80112 17.5081 9.93164 17.6771C9.67257 17.9157 9.36616 18.1282 9.01416 18.3128C8.39862 18.6363 7.65673 18.8691 6.80889 19.0019Z" fill="#696F88"/>
<path d="M12 23.0002C11.3609 22.4698 10.8575 21.9064 10.5021 21.3278C10.1024 20.6781 9.9 20.0234 9.9 19.3813C9.9 19.2246 9.91295 19.0739 9.93838 18.9302C10.1741 18.7775 10.3936 18.6096 10.5945 18.4261C10.8192 18.6502 11.0616 18.8674 11.3203 19.0771L11.95 19.5875L12.5797 19.0771C12.8569 18.8524 13.1155 18.6191 13.3535 18.3779C13.5685 18.5803 13.8057 18.7643 14.062 18.9304C14.0872 19.074 14.1 19.2246 14.1 19.3813C14.1 20.0234 13.8976 20.6781 13.4979 21.3278C13.1425 21.9064 12.6391 22.4698 12 23.0002Z" fill="#696F88"/>
</svg>
