<svg xmlns="http://www.w3.org/2000/svg" width="24" height="24" viewBox="0 0 20.0421 20.0075" fill="none">
<path fill-rule="evenodd" clip-rule="evenodd" d="M8.43538 10.3912C8.10575 10.4482 7.77087 10.4653 7.4359 10.4454C7.17665 10.7216 6.8893 10.956 6.58262 11.1477C6.93434 12.0991 7.37314 12.7568 7.75231 13.3213C8.2867 14.1168 8.6074 14.6016 8.6074 15.6074C8.6074 16.4086 8.29196 17.056 7.95017 17.5234C7.7802 17.7559 7.61028 17.9343 7.48578 18.0521C7.42395 18.1106 7.37458 18.1529 7.34378 18.1783C7.32841 18.191 7.31781 18.1995 7.31273 18.2034L7.31103 18.2047L7.31007 18.2054L7.30998 18.2055C6.86935 18.5336 6.77582 19.1565 7.10175 19.5998C7.42892 20.0447 8.05484 20.1402 8.49979 19.813L7.91234 19.0141C8.49979 19.813 8.50012 19.8128 8.50046 19.8126L8.5027 19.8109L8.50624 19.8083L8.50894 19.8063L8.51518 19.8016C8.52196 19.7964 8.53036 19.79 8.54027 19.7823C8.56009 19.7669 8.586 19.7463 8.61712 19.7206C8.67929 19.6693 8.76273 19.5972 8.86028 19.5049C9.05452 19.3211 9.3096 19.0527 9.56463 18.7039C9.97865 18.1377 10.4102 17.3341 10.5559 16.3264C11.3613 15.9717 11.9868 15.3962 12.4625 14.8441C12.1933 14.5451 11.9772 14.209 11.8127 13.8482C11.5264 13.7486 11.2582 13.6189 11.011 13.4635C10.8139 13.6996 10.6094 13.9104 10.3959 14.0872C10.1681 13.3305 9.79036 12.7683 9.43423 12.2384L9.4125 12.206C9.06402 11.6873 8.71061 11.1595 8.43538 10.3912ZM7.31501 18.2017L7.3144 18.2022C7.31479 18.2021 7.32239 18.2118 7.90621 19.0058L7.31501 18.2017Z" fill="currentColor"/>
<path fill-rule="evenodd" clip-rule="evenodd" d="M17.7005 7.30083C17.554 6.81227 17.3047 6.37972 16.9569 6.03365C16.4029 5.48235 15.6603 5.21436 14.8853 5.25497C13.6458 5.31993 12.5376 6.2339 12.2751 7.59254C11.7861 7.73929 11.3531 7.98891 11.0069 8.33722C10.4563 8.89114 10.1887 9.63331 10.2293 10.4077C10.2943 11.6471 11.2081 12.7554 12.5668 13.0179C12.7135 13.5066 12.9628 13.9393 13.3107 14.2854C13.8647 14.8365 14.6072 15.1044 15.382 15.0638C16.6215 14.9989 17.7297 14.085 17.9922 12.7263C18.4806 12.5797 18.9129 12.3307 19.2589 11.9832C19.8106 11.4291 20.0787 10.6863 20.0381 9.91105C19.9732 8.6716 19.0593 7.56333 17.7005 7.30083ZM15.8513 8.25941C15.8236 7.83523 15.6806 7.58504 15.5462 7.45132C15.4112 7.31696 15.2271 7.23981 14.99 7.25223C14.6288 7.27116 14.1555 7.60539 14.2229 8.35566C14.2723 8.90573 13.8665 9.39172 13.3164 9.44116C13.2752 9.44487 13.2343 9.44601 13.1939 9.44473C12.7935 9.47862 12.5548 9.61695 12.4254 9.74717C12.2912 9.88215 12.2141 10.0661 12.2266 10.3031C12.2454 10.6622 12.5758 11.1317 13.3161 11.0714C13.3332 11.0697 13.3504 11.0684 13.3678 11.0676C13.9195 11.0416 14.3878 11.4677 14.4138 12.0194C14.4349 12.468 14.5827 12.7297 14.7213 12.8675C14.8563 13.0019 15.0403 13.079 15.2774 13.0666C15.63 13.0481 16.0893 12.7291 16.0484 12.0163C16.0442 11.9862 16.0414 11.9557 16.04 11.9248C16.027 11.6464 16.1292 11.3892 16.3046 11.1995C16.4672 11.0225 16.6939 10.9032 16.9522 10.8802C16.9834 10.8775 17.0145 10.8762 17.0452 10.8763C17.4623 10.8467 17.7091 10.7051 17.8416 10.572C17.9761 10.437 18.0533 10.2529 18.0409 10.0157C18.0222 9.65987 17.6976 9.19558 16.9714 9.2459C16.9477 9.24871 16.9237 9.25071 16.8994 9.25185C16.696 9.2614 16.504 9.2095 16.3413 9.11253C16.0743 8.9539 15.8848 8.67354 15.8553 8.34053C15.8529 8.31332 15.8516 8.28626 15.8513 8.25941Z" fill="currentColor"/>
<path d="M16.2487 10.101C16.2807 10.7105 15.8125 11.2305 15.2029 11.2625C14.5934 11.2944 14.0733 10.8262 14.0414 10.2166C14.0094 9.60709 14.4777 9.08706 15.0872 9.05511C15.6968 9.02317 16.2168 9.4914 16.2487 10.101Z" fill="currentColor"/>
<path fill-rule="evenodd" clip-rule="evenodd" d="M9.38605 3.77023C10.6939 4.69265 11.0921 6.29269 10.542 7.58863C10.2039 8.38504 9.57454 8.99503 8.75543 9.27945C8.20861 9.46933 7.61476 9.502 7.01207 9.38605C6.08961 10.694 4.48953 11.092 3.19367 10.542C2.39766 10.2041 1.78787 9.57515 1.50326 8.7566C1.31304 8.20948 1.28022 7.61521 1.39625 7.01209C0.088419 6.08971 -0.309843 4.48972 0.240294 3.19368C0.57841 2.39713 1.20797 1.78707 2.02727 1.50272C2.57398 1.31297 3.16768 1.28034 3.77021 1.39626C4.69264 0.0883248 6.29272 -0.309799 7.58864 0.240287C8.38545 0.578513 8.99563 1.20837 9.27987 2.02802C9.46938 2.57454 9.50192 3.16797 9.38605 3.77023ZM7.2955 3.81239C7.49536 3.32001 7.47916 2.93965 7.39026 2.68329C7.29974 2.42226 7.10803 2.209 6.80718 2.0813C6.32865 1.87818 5.56485 2.02775 5.20779 2.91559C5.19958 2.93944 5.19041 2.96315 5.18027 2.98669C5.09923 3.17475 4.96736 3.32525 4.80763 3.42905C4.54836 3.59813 4.21448 3.64485 3.90328 3.52578C3.87638 3.51548 3.85017 3.50415 3.8247 3.49185C3.32619 3.28663 2.94156 3.30243 2.68303 3.39215C2.42214 3.4827 2.20897 3.67438 2.0813 3.97514C1.87552 4.45994 2.03168 5.23799 2.95179 5.5887C3.46786 5.7854 3.72675 6.36321 3.53005 6.87928C3.51412 6.92108 3.49569 6.96119 3.47499 6.99951C3.28745 7.47802 3.30497 7.8485 3.39234 8.09978C3.48295 8.3604 3.67456 8.57338 3.97514 8.70097C4.45752 8.90573 5.22965 8.75205 5.58297 7.84533C5.58906 7.82886 5.59563 7.81245 5.60266 7.79612C5.82111 7.28888 6.4094 7.05477 6.91665 7.27322C7.43516 7.49652 7.83383 7.48232 8.09939 7.39011C8.36022 7.29954 8.57334 7.10788 8.70098 6.80717C8.90255 6.33231 8.75682 5.57644 7.88679 5.21599C7.85586 5.20608 7.82513 5.19458 7.79469 5.18145C7.5395 5.07137 7.35354 4.86768 7.25962 4.62784C7.17087 4.40342 7.16261 4.14641 7.25558 3.90322C7.26752 3.87199 7.28086 3.84169 7.2955 3.81239Z" fill="currentColor"/>
<path d="M5.90432 4.18218C6.56522 4.46271 6.87356 5.22589 6.59303 5.88679C6.31249 6.54768 5.54931 6.85603 4.88842 6.57549C4.22752 6.29496 3.91918 5.53178 4.19971 4.87089C4.48025 4.20999 5.24343 3.90165 5.90432 4.18218Z" fill="currentColor"/>
</svg>