<svg width="24" height="24" viewBox="0 0 24 24" fill="none" xmlns="http://www.w3.org/2000/svg">
<path fill-rule="evenodd" clip-rule="evenodd" d="M12.2528 2.35436C12.5034 1.92615 13.0336 1.74433 13.4968 1.93522C14.471 2.33674 15.8367 3.06089 16.3343 4.40983L16.3372 4.41803C16.5612 5.04203 16.5584 5.68283 16.4425 6.28385C16.9681 6.29868 17.4971 6.48044 17.9571 6.86647C18.8461 7.61244 19.028 8.74208 18.6799 9.6984C20.2758 12.4427 19.9644 16.0759 17.7443 18.7217C15.5221 21.37 11.9939 22.3068 9.01242 21.2069C8.12469 21.7049 6.9661 21.7117 6.10607 20.9901C5.25919 20.2795 5.05744 19.16 5.37267 18.2093C3.6966 15.4518 3.98482 11.7503 6.23712 9.06608C7.6691 7.35954 9.64398 6.3637 11.6652 6.16559C11.6599 6.15184 11.6546 6.13806 11.6495 6.12418C11.6485 6.12147 11.6475 6.1187 11.6465 6.11598L11.6245 6.0525C11.1788 4.71812 11.749 3.31573 12.2295 2.39655L12.2528 2.35436ZM13.9028 8.33522C11.8239 7.74337 9.37847 8.43396 7.76925 10.3517C5.99197 12.4698 5.86602 15.3325 7.18332 17.3312L7.21183 17.3761C7.48713 17.828 7.47027 18.3413 7.31134 18.7369L7.29494 18.776L7.28292 18.8051C7.16559 19.1039 7.26046 19.3479 7.39162 19.458C7.52863 19.5729 7.80426 19.6235 8.09103 19.4272L8.12648 19.4038C8.49601 19.1654 9.01691 19.0519 9.52775 19.2618L9.63048 19.3027C11.7967 20.1388 14.4861 19.4934 16.2122 17.4362C17.9377 15.3798 18.1069 12.6206 16.909 10.6327L16.8508 10.5386C16.5539 10.0691 16.5761 9.53033 16.7553 9.11969L16.7731 9.08043C16.9153 8.77788 16.8393 8.5393 16.6716 8.3986C16.5105 8.26341 16.2777 8.22801 16.019 8.39244L15.9939 8.40895C15.7114 8.60145 15.3359 8.71789 14.9444 8.67106C14.8079 8.68162 14.6676 8.66446 14.5319 8.61598L14.4868 8.59869C14.3032 8.52303 14.1058 8.43582 13.9028 8.33522ZM13.612 4.2236C13.4506 4.71659 13.4184 5.1277 13.5276 5.4361C13.6422 5.74245 13.9311 6.03658 14.3716 6.31041C14.533 5.81747 14.5653 5.4064 14.4562 5.09801C14.3416 4.79159 14.0526 4.49748 13.612 4.2236Z" fill="#696F88"/>
</svg>
