<svg xmlns="http://www.w3.org/2000/svg" width="24" height="24" viewBox="0 0 15.3812 19.7994" fill="none">
<path id="vector" fill-rule="evenodd" clip-rule="evenodd" d="M7.9528 0.494739C8.20331 0.066531 8.73355 -0.115292 9.19674 0.0755985C10.1709 0.47712 11.5366 1.20127 12.0342 2.55021L12.0372 2.55841C12.2612 3.18241 12.2583 3.82321 12.1424 4.42423C12.668 4.43906 13.197 4.62082 13.6571 5.00685C14.5461 5.75282 14.728 6.88246 14.3798 7.83878C15.9758 10.5831 15.6643 14.2163 13.4442 16.8621C11.222 19.5104 7.69383 20.4471 4.71237 19.3473C3.82464 19.8453 2.66605 19.8521 1.80602 19.1305C0.959144 18.4199 0.757392 17.3003 1.07262 16.3497C-0.603451 13.5922 -0.315226 9.89065 1.93707 7.20646C3.36905 5.49992 5.34393 4.50409 7.3652 4.30597C7.3599 4.29222 7.3546 4.27844 7.34948 4.26456C7.34848 4.26185 7.34743 4.25908 7.34645 4.25636L7.32448 4.19288C6.87872 2.8585 7.44892 1.45611 7.92946 0.536927L7.9528 0.494739ZM9.6028 6.4756C7.52385 5.88375 5.07842 6.57434 3.4692 8.4921C1.69192 10.6102 1.56597 13.4729 2.88327 15.4716L2.91178 15.5165C3.18708 15.9683 3.17022 16.4817 3.01129 16.8773L2.99489 16.9164L2.98288 16.9455C2.86554 17.2443 2.96041 17.4883 3.09157 17.5984C3.22858 17.7133 3.50421 17.7639 3.79098 17.5676L3.82643 17.5442C4.19596 17.3058 4.71686 17.1923 5.2277 17.4022L5.33043 17.4431C7.49662 18.2791 10.186 17.6337 11.9122 15.5766C13.6376 13.5202 13.8069 10.7609 12.609 8.77306L12.5507 8.67902C12.2538 8.20945 12.2761 7.67072 12.4552 7.26007L12.473 7.22081C12.6153 6.91826 12.5392 6.67969 12.3715 6.53898C12.2104 6.40379 11.9777 6.36839 11.7189 6.53283L11.6938 6.54933C11.4113 6.74183 11.0358 6.85827 10.6444 6.81144C10.5078 6.822 10.3675 6.80484 10.2319 6.75636L10.1868 6.73908C10.0032 6.66341 9.80575 6.5762 9.6028 6.4756ZM9.31198 2.36398C9.15055 2.85697 9.11833 3.26808 9.2275 3.57648C9.34216 3.88283 9.63107 4.17696 10.0715 4.45079C10.233 3.95785 10.2652 3.54679 10.1561 3.23839C10.0415 2.93198 9.75253 2.63786 9.31198 2.36398Z" fill="var(--fill-0, #696F88)"/>
</svg>