<svg xmlns="http://www.w3.org/2000/svg" width="24" height="24" viewBox="0 0 21.5 12.5" fill="none">
<path d="M5.75038 8.83692C5.85053 8.57962 6.14023 8.45216 6.39755 8.55225C7.39305 8.93968 8.15148 9.23427 9.17177 9.09854C9.44547 9.06213 9.69684 9.25444 9.73329 9.52813C9.76971 9.80186 9.57733 10.0533 9.3036 10.0898C7.99583 10.2637 7.0105 9.86395 6.03495 9.48428C5.77762 9.38413 5.65024 9.09425 5.75038 8.83692Z" fill="currentColor"/>
<path fill-rule="evenodd" clip-rule="evenodd" d="M11.6534 5.82215e-06C14.2846 0.00908035 15.9618 1.59081 17.3089 2.94473L17.3441 2.98194C17.41 3.05522 17.463 3.136 17.5034 3.2212C19.0736 3.75394 20.2286 4.85954 21.2089 5.84473L21.2441 5.88194C21.5966 6.27393 21.5848 6.87736 21.2089 7.25528C20.8533 7.61262 20.6445 7.85613 20.2798 8.23213C19.9594 8.56236 19.6013 8.90313 19.1698 9.20274C18.269 9.82826 17.1631 10.1958 15.5526 10.2H15.5474C14.8744 10.1982 14.2896 10.1328 13.771 10.0118C13.621 10.1725 13.4721 10.3339 13.2798 10.5321C12.9594 10.8624 12.6013 11.2031 12.1698 11.5027C11.269 12.1283 10.1632 12.4958 8.55263 12.5H8.54735C6.93682 12.4958 5.83097 12.1283 4.93016 11.5027C4.49869 11.2031 4.14055 10.8624 3.8202 10.5321C3.45543 10.1561 3.24666 9.91264 2.8911 9.55528C2.5456 9.208 2.50779 8.67044 2.77743 8.28135C2.62236 8.19526 2.47362 8.10236 2.33016 8.00274C1.89869 7.70312 1.54055 7.36237 1.2202 7.03213C0.855437 6.65611 0.646655 6.41263 0.291102 6.05528C-0.0848931 5.67735 -0.0966649 5.07395 0.255848 4.68194L0.291102 4.64473C1.61716 3.31196 3.26305 1.75843 5.82391 1.70157L5.94657 1.70001C5.94883 1.7 5.95114 1.7 5.95341 1.70001C6.38651 1.7015 6.79374 1.74572 7.17792 1.82442C8.29806 0.867113 9.67154 0.0427014 11.5239 0.00156832L11.6466 5.82215e-06C11.6488 -1.92546e-06 11.6511 -1.95596e-06 11.6534 5.82215e-06ZM8.54999 7.20001C7.12129 7.206 6.08559 7.8787 5.00702 8.87745C5.09932 8.97576 5.18413 9.06572 5.25575 9.13956C5.53971 9.43228 5.79411 9.66776 6.07089 9.85997C6.58594 10.2176 7.27845 10.4959 8.54735 10.5L8.66493 10.4989C9.86279 10.4792 10.5294 10.2069 11.0291 9.85997C11.3059 9.66776 11.5603 9.43228 11.8442 9.13956C11.9159 9.06571 12.0007 8.97578 12.0931 8.87745C11.0145 7.87868 9.97871 7.20601 8.54999 7.20001ZM15.55 4.90001C14.2105 4.90563 13.2164 5.49735 12.2086 6.39434C12.3847 6.51599 12.5548 6.64326 12.7194 6.77432C12.7106 6.69634 12.7199 6.61514 12.7504 6.53692C12.8505 6.27962 13.1402 6.15215 13.3975 6.25225C14.393 6.63968 15.1515 6.93427 16.1718 6.79854C16.4455 6.76213 16.6968 6.95444 16.7333 7.22813C16.7697 7.50186 16.5773 7.75333 16.3036 7.78975C15.1293 7.94596 14.2151 7.63924 13.3345 7.3002C13.6015 7.54301 13.854 7.7903 14.0958 8.03194C14.4795 8.13525 14.9494 8.19809 15.5474 8.20001L15.6649 8.19893C16.8628 8.17923 17.5295 7.90692 18.0291 7.55997C18.3059 7.36777 18.5603 7.13227 18.8442 6.83956C18.9159 6.76572 19.0008 6.67576 19.0931 6.57745C18.0145 5.57869 16.9787 4.90602 15.55 4.90001ZM5.94999 3.70001C4.5213 3.706 3.48558 4.37872 2.40702 5.37745C2.49931 5.47576 2.58413 5.56572 2.65575 5.63956C2.93971 5.93228 3.19411 6.16777 3.47089 6.35997C3.71348 6.52842 3.99547 6.67907 4.35849 6.7919C4.50141 6.67749 4.64843 6.56588 4.79999 6.45831C4.32343 6.3332 3.87815 6.15677 3.43495 5.98428C3.17762 5.88413 3.05024 5.59425 3.15038 5.33692C3.25053 5.07962 3.54023 4.95215 3.79755 5.05225C4.70835 5.40672 5.42068 5.68317 6.31669 5.62374C6.94507 5.37609 7.64179 5.21894 8.42392 5.20157L8.54657 5.20001C8.54885 5.2 8.55113 5.2 8.55341 5.20001C8.83189 5.20097 9.09966 5.21966 9.35751 5.25372C8.32684 4.32358 7.3188 3.70577 5.94999 3.70001ZM11.65 2.00001C10.7577 2.00375 10.0189 2.26773 9.32704 2.7086C10.1275 3.21373 10.8049 3.84495 11.4126 4.44883C12.2439 3.79239 13.2139 3.23483 14.403 3.00831C13.5843 2.38965 12.7293 2.00454 11.65 2.00001Z" fill="currentColor"/>
</svg>