<svg width="24" height="24" viewBox="0 0 24 24" fill="none" xmlns="http://www.w3.org/2000/svg">
<path d="M12.7019 22C11.9581 22 10.651 21.8409 10.2684 20.7726C10.0205 20.0961 10.3664 18.2596 11.3887 14.8222C11.4928 14.8344 11.5999 14.8406 11.704 14.8406C12.4264 14.8406 13.1365 14.5559 13.6661 14.057C16.629 16.1537 18.0003 17.3352 18.2452 18.0025C18.3891 18.4065 18.3584 18.8289 18.1564 19.2575C17.7248 20.1696 16.5188 21.0665 15.0098 21.6021C14.2384 21.8562 13.4181 22 12.7019 22ZM7.04834 20.4022C6.5188 20.4022 5.90356 20.1757 5.26994 19.7472C4.67919 19.3493 4.08537 18.7799 3.59868 18.1463C2.63449 16.8577 2.12944 15.4436 2.27636 14.4549C2.34677 13.9896 2.55797 13.6254 2.90385 13.3744L2.90691 13.3713L2.90997 13.3682C3.45482 12.9122 5.30668 12.6704 8.9155 12.5908C9.08385 13.3989 9.60421 14.0967 10.3388 14.4916C9.28281 17.9045 8.56043 19.6339 7.99723 20.09C7.72786 20.2982 7.40647 20.4022 7.04834 20.4022ZM19.5675 16.1108C18.8451 16.1108 17.2137 15.2079 14.2874 13.1846C14.3395 13.0744 14.3854 12.955 14.4282 12.8203C14.6333 12.1347 14.5782 11.4093 14.2721 10.7695C17.0973 8.64219 18.6798 7.68412 19.393 7.6627C19.4114 7.6627 19.4267 7.6627 19.4451 7.6627C20.3144 7.6627 20.8592 8.35753 21.1653 8.94216C21.5602 9.69821 21.7989 10.742 21.8203 11.8102C21.8448 12.8969 21.6459 13.9712 21.2724 14.7579C20.9878 15.3609 20.4613 16.0833 19.5889 16.1108C19.5797 16.1078 19.5736 16.1108 19.5675 16.1108ZM11.6979 13.0162C11.1347 13.0162 10.6755 12.5571 10.6755 11.997C10.6755 11.4337 11.1347 10.9777 11.6979 10.9777C12.2611 10.9777 12.7202 11.4368 12.7202 11.997C12.7202 12.5602 12.2611 13.0162 11.6979 13.0162ZM7.82887 11.5562C5.00364 11.5562 3.43033 11.394 2.8763 11.042C1.63969 10.1604 2.19984 7.89227 3.35687 6.2057C4.37003 4.76095 5.71378 3.82737 6.77898 3.82737C7.11874 3.82737 7.42789 3.9192 7.70032 4.10591L7.70338 4.10897C8.29413 4.48547 9.08691 6.15979 10.2746 9.52986C9.644 9.89717 9.1818 10.4726 8.96754 11.1674C8.93081 11.2868 8.9002 11.4123 8.87877 11.5501C8.51146 11.5531 8.15945 11.5562 7.82887 11.5562ZM13.6171 9.88798C13.3049 9.60638 12.9284 9.39212 12.5182 9.26968C12.2397 9.18703 11.9581 9.14418 11.6826 9.14418C11.5357 9.14418 11.3918 9.15643 11.2479 9.17785C10.1215 5.87512 9.69604 4.01715 9.90418 3.33762C10.0389 2.89379 10.345 2.55403 10.8194 2.32446C11.2602 2.11019 11.8417 2 12.5029 2C13.1763 2 13.9079 2.11325 14.618 2.33058C16.1301 2.78666 17.3667 3.62535 17.8442 4.51914C18.0707 4.94154 18.1228 5.36395 17.9973 5.77105C17.7922 6.44445 16.4821 7.678 13.6171 9.88798Z" fill="#696F88"/>
</svg>
