<svg xmlns="http://www.w3.org/2000/svg" width="24" height="24" viewBox="0 0 19.6444 20" fill="none">
<path id="vector" d="M10.5239 20C9.78008 20 8.47306 19.8409 8.09045 18.7726C7.84252 18.0961 8.1884 16.2596 9.21075 12.8222C9.31482 12.8344 9.42195 12.8406 9.52602 12.8406C10.2484 12.8406 10.9585 12.5559 11.4881 12.057C14.451 14.1537 15.8223 15.3352 16.0672 16.0025C16.2111 16.4065 16.1805 16.8289 15.9784 17.2575C15.5469 18.1696 14.3409 19.0665 12.8318 19.6021C12.0605 19.8562 11.2401 20 10.5239 20ZM4.87036 18.4022C4.34082 18.4022 3.72558 18.1757 3.09197 17.7472C2.50121 17.3493 1.90739 16.78 1.4207 16.1463C0.456513 14.8577 -0.0485389 13.4435 0.0983854 12.4549C0.168787 11.9896 0.37999 11.6254 0.725874 11.3744L0.728935 11.3713L0.731996 11.3682C1.27684 10.9122 3.1287 10.6704 6.73752 10.5908C6.90587 11.3989 7.42623 12.0967 8.16085 12.4916C7.10483 15.9045 6.38246 17.6339 5.81925 18.09C5.54989 18.2982 5.22849 18.4022 4.87036 18.4022ZM17.3895 14.1108C16.6671 14.1108 15.0357 13.2079 12.1094 11.1846C12.1615 11.0744 12.2074 10.955 12.2502 10.8203C12.4553 10.1347 12.4002 9.40926 12.0941 8.76953C14.9194 6.64219 16.5019 5.68412 17.2151 5.6627C17.2334 5.6627 17.2487 5.6627 17.2671 5.6627C18.1364 5.6627 18.6812 6.35753 18.9873 6.94216C19.3822 7.69821 19.6209 8.74198 19.6424 9.81024C19.6669 10.8969 19.4679 11.9712 19.0945 12.7579C18.8098 13.3609 18.2833 14.0833 17.411 14.1108C17.4018 14.1078 17.3956 14.1108 17.3895 14.1108ZM9.5199 11.0162C8.95669 11.0162 8.49755 10.5571 8.49755 9.99696C8.49755 9.43375 8.95669 8.97767 9.5199 8.97767C10.0831 8.97767 10.5422 9.43681 10.5422 9.99696C10.5422 10.5602 10.0831 11.0162 9.5199 11.0162ZM5.6509 9.55618C2.82567 9.55618 1.25235 9.39396 0.698326 9.04195C-0.538286 8.16041 0.0218625 5.89227 1.17889 4.2057C2.19206 2.76095 3.5358 1.82737 4.601 1.82737C4.94076 1.82737 5.24991 1.9192 5.52234 2.10591L5.5254 2.10897C6.11616 2.48547 6.90893 4.15979 8.09657 7.52986C7.46602 7.89717 7.00382 8.47262 6.78956 9.16745C6.75283 9.28682 6.72222 9.41232 6.70079 9.55006C6.33348 9.55312 5.98148 9.55618 5.6509 9.55618ZM11.4391 7.88798C11.1269 7.60638 10.7504 7.39212 10.3402 7.26968C10.0617 7.18703 9.78008 7.14418 9.5046 7.14418C9.35767 7.14418 9.21381 7.15643 9.06994 7.17785C7.94353 3.87512 7.51806 2.01715 7.7262 1.33762C7.86088 0.893788 8.16697 0.554026 8.64142 0.324457C9.08219 0.110193 9.66376 0 10.3249 0C10.9983 0 11.7299 0.113254 12.44 0.330579C13.9521 0.786656 15.1887 1.62535 15.6662 2.51914C15.8927 2.94154 15.9448 3.36395 15.8193 3.77105C15.6142 4.44445 14.3041 5.678 11.4391 7.88798Z" fill="var(--fill-0, #696F88)"/>
</svg>