<svg xmlns="http://www.w3.org/2000/svg" width="24" height="24" viewBox="0 0 14.5 20.5177" fill="none">
<path id="vector" fill-rule="evenodd" clip-rule="evenodd" d="M2.44932 0.348015C3.47463 0.0305215 4.98714 -0.275229 6.26064 0.423796C6.26306 0.425125 6.26556 0.426452 6.26797 0.4278C7.17454 0.935272 7.70992 1.81881 8.0417 2.66052C8.46967 2.24492 8.95589 1.92685 9.56963 1.59069C10.054 1.32539 10.6617 1.50299 10.9271 1.98737C11.1924 2.47176 11.0148 3.07949 10.5304 3.34479C9.69745 3.801 9.32877 4.10636 8.93252 4.72643C8.74438 5.05434 8.587 5.42678 8.4834 5.81257C8.6091 5.90833 8.70965 6.0334 8.78057 6.1735C8.981 6.01039 9.23897 5.91774 9.5 5.91774C9.88133 5.91774 10.2559 6.1156 10.4544 6.44186C10.602 6.36268 10.7708 6.31774 10.95 6.31774C11.5004 6.31774 11.9516 6.74136 11.996 7.28034C12.1044 7.24027 12.2229 7.21774 12.35 7.21774C12.978 7.21774 13.4 7.76074 13.4 8.31774C13.4 8.45961 13.3724 8.60049 13.3212 8.7318C13.884 8.82593 14.2 9.37838 14.2 9.86774C14.2 10.1629 14.0847 10.4807 13.87 10.7074C14.2589 10.884 14.5 11.2968 14.5 11.7177C14.5 12.1115 14.289 12.4978 13.9436 12.6907C14.1686 12.9009 14.3 13.2071 14.3 13.5177C14.3 14.0358 13.935 14.5416 13.3786 14.6098C13.5205 14.7979 13.6 15.033 13.6 15.2677C13.6 15.7917 13.2054 16.3177 12.6 16.3177C12.5946 16.3177 12.5892 16.3175 12.5838 16.3174C12.6591 16.4722 12.7 16.6443 12.7 16.8177C12.7 17.3748 12.2781 17.9177 11.65 17.9177C11.5594 17.9177 11.4732 17.9063 11.3918 17.8853C11.397 17.9292 11.4 17.9734 11.4 18.0177C11.4 18.5748 10.9781 19.1177 10.35 19.1177C10.2231 19.1177 10.1047 19.0952 9.99639 19.0552C9.94869 19.6347 9.43073 20.0177 8.9 20.0177C8.66525 20.0177 8.43314 19.9426 8.24297 19.8089C8.10134 20.2213 7.71045 20.5177 7.25 20.5177C6.78954 20.5177 6.39856 20.2213 6.25693 19.8089C6.06677 19.9426 5.83472 20.0177 5.6 20.0177C5.06927 20.0177 4.55121 19.6347 4.50352 19.0552C4.39523 19.0952 4.27689 19.1177 4.15 19.1177C3.52195 19.1177 3.1 18.5748 3.1 18.0177C3.1 17.9734 3.10287 17.9292 3.10811 17.8853C3.02677 17.9063 2.94055 17.9177 2.85 17.9177C2.22195 17.9177 1.8 17.3748 1.8 16.8177C1.8 16.6443 1.84081 16.4722 1.91611 16.3174C1.91076 16.3175 1.90539 16.3177 1.9 16.3177C1.29464 16.3177 0.9 15.7917 0.9 15.2677C0.900003 15.033 0.979383 14.7979 1.12129 14.6098C0.564983 14.5416 0.2 14.0358 0.2 13.5177C0.200004 13.2071 0.3313 12.9009 0.556348 12.6907C0.210985 12.4978 0 12.1114 0 11.7177C5.82367e-06 11.2968 0.241067 10.884 0.629883 10.7074C0.415203 10.4807 0.3 10.1629 0.3 9.86774C0.300007 9.37841 0.615972 8.82598 1.17871 8.7318C1.12754 8.6005 1.1 8.4596 1.1 8.31774C1.10001 7.76074 1.52195 7.21774 2.15 7.21774C2.27704 7.21774 2.39552 7.24029 2.50391 7.28034C2.54834 6.74135 2.99955 6.31774 3.55 6.31774C3.72921 6.31774 3.8979 6.3627 4.04551 6.44186C4.24397 6.11558 4.61866 5.91774 5 5.91774C5.261 5.91774 5.51891 6.01042 5.71934 6.1735C5.86234 5.89097 6.12656 5.67018 6.47207 5.62604C6.51021 5.44457 6.55655 5.26639 6.60947 5.09245C5.74147 5.24085 4.74852 5.23728 3.86943 4.75475C3.86702 4.75343 3.86461 4.75209 3.86221 4.75075C2.59454 4.04118 2.05231 2.59642 1.77822 1.55866C1.64138 1.04051 1.93738 0.506539 2.44932 0.348015ZM8.53682 7.47878C8.37061 7.62494 8.15395 7.71774 7.9 7.71774C7.83486 7.71774 7.77224 7.7113 7.71221 7.69977C7.59987 7.74346 7.47778 7.76774 7.35 7.76774C7.19313 7.76774 7.04473 7.73154 6.9126 7.66716C6.81634 7.6997 6.71178 7.71774 6.6 7.71774C6.34602 7.71774 6.1293 7.62497 5.96309 7.47878C5.76706 7.81384 5.38706 8.01774 5 8.01774C4.81322 8.01774 4.62813 7.97011 4.46445 7.88337C4.28425 8.20228 3.94243 8.41774 3.55 8.41774C3.42688 8.41774 3.3088 8.39632 3.19902 8.35739C3.18131 8.85186 2.83424 9.32517 2.30908 9.40563C2.3689 9.55521 2.4 9.71454 2.4 9.86774C2.4 10.2772 2.17878 10.7307 1.77695 10.9231C1.98161 11.1317 2.1 11.4227 2.1 11.7177C2.1 12.0284 1.9686 12.3345 1.74355 12.5447C2.08899 12.7376 2.29999 13.124 2.3 13.5177C2.3 13.7754 2.20956 14.0299 2.05039 14.2292C2.56987 14.3078 2.89999 14.7886 2.9 15.2677C2.9 15.4225 2.86531 15.5774 2.80117 15.7189C2.81731 15.7182 2.83358 15.7177 2.85 15.7177C3.47805 15.7177 3.89999 16.2607 3.9 16.8177C3.9 16.862 3.89702 16.9062 3.8918 16.9501C3.97315 16.9291 4.05943 16.9177 4.15 16.9177C4.76809 16.9177 5.1862 17.4437 5.19932 17.9913C5.32679 17.9434 5.46295 17.9177 5.6 17.9177C6.0447 17.9177 6.48005 18.1869 6.6377 18.6149C6.81008 18.4909 7.02146 18.4177 7.25 18.4177C7.47852 18.4177 7.68984 18.491 7.86221 18.6149C8.01985 18.1868 8.45529 17.9177 8.9 17.9177C9.03702 17.9177 9.17314 17.9434 9.30059 17.9913C9.3137 17.4437 9.73191 16.9177 10.35 16.9177C10.4405 16.9177 10.5268 16.9291 10.6081 16.9501C10.6029 16.9062 10.6 16.862 10.6 16.8177C10.6 16.2607 11.022 15.7177 11.65 15.7177C11.6664 15.7177 11.6826 15.7182 11.6987 15.7189C11.6346 15.5774 11.6 15.4225 11.6 15.2677C11.6 14.7886 11.9301 14.3079 12.4495 14.2292C12.2904 14.0299 12.2 13.7753 12.2 13.5177C12.2 13.124 12.411 12.7376 12.7563 12.5447C12.5313 12.3345 12.4 12.0284 12.4 11.7177C12.4 11.4228 12.5183 11.1317 12.7229 10.9231C12.3212 10.7307 12.1 10.2771 12.1 9.86774C12.1 9.71455 12.131 9.5552 12.1908 9.40563C11.6657 9.32513 11.3186 8.85183 11.3009 8.35739C11.1911 8.3963 11.0731 8.41774 10.95 8.41774C10.5575 8.41774 10.2156 8.2023 10.0354 7.88337C9.87179 7.97009 9.68675 8.01774 9.5 8.01774C9.11293 8.01774 8.73284 7.81387 8.53682 7.47878ZM5.29463 2.17516C4.98559 2.00699 4.56311 1.96413 4.05342 2.02858C4.26885 2.49494 4.52918 2.83054 4.83555 3.00348C5.14457 3.17159 5.56705 3.2146 6.07666 3.15016C5.86124 2.68377 5.60099 2.34815 5.29463 2.17516Z" fill="var(--fill-0, #696F88)"/>
</svg>