<svg width="24" height="24" viewBox="0 0 24 24" fill="none" xmlns="http://www.w3.org/2000/svg">
<path fill-rule="evenodd" clip-rule="evenodd" d="M7.09922 2.18029C8.12453 1.8628 9.63704 1.55705 10.9105 2.25607C10.913 2.2574 10.9155 2.25873 10.9179 2.26008C11.8244 2.76755 12.3598 3.65109 12.6916 4.49279C13.1196 4.07719 13.6058 3.75912 14.2195 3.42297C14.7039 3.15766 15.3116 3.33526 15.577 3.81965C15.8423 4.30403 15.6647 4.91176 15.1803 5.17707C14.3474 5.63328 13.9787 5.93863 13.5824 6.55871C13.3943 6.88662 13.2369 7.25905 13.1333 7.64484C13.259 7.74061 13.3595 7.86567 13.4305 8.00578C13.6309 7.84267 13.8889 7.75002 14.1499 7.75002C14.5312 7.75002 14.9058 7.94788 15.1043 8.27414C15.2519 8.19495 15.4207 8.15002 15.5999 8.15002C16.1504 8.15002 16.6015 8.57363 16.6459 9.11261C16.7543 9.07254 16.8728 9.05002 16.9999 9.05002C17.628 9.05002 18.0499 9.59301 18.0499 10.15C18.0499 10.2919 18.0223 10.4328 17.9711 10.5641C18.5339 10.6582 18.8499 11.2107 18.8499 11.7C18.8499 11.9952 18.7346 12.313 18.5199 12.5397C18.9088 12.7163 19.1499 13.129 19.1499 13.55C19.1499 13.9437 18.9389 14.3301 18.5935 14.523C18.8185 14.7331 18.9499 15.0393 18.9499 15.35C18.9499 15.8681 18.5849 16.3739 18.0285 16.4421C18.1704 16.6302 18.2499 16.8652 18.2499 17.1C18.2499 17.624 17.8553 18.15 17.2499 18.15C17.2445 18.15 17.2391 18.1498 17.2337 18.1497C17.309 18.3045 17.3499 18.4766 17.3499 18.65C17.3499 19.207 16.928 19.75 16.2999 19.75C16.2093 19.75 16.1231 19.7386 16.0417 19.7176C16.0469 19.7615 16.0499 19.8057 16.0499 19.85C16.0499 20.407 15.628 20.95 14.9999 20.95C14.873 20.95 14.7546 20.9275 14.6463 20.8875C14.5986 21.467 14.0806 21.85 13.5499 21.85C13.3152 21.85 13.083 21.7749 12.8929 21.6411C12.7512 22.0535 12.3604 22.35 11.8999 22.35C11.4394 22.35 11.0485 22.0535 10.9068 21.6411C10.7167 21.7748 10.4846 21.85 10.2499 21.85C9.71917 21.85 9.20111 21.467 9.15342 20.8875C9.04513 20.9275 8.9268 20.95 8.7999 20.95C8.17185 20.95 7.7499 20.407 7.7499 19.85C7.7499 19.8057 7.75277 19.7615 7.75801 19.7176C7.67667 19.7386 7.59045 19.75 7.4999 19.75C6.87185 19.75 6.4499 19.207 6.4499 18.65C6.4499 18.4766 6.49072 18.3045 6.56602 18.1497C6.56066 18.1498 6.55529 18.15 6.5499 18.15C5.94454 18.15 5.5499 17.624 5.5499 17.1C5.54991 16.8653 5.62929 16.6302 5.77119 16.4421C5.21489 16.3738 4.8499 15.8681 4.8499 15.35C4.84991 15.0394 4.9812 14.7331 5.20625 14.523C4.86089 14.3301 4.6499 13.9437 4.6499 13.55C4.64991 13.1291 4.89097 12.7163 5.27979 12.5397C5.06511 12.313 4.9499 11.9951 4.9499 11.7C4.94991 11.2107 5.26587 10.6583 5.82861 10.5641C5.77744 10.4328 5.7499 10.2919 5.7499 10.15C5.74991 9.59301 6.17185 9.05002 6.7999 9.05002C6.92694 9.05002 7.04542 9.07256 7.15381 9.11261C7.19824 8.57363 7.64945 8.15002 8.1999 8.15002C8.37911 8.15002 8.54781 8.19498 8.69541 8.27414C8.89387 7.94785 9.26856 7.75002 9.6499 7.75002C9.91091 7.75002 10.1688 7.8427 10.3692 8.00578C10.5122 7.72325 10.7765 7.50246 11.122 7.45832C11.1601 7.27685 11.2065 7.09867 11.2594 6.92472C10.3914 7.07312 9.39842 7.06955 8.51934 6.58703C8.51693 6.58571 8.51451 6.58437 8.51211 6.58302C7.24444 5.87346 6.70221 4.4287 6.42813 3.39094C6.29129 2.87279 6.58729 2.33881 7.09922 2.18029ZM13.1867 9.31105C13.0205 9.45721 12.8039 9.55002 12.5499 9.55002C12.4848 9.55002 12.4221 9.54357 12.3621 9.53205C12.2498 9.57573 12.1277 9.60002 11.9999 9.60002C11.843 9.60001 11.6946 9.56381 11.5625 9.49943C11.4662 9.53198 11.3617 9.55002 11.2499 9.55002C10.9959 9.55002 10.7792 9.45724 10.613 9.31105C10.417 9.64612 10.037 9.85002 9.6499 9.85002C9.46313 9.85002 9.27803 9.80239 9.11436 9.71564C8.93415 10.0346 8.59234 10.25 8.1999 10.25C8.07678 10.25 7.9587 10.2286 7.84893 10.1897C7.83122 10.6841 7.48414 11.1574 6.95898 11.2379C7.0188 11.3875 7.0499 11.5468 7.0499 11.7C7.0499 12.1094 6.82869 12.563 6.42686 12.7554C6.63152 12.9639 6.7499 13.255 6.7499 13.55C6.7499 13.8607 6.6185 14.1668 6.39346 14.377C6.73889 14.5699 6.9499 14.9563 6.9499 15.35C6.9499 15.6076 6.85947 15.8622 6.70029 16.0614C7.21977 16.1401 7.5499 16.6208 7.5499 17.1C7.5499 17.2548 7.51521 17.4097 7.45107 17.5512C7.46721 17.5505 7.48348 17.55 7.4999 17.55C8.12795 17.55 8.54989 18.093 8.5499 18.65C8.5499 18.6943 8.54693 18.7385 8.5417 18.7823C8.62305 18.7613 8.70933 18.75 8.7999 18.75C9.418 18.75 9.8361 19.2759 9.84922 19.8236C9.97669 19.7757 10.1129 19.75 10.2499 19.75C10.6946 19.75 11.1299 20.0191 11.2876 20.4472C11.46 20.3232 11.6714 20.25 11.8999 20.25C12.1284 20.25 12.3397 20.3232 12.5121 20.4472C12.6697 20.0191 13.1052 19.75 13.5499 19.75C13.6869 19.75 13.823 19.7757 13.9505 19.8236C13.9636 19.2759 14.3818 18.75 14.9999 18.75C15.0904 18.75 15.1767 18.7614 15.258 18.7823C15.2528 18.7385 15.2499 18.6943 15.2499 18.65C15.2499 18.093 15.6719 17.55 16.2999 17.55C16.3163 17.55 16.3325 17.5505 16.3486 17.5512C16.2845 17.4097 16.2499 17.2548 16.2499 17.1C16.2499 16.6209 16.58 16.1402 17.0994 16.0614C16.9403 15.8622 16.8499 15.6076 16.8499 15.35C16.8499 14.9563 17.0609 14.5699 17.4062 14.377C17.1812 14.1668 17.0499 13.8606 17.0499 13.55C17.0499 13.255 17.1682 12.9639 17.3729 12.7554C16.9711 12.5629 16.7499 12.1094 16.7499 11.7C16.7499 11.5468 16.7809 11.3875 16.8407 11.2379C16.3156 11.1574 15.9685 10.6841 15.9508 10.1897C15.841 10.2286 15.723 10.25 15.5999 10.25C15.2075 10.25 14.8656 10.0346 14.6854 9.71564C14.5217 9.80236 14.3366 9.85002 14.1499 9.85002C13.7628 9.85002 13.3827 9.64614 13.1867 9.31105ZM9.94453 4.00744C9.6355 3.83927 9.21301 3.79641 8.70332 3.86086C8.91875 4.32721 9.17908 4.66281 9.48545 4.83576C9.79447 5.00387 10.217 5.04688 10.7266 4.98244C10.5111 4.51605 10.2509 4.18043 9.94453 4.00744Z" fill="#696F88"/>
</svg>
