<svg width="24" height="24" viewBox="0 0 24 24" fill="none" xmlns="http://www.w3.org/2000/svg">
<path fill-rule="evenodd" clip-rule="evenodd" d="M11.5219 2.0718C11.9919 1.81604 12.5765 1.97624 12.8526 2.42756L12.8783 2.47209L12.9055 2.52287C12.9865 2.67662 13.062 2.84328 13.1286 3.01984C14.1346 2.68461 15.3102 2.50768 16.4185 2.92785L16.4262 2.93078C17.9735 3.5321 18.8353 5.092 19.3344 6.27961C19.5356 6.75824 19.3364 7.30804 18.883 7.54943L18.8384 7.5718C18.6105 7.67906 18.3627 7.78744 18.1 7.8883C18.4862 8.97949 18.7 10.289 18.7 11.8438C18.7 13.2597 18.6948 16.0446 16.1673 19.0629L16.0451 19.2068C14.6119 20.8692 12.9079 21.6878 11.4151 21.9516C10.6733 22.0827 9.96891 22.0793 9.36567 21.9632C8.81274 21.8568 8.22337 21.6307 7.82163 21.2024L7.78335 21.1603C7.03667 20.3137 7.09772 19.3572 7.22095 18.6447C7.35919 17.8455 7.53324 17.3728 7.53325 16.7062C7.53325 16.4847 7.46265 16.1431 7.29683 15.6388C7.13388 15.1432 6.91934 14.6037 6.68091 13.9713C6.22695 12.7673 5.69996 11.2711 5.69995 9.80148C5.69997 7.01909 7.8249 4.07835 11.2118 3.61359C11.1928 3.57004 11.1729 3.52733 11.1519 3.48586L11.1216 3.42814L11.0981 3.38234C10.8691 2.90546 11.052 2.32756 11.5219 2.0718ZM11.8907 5.55695C9.31349 5.69356 7.69997 7.8416 7.69995 9.80148C7.69996 10.8603 8.08959 12.0385 8.55229 13.2657C8.77219 13.8489 9.01603 14.4643 9.19683 15.0141C9.37473 15.5551 9.53325 16.1497 9.53325 16.7062C9.53324 17.5954 9.27138 18.5247 9.19165 18.9857C9.09691 19.5334 9.15803 19.6953 9.28325 19.8373L9.28179 19.8354C9.28348 19.8341 9.40082 19.9332 9.7438 19.9992C10.0798 20.0639 10.5364 20.0758 11.067 19.982C12.1192 19.7961 13.4064 19.2044 14.5302 17.9009L14.6306 17.7828C16.705 15.308 16.7 13.1083 16.7 11.8438C16.7 10.3524 16.4775 9.21365 16.1382 8.3506C15.5986 8.38512 15.0466 8.332 14.5092 8.14133L14.4364 8.11467C14.4338 8.11369 14.4312 8.11264 14.4287 8.11164L14.3567 8.08273C13.1786 7.59563 12.4061 6.54957 11.8907 5.55695ZM15.7056 4.7966C15.1947 4.60443 14.5438 4.664 13.812 4.90109C14.1972 5.56699 14.641 6.04694 15.1493 6.24601C15.6602 6.43817 16.3112 6.37844 17.043 6.14133C16.6578 5.47544 16.2139 4.9957 15.7056 4.7966Z" fill="#696F88"/>
</svg>
