<svg width="24" height="24" viewBox="0 0 24 24" fill="none" xmlns="http://www.w3.org/2000/svg">
<path fill-rule="evenodd" clip-rule="evenodd" d="M12.4223 1.8C13.3891 1.80002 14.0617 2.37465 14.4797 3.09864C14.8743 3.78225 15.109 4.69312 15.2641 5.69825C15.5715 7.69034 15.621 10.4693 15.6226 13.6817C15.7176 13.6819 15.8122 13.6843 15.9061 13.6886C17.4799 13.7608 19.2078 14.3895 20.4955 15.5601C20.7798 15.8186 20.891 16.2172 20.7812 16.5856C20.6715 16.9539 20.3603 17.2267 19.9808 17.2874L19.8772 17.3046C17.7204 17.6735 16.7272 18.5971 16.0192 19.1073L16.0098 19.114L15.953 19.1531C15.1384 19.7029 14.2228 19.8292 13.4228 19.6126V21.2C13.4228 21.7523 12.9751 22.2 12.4228 22.2C11.8706 22.2 11.4228 21.7523 11.4228 21.2V18.1365C10.4598 18.3306 9.34048 18.0348 8.32097 17.2506C7.53296 16.6573 6.45151 15.5706 4.049 14.9408L3.93308 14.911C3.58029 14.8223 3.30347 14.5489 3.21033 14.1973C3.11722 13.8456 3.22247 13.471 3.48513 13.2192C4.873 11.8892 6.78005 11.5046 8.47254 11.6765C8.72587 11.7022 8.97937 11.741 9.23054 11.7923C9.25524 9.26029 9.34293 7.07448 9.62088 5.44922C9.78111 4.51229 10.0202 3.65684 10.4162 3.0125C10.8383 2.32579 11.4997 1.80001 12.4223 1.8ZM15.8145 15.6864C14.618 15.6315 13.8663 16.0209 13.5883 16.5011C13.4824 16.684 13.4367 16.8378 13.4228 16.9617V17.1299C13.4241 17.14 13.4255 17.1497 13.4271 17.1591C13.4522 17.3041 13.5292 17.4342 13.6536 17.5349C13.8956 17.7308 14.3552 17.8315 14.8573 17.4794C15.2944 17.1632 16.0496 16.5098 17.3108 15.9761C16.8148 15.8071 16.3038 15.7089 15.8145 15.6864ZM8.27039 13.6662C7.71012 13.6093 7.15515 13.6365 6.63699 13.7521C8.09902 14.4348 8.96238 15.218 9.46375 15.6067L9.53064 15.6579L9.54041 15.6653C10.5074 16.4091 11.1308 16.1921 11.3187 16.0444C11.4275 15.9589 11.4889 15.8446 11.4982 15.708C11.5076 15.5713 11.4679 15.3348 11.2258 15.032C10.6947 14.3682 9.5798 13.7992 8.27039 13.6662ZM12.4223 3.8C12.3815 3.8 12.2883 3.78616 12.1201 4.05977C11.9258 4.37583 11.7388 4.92933 11.5923 5.78633C11.3192 7.38303 11.2408 9.6715 11.2251 12.51C11.8391 12.8448 12.3787 13.2716 12.7875 13.7826C12.9138 13.9405 13.0242 14.1041 13.118 14.2718C13.2799 14.1807 13.4488 14.1012 13.6228 14.0327V13.8531C13.6228 10.5358 13.5728 7.85176 13.2876 6.00323C13.1436 5.07039 12.9538 4.45587 12.7475 4.09864C12.5647 3.78193 12.46 3.79999 12.4223 3.8Z" fill="#696F88"/>
</svg>
