<svg xmlns="http://www.w3.org/2000/svg" width="24" height="24" viewBox="0 0 17.6459 20.4" fill="none">
<path id="vector" fill-rule="evenodd" clip-rule="evenodd" d="M9.24534 0C10.2121 1.77105e-05 10.8847 0.574645 11.3027 1.29863C11.6973 1.98224 11.932 2.89311 12.0871 3.89824C12.3945 5.89033 12.444 8.66925 12.4456 11.8817C12.5406 11.8819 12.6352 11.8843 12.7291 11.8886C14.3029 11.9608 16.0308 12.5895 17.3185 13.7601C17.6028 14.0186 17.714 14.4172 17.6042 14.7855C17.4945 15.1539 17.1833 15.4267 16.8038 15.4874L16.7002 15.5046C14.5434 15.8735 13.5502 16.7971 12.8422 17.3073L12.8328 17.314L12.776 17.3531C11.9614 17.9029 11.0458 18.0292 10.2458 17.8126V19.4C10.2458 19.9523 9.79811 20.4 9.24583 20.4C8.69356 20.4 8.24583 19.9523 8.24583 19.4V16.3365C7.28284 16.5306 6.16348 16.2348 5.14397 15.4506C4.35596 14.8573 3.27451 13.7705 0.872 13.1408L0.756082 13.111C0.403292 13.0223 0.126468 12.7489 0.033328 12.3973C-0.0597811 12.0456 0.0454719 11.671 0.308133 11.4192C1.696 10.0892 3.60305 9.70457 5.29553 9.87646C5.54887 9.9022 5.80237 9.94096 6.05354 9.99229C6.07824 7.46029 6.16593 5.27448 6.44388 3.64922C6.60411 2.71229 6.84316 1.85684 7.23919 1.2125C7.66127 0.52579 8.32267 1.08692e-05 9.24534 0ZM12.6375 13.8864C11.441 13.8315 10.6893 14.2209 10.4113 14.7011C10.3054 14.884 10.2597 15.0378 10.2458 15.1617V15.3299C10.2471 15.34 10.2485 15.3497 10.2501 15.3591C10.2752 15.5041 10.3522 15.6342 10.4766 15.7349C10.7186 15.9308 11.1782 16.0315 11.6803 15.6794C12.1174 15.3632 12.8725 14.7098 14.1338 14.1761C13.6378 14.0071 13.1268 13.9089 12.6375 13.8864ZM5.09339 11.8662C4.53312 11.8093 3.97815 11.8365 3.45999 11.9521C4.92201 12.6348 5.78538 13.418 6.28675 13.8067L6.35364 13.8579L6.36341 13.8653C7.33038 14.6091 7.95379 14.3921 8.14173 14.2444C8.25054 14.1589 8.31185 14.0446 8.32122 13.908C8.33058 13.7713 8.2909 13.5348 8.04876 13.232C7.51771 12.5682 6.4028 11.9992 5.09339 11.8662ZM9.24534 2C9.20454 1.99999 9.11127 1.98616 8.94309 2.25977C8.74884 2.57582 8.56183 3.12933 8.41526 3.98633C8.1422 5.58303 8.06382 7.8715 8.04807 10.71C8.66206 11.0448 9.20167 11.4716 9.61048 11.9826C9.73679 12.1405 9.8472 12.3041 9.94104 12.4718C10.1029 12.3807 10.2718 12.3012 10.4458 12.2327V12.0531C10.4458 8.73585 10.3958 6.05176 10.1106 4.20322C9.96664 3.27039 9.77678 2.65586 9.57054 2.29863C9.38768 1.98193 9.28297 1.99999 9.24534 2Z" fill="var(--fill-0, #696F88)"/>
</svg>