<svg width="24" height="24" viewBox="0 0 24 24" fill="none" xmlns="http://www.w3.org/2000/svg">
<path fill-rule="evenodd" clip-rule="evenodd" d="M12.0262 2.10039C12.0319 2.10055 12.0377 2.10072 12.0434 2.10098C12.0545 2.10145 12.0657 2.10218 12.0769 2.10303C12.0803 2.1033 12.0838 2.10351 12.0872 2.10381C12.099 2.10483 12.1108 2.10607 12.1226 2.10752C12.1266 2.10801 12.1305 2.10854 12.1345 2.10908C12.1472 2.1108 12.16 2.11282 12.1727 2.11504C12.1735 2.11518 12.1743 2.11529 12.1751 2.11543L12.1967 2.11924C12.2037 2.12065 12.2107 2.12237 12.2177 2.12393C12.2197 2.12437 12.2217 2.12484 12.2237 2.12529C12.237 2.12836 12.2503 2.13172 12.2636 2.13535C12.2649 2.13572 12.2663 2.13606 12.2676 2.13643C12.2809 2.14011 12.2941 2.14408 12.3072 2.14834C12.3095 2.14908 12.3118 2.14983 12.3141 2.15059C12.3256 2.15442 12.3372 2.15842 12.3487 2.1627C12.3532 2.16438 12.3577 2.16612 12.3622 2.16787C12.3715 2.17149 12.3807 2.17529 12.39 2.1792C12.3967 2.18206 12.4035 2.18507 12.4102 2.18809C12.4169 2.1911 12.4236 2.19409 12.4302 2.19727C12.4405 2.20215 12.4506 2.20726 12.4608 2.2125C12.4639 2.21413 12.467 2.21572 12.4701 2.21738C12.4831 2.22426 12.4959 2.23141 12.5085 2.23887C12.5093 2.23934 12.5101 2.23986 12.5109 2.24033C12.5761 2.27906 12.6374 2.32561 12.6934 2.37959C12.6978 2.38384 12.7023 2.38797 12.7067 2.39229C12.7116 2.39726 12.7164 2.40242 12.7213 2.40752C12.7277 2.41414 12.7341 2.42068 12.7403 2.42744C12.7434 2.43093 12.7464 2.43455 12.7495 2.43809C12.7813 2.47399 12.8102 2.51179 12.8361 2.55127L15.3603 6.35908L16.0181 6.13984L16.0489 6.13008C16.6879 5.93722 17.3513 6.35534 17.4529 7.01494L17.4574 7.04697L17.9828 11.25H18.8011C19.5707 11.25 20.0985 12.0182 19.8324 12.7325L19.8192 12.7665L18.6396 15.65H19.174C19.8438 15.65 20.4279 16.2811 20.238 17.0155L20.2283 17.0506C19.6581 19.0104 16.878 22.1 12.15 22.1C12.099 22.1 12.0489 22.096 11.9999 22.0887C11.951 22.096 11.901 22.1 11.85 22.1C7.12198 22.1 4.34192 19.0104 3.7717 17.0506L3.76203 17.0155C3.57216 16.2811 4.15623 15.65 4.82599 15.65H5.36047L4.18088 12.7665L4.1676 12.7325C3.90152 12.0182 4.42929 11.25 5.19894 11.25H6.01721L6.5426 7.04697L6.54709 7.01494C6.64875 6.35534 7.31218 5.93722 7.95109 6.13008L7.98195 6.13984L8.63976 6.35908L11.1639 2.55127C11.1981 2.49903 11.2376 2.44968 11.282 2.40391C11.2852 2.40063 11.2883 2.39727 11.2915 2.39404L11.2951 2.39043C11.298 2.38755 11.3011 2.38479 11.304 2.38193C11.3603 2.32725 11.4221 2.28018 11.4879 2.24102C11.49 2.23977 11.4921 2.23853 11.4942 2.23731C11.5059 2.23044 11.5177 2.22384 11.5297 2.21748C11.5329 2.21578 11.5361 2.21416 11.5393 2.2125C11.5494 2.20727 11.5595 2.20214 11.5697 2.19727C11.5764 2.19409 11.5831 2.1911 11.5898 2.18809C11.5965 2.18507 11.6032 2.18206 11.61 2.1792C11.6192 2.17528 11.6284 2.17149 11.6377 2.16787C11.6422 2.16612 11.6467 2.16438 11.6513 2.1627C11.6628 2.15842 11.6743 2.15442 11.6859 2.15059C11.6881 2.14983 11.6904 2.14908 11.6927 2.14834C11.7205 2.13935 11.7485 2.13165 11.7767 2.1252C11.7784 2.1248 11.7801 2.12441 11.7819 2.12402C11.8096 2.11783 11.8375 2.11286 11.8654 2.10908C11.8694 2.10854 11.8734 2.10801 11.8774 2.10752C11.8891 2.10607 11.9009 2.10483 11.9127 2.10381C11.9162 2.10351 11.9196 2.1033 11.9231 2.10303C11.9342 2.10218 11.9454 2.10145 11.9566 2.10098C11.9623 2.10072 11.968 2.10055 11.9737 2.10039C11.9825 2.10017 11.9913 2.09999 12 2.1C12.0087 2.09999 12.0175 2.10017 12.0262 2.10039ZM9.9258 8.03867L9.89933 8.07686C9.61877 8.46385 9.118 8.62678 8.66115 8.47451L8.39103 8.38438L7.90324 12.2864L7.89562 12.3376C7.80511 12.8623 7.34916 13.25 6.81174 13.25H6.53957L7.71916 16.1335C8.0152 16.8572 7.48296 17.65 6.70109 17.65H6.34953C7.22398 18.7439 8.92337 19.9898 11.5042 20.0929C11.5035 19.9585 11.5029 19.8115 11.5024 19.6533C11.5016 19.4268 11.5011 19.177 11.5007 18.9077L10.0465 17.4535C9.85126 17.2583 9.85126 16.9417 10.0465 16.7465C10.2418 16.5512 10.5583 16.5512 10.7535 16.7465L11.5003 17.4933C11.5004 17.1772 11.5004 16.8484 11.5007 16.5107C11.501 16.1841 11.5016 15.849 11.5021 15.5091L10.0465 14.0535C9.85126 13.8583 9.85126 13.5417 10.0465 13.3465C10.2418 13.1512 10.5583 13.1512 10.7535 13.3465L11.5045 14.0975C11.5059 13.4297 11.5074 12.7611 11.5091 12.1161L10.0465 10.6535C9.85126 10.4583 9.85126 10.1417 10.0465 9.94649C10.2418 9.75123 10.5583 9.75124 10.7535 9.94649L11.5129 10.7059C11.5145 10.162 11.5162 9.65326 11.5178 9.19824L11.5185 9.17256C11.5328 8.90843 11.752 8.6991 12.0195 8.7C12.2869 8.70094 12.5047 8.91176 12.5172 9.17598L12.5178 9.20176C12.5162 9.64855 12.5146 10.1471 12.513 10.6799L13.2465 9.94649C13.4418 9.75124 13.7583 9.75123 13.9535 9.94649C14.1488 10.1417 14.1488 10.4583 13.9535 10.6535L12.5091 12.0979C12.5074 12.7456 12.5059 13.4174 12.5045 14.0884L13.2465 13.3465C13.4418 13.1512 13.7583 13.1512 13.9535 13.3465C14.1488 13.5417 14.1488 13.8583 13.9535 14.0535L12.5021 15.5049C12.5016 15.8466 12.501 16.1834 12.5007 16.5117C12.5004 16.8489 12.5004 17.1771 12.5003 17.4926L13.2465 16.7465C13.4418 16.5512 13.7583 16.5512 13.9535 16.7465C14.1488 16.9417 14.1488 17.2583 13.9535 17.4535L12.5007 18.9062C12.5011 19.175 12.5016 19.4242 12.5024 19.6501C12.5029 19.8099 12.5034 19.9579 12.5041 20.0926C15.0803 19.9871 16.777 18.7427 17.6505 17.65H17.2989C16.5171 17.65 15.9848 16.8572 16.2809 16.1335L17.4605 13.25H17.1883C16.6509 13.25 16.1949 12.8623 16.1044 12.3376L16.0968 12.2864L15.609 8.38438L15.3389 8.47451C14.882 8.62678 14.3813 8.46385 14.1007 8.07686L14.0742 8.03867L12 4.90977L9.9258 8.03867Z" fill="#696F88"/>
</svg>
