<svg xmlns="http://www.w3.org/2000/svg" width="24" height="24" viewBox="0 0 16.5486 20" fill="none">
<path id="vector" fill-rule="evenodd" clip-rule="evenodd" d="M8.30048 0.000390883C8.30621 0.000545859 8.31194 0.000723709 8.31767 0.00097682C8.32884 0.00145127 8.34 0.00217672 8.35117 0.0030276C8.35462 0.00329592 8.35807 0.00350496 8.36152 0.00380885C8.37331 0.00483105 8.38509 0.00607451 8.39687 0.00751979C8.40084 0.00801247 8.40481 0.00854223 8.40878 0.00908229C8.42153 0.0108036 8.43425 0.0128175 8.44697 0.0150393C8.44778 0.0151817 8.4486 0.0152856 8.44941 0.0154299L8.47099 0.0192385C8.47801 0.0206448 8.48498 0.0223649 8.49199 0.023926C8.49397 0.0243692 8.49596 0.024838 8.49794 0.0252932C8.5113 0.0283562 8.52461 0.0317217 8.53788 0.0353518C8.53922 0.0357154 8.54056 0.0360569 8.54189 0.036426C8.55516 0.0401137 8.56837 0.0440814 8.58154 0.0483401C8.58382 0.0490754 8.58609 0.0498344 8.58837 0.0505862C8.59994 0.0544197 8.61147 0.0584171 8.62294 0.0626956C8.62748 0.0643796 8.632 0.0661209 8.63652 0.0678714C8.6458 0.0714902 8.65504 0.0752849 8.66425 0.0791995C8.67103 0.0820627 8.67775 0.0850714 8.68447 0.0880862C8.69115 0.0911008 8.69785 0.0940929 8.70449 0.0972659C8.71476 0.10215 8.72493 0.107258 8.73505 0.1125C8.73817 0.114126 8.74132 0.115721 8.74443 0.117383C8.75736 0.124256 8.77015 0.131409 8.78281 0.138867C8.7836 0.139336 8.78436 0.139861 8.78515 0.140332C8.85043 0.179059 8.91169 0.22561 8.96767 0.27959C8.97209 0.283839 8.97662 0.287968 8.98095 0.292285C8.98592 0.297261 8.99072 0.302423 8.9956 0.30752C9.00197 0.314139 9.00839 0.320675 9.01454 0.327442C9.0177 0.330925 9.02071 0.33455 9.02382 0.338086C9.05557 0.37399 9.08446 0.411786 9.11034 0.45127L11.6346 4.25908L12.2924 4.03984L12.3232 4.03008C12.9621 3.83722 13.6256 4.25534 13.7272 4.91494L13.7317 4.94697L14.2571 9.15H15.0754C15.845 9.15002 16.3728 9.91825 16.1067 10.6325L16.0934 10.6665L14.9139 13.55H15.4483C16.1181 13.55 16.7022 14.1811 16.5123 14.9155L16.5026 14.9506C15.9324 16.9104 13.1523 20 8.42431 20C8.37329 20 8.32318 19.996 8.27421 19.9887C8.22531 19.996 8.17527 20 8.12431 20C3.39628 20 0.616209 16.9104 0.0459897 14.9506L0.0363217 14.9155C-0.153545 14.1811 0.430519 13.55 1.10029 13.55H1.63476L0.455169 10.6665L0.441888 10.6325C0.175816 9.91824 0.703585 9.15002 1.47324 9.15H2.2915L2.81689 4.94697L2.82138 4.91494C2.92304 4.25534 3.58647 3.83722 4.22538 4.03008L4.25624 4.03984L4.91406 4.25908L7.43818 0.45127C7.47242 0.399032 7.51188 0.349677 7.55634 0.303907C7.55951 0.300626 7.5626 0.297273 7.56581 0.294043L7.56943 0.29043C7.57233 0.287547 7.57536 0.284786 7.57831 0.281934C7.63462 0.227252 7.69639 0.180182 7.7622 0.141016C7.76428 0.139773 7.76636 0.138531 7.76845 0.137305C7.78018 0.130441 7.79203 0.123844 7.804 0.117481C7.80717 0.115784 7.81038 0.11416 7.81357 0.1125C7.82366 0.107272 7.83379 0.102138 7.84404 0.0972659C7.85067 0.0940925 7.85738 0.0911012 7.86406 0.0880862C7.87078 0.085071 7.87749 0.0820631 7.88427 0.0791995C7.89348 0.0752843 7.90272 0.0714909 7.91201 0.0678714C7.91652 0.0661206 7.92104 0.06438 7.92558 0.0626956C7.93705 0.0584163 7.94859 0.0544206 7.96015 0.0505862C7.96243 0.0498343 7.9647 0.0490756 7.96699 0.0483401C7.99477 0.0393517 8.02278 0.0316498 8.05097 0.0251956C8.05269 0.0248009 8.05442 0.0244093 8.05615 0.0240237C8.08389 0.0178282 8.11177 0.0128607 8.13974 0.00908229C8.14371 0.00854191 8.14768 0.0080128 8.15165 0.00751979C8.16343 0.00607352 8.17521 0.00483205 8.18701 0.00380885C8.19045 0.00350467 8.19391 0.00329621 8.19736 0.0030276C8.20852 0.00217577 8.21968 0.00145222 8.23085 0.00097682C8.23658 0.000723222 8.24231 0.000546347 8.24804 0.000390883C8.2568 0.000168834 8.26556 -7.68115e-06 8.27431 2.57664e-07C8.28303 -7.54536e-06 8.29175 0.000170405 8.30048 0.000390883ZM6.20009 5.93867L6.17363 5.97686C5.89306 6.36385 5.39229 6.52678 4.93544 6.37451L4.66533 6.28438L4.17753 10.1864L4.16992 10.2376C4.0794 10.7623 3.62346 11.15 3.08603 11.15H2.81386L3.99345 14.0335C4.28949 14.7572 3.75725 15.55 2.97538 15.55H2.62382C3.49827 16.6439 5.19766 17.8898 7.77851 17.9929C7.77783 17.8585 7.77715 17.7115 7.77665 17.5533C7.77594 17.3268 7.77537 17.077 7.77499 16.8077L6.32079 15.3535C6.12555 15.1583 6.12555 14.8417 6.32079 14.6465C6.51605 14.4512 6.83256 14.4512 7.02783 14.6465L7.7746 15.3933C7.77469 15.0772 7.77467 14.7484 7.77499 14.4107C7.77531 14.0841 7.77586 13.749 7.77636 13.4091L6.32079 11.9535C6.12555 11.7583 6.12555 11.4417 6.32079 11.2465C6.51605 11.0512 6.83256 11.0512 7.02783 11.2465L7.7788 11.9975C7.78015 11.3297 7.78171 10.6611 7.78339 10.0161L6.32079 8.55352C6.12555 8.35826 6.12555 8.04174 6.32079 7.84648C6.51605 7.65123 6.83256 7.65124 7.02783 7.84648L7.7872 8.60586C7.78883 8.06202 7.79051 7.55326 7.79208 7.09824L7.79277 7.07256C7.80706 6.80843 8.02625 6.5991 8.29374 6.6C8.56124 6.60094 8.77901 6.81176 8.7915 7.07598L8.79208 7.10176C8.79054 7.54855 8.7889 8.04714 8.7873 8.57988L9.52079 7.84648C9.71606 7.65124 10.0326 7.65123 10.2278 7.84648C10.4231 8.04174 10.4231 8.35826 10.2278 8.55352L8.78339 9.99785C8.7817 10.6456 8.78016 11.3174 8.7788 11.9884L9.52079 11.2465C9.71606 11.0512 10.0326 11.0512 10.2278 11.2465C10.4231 11.4417 10.4231 11.7583 10.2278 11.9535L8.77636 13.4049C8.77586 13.7466 8.77531 14.0834 8.77499 14.4117C8.77467 14.7489 8.77469 15.0771 8.7746 15.3926L9.52079 14.6465C9.71606 14.4512 10.0326 14.4512 10.2278 14.6465C10.4231 14.8417 10.4231 15.1583 10.2278 15.3535L8.77499 16.8063C8.77537 17.075 8.77594 17.3242 8.77665 17.5501C8.77716 17.7099 8.77774 17.8579 8.77841 17.9926C11.3546 17.8871 13.0513 16.6427 13.9248 15.55H13.5732C12.7914 15.55 12.2591 14.7572 12.5552 14.0335L13.7348 11.15H13.4626C12.9252 11.15 12.4692 10.7623 12.3787 10.2376L12.3711 10.1864L11.8833 6.28438L11.6132 6.37451C11.1563 6.52678 10.6556 6.36385 10.375 5.97686L10.3485 5.93867L8.27431 2.80977L6.20009 5.93867Z" fill="var(--fill-0, #696F88)"/>
</svg>