<svg width="24" height="24" viewBox="0 0 24 24" fill="none" xmlns="http://www.w3.org/2000/svg">
<path d="M7.0329 14.4932C7 14.4176 7.06758 14.3372 7.14755 14.357C8.4637 14.6843 9.50177 15.1052 10.2409 15.6154C10.9161 16.0809 11.3017 16.5941 11.3884 17.1404C11.3915 17.1573 11.3967 17.1738 11.4001 17.1906C11.5438 17.8165 11.8554 18.8805 12.3067 19.2628C12.4337 19.3684 12.5721 19.4567 12.7195 19.5301C12.8098 19.5751 12.9035 19.6144 13.0001 19.6486V21.8406C13.0001 22.3929 12.5524 22.8406 12.0001 22.8406C11.4478 22.8406 11.0001 22.3929 11.0001 21.8406V18.8357C11 18.6588 10.7723 18.5549 10.6137 18.6326C10.5848 18.6472 10.5552 18.661 10.5252 18.6739C10.5227 18.675 10.5201 18.6761 10.5176 18.6772C10.4883 18.6896 10.4586 18.7014 10.4283 18.7123C10.4264 18.713 10.4245 18.7137 10.4225 18.7144C10.41 18.7189 10.3973 18.7232 10.3846 18.7274C10.3812 18.7285 10.3778 18.7297 10.3744 18.7308C10.3605 18.7353 10.3465 18.7395 10.3324 18.7437L10.3281 18.745C10.2977 18.7539 10.2668 18.7621 10.2355 18.7695C10.2304 18.7707 10.2252 18.7718 10.22 18.773C10.2086 18.7755 10.1972 18.778 10.1857 18.7804C10.1819 18.7812 10.178 18.7821 10.1741 18.7828C10.158 18.786 10.1418 18.789 10.1255 18.7918L10.1214 18.7925C10.1071 18.7949 10.0927 18.7971 10.0783 18.7992C10.073 18.8 10.0676 18.8008 10.0622 18.8015C10.0509 18.803 10.0396 18.8044 10.0282 18.8058C10.0234 18.8063 10.0186 18.807 10.0139 18.8075C9.99739 18.8094 9.98079 18.811 9.96415 18.8124L9.96005 18.8127C9.9458 18.8139 9.93145 18.8149 9.91708 18.8157C9.91053 18.8161 9.90393 18.8165 9.89735 18.8168C9.88604 18.8174 9.87465 18.8178 9.86327 18.8182C9.85766 18.8184 9.852 18.8185 9.84637 18.8187C9.82999 18.8191 9.81349 18.8195 9.79696 18.8195L9.7579 18.8191C9.7545 18.819 9.75105 18.8188 9.74764 18.8187C9.7393 18.8185 9.73091 18.8181 9.72255 18.8178C9.71921 18.8177 9.71583 18.8175 9.71249 18.8173C9.11973 18.7909 8.48608 18.4885 7.87216 17.9387C7.22973 17.3644 6.63233 16.5495 6.09227 15.5146C6.05398 15.4412 6.11736 15.3566 6.19872 15.3719L7.33866 15.5855C7.41749 15.6002 7.48074 15.5208 7.44872 15.4473L7.0329 14.4932Z" fill="#696F88"/>
<path d="M16.9599 13.757C17.0398 13.7372 17.1074 13.8177 17.0745 13.8932L16.6586 14.8473C16.6266 14.9208 16.6899 15.0002 16.7687 14.9855L17.9087 14.7719C17.99 14.7567 18.0533 14.8412 18.015 14.9146C17.475 15.9495 16.8777 16.7644 16.2352 17.3387C15.5921 17.9147 14.9272 18.2194 14.3104 18.2195C13.3936 18.2195 12.7 17.6002 12.7 16.7794C12.7 16.1434 13.0936 15.5482 13.8664 15.0154C14.6055 14.5051 15.6437 14.0843 16.9599 13.757Z" fill="#696F88"/>
<path d="M7.0328 10.0836C6.99988 10.0081 7.06748 9.9276 7.14745 9.94748C8.46363 10.2747 9.50167 10.6956 10.2408 11.2059C11.0136 11.7387 11.4072 12.3339 11.4072 12.9698C11.4072 13.7906 10.7137 14.4099 9.79686 14.4099C9.18007 14.4099 8.51526 14.105 7.87206 13.529C7.22964 12.9547 6.63233 12.1399 6.09227 11.1049C6.054 11.0315 6.11727 10.9471 6.19862 10.9623L7.33856 11.1759C7.41743 11.1907 7.48069 11.1112 7.44862 11.0376L7.0328 10.0836Z" fill="#696F88"/>
<path d="M16.9599 9.24748C17.0398 9.22762 17.1074 9.30808 17.0745 9.38361L16.6586 10.3376C16.6265 10.4112 16.6899 10.4907 16.7687 10.4759L17.9087 10.2623C17.99 10.2471 18.0533 10.3315 18.015 10.4049C17.475 11.4399 16.8777 12.2547 16.2352 12.829C15.5921 13.405 14.9272 13.7099 14.3104 13.7099C13.3936 13.7099 12.7 13.0906 12.7 12.2698C12.7 11.6339 13.0936 11.0387 13.8664 10.5059C14.6055 9.99557 15.6437 9.57471 16.9599 9.24748Z" fill="#696F88"/>
<path d="M7.0328 5.67404C6.99987 5.5985 7.06748 5.51803 7.14745 5.53791C8.46363 5.86513 9.50167 6.286 10.2408 6.79631C11.0136 7.32911 11.4072 7.92427 11.4072 8.56027C11.4072 9.38106 10.7137 10.0003 9.79686 10.0003C9.18007 10.0003 8.51526 9.69545 7.87206 9.11945C7.22963 8.54513 6.63233 7.73031 6.09227 6.69533C6.05398 6.62195 6.11727 6.53741 6.19862 6.55266L7.33856 6.76633C7.41743 6.7811 7.48068 6.7016 7.44862 6.62805L7.0328 5.67404Z" fill="#696F88"/>
<path d="M16.9599 4.73791C17.0398 4.71804 17.1074 4.79851 17.0745 4.87404L16.6586 5.82805C16.6265 5.90161 16.6899 5.98111 16.7687 5.96633L17.9087 5.75266C17.99 5.73745 18.0533 5.82196 18.015 5.89533C17.475 6.9303 16.8777 7.74513 16.2352 8.31945C15.5921 8.89544 14.9272 9.2003 14.3104 9.20031C13.3936 9.20031 12.7 8.58107 12.7 7.76027C12.7 7.12428 13.0936 6.5291 13.8664 5.99631C14.6055 5.486 15.6437 5.06514 16.9599 4.73791Z" fill="#696F88"/>
<path d="M11.2357 1.25197C11.2716 1.1848 11.3663 1.18234 11.4066 1.24689L11.9472 2.11223C11.9863 2.17491 12.0776 2.1749 12.1168 2.11223L12.6573 1.24719C12.6977 1.18257 12.7924 1.18503 12.8282 1.25226C13.2431 2.03213 13.664 3.08206 13.6641 4.13195C13.6689 5.18555 12.92 6.076 12.0344 6.076C11.1488 6.07597 10.4 5.18553 10.4 4.13195C10.4 3.07986 10.8209 2.02985 11.2357 1.25197Z" fill="#696F88"/>
</svg>
