<svg xmlns="http://www.w3.org/2000/svg" width="24" height="24" viewBox="0 0 11.9457 21.6406" fill="none">
<path d="M0.952088 13.2932C0.919184 13.2176 0.986771 13.1372 1.06674 13.1571C2.38289 13.4843 3.42096 13.9052 4.1601 14.4155C4.83525 14.8809 5.22088 15.3941 5.30756 15.9405C5.31069 15.9573 5.31591 15.9738 5.31928 15.9906C5.46297 16.6165 5.77457 17.6805 6.22592 18.0628C6.35289 18.1684 6.49131 18.2567 6.63871 18.3301C6.72904 18.3751 6.82266 18.4145 6.91927 18.4486V20.6406C6.91927 21.1929 6.47154 21.6406 5.91928 21.6406C5.36699 21.6406 4.91928 21.1929 4.91928 20.6406V17.6357C4.9192 17.4588 4.6915 17.3549 4.53285 17.4326C4.50398 17.4472 4.47443 17.461 4.44437 17.4739C4.44186 17.475 4.43928 17.4761 4.43676 17.4772C4.40754 17.4896 4.37777 17.5014 4.3475 17.5123C4.34559 17.513 4.34364 17.5137 4.34174 17.5144C4.32918 17.5189 4.31648 17.5232 4.30375 17.5274C4.30037 17.5285 4.29698 17.5297 4.29359 17.5308C4.27972 17.5353 4.26567 17.5395 4.2516 17.5437L4.2473 17.545C4.2169 17.554 4.18601 17.5621 4.15472 17.5695C4.14958 17.5707 4.14437 17.5718 4.1392 17.573C4.12784 17.5755 4.11639 17.578 4.10492 17.5804C4.10106 17.5812 4.09717 17.5821 4.0933 17.5828C4.07721 17.586 4.06096 17.589 4.04467 17.5918L4.04056 17.5925C4.0263 17.5949 4.01191 17.5971 3.9975 17.5992C3.99215 17.6 3.98675 17.6008 3.98138 17.6015C3.97012 17.603 3.95876 17.6044 3.9474 17.6058C3.94263 17.6063 3.93783 17.607 3.93304 17.6075C3.91658 17.6094 3.89998 17.611 3.88334 17.6124L3.87924 17.6127C3.86499 17.6139 3.85064 17.6149 3.83627 17.6157C3.82972 17.6161 3.82311 17.6165 3.81654 17.6168C3.80523 17.6174 3.79384 17.6178 3.78246 17.6182C3.77685 17.6184 3.77119 17.6185 3.76556 17.6187C3.74918 17.6191 3.73268 17.6195 3.71615 17.6195L3.67709 17.6191C3.67369 17.619 3.67024 17.6188 3.66683 17.6187C3.65849 17.6185 3.6501 17.6181 3.64174 17.6178C3.6384 17.6177 3.63502 17.6175 3.63168 17.6173C3.03892 17.5909 2.40527 17.2885 1.79135 16.7387C1.14892 16.1644 0.551521 15.3495 0.0114628 14.3146C-0.0268286 14.2412 0.0365524 14.1567 0.117908 14.1719L1.25785 14.3855C1.33668 14.4002 1.39993 14.3208 1.36791 14.2473L0.952088 13.2932Z" fill="var(--fill-0, #696F88)"/>
<path d="M10.879 12.5571C10.959 12.5372 11.0266 12.6177 10.9937 12.6932L10.5778 13.6473C10.5457 13.7208 10.6091 13.8002 10.6879 13.7855L11.8279 13.5719C11.9092 13.5567 11.9725 13.6412 11.9342 13.7146C11.3942 14.7495 10.7969 15.5644 10.1544 16.1387C9.51124 16.7147 8.84642 17.0194 8.22963 17.0195C7.31283 17.0195 6.61918 16.4002 6.61918 15.5794C6.6192 14.9434 7.01281 14.3482 7.78558 13.8155C8.52473 13.3051 9.56284 12.8843 10.879 12.5571Z" fill="var(--fill-0, #696F88)"/>
<path d="M0.95199 8.88362C0.919067 8.80807 0.986667 8.7276 1.06664 8.74748C2.38281 9.07471 3.42086 9.49558 4.16 10.0059C4.93279 10.5387 5.3264 11.1339 5.3264 11.7698C5.3264 12.5906 4.63284 13.2099 3.71605 13.2099C3.09925 13.2099 2.43445 12.905 1.79125 12.329C1.14883 11.7547 0.551519 10.9399 0.0114628 9.9049C-0.0268116 9.83153 0.0364605 9.74708 0.11781 9.76233L1.25775 9.9759C1.33662 9.99067 1.39987 9.91118 1.36781 9.83762L0.95199 8.88362Z" fill="var(--fill-0, #696F88)"/>
<path d="M10.879 8.04748C10.959 8.02762 11.0266 8.10809 10.9937 8.18362L10.5778 9.13762C10.5457 9.21118 10.6091 9.29068 10.6879 9.2759L11.8279 9.06233C11.9092 9.04711 11.9725 9.13154 11.9342 9.2049C11.3942 10.2399 10.7968 11.0547 10.1544 11.629C9.51124 12.205 8.84642 12.5099 8.22963 12.5099C7.31283 12.5099 6.61918 11.8906 6.61918 11.0698C6.61919 10.4339 7.01281 9.83867 7.78558 9.30588C8.52473 8.79557 9.56284 8.37471 10.879 8.04748Z" fill="var(--fill-0, #696F88)"/>
<path d="M0.95199 4.47405C0.919061 4.3985 0.986665 4.31803 1.06664 4.33791C2.38282 4.66514 3.42086 5.08601 4.16 5.59631C4.9328 6.12911 5.3264 6.72428 5.3264 7.36028C5.3264 8.18107 4.63284 8.80031 3.71605 8.80031C3.09925 8.80031 2.43445 8.49545 1.79125 7.91946C1.14882 7.34513 0.551521 6.53031 0.0114628 5.49533C-0.0268286 5.42195 0.0364547 5.33741 0.11781 5.35266L1.25775 5.56633C1.33662 5.5811 1.39987 5.50161 1.36781 5.42805L0.95199 4.47405Z" fill="var(--fill-0, #696F88)"/>
<path d="M10.879 3.53791C10.959 3.51805 11.0266 3.59851 10.9937 3.67405L10.5778 4.62805C10.5457 4.70161 10.6091 4.78111 10.6879 4.76633L11.8279 4.55266C11.9092 4.53745 11.9725 4.62197 11.9342 4.69533C11.3942 5.7303 10.7968 6.54513 10.1544 7.11945C9.51124 7.69544 8.84642 8.00031 8.22963 8.00031C7.31283 8.00031 6.61918 7.38107 6.61918 6.56028C6.61918 5.92428 7.0128 5.3291 7.78558 4.79631C8.52473 4.286 9.56284 3.86514 10.879 3.53791Z" fill="var(--fill-0, #696F88)"/>
<path d="M5.15492 0.0519748C5.19076 -0.0151921 5.28547 -0.0176571 5.32582 0.0468967L5.86635 0.912229C5.90551 0.974911 5.9968 0.974898 6.03597 0.912229L6.5765 0.0471897C6.61687 -0.0174255 6.71159 -0.01497 6.7474 0.0522678C7.16229 0.832137 7.58324 1.88207 7.58324 2.93196C7.58804 3.98555 6.83915 4.876 5.95355 4.876C5.06798 4.87597 4.31918 3.98554 4.31918 2.93196C4.31918 1.87986 4.74004 0.829857 5.15492 0.0519748Z" fill="var(--fill-0, #696F88)"/>
</svg>