<svg width="24" height="24" viewBox="0 0 24 24" fill="none" xmlns="http://www.w3.org/2000/svg">
<path fill-rule="evenodd" clip-rule="evenodd" d="M17.7897 2.38377C17.9045 2.08496 18.2333 1.93149 18.5349 2.02948L20.5852 2.69569C20.8868 2.79368 21.0625 3.11106 20.9798 3.4203L20.971 3.45018L20.9292 3.58133C20.8269 3.90525 20.6963 4.35071 20.6137 4.80926C20.5291 5.27922 20.5082 5.69624 20.5733 5.99618C20.6196 6.0607 20.664 6.12765 20.7059 6.19715C21.1819 6.98668 21.2697 7.96097 20.9229 9.0285L20.8932 9.11717C20.2461 11.0119 17.9927 14.8001 14.9841 17.7108C11.9659 20.6308 7.75904 23.0545 3.4591 20.993C3.10852 20.8249 2.88708 20.4687 2.89142 20.08C2.89578 19.6912 3.12502 19.3403 3.47921 19.1801C6.53012 17.8001 9.17251 15.1603 11.1429 12.5908C13.1219 10.01 14.3153 7.64448 14.5396 6.95438C14.8864 5.88688 15.5302 5.15035 16.3793 4.79139C16.4539 4.75988 16.5289 4.73181 16.6041 4.70692C16.8332 4.50258 17.0617 4.15283 17.2695 3.72264C17.5012 3.24323 17.6721 2.74076 17.7792 2.41317L17.7897 2.38377ZM18.1684 6.64598C17.7689 6.51621 17.4167 6.52423 17.158 6.63358C16.9304 6.72981 16.6408 6.9596 16.4417 7.57245C16.1199 8.56282 14.7805 11.1337 12.7299 13.8078C11.1346 15.8882 9.04402 18.1173 6.56388 19.7487C8.95487 19.8367 11.3849 18.4102 13.5936 16.2734C16.4151 13.5437 18.4691 10.0202 18.9968 8.48211L19.0207 8.41043C19.2199 7.79755 19.1207 7.44142 18.9931 7.22977C18.8571 7.00428 18.6023 6.80256 18.2419 6.67127L18.1684 6.64598ZM18.6015 3.10262C18.4931 3.41071 18.349 3.7872 18.1699 4.1577C18.1053 4.29155 18.0334 4.43002 17.9542 4.56776C18.2447 4.59654 18.5252 4.65897 18.7864 4.74383L18.8541 4.76639C19.093 4.84858 19.3329 4.95564 19.563 5.09032C19.5799 4.93244 19.6032 4.77826 19.6295 4.63202C19.7024 4.22704 19.8072 3.83775 19.9006 3.52479L18.6015 3.10262Z" fill="#696F88"/>
</svg>
