<svg width="24" height="24" viewBox="0 0 24 24" fill="none" xmlns="http://www.w3.org/2000/svg">
<path d="M13.9313 14.2066C14.1227 13.9518 14.6855 14.0653 15.1883 14.4601C15.6912 14.8548 15.9436 15.3814 15.7522 15.6362C15.5608 15.891 14.998 15.7776 14.4952 15.3828C13.9924 14.988 13.7399 14.4614 13.9313 14.2066Z" fill="#696F88"/>
<path d="M5.88423 12.9375C6.38706 12.5427 6.94986 12.4293 7.14126 12.6841C7.33259 12.9389 7.0801 13.4655 6.57729 13.8602C6.07446 14.255 5.51166 14.3685 5.32026 14.1137C5.12887 13.8589 5.38139 13.3323 5.88423 12.9375Z" fill="#696F88"/>
<path fill-rule="evenodd" clip-rule="evenodd" d="M9.40044 2.48495C10.5745 2.49588 12.0764 2.70212 13.1721 3.7122L13.1766 3.7164C13.8206 4.31864 14.2096 5.09759 14.4486 5.8832C16.0334 4.19506 18.1121 3.21935 19.847 2.64101L19.8865 2.629C20.2942 2.51571 20.7237 2.74095 20.859 3.14697C20.9944 3.55301 20.786 3.99091 20.3917 4.14492L20.3531 4.15898C19.2254 4.5349 18.0261 5.06011 16.955 5.81835C17.1766 5.81792 17.4016 5.83553 17.6289 5.8746L17.6349 5.87568C19.1495 6.14734 20.305 7.29218 21.0773 8.25029C21.2314 8.44152 21.3003 8.68727 21.2667 8.92646C21.233 9.16562 21.1001 9.37581 20.9009 9.50497C19.9187 10.142 18.5333 10.8239 17.0441 10.5964L16.9731 10.585C16.9711 10.5846 16.9689 10.5842 16.9669 10.5839C15.8734 10.3877 14.9671 9.73629 14.257 9.02871C13.9405 9.74462 13.7209 10.5529 13.6291 11.4666C15.3662 11.5186 17.0834 12.6679 18.0445 14.3325C19.398 16.6769 19.1165 19.8093 16.8201 21.1352C14.5236 22.461 11.6701 21.1387 10.3166 18.7942C10.2164 18.6208 10.1255 18.4429 10.0434 18.2619C8.54931 19.956 6.20053 20.7373 4.25239 19.6126C1.95596 18.2867 1.67443 15.1543 3.02798 12.8099C4.33976 10.5378 7.06027 9.22575 9.31724 10.3537C9.88503 9.75072 10.5574 9.21903 11.2024 8.76269C11.4314 8.60064 11.6648 8.44299 11.8947 8.29189C11.265 8.11774 10.6452 7.82873 10.1155 7.35839L10.0621 7.31015C10.0606 7.30878 10.059 7.30733 10.0576 7.30595C8.93375 6.25491 8.58574 4.66592 8.45806 3.44199L8.45444 3.39619C8.44236 3.16749 8.51818 2.94268 8.66645 2.77158C8.82464 2.58906 9.05046 2.48469 9.28784 2.48447L9.40044 2.48495ZM16.3125 15.3325C15.3028 13.5837 13.556 13.1377 12.5411 13.7236C11.5261 14.3096 11.0389 16.0454 12.0486 17.7942C13.0583 19.5431 14.8051 19.9891 15.8201 19.4031C16.835 18.8171 17.3221 17.0813 16.3125 15.3325ZM8.5314 12.2011C7.51644 11.6151 5.7697 12.0611 4.76001 13.8099C3.75032 15.5587 4.23744 17.2946 5.25239 17.8806C6.26736 18.4665 8.01419 18.0204 9.02388 16.2716C10.0335 14.5228 9.54635 12.7871 8.5314 12.2011ZM12.1265 10.0688C11.5554 10.4729 11.0193 10.9009 10.5802 11.3482C10.81 11.6234 10.9987 11.9269 11.1475 12.2506C11.2714 12.1581 11.4026 12.0715 11.5411 11.9916C11.6922 11.9044 11.8457 11.8286 12.001 11.7639C12.0012 11.76 12.0013 11.7562 12.0015 11.7523C12.0392 11.121 12.1265 10.5304 12.2564 9.97773C12.2132 10.0078 12.1699 10.0381 12.1265 10.0688ZM17.3943 7.56503C16.8014 7.46399 16.163 7.61676 15.5213 7.91718C16.0497 8.42312 16.6154 8.78742 17.2075 8.89453C17.8004 8.99563 18.4388 8.84279 19.0805 8.54238C18.5522 8.03641 17.9864 7.6721 17.3943 7.56503ZM10.2929 4.28183C10.4615 4.99363 10.7386 5.60682 11.1774 6.01845C11.6202 6.42551 12.2392 6.64414 12.9412 6.74062C12.7725 6.02876 12.4956 5.41552 12.0567 5.0039C11.6138 4.59687 10.9949 4.37829 10.2929 4.28183Z" fill="#696F88"/>
</svg>
