<svg xmlns="http://www.w3.org/2000/svg" width="24" height="24" viewBox="0 0 19.0622 19.1775" fill="none">
<path d="M11.7185 11.7222C11.9099 11.4674 12.4727 11.5808 12.9756 11.9756C13.4784 12.3704 13.7308 12.8969 13.5394 13.1518C13.348 13.4066 12.7852 13.2931 12.2824 12.8983C11.7796 12.5036 11.5271 11.977 11.7185 11.7222Z" fill="currentColor"/>
<path d="M3.67146 10.453C4.1743 10.0583 4.7371 9.9448 4.92849 10.1996C5.11982 10.4544 4.86733 10.981 4.36453 11.3758C3.86169 11.7706 3.29889 11.884 3.10749 11.6292C2.9161 11.3744 3.16862 10.8478 3.67146 10.453Z" fill="currentColor"/>
<path fill-rule="evenodd" clip-rule="evenodd" d="M7.18767 0.000488281C8.36175 0.0114123 9.8636 0.217651 10.9593 1.22773L10.9638 1.23193C11.6078 1.83417 11.9968 2.61312 12.2358 3.39873C13.8206 1.7106 15.8993 0.734887 17.6343 0.156543L17.6737 0.144531C18.0815 0.0312387 18.5109 0.256485 18.6463 0.6625C18.7816 1.06854 18.5732 1.50644 18.179 1.66045L18.1403 1.67451C17.0126 2.05043 15.8133 2.57564 14.7423 3.33389C14.9639 3.33346 15.1888 3.35106 15.4161 3.39014L15.4221 3.39121C16.9367 3.66287 18.0923 4.80771 18.8645 5.76582C19.0187 5.95706 19.0875 6.2028 19.0539 6.44199C19.0202 6.68115 18.8873 6.89135 18.6882 7.02051C17.7059 7.65756 16.3205 8.33944 14.8313 8.11191L14.7603 8.10049C14.7583 8.10014 14.7562 8.09977 14.7542 8.09941C13.6606 7.90326 12.7543 7.25182 12.0442 6.54424C11.7277 7.26015 11.5081 8.06842 11.4163 8.98213C13.1534 9.0341 14.8706 10.1834 15.8317 11.848C17.1853 14.1925 16.9037 17.3248 14.6073 18.6507C12.3109 19.9765 9.45734 18.6542 8.10378 16.3098C8.00365 16.1363 7.91272 15.9585 7.83064 15.7774C6.33654 17.4715 3.98776 18.2529 2.03962 17.1281C-0.256804 15.8023 -0.538341 12.6698 0.81521 10.3254C2.12699 8.05338 4.8475 6.74129 7.10447 7.86924C7.67226 7.26625 8.34464 6.73456 8.98962 6.27822C9.21867 6.11617 9.45202 5.95852 9.68191 5.80742C9.05221 5.63327 8.43245 5.34426 7.90271 4.87393L7.84929 4.82568C7.84781 4.82431 7.84627 4.82286 7.8448 4.82148C6.72098 3.77045 6.37297 2.18145 6.24529 0.95752L6.24167 0.911719C6.2296 0.683024 6.30541 0.458215 6.45369 0.287109C6.61187 0.10459 6.8377 0.000226661 7.07507 0L7.18767 0.000488281ZM14.0997 12.848C13.09 11.0993 11.3433 10.6532 10.3283 11.2392C9.31334 11.8251 8.82614 13.5609 9.83581 15.3098C10.8455 17.0586 12.5923 17.5046 13.6073 16.9187C14.6222 16.3327 15.1094 14.5969 14.0997 12.848ZM6.31863 9.7166C5.30367 9.13064 3.55693 9.5766 2.54724 11.3254C1.53755 13.0742 2.02467 14.8101 3.03962 15.3961C4.05459 15.9821 5.80142 15.5359 6.81111 13.7871C7.82075 12.0383 7.33358 10.3026 6.31863 9.7166ZM9.91374 7.58438C9.34262 7.98846 8.8065 8.4164 8.36746 8.86377C8.59728 9.13894 8.78596 9.44238 8.93474 9.76611C9.05865 9.6736 9.18982 9.58708 9.3283 9.50713C9.47939 9.41989 9.63292 9.34416 9.78826 9.27939C9.78843 9.27556 9.78852 9.27171 9.78874 9.26787C9.82641 8.63657 9.91376 8.04594 10.0436 7.49326C10.0004 7.52331 9.95714 7.55367 9.91374 7.58438ZM15.1815 5.08057C14.5886 4.97952 13.9502 5.13229 13.3086 5.43271C13.8369 5.93866 14.4026 6.30295 14.9947 6.41006C15.5876 6.51116 16.2261 6.35833 16.8677 6.05791C16.3394 5.55194 15.7736 5.18763 15.1815 5.08057ZM8.08015 1.79736C8.24876 2.50916 8.5258 3.12235 8.96462 3.53398C9.40746 3.94105 10.0265 4.15967 10.7284 4.25615C10.5598 3.5443 10.2828 2.93106 9.84392 2.51943C9.40106 2.11241 8.78209 1.89382 8.08015 1.79736Z" fill="currentColor"/>
</svg>