<svg xmlns="http://www.w3.org/2000/svg" width="24" height="24" viewBox="0 0 17.4 20.1111" fill="none">
<path id="vector" fill-rule="evenodd" clip-rule="evenodd" d="M8.7 0C9.12842 1.25388e-06 9.50928 0.272927 9.64697 0.678613L9.64688 0.678711C9.64774 0.681197 9.64948 0.685755 9.65186 0.692383C9.65698 0.706667 9.66566 0.730411 9.67793 0.762695C9.70249 0.827293 9.74145 0.926168 9.7958 1.05313C9.9047 1.30748 10.0744 1.67254 10.3116 2.09951C10.7887 2.958 11.5253 4.04179 12.5699 4.98428L12.7694 5.1623C13.7783 6.05339 14.944 6.9611 15.7907 8.01025C16.7499 9.19884 17.3801 10.6311 17.3995 12.6621L17.4 12.7593C17.4 15.9454 15.0158 17.7874 12.9875 18.7743C11.9481 19.2801 10.9191 19.6064 10.1565 19.8062C9.77332 19.9066 9.45248 19.9763 9.2249 20.0213C9.11102 20.0438 9.02016 20.0603 8.95615 20.0713C8.92415 20.0768 8.89883 20.081 8.88066 20.0839C8.87158 20.0853 8.86424 20.0865 8.85879 20.0873C8.85608 20.0877 8.85384 20.0881 8.85205 20.0884C8.85115 20.0885 8.85037 20.0887 8.84971 20.0888C8.8494 20.0888 8.84901 20.0888 8.84883 20.0889C8.84861 20.0889 8.84842 20.0889 8.82012 19.9009H8.81982L8.84805 20.089L8.7 20.1111L8.55195 20.089L8.58008 19.9009H8.57979C8.55149 20.0889 8.55139 20.0889 8.55117 20.0889C8.55099 20.0888 8.55061 20.0888 8.55029 20.0888C8.54963 20.0887 8.54885 20.0885 8.54795 20.0884C8.54616 20.0881 8.54392 20.0877 8.54121 20.0873C8.53576 20.0865 8.52842 20.0853 8.51934 20.0839C8.50117 20.081 8.47585 20.0768 8.44385 20.0713C8.37984 20.0603 8.28898 20.0438 8.1751 20.0213C7.94752 19.9763 7.62668 19.9066 7.24346 19.8062C6.48093 19.6064 5.45192 19.2801 4.4125 18.7743C2.38422 17.7874 2.10884e-05 15.9454 0 12.7593L0.000488281 12.6621C0.0199378 10.6311 0.650062 9.19884 1.60928 8.01025C2.51242 6.89116 3.77856 5.933 4.83008 4.98428C5.87469 4.04179 6.61133 2.958 7.08838 2.09951C7.32564 1.67254 7.4952 1.30748 7.6041 1.05313C7.65846 0.926149 7.69751 0.827299 7.72207 0.762695C7.73434 0.73041 7.74302 0.706667 7.74814 0.692383C7.75051 0.68578 7.75216 0.681203 7.75303 0.678711C7.89073 0.273023 8.27158 2.03402e-07 8.7 0ZM7.7 6.81172C6.60661 8.71917 5.72945 10.3795 5.70068 12.6442L5.7 12.7593C5.70001 15.3179 6.78465 16.6964 7.7 17.4182V6.81172ZM9.7 17.4181C10.6153 16.6963 11.7 15.3178 11.7 12.7593C11.7 10.4354 10.8118 8.75138 9.7 6.81182V17.4181ZM5.09014 7.41172C4.33549 8.0585 3.69987 8.60445 3.16572 9.26631C2.48706 10.1072 2.02931 11.0906 2.00137 12.6104L2 12.7593C2.00002 14.4658 3.0655 15.6829 4.5085 16.554C4.02656 15.5629 3.70001 14.316 3.7 12.7593L3.70098 12.6161C3.72797 10.559 4.33464 8.90358 5.09014 7.41172ZM12.3092 7.41133C13.0823 8.93779 13.7 10.6353 13.7 12.7593C13.7 14.316 13.3736 15.5629 12.8917 16.5539C14.3082 15.6987 15.3608 14.5102 15.3989 12.8525L15.4 12.7593C15.4 11.1542 14.9348 10.1344 14.2343 9.26631C13.7 8.60427 13.0641 8.05833 12.3092 7.41133Z" fill="var(--fill-0, #696F88)"/>
</svg>