<svg xmlns="http://www.w3.org/2000/svg" width="24" height="24" viewBox="0 0 13.8002 20.2002" fill="none">
<path fill-rule="evenodd" clip-rule="evenodd" d="M6.97928 5.10139C7.31674 5.11358 7.51209 5.21347 7.6158 5.29211C7.73186 5.38015 7.80741 5.49627 7.8408 5.63596L7.85125 5.68137C7.90152 5.90835 7.9224 6.13739 7.95047 6.54455C7.97836 6.94916 8.01508 7.57119 8.17283 8.27073L8.19187 8.35061C8.29123 8.74627 8.45022 9.08459 8.54744 9.28186C8.66519 9.52079 8.80401 9.77039 8.92127 9.97981C9.17578 10.4344 9.41674 10.8575 9.63826 11.3336C10.0709 12.2635 10.2821 13.1005 10.1708 13.8752L10.1589 13.9501C10.0864 14.3724 9.77072 15.0882 9.16043 15.6813C8.59751 16.2283 7.86273 16.6002 6.90984 16.6002C5.95552 16.6002 5.21397 16.2271 4.6449 15.6768C4.04781 15.0993 3.73264 14.41 3.64871 13.9899L3.64129 13.9501C3.50474 13.1545 3.71526 12.2935 4.16189 11.3336C4.38341 10.8575 4.62447 10.4344 4.87898 9.97981C4.99624 9.77039 5.13507 9.52078 5.25281 9.28186C5.35651 9.07143 5.5305 8.70051 5.62742 8.27073L5.65564 8.14045C5.78973 7.49434 5.82361 6.92406 5.84978 6.54475C5.87975 6.11044 5.90155 5.87869 5.95955 5.63596L5.9658 5.61203C5.99954 5.49303 6.07065 5.38515 6.18611 5.29826C6.30453 5.2092 6.52804 5.10022 6.90984 5.10022L6.97928 5.10139ZM5.55994 14.0002C5.20096 14.0002 4.90995 14.2912 4.90994 14.6502C4.90994 15.0092 5.20096 15.3002 5.55994 15.3002C5.91889 15.3002 6.20994 15.0092 6.20994 14.6502C6.20993 14.2913 5.91888 14.0003 5.55994 14.0002ZM8.25994 14.0002C7.90096 14.0002 7.60995 14.2912 7.60994 14.6502C7.60994 15.0092 7.90096 15.3002 8.25994 15.3002C8.61889 15.3002 8.90994 15.0092 8.90994 14.6502C8.90993 14.2913 8.61888 14.0003 8.25994 14.0002ZM5.55994 11.3002C5.20096 11.3002 4.90995 11.5912 4.90994 11.9502C4.90994 12.3092 5.20096 12.6002 5.55994 12.6002C5.91889 12.6002 6.20994 12.3092 6.20994 11.9502C6.20993 11.5913 5.91888 11.3003 5.55994 11.3002ZM8.25994 11.3002C7.90096 11.3002 7.60995 11.5912 7.60994 11.9502C7.60994 12.3092 7.90096 12.6002 8.25994 12.6002C8.61889 12.6002 8.90994 12.3092 8.90994 11.9502C8.90993 11.5913 8.61888 11.3003 8.25994 11.3002ZM6.95994 9.10022C6.60096 9.10022 6.30995 9.39124 6.30994 9.75022C6.30994 10.1092 6.60096 10.4002 6.95994 10.4002C7.31889 10.4002 7.60994 10.1092 7.60994 9.75022C7.60993 9.39127 7.31888 9.10026 6.95994 9.10022Z" fill="currentColor"/>
<path fill-rule="evenodd" clip-rule="evenodd" d="M4.40799 0.568186C4.64659 0.070125 5.2438 -0.140224 5.74187 0.0983621C6.4688 0.446589 7.08033 0.899649 7.48699 1.43235C9.47871 1.65167 10.9547 2.98124 11.3706 4.74407C11.5043 5.31072 11.5388 5.81508 11.5679 6.24201C11.5977 6.68023 11.6219 7.03555 11.7091 7.42688C11.7096 7.42861 11.7266 7.48793 11.7996 7.63791C11.8687 7.78 11.9618 7.95148 12.0816 8.16819C12.3137 8.58811 12.6253 9.14018 12.9125 9.76535C13.4854 11.0128 14.02 12.6711 13.7081 14.5118C13.3155 16.8286 11.015 20.1479 6.99529 20.1996L6.90008 20.2002L6.80476 20.1996C2.78504 20.1479 0.484667 16.8286 0.0920695 14.5118C-0.219839 12.6711 0.314709 11.0128 0.887675 9.76535C1.17483 9.14019 1.48643 8.58811 1.71853 8.16819C1.83831 7.9515 1.93144 7.77999 2.00057 7.63791C2.07364 7.48769 2.09064 7.4284 2.09109 7.42688C2.1782 7.03556 2.20246 6.68022 2.2323 6.24201C2.26138 5.81508 2.2959 5.31072 2.42957 4.74407C2.73042 3.46879 3.58605 2.42016 4.79041 1.85461C4.35595 1.59118 4.18388 1.03603 4.40799 0.568186ZM6.90008 3.40022C5.49204 3.40022 4.60757 4.22192 4.37605 5.20324C4.28435 5.592 4.25708 5.94667 4.22771 6.37795C4.19911 6.79797 4.16827 7.30026 4.04334 7.86145C3.99074 8.09771 3.88892 8.32819 3.7991 8.51282C3.70401 8.70827 3.58658 8.92291 3.46893 9.13576C3.22613 9.57503 2.95484 10.0566 2.70516 10.6002C2.2044 11.6904 1.84931 12.9109 2.06394 14.1777C2.34293 15.8241 4.05037 18.2002 6.90008 18.2002C9.74974 18.2002 11.4572 15.8241 11.7362 14.1777C11.9508 12.911 11.5957 11.6904 11.095 10.6002C10.8453 10.0566 10.574 9.57504 10.3312 9.13576C10.2136 8.92289 10.0961 8.70828 10.0011 8.51282C9.91123 8.32818 9.80942 8.09773 9.75682 7.86145C9.63188 7.30025 9.60104 6.79797 9.57244 6.37795C9.54307 5.94667 9.5158 5.592 9.4241 5.20324C9.1926 4.22193 8.30809 3.40025 6.90008 3.40022Z" fill="currentColor"/>
</svg>