<svg width="24" height="24" viewBox="0 0 24 24" fill="none" xmlns="http://www.w3.org/2000/svg">
<path fill-rule="evenodd" clip-rule="evenodd" d="M12.0677 1.60017L12.0978 1.60066L12.1145 1.60115C12.7431 1.62285 13.3356 1.9545 13.8158 2.33904L13.8157 2.33914C14.2526 2.68703 14.6839 3.14744 15.09 3.67644C15.5212 3.58997 15.9042 3.54314 16.266 3.54314H16.2749L16.3341 3.54373C17.0294 3.55623 17.7203 3.76556 18.242 4.26169C18.7792 4.77236 19.013 5.46795 19.013 6.18064V6.1908L19.0124 6.24304L19.0123 6.25359C18.9968 7.00001 18.7457 7.74288 18.455 8.37351C18.4128 8.46493 18.3689 8.55536 18.324 8.6448C18.9067 8.70524 19.4617 8.86111 19.9228 9.14705L19.9845 9.1865C20.6143 9.60122 21 10.2393 21 11.0274L20.9998 11.0461L20.999 11.0889C20.9989 11.095 20.9987 11.1011 20.9985 11.1071C20.976 11.7187 20.6965 12.3144 20.3006 12.8952C20.3747 13.032 20.4528 13.1848 20.5277 13.3473C20.7202 13.7647 20.9542 14.3746 20.9542 14.9792L20.9541 14.996L20.9534 15.0331L20.953 15.0496C20.9266 15.8453 20.4686 16.4443 19.8802 16.8444C19.4473 17.1388 18.9078 17.3551 18.3008 17.5135C18.1607 18.0314 17.9525 18.5025 17.6539 18.8858C17.2334 19.4257 16.6381 19.7775 15.9193 19.7989L15.8494 19.8C15.8434 19.8 15.8375 19.7999 15.8315 19.7998L15.7968 19.7992L15.7777 19.7987C15.0632 19.7723 14.4076 19.3591 13.8712 18.8942C13.5849 18.6461 13.2937 18.3489 13 18.009V21.3C13 21.8523 12.5523 22.3 12 22.3C11.4477 22.3 11 21.8523 11 21.3V18.123C10.7312 18.4256 10.4648 18.692 10.2022 18.917C9.67649 19.3674 9.02733 19.7739 8.31921 19.7988L8.25056 19.8C8.24582 19.8 8.24104 19.7999 8.2363 19.7999L8.1988 19.7993C8.19406 19.7992 8.18928 19.7991 8.18455 19.799C7.44714 19.778 6.84582 19.4114 6.42664 18.8606C6.13861 18.4822 5.93615 18.0205 5.7991 17.5135C5.19248 17.3554 4.65301 17.1396 4.22009 16.8455C3.64936 16.4578 3.20203 15.8832 3.15066 15.1236L3.14695 15.0496L3.14656 15.0332L3.14587 14.9959C3.14578 14.9903 3.14578 14.9847 3.14578 14.9792C3.14579 14.3746 3.37974 13.7647 3.57224 13.3473C3.64719 13.1848 3.72524 13.032 3.79939 12.8952C3.41934 12.3377 3.14666 11.7666 3.10544 11.1808L3.10144 11.1071L3.10095 11.0889L3.10017 11.0461C3.10006 11.0399 3.09998 11.0336 3.09998 11.0274C3.09999 10.2143 3.51049 9.56081 4.17605 9.14763C4.63818 8.85916 5.19387 8.70436 5.77576 8.64451C5.73094 8.55517 5.6871 8.46483 5.645 8.37351C5.36333 7.76259 5.11894 7.04638 5.08982 6.32361L5.08767 6.25359L5.08757 6.24304L5.08699 6.1908C5.08695 6.18741 5.08699 6.18402 5.08699 6.18064C5.08699 5.47164 5.31862 4.77214 5.85798 4.26169L5.90906 4.21453C6.44167 3.73666 7.13748 3.54314 7.83396 3.54314L7.84451 3.54324L7.92019 3.54402L7.93191 3.54421L8.02429 3.54714C8.32919 3.5601 8.65209 3.60373 9.01013 3.67566C9.41566 3.14696 9.84756 2.68481 10.2861 2.33757C10.7777 1.94588 11.3939 1.59999 12.05 1.59998L12.0677 1.60017ZM12.0502 3.60125C12.0357 3.60419 11.998 3.61344 11.9346 3.64226C11.8469 3.68218 11.7319 3.74961 11.5932 3.85447L11.5324 3.90173C11.5314 3.90252 11.5304 3.90329 11.5294 3.90408C11.1899 4.17246 10.7909 4.60707 10.3823 5.18425L10.3005 5.30154L10.2997 5.30281L10.256 5.36609C10.0294 5.69481 9.62991 5.8562 9.2405 5.77986L9.20281 5.77175L9.12869 5.75427L9.11355 5.75056C8.53382 5.60403 8.16581 5.55018 7.89031 5.54373L7.83308 5.54314C7.50172 5.5433 7.33033 5.6306 7.25095 5.69783L7.23621 5.71101L7.23318 5.71384C7.17277 5.77081 7.08699 5.8998 7.08699 6.18064L7.08738 6.21453C7.09529 6.56797 7.22397 7.02133 7.4613 7.53611C7.66461 7.97708 7.92378 8.4126 8.17976 8.79695L8.28914 8.95837L8.28962 8.95916L8.43357 9.16873C8.65966 9.49789 8.66828 9.93006 8.45544 10.2679C8.24261 10.6058 7.84917 10.7847 7.45466 10.7229L7.20388 10.6837C7.20298 10.6835 7.20205 10.6833 7.20115 10.6832C6.94656 10.6426 6.70234 10.6209 6.474 10.616L6.37185 10.6149C5.82366 10.615 5.46523 10.7158 5.27117 10.8231L5.23455 10.8447C5.23345 10.8454 5.23233 10.8461 5.23123 10.8468C5.14454 10.9005 5.11972 10.939 5.11443 10.948C5.11111 10.9537 5.10041 10.9713 5.09998 11.0241L5.10027 11.0359C5.1052 11.1402 5.19077 11.4484 5.68621 12.0892L5.73591 12.1528L5.73757 12.155L5.78552 12.216C6.04663 12.549 6.06987 13.0104 5.84353 13.3679L5.80203 13.4334C5.80127 13.4346 5.80054 13.4358 5.79978 13.437C5.71697 13.5666 5.5407 13.8546 5.38835 14.1849C5.22399 14.5413 5.14712 14.8217 5.14587 14.9755L5.14597 14.986C5.14641 14.9952 5.14798 15.0037 5.16013 15.0228C5.17771 15.0505 5.22619 15.1111 5.34392 15.1911C5.57632 15.349 5.98562 15.5196 6.62683 15.6542L6.75828 15.6806L6.77068 15.6831L6.8449 15.6983L6.8822 15.7068C7.26575 15.8012 7.55934 16.1134 7.6281 16.5048L7.64109 16.5791L7.64226 16.586C7.7367 17.1467 7.88818 17.4786 8.01814 17.6494C8.12456 17.7892 8.1917 17.7981 8.23904 17.7997L8.249 17.7998C8.25603 17.7989 8.30724 17.7918 8.41042 17.7407C8.53372 17.6796 8.69811 17.5719 8.90095 17.3981C9.30849 17.049 9.79671 16.4979 10.3379 15.7347L10.3382 15.7343L10.5096 15.4926C10.5608 15.4059 10.6618 15.2457 10.7992 15.0817C10.8953 14.967 11.0353 14.8186 11.2162 14.6922C11.3913 14.5697 11.6813 14.4147 12.0552 14.4159L12.0899 14.4164C12.4454 14.4267 12.721 14.5764 12.8895 14.6951C13.0693 14.8217 13.2084 14.9698 13.3039 15.0844C13.4396 15.2472 13.5395 15.4063 13.5906 15.4931L13.7618 15.7343L13.762 15.7345L13.8614 15.8732C14.3555 16.5543 14.8024 17.0547 15.181 17.3828C15.382 17.5569 15.5466 17.6676 15.6724 17.7323C15.7828 17.789 15.8396 17.7984 15.8502 17.7998L15.8527 17.7999C15.9068 17.7996 15.9719 17.7905 16.076 17.6568C16.2068 17.489 16.3616 17.1563 16.4577 16.586L16.4589 16.5791L16.4719 16.5048L16.4793 16.4672C16.5624 16.0811 16.8659 15.7785 17.2551 15.6983L17.3293 15.6831L17.3417 15.6806C18.0583 15.5425 18.5076 15.3593 18.7556 15.1906C18.8736 15.1104 18.9223 15.0495 18.94 15.0217C18.9519 15.003 18.9534 14.9946 18.9539 14.9864L18.954 14.9755C18.9527 14.8217 18.876 14.5413 18.7116 14.1849C18.5783 13.8959 18.4267 13.6393 18.3354 13.4928L18.3002 13.437L18.2979 13.4334L18.2564 13.3679C18.0301 13.0104 18.0534 12.5491 18.3144 12.2161L18.3624 12.155L18.364 12.1528L18.4137 12.0892C18.9092 11.4485 18.9946 11.1402 18.9996 11.0359L18.9999 11.0241C18.9994 10.9713 18.9888 10.9537 18.9855 10.948C18.9809 10.9401 18.9613 10.9097 18.8984 10.8662L18.8687 10.8468C18.688 10.7347 18.3332 10.622 17.7794 10.6152L17.7257 10.6149C17.4743 10.615 17.1957 10.6379 16.896 10.6836L16.8961 10.6837L16.6453 10.7229C16.2508 10.7847 15.8573 10.6058 15.6445 10.2679C15.4317 9.93006 15.4403 9.49789 15.6664 9.16873L15.8103 8.95916L15.8108 8.95837L15.9202 8.79695C16.1762 8.4126 16.4353 7.97708 16.6386 7.53611C16.876 7.02133 17.0046 6.56797 17.0125 6.21453L17.013 6.18064L17.012 6.13015C17.0031 5.90248 16.9346 5.78491 16.8762 5.72351L16.8637 5.71101C16.7939 5.64461 16.6313 5.54956 16.2989 5.54343L16.2623 5.54314C16.0008 5.54357 15.6515 5.58959 15.0981 5.72312L14.9842 5.75115L14.9713 5.75427L14.8971 5.77175C14.496 5.86648 14.0778 5.70542 13.8439 5.36609L13.8003 5.30281L13.7995 5.30154C13.391 4.70707 12.987 4.25242 12.6375 3.95886L12.5683 3.90232C12.5674 3.90161 12.5665 3.90088 12.5656 3.90017C12.4073 3.77338 12.2754 3.69315 12.1759 3.64675C12.107 3.61467 12.0658 3.60442 12.0502 3.60125Z" fill="#696F88"/>
</svg>
