<svg width="24" height="24" viewBox="0 0 24 24" fill="none" xmlns="http://www.w3.org/2000/svg">
<path fill-rule="evenodd" clip-rule="evenodd" d="M12.05 5.25002C15.8056 5.25002 18.85 8.29449 18.85 12.05C18.85 15.8056 15.8056 18.85 12.05 18.85C8.29449 18.85 5.25002 15.8056 5.25002 12.05C5.25002 8.29449 8.29449 5.25002 12.05 5.25002ZM12 15.1C11.76 15.1 11.4001 15.5852 11.4 15.9952C11.4 16.1834 11.4149 16.4138 11.5095 16.5992C11.6167 16.8095 11.7907 16.9 11.9997 16.9H12.0003C12.2094 16.9 12.3833 16.8095 12.4906 16.5992C12.5851 16.4138 12.6 16.1834 12.6 15.9952C12.6 15.5852 12.24 15.1 12 15.1ZM9.45442 14.5455C9.28469 14.3758 8.68706 14.4644 8.39709 14.7543C8.26402 14.8874 8.11167 15.0608 8.04739 15.2588C7.97452 15.4833 8.03367 15.6704 8.18147 15.8182L8.18186 15.8186C8.32968 15.9664 8.51666 16.0254 8.74114 15.9526C8.93916 15.8883 9.11255 15.7359 9.24563 15.6029C9.53558 15.3129 9.62412 14.7152 9.45442 14.5455ZM15.6029 14.7544C15.3129 14.4645 14.7152 14.3759 14.5455 14.5456C14.3759 14.7154 14.4644 15.3129 14.7543 15.6029C14.8874 15.7359 15.0608 15.8883 15.2588 15.9526C15.4833 16.0254 15.6704 15.9664 15.8182 15.8186L15.8186 15.8182C15.9664 15.6704 16.0254 15.4833 15.9526 15.2588C15.8883 15.0608 15.7359 14.8875 15.6029 14.7544ZM11.5758 12.4243C11.4061 12.2546 10.8085 12.3432 10.5185 12.6331C10.3854 12.7662 10.2331 12.9395 10.1688 13.1375C10.0959 13.362 10.155 13.5491 10.3029 13.6969L10.3032 13.6973C10.4511 13.8451 10.638 13.9041 10.8625 13.8313C11.0605 13.767 11.2339 13.6147 11.367 13.4817C11.657 13.1917 11.7455 12.5941 11.5758 12.4243ZM13.4816 12.6331C13.1916 12.3432 12.5939 12.2546 12.4242 12.4243C12.2546 12.5941 12.3431 13.1916 12.633 13.4816C12.7661 13.6146 12.9395 13.767 13.1375 13.8313C13.362 13.9041 13.5491 13.8451 13.6969 13.6973L13.6973 13.6969C13.8451 13.5491 13.9042 13.362 13.8313 13.1375C13.767 12.9395 13.6146 12.7662 13.4816 12.6331ZM8.50481 11.4C8.31661 11.4 8.08628 11.4149 7.90081 11.5095C7.69054 11.6167 7.60005 11.7907 7.60002 11.9997V12.0003C7.60003 12.2094 7.69053 12.3833 7.90081 12.4906C8.08628 12.5851 8.31661 12.6 8.50481 12.6C8.91487 12.6 9.40002 12.24 9.40002 12C9.39999 11.76 8.91486 11.4001 8.50481 11.4ZM15.4952 11.4C15.0852 11.4001 14.6001 11.76 14.6 12C14.6 12.24 15.0852 12.6 15.4952 12.6C15.6834 12.6 15.9138 12.5851 16.0992 12.4906C16.3095 12.3833 16.4 12.2094 16.4 12.0003V11.9997C16.4 11.7907 16.3095 11.6167 16.0992 11.5095C15.9138 11.4149 15.6834 11.4 15.4952 11.4ZM10.8624 10.1688C10.6379 10.0959 10.4509 10.155 10.3031 10.3028L10.3027 10.3031C10.1549 10.451 10.0958 10.638 10.1687 10.8625C10.233 11.0605 10.3853 11.2339 10.5184 11.367C10.8084 11.657 11.406 11.7455 11.5757 11.5758C11.7454 11.4061 11.6569 10.8085 11.3669 10.5185C11.2338 10.3854 11.0604 10.2331 10.8624 10.1688ZM13.6969 10.3028C13.5491 10.155 13.3621 10.0959 13.1376 10.1688C12.9396 10.2331 12.7662 10.3854 12.6331 10.5185C12.3432 10.8085 12.2546 11.4061 12.4243 11.5758C12.5941 11.7455 13.1917 11.657 13.4817 11.367C13.6147 11.2339 13.7671 11.0605 13.8314 10.8625C13.9042 10.638 13.8451 10.451 13.6973 10.3031L13.6969 10.3028ZM8.74114 8.04739C8.51665 7.97453 8.32958 8.03367 8.18176 8.18147L8.18137 8.18186C8.03359 8.32967 7.97454 8.51667 8.04739 8.74114C8.11167 8.93916 8.26402 9.11255 8.39709 9.24563C8.68706 9.53559 9.28471 9.62412 9.45442 9.45442C9.62412 9.28471 9.53559 8.68706 9.24563 8.39709C9.11255 8.26402 8.93915 8.11167 8.74114 8.04739ZM15.8182 8.18137C15.6704 8.03359 15.4834 7.97454 15.2589 8.04739C15.0609 8.11167 14.8875 8.26402 14.7544 8.39709C14.4645 8.68706 14.3759 9.28471 14.5456 9.45442C14.7153 9.62412 15.313 9.53559 15.603 9.24563C15.736 9.11255 15.8884 8.93915 15.9527 8.74114C16.0255 8.51665 15.9664 8.32958 15.8186 8.18176L15.8182 8.18137ZM11.9997 7.10002C11.7907 7.10004 11.6167 7.19053 11.5095 7.40081C11.4149 7.58628 11.4 7.81661 11.4 8.00481C11.4001 8.41487 11.76 8.90002 12 8.90002C12.24 8.90002 12.6 8.41487 12.6 8.00481C12.6 7.81661 12.5851 7.58628 12.4906 7.40081C12.3833 7.19054 12.2094 7.10005 12.0003 7.10002H11.9997Z" fill="#696F88"/>
<path fill-rule="evenodd" clip-rule="evenodd" d="M12.05 2.12708C17.5303 2.12708 21.973 6.56971 21.973 12.05C21.973 17.5303 17.5303 21.973 12.05 21.973C6.56971 21.973 2.12708 17.5303 2.12708 12.05C2.12708 6.56971 6.56971 2.12708 12.05 2.12708ZM12.05 4.17297C7.69967 4.17297 4.17297 7.69967 4.17297 12.05C4.17297 16.4004 7.69967 19.9271 12.05 19.9271C16.4004 19.9271 19.9271 16.4004 19.9271 12.05C19.9271 7.69967 16.4004 4.17297 12.05 4.17297Z" fill="#696F88"/>
</svg>
