<svg width="24" height="24" viewBox="0 0 24 24" fill="none" xmlns="http://www.w3.org/2000/svg">
<path fill-rule="evenodd" clip-rule="evenodd" d="M12.5686 3.19079C13.5878 2.23915 14.9204 1.87209 16.2776 2.13639L16.3569 2.15251C18.0116 2.50419 19.0923 3.66462 19.6578 4.89606L19.7077 5.00797C20.1953 6.13235 20.3279 7.41259 20.1443 8.59069L20.1249 8.70817L20.1241 8.71305L20.1231 8.71784L20.1041 8.82067L20.1033 8.82536L20.1024 8.82995C19.9424 9.65163 19.6444 10.2757 19.4529 10.6853L19.453 10.6855C19.263 11.0934 19.1703 11.3103 19.1175 11.5813L19.104 11.6585C19.0771 11.8294 19.0833 11.9395 19.0977 12.0243C19.116 12.1321 19.1562 12.2526 19.249 12.4632L19.4517 12.9119C19.7291 13.5381 20.0938 14.5217 19.8377 15.8369L19.8134 15.9545C19.5485 17.1615 18.8461 18.2566 17.907 19.0366L17.9071 19.0368L17.8841 19.0561L17.8698 19.067C16.8277 19.9147 15.4791 20.3897 14.0668 20.1377L13.9991 20.1251C13.991 20.1235 13.983 20.1217 13.975 20.1201C13.9474 20.1551 13.9197 20.1899 13.8915 20.2243L13.8906 20.2255L13.8724 20.2481L13.8634 20.258C12.9189 21.388 11.5705 22.1749 10.0077 22.1994L9.93267 22.2C8.63599 22.1999 7.39374 21.6664 6.46245 20.8143C5.49869 19.9339 4.83885 18.6765 4.83882 17.2879C4.83883 16.3217 5.1997 15.2835 5.3938 14.6835L5.39722 14.6729L5.40151 14.6595L5.40171 14.659C5.68106 13.8003 5.81698 13.3146 5.82524 12.9644L5.82563 12.9307C5.82563 12.6235 5.73172 12.3938 5.19731 11.5631L4.99243 11.2443C4.48361 10.4417 3.80005 9.22526 3.80005 7.56618L3.80103 7.45553C3.82092 6.31241 4.14972 5.14793 4.84565 4.19264L4.88784 4.13561C5.78004 2.9457 7.10805 2.29997 8.59058 2.29997L8.67866 2.30075C10.0805 2.32459 11.2267 2.91598 12.0767 3.7276C12.2258 3.53762 12.3896 3.35775 12.5686 3.19079ZM8.59058 4.29997C7.709 4.29997 6.9699 4.67252 6.46294 5.3693L6.46245 5.36989C6.03063 5.96245 5.80006 6.74234 5.80005 7.56618L5.80044 7.62419C5.81648 8.76052 6.30174 9.5804 6.7812 10.3285L6.87847 10.4798L6.87896 10.4803L6.97124 10.6241C7.42922 11.3397 7.82562 12.0142 7.82563 12.9307L7.82485 13C7.80922 13.7142 7.55625 14.5015 7.30308 15.2793L7.29702 15.2995L7.29312 15.31C7.0667 16.0104 6.83883 16.7078 6.83882 17.2878L6.83989 17.3575C6.86078 18.0545 7.19333 18.7477 7.75493 19.2849L7.81187 19.3381L7.81255 19.3387L7.86909 19.3893C8.45797 19.9045 9.20427 20.2 9.93267 20.2L10.0168 20.1987C10.8853 20.1718 11.7049 19.7286 12.34 18.9623L12.3402 18.9621L12.3415 18.9604C12.9306 18.2451 13.2779 17.3449 13.2991 16.4734L13.3 16.389C13.3 15.4212 12.892 14.8472 12.4837 14.2762L12.4736 14.2632L12.4608 14.244L12.3216 14.0484L12.3166 14.0412C12.1395 13.7875 11.949 13.4927 11.8118 13.1301C11.6793 12.78 11.6113 12.4079 11.6033 11.9819L11.6025 11.896C11.6025 11.3008 11.7218 10.8159 11.8416 10.3361L11.8418 10.3347L11.8879 10.1499C11.9947 9.71537 12.094 9.24895 12.0945 8.68669L12.0936 8.58561L12.0909 8.4902C12.0544 7.53456 11.7487 6.56021 11.2197 5.79186L11.1661 5.71569C10.574 4.89441 9.71188 4.31819 8.64175 4.30036L8.59058 4.29997ZM15.8953 4.09948C15.1539 3.95511 14.4744 4.14758 13.9333 4.65299L13.9328 4.65358C13.696 4.87436 13.4947 5.14642 13.3358 5.45436C13.7978 6.37984 14.0514 7.41067 14.0895 8.41637L14.0932 8.54694L14.0934 8.55671L14.0945 8.67301L14.0946 8.6778V8.68258C14.0946 9.39611 13.9792 9.99845 13.8705 10.4605C13.9262 10.7892 13.934 11.1325 13.8614 11.5056L13.8485 11.5682C13.8 11.7912 13.7244 12.0165 13.6317 12.2424C13.6455 12.3131 13.663 12.3713 13.6823 12.4222C13.7302 12.549 13.8063 12.681 13.9547 12.8938L14.0863 13.0788L14.0986 13.096C14.5234 13.6901 15.3 14.7231 15.3 16.389L15.2997 16.4546C15.2926 17.0473 15.1894 17.6357 15.0051 18.1976C15.5612 18.1553 16.1187 17.9181 16.6228 17.5035L16.6269 17.5002C17.2502 16.9833 17.6965 16.2683 17.8596 15.5266L17.8746 15.4547C18.0344 14.634 17.7877 14.083 17.5281 13.5117L17.5207 13.4973L17.512 13.4765L17.4238 13.2811L17.4203 13.273C17.3072 13.0166 17.1863 12.7148 17.1259 12.3591C17.0675 12.015 17.0722 11.6637 17.1401 11.2769L17.1544 11.199C17.2593 10.6608 17.4524 10.2435 17.64 9.84079L17.6406 9.83962L17.7126 9.68483C17.8802 9.32185 18.0435 8.93622 18.1383 8.45173L18.1556 8.35856C18.3039 7.50388 18.2083 6.57829 17.8734 5.80514L17.8402 5.73073C17.4765 4.93867 16.8549 4.3184 15.9806 4.11764L15.8953 4.09948Z" fill="#696F88"/>
</svg>
