<svg xmlns="http://www.w3.org/2000/svg" width="24" height="24" viewBox="0 0 13.8 20.3924" fill="none">
<path id="vector" fill-rule="evenodd" clip-rule="evenodd" d="M7.66387 0.416243C8.8761 -0.249147 10.3064 0.0128359 11.304 0.311458L11.3993 0.340462C11.9112 0.499023 12.2071 1.0329 12.0703 1.55101C11.8071 2.5476 11.2887 3.93711 10.0845 4.64534L10.0266 4.67865C10.0242 4.67998 10.0217 4.68124 10.0193 4.68255C9.54039 4.94544 9.02741 5.06342 8.52051 5.09173C9.02534 5.28962 9.48872 5.58398 9.89199 5.97054L9.92783 6.0054C10.2947 6.36932 10.5655 6.82768 10.7642 7.23861C10.9482 7.61925 11.094 8.0099 11.2061 8.34603L11.2521 8.48665L11.2545 8.49407L11.2567 8.5015C11.5436 9.44488 11.6694 9.82765 11.8271 10.2176L11.8572 10.2909C12.0066 10.6484 12.2736 11.2123 12.5919 11.7654L12.6609 11.8836L12.6612 11.8843L12.6616 11.8849C13.1364 12.6909 13.8 13.9005 13.8 15.2924L13.7993 15.3709C13.7704 17.0142 12.835 18.379 11.5511 19.2269L11.551 19.2268C10.2627 20.0793 8.68918 20.374 7.05801 20.3915L6.9 20.3924L6.74199 20.3915C5.11083 20.374 3.53735 20.0793 2.24902 19.2268L2.24893 19.2269C0.964988 18.379 0.0296379 17.0142 0.000683594 15.3709L0 15.2924C0 13.9005 0.663644 12.6909 1.13838 11.8849L1.13877 11.8843L1.13906 11.8836L1.20811 11.7654C1.52639 11.2123 1.79344 10.6484 1.94277 10.2909L1.97295 10.2176C2.13062 9.82765 2.25639 9.44488 2.54326 8.5015L2.54551 8.49407L2.54795 8.48665L2.59395 8.34603C2.70604 8.0099 2.85185 7.61925 3.03584 7.23861C3.23447 6.82768 3.50526 6.36932 3.87217 6.0054L3.90801 5.97054C4.44624 5.45461 5.09141 5.10252 5.79951 4.92542C5.70075 4.52753 5.54317 4.14237 5.35283 3.8057C4.99793 3.24237 4.66776 2.9481 3.97148 2.54876L3.82578 2.46654L3.78145 2.44046C3.33256 2.16045 3.17747 1.57447 3.4373 1.10677C3.69714 0.639094 4.27659 0.461189 4.75146 0.694368L4.79707 0.718294L4.88936 0.769954C5.45422 1.08915 5.9063 1.39759 6.30654 1.79906C6.62504 1.2564 7.05841 0.755157 7.65674 0.420247L7.66387 0.416243ZM6.83965 6.7931C6.21873 6.80651 5.69583 7.02719 5.29199 7.41429L5.26582 7.44036C5.134 7.57633 4.9857 7.80041 4.83652 8.10902C4.68378 8.42502 4.55673 8.77332 4.45439 9.09124C4.17012 10.0259 4.02159 10.4861 3.82705 10.9672L3.79023 11.057C3.59631 11.5218 3.25981 12.2263 2.86094 12.9012C2.38879 13.7029 2 14.4948 2 15.2924L2.00146 15.3742C2.02996 16.1911 2.48414 16.9548 3.27129 17.5037L3.35107 17.5579L3.35205 17.5586C4.21946 18.1329 5.40319 18.3924 6.9 18.3924C8.39681 18.3924 9.58054 18.1329 10.4479 17.5586L10.4489 17.5579L10.5287 17.5037C11.3159 16.9548 11.77 16.1911 11.7985 15.3742L11.8 15.2924C11.8 14.4948 11.4112 13.7028 10.9391 12.9011C10.5402 12.2262 10.2037 11.5218 10.0098 11.057L9.97295 10.9672C9.77841 10.4861 9.62988 10.0259 9.34561 9.09124C9.24327 8.77332 9.11622 8.42502 8.96348 8.10902C8.8143 7.80041 8.666 7.57633 8.53418 7.44036L8.50801 7.41429C8.10417 7.02719 7.58127 6.80651 6.96035 6.7931L6.9 6.79241L6.83965 6.7931ZM9.79023 2.02357C9.31245 1.96741 8.91836 2.01086 8.62998 2.16771C8.34414 2.32917 8.09843 2.64035 7.89287 3.07533C8.3707 3.1315 8.76492 3.08814 9.05332 2.93128C9.33914 2.76983 9.58468 2.45851 9.79023 2.02357Z" fill="var(--fill-0, #696F88)"/>
</svg>