<svg width="24" height="24" viewBox="0 0 24 24" fill="none" xmlns="http://www.w3.org/2000/svg">
<path fill-rule="evenodd" clip-rule="evenodd" d="M13.0934 6.99999C13.8052 7.00001 14.3821 7.60442 14.3821 8.34999C14.3821 8.52883 14.3488 8.69954 14.2885 8.85575C14.8668 9.12506 15.2683 9.7152 15.2683 10.4C15.2683 10.6203 15.2267 10.8308 15.1511 11.0239C15.4905 11.3713 15.7 11.8482 15.7 12.3745C15.7 12.7728 15.58 13.1429 15.3745 13.45C15.58 13.757 15.7 14.1271 15.7 14.5255C15.7 15.0218 15.5136 15.4741 15.2078 15.8154C15.2471 15.9595 15.2683 16.1113 15.2683 16.2681C15.2683 16.9153 14.9096 17.478 14.3819 17.7651C14.3741 18.5037 13.8003 19.1 13.0934 19.1C12.6343 19.1 12.2312 18.8484 12.0029 18.4696C11.7747 18.8484 11.3716 19.1 10.9125 19.1C10.2066 19.1 9.6333 18.5055 9.6239 17.7683C9.09293 17.4822 8.73155 16.9177 8.73152 16.2681C8.73152 16.1113 8.75261 15.9595 8.79197 15.8154C8.48619 15.4741 8.29999 15.0217 8.29998 14.5255C8.29998 14.1272 8.4199 13.757 8.62537 13.45C8.41989 13.143 8.29998 12.7728 8.29998 12.3745C8.29998 11.8483 8.50934 11.3714 8.84861 11.024C8.77301 10.8308 8.73152 10.6203 8.73152 10.4C8.73152 9.71325 9.13525 9.12165 9.71628 8.85341C9.65657 8.69785 9.62371 8.52792 9.62371 8.34999C9.62371 7.6044 10.2007 6.99999 10.9125 6.99999C11.3716 6.99999 11.7746 7.25156 12.0029 7.63026C12.2312 7.25155 12.6343 6.99999 13.0934 6.99999ZM12 8.59999C11.7238 8.6 11.5 8.82385 11.5 9.09999V16.9C11.5 17.1761 11.7239 17.4 12 17.4C12.2761 17.4 12.5 17.1761 12.5 16.9V9.09999C12.5 8.82385 12.2761 8.59999 12 8.59999ZM10.4335 10.2368C10.2944 10.0118 10.0017 9.93299 9.76736 10.0619C9.53306 10.1908 9.44286 10.4802 9.55837 10.7181L9.57029 10.7409L9.59128 10.7801C10.0249 11.6069 9.95702 12.727 9.68152 13.5994C9.50761 14.1502 9.46785 14.7574 9.52332 15.3122C9.57663 15.8452 9.72204 16.3703 9.95925 16.7734L9.9825 16.812L9.99656 16.8336C10.1464 17.0515 10.4426 17.1159 10.6704 16.9758C10.8982 16.8356 10.9741 16.5422 10.8471 16.3102L10.8342 16.288L10.8066 16.2409C10.6703 15.9977 10.5605 15.6343 10.5183 15.2128C10.4738 14.7676 10.5091 14.2997 10.6351 13.9006C10.9502 12.9027 11.0855 11.474 10.476 10.3141L10.4465 10.2591L10.4335 10.2368ZM14.2994 10.0619C14.065 9.93301 13.7723 10.0118 13.6333 10.2368L13.6203 10.2591L13.5907 10.3141C12.9813 11.474 13.1165 12.9027 13.4316 13.9006C13.5576 14.2997 13.5929 14.7676 13.5484 15.2128C13.5062 15.6344 13.3964 15.9977 13.2601 16.2409L13.2326 16.288L13.2196 16.3102C13.0926 16.5422 13.1686 16.8356 13.3964 16.9758C13.6242 17.1159 13.9203 17.0515 14.0702 16.8336L14.0843 16.812L14.1075 16.7734C14.3447 16.3703 14.4901 15.8452 14.5434 15.3122C14.5989 14.7574 14.5591 14.1502 14.3852 13.5994C14.1097 12.727 14.0419 11.6069 14.4755 10.7801L14.4965 10.7409L14.5084 10.7181C14.6239 10.4802 14.5337 10.1908 14.2994 10.0619Z" fill="#696F88"/>
<path fill-rule="evenodd" clip-rule="evenodd" d="M11.3313 2.0243C11.7266 1.72514 12.2734 1.72512 12.6686 2.0243L12.7077 2.05526L12.7684 2.10419C13.0794 2.34759 13.4992 2.5762 14.1601 2.99686C14.808 3.4092 15.5663 3.94029 16.2804 4.68934C17.743 6.22345 18.8996 8.54342 18.8996 12.3474L18.9 13.111C18.8976 14.9349 18.843 17.0216 18.1255 18.7079C17.6977 19.7131 17.0242 20.6126 15.9805 21.2485C14.9469 21.8783 13.6317 22.2 12 22.2C10.3682 22.2 9.05304 21.8783 8.01941 21.2485C6.97577 20.6126 6.30214 19.7131 5.87439 18.7079C5.15684 17.0216 5.10239 14.9349 5.09998 13.111L5.10037 12.3474C5.10037 8.5434 6.25694 6.22345 7.71951 4.68934C8.43363 3.9403 9.19186 3.4092 9.83972 2.99686C10.5447 2.54815 10.9754 2.31799 11.2923 2.05526L11.3313 2.0243ZM12 4.00145C11.6445 4.23427 11.2529 4.464 10.9195 4.67616C10.3311 5.05069 9.72648 5.4809 9.17322 6.06122C8.10104 7.18584 7.10398 8.99728 7.10398 12.3474L7.10466 13.1397C7.1112 14.9682 7.17166 16.6433 7.71951 17.9307C8.01485 18.6248 8.44009 19.1674 9.0658 19.5486C9.70151 19.9359 10.6264 20.2065 12 20.2065C13.3736 20.2065 14.2984 19.936 14.9342 19.5486C15.5599 19.1674 15.9851 18.6248 16.2804 17.9307C16.9065 16.4593 16.896 14.4817 16.896 12.3474L16.8953 12.1915C16.8648 8.94083 15.8821 7.16827 14.8267 6.06122C14.2735 5.4809 13.6689 5.05069 13.0804 4.67616C12.7471 4.46399 12.3555 4.23428 12 4.00145Z" fill="#696F88"/>
</svg>
