<svg xmlns="http://www.w3.org/2000/svg" width="24" height="24" viewBox="0 0 17.44 20.5127" fill="none">
<path id="vector" fill-rule="evenodd" clip-rule="evenodd" d="M9.20136 0.36338C10.2628 -0.219237 11.4983 0.0157429 12.324 0.263087L12.4026 0.287111C12.8985 0.440707 13.1918 0.946595 13.0852 1.44912L13.0736 1.49776C12.8567 2.31911 12.4171 3.52316 11.3632 4.14287L11.3126 4.17197C11.3102 4.17332 11.3077 4.17465 11.3053 4.17598C10.7871 4.46037 10.2276 4.54975 9.69442 4.53818C9.70038 4.59446 9.70527 4.65098 9.70917 4.70772C10.1613 4.80322 10.5777 4.96982 10.9547 5.20352C11.6085 4.7981 12.383 4.55733 13.2864 4.55733C14.2524 4.55733 15.0889 4.83504 15.7562 5.37539C16.4123 5.90658 16.8325 6.63234 17.0869 7.41289C17.5869 8.94719 17.509 10.8777 17.1453 12.6914C16.7777 14.5248 16.0907 16.3755 15.2408 17.7993C14.8165 18.5101 14.3299 19.1508 13.7911 19.6295C13.2609 20.1005 12.5945 20.4885 11.8278 20.5116C11.2043 20.5304 10.6688 20.3012 10.2331 19.9609C9.82511 20.2772 9.32721 20.5127 8.75067 20.5127C8.15998 20.5127 7.6495 20.2672 7.2327 19.9405C6.7924 20.292 6.2481 20.5308 5.6122 20.5116C4.84553 20.4885 4.17914 20.1005 3.64892 19.6295C3.11007 19.1508 2.62352 18.5101 2.19921 17.7993C1.34928 16.3755 0.662325 14.5248 0.294716 12.6914C-0.0689497 10.8777 -0.146883 8.9472 0.353114 7.41289C0.607493 6.63233 1.02774 5.90658 1.68378 5.37539C2.35116 4.83504 3.18758 4.55733 4.1536 4.55733C5.0692 4.55734 5.85251 4.8046 6.51181 5.22002C6.87317 4.99676 7.27146 4.83273 7.7036 4.73174C7.65341 4.28535 7.49069 3.82968 7.27216 3.44805C6.99133 3.00999 6.73418 2.78078 6.16063 2.45693L6.04003 2.38994L5.9955 2.36416C5.54482 2.08706 5.38596 1.50208 5.64276 1.03272C5.89956 0.563372 6.47782 0.38174 6.95419 0.611818L6.99999 0.635451L7.15722 0.722951C7.52696 0.932657 7.84288 1.14163 8.12772 1.39082C8.39037 0.990546 8.73546 0.624126 9.19413 0.367384L9.20136 0.36338ZM8.71786 6.61319C8.13953 6.62315 7.72091 6.78734 7.40106 7.0336C7.07119 7.28758 6.78927 7.67386 6.57196 8.20742C6.12827 9.29684 6.02048 10.8409 6.20829 12.4899C6.39438 14.1239 6.85669 15.7373 7.43622 16.9142C7.72722 17.5051 8.02603 17.9416 8.29784 18.2153C8.57942 18.4989 8.73246 18.5127 8.75067 18.5127C8.76241 18.5127 8.91183 18.5022 9.19159 18.2143C9.46145 17.9365 9.75759 17.4935 10.0448 16.8938C10.6166 15.7001 11.0677 14.0659 11.2422 12.4177C11.4183 10.7533 11.2988 9.20382 10.8484 8.12539C10.6281 7.59778 10.3461 7.22413 10.0214 6.98486C9.70757 6.75363 9.29448 6.60326 8.71786 6.61319ZM4.1536 6.55733C3.58743 6.55733 3.21075 6.71241 2.94227 6.92979C2.66249 7.15634 2.42392 7.51329 2.25468 8.03262C1.90744 9.09818 1.92259 10.6365 2.25575 12.2981C2.58499 13.9401 3.19866 15.5715 3.91659 16.7741C4.2762 17.3765 4.64051 17.8352 4.97714 18.1343C5.32235 18.4409 5.55621 18.509 5.67245 18.5125C5.72803 18.5142 5.82368 18.5011 5.96259 18.3958C5.85015 18.2033 5.74308 18.0032 5.64188 17.7978C4.94628 16.3852 4.42923 14.5437 4.22108 12.7162C4.01467 10.9038 4.09783 8.97975 4.71962 7.45303C4.82167 7.20246 4.93987 6.95875 5.07597 6.72608C4.794 6.61419 4.48726 6.55733 4.1536 6.55733ZM13.2864 6.55733C12.9598 6.55733 12.6589 6.61186 12.3818 6.71914C12.4991 6.92359 12.6028 7.13641 12.6939 7.35459C13.3278 8.87225 13.4242 10.8044 13.2311 12.6281C13.0364 14.4681 12.5331 16.3289 11.8485 17.7579C11.7402 17.9841 11.6249 18.204 11.5031 18.4146C11.6282 18.5026 11.7155 18.5141 11.7676 18.5125C11.8838 18.509 12.1177 18.4409 12.4629 18.1343C12.7995 17.8352 13.1638 17.3765 13.5234 16.7741C14.2414 15.5714 14.855 13.9401 15.1843 12.2981C15.5174 10.6365 15.5326 9.09818 15.1853 8.03262C15.0161 7.5133 14.7775 7.15634 14.4977 6.92979C14.2293 6.71241 13.8526 6.55733 13.2864 6.55733ZM10.7395 2.0002C10.5021 1.99813 10.3107 2.03732 10.1675 2.11485C10.0259 2.19524 9.89123 2.33681 9.76718 2.53926C10.0046 2.54133 10.196 2.5022 10.3392 2.42471C10.4809 2.34433 10.6155 2.20266 10.7395 2.0002Z" fill="var(--fill-0, #696F88)"/>
</svg>