<svg xmlns="http://www.w3.org/2000/svg" width="24" height="24" viewBox="0 0 12.676 20.65" fill="none">
<path id="vector" fill-rule="evenodd" clip-rule="evenodd" d="M6.34364 0.0346436C6.4171 -0.00865824 6.50718 -0.0113751 6.58271 0.0265381L6.59755 0.0346436C6.70313 0.0969179 6.79571 0.197869 6.87558 0.305444C6.95847 0.417105 7.04181 0.555378 7.12421 0.712573C7.28919 1.02732 7.45983 1.4362 7.62226 1.90261C7.74736 2.26183 7.86853 2.65843 7.97948 3.07693C8.92228 2.1292 10.1465 1.39796 11.5224 1.33816C11.6294 1.33353 11.7276 1.39773 11.7663 1.49763C11.805 1.59753 11.7757 1.71103 11.6935 1.77976L11.5668 1.88748C10.273 3.00603 9.46029 4.29108 8.96845 5.31833C8.9322 5.39405 8.89773 5.46841 8.86493 5.54109C9.86208 5.33056 11.0423 5.40294 12.4111 5.92566L12.518 5.96726C12.6266 6.01034 12.6911 6.12296 12.6729 6.23845C12.6548 6.35393 12.5589 6.44143 12.4423 6.4491L12.3517 6.45554C10.4634 6.60449 9.33624 7.49971 8.67489 8.35886C8.67402 8.36 8.67313 8.36114 8.67226 8.36228C9.21956 8.64594 9.71159 9.05222 10.1246 9.59314C11.0143 10.7584 11.4456 12.4287 11.4456 14.5342C11.4456 16.3781 11.2514 17.7275 10.8071 18.742L10.7633 18.8391C10.3958 19.6315 9.82796 20.1368 9.01493 20.3956C8.30563 20.6214 7.427 20.65 6.4456 20.65C6.43038 20.65 6.41524 20.6495 6.40019 20.6488L6.35487 20.65L6.17753 20.6496C5.297 20.6457 4.50956 20.608 3.86796 20.3891C3.09336 20.1248 2.58563 19.6238 2.24189 18.901L2.20917 18.8304C1.74715 17.8087 1.5456 16.4359 1.5456 14.5342C1.5456 12.433 1.96481 10.7668 2.83134 9.60281C3.19305 9.11693 3.61791 8.7384 4.08925 8.45945C4.05078 8.40669 4.01052 8.3537 3.96825 8.30076C3.32426 7.49416 2.21978 6.67367 0.324504 6.52654L0.233586 6.51999C0.116881 6.51232 0.0211103 6.42481 0.00301924 6.30925C-0.0150571 6.19366 0.0494621 6.08099 0.158293 6.03806C1.68585 5.43574 2.98342 5.35793 4.05693 5.60525C3.52667 4.84393 2.63832 3.8536 0.822257 2.77839L0.704972 2.70964C0.611811 2.65547 0.563816 2.54764 0.585929 2.44216C0.608072 2.33668 0.695341 2.25714 0.802433 2.24499L0.922843 2.23249C2.44842 2.08795 3.83305 2.49409 4.92235 3.22761C5.04366 2.75356 5.17891 2.30469 5.31894 1.90261C5.48137 1.4362 5.652 1.02732 5.81698 0.712573C5.89939 0.555373 5.98272 0.417106 6.06562 0.305444C6.14049 0.204596 6.22647 0.109548 6.32392 0.046753L6.34364 0.0346436ZM6.4456 9.84997C5.571 9.84998 4.91128 10.1582 4.43564 10.7971C3.92693 11.4805 3.5456 12.6564 3.5456 14.5342C3.5456 16.3417 3.74546 17.3737 4.03153 18.0064L4.05917 18.0653C4.19629 18.3463 4.31985 18.4302 4.51376 18.4964C4.81571 18.5994 5.29224 18.6443 6.17323 18.6495L6.35487 18.65L6.40019 18.651C6.41524 18.6504 6.43038 18.65 6.4456 18.65C7.46481 18.65 8.03882 18.6074 8.40829 18.4898C8.67402 18.4052 8.81115 18.2947 8.94892 17.9976L8.97607 17.9375C9.25345 17.3032 9.44559 16.2836 9.4456 14.5342C9.44559 12.6608 9.05572 11.4889 8.53495 10.8068C8.04549 10.1658 7.35943 9.84998 6.4456 9.84997Z" fill="var(--fill-0, #696F88)"/>
</svg>