<svg width="24" height="24" viewBox="0 0 24 24" fill="none" xmlns="http://www.w3.org/2000/svg">
<path fill-rule="evenodd" clip-rule="evenodd" d="M11.8731 1.88474C11.9465 1.84144 12.0366 1.83872 12.1121 1.87664L12.127 1.88474C12.2325 1.94702 12.3251 2.04797 12.405 2.15554C12.4879 2.2672 12.5712 2.40548 12.6536 2.56267C12.8186 2.87742 12.9892 3.2863 13.1517 3.75271C13.2768 4.11193 13.398 4.50852 13.5089 4.92703C14.4517 3.9793 15.6759 3.24806 17.0518 3.18826C17.1588 3.18363 17.257 3.24783 17.2957 3.34773C17.3344 3.44763 17.3051 3.56112 17.223 3.62986L17.0962 3.73757C15.8024 4.85613 14.9897 6.14118 14.4979 7.16843C14.4616 7.24415 14.4272 7.31851 14.3944 7.39119C15.3915 7.18066 16.5718 7.25303 17.9405 7.77576L18.0474 7.81736C18.1561 7.86044 18.2205 7.97306 18.2024 8.08855C18.1842 8.20403 18.0883 8.29153 17.9717 8.29919L17.8812 8.30564C15.9928 8.45459 14.8657 9.34981 14.2043 10.209C14.2034 10.2101 14.2025 10.2112 14.2017 10.2124C14.749 10.496 15.241 10.9023 15.654 11.4432C16.5437 12.6085 16.975 14.2788 16.975 16.3843C16.975 18.2282 16.7809 19.5776 16.3365 20.5921L16.2927 20.6892C15.9252 21.4816 15.3574 21.9869 14.5444 22.2457C13.835 22.4715 12.9564 22.5001 11.975 22.5001C11.9598 22.5001 11.9447 22.4996 11.9296 22.4989L11.8843 22.5001L11.7069 22.4997C10.8264 22.4958 10.039 22.4581 9.39738 22.2392C8.62277 21.9749 8.11505 21.4739 7.77131 20.7511L7.73859 20.6805C7.27657 19.6588 7.07502 18.286 7.07502 16.3843C7.07502 14.2831 7.49423 12.6169 8.36076 11.4529C8.72247 10.967 9.14733 10.5885 9.61867 10.3095C9.58019 10.2568 9.53994 10.2038 9.49767 10.1509C8.85368 9.34426 7.7492 8.52377 5.85392 8.37664L5.763 8.37009C5.6463 8.36242 5.55053 8.2749 5.53244 8.15935C5.51436 8.04376 5.57888 7.93109 5.68771 7.88816C7.21527 7.28583 8.51284 7.20803 9.58634 7.45535C9.05609 6.69402 8.16774 5.70369 6.35168 4.62849L6.23439 4.55974C6.14123 4.50557 6.09323 4.39773 6.11535 4.29226C6.13749 4.18678 6.22476 4.10724 6.33185 4.09509L6.45226 4.08259C7.97784 3.93805 9.36247 4.34419 10.4518 5.07771C10.5731 4.60365 10.7083 4.15479 10.8484 3.75271C11.0108 3.28629 11.1814 2.87742 11.3464 2.56267C11.4288 2.40547 11.5121 2.2672 11.595 2.15554C11.6699 2.05469 11.7559 1.95965 11.8533 1.89685L11.8731 1.88474ZM11.975 11.7001C11.1004 11.7001 10.4407 12.0083 9.96505 12.6472C9.45634 13.3306 9.07502 14.5065 9.07502 16.3843C9.07502 18.1918 9.27488 19.2238 9.56095 19.8565L9.58859 19.9154C9.72571 20.1964 9.84927 20.2803 10.0432 20.3465C10.3451 20.4495 10.8217 20.4944 11.7027 20.4996L11.8843 20.5001L11.9296 20.5011C11.9447 20.5005 11.9598 20.5001 11.975 20.5001C12.9942 20.5001 13.5682 20.4575 13.9377 20.3399C14.2034 20.2553 14.3406 20.1448 14.4783 19.8477L14.5055 19.7876C14.7829 19.1533 14.975 18.1337 14.975 16.3843C14.975 14.5109 14.5851 13.339 14.0644 12.6569C13.5749 12.0159 12.8888 11.7001 11.975 11.7001Z" fill="#696F88"/>
</svg>
