<svg width="24" height="24" viewBox="0 0 24 24" fill="none" xmlns="http://www.w3.org/2000/svg">
<path d="M18.7013 10.2443C18.9474 11.0972 19.0535 11.8944 19.0193 12.6128C18.9995 13.0385 18.93 13.4313 18.8121 13.7886C18.9402 13.8309 19.0684 13.8772 19.1967 13.9272L20 14.2408L19.8684 15.0969C19.7583 15.8128 19.5589 16.4766 19.2581 17.0545C18.9184 17.7083 18.4451 18.2553 17.8244 18.6156C17.27 18.9374 15.7656 19.796 12.9997 19.9692C12.9971 20.4617 12.9564 21.4844 12.3864 22.4656L12.3575 22.5145C12.0734 22.9881 11.4591 23.1417 10.9855 22.8576C10.512 22.5734 10.3584 21.9592 10.6425 21.4856L10.6724 21.4341C10.9553 20.9304 10.9959 20.3687 10.9996 19.9693C8.23324 19.7963 6.73024 18.9375 6.17559 18.6156C5.55491 18.2553 5.08157 17.7082 4.74189 17.0543C4.44115 16.4764 4.24172 15.8128 4.13164 15.0969L4 14.2408L4.80332 13.9272C4.93154 13.8772 5.05975 13.8309 5.18779 13.7886C5.06994 13.4313 5.00054 13.0385 4.98066 12.6128C4.94648 11.8944 5.05258 11.0972 5.29873 10.2443C6.18438 10.3047 6.96975 10.4777 7.6332 10.7555C8.37883 11.067 8.95277 11.5054 9.33984 12.0582C9.3832 12.1201 9.42327 12.1827 9.46025 12.2457C9.40132 12.3141 9.34432 12.3832 9.28936 12.4528C8.95915 12.8703 8.69755 13.3146 8.52646 13.7803C8.63873 13.8296 8.74878 13.8852 8.85615 13.9475C9.01998 14.0426 9.17404 14.1524 9.31523 14.2759C9.39215 14.1283 9.47657 13.9827 9.56816 13.8393C9.5946 13.7979 9.62161 13.7566 9.64922 13.7155C9.7632 13.501 9.90485 13.2865 10.0741 13.0725C10.531 12.4939 11.1783 11.9305 12 11.4L12.1521 11.4999C12.9019 12.0009 13.4976 12.53 13.9259 13.0725C14.0953 13.2867 14.237 13.5015 14.3511 13.7162C14.3785 13.757 14.4054 13.7981 14.4317 13.8393C14.5233 13.9826 14.6078 14.1283 14.6847 14.2759C14.8259 14.1524 14.98 14.0426 15.1438 13.9475C15.2512 13.8852 15.3612 13.8296 15.4734 13.7803C15.3024 13.3146 15.0409 12.8703 14.7107 12.4528C14.6558 12.3832 14.5987 12.3142 14.5397 12.2457C14.5767 12.1827 14.6168 12.1201 14.6602 12.0582C15.0472 11.5054 15.6212 11.067 16.3668 10.7555C17.0302 10.4777 17.8156 10.3047 18.7013 10.2443Z" fill="#696F88"/>
<path d="M12.0501 6.50005C12.7044 7.03044 13.2198 7.5939 13.5836 8.17251C13.9929 8.82218 14.2001 9.47694 14.2001 10.119C14.2001 10.6502 14.0481 11.1114 13.7601 11.467C13.3956 11.1499 12.9876 10.8473 12.5424 10.5599L12.0001 10.2098L11.4578 10.5599C11.0365 10.8319 10.6485 11.1175 10.2992 11.4162C10.0363 11.0679 9.9001 10.6251 9.9001 10.119C9.9001 9.47693 10.1072 8.82218 10.5165 8.17251C10.8803 7.59389 11.3958 7.03045 12.0501 6.50005Z" fill="#696F88"/>
<path d="M6.80908 5.79839C7.6569 5.93119 8.39873 6.16397 9.01426 6.48745C9.39295 6.68605 9.71886 6.91704 9.98984 7.17798C9.87532 7.32933 9.76869 7.48324 9.67041 7.6395C9.18034 8.41744 8.9001 9.25443 8.9001 10.119C8.9001 10.1778 8.90162 10.2365 8.90439 10.2949C8.65418 10.1338 8.38564 9.99156 8.10146 9.86802L8.01885 9.83276C7.53571 9.63051 7.00978 9.48012 6.45 9.37896C6.33298 8.97716 6.28359 8.53366 6.30313 8.05269C6.33074 7.35785 6.50016 6.59906 6.80908 5.79839Z" fill="#696F88"/>
<path d="M17.1911 5.79839C17.5 6.59905 17.6694 7.35786 17.697 8.05269C17.7165 8.53366 17.6671 8.97716 17.5501 9.37896C16.9903 9.48012 16.4645 9.63052 15.9813 9.83276L15.8987 9.86802C15.6529 9.97488 15.4188 10.0957 15.1981 10.2306C15.1993 10.1935 15.2001 10.1563 15.2001 10.119C15.2001 9.28143 14.9371 8.46973 14.4751 7.71255L14.4298 7.6395C14.3196 7.46434 14.1989 7.29217 14.0684 7.12319C14.3274 6.88461 14.6338 6.67205 14.9858 6.48745C15.6014 6.16396 16.3433 5.93119 17.1911 5.79839Z" fill="#696F88"/>
<path d="M12 1.80005C12.6391 2.33046 13.1425 2.89388 13.4979 3.47251C13.8976 4.12219 14.1 4.77693 14.1 5.41899C14.1 5.57573 14.0871 5.72641 14.0616 5.87007C13.8259 6.0228 13.6064 6.19071 13.4055 6.37417C13.1808 6.1501 12.9384 5.93289 12.6797 5.72319L12.05 5.21274L11.4203 5.72319C11.1431 5.94792 10.8845 6.18123 10.6465 6.42241C10.4315 6.21998 10.1943 6.03595 9.93799 5.86987C9.91278 5.72627 9.9 5.57566 9.9 5.41899C9.9 4.77693 10.1024 4.12219 10.5021 3.47251C10.8575 2.89388 11.3609 2.33046 12 1.80005Z" fill="#696F88"/>
</svg>
