<svg xmlns="http://www.w3.org/2000/svg" width="24" height="24" viewBox="0 0 9.59978 20.5" fill="none">
<path id="vector" fill-rule="evenodd" clip-rule="evenodd" d="M4.80414 0C5.62639 7.84622e-06 6.21654 0.519607 6.5933 1.00098C6.98258 1.49835 7.29655 2.1429 7.55599 2.79707C8.01238 3.94783 8.37896 5.3385 8.67386 6.50605L8.79593 6.99141C9.06801 8.07494 9.32358 9.1123 9.46947 10.0407C9.61374 10.9589 9.66939 11.874 9.47201 12.6896C9.26204 13.557 8.7698 14.288 7.91312 14.7671C7.33115 15.0926 6.62313 15.278 5.79984 15.356V19.5C5.79984 20.0523 5.35213 20.5 4.79984 20.5C4.24757 20.5 3.79984 20.0523 3.79984 19.5V15.356C2.97659 15.278 2.26861 15.0925 1.68666 14.7671C0.829978 14.288 0.337739 13.557 0.12777 12.6896C-0.0696149 11.874 -0.0139668 10.9589 0.130309 10.0407C0.2762 9.1123 0.531772 8.07493 0.803844 6.99141L0.925914 6.50605C1.22082 5.33851 1.5874 3.94783 2.04379 2.79707C2.30323 2.14291 2.6172 1.49835 3.00648 1.00098C3.38324 0.519611 3.9734 8.14603e-06 4.79564 0L4.79984 9.76563e-05L4.80414 0ZM4.79984 2.0127C4.76125 2.03784 4.68804 2.09754 4.58148 2.23369C4.36617 2.50879 4.13588 2.9471 3.90297 3.53438C3.49771 4.5562 3.16149 5.8239 2.86722 6.9873L2.74359 7.47852C2.46767 8.57739 2.23551 9.52696 2.10599 10.3512C1.97487 11.1856 1.96751 11.7889 2.07162 12.219C2.16315 12.5972 2.33691 12.8392 2.66293 13.0215C3.02815 13.2257 3.65159 13.3895 4.6974 13.3995L4.79984 13.3999L4.90238 13.3995C5.94821 13.3895 6.57163 13.2257 6.93685 13.0215C7.26287 12.8392 7.43663 12.5972 7.52816 12.219C7.63227 11.7889 7.62491 11.1856 7.49379 10.3512C7.36427 9.52695 7.13211 8.57739 6.85619 7.47852L6.73256 6.9873C6.43829 5.8239 6.10207 4.5562 5.69681 3.53438C5.4639 2.9471 5.23361 2.50879 5.0183 2.23369C4.91168 2.09747 4.83842 2.03782 4.79984 2.0127Z" fill="var(--fill-0, #696F88)"/>
</svg>