<svg width="24" height="24" viewBox="0 0 24 24" fill="none" xmlns="http://www.w3.org/2000/svg">
<path fill-rule="evenodd" clip-rule="evenodd" d="M11.6889 1.80713C11.8591 1.63069 12.1403 1.6307 12.3105 1.80713C12.8637 2.38079 13.3562 3.05538 13.4734 3.78575C13.9951 3.67129 14.5637 3.67298 15.1179 3.73184C15.406 3.76245 15.6066 4.02863 15.5567 4.31397C15.4793 4.75557 15.3638 5.19604 15.1895 5.5961C15.462 5.59944 15.7363 5.61765 16.0078 5.64649C16.3782 5.68588 16.6361 6.02818 16.5719 6.39502L16.546 6.53692C16.4112 7.24591 16.1962 7.94594 15.8491 8.53858C15.9021 8.54335 15.9551 8.5485 16.0078 8.5541C16.3782 8.59349 16.6361 8.93579 16.5719 9.30264L16.5461 9.44375C16.4121 10.1489 16.1988 10.8452 15.8551 11.4358C15.9061 11.4405 15.957 11.4454 16.0078 11.4508C16.3782 11.4902 16.6361 11.8325 16.5719 12.1993L16.5512 12.3135C16.4257 12.9843 16.229 13.6483 15.9173 14.2222C17.3685 14.38 18.9023 14.9962 20.0725 16.06C20.3568 16.3185 20.468 16.7171 20.3582 17.0855C20.2485 17.4538 19.9372 17.7266 19.5577 17.7873C17.3289 18.1439 16.3154 19.0889 15.5962 19.6072C15.5931 19.6095 15.5899 19.6117 15.5867 19.6139C14.7581 20.1967 13.8183 20.3342 12.9997 20.1126V21.6999C12.9997 22.2522 12.552 22.6999 11.9997 22.6999C11.4475 22.6999 10.9997 22.2522 10.9997 21.6999V18.6364C10.0367 18.8305 8.91738 18.5347 7.89788 17.7505C7.09731 17.1477 5.99383 16.0357 3.50999 15.4109C3.1572 15.3222 2.88037 15.0488 2.78723 14.6972C2.69413 14.3455 2.79938 13.9709 3.06204 13.7191C4.3015 12.5313 5.95504 12.0976 7.50003 12.1408C7.49021 11.8157 7.72823 11.528 8.06253 11.4866C8.12903 11.4784 8.19574 11.4709 8.26253 11.464C7.91021 10.8803 7.68566 10.1895 7.53977 9.48858L7.51165 9.34825C7.441 8.98255 7.69289 8.63575 8.06253 8.58994C8.13107 8.58145 8.19983 8.57367 8.26868 8.5666C7.91289 7.98099 7.68671 7.28643 7.53997 6.58164L7.51165 6.44053C7.44102 6.07484 7.6929 5.72813 8.06253 5.68233C8.33882 5.64809 8.61816 5.62495 8.89592 5.61729C8.71654 5.22234 8.59431 4.78678 8.50979 4.34942C8.45488 4.06502 8.65085 3.79532 8.93831 3.75967C9.47185 3.69356 10.0199 3.68021 10.5281 3.77393C10.6485 3.04802 11.1386 2.37772 11.6889 1.80713ZM15.3915 16.1863C14.195 16.1314 13.4433 16.5208 13.1653 17.001C13.0592 17.1842 13.0136 17.3382 12.9997 17.4622V17.6289C13.001 17.6393 13.0025 17.6493 13.0041 17.659C13.0292 17.804 13.1062 17.9341 13.2306 18.0348C13.4726 18.2307 13.9321 18.3314 14.4342 17.9793C14.8713 17.6631 15.6265 17.0098 16.8878 16.476C16.3918 16.307 15.8808 16.2088 15.3915 16.1863ZM7.84729 14.1661C7.28702 14.1092 6.73205 14.1364 6.21389 14.252C7.74319 14.9662 8.61743 15.7902 9.10755 16.1578C9.11079 16.1603 9.11409 16.1628 9.11731 16.1652C10.0843 16.909 10.7077 16.692 10.8956 16.5443C11.0044 16.4588 11.0658 16.3445 11.0751 16.2079C11.0845 16.0712 11.0448 15.8347 10.8027 15.5319C10.2716 14.8681 9.1567 14.2991 7.84729 14.1661ZM11.9951 5.13291C11.8999 5.23573 11.7936 5.32916 11.6771 5.41094C11.4397 5.57753 11.1715 5.68859 10.8919 5.74033C10.8717 6.06781 10.7713 6.39028 10.5921 6.67705C10.4133 6.96333 10.1681 7.19475 9.88323 7.35645C9.91392 7.4172 9.94538 7.47451 9.97796 7.52813C10.3342 8.11444 10.3649 8.8425 10.0596 9.45684C9.97349 9.63006 9.86404 9.78743 9.73596 9.92569C9.80853 10.1185 9.88826 10.2872 9.97473 10.4305C10.3286 11.0167 10.3579 11.7433 10.0525 12.3562C10.0092 12.443 9.95994 12.5258 9.90549 12.6042C10.6012 12.8612 11.2449 13.2211 11.7739 13.675C12.1287 13.6288 12.4928 13.6782 12.8272 13.823C13.1451 13.9606 13.5225 13.9313 13.7878 13.7371C13.9907 13.5796 14.1993 13.2763 14.3717 12.7771C14.2574 12.6506 14.1582 12.5087 14.0781 12.3535C13.7645 11.7462 13.7826 11.0208 14.1264 10.43C14.2158 10.2763 14.2974 10.094 14.37 9.88457C14.2534 9.7564 14.1524 9.61224 14.071 9.4543C13.7575 8.84555 13.7773 8.11869 14.1234 7.52784C14.1567 7.47093 14.1885 7.40988 14.2197 7.34512C13.9363 7.18801 13.691 6.96217 13.5098 6.68174C13.3294 6.4026 13.2243 6.08783 13.1968 5.76651C12.8953 5.72441 12.6043 5.61363 12.3476 5.43877C12.2175 5.35015 12.0994 5.24731 11.9951 5.13291Z" fill="#696F88"/>
</svg>
