<svg xmlns="http://www.w3.org/2000/svg" width="24" height="24" viewBox="0 0 14.6008 20" fill="none">
<path id="vector" fill-rule="evenodd" clip-rule="evenodd" d="M9.92588 2.10352C10.3345 1.78617 10.5024 1.65746 11.0198 1.31035L11.2638 1.14668L14.6008 4.81689L14.3121 5.0417C12.9099 6.1341 11.9978 7.08218 11.4194 8.01855L11.4193 8.01875C10.8233 8.98265 10.544 9.98675 10.544 11.197C10.544 12.2448 10.6149 13.2586 10.6791 14.1665L10.7156 14.6851C10.7497 15.1878 10.7749 15.6415 10.7749 16.0334C10.7749 17.2786 10.5168 18.2953 9.95732 18.9986L9.95674 18.9993L9.95625 18.9999C9.41794 19.67 8.64672 20 7.71074 20C6.72775 20 5.94799 19.629 5.43037 18.8741C4.92818 18.1417 4.70059 17.0876 4.70059 15.7673C4.70059 14.8651 4.80474 13.8283 5.05791 12.214C4.79003 10.7891 4.35542 9.68267 3.65137 8.62021L3.65117 8.61992C2.92487 7.52158 1.89022 6.43096 0.284766 5.09014L0 4.85225L3.75137 1.1041L4.82881 2.09941V0H9.92588V2.10352ZM10.9419 4.05088C8.44849 6.135 7.16058 9.04647 7.30654 12.2894L7.30801 12.3212L7.30342 12.3528C7.06789 13.9868 6.97344 14.9705 6.97344 15.7673C6.97344 16.2896 7.00431 16.8531 7.14219 17.2773C7.21041 17.4872 7.29681 17.6368 7.39502 17.7311C7.48476 17.8172 7.59716 17.8704 7.76211 17.8704C7.89384 17.8704 7.98476 17.8397 8.05479 17.7908C8.12732 17.7402 8.20378 17.6516 8.27324 17.4939C8.4178 17.1659 8.49941 16.6157 8.49941 15.7673C8.49941 15.2065 8.464 14.4717 8.42793 13.6773C8.38698 12.8256 8.34551 11.9345 8.34551 11.197C8.34551 9.81758 8.63086 8.59245 9.22031 7.46582L9.22051 7.46543C9.71182 6.52944 10.4264 5.63075 11.4444 4.65098L10.9419 4.05088ZM3.18936 4.71152C4.21049 5.69647 5.12183 6.8067 5.71533 7.78701C5.7616 7.66405 5.80993 7.53956 5.86514 7.39814C5.92289 7.24948 5.98604 7.08978 6.06006 6.89473C5.28442 5.71325 4.61721 4.96285 3.75977 4.125L3.18936 4.71152ZM6.94746 4.28213L7.29932 4.76309L7.75674 4.13301L7.77998 2.03037H6.99463L6.94746 4.28213Z" fill="var(--fill-0, #696F88)"/>
</svg>