<svg width="24" height="24" viewBox="0 0 24 24" fill="none" xmlns="http://www.w3.org/2000/svg">
<path fill-rule="evenodd" clip-rule="evenodd" d="M14.6253 4.10352C15.034 3.78617 15.2018 3.65746 15.7193 3.31035L15.9632 3.14668L19.3002 6.81689L19.0116 7.0417C17.6094 8.1341 16.6973 9.08218 16.1189 10.0186L16.1188 10.0188C15.5228 10.9826 15.2435 11.9867 15.2435 13.197C15.2435 14.2448 15.3144 15.2586 15.3786 16.1665L15.4151 16.6851C15.4492 17.1878 15.4744 17.6415 15.4744 18.0334C15.4744 19.2786 15.2163 20.2953 14.6568 20.9986L14.6562 20.9993L14.6557 20.9999C14.1174 21.67 13.3462 22 12.4102 22C11.4272 22 10.6474 21.629 10.1298 20.8741C9.62765 20.1417 9.40005 19.0876 9.40005 17.7673C9.40005 16.8651 9.5042 15.8283 9.75737 14.214C9.4895 12.7891 9.05489 11.6827 8.35083 10.6202L8.35063 10.6199C7.62433 9.52158 6.58968 8.43096 4.98423 7.09014L4.69946 6.85225L8.45083 3.1041L9.52827 4.09941V2H14.6253V4.10352ZM15.6414 6.05088C13.148 8.135 11.86 11.0465 12.006 14.2894L12.0075 14.3212L12.0029 14.3528C11.7674 15.9868 11.6729 16.9705 11.6729 17.7673C11.6729 18.2896 11.7038 18.8531 11.8417 19.2773C11.9099 19.4872 11.9963 19.6368 12.0945 19.7311C12.1842 19.8172 12.2966 19.8704 12.4616 19.8704C12.5933 19.8704 12.6842 19.8397 12.7542 19.7908C12.8268 19.7402 12.9032 19.6516 12.9727 19.4939C13.1173 19.1659 13.1989 18.6157 13.1989 17.7673C13.1989 17.2065 13.1635 16.4717 13.1274 15.6773C13.0864 14.8256 13.045 13.9345 13.045 13.197C13.045 11.8176 13.3303 10.5924 13.9198 9.46582L13.92 9.46543C14.4113 8.52944 15.1259 7.63075 16.1439 6.65098L15.6414 6.05088ZM7.88882 6.71152C8.90995 7.69647 9.8213 8.8067 10.4148 9.78701C10.4611 9.66405 10.5094 9.53956 10.5646 9.39814C10.6223 9.24948 10.6855 9.08978 10.7595 8.89473C9.98388 7.71325 9.31667 6.96285 8.45923 6.125L7.88882 6.71152ZM11.6469 6.28213L11.9988 6.76309L12.4562 6.13301L12.4794 4.03037H11.6941L11.6469 6.28213Z" fill="#696F88"/>
</svg>
