<svg xmlns="http://www.w3.org/2000/svg" width="24" height="24" viewBox="0 0 15.3768 16.176" fill="none">
<path id="vector" d="M9.08159 16.176C8.36159 16.176 7.55759 15.2352 6.87599 13.5912C6.28319 12.1632 5.88479 10.4328 5.88479 9.288C5.88479 8.148 6.20639 7.44 6.72479 7.44C7.42079 7.44 8.21279 8.412 8.89919 10.1064C9.48719 11.556 9.89759 13.332 9.89759 14.424C9.89759 15.5376 9.59999 16.176 9.08159 16.176ZM12.732 14.256C12.4872 14.256 12.2568 14.064 12.0792 13.7184C11.928 13.4232 11.748 12.8712 11.748 11.928C11.748 10.7232 12.0696 9.036 12.5496 7.728C12.8136 7.008 13.1208 6.4104 13.4376 6.0024C13.7832 5.556 14.136 5.3304 14.4888 5.3304C15.0456 5.3304 15.3768 6.1728 15.3768 7.5864C15.3768 8.8272 15.0672 10.5024 14.5872 11.8512C14.0424 13.3776 13.368 14.256 12.732 14.256ZM0.791999 12.696C0.583199 12.696 0.3984 12.5712 0.2592 12.3312C0.0888 12.0432 0 11.6136 0 11.088C0 9.9624 0.470399 8.2032 1.1688 6.7104C1.5336 5.9328 1.9344 5.2824 2.3328 4.8288C2.7672 4.332 3.18 4.08 3.5568 4.08C4.0224 4.08 4.3008 4.6728 4.3008 5.664C4.3008 6.7272 3.8232 8.5128 3.1368 10.008C2.7744 10.8 2.376 11.4648 1.9872 11.928C1.5648 12.4296 1.152 12.696 0.791999 12.696ZM10.5696 6.144C9.58799 6.144 7.98959 5.3472 6.49919 4.116C5.78639 3.528 5.1792 2.904 4.7448 2.3136C4.2816 1.6872 4.0368 1.1256 4.0368 0.696C4.0368 0.228 4.2816 0 4.7808 0C5.73119 0 7.33919 0.816 8.87279 2.0808C9.60479 2.6832 10.2288 3.3168 10.6776 3.9096C11.1576 4.5432 11.4096 5.1 11.4096 5.5176C11.412 5.9352 11.1288 6.144 10.5696 6.144Z" fill="var(--fill-0, #696F88)"/>
</svg>