<svg width="24" height="24" viewBox="0 0 24 24" fill="none" xmlns="http://www.w3.org/2000/svg">
<path d="M13.3916 20.0859C12.6716 20.0859 11.8677 19.1451 11.1861 17.5011C10.5933 16.0731 10.1949 14.3427 10.1949 13.1979C10.1949 12.0579 10.5165 11.3499 11.0349 11.3499C11.7309 11.3499 12.5229 12.3219 13.2093 14.0163C13.7972 15.4659 14.2076 17.2419 14.2076 18.3339C14.2076 19.4475 13.91 20.0859 13.3916 20.0859ZM17.042 18.1659C16.7972 18.1659 16.5668 17.9739 16.3892 17.6283C16.238 17.3331 16.058 16.7811 16.058 15.8379C16.058 14.6331 16.3796 12.9459 16.8596 11.6379C17.1236 10.9179 17.4308 10.3203 17.7476 9.91231C18.0932 9.46591 18.446 9.24031 18.7988 9.24031C19.3556 9.24031 19.6868 10.0827 19.6868 11.4963C19.6868 12.7371 19.3772 14.4123 18.8972 15.7611C18.3524 17.2875 17.678 18.1659 17.042 18.1659ZM5.10206 16.6059C4.89326 16.6059 4.70846 16.4811 4.56926 16.2411C4.39886 15.9531 4.31006 15.5235 4.31006 14.9979C4.31006 13.8723 4.78046 12.1131 5.47886 10.6203C5.84366 9.84271 6.24446 9.19231 6.64286 8.73871C7.07726 8.24191 7.49006 7.98991 7.86686 7.98991C8.33245 7.98991 8.61085 8.58271 8.61085 9.57391C8.61085 10.6371 8.13326 12.4227 7.44686 13.9179C7.08446 14.7099 6.68606 15.3747 6.29726 15.8379C5.87486 16.3395 5.46206 16.6059 5.10206 16.6059ZM14.8796 10.0539C13.898 10.0539 12.2997 9.25711 10.8093 8.02591C10.0965 7.43791 9.48925 6.81391 9.05485 6.22351C8.59165 5.59711 8.34685 5.03551 8.34685 4.60591C8.34685 4.13791 8.59165 3.90991 9.09085 3.90991C10.0413 3.90991 11.6493 4.72591 13.1829 5.99071C13.9149 6.59311 14.5388 7.22671 14.9876 7.81951C15.4676 8.45311 15.7196 9.00991 15.7196 9.42751C15.722 9.84511 15.4388 10.0539 14.8796 10.0539Z" fill="#696F88"/>
</svg>
