<svg xmlns="http://www.w3.org/2000/svg" width="24" height="24" viewBox="0 0 20.3739 20.1777" fill="none">
<path id="vector" d="M10.4362 0.296997C10.7737 0.0558672 11.2043 -0.0665932 11.671 0.0370359L11.7144 0.0471922C12.1588 0.158953 12.4825 0.445193 12.6799 0.795239C12.8658 1.12496 12.9326 1.49318 12.9527 1.81653C12.993 2.46433 12.8618 3.2393 12.6659 3.99622C12.5016 4.63103 12.2766 5.30836 12.0187 5.97278C13.218 5.22355 14.8711 4.43944 16.3141 3.98752C17.0602 3.75386 17.8276 3.5838 18.4766 3.59153C18.8006 3.59539 19.1717 3.6436 19.5103 3.81272C19.8814 3.99806 20.1913 4.32134 20.3182 4.78225L20.3295 4.82532C20.4388 5.2703 20.3374 5.69044 20.1206 6.02874C19.9162 6.34737 19.6221 6.57871 19.3458 6.74788C18.7923 7.08678 18.0461 7.33369 17.2855 7.51497C15.7918 7.87097 13.9366 8.04368 12.514 8.00725L12.4997 8.00676C12.4474 8.04324 12.3905 8.07502 12.3295 8.1011C10.4335 8.91159 9.28034 9.75204 8.50112 10.5865C9.39904 10.406 10.3367 10.2768 11.1842 10.2325C11.965 10.1917 12.7506 10.2178 13.3773 10.3866C13.6901 10.4709 14.0376 10.61 14.3236 10.858C14.6369 11.1298 14.8567 11.52 14.8651 11.998L14.8653 12.0425C14.8605 12.5007 14.6579 12.8824 14.3637 13.1562C14.0866 13.414 13.7442 13.5649 13.4345 13.6601C12.8141 13.8507 12.0298 13.9043 11.2481 13.8907C9.8334 13.8663 8.16023 13.6145 6.8351 13.2708C6.83147 13.279 6.8278 13.2871 6.82416 13.2952C6.59001 13.8208 6.36234 14.3713 6.09409 14.9386C7.15951 14.8123 8.3096 14.7587 9.31977 14.8117C10.1006 14.8528 10.8791 14.9608 11.4847 15.1943C11.787 15.3108 12.118 15.4854 12.3765 15.7619C12.6597 16.065 12.8375 16.476 12.7958 16.9523L12.7914 16.9966C12.7387 17.4518 12.4973 17.8102 12.1761 18.0517C11.8736 18.2791 11.5173 18.3935 11.1994 18.4558C10.5624 18.5805 9.77688 18.5518 9.00082 18.4567C7.57776 18.2821 5.91512 17.8479 4.62582 17.3597C3.92906 18.2427 2.99988 19.1375 1.68422 20.0173C1.24808 20.309 0.658005 20.1918 0.366351 19.7557C0.0747141 19.3196 0.191845 18.7295 0.627972 18.4378C1.41079 17.9143 2.02827 17.3947 2.53061 16.875C1.77575 15.7446 0.997025 14.271 0.510785 12.9615C0.238614 12.2286 0.0288338 11.4711 0.00277717 10.8226C-0.010226 10.4989 0.0186889 10.1257 0.169965 9.77874C0.335749 9.39849 0.64244 9.07216 1.09614 8.92141L1.13862 8.90793C1.57727 8.77565 2.00201 8.85496 2.35112 9.05393C2.67997 9.24138 2.92639 9.52313 3.10971 9.79026C3.47696 10.3254 3.76235 11.0577 3.98295 11.8078C4.17733 12.4688 4.3384 13.2043 4.46059 13.9429C4.67567 13.4761 4.87415 13.0034 5.08862 12.522C5.11019 12.4736 5.13206 12.4251 5.15405 12.3764L5.13832 12.3357C4.64636 10.9825 4.217 9.09609 4.09203 7.51594C4.0304 6.73653 4.03549 5.95054 4.18754 5.31956C4.26345 5.00459 4.39324 4.65354 4.63354 4.36106C4.89686 4.04056 5.28094 3.8104 5.75854 3.78928L5.80307 3.78791C6.26122 3.78046 6.64823 3.97281 6.92973 4.25959C7.19486 4.52973 7.35496 4.868 7.45834 5.17502C7.66546 5.79014 7.73996 6.5726 7.74731 7.35442C7.75138 7.78831 7.73462 8.24706 7.70073 8.71311C8.03676 8.41095 8.41094 8.11661 8.83051 7.82981C8.74049 6.43343 8.82416 4.65545 9.09409 3.20305C9.23695 2.43435 9.44589 1.67662 9.75659 1.10676C9.91168 0.822306 10.1282 0.517048 10.4362 0.296997Z" fill="var(--fill-0, #696F88)"/>
</svg>