<svg width="24" height="24" viewBox="0 0 24 24" fill="none" xmlns="http://www.w3.org/2000/svg">
<path d="M12 9.7999C13.2151 9.7999 14.2 10.7849 14.2 11.9999C14.2 13.2149 13.2151 14.1999 12 14.1999C10.785 14.1999 9.80002 13.2149 9.80002 11.9999C9.80002 10.7849 10.785 9.7999 12 9.7999Z" fill="#696F88"/>
<path fill-rule="evenodd" clip-rule="evenodd" d="M12 2.3999C13.0855 2.39992 13.7001 3.43142 13.8071 5.25576C14.8119 3.72929 15.86 3.14341 16.8 3.68613C17.74 4.22885 17.7566 5.42936 16.9371 7.0627C18.5705 6.2432 19.7712 6.25988 20.3139 7.1999C20.8566 8.13993 20.2706 9.1879 18.7443 10.1927C20.5686 10.2996 21.6 10.9144 21.6 11.9999C21.6 13.0853 20.5686 13.7 18.7444 13.807C20.2708 14.8118 20.8567 15.8599 20.314 16.7999C19.7712 17.74 18.5705 17.7565 16.9369 16.9368C17.7566 18.5703 17.7401 19.771 16.8 20.3138C15.86 20.8565 14.8119 20.2705 13.8071 18.744C13.7001 20.5684 13.0855 21.5999 12 21.5999C10.9146 21.5999 10.2998 20.5684 10.1928 18.7441C9.18802 20.2705 8.14005 20.8565 7.20002 20.3138C6.25997 19.771 6.24335 18.5703 7.06292 16.9369C5.42953 17.7564 4.22899 17.7399 3.68625 16.7999C3.14353 15.8599 3.7294 14.8118 5.25579 13.807C3.43149 13.7001 2.40003 13.0854 2.40002 11.9999C2.40002 10.9144 3.43152 10.2996 5.25588 10.1927C3.72956 9.18791 3.14363 8.13992 3.68635 7.1999C4.22907 6.25991 5.42963 6.24327 7.06292 7.0627C6.24345 5.42937 6.26002 4.22876 7.20002 3.68604C8.14002 3.14333 9.18805 3.72923 10.1928 5.25547C10.2998 3.43129 10.9146 2.3999 12 2.3999ZM13.3093 7.11348C12.7568 6.96547 12.3033 7.40656 12 8.32041C11.6968 7.40658 11.2433 6.96547 10.6908 7.11348C10.1383 7.26152 9.96611 7.87031 10.1605 8.81348C9.44085 8.17357 8.82744 8.0183 8.42297 8.42275C8.0185 8.82723 8.17392 9.44059 8.81389 10.1603C7.87063 9.96583 7.26168 10.138 7.1136 10.6905C6.96555 11.243 7.40679 11.6965 8.32083 11.9998C7.40679 12.3031 6.96559 12.7567 7.1136 13.3092C7.26165 13.8617 7.87055 14.0338 8.8137 13.8395C8.17381 14.559 8.01849 15.1725 8.42288 15.577C8.82734 15.9814 9.44066 15.826 10.1603 15.1861C9.96589 16.1293 10.1382 16.7383 10.6906 16.8863C11.2432 17.0344 11.6968 16.593 12 15.6788C12.3033 16.593 12.7568 17.0344 13.3094 16.8863C13.8619 16.7383 14.0341 16.1293 13.8397 15.186C14.5594 15.8261 15.1729 15.9816 15.5774 15.5771C15.9818 15.1726 15.8264 14.5591 15.1865 13.8395C16.1296 14.0338 16.7385 13.8617 16.8865 13.3092C17.0346 12.7567 16.5934 12.3031 15.6794 11.9998C16.5934 11.6965 17.0346 11.243 16.8865 10.6905C16.7385 10.138 16.1295 9.9658 15.1862 10.1603C15.8261 9.44062 15.9815 8.82733 15.5771 8.42285C15.1726 8.0184 14.5593 8.17361 13.8397 8.81348C14.034 7.87032 13.8618 7.26152 13.3093 7.11348Z" fill="#696F88"/>
</svg>
