<svg xmlns="http://www.w3.org/2000/svg" width="24" height="24" viewBox="0 0 13.6 20.2" fill="none">
<path id="vector" fill-rule="evenodd" clip-rule="evenodd" d="M8.7499 0.428502C10.0373 -0.278156 11.568 0.0304482 12.6091 0.352819C13.121 0.511343 13.417 1.04531 13.2802 1.56346C13.0019 2.61716 12.4525 4.07873 11.171 4.79608C11.1686 4.79743 11.1661 4.79876 11.1637 4.80008C10.7458 5.02944 10.3023 5.15174 9.8583 5.20145C10.7768 5.61537 11.5262 6.23186 12.1068 7.01629C13.1992 8.49207 13.6 10.4351 13.6 12.4C13.6 14.3649 13.1992 16.3079 12.1068 17.7837C10.9774 19.3095 9.20958 20.2 6.8 20.2C4.39042 20.2 2.62256 19.3095 1.49316 17.7837C0.400842 16.3079 1.91964e-06 14.3649 0 12.4C3.24261e-09 10.4351 0.400845 8.49207 1.49316 7.01629C2.49785 5.65892 4.0078 4.80438 6.02529 4.63221C5.98075 4.57757 5.94121 4.51761 5.9082 4.45243L5.88613 4.40594L5.86836 4.36971C5.76949 4.18461 5.47818 3.85521 4.83574 3.53495L4.76797 3.50184L4.72217 3.4784C4.25723 3.22598 4.06701 2.65047 4.29814 2.16796C4.52929 1.68545 5.09698 1.47294 5.58506 1.67704L5.63203 1.69813L5.72246 1.74227C6.20685 1.98336 6.63682 2.27189 6.98496 2.59989C7.3236 1.77537 7.85915 0.927055 8.74268 0.432506C8.74507 0.431168 8.7475 0.429821 8.7499 0.428502ZM6.8 6.59999C4.93475 6.59999 3.80258 7.25784 3.10068 8.20614C2.36172 9.20451 2 10.6615 2 12.4C2 14.1385 2.36172 15.5955 3.10068 16.5938C3.80259 17.5421 4.93476 18.2 6.8 18.2C8.66524 18.2 9.79741 17.5421 10.4993 16.5938C11.2383 15.5955 11.6 14.1385 11.6 12.4C11.6 10.6615 11.2383 9.20451 10.4993 8.20614C9.79742 7.25784 8.66525 6.59999 6.8 6.59999ZM11.0074 2.03192C10.4781 1.9623 10.038 2.00473 9.71602 2.17997C9.39678 2.36017 9.12753 2.71092 8.90605 3.19676C9.43544 3.2664 9.87567 3.22406 10.1977 3.04881C10.5169 2.86862 10.786 2.51773 11.0074 2.03192Z" fill="var(--fill-0, #696F88)"/>
</svg>