<svg width="24" height="24" viewBox="0 0 24 24" fill="none" xmlns="http://www.w3.org/2000/svg">
<path fill-rule="evenodd" clip-rule="evenodd" d="M14.4336 2.92944C14.4526 2.91442 14.4716 2.89936 14.4907 2.88433L15.6233 1.99224L19.2586 6.24849L18.0398 7.21499C16.7927 8.20429 16.1366 8.97221 15.7546 9.60981C15.3836 10.2293 15.2182 10.8114 15.0771 11.554C15.0124 11.9298 14.9654 12.3343 14.9323 12.7794L14.9189 12.974C14.8972 13.3135 14.9721 13.6791 15.1337 14.1078C15.3012 14.5519 15.5242 14.9753 15.7768 15.4922L15.7804 15.4996L15.811 15.5634L15.8124 15.5665L15.8138 15.5695C16.1762 16.3398 16.3839 17.2224 16.3746 18.1025V18.1067L16.3745 18.1108L16.3731 18.1828L16.3729 18.1911C16.3482 19.0961 16.0828 20.1295 15.3516 20.9769L15.3469 20.9823L15.3421 20.9876L15.2886 21.0479L15.2842 21.0529L15.2798 21.0578C14.4996 21.9132 13.3803 22.3432 12.2125 22.3862L12.201 22.3866L12.1083 22.3889L12.0985 22.3891C10.8399 22.4086 9.61018 21.9709 8.77944 21.0681L8.74019 21.0248C7.98183 20.174 7.70538 19.1261 7.67739 18.2069L7.6772 18.2024L7.67554 18.1251L7.67544 18.121V18.117C7.66278 17.1693 7.90218 16.214 8.32104 15.396L8.32261 15.3928L8.32427 15.3897L8.352 15.3365L8.32104 15.3314H8.35464C8.6348 14.8013 8.88009 14.3414 9.05366 13.9089C9.01877 13.3693 8.97443 12.8578 8.92241 12.5536C8.7813 11.8112 8.61589 11.2292 8.24487 10.6098L8.20825 10.5497C7.82134 9.924 7.16795 9.17336 5.95981 8.21499L4.74097 7.24849L8.37632 2.99224L8.85054 3.36577L8.74878 2.17847L14.3283 1.69995L14.4336 2.92944ZM15.3543 4.75688C14.1881 5.71984 13.364 6.6261 12.7752 7.55894L12.7171 7.6523C12.1245 8.61876 11.7678 9.63628 11.553 10.8102L11.531 10.9333C11.4223 11.5616 11.3553 12.2309 11.3152 12.9443C11.242 14.2467 10.5746 15.4112 10.123 16.2658L10.0979 16.3139C9.82248 16.8543 9.66796 17.4845 9.67515 18.0856L9.67661 18.1515C9.69537 18.7356 9.86878 19.2851 10.2332 19.6939L10.269 19.7329C10.6475 20.1309 11.2796 20.4009 12.0651 20.3893L12.1437 20.3873C12.881 20.3591 13.4513 20.0945 13.8021 19.7099L13.8385 19.6688C14.191 19.2595 14.3579 18.7131 14.3737 18.1366L14.3748 18.0777C14.3801 17.5193 14.246 16.9362 14.0052 16.4235L13.9763 16.363C13.76 15.9208 13.4722 15.3699 13.2624 14.8134C13.0455 14.2383 12.8765 13.5736 12.923 12.8462L12.9378 12.6314C12.9749 12.1337 13.0289 11.6608 13.1076 11.2061L13.1089 11.1983L13.1104 11.1905C13.272 10.3373 13.4938 9.49223 14.039 8.58208C14.5269 7.76762 15.2589 6.92532 16.3951 5.97524L15.3543 4.75688ZM7.60454 6.97524C8.64274 7.84341 9.34348 8.62159 9.82886 9.37075C9.99792 8.74809 10.2151 8.14707 10.4943 7.5606C9.9999 6.96823 9.39296 6.37432 8.64517 5.75689L7.60454 6.97524ZM10.9124 4.00024L10.9807 4.79731V4.79751C10.9807 4.79779 10.9808 4.7983 10.9808 4.79897C10.9809 4.80037 10.9811 4.8026 10.9814 4.80562C10.9819 4.81168 10.9826 4.82098 10.9836 4.83335C10.9857 4.85811 10.9887 4.8952 10.9923 4.94321C10.9971 5.00634 11.0029 5.08841 11.0096 5.18638C11.2094 5.3797 11.4 5.57393 11.5814 5.76978C11.8775 5.37453 12.2066 4.98883 12.5704 4.60825L12.5065 3.86353L10.9124 4.00024Z" fill="#696F88"/>
</svg>
