<svg xmlns="http://www.w3.org/2000/svg" width="24" height="24" viewBox="0 0 14.5177 20.6898" fill="none">
<path id="vector" fill-rule="evenodd" clip-rule="evenodd" d="M9.69268 1.22949C9.71163 1.21446 9.73063 1.19941 9.74971 1.18438L10.8823 0.292285L14.5177 4.54854L13.2988 5.51504C12.0517 6.50434 11.3956 7.27226 11.0137 7.90986C10.6426 8.52934 10.4773 9.11143 10.3361 9.854C10.2714 10.2299 10.2244 10.6343 10.1913 11.0795L10.1779 11.274C10.1562 11.6135 10.2312 11.9792 10.3928 12.4078C10.5602 12.852 10.7832 13.2754 11.0358 13.7923L11.0395 13.7996L11.07 13.8635L11.0714 13.8665L11.0729 13.8695C11.4352 14.6398 11.6429 15.5225 11.6336 16.4025V16.4067L11.6335 16.4108L11.6321 16.4828L11.6319 16.4911C11.6072 17.3961 11.3419 18.4296 10.6106 19.277L10.606 19.2823L10.6012 19.2877L10.5477 19.3479L10.5433 19.3529L10.5389 19.3578C9.75862 20.2133 8.63929 20.6433 7.47148 20.6862L7.46006 20.6866L7.36738 20.689L7.35752 20.6892C6.09893 20.7086 4.86922 20.271 4.03848 19.3682L3.99922 19.3248C3.24086 18.474 2.96442 17.4262 2.93643 16.5069L2.93623 16.5024L2.93457 16.4252L2.93447 16.4211V16.4171C2.92181 15.4694 3.16122 14.514 3.58008 13.6961L3.58164 13.6929L3.5833 13.6897L3.61103 13.6365L3.58008 13.6314H3.61367C3.89383 13.1013 4.13912 12.6414 4.3127 12.209C4.27781 11.6694 4.23346 11.1579 4.18145 10.8536C4.04034 10.1112 3.87492 9.52924 3.50391 8.90986L3.46728 8.84971C3.08038 8.22405 2.42699 7.47341 1.21885 6.51504L0 5.54854L3.63535 1.29229L4.10957 1.66582L4.00781 0.478516L9.5873 0L9.69268 1.22949ZM10.6134 3.05693C9.44712 4.01989 8.62301 4.92615 8.03428 5.85898L7.97617 5.95234C7.38354 6.91881 7.02679 7.93633 6.81201 9.11025L6.79004 9.2334C6.68136 9.8617 6.6143 10.5309 6.57422 11.2443C6.50105 12.5467 5.83365 13.7112 5.38203 14.5658L5.35693 14.614C5.08151 15.1543 4.92699 15.7846 4.93418 16.3856L4.93564 16.4516C4.95441 17.0356 5.12781 17.5851 5.49219 17.9939L5.52803 18.0329C5.90657 18.431 6.53863 18.7009 7.32412 18.6894L7.40273 18.6873C8.13999 18.6592 8.71034 18.3946 9.06113 18.01L9.09756 17.9688C9.45003 17.5596 9.61698 17.0132 9.63271 16.4366L9.63379 16.3777C9.63913 15.8194 9.50499 15.2362 9.26426 14.7235L9.23535 14.6631C9.01902 14.2209 8.7312 13.67 8.52139 13.1135C8.30455 12.5383 8.13549 11.8736 8.18203 11.1463L8.19687 10.9314C8.2339 10.4338 8.28793 9.9609 8.3666 9.50615L8.36797 9.49834L8.36943 9.49053C8.53108 8.63735 8.75285 7.79228 9.29805 6.88213C9.78593 6.06767 10.5179 5.22537 11.6541 4.27529L10.6134 3.05693ZM2.86357 5.27529C3.90178 6.14346 4.60251 6.92164 5.08789 7.6708C5.25695 7.04814 5.47417 6.44711 5.75332 5.86064C5.25893 5.26828 4.65199 4.67436 3.9042 4.05693L2.86357 5.27529ZM6.17139 2.30029L6.23975 3.09736V3.09756C6.23977 3.09784 6.23979 3.09835 6.23984 3.09902C6.23996 3.10042 6.24018 3.10265 6.24043 3.10566C6.24094 3.11173 6.24167 3.12103 6.24268 3.1334C6.24468 3.15816 6.24771 3.19525 6.25137 3.24326C6.25617 3.30639 6.26194 3.38846 6.26865 3.48643C6.46848 3.67975 6.65902 3.87398 6.84043 4.06982C7.13655 3.67458 7.46559 3.28888 7.82939 2.9083L7.76553 2.16357L6.17139 2.30029Z" fill="var(--fill-0, #696F88)"/>
</svg>