<svg xmlns="http://www.w3.org/2000/svg" width="24" height="24" viewBox="0 0 16.8622 17.4239" fill="none">
<path id="vector" d="M4.48446 9.17196C4.69066 9.17608 4.8911 9.24359 5.0577 9.3663L5.08895 9.39071C5.40689 9.63831 5.609 10.0008 5.73641 10.2784C5.88431 10.6006 6.00646 10.9791 6.10165 11.3751C6.29139 12.1646 6.39581 13.1246 6.32528 14.0362C6.25728 14.9145 6.01304 15.9307 5.33114 16.6368C4.56047 17.4347 3.46195 17.6161 2.22958 17.2257C0.997262 16.8352 0.203873 16.0542 0.033289 14.9581C-0.117578 13.9882 0.267741 13.017 0.717859 12.2599C1.18515 11.4738 1.82291 10.7482 2.4327 10.212C2.73856 9.94304 3.05692 9.70474 3.36337 9.52645C3.63597 9.36788 4.02607 9.18091 4.44345 9.17196H4.48446ZM12.0323 9.61923C12.9451 9.5655 13.9036 9.68737 14.6895 9.89169C15.0838 9.99418 15.4599 10.1236 15.7794 10.2774C16.0635 10.4143 16.4374 10.6321 16.6788 10.9727L16.7013 11.0069C16.8135 11.1801 16.8697 11.384 16.8614 11.5909L16.8595 11.63C16.8327 12.0321 16.6458 12.403 16.4874 12.6641C16.3035 12.9672 16.0588 13.2804 15.7843 13.5811C15.2368 14.181 14.4998 14.8062 13.7052 15.2589C12.9399 15.6948 11.9619 16.0614 10.9952 15.8927C9.90246 15.7019 9.13529 14.8946 8.76766 13.6554C8.40007 12.416 8.60305 11.3203 9.41512 10.5645C10.1335 9.89617 11.1531 9.67102 12.0323 9.61923ZM3.75399 11.714C3.27863 12.132 2.78266 12.7002 2.43661 13.2823C2.0736 13.8931 1.96555 14.3653 2.00985 14.6505C2.03458 14.8094 2.12563 15.095 2.83407 15.3194C3.54222 15.5437 3.78095 15.3628 3.89266 15.2472C4.09312 15.0395 4.27628 14.5904 4.33114 13.8819C4.38337 13.2068 4.30523 12.4573 4.15731 11.8419C4.12455 11.7056 4.08963 11.5807 4.0538 11.4688C3.9601 11.5397 3.85921 11.6214 3.75399 11.714ZM12.1505 11.6153C11.4409 11.6571 10.9887 11.8328 10.7774 12.0294C10.6597 12.139 10.4745 12.374 10.6856 13.086C10.8969 13.7984 11.1805 13.8943 11.339 13.922C11.6233 13.9716 12.0974 13.8724 12.7149 13.5206C13.3032 13.1855 13.88 12.7009 14.3067 12.2335C14.4013 12.1299 14.4851 12.0301 14.5577 11.9376C14.4465 11.8997 14.3223 11.8625 14.1866 11.8272C13.5741 11.668 12.8264 11.5756 12.1505 11.6153ZM4.78036 0.085046C5.1637 -0.0395106 5.57763 -0.00414629 5.87899 0.0459835C6.22863 0.104186 6.61013 0.215343 6.9913 0.358484C7.75142 0.643938 8.60504 1.09567 9.3204 1.66512C10.0096 2.21381 10.7137 2.98592 10.9161 3.94637C11.1448 5.03179 10.6801 6.04321 9.6661 6.84481C8.65196 7.6464 7.56002 7.86581 6.55673 7.39266C5.66912 6.97399 5.08084 6.11071 4.70614 5.31356C4.31724 4.48604 4.07399 3.55077 3.97177 2.7452C3.92051 2.34112 3.9017 1.94366 3.92587 1.58993C3.94737 1.27531 4.01083 0.847833 4.23739 0.497155L4.26083 0.462976C4.37988 0.294452 4.54814 0.165922 4.74325 0.0967648L4.78036 0.085046ZM5.95614 2.49325C6.03579 3.121 6.22783 3.84927 6.51571 4.462C6.81804 5.10528 7.1492 5.45995 7.41024 5.58309C7.55577 5.65169 7.84313 5.73704 8.42587 5.27645C9.00888 4.81563 8.99223 4.51587 8.95907 4.35848C8.89943 4.07613 8.63095 3.67303 8.07528 3.23055C7.54547 2.80874 6.88078 2.45309 6.28817 2.23055C6.15689 2.18126 6.03379 2.14059 5.92098 2.10751C5.92712 2.22486 5.9385 2.35419 5.95614 2.49325Z" fill="var(--fill-0, #696F88)"/>
</svg>