<svg width="24" height="24" viewBox="0 0 24 24" fill="none" xmlns="http://www.w3.org/2000/svg">
<path fill-rule="evenodd" clip-rule="evenodd" d="M8.05514 12.2347C8.26134 12.2388 8.46178 12.3063 8.62838 12.429L8.65963 12.4535C8.97757 12.7011 9.17968 13.0636 9.30709 13.3411C9.45498 13.6634 9.57713 14.0418 9.67233 14.4378C9.86207 15.2273 9.96649 16.1874 9.89596 17.099C9.82796 17.9773 9.58371 18.9935 8.90182 19.6995C8.13115 20.4975 7.03262 20.6788 5.80026 20.2884C4.56794 19.898 3.77455 19.117 3.60397 18.0208C3.4531 17.051 3.83842 16.0798 4.28854 15.3226C4.75583 14.5366 5.39359 13.811 6.00338 13.2747C6.30924 13.0058 6.6276 12.7675 6.93405 12.5892C7.20665 12.4306 7.59675 12.2437 8.01412 12.2347H8.05514ZM15.603 12.682C16.5158 12.6282 17.4743 12.7501 18.2602 12.9544C18.6544 13.0569 19.0306 13.1863 19.3501 13.3402C19.6342 13.477 20.0081 13.6949 20.2495 14.0355L20.2719 14.0697C20.3842 14.2428 20.4404 14.4468 20.4321 14.6536L20.4301 14.6927C20.4034 15.0948 20.2165 15.4657 20.0581 15.7269C19.8742 16.03 19.6295 16.3431 19.3549 16.6439C18.8075 17.2437 18.0704 17.8689 17.2758 18.3216C16.5105 18.7576 15.5326 19.1241 14.5659 18.9554C13.4731 18.7646 12.706 17.9573 12.3383 16.7181C11.9707 15.4787 12.1737 14.3831 12.9858 13.6273C13.7042 12.9589 14.7238 12.7338 15.603 12.682ZM7.32467 14.7767C6.84931 15.1947 6.35334 15.7629 6.00729 16.3451C5.64427 16.9558 5.53623 17.428 5.58053 17.7132C5.60526 17.8721 5.69631 18.1577 6.40475 18.3822C7.1129 18.6064 7.35163 18.4256 7.46334 18.3099C7.6638 18.1022 7.84696 17.6532 7.90182 16.9447C7.95405 16.2696 7.87591 15.52 7.72799 14.9046C7.69523 14.7684 7.66031 14.6435 7.62448 14.5316C7.53078 14.6024 7.42989 14.6842 7.32467 14.7767ZM15.7212 14.6781C15.0116 14.7198 14.5594 14.8955 14.3481 15.0921C14.2304 15.2018 14.0452 15.4368 14.2563 16.1488C14.4676 16.8611 14.7512 16.957 14.9096 16.9847C15.1939 17.0343 15.6681 16.9351 16.2856 16.5833C16.8738 16.2482 17.4507 15.7636 17.8774 15.2962C17.972 15.1926 18.0558 15.0928 18.1284 15.0003C18.0171 14.9624 17.893 14.9253 17.7573 14.89C17.1448 14.7307 16.3971 14.6383 15.7212 14.6781ZM8.35104 3.14779C8.73438 3.02323 9.14831 3.0586 9.44967 3.10873C9.79931 3.16693 10.1808 3.27809 10.562 3.42123C11.3221 3.70668 12.1757 4.15842 12.8911 4.72787C13.5802 5.27655 14.2844 6.04866 14.4868 7.00912C14.7155 8.09453 14.2508 9.10596 13.2368 9.90756C12.2226 10.7091 11.1307 10.9286 10.1274 10.4554C9.2398 10.0367 8.65152 9.17345 8.27682 8.37631C7.88791 7.54878 7.64467 6.61351 7.54244 5.80795C7.49119 5.40387 7.47238 5.00641 7.49655 4.65267C7.51805 4.33805 7.5815 3.91058 7.80807 3.5599L7.83151 3.52572C7.95056 3.3572 8.11882 3.22867 8.31393 3.15951L8.35104 3.14779ZM9.52682 5.55599C9.60647 6.18375 9.79851 6.91201 10.0864 7.52474C10.3887 8.16803 10.7199 8.5227 10.9809 8.64584C11.1264 8.71444 11.4138 8.79978 11.9965 8.3392C12.5796 7.87838 12.5629 7.57861 12.5297 7.42123C12.4701 7.13887 12.2016 6.73577 11.646 6.2933C11.1162 5.87148 10.4515 5.51584 9.85885 5.2933C9.72757 5.244 9.60447 5.20333 9.49166 5.17025C9.4978 5.28761 9.50918 5.41694 9.52682 5.55599Z" fill="#696F88"/>
</svg>
