<svg width="24" height="24" viewBox="0 0 24 24" fill="none" xmlns="http://www.w3.org/2000/svg">
<path fill-rule="evenodd" clip-rule="evenodd" d="M12 1.94995C12.4935 1.94996 12.9133 2.31007 12.9883 2.7979C13.0704 3.33115 13.409 3.92802 14.041 4.68472C14.6874 5.45869 15.445 6.18614 16.3237 7.14194C17.9936 8.95846 19.8 11.3017 19.8 14.6C19.8 17.5842 17.7166 19.4599 15.907 20.5244C14.984 21.0673 14.0697 21.4395 13.3912 21.6756C13.0502 21.7943 12.7645 21.8801 12.5613 21.9369C12.5605 21.9371 12.5597 21.9372 12.5589 21.9375C12.5319 21.9518 12.5083 21.9642 12.4881 21.9744C12.4696 21.9837 12.454 21.9913 12.4417 21.9972C12.4356 22.0002 12.4302 22.0026 12.4257 22.0047C12.4235 22.0058 12.4215 22.0068 12.4197 22.0077C12.4188 22.0081 12.4179 22.0085 12.417 22.0088C12.4166 22.009 12.4161 22.0092 12.4159 22.0093C12.4159 22.0093 12.4158 22.0093 12.4022 21.9798C12.4019 21.9799 12.4015 21.98 12.4012 21.9801L12.4148 22.0098C12.1513 22.1299 11.8486 22.1299 11.5851 22.0098L11.5986 21.9801C11.5983 21.98 11.5979 21.9799 11.5976 21.9798C11.584 22.0093 11.584 22.0093 11.584 22.0093C11.5838 22.0092 11.5833 22.009 11.5829 22.0088C11.582 22.0085 11.5811 22.0081 11.5802 22.0077C11.5784 22.0068 11.5763 22.0058 11.5741 22.0047C11.5696 22.0026 11.5642 22.0002 11.5581 21.9972C11.5458 21.9913 11.5303 21.9837 11.5118 21.9744C11.4916 21.9642 11.4679 21.9519 11.4409 21.9375C11.4401 21.9372 11.4394 21.9371 11.4386 21.9369C11.2354 21.8801 10.9497 21.7943 10.6087 21.6756C9.93021 21.4395 9.01588 21.0673 8.09292 20.5244C6.28332 19.4599 4.19995 17.5842 4.19995 14.6C4.19995 11.3017 6.00631 8.95846 7.67622 7.14194C8.55489 6.18614 9.31255 5.45869 9.95894 4.68472C10.5909 3.92802 10.9295 3.33115 11.0116 2.7979C11.0866 2.31007 11.5064 1.94995 12 1.94995ZM11 8.5394C10.257 10.1946 9.59995 12.0839 9.59995 14.65C9.59995 16.781 10.3105 18.1501 11 18.9905V8.5394ZM13 18.9905C13.6894 18.1501 14.4 16.781 14.4 14.65C14.4 12.0839 13.7429 10.1946 13 8.5394V18.9905ZM8.60269 9.10825C7.25019 10.6808 6.19995 12.3883 6.19995 14.6C6.19995 16.161 7.07419 17.3458 8.25835 18.2373C7.86361 17.2637 7.59995 16.0776 7.59995 14.65C7.59995 12.417 8.03971 10.6255 8.60269 9.10825ZM15.3971 9.10825C15.9601 10.6255 16.4 12.417 16.4 14.65C16.4 16.0776 16.1362 17.2637 15.7415 18.2373C16.9257 17.3458 17.8 16.161 17.8 14.6C17.8 12.3883 16.7496 10.6809 15.3971 9.10825Z" fill="#696F88"/>
</svg>
