<svg xmlns="http://www.w3.org/2000/svg" width="24" height="24" viewBox="0 0 14.8 20.1" fill="none">
<path id="vector" fill-rule="evenodd" clip-rule="evenodd" d="M7.4 0C9.51514 5.80356e-06 11.3569 1.21823 12.7072 2.95752L12.7696 3.03887C14.0718 4.75607 14.8 7.00783 14.8 9.13604L14.7985 9.31074C14.769 11.1055 14.2812 12.5695 13.2951 13.7572L13.2943 13.7582C12.426 14.8013 11.3511 15.452 10.4168 16.0018L10.4167 16.0017C9.91896 16.2954 9.26425 16.7096 8.97061 16.9726L8.97051 16.9725C8.51749 17.3812 8.40001 17.6352 8.4 17.9V19.1C8.4 19.6523 7.95229 20.1 7.4 20.1C6.84772 20.1 6.4 19.6523 6.4 19.1V17.9C6.39999 17.6352 6.28251 17.3812 5.82949 16.9725L5.82939 16.9726C5.53575 16.7096 4.88104 16.2954 4.3833 16.0017L4.3832 16.0018C3.44891 15.452 2.37396 14.8013 1.50566 13.7582L1.50488 13.7572C0.518846 12.5695 0.0309866 11.1055 0.00146484 9.31074L0 9.13604C1.91172e-05 7.00783 0.728246 4.75607 2.03037 3.03887L2.09277 2.95752C3.44314 1.21823 5.28486 5.80356e-06 7.4 0ZM7.4 2C6.10203 2 4.78586 2.74998 3.67246 4.18408L3.67236 4.18428C2.61406 5.547 2.00002 7.40099 2 9.13604L2.00107 9.27578C2.024 10.7049 2.40073 11.7047 3.04287 12.4786L3.10156 12.5479C3.67436 13.2107 4.38723 13.6782 5.22285 14.1748L5.39746 14.278L5.39854 14.2786C5.65353 14.4291 6.01219 14.6468 6.36143 14.8807C6.27175 14.1907 6.03425 13.6811 5.74385 13.2854C5.38372 12.7948 4.90632 12.4303 4.39814 12.1242L4.29609 12.0638L4.25234 12.0367C3.80944 11.7474 3.66665 11.1582 3.93623 10.6961C4.20583 10.234 4.78891 10.0683 5.25879 10.3114L5.30391 10.3362L5.42793 10.4097C5.73771 10.5961 6.07105 10.8194 6.39873 11.0925C6.37939 10.1339 6.10183 9.47321 5.74385 8.98545C5.38372 8.49478 4.90632 8.13031 4.39814 7.82422L4.29609 7.76377L4.25234 7.73672C3.80944 7.44735 3.66665 6.85824 3.93623 6.39609C4.20583 5.93398 4.78891 5.76832 5.25879 6.01143L5.30391 6.03623L5.42793 6.10967C5.7381 6.2963 6.07193 6.51992 6.4 6.79346V4.9C6.4 4.34772 6.84772 3.9 7.4 3.9C7.95229 3.9 8.4 4.34772 8.4 4.9V6.79346C8.72807 6.51992 9.0619 6.2963 9.37207 6.10967L9.49609 6.03623L9.54121 6.01143C10.0111 5.76832 10.5942 5.93398 10.8638 6.39609C11.1334 6.85824 10.9906 7.44735 10.5477 7.73672L10.5039 7.76377L10.4019 7.82422C9.89368 8.13031 9.41628 8.49478 9.05615 8.98545C8.69817 9.47321 8.42052 10.1339 8.40117 11.0925C8.72887 10.8194 9.06227 10.5961 9.37207 10.4097L9.49609 10.3362L9.54121 10.3114C10.0111 10.0683 10.5942 10.234 10.8638 10.6961C11.1334 11.1582 10.9906 11.7474 10.5477 12.0367L10.5039 12.0638L10.4019 12.1242C9.89368 12.4303 9.41628 12.7948 9.05615 13.2854C8.76574 13.6811 8.52815 14.1907 8.43848 14.8807C8.78773 14.6467 9.14645 14.4291 9.40146 14.2786L9.40254 14.278L9.57715 14.1748C10.4128 13.6782 11.1256 13.2107 11.6984 12.5479L11.7571 12.4786C12.3993 11.7047 12.776 10.7049 12.7989 9.27578L12.8 9.13604C12.8 7.40099 12.1859 5.547 11.1276 4.18428L11.1275 4.18408C10.0141 2.74998 8.69797 2 7.4 2Z" fill="var(--fill-0, #696F88)"/>
</svg>