<svg width="24" height="24" viewBox="0 0 24 24" fill="none" xmlns="http://www.w3.org/2000/svg">
<path fill-rule="evenodd" clip-rule="evenodd" d="M12 2C14.1151 2.00001 15.9568 3.21823 17.3072 4.95752L17.3696 5.03887C18.6717 6.75607 19.4 9.00783 19.4 11.136L19.3985 11.3107C19.369 13.1055 18.8811 14.5695 17.8951 15.7572L17.8943 15.7582C17.026 16.8013 15.9511 17.452 15.0168 18.0018L15.0167 18.0017C14.5189 18.2954 13.8642 18.7096 13.5706 18.9726L13.5705 18.9725C13.1175 19.3812 13 19.6352 13 19.9V21.1C13 21.6523 12.5523 22.1 12 22.1C11.4477 22.1 11 21.6523 11 21.1V19.9C11 19.6352 10.8825 19.3812 10.4295 18.9725L10.4294 18.9726C10.1357 18.7096 9.48102 18.2954 8.98328 18.0017L8.98318 18.0018C8.04889 17.452 6.97393 16.8013 6.10564 15.7582L6.10486 15.7572C5.11882 14.5695 4.63096 13.1055 4.60144 11.3107L4.59998 11.136C4.59999 9.00783 5.32822 6.75607 6.63035 5.03887L6.69275 4.95752C8.04312 3.21823 9.88483 2.00001 12 2ZM12 4C10.702 4 9.38583 4.74998 8.27244 6.18408L8.27234 6.18428C7.21403 7.547 6.6 9.40099 6.59998 11.136L6.60105 11.2758C6.62397 12.7049 7.00071 13.7047 7.64285 14.4786L7.70154 14.5479C8.27433 15.2107 8.9872 15.6782 9.82283 16.1748L9.99744 16.278L9.99851 16.2786C10.2535 16.4291 10.6122 16.6468 10.9614 16.8807C10.8717 16.1907 10.6342 15.6811 10.3438 15.2854C9.9837 14.7948 9.5063 14.4303 8.99812 14.1242L8.89607 14.0638L8.85232 14.0367C8.40942 13.7474 8.26662 13.1582 8.53621 12.6961C8.80581 12.234 9.38889 12.0683 9.85876 12.3114L9.90388 12.3362L10.0279 12.4097C10.3377 12.5961 10.671 12.8194 10.9987 13.0925C10.9794 12.1339 10.7018 11.4732 10.3438 10.9854C9.9837 10.4948 9.5063 10.1303 8.99812 9.82422L8.89607 9.76377L8.85232 9.73672C8.40942 9.44735 8.26662 8.85824 8.53621 8.39609C8.80581 7.93398 9.38889 7.76832 9.85876 8.01143L9.90388 8.03623L10.0279 8.10967C10.3381 8.2963 10.6719 8.51992 11 8.79346V6.9C11 6.34772 11.4477 5.9 12 5.9C12.5523 5.9 13 6.34772 13 6.9V8.79346C13.328 8.51992 13.6619 8.2963 13.972 8.10967L14.0961 8.03623L14.1412 8.01143C14.6111 7.76832 15.1941 7.93398 15.4637 8.39609C15.7333 8.85824 15.5905 9.44735 15.1476 9.73672L15.1039 9.76377L15.0018 9.82422C14.4937 10.1303 14.0163 10.4948 13.6561 10.9854C13.2981 11.4732 13.0205 12.1339 13.0011 13.0925C13.3288 12.8194 13.6622 12.5961 13.972 12.4097L14.0961 12.3362L14.1412 12.3114C14.6111 12.0683 15.1941 12.234 15.4637 12.6961C15.7333 13.1582 15.5905 13.7474 15.1476 14.0367L15.1039 14.0638L15.0018 14.1242C14.4937 14.4303 14.0163 14.7948 13.6561 15.2854C13.3657 15.6811 13.1281 16.1907 13.0385 16.8807C13.3877 16.6467 13.7464 16.4291 14.0014 16.2786L14.0025 16.278L14.1771 16.1748C15.0127 15.6782 15.7256 15.2107 16.2984 14.5479L16.3571 14.4786C16.9992 13.7047 17.376 12.7049 17.3989 11.2758L17.4 11.136C17.4 9.40099 16.7859 7.547 15.7276 6.18428L15.7275 6.18408C14.6141 4.74998 13.2979 4 12 4Z" fill="#696F88"/>
</svg>
