<svg width="24" height="24" viewBox="0 0 24 24" fill="none" xmlns="http://www.w3.org/2000/svg">
<path fill-rule="evenodd" clip-rule="evenodd" d="M11.5953 2.3431C11.767 2.01876 12.2322 2.01878 12.4039 2.3431L15.3892 7.99447C15.4554 8.11959 15.5767 8.20667 15.7164 8.2308L22.0201 9.32064C22.382 9.38347 22.5258 9.82491 22.2701 10.0882L17.8111 14.6702C17.7124 14.7717 17.6661 14.913 17.6861 15.0531L18.5972 21.3773C18.6495 21.7406 18.2728 22.0136 17.9429 21.8519L12.2017 19.0335C12.0745 18.971 11.9247 18.9711 11.7974 19.0335L6.0572 21.8519C5.72722 22.0139 5.34966 21.7407 5.40193 21.3773L6.31306 15.0531C6.3331 14.913 6.2868 14.7717 6.18806 14.6702L1.72908 10.0882C1.47335 9.82491 1.61717 9.38348 1.97908 9.32064L8.28279 8.2308C8.42243 8.20667 8.54373 8.11959 8.60993 7.99447L11.5953 2.3431ZM16.0904 17.2728C15.205 16.0542 14.6194 15.8501 14.2662 16.1068C13.913 16.3634 13.9258 16.9839 14.8111 18.2025C15.6965 19.421 17.0543 19.9437 17.0543 19.9437C17.0531 19.9235 16.9696 18.4829 16.0904 17.2728ZM9.77693 16.0843C9.42374 15.8277 8.83792 16.0321 7.95271 17.2503C7.06733 18.469 6.98884 19.9222 6.98884 19.9222C6.99419 19.9201 8.34739 19.3961 9.23103 18.18C10.1163 16.9615 10.1301 16.341 9.77693 16.0843ZM14.1334 10.1331C14.1503 10.0156 14.0282 9.92741 13.9215 9.97982L12.065 10.891C12.0239 10.9111 11.9753 10.9112 11.9342 10.891L10.0777 9.97982C9.97102 9.92751 9.84892 10.0156 9.86579 10.1331L10.1607 12.1781C10.1672 12.2233 10.1525 12.2693 10.1207 12.3021L8.67829 13.7835C8.59543 13.8687 8.6422 14.0123 8.75935 14.0326L10.7984 14.3841C10.8434 14.392 10.8825 14.4209 10.9039 14.4613L11.8687 16.2884C11.9242 16.3935 12.0749 16.3935 12.1304 16.2884L13.0963 14.4613C13.1177 14.4208 13.1566 14.3919 13.2017 14.3841L15.2398 14.0326C15.357 14.0123 15.4037 13.8687 15.3209 13.7835L13.8795 12.3021C13.8475 12.2692 13.8319 12.2234 13.8385 12.1781L14.1334 10.1331ZM20.1851 10.3783C20.1619 10.3721 18.7679 10.0075 17.3472 10.4691C15.9147 10.9345 15.5395 11.4288 15.6744 11.8441C15.8095 12.2591 16.4036 12.4382 17.8355 11.973C19.2531 11.5124 20.1662 10.4014 20.1851 10.3783ZM6.73786 10.4329C5.32003 9.97226 3.92847 10.3346 3.89997 10.3421C3.91044 10.355 4.82524 11.4741 6.24958 11.9369C7.68191 12.4022 8.27581 12.2232 8.41072 11.8079C8.54554 11.3927 8.17031 10.8984 6.73786 10.4329ZM12.0552 4.44369C12.0552 4.44369 11.2652 5.66492 11.2652 7.17123C11.2652 8.67738 11.6187 9.18675 12.0552 9.18685C12.4919 9.18685 12.8463 8.67752 12.8463 7.17123C12.8463 5.66492 12.0552 4.44369 12.0552 4.44369Z" fill="#696F88"/>
</svg>
