<svg xmlns="http://www.w3.org/2000/svg" width="24" height="24" viewBox="0 0 14.108 20.2" fill="none">
<path d="M7.09663 14.6C7.27082 14.6 7.41578 14.6905 7.50512 14.9008C7.58392 15.0863 7.59633 15.3166 7.59633 15.5048C7.59631 15.9149 7.34633 16.4 7.09633 16.4C6.84636 16.4 6.59636 15.9148 6.59633 15.5048C6.59633 15.3166 6.60874 15.0863 6.68755 14.9008C6.77689 14.6905 6.92193 14.6 7.09614 14.6H7.09663Z" fill="var(--fill-0, #696F88)"/>
<path d="M5.59663 11.6C5.77082 11.6 5.91578 11.6905 6.00512 11.9008C6.08392 12.0863 6.09633 12.3166 6.09633 12.5048C6.09631 12.9149 5.84632 13.4 5.59633 13.4C5.34636 13.4 5.09636 12.9148 5.09633 12.5048C5.09633 12.3166 5.10874 12.0863 5.18755 11.9008C5.27689 11.6905 5.42192 11.6 5.59614 11.6H5.59663Z" fill="var(--fill-0, #696F88)"/>
<path d="M8.59663 11.6C8.77082 11.6 8.91578 11.6905 9.00512 11.9008C9.08392 12.0863 9.09633 12.3166 9.09633 12.5048C9.09631 12.9149 8.84633 13.4 8.59633 13.4C8.34636 13.4 8.09636 12.9148 8.09633 12.5048C8.09633 12.3166 8.10875 12.0863 8.18755 11.9008C8.27689 11.6905 8.42193 11.6 8.59614 11.6H8.59663Z" fill="var(--fill-0, #696F88)"/>
<path d="M4.09663 8.6C4.27082 8.60003 4.41578 8.69052 4.50512 8.90078C4.58392 9.08626 4.59633 9.31659 4.59633 9.50479C4.59631 9.91485 4.34632 10.4 4.09633 10.4C3.84636 10.4 3.59636 9.91483 3.59633 9.50479C3.59633 9.31659 3.60874 9.08626 3.68755 8.90078C3.77689 8.6905 3.92192 8.60001 4.09614 8.6H4.09663Z" fill="var(--fill-0, #696F88)"/>
<path d="M7.09663 8.6C7.27082 8.60003 7.41578 8.69052 7.50512 8.90078C7.58392 9.08626 7.59633 9.31659 7.59633 9.50479C7.59631 9.91485 7.34633 10.4 7.09633 10.4C6.84636 10.4 6.59636 9.91483 6.59633 9.50479C6.59633 9.31659 6.60874 9.08626 6.68755 8.90078C6.77689 8.6905 6.92193 8.60001 7.09614 8.6H7.09663Z" fill="var(--fill-0, #696F88)"/>
<path d="M10.0966 8.6C10.2708 8.60003 10.4158 8.69052 10.5051 8.90078C10.5839 9.08626 10.5963 9.31659 10.5963 9.50479C10.5963 9.91485 10.3463 10.4 10.0963 10.4C9.84636 10.4 9.59636 9.91483 9.59633 9.50479C9.59633 9.31659 9.60874 9.08626 9.68755 8.90078C9.77689 8.6905 9.92193 8.60001 10.0961 8.6H10.0966Z" fill="var(--fill-0, #696F88)"/>
<path fill-rule="evenodd" clip-rule="evenodd" d="M7.09633 0C7.64862 0 8.09633 0.447715 8.09633 1V2.42773C8.46058 2.02162 8.90692 1.67033 9.4563 1.44541L9.46372 1.44238C10.8157 0.901516 12.3106 1.31331 13.3668 1.73369L13.4676 1.77441C13.9842 1.98558 14.2397 2.55954 14.0402 3.06055C13.695 3.92728 13.1218 5.04292 12.1178 5.71318C12.261 5.82364 12.3966 5.93973 12.5247 6.06143C13.6938 7.17283 14.0888 8.60871 14.0938 9.9875C14.0987 11.3503 13.7269 12.7221 13.29 13.8562C12.8507 14.9964 12.32 15.9616 11.9478 16.5315L11.9472 16.5324C11.2547 17.5904 10.4783 18.4803 9.68354 19.1169C8.91022 19.7363 8.01274 20.2 7.09643 20.2C6.18011 20.2 5.28256 19.7363 4.50923 19.1169C3.71447 18.4803 2.93805 17.5904 2.24555 16.5324L2.24497 16.5315C1.87275 15.9616 1.34211 14.9964 0.90278 13.8562C0.465836 12.7221 0.0940358 11.3503 0.0989713 9.9875C0.103972 8.6087 0.498984 7.17284 1.66811 6.06143C1.78456 5.95073 1.90727 5.84467 2.03628 5.74326C1.0037 5.07671 0.418259 3.94043 0.067819 3.06055C-0.131706 2.55954 0.123801 1.98558 0.640378 1.77441L0.741159 1.73369C1.79741 1.3133 3.29241 0.901496 4.64438 1.44238L4.6518 1.44541C5.24448 1.68807 5.71721 2.07783 6.09633 2.5248V1C6.09633 0.447727 6.54407 1.83484e-05 7.09633 0ZM6.94223 6.21006C4.8796 6.33976 3.7055 6.88416 3.04614 7.51094C2.38125 8.143 2.10252 8.99028 2.09887 9.99473C2.09518 11.0152 2.37984 12.1268 2.76909 13.1371C3.15571 14.1405 3.62069 14.9802 3.91899 15.4371C4.52515 16.3632 5.16661 17.081 5.75962 17.556C6.35486 18.0327 6.80542 18.1901 7.07124 18.1995L7.09633 18.2C7.35839 18.2 7.81877 18.0481 8.43315 17.556C9.02615 17.081 9.66763 16.3632 10.2738 15.4371C10.5721 14.9802 11.0371 14.1405 11.4237 13.1371C11.8129 12.1268 12.0976 11.0152 12.0939 9.99473C12.0903 8.99028 11.8115 8.143 11.1466 7.51094C10.4873 6.88416 9.31315 6.33977 7.25053 6.21006L7.09633 6.20146L6.94223 6.21006ZM3.83462 3.27119C3.45856 3.12204 2.97701 3.12776 2.42251 3.25469C2.71193 3.72318 3.04211 4.0575 3.41587 4.21182C3.79193 4.36094 4.27347 4.35517 4.82798 4.22822C4.53856 3.75972 4.20836 3.42554 3.83462 3.27119ZM11.6855 3.25469C11.131 3.12776 10.6495 3.12205 10.2735 3.27119C9.89972 3.42553 9.56946 3.7597 9.28003 4.22822C9.83455 4.35518 10.3162 4.36096 10.6922 4.21182C11.066 4.05749 11.3961 3.72317 11.6855 3.25469Z" fill="var(--fill-0, #696F88)"/>
</svg>