<svg width="24" height="24" viewBox="0 0 24 24" fill="none" xmlns="http://www.w3.org/2000/svg">
<path d="M12.0003 16.6C12.1744 16.6 12.3194 16.6905 12.4087 16.9008C12.4875 17.0863 12.5 17.3166 12.5 17.5048C12.4999 17.9149 12.25 18.4 12 18.4C11.75 18.4 11.5 17.9148 11.5 17.5048C11.5 17.3166 11.5124 17.0863 11.5912 16.9008C11.6805 16.6905 11.8256 16.6 11.9998 16.6H12.0003Z" fill="#696F88"/>
<path d="M10.5003 13.6C10.6744 13.6 10.8194 13.6905 10.9087 13.9008C10.9875 14.0863 11 14.3166 11 14.5048C10.9999 14.9149 10.75 15.4 10.5 15.4C10.25 15.4 9.99998 14.9148 9.99996 14.5048C9.99996 14.3166 10.0124 14.0863 10.0912 13.9008C10.1805 13.6905 10.3256 13.6 10.4998 13.6H10.5003Z" fill="#696F88"/>
<path d="M13.5003 13.6C13.6744 13.6 13.8194 13.6905 13.9087 13.9008C13.9875 14.0863 14 14.3166 14 14.5048C13.9999 14.9149 13.75 15.4 13.5 15.4C13.25 15.4 13 14.9148 13 14.5048C13 14.3166 13.0124 14.0863 13.0912 13.9008C13.1805 13.6905 13.3256 13.6 13.4998 13.6H13.5003Z" fill="#696F88"/>
<path d="M9.00025 10.6C9.17444 10.6 9.31941 10.6905 9.40875 10.9008C9.48755 11.0863 9.49996 11.3166 9.49996 11.5048C9.49994 11.9149 9.24995 12.4 8.99996 12.4C8.74998 12.4 8.49998 11.9148 8.49996 11.5048C8.49996 11.3166 8.51237 11.0863 8.59117 10.9008C8.68052 10.6905 8.82555 10.6 8.99976 10.6H9.00025Z" fill="#696F88"/>
<path d="M12.0003 10.6C12.1744 10.6 12.3194 10.6905 12.4087 10.9008C12.4875 11.0863 12.5 11.3166 12.5 11.5048C12.4999 11.9149 12.25 12.4 12 12.4C11.75 12.4 11.5 11.9148 11.5 11.5048C11.5 11.3166 11.5124 11.0863 11.5912 10.9008C11.6805 10.6905 11.8256 10.6 11.9998 10.6H12.0003Z" fill="#696F88"/>
<path d="M15.0003 10.6C15.1744 10.6 15.3194 10.6905 15.4087 10.9008C15.4875 11.0863 15.5 11.3166 15.5 11.5048C15.4999 11.9149 15.25 12.4 15 12.4C14.75 12.4 14.5 11.9148 14.5 11.5048C14.5 11.3166 14.5124 11.0863 14.5912 10.9008C14.6805 10.6905 14.8256 10.6 14.9998 10.6H15.0003Z" fill="#696F88"/>
<path fill-rule="evenodd" clip-rule="evenodd" d="M12 2C12.5522 2 13 2.44772 13 3V4.42773C13.3642 4.02162 13.8105 3.67033 14.3599 3.44541L14.3673 3.44238C15.7193 2.90152 17.2142 3.31331 18.2705 3.73369L18.3712 3.77441C18.8878 3.98558 19.1433 4.55954 18.9438 5.06055C18.5986 5.92728 18.0255 7.04292 17.0214 7.71318C17.1646 7.82364 17.3003 7.93973 17.4283 8.06143C18.5974 9.17283 18.9924 10.6087 18.9974 11.9875C19.0024 13.3503 18.6306 14.7221 18.1936 15.8562C17.7543 16.9964 17.2236 17.9616 16.8514 18.5315L16.8508 18.5324C16.1583 19.5904 15.3819 20.4803 14.5872 21.1169C13.8138 21.7363 12.9164 22.2 12.0001 22.2C11.0837 22.2 10.1862 21.7363 9.41285 21.1169C8.6181 20.4803 7.84168 19.5904 7.14918 18.5324L7.14859 18.5315C6.77637 17.9616 6.24574 16.9964 5.80641 15.8562C5.36946 14.7221 4.99766 13.3503 5.0026 11.9875C5.0076 10.6087 5.40261 9.17284 6.57174 8.06143C6.68818 7.95073 6.8109 7.84467 6.9399 7.74326C5.90732 7.07671 5.32188 5.94043 4.97144 5.06055C4.77192 4.55954 5.02743 3.98558 5.544 3.77441L5.64478 3.73369C6.70104 3.3133 8.19604 2.9015 9.54801 3.44238L9.55543 3.44541C10.1481 3.68807 10.6208 4.07783 11 4.5248V3C11 2.44773 11.4477 2.00002 12 2ZM11.8459 8.21006C9.78323 8.33976 8.60912 8.88416 7.94976 9.51094C7.28487 10.143 7.00614 10.9903 7.0025 11.9947C6.9988 13.0152 7.28346 14.1268 7.67271 15.1371C8.05934 16.1405 8.52432 16.9802 8.82262 17.4371C9.42877 18.3632 10.0702 19.081 10.6632 19.556C11.2585 20.0327 11.709 20.1901 11.9749 20.1995L12 20.2C12.262 20.2 12.7224 20.0481 13.3368 19.556C13.9298 19.081 14.5713 18.3632 15.1774 17.4371C15.4757 16.9802 15.9407 16.1405 16.3273 15.1371C16.7166 14.1268 17.0012 13.0152 16.9975 11.9947C16.9939 10.9903 16.7151 10.143 16.0503 9.51094C15.3909 8.88416 14.2168 8.33977 12.1542 8.21006L12 8.20147L11.8459 8.21006ZM8.73824 5.27119C8.36219 5.12204 7.88063 5.12776 7.32613 5.25469C7.61556 5.72318 7.94574 6.0575 8.31949 6.21182C8.69556 6.36094 9.1771 6.35517 9.7316 6.22822C9.44218 5.75972 9.11198 5.42554 8.73824 5.27119ZM16.5891 5.25469C16.0346 5.12776 15.5532 5.12205 15.1771 5.27119C14.8033 5.42553 14.4731 5.7597 14.1837 6.22822C14.7382 6.35518 15.2198 6.36096 15.5959 6.21182C15.9696 6.05749 16.2997 5.72317 16.5891 5.25469Z" fill="#696F88"/>
</svg>
