<svg width="24" height="24" viewBox="0 0 24 24" fill="none" xmlns="http://www.w3.org/2000/svg">
<path d="M11.9998 1.8C12.5521 1.8 12.9998 2.24771 12.9998 2.8V4.83809L14.0477 3.6418C14.4114 3.22617 15.0432 3.18339 15.4588 3.54707C15.8743 3.9107 15.916 4.5426 15.5526 4.9582L13.9559 6.78242C14.9145 6.97369 15.7755 7.319 16.4813 7.8332L16.5359 7.87324C17.6799 8.73095 18.2995 9.976 18.2996 11.3996C18.2996 13.5732 17.1838 15.1514 16.1649 16.5187L15.9627 16.7893L15.9588 16.7932L15.9559 16.798C15.1718 17.8248 14.2129 19.2553 13.3748 20.9729L13.2938 21.1398C13.2891 21.1503 13.1822 21.3965 13.0818 21.5568C12.9959 21.6941 12.6611 22.2004 11.9998 22.2004C11.3385 22.2004 11.0038 21.6941 10.9178 21.5568C10.8415 21.4351 10.7613 21.2637 10.7254 21.1838L10.7059 21.1398C9.84952 19.3486 8.89607 17.9176 8.04376 16.8L8.04083 16.7961L8.03693 16.7922C6.96917 15.3612 5.70001 13.7178 5.70001 11.3996C5.70011 9.97369 6.32202 8.73684 7.46271 7.87812L7.5174 7.83711C8.22364 7.32036 9.08486 6.97502 10.0438 6.7834L8.44708 4.9582C8.08365 4.5426 8.12537 3.9107 8.54083 3.54707C8.95646 3.18339 9.58828 3.22617 9.95197 3.6418L10.9998 4.83809V2.8C10.9998 2.24772 11.4475 1.8 11.9998 1.8ZM11.9998 8.5998C10.5643 8.5998 9.47414 8.9141 8.76544 9.40351L8.69806 9.45137L8.57697 9.54512C7.99151 10.022 7.7001 10.6463 7.70001 11.3996C7.70001 12.9521 8.50753 14.0787 9.63361 15.5881L9.80743 15.8166C10.5119 16.7596 11.274 17.9031 11.9998 19.2668C12.7933 17.7794 13.6434 16.5312 14.3592 15.593C15.489 14.0787 16.2996 12.9546 16.2996 11.3996C16.2995 10.5936 15.9664 9.93228 15.3035 9.44941C14.5967 8.93439 13.4816 8.5998 11.9998 8.5998Z" fill="#696F88"/>
</svg>
