<svg xmlns="http://www.w3.org/2000/svg" width="24" height="24" viewBox="0 0 15.4315 20" fill="none">
<path id="vector" fill-rule="evenodd" clip-rule="evenodd" d="M6.52532 0C5.31029 0 4.32532 0.984974 4.32532 2.2V5.8C4.32532 6.24272 4.45608 6.65489 4.6811 7C4.45608 7.34511 4.32532 7.75728 4.32532 8.2V9.40719C3.08448 8.80888 1.65676 9.12757 0.687795 9.44626C0.1787 9.61369 -0.107895 10.1527 0.0379767 10.6684C0.322994 11.676 0.878351 13.0844 2.13594 13.7598L2.1408 13.7624L2.14327 13.7637C2.84461 14.1329 3.61225 14.1962 4.32662 14.1235C4.32575 14.1489 4.32532 14.1744 4.32532 14.2V17.8C4.32532 19.015 5.31029 20 6.52532 20H7.42532C8.64034 20 9.62532 19.015 9.62532 17.8V14.2C9.62532 13.7573 9.49455 13.3451 9.26953 13C9.49455 12.6549 9.62532 12.2427 9.62532 11.8V11.3366C9.75566 11.4374 9.89366 11.531 10.0398 11.6161L10.0433 11.6181L10.047 11.6203C11.5546 12.4824 13.397 12.1583 14.7104 11.7766C15.225 11.6271 15.5303 11.0984 15.4025 10.5779C15.0763 9.24961 14.4358 7.49206 12.9354 6.61746L12.9312 6.61501L12.9282 6.61331C12.7599 6.51707 12.5874 6.43561 12.412 6.36736C13.4544 5.57716 13.8666 4.25063 14.067 3.29104C14.1765 2.76644 13.853 2.24873 13.3335 2.11722C12.3234 1.86152 10.8358 1.6392 9.62532 2.37734V2.2C9.62532 0.984974 8.64034 0 7.42532 0H6.52532ZM6.52532 12H7.42532C7.53577 12 7.62532 11.9105 7.62532 11.8V8.2C7.62532 8.08954 7.53577 8 7.42532 8H6.52532C6.41486 8 6.32532 8.08954 6.32532 8.2V11.8C6.32532 11.9105 6.41486 12 6.52532 12ZM6.52532 14C6.41486 14 6.32532 14.0895 6.32532 14.2V17.8C6.32532 17.9105 6.41486 18 6.52532 18H7.42532C7.53577 18 7.62532 17.9105 7.62532 17.8V14.2C7.62532 14.0895 7.53577 14 7.42532 14H6.52532ZM7.42532 6H6.52532C6.41486 6 6.32532 5.91046 6.32532 5.8V2.2C6.32532 2.08954 6.41486 2 6.52532 2H7.42532C7.53577 2 7.62532 2.08954 7.62532 2.2V5.8C7.62532 5.91046 7.53577 6 7.42532 6ZM11.8152 3.88206C11.6326 4.32732 11.4035 4.65113 11.1264 4.82735C10.8466 4.99911 10.4551 5.06312 9.97488 5.032C10.1574 4.58674 10.3866 4.26293 10.6636 4.08671C10.9435 3.91495 11.3349 3.85094 11.8152 3.88206ZM2.32555 11.1009C2.5387 11.5323 2.78988 11.8394 3.07855 11.9958C3.36969 12.1476 3.76469 12.1842 4.24156 12.1196C4.02841 11.6882 3.77723 11.3812 3.48856 11.2247C3.19742 11.0729 2.80242 11.0363 2.32555 11.1009ZM11.0434 9.88617C10.5097 9.57337 10.1077 8.95364 9.80785 8.147C10.6563 8.00332 11.3941 8.04166 11.9318 8.34744C12.4655 8.66024 12.8675 9.27997 13.1674 10.0866C12.3189 10.2303 11.5811 10.1919 11.0434 9.88617Z" fill="var(--fill-0, #696F88)"/>
</svg>