<svg xmlns="http://www.w3.org/2000/svg" width="24" height="24" viewBox="0 0 19.4023 20.4004" fill="none">
<path d="M11.3545 15.6045C11.4587 15.8954 11.5127 16.2275 11.5127 16.5908C11.5127 17.2666 11.3379 17.9558 10.9932 18.6396C10.6867 19.2487 10.2524 19.8421 9.70117 20.4004C9.1499 19.8421 8.71568 19.2487 8.40918 18.6396C8.06441 17.9558 7.88967 17.2666 7.88965 16.5908C7.88965 16.2277 7.94354 15.8953 8.04785 15.6045C8.57068 15.7642 9.12607 15.8506 9.70117 15.8506C10.2764 15.8506 10.8316 15.7643 11.3545 15.6045Z" fill="var(--fill-0, #696F88)"/>
<path d="M5.18848 13.5996C5.85967 14.4891 6.78764 15.1742 7.8623 15.5439C7.77564 15.8405 7.62365 16.1407 7.41016 16.4346C7.01297 16.9812 6.46687 17.4365 5.78613 17.7871C5.18026 18.0997 4.48007 18.3245 3.70605 18.4521C3.58825 17.6764 3.58527 16.9415 3.69531 16.2686C3.81833 15.5126 4.08224 14.8524 4.47949 14.3057C4.69329 14.0114 4.93272 13.7736 5.18848 13.5996Z" fill="var(--fill-0, #696F88)"/>
<path d="M14.2148 13.5996C14.4704 13.7738 14.7091 14.0115 14.9229 14.3057C15.3201 14.8524 15.584 15.5126 15.707 16.2686C15.8171 16.9415 15.8141 17.6764 15.6963 18.4521C14.9223 18.3245 14.2221 18.0997 13.6162 17.7871C12.9355 17.4365 12.3894 16.9812 11.9922 16.4346C11.7788 16.1408 11.6275 15.8405 11.541 15.5439C12.6156 15.174 13.5438 14.4892 14.2148 13.5996Z" fill="var(--fill-0, #696F88)"/>
<path d="M9.70117 5.90039C12.076 5.90039 14.001 7.82538 14.001 10.2002C14.001 12.575 12.076 14.5 9.70117 14.5C7.32635 14.5 5.40137 12.575 5.40137 10.2002C5.40137 7.82538 7.32636 5.9004 9.70117 5.90039Z" fill="var(--fill-0, #696F88)"/>
<path d="M4.05176 10.2979C4.07167 11.4666 4.44667 12.5496 5.07324 13.4424C4.82864 13.6316 4.52849 13.7851 4.18262 13.8975C3.54003 14.1062 2.8309 14.1536 2.07422 14.0371C1.40025 13.9338 0.701336 13.7043 0 13.3525C0.360643 12.6557 0.790838 12.0588 1.27539 11.5791C1.81919 11.0399 2.42078 10.661 3.06348 10.4521C3.40938 10.3398 3.74256 10.2883 4.05176 10.2979Z" fill="var(--fill-0, #696F88)"/>
<path d="M15.3506 10.2979C15.6598 10.2885 15.9929 10.3397 16.3389 10.4521C16.9816 10.661 17.5832 11.0399 18.127 11.5791C18.6115 12.0588 19.0417 12.6557 19.4023 13.3525C18.701 13.7043 18.0021 13.9338 17.3281 14.0371C16.5713 14.1537 15.8615 14.1063 15.2188 13.8975C14.8731 13.7851 14.5735 13.6307 14.3291 13.4414C14.9555 12.5486 15.3308 11.4666 15.3506 10.2979Z" fill="var(--fill-0, #696F88)"/>
<path d="M2.07422 6.36328C2.83106 6.24674 3.5409 6.29411 4.18359 6.50293C4.52919 6.61528 4.82887 6.76968 5.07324 6.95898C4.44684 7.85176 4.07156 8.93384 4.05176 10.1025C3.74255 10.1119 3.40949 10.0607 3.06348 9.94824C2.42078 9.7394 1.81918 9.36045 1.27539 8.82129C0.79084 8.34158 0.360643 7.74466 0 7.04785C0.70134 6.6961 1.40024 6.46656 2.07422 6.36328Z" fill="var(--fill-0, #696F88)"/>
<path d="M15.2197 6.50293C15.8623 6.29422 16.5714 6.24677 17.3281 6.36328C18.0021 6.46656 18.701 6.6961 19.4023 7.04785C19.0417 7.74467 18.6115 8.34158 18.127 8.82129C17.5832 9.36046 16.9816 9.73939 16.3389 9.94824C15.993 10.0606 15.6598 10.1111 15.3506 10.1016C15.3306 8.93293 14.9556 7.85067 14.3291 6.95801C14.5737 6.7688 14.8739 6.6153 15.2197 6.50293Z" fill="var(--fill-0, #696F88)"/>
<path d="M3.70605 1.94824C4.48009 2.07592 5.18024 2.30072 5.78613 2.61328C6.46687 2.96385 7.01297 3.41914 7.41016 3.96582C7.62355 4.25957 7.77482 4.55992 7.86133 4.85645C6.78679 5.22633 5.85855 5.91123 5.1875 6.80078C4.93197 6.62666 4.69325 6.38893 4.47949 6.09473C4.08225 5.54795 3.81833 4.88775 3.69531 4.13184C3.58527 3.45893 3.58825 2.72395 3.70605 1.94824Z" fill="var(--fill-0, #696F88)"/>
<path d="M15.6963 1.94824C15.8141 2.72393 15.8171 3.45895 15.707 4.13184C15.584 4.88774 15.3201 5.54796 14.9229 6.09473C14.7091 6.3889 14.4695 6.62579 14.2139 6.7998C13.5427 5.91048 12.6146 5.22613 11.54 4.85645C11.6267 4.55995 11.7787 4.25969 11.9922 3.96582C12.3894 3.41912 12.9354 2.96386 13.6162 2.61328C14.2221 2.30072 14.9222 2.07592 15.6963 1.94824Z" fill="var(--fill-0, #696F88)"/>
<path d="M9.70117 0C10.2524 0.558325 10.6867 1.15166 10.9932 1.76074C11.3379 2.44457 11.5127 3.13376 11.5127 3.80957C11.5127 4.17275 11.4588 4.5051 11.3545 4.7959C10.8317 4.63621 10.2762 4.5498 9.70117 4.5498C9.12594 4.54981 8.57078 4.63612 8.04785 4.7959C7.94369 4.50504 7.88965 4.17286 7.88965 3.80957C7.88966 3.13376 8.06441 2.44457 8.40918 1.76074C8.71568 1.15166 9.1499 0.558324 9.70117 0Z" fill="var(--fill-0, #696F88)"/>
</svg>