<svg width="24" height="24" viewBox="0 0 24 24" fill="none" xmlns="http://www.w3.org/2000/svg">
<path fill-rule="evenodd" clip-rule="evenodd" d="M12.0409 1.98163C12.46 1.99133 12.8472 2.14922 13.1591 2.32343C13.4948 2.51098 13.8292 2.76636 14.1503 3.0578C14.7937 3.64193 15.4592 4.44149 16.0595 5.3537C17.2469 7.15832 18.2911 9.57854 18.2997 11.8957V11.9035C18.2905 14.3034 16.8018 16.0492 15.5165 17.3312C14.8111 18.0348 14.2566 18.5161 13.7411 19.0646C13.2889 19.5458 13.0748 19.8767 12.9999 20.1096V21.3996C12.9999 21.9519 12.5522 22.3996 11.9999 22.3996C11.4476 22.3996 10.9999 21.9519 10.9999 21.3996V20.1086C10.9246 19.8758 10.7102 19.545 10.2587 19.0646C9.74325 18.5163 9.18944 18.0346 8.48426 17.3312C7.2191 16.0693 5.75628 14.358 5.70203 12.0158L5.70008 11.9035C5.70007 11.901 5.70007 11.8981 5.70008 11.8957L5.70106 11.7873C5.74111 9.50335 6.77144 7.13018 7.94031 5.3537C8.54053 4.44155 9.20609 3.64192 9.84949 3.0578C10.1707 2.76622 10.5058 2.51103 10.8417 2.32343C11.1636 2.14364 11.5653 1.9817 11.9999 1.98163H12.0409ZM11.9999 3.98553C11.9728 3.99382 11.9134 4.01585 11.8173 4.06952C11.6528 4.1614 11.4411 4.31421 11.1942 4.53827C10.7014 4.98567 10.1408 5.64755 9.61121 6.45233C8.53986 8.08046 7.70794 10.118 7.70008 11.8996C7.70742 13.4307 8.64682 14.6688 9.89637 15.9152C10.2296 16.2476 10.6251 16.6185 10.9999 16.9797V15.9875C10.9976 14.9773 10.7133 14.2891 10.3436 13.7853C9.98351 13.2947 9.5061 12.9303 8.99793 12.6242L8.89637 12.5637L8.85242 12.5363C8.40966 12.247 8.26674 11.6586 8.53602 11.1965C8.80558 10.7344 9.38843 10.5687 9.85828 10.8117L9.90418 10.8361L10.0282 10.9094C10.3384 11.096 10.6718 11.3203 10.9999 11.5939V8.09979C11 7.54757 11.4476 7.09979 11.9999 7.09979C12.5521 7.09979 12.9998 7.54757 12.9999 8.09979V11.5939C13.328 11.3203 13.6614 11.096 13.9716 10.9094L14.0956 10.8361L14.1415 10.8117C14.6113 10.5687 15.1942 10.7344 15.4638 11.1965C15.733 11.6586 15.5901 12.247 15.1473 12.5363L15.1034 12.5637L15.0018 12.6242C14.4937 12.9303 14.0163 13.2947 13.6561 13.7853C13.2864 14.2891 13.0022 14.9773 12.9999 15.9875V16.9797C13.3748 16.6184 13.771 16.2478 14.1044 15.9152C15.3539 14.6689 16.2923 13.4307 16.2997 11.8996C16.2918 10.118 15.4599 8.08046 14.3886 6.45233C13.859 5.64766 13.2993 4.98562 12.8065 4.53827C12.5596 4.3141 12.348 4.16144 12.1835 4.06952C12.087 4.0156 12.0269 3.99378 11.9999 3.98553Z" fill="#696F88"/>
</svg>
