<svg xmlns="http://www.w3.org/2000/svg" width="24" height="24" viewBox="0 0 16.8516 20.1342" fill="none">
<path id="vector" fill-rule="evenodd" clip-rule="evenodd" d="M9.81277 0.612927L9.32679 0L4.66346 2.12295L5.38273 3.11347C5.58736 3.39527 5.72699 3.68333 5.822 3.9451C5.15491 4.05096 4.56636 4.23324 4.01229 4.42511C3.8314 4.48775 3.6571 4.55013 3.48612 4.61132L3.48612 4.61132C2.82679 4.84729 2.21681 5.0656 1.46838 5.21309L0 5.50248L0.829294 6.74833C1.08854 7.1378 1.43877 7.54429 1.86511 7.91792C1.04178 9.16162 0.561719 10.6529 0.561719 12.2548C0.561719 16.6093 4.10148 20.1342 8.46172 20.1342C12.822 20.1342 16.3617 16.6093 16.3617 12.2548C16.3617 10.6529 15.8817 9.16164 15.0583 7.91794C15.4847 7.54431 15.8349 7.13781 16.0942 6.74833L16.8516 5.61039L15.5378 5.23307C15.1319 5.11652 14.7658 4.96363 14.3293 4.78136L14.3293 4.78136C14.0695 4.67286 13.7848 4.55396 13.4519 4.42612C12.8296 4.18711 12.1265 3.95854 11.3162 3.83445C11.2896 3.69913 11.2564 3.55166 11.2148 3.39411C11.0129 2.63021 10.6112 1.61991 9.81277 0.612927ZM13.362 8.97891C12.6543 9.26979 11.8576 9.42776 10.9991 9.3613C10.6881 9.86791 10.2928 10.2888 9.97306 10.5902C9.72371 10.8253 9.49033 11.0151 9.31867 11.1468C9.23241 11.213 9.16059 11.2653 9.10871 11.3023C9.08274 11.3207 9.06167 11.3354 9.04619 11.3461C9.03844 11.3514 9.03208 11.3557 9.0272 11.359L9.02098 11.3632L9.01872 11.3647L9.0178 11.3654L9.0174 11.3656L8.46174 11.7366L7.90608 11.3656L7.90567 11.3654L7.90249 11.3632L7.89628 11.359C7.89139 11.3557 7.88504 11.3514 7.87729 11.3461C7.86181 11.3354 7.84074 11.3207 7.81477 11.3023C7.76288 11.2653 7.69107 11.213 7.60481 11.1468C7.43315 11.0151 7.19977 10.8253 6.95042 10.5902C6.63068 10.2888 6.23542 9.86791 5.92441 9.3613C5.06587 9.42776 4.26912 9.26978 3.56148 8.97889C2.92962 9.91527 2.56172 11.0416 2.56172 12.2548C2.56172 15.4991 5.20043 18.1342 8.46172 18.1342C11.723 18.1342 14.3617 15.4991 14.3617 12.2548C14.3617 11.0416 13.9938 9.91528 13.362 8.97891ZM8.01729 5.85089L8.01729 4.85089V4.8502L8.01729 4.84795L8.01728 4.84455L8.01721 4.83641C8.01714 4.83039 8.01703 4.82319 8.01684 4.81483C8.01647 4.79813 8.01579 4.77682 8.0146 4.75122C8.01223 4.70005 8.00777 4.63148 7.99945 4.5481C7.98284 4.38174 7.95057 4.15391 7.88761 3.88593C7.82569 3.62234 7.73287 3.31492 7.59329 2.98666L8.68371 2.49025C8.99577 3.01431 9.17646 3.50908 9.28114 3.90516C9.35426 4.18182 9.38963 4.40797 9.40665 4.55818C9.41513 4.63313 9.419 4.68863 9.42073 4.72143C9.42116 4.72967 9.42147 4.73647 9.42167 4.74176C9.42187 4.74698 9.42198 4.75073 9.42204 4.75297L9.42206 4.75349V5.69873L10.372 5.7463C11.2571 5.79063 12.0082 6.01408 12.7349 6.29316C12.9449 6.37384 13.1729 6.46839 13.4099 6.56673L13.41 6.56677C13.443 6.58043 13.4761 6.59416 13.5093 6.60794C12.7495 7.18395 11.7341 7.54573 10.654 7.28816L9.76261 7.0756L9.47323 7.9451C9.34669 8.32529 9.00505 8.75422 8.60121 9.13488C8.55391 9.17947 8.50722 9.22204 8.46174 9.26239C8.41626 9.22204 8.36957 9.17947 8.32226 9.13488C7.91843 8.75422 7.57678 8.32529 7.45025 7.9451L7.16086 7.0756L6.26946 7.28816C5.25374 7.53037 4.29526 7.22489 3.55276 6.70862C3.7847 6.62985 4.00541 6.55061 4.21558 6.47515L4.21574 6.47509C4.37179 6.41906 4.52203 6.36512 4.66674 6.315C5.45011 6.04373 6.14989 5.85089 7.01729 5.85089H8.01729Z" fill="var(--fill-0, #696F88)"/>
</svg>