<svg width="24" height="24" viewBox="0 0 24 24" fill="none" xmlns="http://www.w3.org/2000/svg">
<path fill-rule="evenodd" clip-rule="evenodd" d="M11.4614 1.95741C11.7898 1.74752 12.2102 1.74752 12.5385 1.95741L12.6407 2.02342C13.1536 2.35798 13.691 2.76147 14.1185 3.22674C14.3528 3.48171 14.5825 3.78675 14.7488 4.1369C14.9843 4.11248 15.2233 4.09998 15.4652 4.09998C16.6994 4.09999 17.7 5.10053 17.7 6.33475V11.45C17.7 13.9629 15.6629 16 13.15 16H13V17.2227C13.9491 16.7313 15.0605 16.6618 15.9025 16.6795C16.4216 16.6904 16.8429 17.0959 16.879 17.6084L16.8813 17.6582C16.9047 18.7688 16.7764 20.3485 15.728 21.4056C15.7261 21.4076 15.7241 21.4097 15.7221 21.4116L15.6722 21.4599C14.6238 22.4562 13.0917 22.5857 12 22.5651C10.9082 22.5857 9.37612 22.4562 8.32771 21.4599L8.27781 21.4116C8.27585 21.4097 8.27389 21.4076 8.27195 21.4056C7.2235 20.3485 7.09526 18.7688 7.11863 17.6582L7.12097 17.6084C7.15704 17.0959 7.57837 16.6904 8.09744 16.6795C8.9394 16.6618 10.0509 16.7313 11 17.2227V15.9369C10.891 15.9776 10.7731 16 10.65 16C8.13708 16 6.09998 13.9629 6.09998 11.45V6.33475C6.09998 5.10053 7.10052 4.09999 8.33474 4.09998C8.64166 4.09998 8.94395 4.12043 9.24041 4.15955C9.40742 3.79988 9.64212 3.48721 9.88142 3.22674C10.3374 2.73045 10.9185 2.30443 11.4614 1.95741ZM9.17166 18.7326C9.25113 19.2864 9.4187 19.7197 9.68914 19.9943C9.96371 20.2648 10.397 20.4322 10.9508 20.5117C10.8713 19.9579 10.7038 19.5246 10.4334 19.25C10.1588 18.9795 9.7255 18.8121 9.17166 18.7326ZM14.8283 18.7326C14.2745 18.8121 13.8412 18.9795 13.5666 19.25C13.2961 19.5246 13.1287 19.9579 13.0492 20.5117C13.603 20.4322 14.0362 20.2648 14.3108 19.9943C14.5813 19.7197 14.7488 19.2864 14.8283 18.7326ZM15.4652 6.09998C12.7782 6.09998 10.6 8.27823 10.6 10.9652V11.8179C10.6 13.023 11.577 14 12.7821 14H13.15C14.5583 14 15.7 12.8583 15.7 11.45V6.33475C15.7 6.2051 15.5949 6.09999 15.4652 6.09998ZM8.33474 6.09998C8.20509 6.09999 8.09998 6.2051 8.09998 6.33475V11.45C8.09998 12.1588 8.38933 12.8 8.85623 13.2622C8.69055 12.812 8.59998 12.3255 8.59998 11.8179V10.9652C8.59998 9.25733 9.22364 7.6951 10.2556 6.49383C9.66677 6.24046 9.01779 6.09998 8.33474 6.09998ZM12 4.01307C11.747 4.20192 11.5269 4.39187 11.3542 4.57987C11.3035 4.63506 11.2599 4.68693 11.2222 4.73534C11.4555 4.84361 11.6817 4.96447 11.8999 5.09725C12.1634 4.93676 12.4387 4.79353 12.724 4.66912C12.6999 4.64048 12.674 4.61063 12.6458 4.57987C12.4731 4.39187 12.253 4.20192 12 4.01307Z" fill="#696F88"/>
</svg>
