<svg xmlns="http://www.w3.org/2000/svg" width="24" height="24" viewBox="0 0 11.6 20.7671" fill="none">
<path id="vector" fill-rule="evenodd" clip-rule="evenodd" d="M5.36143 0.157418C5.6898 -0.0524727 6.1102 -0.0524725 6.43857 0.157418L6.54072 0.223433C7.05358 0.557992 7.59107 0.961477 8.01855 1.42675C8.25281 1.68173 8.48257 1.98677 8.64883 2.33691C8.8843 2.31249 9.12331 2.3 9.36523 2.3C10.5995 2.30001 11.6 3.30054 11.6 4.53476V9.65C11.6 12.1629 9.56289 14.2 7.05 14.2H6.9V15.4227C7.84909 14.9313 8.96057 14.8618 9.80254 14.8795C10.3216 14.8904 10.7429 15.2959 10.779 15.8084L10.7813 15.8582C10.8047 16.9688 10.6765 18.5485 9.62803 19.6057C9.62608 19.6076 9.62413 19.6097 9.62217 19.6116L9.57227 19.66C8.52386 20.6562 6.99173 20.7857 5.9 20.7651C4.80827 20.7857 3.27614 20.6562 2.22773 19.66L2.17783 19.6116C2.17587 19.6097 2.17392 19.6076 2.17197 19.6057C1.12353 18.5485 0.995283 16.9688 1.01865 15.8582L1.021 15.8084C1.05707 15.2959 1.4784 14.8904 1.99746 14.8795C2.83943 14.8618 3.95091 14.9313 4.9 15.4227V14.1369C4.79106 14.1776 4.67315 14.2 4.55 14.2C2.03711 14.2 2.16499e-06 12.1629 0 9.65V4.53476C9.17471e-06 3.30054 1.00054 2.30001 2.23477 2.3C2.54168 2.3 2.84398 2.32044 3.14043 2.35957C3.30744 1.99989 3.54214 1.68722 3.78145 1.42675C4.23742 0.930467 4.81852 0.504439 5.36143 0.157418ZM3.07168 16.9326C3.15115 17.4864 3.31872 17.9197 3.58916 18.1943C3.86373 18.4648 4.29699 18.6322 4.85078 18.7117C4.7713 18.1579 4.60386 17.7246 4.3334 17.45C4.0588 17.1796 3.62552 17.0121 3.07168 16.9326ZM8.72832 16.9326C8.17448 17.0121 7.7412 17.1796 7.4666 17.45C7.19614 17.7246 7.0287 18.1579 6.94922 18.7117C7.50301 18.6322 7.93627 18.4648 8.21084 18.1943C8.48128 17.9197 8.64885 17.4864 8.72832 16.9326ZM9.36523 4.3C6.67825 4.3 4.5 6.47825 4.5 9.16523V10.0179C4.50001 11.223 5.47698 12.2 6.68213 12.2H7.05C8.45832 12.2 9.6 11.0583 9.6 9.65V4.53476C9.59999 4.40511 9.49489 4.30001 9.36523 4.3ZM2.23477 4.3C2.10511 4.30001 2.00001 4.40511 2 4.53476V9.65C2 10.3589 2.28936 11 2.75625 11.4622C2.59058 11.012 2.5 10.5255 2.5 10.0179V9.16523C2.5 7.45734 3.12366 5.89511 4.15566 4.69384C3.5668 4.44047 2.91781 4.3 2.23477 4.3ZM5.9 2.21308C5.64699 2.40193 5.42693 2.59188 5.2542 2.77988C5.20349 2.83508 5.15989 2.88694 5.12227 2.93535C5.35553 3.04362 5.58174 3.16448 5.7999 3.29726C6.06347 3.13678 6.3387 2.99354 6.62402 2.86914C6.59995 2.84049 6.57406 2.81064 6.5458 2.77988C6.37308 2.59188 6.15301 2.40193 5.9 2.21308Z" fill="var(--fill-0, #696F88)"/>
</svg>