<svg width="24" height="24" viewBox="0 0 24 24" fill="none" xmlns="http://www.w3.org/2000/svg">
<path fill-rule="evenodd" clip-rule="evenodd" d="M12.0019 2C13.3503 2 14.5209 2.71477 15.2968 3.95645C16.0043 4.05485 16.5885 4.28174 17.0223 4.7124L17.0629 4.75391C17.4769 5.1871 17.6851 5.75926 17.6851 6.42803L17.6837 6.51787C17.6566 7.43934 17.218 8.13952 16.9801 8.52285L16.9361 8.59385L16.9362 8.59395C16.9023 8.64904 16.8766 8.69238 16.8579 8.72656L16.8415 8.75771C16.8366 8.76743 16.8329 8.7756 16.8298 8.78242C16.8376 8.79053 16.846 8.79977 16.8559 8.80996C16.8769 8.83162 16.9143 8.8698 16.945 8.90166L16.9708 8.92773C17.1039 9.05754 17.291 9.18098 17.5481 9.33311C17.6667 9.4033 17.8274 9.4955 17.9608 9.58086C18.0902 9.66363 18.2714 9.78742 18.4267 9.95234C18.4272 9.95291 18.4278 9.95354 18.4284 9.9541C18.4289 9.95467 18.4295 9.95519 18.43 9.95576C18.8776 10.4309 19.1251 10.9857 19.1251 11.6576L19.1245 11.7202C19.1103 12.3631 18.8786 12.8749 18.5252 13.2781C18.2393 13.6044 17.8837 13.8441 17.6017 14.0217L17.4827 14.096C17.4113 14.14 17.3505 14.177 17.2897 14.2176C17.2439 14.2481 17.2096 14.273 17.1851 14.2925L17.1638 14.3102C17.1517 14.3208 17.142 14.3303 17.1344 14.3388C17.1336 14.3397 17.133 14.3406 17.1323 14.3414C17.1355 14.3649 17.1444 14.4026 17.1652 14.4542C17.1926 14.5221 17.2228 14.5738 17.2602 14.6387C17.2971 14.7025 17.4329 14.9095 17.5203 15.1629L17.5353 15.2078C17.6087 15.4356 17.6587 15.7095 17.6587 16.0496C17.6587 16.7122 17.4752 17.2738 17.0612 17.7526L17.0204 17.7987C16.6021 18.2604 15.8689 18.6589 15.0896 18.9665L14.9332 19.0269C14.9317 19.0274 14.9302 19.028 14.9288 19.0285C14.5749 19.1599 14.0047 19.4006 13.6205 19.6553C13.4031 19.8099 13.1937 19.9246 13 20.0095V21.2391C13 21.7913 12.5522 22.2391 12 22.2391C11.4477 22.2391 11 21.7913 11 21.2391V20.0096C10.8061 19.9247 10.5967 19.8099 10.3793 19.6553C10.0434 19.4326 9.56537 19.2206 9.21401 19.083L9.07114 19.0285L9.06675 19.0269C8.25629 18.7216 7.47597 18.3173 7.02241 17.8446L6.97954 17.7987C6.53676 17.3099 6.34116 16.7336 6.34116 16.0496C6.34116 15.6868 6.39816 15.3994 6.47964 15.1629L6.49653 15.1159C6.56035 14.9459 6.64272 14.8007 6.69575 14.7118L6.7396 14.6387C6.777 14.5737 6.80732 14.5221 6.83472 14.4542C6.85554 14.4026 6.86432 14.3649 6.86753 14.3414C6.86684 14.3406 6.86625 14.3396 6.86548 14.3388C6.86171 14.3345 6.85737 14.33 6.85249 14.3252L6.83608 14.3102C6.8119 14.2891 6.77124 14.2582 6.71021 14.2176C6.67979 14.1973 6.64942 14.1779 6.61772 14.1581L6.51724 14.096L6.51411 14.094C6.21914 13.9109 5.80139 13.651 5.47466 13.2781C5.12134 12.8749 4.88957 12.3631 4.87544 11.7202L4.87476 11.6576C4.87476 10.9857 5.12238 10.4309 5.56997 9.95576C5.57051 9.95519 5.571 9.95467 5.57153 9.9541C5.57207 9.95354 5.57256 9.95291 5.5731 9.95234C5.72836 9.78742 5.90972 9.66363 6.03911 9.58086C6.17254 9.4955 6.33317 9.4033 6.45181 9.33311C6.72603 9.17085 6.92062 9.04118 7.05493 8.90166L7.14399 8.80996C7.15385 8.79979 7.16224 8.79052 7.16997 8.78242L7.15845 8.75771C7.13948 8.71995 7.10889 8.66737 7.06372 8.59395L7.01978 8.52285L6.91899 8.35879C6.67559 7.95509 6.33984 7.32042 6.31616 6.51787L6.31479 6.42803C6.31479 5.7377 6.53657 5.15026 6.97759 4.7124L7.02017 4.67129C7.44928 4.26724 8.01846 4.05168 8.70298 3.95645C9.47891 2.71474 10.6496 2 11.998 2H12.0019ZM11.998 4C11.4455 4 10.882 4.264 10.4222 4.97969L10.3781 5.05039L10.3739 5.05723L10.1665 5.39229C10.0164 5.63467 9.76997 5.80144 9.48921 5.85078L9.073 5.92393C9.05686 5.92676 9.04063 5.92921 9.02437 5.93125C8.59656 5.98491 8.44678 6.08067 8.40063 6.11904L8.38677 6.13174C8.37154 6.14686 8.35897 6.16367 8.34731 6.19395C8.33446 6.22734 8.3148 6.29845 8.3148 6.42803L8.31528 6.45977C8.32399 6.76562 8.45812 7.04057 8.67349 7.39404L8.71919 7.46836L8.71978 7.46934L8.76577 7.54365L8.76724 7.5459C8.81669 7.62628 8.88568 7.74061 8.94575 7.86025L8.97729 7.9248C9.05798 8.09613 9.1812 8.40891 9.1812 8.804C9.1812 9.16248 9.10304 9.48566 8.91987 9.78281C8.81189 9.95799 8.66618 10.1147 8.57095 10.2123L8.49575 10.2888C8.15469 10.6431 7.74712 10.8906 7.47026 11.0544C7.31336 11.1472 7.21116 11.2053 7.11685 11.2656C7.05371 11.306 7.02727 11.327 7.02212 11.3309C6.89194 11.47 6.87476 11.5459 6.87476 11.6576L6.87524 11.6864C6.87985 11.8254 6.91853 11.8912 6.97896 11.9602C7.08106 12.0767 7.24603 12.1942 7.56606 12.3931L7.67358 12.4594C7.80313 12.5403 7.98946 12.6623 8.15054 12.8027L8.19575 12.8432C8.43572 13.0634 8.86917 13.5533 8.86919 14.3216C8.86919 14.9177 8.60369 15.4115 8.50356 15.5843L8.47202 15.638C8.47175 15.6385 8.47151 15.639 8.47124 15.6395C8.44885 15.6782 8.42657 15.7155 8.41235 15.7395C8.39626 15.7666 8.38736 15.782 8.38062 15.7942L8.37046 15.8145C8.36209 15.8388 8.34116 15.9059 8.34116 16.0496C8.34116 16.3056 8.39537 16.3826 8.46177 16.456L8.48608 16.4807C8.62597 16.6131 9.04248 16.8806 9.77163 17.1552C10.0572 17.2614 10.5356 17.454 11 17.7019V15.8391C11 14.8221 10.715 14.1303 10.3438 13.6245C9.98367 13.1338 9.50628 12.7694 8.9981 12.4633L8.89605 12.4028L8.85229 12.3758C8.40939 12.0864 8.2666 11.4973 8.53618 11.0352C8.80578 10.573 9.38886 10.4074 9.85874 10.6505L9.90386 10.6753L10.0279 10.7487C10.3381 10.9354 10.6719 11.159 11 11.4325V7.93906C11 7.38678 11.4477 6.93906 12 6.93906C12.5522 6.93906 13 7.38678 13 7.93906V11.4325C13.328 11.159 13.6619 10.9354 13.972 10.7487L14.096 10.6753L14.1412 10.6505C14.611 10.4074 15.1941 10.573 15.4637 11.0352C15.7333 11.4973 15.5905 12.0864 15.1476 12.3758L15.1039 12.4028L15.0018 12.4633C14.4936 12.7694 14.0162 13.1338 13.6561 13.6245C13.2849 14.1303 13 14.8221 13 15.8391V17.7019C13.4643 17.454 13.9427 17.2614 14.2283 17.1552C15.006 16.8623 15.4281 16.5774 15.5381 16.456L15.5624 16.428C15.6172 16.3607 15.6587 16.2736 15.6587 16.0496C15.6587 15.9418 15.647 15.8771 15.6375 15.8412L15.6294 15.8145C15.6293 15.8142 15.6292 15.8122 15.6193 15.7942C15.6125 15.782 15.6036 15.7666 15.5875 15.7395L15.5287 15.6395C15.5284 15.639 15.5282 15.6385 15.5279 15.638C15.4774 15.5504 15.1307 15.0028 15.1307 14.3216L15.1322 14.2457C15.1613 13.471 15.6309 12.9932 15.8494 12.8027L15.8901 12.7681C16.0959 12.5965 16.3305 12.4567 16.4338 12.3931C16.7539 12.1942 16.9188 12.0767 17.0209 11.9602C17.0814 11.8912 17.1201 11.8253 17.1247 11.6864L17.1251 11.6576C17.1251 11.5459 17.1079 11.47 16.9777 11.3309C16.9724 11.3269 16.9459 11.3059 16.8831 11.2656C16.7887 11.2053 16.6865 11.1472 16.5296 11.0544C16.2701 10.9008 15.8956 10.6736 15.5688 10.3539L15.5042 10.2888C15.4351 10.2171 15.224 10.0164 15.08 9.78281C14.8969 9.48566 14.8187 9.16248 14.8187 8.804L14.8192 8.76201C14.8287 8.33118 14.982 8.00388 15.0542 7.86025L15.077 7.81572C15.1311 7.71258 15.1894 7.61625 15.2327 7.5459L15.2341 7.54365L15.2801 7.46934L15.2807 7.46836L15.3264 7.39404C15.5418 7.04057 15.6759 6.76562 15.6846 6.45977L15.6851 6.42803C15.6851 6.29845 15.6654 6.22734 15.6526 6.19395C15.6438 6.17123 15.6346 6.15609 15.6241 6.14355L15.6131 6.13174C15.5916 6.11033 15.4797 6.00673 15.0629 5.94336L14.9755 5.93125C14.9593 5.92921 14.943 5.92676 14.9269 5.92393L14.5107 5.85078C14.2299 5.80144 13.9835 5.63466 13.8334 5.39229L13.626 5.05723L13.6218 5.05039C13.1542 4.28134 12.5722 4 12.0019 4C12.0013 4 12.0006 3.9999 12 3.9999C11.9993 3.9999 11.9986 4 11.998 4Z" fill="#696F88"/>
</svg>
