<svg xmlns="http://www.w3.org/2000/svg" width="24" height="24" viewBox="0 0 20.9539 20.0581" fill="none">
<path d="M3.84991 0.361716C6.56762 -0.647736 9.52428 0.536558 11.0409 2.9084C10.4849 3.30099 9.98006 3.77269 9.54561 4.31103C8.56656 2.43814 6.40624 1.54569 4.5463 2.23652C2.52182 2.98853 1.45201 5.39395 2.27745 7.61631C2.68747 8.72013 3.83073 9.22276 4.7713 8.87343C5.26253 8.69097 5.63538 8.3087 5.83048 7.82148L5.85128 7.77295C5.86407 7.74532 5.87823 7.71844 5.89337 7.69228L4.34141 7.34746C4.07192 7.28754 3.90191 7.02048 3.96173 6.75097C4.02162 6.48145 4.28869 6.31146 4.55821 6.37129L5.71954 6.62929L5.24171 5.33076L5.23341 5.30644C5.15475 5.05392 5.28729 4.78128 5.53829 4.68886C5.78933 4.59651 6.06691 4.71823 6.17071 4.96152L6.18018 4.98545L6.6254 6.19541L7.23634 5.37656C7.40144 5.15526 7.71471 5.10974 7.93604 5.2748C8.15734 5.43991 8.20288 5.75318 8.0378 5.97451L7.08712 7.24892C7.13218 7.26459 7.17646 7.28331 7.21934 7.30556C7.49214 7.44711 7.78768 7.52136 8.08438 7.52216C7.99708 8.19787 8.04505 8.87782 8.21778 9.52011C8.09361 9.52427 7.96981 9.52247 7.84688 9.51455L8.23409 10.5666C8.41722 11.0642 8.51094 11.5904 8.51095 12.1207V19.5581C8.51092 19.8342 8.28706 20.0581 8.01095 20.0581C7.73485 20.0581 7.51097 19.8342 7.51095 19.5581V12.1207C7.51094 11.7083 7.43804 11.2991 7.29561 10.912L6.89005 9.81005C6.50508 10.2147 6.0263 10.5408 5.46768 10.7483C3.4055 11.5143 1.16446 10.3636 0.402645 8.31269C-0.772034 5.15012 0.697253 1.53277 3.84991 0.361716Z" fill="currentColor"/>
<path fill-rule="evenodd" clip-rule="evenodd" d="M9.30225 6.73427C10.477 3.57173 13.9513 1.7907 17.104 2.96172C20.2567 4.13276 21.726 7.75011 20.5513 10.9127C19.7895 12.9636 17.5484 14.1143 15.4862 13.3483C14.9512 13.1496 14.4894 12.8421 14.1131 12.4609L13.7264 13.512C13.5839 13.8991 13.511 14.3083 13.511 14.7207V19.5581C13.511 19.8342 13.2872 20.0581 13.011 20.0581C12.7349 20.0581 12.511 19.8342 12.511 19.5581V14.7207C12.511 14.1904 12.6048 13.6643 12.7879 13.1666L13.177 12.1094C12.6405 12.1539 12.0869 12.0857 11.549 11.8859C9.48682 11.1199 8.54045 8.78524 9.30225 6.73427ZM16.4076 4.83652C14.3831 4.08456 12.0026 5.20834 11.1771 7.43066C10.767 8.53451 11.3049 9.66165 12.2454 10.011C12.7367 10.1935 13.2687 10.1473 13.7346 9.90556C13.7774 9.88334 13.8216 9.86458 13.8666 9.84892L12.916 8.57451C12.7509 8.35317 12.7965 8.03981 13.0178 7.8747C13.2391 7.70962 13.5525 7.75517 13.7176 7.97646L14.3739 8.85654L14.8418 7.58545L14.8513 7.56152C14.9551 7.31822 15.2326 7.19649 15.4837 7.28886C15.7347 7.38127 15.8673 7.6539 15.7886 7.90644L15.7803 7.93076L15.3084 9.21269L16.3956 8.97129C16.6652 8.91143 16.9323 9.08143 16.9922 9.35097C17.052 9.62049 16.882 9.88754 16.6125 9.94746L15.0605 10.2923C15.0756 10.3185 15.0898 10.3453 15.1026 10.3729L15.1234 10.4215C15.3185 10.9087 15.6914 11.291 16.1826 11.4734C17.1232 11.8228 18.2664 11.3201 18.6765 10.2163C19.5019 7.99394 18.4321 5.58851 16.4076 4.83652Z" fill="currentColor"/>
</svg>