<svg width="24" height="24" viewBox="0 0 24 24" fill="none" xmlns="http://www.w3.org/2000/svg">
<path d="M5.37298 2.33272C8.0907 1.32327 11.0474 2.50757 12.564 4.8794C12.0079 5.272 11.5031 5.7437 11.0687 6.28204C10.0896 4.40914 7.92931 3.51669 6.06937 4.20753C4.04489 4.95954 2.97508 7.36496 3.80052 9.58731C4.21054 10.6911 5.3538 11.1938 6.29437 10.8444C6.7856 10.662 7.15845 10.2797 7.35355 9.79249L7.37435 9.74395C7.38714 9.71633 7.4013 9.68945 7.41644 9.66329L5.86449 9.31847C5.59499 9.25855 5.42498 8.99149 5.4848 8.72198C5.54469 8.45246 5.81176 8.28247 6.08128 8.34229L7.24261 8.6003L6.76478 7.30177L6.75648 7.27745C6.67782 7.02492 6.81036 6.75229 7.06136 6.65987C7.3124 6.56752 7.58998 6.68924 7.69378 6.93253L7.70326 6.95645L8.14847 8.16642L8.75941 7.34757C8.92451 7.12626 9.23778 7.08075 9.45912 7.24581C9.68041 7.41092 9.72596 7.72419 9.56087 7.94552L8.61019 9.21993C8.65525 9.2356 8.69953 9.25432 8.74242 9.27657C9.01521 9.41812 9.31075 9.49236 9.60746 9.49317C9.52016 10.1689 9.56812 10.8488 9.74085 11.4911C9.61668 11.4953 9.49288 11.4935 9.36996 11.4856L9.75716 12.5376C9.94029 13.0353 10.034 13.5614 10.034 14.0917V21.5291C10.034 21.8052 9.81013 22.0291 9.53402 22.0291C9.25792 22.0291 9.03404 21.8052 9.03402 21.5291V14.0917C9.03401 13.6793 8.96111 13.2701 8.81869 12.883L8.41312 11.7811C8.02815 12.1857 7.54937 12.5119 6.99076 12.7193C4.92857 13.4853 2.68753 12.3346 1.92572 10.2837C0.751037 7.12113 2.22032 3.50378 5.37298 2.33272Z" fill="#696F88"/>
<path fill-rule="evenodd" clip-rule="evenodd" d="M10.8253 8.70528C12.0001 5.54274 15.4744 3.76171 18.6271 4.93272C21.7798 6.10377 23.249 9.72111 22.0743 12.8837C21.3125 14.9346 19.0715 16.0853 17.0093 15.3193C16.4743 15.1206 16.0125 14.8131 15.6362 14.4319L15.2494 15.483C15.107 15.8701 15.0341 16.2793 15.0341 16.6917V21.5291C15.0341 21.8052 14.8102 22.0291 14.5341 22.0291C14.258 22.0291 14.0341 21.8052 14.0341 21.5291V16.6917C14.0341 16.1614 14.1278 15.6353 14.311 15.1376L14.7 14.0804C14.1635 14.1249 13.61 14.0567 13.0721 13.8569C11.0099 13.091 10.0635 10.7563 10.8253 8.70528ZM17.9307 6.80753C15.9062 6.05557 13.5256 7.17934 12.7001 9.40167C12.2901 10.5055 12.8279 11.6327 13.7685 11.982C14.2597 12.1645 14.7918 12.1183 15.2577 11.8766C15.3005 11.8543 15.3447 11.8356 15.3897 11.8199L14.4391 10.5455C14.274 10.3242 14.3195 10.0108 14.5409 9.84571C14.7622 9.68063 15.0755 9.72617 15.2407 9.94747L15.897 10.8275L16.3649 9.55645L16.3743 9.53253C16.4781 9.28922 16.7557 9.1675 17.0068 9.25987C17.2578 9.35228 17.3903 9.62491 17.3117 9.87745L17.3034 9.90177L16.8315 11.1837L17.9187 10.9423C18.1882 10.8824 18.4554 11.0524 18.5153 11.322C18.5751 11.5915 18.4051 11.8585 18.1356 11.9185L16.5835 12.2633C16.5987 12.2895 16.6129 12.3163 16.6257 12.344L16.6465 12.3925C16.8416 12.8797 17.2145 13.262 17.7057 13.4444C18.6463 13.7938 19.7895 13.2912 20.1995 12.1873C21.025 9.96495 19.9552 7.55952 17.9307 6.80753Z" fill="#696F88"/>
</svg>
