<svg width="24" height="24" viewBox="0 0 24 24" fill="none" xmlns="http://www.w3.org/2000/svg">
<path d="M15.9124 14.7071C16.0417 14.7071 16.1754 14.7137 16.3091 14.727C16.3836 15.6406 16.1974 16.4704 15.7722 17.1347C15.3448 17.8033 14.7071 18.2558 13.9269 18.4478C13.894 18.4566 13.8568 18.4632 13.8173 18.4721C13.779 18.4803 13.7374 18.4895 13.6936 18.5H13.7C13 18.7 12.9999 19.2 12.9999 19.5V21.05C12.9999 21.6023 12.5522 22.05 11.9999 22.05C11.4477 22.05 10.9999 21.6023 10.9999 21.05V19.5C10.9999 19.2094 11 18.7 10.3 18.5H10.3003C10.2591 18.4904 10.2199 18.4818 10.1836 18.4742C10.1442 18.4654 10.1069 18.4588 10.0741 18.45C9.29386 18.258 8.65611 17.8056 8.22875 17.1369C7.80358 16.4726 7.61951 15.6406 7.69183 14.7292C7.82989 14.716 7.96578 14.7071 8.09945 14.7071C9.56343 14.7071 10.6965 15.5568 11.1283 16.978V16.9802C11.1502 17.0464 11.1721 17.128 11.1984 17.2163C11.3321 17.6974 11.5183 18.3573 12.0004 18.3573C12.4826 18.3573 12.6689 17.6974 12.8026 17.2163C12.8267 17.128 12.8508 17.0464 12.8727 16.9802C13.105 16.2916 13.4973 15.7201 14.0079 15.3272C14.5427 14.9168 15.1848 14.7071 15.9124 14.7071Z" fill="#696F88"/>
<path d="M8.09066 11.09C9.03086 11.09 9.83955 11.43 10.4269 12.0722C11.069 12.7673 11.3956 13.7869 11.3583 14.9587C10.9639 14.5085 10.4992 14.1554 9.97328 13.9127C9.37717 13.6368 8.69992 13.4978 7.95697 13.4978C7.9 13.4978 7.84084 13.4978 7.78168 13.5C7.58005 12.7784 7.54494 11.9552 7.68519 11.11C7.82326 11.0967 7.95917 11.09 8.09066 11.09Z" fill="#696F88"/>
<path d="M15.9059 11.0856C16.0396 11.0856 16.1777 11.0923 16.3158 11.1077C16.456 11.9706 16.4165 12.7916 16.1995 13.4978C16.1404 13.4955 16.0812 13.4956 16.022 13.4956C14.6194 13.4978 13.4842 13.9877 12.6426 14.9565C12.6054 13.7803 12.9297 12.7607 13.5697 12.0633C14.1548 11.4233 14.9635 11.0856 15.9059 11.0856Z" fill="#696F88"/>
<path d="M8.06215 7.44873C9.0133 7.44873 9.83077 7.78864 10.4225 8.43525C11.0668 9.13704 11.3934 10.1654 11.3583 11.3527C10.5299 10.3751 9.36396 9.87852 7.8934 9.87852H7.78383C7.57782 9.12818 7.54493 8.33591 7.68519 7.46641C7.8123 7.45537 7.93943 7.44873 8.06215 7.44873Z" fill="#696F88"/>
<path d="M15.9344 7.44873C16.0593 7.44873 16.1865 7.45537 16.3158 7.46641C16.4582 8.35356 16.4209 9.14363 16.1974 9.87852H16.0856C15.3185 9.87852 14.6325 10.0131 14.043 10.2802C13.5083 10.5251 13.0393 10.8849 12.6426 11.3527C12.6054 10.1588 12.9319 9.13034 13.5741 8.43076C14.1636 7.78859 14.9789 7.44873 15.9344 7.44873Z" fill="#696F88"/>
<path d="M15.0599 4.14727C15.3251 4.92188 15.3908 5.60823 15.2637 6.29678C13.8567 6.50644 12.6273 7.37593 12.0816 8.52568C11.8142 6.8882 12.2569 5.88624 12.693 5.32129C13.2409 4.61511 14.0781 4.20024 15.0599 4.14727Z" fill="#696F88"/>
<path d="M8.93881 4.14951C9.98858 4.2091 10.8521 4.65484 11.3233 5.38311C11.0406 5.87744 10.8762 6.56159 10.874 7.23027C10.2757 6.74477 9.49986 6.40491 8.735 6.29678C8.60789 5.60824 8.67363 4.9219 8.93881 4.14951Z" fill="#696F88"/>
<path d="M12.0004 2C12.625 2.37075 13.0524 2.80775 13.3023 3.3374C12.7434 3.58236 12.2788 3.95308 11.9983 4.379C11.7068 3.96191 11.2444 3.58455 10.6987 3.31973C10.9595 2.78126 11.3758 2.35972 12.0004 2Z" fill="#696F88"/>
</svg>
