<svg xmlns="http://www.w3.org/2000/svg" width="24" height="24" viewBox="0 0 19.0987 19.1097" fill="none">
<path id="vector" fill-rule="evenodd" clip-rule="evenodd" d="M17.9579 0.000973137L18.1164 0.00360986L18.1663 0.00585595C18.6788 0.0419287 19.0842 0.463258 19.0951 0.982321C19.1304 2.65726 18.9239 4.86042 17.4921 6.3042C17.4902 6.30615 17.4881 6.30821 17.4861 6.31015C16.3855 7.40169 14.8434 7.78073 13.4306 7.88379C14.9345 8.30198 16.2015 9.40078 17.1243 10.3701C17.4919 10.7563 17.4919 11.363 17.1243 11.7492C15.9602 12.972 14.2484 14.4011 12.2042 14.4097C12.2014 14.4097 12.1986 14.4097 12.1958 14.4097C10.5579 14.4028 9.13357 13.4838 8.03321 12.4898L7.44952 13.0735C8.97516 13.346 10.2431 14.441 11.1256 15.3716C11.4915 15.7574 11.4915 16.3621 11.1256 16.7478C10.1122 17.8164 8.59068 19.102 6.75421 19.1097C6.75141 19.1097 6.7486 19.1097 6.74581 19.1097C5.29733 19.1036 4.04496 18.3024 3.08311 17.4399L2.00968 18.5135C1.61915 18.904 0.985941 18.904 0.595419 18.5135C0.204926 18.123 0.204936 17.4898 0.595419 17.0993L1.62628 16.0684C0.779499 15.1001 0.00596753 13.8514 8.33236e-06 12.4139C-2.82787e-06 12.4111 -2.72692e-06 12.4084 8.33236e-06 12.4057C0.0076602 10.5556 1.28649 9.01798 2.35694 7.98886L2.39386 7.95508C2.78204 7.61707 3.36807 7.62834 3.74307 7.98886C4.66727 8.87737 5.74665 10.1449 6.02931 11.6653L6.61905 11.0756C5.6254 9.97535 4.70687 8.55136 4.70001 6.91396C4.7 6.91119 4.7 6.90834 4.70001 6.90556C4.70856 4.86141 6.13765 3.14954 7.36046 1.98545L7.39737 1.95205C7.7844 1.61821 8.36547 1.62932 8.73956 1.98545C9.7017 2.90139 10.7914 4.15647 11.2165 5.6457C11.3219 4.23895 11.7028 2.70735 12.7886 1.6125C12.7905 1.61054 12.7925 1.60858 12.7944 1.60664C14.1931 0.219526 16.3045 -0.0176055 17.9579 0.000973137ZM6.75001 15.0097C6.03939 15.0142 5.28921 15.4172 4.54268 16.0597C5.28922 16.7021 6.03938 17.105 6.75001 17.1096C7.46062 17.105 8.21072 16.7021 8.95724 16.0597C8.21073 15.4173 7.46061 15.0142 6.75001 15.0097ZM3.05001 10.1633C2.40935 10.9192 2.00453 11.6825 2.00001 12.4098C2.00453 13.135 2.40715 13.896 3.04474 14.6499L3.10938 14.5853C3.71557 13.8525 4.09551 13.1143 4.09991 12.4098C4.09538 11.6825 3.69068 10.9192 3.05001 10.1633ZM12.2 9.70967C11.3708 9.71462 10.5159 10.1578 9.68077 10.8487C9.61063 10.9306 9.53975 11.0108 9.46856 11.0894C10.3706 11.8831 11.3004 12.4042 12.2 12.4096C13.1108 12.4041 14.0526 11.8701 14.9651 11.0597C14.0526 10.2493 13.1108 9.71509 12.2 9.70967ZM8.05001 4.14453C7.2396 5.05706 6.70543 5.99891 6.70001 6.90976C6.70537 7.80939 7.22665 8.73912 8.02032 9.64111C8.0987 9.57011 8.17871 9.49946 8.26036 9.42949C8.95153 8.5942 9.39496 7.7392 9.39991 6.90976C9.39449 5.99891 8.86043 5.05706 8.05001 4.14453ZM17.0763 2.02236C15.8765 2.09985 14.8477 2.38948 14.2058 3.02382C13.5714 3.66572 13.2818 4.69451 13.2043 5.89433C14.4042 5.81686 15.4329 5.52722 16.0748 4.89287C16.7092 4.25096 16.9988 3.22223 17.0763 2.02236Z" fill="var(--fill-0, #696F88)"/>
</svg>