<svg xmlns="http://www.w3.org/2000/svg" width="24" height="24" viewBox="0 0 20 20.14" fill="none">
<path id="vector" fill-rule="evenodd" clip-rule="evenodd" d="M5.88 1.53L4.6 0L0 3.85L1.29 5.38L5.88 1.53ZM20 3.86L15.4 0L14.11 1.53L18.71 5.39L20 3.86ZM9 6.14H10.5V11.39L14.5 13.76L13.75 14.99L9 12.14V6.14ZM10 2.14C5.03 2.14 1 6.17 1 11.14C1 16.11 5.02 20.14 10 20.14C14.97 20.14 19 16.11 19 11.14C19 6.17 14.97 2.14 10 2.14ZM3 11.14C3 15.01 6.13 18.14 10 18.14C13.87 18.14 17 15.01 17 11.14C17 7.27 13.87 4.14 10 4.14C6.13 4.14 3 7.27 3 11.14Z" fill="var(--fill-0, #696F88)"/>
</svg>