<svg xmlns="http://www.w3.org/2000/svg" width="24" height="24" viewBox="0 0 14 21.5586" fill="none">
<path id="vector" fill-rule="evenodd" clip-rule="evenodd" d="M13.22 0.83L11.12 2.93C12.86 4.2 14 6.24 14 8.56V9.56H0V8.56C0 6.24 1.14 4.2 2.88 2.93L0.78 0.83L1.6 0L3.91 2.31C4.84 1.84 5.88 1.56 7 1.56C8.12 1.56 9.16 1.84 10.1 2.31L12.4 0L13.22 0.83ZM7 21.5586C3.13 21.5586 0 18.4286 0 14.5586V10.5586H14V14.5586C14 18.4286 10.87 21.5586 7 21.5586ZM4 7.55859C3.45 7.55859 3 7.10859 3 6.55859C3 6.00859 3.45 5.55859 4 5.55859C4.55 5.55859 5 6.00859 5 6.55859C5 7.10859 4.55 7.55859 4 7.55859ZM9 6.55859C9 7.10859 9.45 7.55859 10 7.55859C10.55 7.55859 11 7.10859 11 6.55859C11 6.00859 10.55 5.55859 10 5.55859C9.45 5.55859 9 6.00859 9 6.55859Z" fill="var(--fill-0, #696F88)"/>
</svg>