<svg width="24" height="24" viewBox="0 0 24 24" fill="none" xmlns="http://www.w3.org/2000/svg">
<path fill-rule="evenodd" clip-rule="evenodd" d="M8.16301 3.4443L7.70301 3.8243L6.28301 2.4043L6.88301 1.9043L8.16301 3.4443ZM17.5595 1.90625L22.1669 5.74985L20.8857 7.28565L16.2783 3.44205L17.5595 1.90625ZM10.2634 6.38375C10.8834 6.20375 11.5434 6.09375 12.2234 6.09375C16.0834 6.09375 19.2234 9.23375 19.2234 13.0938C19.2234 13.7738 19.1134 14.4338 18.9334 15.0538L20.4934 16.6138C20.9634 15.5338 21.2234 14.3438 21.2234 13.0938C21.2234 8.12375 17.1934 4.09375 12.2234 4.09375C10.9734 4.09375 9.78336 4.35375 8.69336 4.81375L10.2634 6.38375ZM1.83301 3.60336L3.24301 2.19336L21.623 20.5834L20.213 21.9934L18.113 19.8934C16.533 21.2634 14.473 22.0934 12.223 22.0934C7.25301 22.0934 3.22301 18.0634 3.22301 13.0934C3.22301 10.8434 4.05301 8.78336 5.42301 7.20336L4.62301 6.40336L3.56301 7.28336L2.28301 5.74336L3.20301 4.97336L1.83301 3.60336ZM12.2227 20.095C8.36266 20.095 5.22266 16.955 5.22266 13.095C5.22266 11.395 5.83266 9.835 6.84266 8.625L16.6927 18.475C15.4827 19.485 13.9227 20.095 12.2227 20.095Z" fill="#696F88"/>
</svg>
