<svg width="24" height="24" viewBox="0 0 24 24" fill="none" xmlns="http://www.w3.org/2000/svg">
<path d="M17.6 9.48168L19.44 6.30168C19.6 5.99168 19.48 5.61168 19.18 5.45168C18.89 5.30168 18.53 5.39168 18.35 5.67168L16.47 8.91168C13.61 7.70168 10.39 7.70168 7.53 8.91168L5.65 5.67168C5.46 5.38168 5.07 5.29168 4.78 5.47168C4.5 5.65168 4.41 6.01168 4.56 6.30168L6.4 9.48168C3.3 11.2517 1.28 14.4417 1 18.0017H23C22.72 14.4417 20.7 11.2517 17.6 9.48168ZM7 15.2517C6.31 15.2517 5.75 14.6917 5.75 14.0017C5.75 13.3117 6.31 12.7517 7 12.7517C7.69 12.7517 8.25 13.3117 8.25 14.0017C8.25 14.6917 7.69 15.2517 7 15.2517ZM17 15.2517C16.31 15.2517 15.75 14.6917 15.75 14.0017C15.75 13.3117 16.31 12.7517 17 12.7517C17.69 12.7517 18.25 13.3117 18.25 14.0017C18.25 14.6917 17.69 15.2517 17 15.2517Z" fill="#696F88"/>
</svg>
