<svg xmlns="http://www.w3.org/2000/svg" width="24" height="24" viewBox="0 0 24 16" fill="none">
<path id="vector" fill-rule="evenodd" clip-rule="evenodd" d="M19.35 6.04C18.67 2.59 15.64 0 12 0C9.11 0 6.6 1.64 5.35 4.04C2.34 4.36 0 6.91 0 10C0 13.31 2.69 16 6 16H19C21.76 16 24 13.76 24 11C24 8.36 21.95 6.22 19.35 6.04ZM16 6.41L14.59 5L12 7.59L9.41 5L8 6.41L10.59 9L8 11.59L9.41 13L12 10.41L14.59 13L16 11.59L13.41 9L16 6.41ZM6.00024 14.001H19.0002C20.6502 14.001 22.0002 12.651 22.0002 11.001C22.0002 9.45098 20.7802 8.14098 19.2202 8.04098L17.6902 7.93098L17.3902 6.43098C16.8802 3.86098 14.6202 2.00098 12.0002 2.00098C9.94024 2.00098 8.08024 3.14098 7.13024 4.97098L6.63024 5.92098L5.56024 6.03098C3.53024 6.24098 2.00024 7.95098 2.00024 10.001C2.00024 12.211 3.79024 14.001 6.00024 14.001Z" fill="var(--fill-0, #696F88)"/>
</svg>