<svg xmlns="http://www.w3.org/2000/svg" width="24" height="24" viewBox="0 0 20.42 20" fill="none">
<path id="vector" fill-rule="evenodd" clip-rule="evenodd" d="M17.3 6.89C17.74 6.19 18 5.38 18 4.5C18 2.01 15.99 0 13.5 0C11.01 0 9 2.01 9 4.5C9 6.99 11.01 9 13.49 9C14.37 9 15.19 8.74 15.88 8.3L19 11.42L20.42 10L17.3 6.89ZM16 18V11L18 13V18C18 19.1 17.1 20 16 20H2C0.9 20 0 19.1 0 18V4C0 2.9 0.9 2 2 2H7.5C7.24 2.62 7.07 3.29 7.02 4H2V18H16ZM14.5 16L10.96 11.29L8.21 14.83L6.25 12.47L3.5 16H14.5ZM11 4.5C11 5.88 12.12 7 13.5 7C14.88 7 16 5.88 16 4.5C16 3.12 14.88 2 13.5 2C12.12 2 11 3.12 11 4.5Z" fill="var(--fill-0, #696F88)"/>
</svg>