<svg xmlns="http://www.w3.org/2000/svg" width="24" height="24" viewBox="0 0 19.9962 20" fill="none">
<path fill-rule="evenodd" clip-rule="evenodd" d="M10.0018 4.86492C7.16544 4.86492 4.86411 7.1661 4.86411 10.0027C4.86411 12.8392 7.16544 15.1404 10.0018 15.1404C12.8384 15.1404 15.1396 12.8392 15.1396 10.0027C15.1396 7.1661 12.8384 4.86492 10.0018 4.86492ZM10.0018 13.3354C8.16173 13.3354 6.66912 11.8429 6.66912 10.0027C6.66912 8.16239 8.16173 6.66994 10.0018 6.66994C11.8421 6.66994 13.3346 8.16239 13.3346 10.0027C13.3346 11.8429 11.8421 13.3354 10.0018 13.3354Z" fill="var(--fill-0, #696F88)"/>
<path d="M15.3434 5.86078C16.0059 5.86078 16.5429 5.32372 16.5429 4.66135C16.5429 3.99884 16.0059 3.46192 15.3434 3.46192C14.681 3.46192 14.1439 3.99884 14.1439 4.66135C14.1439 5.32372 14.681 5.86078 15.3434 5.86078Z" fill="var(--fill-0, #696F88)"/>
<path fill-rule="evenodd" clip-rule="evenodd" d="M19.9453 5.88007C19.8985 4.81739 19.7266 4.08681 19.4805 3.45375C19.2265 2.78177 18.8358 2.18015 18.3239 1.68002C17.8238 1.17211 17.2182 0.777437 16.554 0.527448C15.9173 0.281275 15.1905 0.109427 14.1278 0.0625734C13.0572 0.0117516 12.7174 0 10.002 0C7.28659 0 6.94671 0.0117516 5.88007 0.0586054C4.81739 0.105459 4.0868 0.27746 3.4539 0.52348C2.78177 0.777437 2.18015 1.16814 1.68002 1.68002C1.17211 2.18015 0.777589 2.78574 0.527448 3.44993C0.281275 4.08681 0.109427 4.81342 0.0625734 5.8761C0.0117516 6.94672 0 7.2866 0 10.002C0 12.7174 0.0117516 13.0572 0.0586053 14.1239C0.105459 15.1866 0.277459 15.9172 0.523632 16.5502C0.777589 17.2222 1.17211 17.8238 1.68002 18.3239C2.18015 18.8319 2.78574 19.2265 3.44993 19.4765C4.0868 19.7227 4.81342 19.8945 5.87625 19.9414C6.94274 19.9884 7.28278 20 9.99816 20C12.7135 20 13.0534 19.9884 14.1201 19.9414C15.1827 19.8945 15.9133 19.7227 16.5462 19.4765C17.8903 18.9569 18.953 17.8942 19.4727 16.5502C19.7187 15.9133 19.8907 15.1866 19.9376 14.1239C19.9844 13.0572 19.9962 12.7174 19.9962 10.002C19.9962 7.2866 19.9922 6.94672 19.9453 5.88007ZM18.1443 14.0458C18.1013 15.0225 17.9372 15.55 17.8004 15.9016C17.4644 16.7729 16.7729 17.4644 15.9016 17.8005C15.5499 17.9372 15.0187 18.1013 14.0457 18.1442C12.9908 18.1912 12.6745 18.2028 10.0059 18.2028C7.33741 18.2028 7.01707 18.1912 5.96599 18.1442C4.98923 18.1013 4.46179 17.9372 4.11015 17.8005C3.67657 17.6402 3.2819 17.3863 2.96155 17.0542C2.62946 16.7299 2.3755 16.3391 2.21525 15.9056C2.0785 15.5539 1.91444 15.0225 1.87155 14.0497C1.82455 12.9948 1.81295 12.6783 1.81295 10.0098C1.81295 7.34124 1.82455 7.02089 1.87155 5.96996C1.91444 4.99321 2.0785 4.46576 2.21525 4.11413C2.3755 3.68039 2.62946 3.28587 2.96552 2.96537C3.28968 2.63327 3.68038 2.37932 4.11412 2.21922C4.46575 2.08247 4.99717 1.91841 5.96996 1.87537C7.02485 1.82852 7.34138 1.81677 10.0098 1.81677C12.6822 1.81677 12.9986 1.82852 14.0497 1.87537C15.0265 1.91841 15.5539 2.08247 15.9055 2.21922C16.3391 2.37932 16.7338 2.63327 17.0541 2.96537C17.3862 3.28968 17.6402 3.68039 17.8004 4.11413C17.9372 4.46576 18.1013 4.99702 18.1443 5.96996C18.1911 7.02486 18.2029 7.34124 18.2029 10.0098C18.2029 12.6783 18.1911 12.9909 18.1443 14.0458Z" fill="var(--fill-0, #696F88)"/>
</svg>