<svg width="24" height="24" viewBox="0 0 24 24" fill="none" xmlns="http://www.w3.org/2000/svg">
<path fill-rule="evenodd" clip-rule="evenodd" d="M12.0438 6.86492C9.20743 6.86492 6.9061 9.1661 6.9061 12.0027C6.9061 14.8392 9.20743 17.1404 12.0438 17.1404C14.8804 17.1404 17.1816 14.8392 17.1816 12.0027C17.1816 9.1661 14.8804 6.86492 12.0438 6.86492ZM12.0438 15.3354C10.2037 15.3354 8.71112 13.8429 8.71112 12.0027C8.71112 10.1624 10.2037 8.66994 12.0438 8.66994C13.8841 8.66994 15.3766 10.1624 15.3766 12.0027C15.3766 13.8429 13.8841 15.3354 12.0438 15.3354Z" fill="#696F88"/>
<path d="M17.3853 7.86078C18.0479 7.86078 18.5849 7.32372 18.5849 6.66135C18.5849 5.99884 18.0479 5.46192 17.3853 5.46192C16.723 5.46192 16.1859 5.99884 16.1859 6.66135C16.1859 7.32372 16.723 7.86078 17.3853 7.86078Z" fill="#696F88"/>
<path fill-rule="evenodd" clip-rule="evenodd" d="M21.9873 7.88007C21.9405 6.81739 21.7686 6.08681 21.5225 5.45375C21.2685 4.78177 20.8778 4.18015 20.3659 3.68002C19.8658 3.17211 19.2602 2.77744 18.596 2.52745C17.9593 2.28128 17.2325 2.10943 16.1698 2.06257C15.0992 2.01175 14.7593 2 12.044 2C9.32858 2 8.9887 2.01175 7.92206 2.05861C6.85938 2.10546 6.1288 2.27746 5.49589 2.52348C4.82376 2.77744 4.22214 3.16814 3.72201 3.68002C3.2141 4.18015 2.81958 4.78574 2.56944 5.44993C2.32327 6.08681 2.15142 6.81342 2.10457 7.8761C2.05374 8.94672 2.04199 9.2866 2.04199 12.002C2.04199 14.7174 2.05374 15.0572 2.1006 16.1239C2.14745 17.1866 2.31945 17.9172 2.56562 18.5502C2.81958 19.2222 3.2141 19.8238 3.72201 20.3239C4.22214 20.8319 4.82773 21.2265 5.49192 21.4765C6.1288 21.7227 6.85541 21.8945 7.91824 21.9414C8.98474 21.9884 9.32477 22 12.0401 22C14.7555 22 15.0954 21.9884 16.1621 21.9414C17.2247 21.8945 17.9553 21.7227 18.5882 21.4765C19.9323 20.9569 20.995 19.8942 21.5147 18.5502C21.7607 17.9133 21.9327 17.1866 21.9795 16.1239C22.0264 15.0572 22.0382 14.7174 22.0382 12.002C22.0382 9.2866 22.0342 8.94672 21.9873 7.88007ZM20.1863 16.0458C20.1432 17.0225 19.9792 17.55 19.8424 17.9016C19.5064 18.7729 18.8149 19.4644 17.9436 19.8005C17.5919 19.9372 17.0607 20.1013 16.0877 20.1442C15.0328 20.1912 14.7165 20.2028 12.0479 20.2028C9.37941 20.2028 9.05906 20.1912 8.00798 20.1442C7.03123 20.1013 6.50378 19.9372 6.15215 19.8005C5.71856 19.6402 5.32389 19.3863 5.00354 19.0542C4.67145 18.7299 4.41749 18.3391 4.25724 17.9056C4.1205 17.5539 3.95643 17.0225 3.91355 16.0497C3.86654 14.9948 3.85494 14.6783 3.85494 12.0098C3.85494 9.34124 3.86654 9.02089 3.91355 7.96996C3.95643 6.99321 4.1205 6.46576 4.25724 6.11413C4.41749 5.68039 4.67145 5.28587 5.00751 4.96537C5.33167 4.63327 5.72237 4.37932 6.15611 4.21922C6.50775 4.08247 7.03916 3.91841 8.01195 3.87537C9.06684 3.82852 9.38337 3.81677 12.0517 3.81677C14.7242 3.81677 15.0406 3.82852 16.0917 3.87537C17.0685 3.91841 17.5959 4.08247 17.9475 4.21922C18.3811 4.37932 18.7758 4.63327 19.0961 4.96537C19.4282 5.28968 19.6822 5.68039 19.8424 6.11413C19.9792 6.46576 20.1432 6.99702 20.1863 7.96996C20.2331 9.02486 20.2449 9.34124 20.2449 12.0098C20.2449 14.6783 20.2331 14.9909 20.1863 16.0458Z" fill="#696F88"/>
</svg>
