<svg xmlns="http://www.w3.org/2000/svg" width="24" height="24" viewBox="0 0 20 20" fill="none">
<path d="M2 2V12H4V14H1C0.447716 14 0 13.5523 0 13V1C0 0.447716 0.447715 0 1 0H13C13.5523 0 14 0.447715 14 1V4H12V2H2Z" fill="var(--fill-0, #696F88)"/>
<path d="M8 16V18L18 18L18 8L16 8V6L19 6C19.5523 6 20 6.44772 20 7L20 19C20 19.5523 19.5523 20 19 20L7 20C6.44772 20 6 19.5523 6 19L6 16H8Z" fill="var(--fill-0, #696F88)"/>
<path d="M6 6H8V7H7V8H6V6Z" fill="var(--fill-0, #696F88)"/>
<path d="M14 14V12H13V13H12V14H14Z" fill="var(--fill-0, #696F88)"/>
<path d="M14 6V8H13V7H12V6H14Z" fill="var(--fill-0, #696F88)"/>
<path d="M6 14H8V13H7L7 12H6L6 14Z" fill="var(--fill-0, #696F88)"/>
<path d="M6 9H7V11H6V9Z" fill="var(--fill-0, #696F88)"/>
<path d="M11 7V6H9V7H11Z" fill="var(--fill-0, #696F88)"/>
<path d="M14 11H13V9H14V11Z" fill="var(--fill-0, #696F88)"/>
<path d="M9 13V14H11V13H9Z" fill="var(--fill-0, #696F88)"/>
</svg>