<svg xmlns="http://www.w3.org/2000/svg" width="24" height="24" viewBox="0 0 18.16 19.0194" fill="none">
<path id="Vector" fill-rule="evenodd" clip-rule="evenodd" d="M7.8 2.9C7.8 2.24 8.34 1.7 9 1.7C9.66 1.7 10.2 2.24 10.2 2.9L10.19 6.81L12 8.6V3C12 1.34 10.66 0 9 0C7.46 0 6.21 1.16 6.04 2.65L7.8 4.41V2.9ZM16.0003 9H14.3003C14.3003 9.58 14.2003 10.13 14.0303 10.64L15.3003 11.91C15.7403 11.03 16.0003 10.04 16.0003 9ZM0 2.26937L1.41 0.859375L18.16 17.6094L16.75 19.0194L12.55 14.8194C11.77 15.2694 10.91 15.5894 10 15.7194V18.9994H8V15.7194C4.72 15.2294 2 12.4094 2 8.99938H3.7C3.7 11.9994 6.24 14.0994 9 14.0994C9.81 14.0994 10.6 13.9094 11.31 13.5794L9.65 11.9194C9.44 11.9694 9.23 11.9994 9 11.9994C7.34 11.9994 6 10.6594 6 8.99938V8.26937L0 2.26937Z" fill="var(--fill-0, #696F88)"/>
</svg>