<svg width="24" height="24" viewBox="0 0 24 24" fill="none" xmlns="http://www.w3.org/2000/svg">
<path fill-rule="evenodd" clip-rule="evenodd" d="M10.7199 5.39023C10.7199 4.73023 11.2599 4.19023 11.9199 4.19023C12.5799 4.19023 13.1199 4.73023 13.1199 5.39023L13.1099 9.30023L14.9199 11.0902V5.49023C14.9199 3.83023 13.5799 2.49023 11.9199 2.49023C10.3799 2.49023 9.12992 3.65023 8.95992 5.14023L10.7199 6.90023V5.39023ZM18.9202 11.4902H17.2202C17.2202 12.0702 17.1202 12.6202 16.9502 13.1302L18.2202 14.4002C18.6602 13.5202 18.9202 12.5302 18.9202 11.4902ZM2.91992 4.75961L4.32992 3.34961L21.0799 20.0996L19.6699 21.5096L15.4699 17.3096C14.6899 17.7596 13.8299 18.0796 12.9199 18.2096V21.4896H10.9199V18.2096C7.63992 17.7196 4.91992 14.8996 4.91992 11.4896H6.61992C6.61992 14.4896 9.15992 16.5896 11.9199 16.5896C12.7299 16.5896 13.5199 16.3996 14.2299 16.0696L12.5699 14.4096C12.3599 14.4596 12.1499 14.4896 11.9199 14.4896C10.2599 14.4896 8.91992 13.1496 8.91992 11.4896V10.7596L2.91992 4.75961Z" fill="#696F88"/>
</svg>
