<svg xmlns="http://www.w3.org/2000/svg" width="24" height="24" viewBox="0 0 19.4542 20" fill="none">
<path id="vector" fill-rule="evenodd" clip-rule="evenodd" d="M17.2293 10C17.2293 10.34 17.1993 10.66 17.1593 10.98L19.2693 12.63C19.4593 12.78 19.5093 13.05 19.3893 13.27L17.3893 16.73C17.2993 16.89 17.1293 16.98 16.9593 16.98C16.8993 16.98 16.8393 16.97 16.7793 16.95L14.2893 15.95C13.7693 16.34 13.2093 16.68 12.5993 16.93L12.2193 19.58C12.1893 19.82 11.9793 20 11.7293 20H7.72933C7.47933 20 7.26933 19.82 7.23933 19.58L6.85933 16.93C6.24933 16.68 5.68933 16.35 5.16933 15.95L2.67933 16.95C2.62933 16.97 2.56933 16.98 2.50933 16.98C2.32933 16.98 2.15933 16.89 2.06933 16.73L0.0693316 13.27C-0.0506684 13.05 -0.000668393 12.78 0.189332 12.63L2.29933 10.98C2.25933 10.66 2.22933 10.33 2.22933 10C2.22933 9.67 2.25933 9.34 2.29933 9.02L0.189332 7.37C-0.000668393 7.22 -0.0606684 6.95 0.0693316 6.73L2.06933 3.27C2.15933 3.11 2.32933 3.02 2.49933 3.02C2.55933 3.02 2.61933 3.03 2.67933 3.05L5.16933 4.05C5.68933 3.66 6.24933 3.32 6.85933 3.07L7.23933 0.42C7.26933 0.18 7.47933 0 7.72933 0H11.7293C11.9793 0 12.1893 0.18 12.2193 0.42L12.5993 3.07C13.2093 3.32 13.7693 3.65 14.2893 4.05L16.7793 3.05C16.8293 3.03 16.8893 3.02 16.9493 3.02C17.1293 3.02 17.2993 3.11 17.3893 3.27L19.3893 6.73C19.5093 6.95 19.4593 7.22 19.2693 7.37L17.1593 9.02C17.1993 9.34 17.2293 9.66 17.2293 10ZM15.2292 10C15.2292 9.79 15.2192 9.58 15.1792 9.27L15.0392 8.14L15.9292 7.44L16.9992 6.59L16.2992 5.38L15.0292 5.89L13.9692 6.32L13.0592 5.62C12.6592 5.32 12.2592 5.09 11.8292 4.91L10.7692 4.48L10.4192 2H9.02922L8.82922 3.35L8.66922 4.48L7.60922 4.91C7.19922 5.08 6.78922 5.32 6.35922 5.64L5.45922 6.32L4.41922 5.9L3.14922 5.39L2.44922 6.6L3.52922 7.44L4.41922 8.14L4.27922 9.27C4.24922 9.57 4.22922 9.8 4.22922 10C4.22922 10.2 4.24922 10.43 4.27922 10.74L4.41922 11.87L3.52922 12.57L2.44922 13.41L3.14922 14.62L4.41922 14.11L5.47922 13.68L6.38922 14.38C6.78922 14.68 7.18922 14.91 7.61922 15.09L8.67922 15.52L9.02922 18H10.4292L10.6292 16.65L10.7892 15.52L11.8492 15.09C12.2592 14.92 12.6692 14.68 13.0992 14.36L13.9992 13.68L15.0392 14.1L16.3092 14.61L17.0092 13.4L15.9292 12.56L15.0392 11.86L15.1792 10.73C15.2092 10.43 15.2292 10.21 15.2292 10ZM9.72949 6C7.51949 6 5.72949 7.79 5.72949 10C5.72949 12.21 7.51949 14 9.72949 14C11.9395 14 13.7295 12.21 13.7295 10C13.7295 7.79 11.9395 6 9.72949 6ZM7.72949 10C7.72949 11.1 8.62949 12 9.72949 12C10.8295 12 11.7295 11.1 11.7295 10C11.7295 8.9 10.8295 8 9.72949 8C8.62949 8 7.72949 8.9 7.72949 10Z" fill="var(--fill-0, #696F88)"/>
</svg>