<svg xmlns="http://www.w3.org/2000/svg" width="24" height="24" viewBox="0 0 19.14 19.14" fill="none">
<path id="Vector" fill-rule="evenodd" clip-rule="evenodd" d="M7.56 6.14L5.56 4.14L1.41 0L0 1.41L2.73 4.14H2C1.45 4.14 1 4.59 1 5.14V15.14C1 15.69 1.45 16.14 2 16.14H14C14.21 16.14 14.39 16.06 14.55 15.96L17.73 19.14L19.14 17.73L10.28 8.87L7.56 6.14ZM3 14.1406V6.14062H4.73L12.73 14.1406H3ZM12.9996 8.75063V6.14062H10.3896L8.38965 4.14062H13.9996C14.5496 4.14062 14.9996 4.59062 14.9996 5.14062V8.64062L18.9996 4.64062V14.7506L12.9996 8.75063Z" fill="var(--fill-0, #696F88)"/>
</svg>