<svg width="24" height="24" viewBox="0 0 24 24" fill="none" xmlns="http://www.w3.org/2000/svg">
<path d="M11.9902 1.83496C14.6835 1.83502 17.2152 2.8822 19.1162 4.79297C21.0172 6.69397 22.0654 9.2263 22.0654 11.9199C22.0654 17.471 17.5413 21.995 11.9902 21.9951C10.3244 21.9951 8.68896 21.5778 7.22949 20.7949L2.04199 22.1592L1.76562 22.2324L3.22266 16.8818C2.37054 15.3719 1.91507 13.6658 1.91504 11.9102C1.91504 6.35903 6.43911 1.83496 11.9902 1.83496ZM12 3.83496C7.5414 3.83496 3.92495 7.46089 3.91504 11.9102L3.91992 12.1963C3.96689 13.5304 4.34132 14.8317 5.00293 15.9619L5.14941 16.2012L5.15039 16.2021L5.34961 16.5225L5.38867 16.584L5.36914 16.6533L4.61426 19.417L7.45801 18.6709L7.52344 18.6533L7.58105 18.6865L7.88086 18.8564L7.88477 18.8584C9.11811 19.6023 10.5392 19.9854 11.9902 19.9854C16.4393 19.9852 20.0654 16.3685 20.0654 11.9199C20.0654 9.76385 19.2226 7.73535 17.7031 6.20605C16.1738 4.67697 14.1556 3.83496 12 3.83496ZM8.73145 7.16992C8.81107 7.17245 8.88338 7.1748 8.9502 7.1748H8.95996C9.00145 7.1774 9.15306 7.16524 9.28711 7.23047C9.43377 7.30187 9.55521 7.44902 9.66211 7.70508L10.1035 8.76953C10.1829 8.96206 10.2581 9.14247 10.3164 9.28125C10.3455 9.35045 10.3703 9.40886 10.3896 9.45312C10.3993 9.47533 10.4077 9.49391 10.4141 9.50781C10.4172 9.51463 10.4198 9.52023 10.4219 9.52441C10.4228 9.5264 10.4238 9.5293 10.4238 9.5293L10.4248 9.53125L10.4277 9.53613C10.4992 9.6791 10.5595 9.87604 10.4492 10.1104L10.3379 10.333C10.3001 10.4005 10.2531 10.4684 10.1875 10.542L10.0967 10.667C9.99837 10.7938 9.88243 10.9213 9.79688 11.0068L9.79199 11.0117C9.73878 11.0605 9.70544 11.1031 9.69141 11.1445C9.68032 11.1775 9.67568 11.2269 9.71484 11.3086C9.86643 11.5611 10.3433 12.3485 11.0596 12.9873C11.9777 13.8078 12.7464 14.054 13.0234 14.1924C13.1324 14.2469 13.1916 14.2546 13.2266 14.25C13.2559 14.2461 13.2949 14.2296 13.3555 14.1611C13.4985 13.9977 13.9693 13.4482 14.1211 13.2109L14.1309 13.1973C14.2405 13.0589 14.3585 12.973 14.5059 12.9561C14.5716 12.9485 14.6371 12.9565 14.6992 12.9707L14.874 13.0244L14.876 13.0254C14.9963 13.0691 15.367 13.2435 15.7266 13.4189C16.0769 13.5899 16.4351 13.771 16.5762 13.8486C16.6957 13.9012 16.8075 13.9478 16.8936 13.9922C16.9576 14.0252 17.0228 14.0643 17.0762 14.1172L17.125 14.1758L17.1309 14.1826L17.1348 14.1914C17.1677 14.252 17.1802 14.3336 17.1855 14.4072C17.1915 14.4884 17.1906 14.5871 17.1807 14.6982C17.1607 14.9209 17.1049 15.2025 16.9951 15.5059C16.8711 15.8483 16.5346 16.1512 16.1953 16.3701C15.8526 16.5912 15.4648 16.7534 15.1934 16.793C14.7521 16.8545 14.1831 16.8882 13.5596 16.6875C13.1962 16.5764 12.7287 16.424 12.1309 16.1504V16.1484C9.59619 15.067 7.94546 12.5246 7.82227 12.375L7.81641 12.3672L7.81152 12.3594C7.7627 12.284 7.50304 11.9343 7.26172 11.458C7.0203 10.9815 6.78516 10.3571 6.78516 9.70996C6.78517 8.43113 7.47866 7.77854 7.69629 7.53125L7.69824 7.52832C7.96493 7.23844 8.28303 7.16504 8.48047 7.16504C8.56822 7.16505 8.65296 7.16743 8.73145 7.16992Z" fill="#696F88"/>
</svg>
