<svg xmlns="http://www.w3.org/2000/svg" width="24" height="24" viewBox="0 0 20.2998 20.3975" fill="none">
<path id="Vector" d="M10.2246 0C12.9179 6.08032e-05 15.4496 1.04724 17.3506 2.95801C19.2516 4.85901 20.2998 7.39134 20.2998 10.085C20.2998 15.636 15.7756 20.16 10.2246 20.1602C8.5588 20.1602 6.92333 19.7429 5.46387 18.96L0.276367 20.3242L0 20.3975L1.45703 15.0469C0.604915 13.537 0.149441 11.8308 0.149414 10.0752C0.149414 4.52407 4.67348 0 10.2246 0ZM10.2344 2C5.77577 2 2.15933 5.62593 2.14941 10.0752L2.1543 10.3613C2.20127 11.6955 2.5757 12.9967 3.2373 14.127L3.38379 14.3662L3.38477 14.3672L3.58398 14.6875L3.62305 14.749L3.60352 14.8184L2.84863 17.582L5.69238 16.8359L5.75781 16.8184L5.81543 16.8516L6.11523 17.0215L6.11914 17.0234C7.35249 17.7674 8.77353 18.1504 10.2246 18.1504C14.6736 18.1503 18.2998 14.5335 18.2998 10.085C18.2998 7.92889 17.457 5.90039 15.9375 4.37109C14.4082 2.842 12.39 2 10.2344 2ZM6.96582 5.33496C7.04545 5.33749 7.11776 5.33984 7.18457 5.33984H7.19434C7.23582 5.34244 7.38743 5.33027 7.52148 5.39551C7.66815 5.46691 7.78959 5.61405 7.89648 5.87012L8.33789 6.93457C8.41728 7.1271 8.49244 7.3075 8.55078 7.44629C8.57988 7.51549 8.60469 7.5739 8.62402 7.61816C8.63372 7.64037 8.64204 7.65895 8.64844 7.67285C8.65157 7.67967 8.65422 7.68527 8.65625 7.68945C8.65722 7.69144 8.6582 7.69434 8.6582 7.69434L8.65918 7.69629L8.66211 7.70117C8.73359 7.84414 8.79386 8.04108 8.68359 8.27539L8.57227 8.49805C8.53446 8.56549 8.48747 8.63343 8.42188 8.70703L8.33105 8.83203C8.23275 8.95888 8.11681 9.08632 8.03125 9.17188L8.02637 9.17676C7.97316 9.22558 7.93981 9.26812 7.92578 9.30957C7.91469 9.34254 7.91005 9.39193 7.94922 9.47363C8.10081 9.72618 8.57771 10.5135 9.29395 11.1523C10.2121 11.9728 10.9808 12.219 11.2578 12.3574C11.3668 12.4119 11.4259 12.4197 11.4609 12.415C11.4903 12.4111 11.5293 12.3946 11.5898 12.3262C11.7329 12.1627 12.2036 11.6132 12.3555 11.376L12.3652 11.3623C12.4748 11.224 12.5929 11.1381 12.7402 11.1211C12.806 11.1136 12.8715 11.1215 12.9336 11.1357L13.1084 11.1895L13.1104 11.1904C13.2307 11.2342 13.6014 11.4085 13.9609 11.584C14.3112 11.7549 14.6695 11.9361 14.8105 12.0137C14.93 12.0662 15.0419 12.1129 15.1279 12.1572C15.192 12.1903 15.2572 12.2294 15.3105 12.2822L15.3594 12.3408L15.3652 12.3477L15.3691 12.3564C15.4021 12.417 15.4145 12.4986 15.4199 12.5723C15.4259 12.6534 15.425 12.7522 15.415 12.8633C15.395 13.0859 15.3393 13.3675 15.2295 13.6709C15.1055 14.0133 14.769 14.3162 14.4297 14.5352C14.087 14.7562 13.6991 14.9184 13.4277 14.958C12.9865 15.0196 12.4174 15.0533 11.7939 14.8525C11.4306 14.7415 10.9631 14.589 10.3652 14.3154V14.3135C7.83057 13.232 6.17983 10.6896 6.05664 10.54L6.05078 10.5322L6.0459 10.5244C5.99707 10.449 5.73741 10.0993 5.49609 9.62305C5.25467 9.14655 5.01953 8.52216 5.01953 7.875C5.01955 6.59617 5.71303 5.94358 5.93066 5.69629L5.93262 5.69336C6.19931 5.40348 6.51741 5.33008 6.71484 5.33008C6.8026 5.33009 6.88734 5.33247 6.96582 5.33496Z" fill="var(--fill-0, #696F88)"/>
</svg>