<svg width="24" height="24" viewBox="0 0 24 24" fill="none" xmlns="http://www.w3.org/2000/svg">
<path fill-rule="evenodd" clip-rule="evenodd" d="M19.1719 20.9961L20.3848 22.209L21.799 20.7948L3.41421 2.41003L2 3.82425L3 4.82425V6.99612H5V16.9961H3V18.9961H5V20.9961H7V18.9961H17V20.9961H19.1719ZM15.1719 16.9961L13.1719 14.9961H10C9.44772 14.9961 9 14.5484 9 13.9961V10.8242L7 8.82425V16.9961H15.1719Z" fill="#696F88"/>
<path d="M19 6.99612V15.1676L17 13.1676V6.99612H10.8285L8.82855 4.99612H17V2.99612H19V4.99612H21V6.99612H19Z" fill="#696F88"/>
<path d="M15 9.99612V11.1676L12.8285 8.99612H14C14.5523 8.99612 15 9.44384 15 9.99612Z" fill="#696F88"/>
</svg>
