<svg preserveAspectRatio="none" width="100%" height="100%" overflow="visible" style="display: block;" viewBox="0 0 20 20" fill="none" xmlns="http://www.w3.org/2000/svg">
<g id="Vector">
<path d="M17.026 14.3242L20 15.6763L17.026 17.0273L15.675 20L14.3241 17.0273L11.3512 15.6763L14.3241 14.3242L15.675 11.3515L17.026 14.3242Z" fill="var(--fill-0, #696F88)"/>
<path d="M17.2969 0C15.8575 3.53978 15.3117 6.63431 14.6089 9.18909L12.6138 8.28111C12.7378 7.81392 12.8635 7.30957 12.9975 6.76277C13.2798 5.61082 13.5913 4.31992 14.002 2.92158C12.2937 3.32083 10.771 3.7325 9.4259 4.18764C7.16558 4.95252 5.54524 5.79383 4.42311 6.77556C3.34981 7.71478 2.66777 8.83647 2.35596 10.3447C2.11299 11.5204 2.0947 13.1171 2.35596 14.9705C3.08302 14.8795 3.77447 14.811 4.41846 14.7485L4.51496 14.7392C5.65491 14.6286 6.60134 14.5367 7.45176 14.3811L8.37372 16.2669C6.18253 16.7564 3.5517 16.7331 0.595739 17.2981L0.480639 16.7424C-1.83089 5.2163 4.26306 2.62218 17.2969 0Z" fill="var(--fill-0, #696F88)"/>
<path d="M10.7466 9.69017L12.9766 10.7028L10.7466 11.7166L9.73283 13.9464L8.72018 11.7166L6.49026 10.7028L8.72018 9.69017L9.73283 7.46033L10.7466 9.69017Z" fill="var(--fill-0, #696F88)"/>
</g>
</svg>
