<svg width="24" height="24" viewBox="0 0 24 24" fill="none" xmlns="http://www.w3.org/2000/svg">
<path fill-rule="evenodd" clip-rule="evenodd" d="M11.7622 9.2355L11.7591 9.23499C11.0639 9.12197 9.89573 9 8 9C6.10427 9 4.93613 9.12197 4.24094 9.23499L4.23779 9.2355L4.22612 9.31769C4.11244 10.1178 4 11.542 4 14C4 16.458 4.11244 17.8822 4.22612 18.6823L4.24098 18.7869C4.90758 18.8915 6.06387 19 8 19C9.93613 19 11.0924 18.8915 11.759 18.7869L11.7739 18.6823C11.8876 17.8822 12 16.458 12 14C12 11.542 11.8876 10.1178 11.7739 9.31769L11.7622 9.2355ZM2.246 9.03636C2.114 9.96545 2 11.4927 2 14C2 16.5073 2.114 18.0345 2.246 18.9636C2.09 19.18 2 19.4409 2 19.7273C2 20.4273 2.54 21 3.2 21C3.464 21 3.704 20.9045 3.902 20.7582C4.7 20.8855 5.972 21 8 21C10.028 21 11.3 20.8855 12.098 20.7582C12.296 20.9045 12.536 21 12.8 21C13.46 21 14 20.4273 14 19.7273C14 19.4409 13.91 19.18 13.754 18.9636C13.886 18.0345 14 16.5073 14 14C14 11.4927 13.886 9.96545 13.754 9.03636C13.91 8.82 14 8.55909 14 8.27273C14 7.57273 13.46 7 12.8 7C12.53 7 12.278 7.10182 12.08 7.26091C11.258 7.12727 9.98 7 8 7C6.02 7 4.742 7.12727 3.92 7.26091C3.722 7.10182 3.47 7 3.2 7C2.54 7 2 7.57273 2 8.27273C2 8.55909 2.09 8.82 2.246 9.03636Z" fill="#696F88"/>
<path fill-rule="evenodd" clip-rule="evenodd" d="M18.1302 5.31132L18.6164 5.38754L18.6934 5.90971C18.8497 6.97067 19 8.82749 19 12C19 15.1725 18.8497 17.0293 18.6934 18.0903L18.612 18.6428L18.16 18.7123C17.3221 18.8412 15.9559 18.9705 13.7764 18.9956C13.9186 19.2055 14 19.4549 14 19.7273C14 20.4194 13.472 20.9872 12.8221 20.9998C12.8809 20.9999 12.9402 21 13 21C15.704 21 17.4 20.8527 18.464 20.6891C18.728 20.8773 19.048 21 19.4 21C20.28 21 21 20.2636 21 19.3636C21 18.9955 20.88 18.66 20.672 18.3818C20.848 17.1873 21 15.2236 21 12C21 8.77636 20.848 6.81273 20.672 5.61818C20.88 5.34 21 5.00455 21 4.63636C21 3.73636 20.28 3 19.4 3C19.04 3 18.704 3.13091 18.44 3.33545C17.344 3.16364 15.64 3 13 3C10.36 3 8.656 3.16364 7.56 3.33545C7.296 3.13091 6.96 3 6.6 3C5.72 3 5 3.73636 5 4.63636C5 5.00455 5.12 5.34 5.328 5.61818C5.2686 6.02135 5.21193 6.51213 5.16292 7.1094C5.71579 7.06072 6.38048 7.02319 7.17916 7.00772C7.21902 6.57078 7.26259 6.20865 7.30664 5.90971L7.38357 5.38754L7.86975 5.31132C8.84322 5.15871 10.4412 5 13 5C15.5588 5 17.1568 5.15871 18.1302 5.31132ZM6.28841 20.9686C6.38926 20.9892 6.49346 21 6.6 21C6.67096 21 6.74061 20.995 6.80877 20.9855C6.62771 20.9809 6.45436 20.9752 6.28841 20.9686ZM10.2824 20.941C10.9946 20.9751 11.8187 20.9967 12.7722 20.9996C12.5192 20.9932 12.289 20.8994 12.098 20.7582C11.655 20.8288 11.0658 20.8956 10.2824 20.941Z" fill="#696F88"/>
</svg>
