<svg width="24" height="24" viewBox="0 0 24 24" fill="none" xmlns="http://www.w3.org/2000/svg">
<path d="M10.3739 2.68965C10.2192 3.16764 10.0281 3.82143 9.92661 4.40977C9.90932 4.50995 9.89695 4.61871 9.88918 4.73061L9.85363 4.70808C9.49707 4.48257 9.18768 4.0962 9.18768 4.0962C9.18768 4.0962 9.20772 4.64065 9.17971 5.07625C9.14699 5.58498 9.12186 6.27513 9.16667 6.87663C9.19787 7.29553 9.34254 7.83149 9.48964 8.12748C9.88707 8.9272 10.5418 9.44443 11.143 9.50572C11.1588 9.58068 11.1747 9.65785 11.1905 9.73716C11.3266 10.4167 11.4626 11.2497 11.555 12.1922C10.9373 11.1046 10.1169 10.302 9.71172 9.98987C8.82986 9.30202 7.81454 9.01049 6.81699 9.08048L7.33001 9.83535L6.83123 9.87034C6.87794 10.536 7.25486 10.9475 7.41799 11.0892C7.89784 11.5062 8.47194 11.7046 9.10403 11.9232C9.87821 12.1908 10.7394 12.4885 11.6209 13.2545L11.6358 13.2479C11.6586 13.6641 11.6714 14.096 11.6714 14.5407L11.6712 15.9304C10.8959 14.8313 9.98514 14.045 9.52097 13.7283C8.41996 12.9675 7.18688 12.6893 6 12.8418L6.665 13.7082L6.07156 13.7844C6.17332 14.5764 6.65202 15.042 6.85669 15.2001C7.45873 15.665 8.15828 15.8625 8.9285 16.0799L8.9285 16.0799C9.77003 16.3174 10.6959 16.5788 11.6711 17.2388L11.6711 19.4556C11.2843 18.7993 10.8395 18.3412 10.5826 18.14C9.85255 17.5593 8.94378 17.389 8.00229 17.5764L8.37857 18.2673L7.90782 18.3611C7.86063 19.0182 8.15661 19.3834 8.28967 19.5053C8.68108 19.8637 9.19034 19.9935 9.75104 20.1364C10.3589 20.2914 11.0271 20.4618 11.6712 20.9554L11.6713 21.8534L11.6713 22.0002L13.6713 22L13.6713 21.8532L13.6712 21.1484C14.2207 20.6121 14.7883 20.3068 15.308 20.0272C15.8243 19.7495 16.2933 19.4972 16.65 19.0691C16.7713 18.9236 17.0398 18.5146 16.9868 17.932L16.5503 17.9717L16.8884 17.2465C16.0153 17.3258 15.1776 17.7205 14.5109 18.4395C14.3088 18.6548 13.9808 19.0794 13.6711 19.6379L13.6712 16.8765C14.3958 16.4533 15.0822 16.2686 15.7123 16.099L15.7123 16.099C16.3581 15.9252 16.9446 15.7673 17.4525 15.3849C17.6251 15.2549 18.0298 14.8707 18.1229 14.21L17.6278 14.1402L18.1923 13.4231C17.2021 13.2835 16.1689 13.5034 15.2411 14.128C14.8986 14.3556 14.2659 14.8809 13.6712 15.6198L13.6714 14.5409C13.6714 14.0262 13.6556 13.5275 13.6277 13.0489C14.2568 12.128 14.9814 11.6257 15.6348 11.1728C16.1844 10.7918 16.6837 10.4457 17.0332 9.91474C17.152 9.73424 17.4039 9.23625 17.2692 8.58271L16.7795 8.68364L17.0697 7.81832C16.0903 8.02017 15.1913 8.57492 14.5279 9.47525C14.2678 9.82371 13.8145 10.5944 13.4994 11.5634C13.4031 10.7215 13.2773 9.97225 13.1516 9.34446C13.1363 9.26808 13.121 9.19346 13.1058 9.12065C13.7246 8.89804 14.194 8.08136 14.219 7.07901C14.2272 6.74859 14.1318 6.20169 13.9831 5.80886C13.7695 5.24478 13.455 4.62991 13.2104 4.18268C13.0009 3.79972 12.789 3.29781 12.789 3.29781C12.789 3.29781 12.6719 3.77874 12.444 4.13381L12.4213 4.16926C12.367 4.07112 12.3098 3.97777 12.2518 3.89429C11.9111 3.40398 11.4616 2.8922 11.1195 2.52437C10.8264 2.20941 10.6121 2 10.6121 2C10.6121 2 10.5063 2.28037 10.3739 2.68965Z" fill="#696F88"/>
</svg>
