<svg preserveAspectRatio="none" width="100%" height="100%" overflow="visible" style="display: block;" viewBox="0 0 22 23" fill="none" xmlns="http://www.w3.org/2000/svg">
<g id="vector">
<path fill-rule="evenodd" clip-rule="evenodd" d="M18 1.90909H17V0H15V1.90909H5V0H3V1.90909H2C0.9 1.90909 0 2.76818 0 3.81818V19.0909C0 20.1409 0.9 21 2 21H9V19H2V9H18V10H20V3.81818C20 2.76818 19.1 1.90909 18 1.90909ZM18 21V22C19.1046 22 20 21.1046 20 20V19.0909C20 20.1409 19.1 21 18 21ZM2 7H18V4H2V7Z" fill="var(--fill-0, #696F88)"/>
<path fill-rule="evenodd" clip-rule="evenodd" d="M16 21C18.2091 21 20 19.2091 20 17C20 14.7909 18.2091 13 16 13C13.7909 13 12 14.7909 12 17C12 19.2091 13.7909 21 16 21ZM16 23C19.3137 23 22 20.3137 22 17C22 13.6863 19.3137 11 16 11C12.6863 11 10 13.6863 10 17C10 20.3137 12.6863 23 16 23Z" fill="var(--fill-0, #696F88)"/>
<path fill-rule="evenodd" clip-rule="evenodd" d="M16.5 14.5V16.5H18V18.5H14.5V14.5H16.5Z" fill="var(--fill-0, #696F88)"/>
</g>
</svg>
