<svg width="24" height="24" viewBox="0 0 24 24" fill="none" xmlns="http://www.w3.org/2000/svg">
<path fill-rule="evenodd" clip-rule="evenodd" d="M3 6.5L2 5.5L3.35355 4.14645C3.44732 4.05268 3.5745 4 3.70711 4H12C12.2761 4 12.5 4.22386 12.5 4.5V6.20847L14 6H15V7H19.5C19.992 7 20.3393 7.48197 20.1838 7.94868L20 8.5L18.8516 12.5H18.8462L18.5 14H15.8281C15.38 13.4589 14.7351 12.9909 14 12.6755C13.3766 12.4079 12.6883 12.25 12 12.25C8.5 12.25 7.25 15.0609 7.25 16.35C6.5 15.45 5.6 15.15 4.5 15.15C3.3 15.15 2.5 15.9 2.5 15.9L2.05888 14.2237C2.02014 14.0765 2.01552 13.9224 2.04537 13.7731L2.91961 9.40194C2.96635 9.16823 3.17156 9 3.4099 9H6.80469V7.87063C6.80469 7.37154 7.17269 6.94886 7.66703 6.88015L11 6.41694V5.75C11 5.61193 10.8881 5.5 10.75 5.5H4.20711C4.0745 5.5 3.94732 5.55268 3.85355 5.64645L3 6.5ZM18.4394 8.5L17.7216 11H15.5V8.5H18.4394Z" fill="#696F88"/>
<path fill-rule="evenodd" clip-rule="evenodd" d="M15.064 16.056L14.92 15.68L15.664 15.4C15.296 14.552 14.64 13.872 13.816 13.456L13.496 14.168L13.128 14L13.448 13.28C13.008 13.104 12.512 13 12 13C11.576 13 11.168 13.088 10.784 13.208L11.056 13.936L10.68 14.08L10.4 13.336C9.552 13.704 8.872 14.36 8.456 15.184L9.168 15.504L9 15.872L8.28 15.552C8.104 15.992 8 16.488 8 17C8 17.424 8.088 17.832 8.208 18.216L8.936 17.944L9.08 18.32L8.336 18.6C8.704 19.448 9.36 20.128 10.184 20.544L10.504 19.832L10.872 20L10.552 20.72C10.992 20.896 11.488 21 12 21C12.424 21 12.832 20.912 13.216 20.792L12.944 20.064L13.32 19.92L13.6 20.664C14.448 20.296 15.128 19.64 15.544 18.816L14.832 18.496L15 18.128L15.72 18.448C15.896 18.008 16 17.512 16 17C16 16.576 15.912 16.168 15.792 15.784L15.064 16.056ZM12.92 19.216C11.696 19.72 10.288 19.144 9.784 17.92C9.28 16.696 9.856 15.288 11.08 14.784C12.304 14.28 13.712 14.856 14.216 16.08C14.728 17.304 14.144 18.712 12.92 19.216Z" fill="#696F88"/>
<path d="M18 15H17.5V20C17.5 20.2761 17.7239 20.5 18 20.5H22L18 15Z" fill="#696F88"/>
<path fill-rule="evenodd" clip-rule="evenodd" d="M2.25 18.5C2.25 17.1214 3.37143 16 4.75 16C6.12857 16 7.25 17.1214 7.25 18.5C7.25 19.8786 6.12857 21 4.75 21C3.37143 21 2.25 19.8786 2.25 18.5ZM3.67857 18.5C3.67857 19.0929 4.15714 19.5714 4.75 19.5714C5.34286 19.5714 5.82143 19.0929 5.82143 18.5C5.82143 17.9071 5.34286 17.4286 4.75 17.4286C4.15714 17.4286 3.67857 17.9071 3.67857 18.5Z" fill="#696F88"/>
</svg>
