<svg width="24" height="24" viewBox="0 0 24 24" fill="none" xmlns="http://www.w3.org/2000/svg">
<path fill-rule="evenodd" clip-rule="evenodd" d="M11.3079 2.1782C11.6948 1.8073 12.3052 1.8073 12.6921 2.1782C13.7365 3.17962 14.9925 4.68275 15 6.49588C15 6.49864 15 6.50141 15 6.50417C14.9925 8.3173 13.7365 9.82043 12.6921 10.8219C12.3052 11.1927 11.6948 11.1927 11.3079 10.8219C10.2634 9.82043 9.00752 8.3173 9 6.50417C8.99999 6.50141 8.99999 6.49864 9 6.49588C9.00752 4.68275 10.2634 3.17962 11.3079 2.1782ZM11 6.50003C11.0044 7.1913 11.3874 7.92032 12 8.64645C12.6126 7.92032 12.9956 7.1913 13 6.50002C12.9956 5.80875 12.6126 5.07973 12 4.3536C11.3874 5.07973 11.0044 5.80875 11 6.50003Z" fill="#696F88"/>
<path fill-rule="evenodd" clip-rule="evenodd" d="M5.91443 7.8334C5.9257 7.2976 6.35736 6.86594 6.89317 6.85466C8.33983 6.82422 10.2908 6.99902 11.5782 8.27578C11.5801 8.27772 11.5821 8.27968 11.584 8.28164C12.8608 9.56904 13.0356 11.52 13.0052 12.9666C12.9939 13.5025 12.5622 13.9341 12.0264 13.9454C10.5798 13.9758 8.6288 13.801 7.34141 12.5243C7.33945 12.5223 7.33749 12.5204 7.33554 12.5184C6.05878 11.231 5.88399 9.28006 5.91443 7.8334ZM8.75269 11.1071C9.2446 11.5928 10.0309 11.8375 10.9775 11.9178C10.8973 10.9711 10.6526 10.1848 10.1669 9.69293C9.67498 9.20722 8.88867 8.96254 7.94204 8.88227C8.02231 9.82891 8.26699 10.6152 8.75269 11.1071Z" fill="#696F88"/>
<path fill-rule="evenodd" clip-rule="evenodd" d="M18.0856 7.8334C18.0743 7.2976 17.6426 6.86594 17.1068 6.85466C15.6602 6.82422 13.7092 6.99902 12.4218 8.27578C12.4199 8.27772 12.4179 8.27968 12.4159 8.28164C11.1392 9.56904 10.9644 11.52 10.9948 12.9666C11.0061 13.5025 11.4378 13.9341 11.9736 13.9454C13.4202 13.9758 15.3712 13.801 16.6586 12.5243C16.6605 12.5223 16.6625 12.5204 16.6644 12.5184C17.9412 11.231 18.116 9.28006 18.0856 7.8334ZM15.2473 11.1071C14.7554 11.5928 13.9691 11.8375 13.0224 11.9178C13.1027 10.9711 13.3474 10.1848 13.8331 9.69293C14.325 9.20722 15.1113 8.96254 16.0579 8.88227C15.9777 9.82891 15.733 10.6152 15.2473 11.1071Z" fill="#696F88"/>
<path fill-rule="evenodd" clip-rule="evenodd" d="M5.91443 12.3334C5.9257 11.7976 6.35736 11.3659 6.89317 11.3547C8.33983 11.3242 10.2908 11.499 11.5782 12.7758C11.5801 12.7777 11.5821 12.7797 11.584 12.7816C12.8608 14.069 13.0356 16.02 13.0052 17.4666C12.9939 18.0025 12.5622 18.4341 12.0264 18.4454C10.5798 18.4758 8.6288 18.301 7.34141 17.0243C7.33945 17.0223 7.33749 17.0204 7.33554 17.0184C6.05878 15.731 5.88399 13.7801 5.91443 12.3334ZM8.75269 15.6071C9.2446 16.0928 10.0309 16.3375 10.9775 16.4178C10.8973 15.4711 10.6526 14.6848 10.1669 14.1929C9.67498 13.7072 8.88867 13.4625 7.94204 13.3823C8.02231 14.3289 8.26699 15.1152 8.75269 15.6071Z" fill="#696F88"/>
<path fill-rule="evenodd" clip-rule="evenodd" d="M18.0856 12.3334C18.0743 11.7976 17.6426 11.3659 17.1068 11.3547C15.6602 11.3242 13.7092 11.499 12.4218 12.7758C12.4199 12.7777 12.4179 12.7797 12.4159 12.7816C11.1392 14.069 10.9644 16.02 10.9948 17.4666C11.0061 18.0025 11.4378 18.4341 11.9736 18.4454C13.4202 18.4758 15.3712 18.301 16.6586 17.0243C16.6605 17.0223 16.6625 17.0204 16.6644 17.0184C17.9412 15.731 18.116 13.7801 18.0856 12.3334ZM15.2473 15.6071C14.7554 16.0928 13.9691 16.3375 13.0224 16.4178C13.1027 15.4711 13.3474 14.6848 13.8331 14.1929C14.325 13.7072 15.1113 13.4625 16.0579 13.3823C15.9777 14.3289 15.733 15.1152 15.2473 15.6071Z" fill="#696F88"/>
<path fill-rule="evenodd" clip-rule="evenodd" d="M12 22.05C11.4477 22.05 11 21.6023 11 21.05V11.9C11 11.3477 11.4477 10.9 12 10.9C12.5523 10.9 13 11.3477 13 11.9V21.05C13 21.6023 12.5523 22.05 12 22.05Z" fill="#696F88"/>
</svg>
