<svg width="24" height="24" viewBox="0 0 24 24" fill="none" xmlns="http://www.w3.org/2000/svg">
<path fill-rule="evenodd" clip-rule="evenodd" d="M8.55932 11.7402C8.11821 11.8875 8.11859 11.8886 8.11859 11.8886L8.11914 11.8903L8.12077 11.8951L8.12614 11.9105C8.13065 11.9233 8.13706 11.9411 8.14535 11.9634C8.16192 12.0079 8.18613 12.0702 8.21801 12.1458C8.28151 12.2965 8.37676 12.5026 8.50443 12.7258C8.75083 13.1566 9.15645 13.7195 9.74604 14.015C10.3083 14.2969 10.9768 14.3559 11.4657 14.356C11.5913 14.356 11.7088 14.3521 11.8146 14.3463V15.9756H12.7447V12.2301C12.866 12.228 13.0033 12.2198 13.151 12.2014C13.6762 12.1359 14.3701 11.9351 14.9337 11.3715C15.4893 10.816 15.7482 10.076 15.8727 9.51533C15.9362 9.2294 15.9678 8.97589 15.9837 8.79312C15.9917 8.70145 15.9958 8.6268 15.9978 8.57384C15.9989 8.54734 15.9994 8.52621 15.9997 8.51102L16 8.49276L16 8.4871L16 8.48516L16 8.4841L15.535 8.48382C15.5924 8.02233 15.5908 8.02214 15.5908 8.02214L15.5885 8.02187L15.582 8.02111L15.561 8.01886C15.5435 8.01708 15.5193 8.01481 15.4889 8.01248C15.4283 8.00781 15.3429 8.00282 15.2385 8.00086C15.0305 7.99696 14.742 8.00499 14.4195 8.05344C13.7867 8.14853 12.9523 8.41065 12.3817 9.12322C11.8396 9.80016 11.6984 10.4895 11.6984 11.0123C11.6984 11.2713 11.7328 11.4883 11.7682 11.6431C11.7843 11.7139 11.8008 11.7724 11.8146 11.8166V11.9069C11.6249 11.7006 11.3969 11.5054 11.1238 11.3416C10.4156 10.9167 9.70796 10.9201 9.19476 11.0227C8.93865 11.0739 8.72587 11.1505 8.57597 11.2147C8.50068 11.247 8.44024 11.2766 8.39702 11.299C8.37537 11.3103 8.35796 11.3198 8.34506 11.327L8.3291 11.3361L8.32371 11.3393L8.32167 11.3405L8.32043 11.3412L8 11.5335L8.11821 11.8875L8.55932 11.7402ZM13.1077 9.70459C13.4671 9.25573 14.0279 9.05281 14.5577 8.97321C14.7309 8.94718 14.8933 8.93556 15.0327 8.93168C15.0172 9.04576 14.9954 9.17536 14.9647 9.31367C14.8567 9.79995 14.6505 10.3394 14.2761 10.7138C13.9096 11.0803 13.4408 11.228 13.0359 11.2785C12.8909 11.2966 12.7587 11.3015 12.6495 11.3005C12.6374 11.2185 12.6284 11.1212 12.6284 11.0123C12.6284 10.6627 12.7197 10.1891 13.1077 9.70459ZM16 8.4841C16 8.4841 16 8.48382 15.535 8.48382L15.5924 8.02233L16 8.07303V8.4841ZM8.55932 11.7402L8.32043 11.3412C8.32043 11.3412 8.32007 11.3415 8.55932 11.7402ZM11.5967 13.2449C11.6253 13.3062 11.6506 13.3655 11.6729 13.4219C11.6077 13.4244 11.5383 13.4259 11.466 13.4259C11.0248 13.4258 10.5306 13.3679 10.1628 13.1836C9.82236 13.0129 9.53041 12.6462 9.31176 12.264C9.25618 12.1668 9.20781 12.0731 9.16678 11.9878C9.23086 11.9682 9.30139 11.9499 9.37713 11.9347C9.73589 11.863 10.1908 11.8664 10.6453 12.1391C11.1202 12.424 11.4166 12.8591 11.5967 13.2449Z" fill="#696F88"/>
<path fill-rule="evenodd" clip-rule="evenodd" d="M4 5L12 2L20 5V11.09C20 16.14 16.59 20.85 12 22C7.41 20.85 4 16.14 4 11.09V5ZM12 19.92C15.45 18.79 18 15.09 18 11.09V6.39L12 4.14L6 6.39V11.09C6 15.1 8.55 18.79 12 19.92Z" fill="#696F88"/>
</svg>
