<svg width="24" height="24" viewBox="0 0 24 24" fill="none" xmlns="http://www.w3.org/2000/svg">
<path fill-rule="evenodd" clip-rule="evenodd" d="M4.77207 13.6838C4.90819 13.2754 5.29033 13 5.72076 13H17.8159C18.2283 13 18.5985 13.2532 18.7479 13.6376L21.4702 20.6376C21.7251 21.2931 21.2415 22 20.5382 22H3.38743C2.70487 22 2.2229 21.3313 2.43874 20.6838L4.77207 13.6838ZM17 15H6.5L5 20H19L17 15Z" fill="#696F88"/>
<path d="M11 17.3002H13V10.1463L11.918 10.1461L11 10.0469V17.3002Z" fill="#696F88"/>
<path fill-rule="evenodd" clip-rule="evenodd" d="M7.96259 5.05161C9.04647 5.14825 10.0726 5.4754 10.6482 6.1941C11.3213 7.03453 11.6609 8.21217 11.8168 9.26879C11.8652 9.59702 11.8942 9.90153 11.9113 10.1637C11.727 10.1589 11.5216 10.1455 11.3025 10.1182C10.4319 10.0096 9.42387 9.69203 8.63582 8.90405C7.83057 8.09887 7.3872 6.9389 7.15496 5.89323C7.08448 5.5759 7.03582 5.2799 7.00227 5.02299C7.28625 5.01569 7.61514 5.02063 7.96259 5.05161ZM11.9234 10.1573C11.9715 10.0361 12.0259 9.90847 12.0874 9.77667C12.4745 8.94719 13.112 8.01158 14.1332 7.39885C15.1104 6.81254 16.0887 6.80511 16.8602 6.95936C17.023 6.99193 17.1747 7.03144 17.3125 7.07345C17.2243 7.25688 17.1203 7.45851 17.0007 7.66746C16.5306 8.48939 15.9028 9.27776 15.1706 9.6448C14.3798 10.0412 13.3172 10.1657 12.3685 10.1659C12.2129 10.166 12.0638 10.1627 11.9234 10.1573Z" fill="#696F88"/>
</svg>
