<svg preserveAspectRatio="none" width="100%" height="100%" overflow="visible" style="display: block;" viewBox="0 0 21.0006 21" fill="none" xmlns="http://www.w3.org/2000/svg">
<g id="vector">
<path d="M17.3006 7.3L15.0006 5H21.0006V11L18.7006 8.7L14.0006 13.4L7.10058 14.9L2.00039 21L0.400391 19.8L5.90059 13.1L13.0006 11.6L17.3006 7.3Z" fill="var(--fill-0, #696F88)"/>
<path d="M10 18H8V21H10V18Z" fill="var(--fill-0, #696F88)"/>
<path d="M20 13H18V21H20V13Z" fill="var(--fill-0, #696F88)"/>
<path d="M13 16H15V21H13V16Z" fill="var(--fill-0, #696F88)"/>
<path fill-rule="evenodd" clip-rule="evenodd" d="M5.5 0L0 10H11L5.5 0ZM6 8H5V7H6V8ZM5 6V4H6V6H5Z" fill="var(--fill-0, #696F88)"/>
</g>
</svg>
