<svg width="24" height="24" viewBox="0 0 24 24" fill="none" xmlns="http://www.w3.org/2000/svg">
<path fill-rule="evenodd" clip-rule="evenodd" d="M9 6C9 7.21801 8.27414 8.26648 7.23139 8.73645L7.76147 15.0974C7.51828 15.0338 7.26305 14.9999 6.99991 14.9999C6.56101 14.9999 6.14412 15.0942 5.76838 15.2635L5.23829 8.90245C3.95031 8.56536 3 7.39366 3 6C3 4.34315 4.34315 3 6 3C7.65685 3 9 4.34315 9 6ZM7 21C8.40159 21 9.57869 20.0388 9.90812 18.7397L15.2729 18.252C15.0976 17.8709 14.9999 17.4468 14.9999 16.9999C14.9999 16.7446 15.0318 16.4968 15.0918 16.2602L9.72702 16.7479C9.25257 15.7163 8.20993 15 7 15C5.34315 15 4 16.3431 4 18C4 19.6569 5.34315 21 7 21ZM21 17C21 18.6569 19.6569 20 18 20C16.3431 20 15 18.6569 15 17C15 15.3431 16.3431 14 18 14C19.6569 14 21 15.3431 21 17ZM21 7C21 8.30626 20.1651 9.41754 18.9999 9.82934V14.1706C18.6871 14.0601 18.3505 13.9999 17.9999 13.9999C17.6493 13.9999 17.3127 14.0601 16.9999 14.1706V9.82925C15.8347 9.41738 15 8.30617 15 7C15 5.34315 16.3431 4 18 4C19.6569 4 21 5.34315 21 7ZM9.40039 7.24593L11.0671 7.4126L11.2661 5.42253L9.5994 5.25586L9.40039 7.24593ZM12.7337 7.57927L14.4004 7.74593L14.5994 5.75586L12.9327 5.58919L12.7337 7.57927ZM8 18C8 18.5523 7.55228 19 7 19C6.44772 19 6 18.5523 6 18C6 17.4477 6.44772 17 7 17C7.55228 17 8 17.4477 8 18ZM6 7C6.55228 7 7 6.55228 7 6C7 5.44772 6.55228 5 6 5C5.44772 5 5 5.44772 5 6C5 6.55228 5.44772 7 6 7ZM19 7C19 7.55228 18.5523 8 18 8C17.4477 8 17 7.55228 17 7C17 6.44772 17.4477 6 18 6C18.5523 6 19 6.44772 19 7ZM18 18C18.5523 18 19 17.5523 19 17C19 16.4477 18.5523 16 18 16C17.4477 16 17 16.4477 17 17C17 17.5523 17.4477 18 18 18Z" fill="#696F88"/>
</svg>
