<svg width="24" height="24" viewBox="0 0 24 24" fill="none" xmlns="http://www.w3.org/2000/svg">
<path fill-rule="evenodd" clip-rule="evenodd" d="M3.81818 7.29936C2.75892 6.92496 2 5.91474 2 4.72727C2 3.22104 3.22104 2 4.72727 2C5.91474 2 6.92496 2.75892 7.29936 3.81818H16.7006C17.075 2.75892 18.0853 2 19.2727 2C20.779 2 22 3.22104 22 4.72727C22 5.91474 21.2411 6.92496 20.1818 7.29936V16.7006C21.2411 17.075 22 18.0853 22 19.2727C22 20.779 20.779 22 19.2727 22C18.0853 22 17.075 21.2411 16.7006 20.1818H7.29936C6.92496 21.2411 5.91474 22 4.72727 22C3.22104 22 2 20.779 2 19.2727C2 18.0853 2.75892 17.075 3.81818 16.7006V7.29936ZM3.81818 4.72727C3.81818 5.22935 4.2252 5.63636 4.72727 5.63636C5.22935 5.63636 5.63636 5.22935 5.63636 4.72727C5.63636 4.2252 5.22935 3.81818 4.72727 3.81818C4.2252 3.81818 3.81818 4.2252 3.81818 4.72727ZM5.63636 16.7006C6.41129 16.9745 7.02546 17.5887 7.29936 18.3636H16.7006C16.9745 17.5887 17.5887 16.9745 18.3636 16.7006V7.29936C17.5887 7.02546 16.9745 6.41129 16.7006 5.63636H7.29936C7.02546 6.41128 6.41128 7.02546 5.63636 7.29936V16.7006ZM3.81818 19.2727C3.81818 19.7748 4.2252 20.1818 4.72727 20.1818C5.22935 20.1818 5.63636 19.7748 5.63636 19.2727C5.63636 18.7707 5.22935 18.3636 4.72727 18.3636C4.2252 18.3636 3.81818 18.7707 3.81818 19.2727ZM19.2727 5.63636C18.7707 5.63636 18.3636 5.22935 18.3636 4.72727C18.3636 4.2252 18.7707 3.81818 19.2727 3.81818C19.7748 3.81818 20.1818 4.2252 20.1818 4.72727C20.1818 5.22935 19.7748 5.63636 19.2727 5.63636ZM18.3636 19.2727C18.3636 19.7748 18.7707 20.1818 19.2727 20.1818C19.7748 20.1818 20.1818 19.7748 20.1818 19.2727C20.1818 18.7707 19.7748 18.3636 19.2727 18.3636C18.7707 18.3636 18.3636 18.7707 18.3636 19.2727Z" fill="#696F88"/>
<path d="M11.6958 16.5455C11.5832 16.5455 11.4874 16.5114 11.4086 16.4433C11.341 16.3639 11.3072 16.2674 11.3072 16.1539V12.6129H7.84319C7.73054 12.6129 7.63479 12.5788 7.55593 12.5107C7.48834 12.4313 7.45455 12.3348 7.45455 12.2213V11.6765C7.45455 11.563 7.48834 11.4723 7.55593 11.4042C7.63479 11.3247 7.73054 11.285 7.84319 11.285H11.3072V7.8461C11.3072 7.73261 11.341 7.64181 11.4086 7.57372C11.4874 7.49427 11.5832 7.45455 11.6958 7.45455H12.2873C12.3999 7.45455 12.49 7.49427 12.5576 7.57372C12.6365 7.64181 12.6759 7.73261 12.6759 7.8461V11.285H16.1568C16.2695 11.285 16.3596 11.3247 16.4272 11.4042C16.506 11.4723 16.5455 11.563 16.5455 11.6765V12.2213C16.5455 12.3348 16.506 12.4313 16.4272 12.5107C16.3596 12.5788 16.2695 12.6129 16.1568 12.6129H12.6759V16.1539C12.6759 16.2674 12.6365 16.3639 12.5576 16.4433C12.49 16.5114 12.3999 16.5455 12.2873 16.5455H11.6958Z" fill="#696F88"/>
</svg>
