<svg width="24" height="24" viewBox="0 0 24 24" fill="none" xmlns="http://www.w3.org/2000/svg">
<path fill-rule="evenodd" clip-rule="evenodd" d="M14.5568 6.57007C14.0289 7.42799 13.0812 8 12 8C10.3431 8 9 6.65685 9 5C9 3.34315 10.3431 2 12 2C13.5104 2 14.7601 3.11617 14.9692 4.56865C16.9989 5.38065 18.6182 7.00014 19.43 9.0299C19.2893 9.00967 19.1455 8.9992 18.9992 8.9992C18.4235 8.9992 17.8856 9.16138 17.4288 9.44256C16.8349 8.18342 15.8159 7.16422 14.5568 6.57007ZM14.9695 19.4296C14.761 20.883 13.511 22 12 22C10.3431 22 9 20.6569 9 19C9 17.3431 10.3431 16 12 16C13.0807 16 14.028 16.5715 14.5561 17.4287C15.8154 16.8346 16.8346 15.8154 17.4287 14.5561C16.5715 14.028 16 13.0807 16 12C16 10.3431 17.3431 9 19 9C20.6569 9 22 10.3431 22 12C22 13.511 20.883 14.761 19.4296 14.9695C18.6177 16.9987 16.9987 18.6177 14.9695 19.4296ZM6.57007 14.5568C7.42799 14.0289 8 13.0812 8 12C8 10.3431 6.65685 9 5 9C3.34315 9 2 10.3431 2 12C2 13.5104 3.11617 14.7601 4.56865 14.9692C5.38065 16.9989 7.00014 18.6182 9.0299 19.43C9.00967 19.2893 8.9992 19.1455 8.9992 18.9992C8.9992 18.4235 9.16138 17.8856 9.44256 17.4288C8.18342 16.8349 7.16422 15.8159 6.57007 14.5568ZM4.9992 8.9992C4.8529 8.9992 4.70905 9.00967 4.56836 9.0299C5.38026 6.9999 6.9999 5.38026 9.0299 4.56836C9.00967 4.70905 8.9992 4.8529 8.9992 4.9992C8.9992 5.57494 9.16138 6.11281 9.44256 6.5696C8.18309 7.16368 7.16368 8.18309 6.5696 9.44256C6.11281 9.16138 5.57494 8.9992 4.9992 8.9992ZM13 5C13 5.55228 12.5523 6 12 6C11.4477 6 11 5.55228 11 5C11 4.44772 11.4477 4 12 4C12.5523 4 13 4.44772 13 5ZM5 13C5.55228 13 6 12.5523 6 12C6 11.4477 5.55228 11 5 11C4.44772 11 4 11.4477 4 12C4 12.5523 4.44772 13 5 13ZM13 19C13 19.5523 12.5523 20 12 20C11.4477 20 11 19.5523 11 19C11 18.4477 11.4477 18 12 18C12.5523 18 13 18.4477 13 19ZM19 13C19.5523 13 20 12.5523 20 12C20 11.4477 19.5523 11 19 11C18.4477 11 18 11.4477 18 12C18 12.5523 18.4477 13 19 13Z" fill="#696F88"/>
</svg>
