<svg preserveAspectRatio="none" width="100%" height="100%" overflow="visible" style="display: block;" viewBox="0 0 20 20" fill="none" xmlns="http://www.w3.org/2000/svg">
<g id="vector">
<path fill-rule="evenodd" clip-rule="evenodd" d="M2.00006 4.90162C2.00642 5.57704 2.51867 6 3 6C3.48133 6 3.99358 5.57704 3.99994 4.90162C3.99922 4.89436 3.99701 4.87407 3.99094 4.83995C3.98022 4.77967 3.96167 4.70005 3.93381 4.60819C3.87493 4.41401 3.79831 4.24267 3.73551 4.13767C3.53564 3.80348 3.27614 3.43741 3 3.07817C2.72386 3.43741 2.46436 3.80348 2.26449 4.13767C2.20169 4.24267 2.12507 4.41401 2.06619 4.60819C2.03833 4.70005 2.01978 4.77967 2.00906 4.83995C2.00299 4.87407 2.00078 4.89436 2.00006 4.90162ZM4.31829 1.51879C4.71713 2.01639 5.13336 2.57842 5.45195 3.11111C5.7767 3.6541 6 4.42012 6 4.88889C6 6.60711 4.65685 8 3 8C1.34315 8 0 6.60711 0 4.88889C0 4.42012 0.223295 3.6541 0.548046 3.11111C0.866636 2.57842 1.28287 2.01639 1.68171 1.51879C2.36649 0.664441 3 0 3 0C3 0 3.63351 0.664441 4.31829 1.51879Z" fill="var(--fill-0, #696F88)"/>
<path fill-rule="evenodd" clip-rule="evenodd" d="M16 10C15.0198 10 14 9.10881 14 7.72222C14 7.65861 14.0239 7.43528 14.1218 7.10246C14.2148 6.7859 14.34 6.48942 14.4608 6.28115C14.8706 5.5746 15.445 4.78841 16 4.08821C16.555 4.78841 17.1294 5.5746 17.5392 6.28115C17.66 6.48942 17.7852 6.7859 17.8782 7.10246C17.9761 7.43528 18 7.65861 18 7.72222C18 9.10881 16.9802 10 16 10ZM17.3133 2.5292C17.9634 3.32985 18.7237 4.33708 19.2693 5.27778C19.7023 6.02439 20 7.07767 20 7.72222C20 10.0848 18.2091 12 16 12C13.7909 12 12 10.0848 12 7.72222C12 7.07767 12.2977 6.02439 12.7307 5.27778C13.2763 4.33708 14.0366 3.32985 14.6867 2.5292C15.4119 1.63608 16 1 16 1C16 1 16.5881 1.63608 17.3133 2.5292Z" fill="var(--fill-0, #696F88)"/>
<path fill-rule="evenodd" clip-rule="evenodd" d="M8 18C6.50007 18 5 16.6216 5 14.5556C5 14.1411 5.25016 13.1385 5.65127 12.4343C6.27849 11.3331 7.1932 10.1016 8 9.09578C8.8068 10.1016 9.72151 11.3331 10.3487 12.4343C10.7498 13.1385 11 14.1411 11 14.5556C11 16.6216 9.49993 18 8 18ZM9.31034 7.53569C10.1836 8.6056 11.3094 10.08 12.0866 11.4444C12.6278 12.3947 13 13.7352 13 14.5556C13 17.5624 10.7614 20 8 20C5.23858 20 3 17.5624 3 14.5556C3 13.7352 3.37216 12.3947 3.91341 11.4444C4.69059 10.08 5.8164 8.6056 6.68966 7.53569C7.43741 6.61956 8 6 8 6C8 6 8.56259 6.61956 9.31034 7.53569Z" fill="var(--fill-0, #696F88)"/>
</g>
</svg>
