<svg preserveAspectRatio="none" width="100%" height="100%" overflow="visible" style="display: block;" viewBox="0 0 18.733 18.334" fill="none" xmlns="http://www.w3.org/2000/svg">
<g id="vector">
<path d="M15.313 1.65L17.083 3.42L12.103 8.4H10.333V6.63L15.313 1.65Z" fill="var(--fill-0, #696F88)"/>
<path d="M18.583 1.21L17.523 0.15C17.323 -0.05 17.013 -0.05 16.813 0.15L15.963 1L17.733 2.77L18.583 1.92C18.783 1.72 18.783 1.4 18.583 1.21Z" fill="var(--fill-0, #696F88)"/>
<path d="M2 0.333984H4V2.33398H13.1667L11.2642 4.33398H4V14.334L14 14.334V8.13479L16 6.33398V14.334H18V16.334H16V18.334H14V16.334L4 16.334V18.334H2V16.334H0V14.334H2V4.33398H0V2.33398L2 2.33398V0.333984Z" fill="var(--fill-0, #696F88)"/>
<path d="M7 6.33398C6.44772 6.33398 6 6.7817 6 7.33398V11.334C6 11.8863 6.44772 12.334 7 12.334H11C11.5523 12.334 12 11.8863 12 11.334V9.33398H9V6.33398H7Z" fill="var(--fill-0, #696F88)"/>
</g>
</svg>
