<svg width="24" height="24" viewBox="0 0 24 24" fill="none" xmlns="http://www.w3.org/2000/svg">
<path fill-rule="evenodd" clip-rule="evenodd" d="M6.87477 21C5.75827 21 4.99977 19.9888 4.99977 19V17H4C3.44772 17 3 16.5523 3 16C3 15.4477 3.44772 15 4 15H4.99977V13H4C3.44772 13 3 12.5523 3 12C3 11.4477 3.44772 11 4 11H4.99977V9H4C3.44772 9 3 8.55228 3 8C3 7.44772 3.44772 7 4 7H4.99977V5C4.99977 4.01123 5.75827 3 6.87477 3H18.1248C19.2413 3 19.9997 4.01123 19.9997 5V19C19.9997 19.9888 19.2413 21 18.1248 21H6.87477ZM6.87477 17H8C8.55228 17 9 16.5523 9 16C9 15.4477 8.55228 15 8 15H6.87477V13H8C8.55228 13 9 12.5523 9 12C9 11.4477 8.55228 11 8 11H6.87477V9H8C8.55228 9 9 8.55228 9 8C9 7.44772 8.55228 7 8 7H6.87477V5H9.68727V19H6.87477V17ZM11.5623 5H18.1248V19H11.5623V5Z" fill="#696F88"/>
</svg>
