<svg width="24" height="24" viewBox="0 0 24 24" fill="none" xmlns="http://www.w3.org/2000/svg">
<path fill-rule="evenodd" clip-rule="evenodd" d="M12 7C12 9.41896 10.2822 11.4367 8 11.9V20H6V11.9C3.71776 11.4367 2 9.41896 2 7C2 4.23858 4.23858 2 7 2C9.76142 2 12 4.23858 12 7ZM7 10C8.65685 10 10 8.65685 10 7C10 5.34315 8.65685 4 7 4C5.34315 4 4 5.34315 4 7C4 8.65685 5.34315 10 7 10Z" fill="#696F88"/>
<path fill-rule="evenodd" clip-rule="evenodd" d="M20.9953 13.4444C20.1194 12.0465 18.841 10.5332 17.8712 9.4577C17.0839 8.58457 16.5 8 16.5 8C16.5 8 15.9161 8.58457 15.1288 9.4577C14.159 10.5332 12.8806 12.0465 12.0048 13.4444C11.4094 14.3947 11 15.7352 11 16.5556C11 19.5624 13.4624 22 16.5 22C19.5376 22 22 19.5624 22 16.5556C22 15.7352 21.5906 14.3947 20.9953 13.4444ZM13 16.5556C13 18.4388 14.5478 20 16.5 20C18.4522 20 20 18.4388 20 16.5556C20 16.184 19.7392 15.2066 19.3004 14.5063C18.5957 13.3816 17.5591 12.1185 16.6556 11.0988C16.603 11.0394 16.5511 10.9812 16.5 10.9241C16.4489 10.9812 16.397 11.0394 16.3444 11.0988C15.4409 12.1185 14.4043 13.3816 13.6996 14.5063C13.2608 15.2066 13 16.184 13 16.5556Z" fill="#696F88"/>
</svg>
