<svg width="24" height="24" viewBox="0 0 24 24" fill="none" xmlns="http://www.w3.org/2000/svg">
<path d="M10.925 22C10.525 22 10.175 21.8531 9.875 21.5594C9.575 21.2656 9.425 20.9125 9.425 20.5V15.5H5.5C5.1 15.5 4.75 15.35 4.45 15.05C4.15 14.75 4 14.4 4 14V6.425C4 5.50833 4.33047 4.70833 4.9914 4.025C5.65233 3.34167 6.44687 3 7.375 3H20V14C20 14.4 19.85 14.75 19.55 15.05C19.25 15.35 18.9 15.5 18.5 15.5H14.575V20.5C14.575 20.9125 14.425 21.2656 14.125 21.5594C13.825 21.8531 13.475 22 13.075 22H10.925ZM5.5 10.15H18.5V4.5H17.1V8.775H15.6V4.5H13.825V6.625H12.325V4.5H7.375C6.84167 4.5 6.39583 4.69167 6.0375 5.075C5.67917 5.45833 5.5 5.90833 5.5 6.425V10.15ZM5.5 14H18.5V11.65H5.5V14Z" fill="#696F88"/>
</svg>
