<svg width="24" height="24" viewBox="0 0 24 24" fill="none" xmlns="http://www.w3.org/2000/svg">
<path fill-rule="evenodd" clip-rule="evenodd" d="M4.03492 3.70551C4.01779 3.50838 4.00905 3.34786 4.00459 3.23398C4.00459 3.23398 4 3 3.99992 2.19127C4.97656 2.02478 5.04704 2.02478 5.04704 2.02478C5.17024 2.00981 5.34387 1.99163 5.55588 1.97715C5.97767 1.94834 6.56282 1.93333 7.21138 1.99115C8.45927 2.10241 10.1831 2.50537 11.2804 3.87551C12.2803 5.12394 12.6907 6.71679 12.8666 7.90846C12.9565 8.51803 12.9896 9.05537 13.0004 9.44173C13.0058 9.63548 13.0056 9.79279 13.004 9.90404C13.0031 9.9597 13.002 10.004 13.0009 10.0356L12.9999 12.4012C13.408 11.9577 13.8981 11.5379 14.4854 11.1855C16.0082 10.2718 17.5299 10.2792 18.6335 10.4998C19.1842 10.6099 19.6418 10.7746 19.9641 10.9127C20.126 10.9821 20.256 11.0457 20.3489 11.0941C20.3489 11.0941 20.8901 11.3516 21.2026 11.5982C20.9922 12.3 20.8901 12.5227 20.8901 12.5227C20.8544 12.6183 20.8024 12.7524 20.7339 12.915C20.5973 13.2389 20.3925 13.6822 20.1179 14.1622C19.5881 15.0884 18.7159 16.2988 17.4481 16.9344C16.2389 17.5405 14.8014 17.6673 13.7502 17.6676C13.4802 17.6677 13.2274 17.6593 12.9999 17.6467V22H10.9999V11.0962C10.739 11.0916 10.4438 11.0741 10.1262 11.0345C8.99681 10.8936 7.50479 10.4618 6.29284 9.24996C5.09809 8.05532 4.54146 6.46408 4.2737 5.2585C4.13715 4.64365 4.06907 4.09854 4.03492 3.70551ZM7.03376 3.98325C8.11764 4.07989 9.14378 4.40704 9.71939 5.12574C10.3925 5.96617 10.7321 7.14381 10.888 8.20043C10.9364 8.52866 10.9654 8.83317 10.9824 9.09532C10.7982 9.09055 10.5928 9.07717 10.3737 9.04984C9.50303 8.94126 8.49505 8.62367 7.70699 7.83569C6.90174 7.03051 6.45837 5.87054 6.22613 4.82487C6.15565 4.50754 6.10699 4.21154 6.07344 3.95463C6.35742 3.94733 6.68631 3.95227 7.03376 3.98325ZM13.3046 15.6589C13.3526 15.5377 13.4071 15.4101 13.4686 15.2783C13.8557 14.4488 14.4932 13.5132 15.5144 12.9005C16.4916 12.3142 17.4699 12.3067 18.2413 12.461C18.4042 12.4936 18.5559 12.5331 18.6937 12.5751C18.6054 12.7585 18.5014 12.9601 18.3819 13.1691C17.9117 13.991 17.284 14.7794 16.5518 15.1464C15.7609 15.5429 14.6984 15.6673 13.7496 15.6676C13.5941 15.6676 13.445 15.6644 13.3046 15.6589Z" fill="#696F88"/>
</svg>
