<svg width="24" height="24" viewBox="0 0 24 24" fill="none" xmlns="http://www.w3.org/2000/svg">
<path fill-rule="evenodd" clip-rule="evenodd" d="M14.2403 1.56002C14.512 1.34718 14.8938 1.34718 15.1655 1.56002L15.1671 1.56131L15.1693 1.56302L15.1751 1.56769L15.1928 1.58194C15.2071 1.59361 15.2264 1.6096 15.25 1.62971C15.2971 1.66988 15.3617 1.72679 15.4379 1.7988C15.5895 1.94198 15.7918 2.14923 15.9956 2.40735C16.388 2.90449 16.8609 3.68496 16.8609 4.61435C16.8609 4.77328 16.847 4.92785 16.8222 5.0774C17.0578 5.01565 17.283 4.97776 17.4825 4.9543C17.8091 4.91586 18.0987 4.91237 18.3071 4.91831C18.4119 4.9213 18.4978 4.92672 18.5596 4.93163C18.5905 4.93409 18.6154 4.93643 18.6338 4.9383L18.6563 4.94069L18.6638 4.94154L18.6665 4.94187L18.6676 4.942C18.6679 4.94203 18.6686 4.94211 18.5782 5.68665C19.3228 5.59627 19.3228 5.5965 19.3228 5.59673L19.323 5.59835L19.3233 5.60109L19.3242 5.60854L19.3266 5.63109C19.3284 5.64946 19.3308 5.67441 19.3332 5.70531C19.3381 5.76703 19.3436 5.85294 19.3466 5.95776C19.3525 6.16619 19.349 6.4558 19.3106 6.7824C19.2365 7.41143 19.019 8.29767 18.3619 8.95485C17.7047 9.61202 16.8184 9.82954 16.1894 9.90356C15.8628 9.942 15.5732 9.94549 15.3648 9.93955C15.2599 9.93656 15.174 9.93114 15.1123 9.92623C15.0814 9.92377 15.0565 9.92143 15.0381 9.91956L15.0155 9.91717L15.0081 9.91632L15.0054 9.91599L15.0042 9.91586C15.004 9.91583 15.0033 9.91575 15.064 9.41533L15.0042 9.91586C14.9036 9.90365 14.8084 9.87163 14.7242 9.82398C14.6401 9.87163 14.5458 9.90353 14.4452 9.91574L14.3844 9.41537C14.4451 9.9158 14.4454 9.91572 14.4452 9.91574L14.4431 9.91599L14.4404 9.91632L14.4329 9.91717L14.4104 9.91956C14.392 9.92143 14.367 9.92377 14.3361 9.92623C14.2744 9.93114 14.1885 9.93656 14.0837 9.93955C13.8753 9.94549 13.5857 9.942 13.2591 9.90356C12.63 9.82954 11.7438 9.61202 11.0866 8.95485C10.4294 8.29767 10.2119 7.41143 10.1379 6.7824C10.0995 6.4558 10.096 6.16619 10.1019 5.95776C10.1049 5.85294 10.1103 5.76703 10.1152 5.70531C10.1177 5.67441 10.12 5.64946 10.1219 5.63109L10.1243 5.60853L10.1251 5.60109L10.1255 5.59835L10.1256 5.59723C10.1256 5.59699 10.1257 5.59627 10.8702 5.68665C10.7799 4.94211 10.7801 4.94209 10.7803 4.94206L10.7819 4.94187L10.7847 4.94154L10.7921 4.94069L10.8147 4.9383C10.8331 4.93643 10.858 4.93409 10.8889 4.93163C10.9506 4.92672 11.0365 4.9213 11.1414 4.91831C11.3498 4.91237 11.6394 4.91586 11.966 4.9543C12.1528 4.97628 12.3623 5.01092 12.5818 5.06598C12.5581 4.91998 12.5449 4.76923 12.5449 4.61435C12.5449 3.68496 13.0178 2.90449 13.4102 2.40735C13.614 2.14923 13.8163 1.94198 13.9679 1.7988C14.0441 1.72679 14.1087 1.66988 14.1558 1.62971C14.1794 1.6096 14.1987 1.59361 14.213 1.58194L14.2307 1.56769L14.2365 1.56302L14.2387 1.56131L14.2403 1.56002ZM10.8702 5.68665L10.1256 5.59723C10.1672 5.25464 10.4377 4.98365 10.7803 4.94206L10.8702 5.68665ZM18.5782 5.68665L18.6676 4.942C19.0102 4.98359 19.2812 5.25415 19.3228 5.59673L18.5782 5.68665ZM14.7029 6.0313C14.6648 5.98731 14.6262 5.94077 14.5876 5.89191C14.276 5.49727 14.0449 5.04577 14.0449 4.61435C14.0449 4.18293 14.276 3.73142 14.5876 3.33678C14.6262 3.28793 14.6648 3.24139 14.7029 3.1974C14.741 3.24139 14.7796 3.28793 14.8182 3.33678C15.1297 3.73142 15.3609 4.18293 15.3609 4.61435C15.3609 5.04577 15.1297 5.49727 14.8182 5.89191C14.7796 5.94077 14.741 5.98731 14.7029 6.0313ZM13.5974 8.25077C13.6047 8.31258 13.6103 8.37283 13.6145 8.43087C13.5564 8.42668 13.4962 8.42112 13.4344 8.41384C12.935 8.35508 12.4523 8.19925 12.1473 7.89419C11.8422 7.58913 11.6864 7.10644 11.6276 6.60709C11.6203 6.54528 11.6148 6.48503 11.6106 6.42699C11.6686 6.43117 11.7289 6.43674 11.7907 6.44402C12.29 6.50278 12.7727 6.65861 13.0778 6.96367C13.3828 7.26873 13.5387 7.75142 13.5974 8.25077ZM15.851 8.25077C15.8438 8.31258 15.8382 8.37283 15.834 8.43087C15.892 8.42668 15.9523 8.42112 16.0141 8.41384C16.5134 8.35508 16.9961 8.19925 17.3012 7.89419C17.6063 7.58913 17.7621 7.10644 17.8208 6.60709C17.8281 6.54528 17.8337 6.48503 17.8379 6.42699C17.7798 6.43117 17.7196 6.43674 17.6578 6.44402C17.1584 6.50278 16.6757 6.65861 16.3707 6.96367C16.0656 7.26873 15.9098 7.75142 15.851 8.25077Z" fill="#696F88"/>
<path fill-rule="evenodd" clip-rule="evenodd" d="M18.25 19.9733C18.25 21.0925 17.3167 22.0008 16.1667 22.0008H8.66667C4.98333 22.0008 2 19.0974 2 15.5128C2 12.731 3.74167 10.2331 6.39167 9.21127L9.34137 8.06836C9.39867 8.58581 9.63098 9.11206 10.0147 9.55655C10.2161 9.78971 10.459 10.0004 10.7403 10.1755C11.4073 10.5907 12 10.6467 13.3417 10.6467H18.25C19.4 10.6467 20.3333 11.5551 20.3333 12.6743C20.3333 12.8283 20.3167 12.9743 20.2833 13.1122C21.2583 13.2825 22 14.1097 22 15.1073C22 15.9669 21.45 16.6968 20.675 16.9969C20.725 17.1672 20.75 17.3538 20.75 17.5403C20.75 18.6595 19.8167 19.5678 18.6667 19.5678H18.2083C18.2333 19.6976 18.25 19.8354 18.25 19.9733ZM3.66667 15.5128C3.66667 18.1972 5.90833 20.3788 8.66667 20.3788H16.1667C16.4 20.3788 16.5833 20.2004 16.5833 19.9733C16.5833 19.7462 16.4 19.5678 16.1667 19.5678H12V17.9458H18.6667C18.9 17.9458 19.0833 17.7674 19.0833 17.5403C19.0833 17.3132 18.9 17.1348 18.6667 17.1348H12V15.5128H19.9167C20.15 15.5128 20.3333 15.3344 20.3333 15.1073C20.3333 14.8802 20.15 14.7018 19.9167 14.7018H12V13.0798H18.25C18.4833 13.0798 18.6667 12.9013 18.6667 12.6743C18.6667 12.4472 18.4833 12.2688 18.25 12.2688H13.3417C11.4062 12.2688 9.45 11.6282 8.51154 10.1381L7.00833 10.7197C4.99167 11.4983 3.66667 13.3961 3.66667 15.5128Z" fill="#696F88"/>
</svg>
