<svg width="24" height="24" viewBox="0 0 24 24" fill="none" xmlns="http://www.w3.org/2000/svg">
<path d="M7.40625 21C6.75 21 6.1849 20.7842 5.71094 20.3526C5.23698 19.921 5 19.3868 5 18.75V6.90566C5 6.36792 5.17135 5.88679 5.51406 5.46226C5.85677 5.03774 6.30521 4.76887 6.85938 4.65566L15.5 3V16.5849L7.20938 18.1981C7.07813 18.2264 6.96875 18.2936 6.88125 18.3998C6.79375 18.5059 6.75 18.6226 6.75 18.75C6.75 18.9057 6.81563 19.0366 6.94688 19.1427C7.07813 19.2488 7.23125 19.3019 7.40625 19.3019H17.25V5.71698H19V21H7.40625ZM9.375 16.0542L13.75 15.2264V5.08019L9.375 5.90802V16.0542ZM7.625 16.3939V6.24764L7.29688 6.31132C7.13646 6.33962 7.00521 6.40684 6.90313 6.51297C6.80104 6.6191 6.75 6.75 6.75 6.90566V16.6061C6.82292 16.5778 6.89948 16.5531 6.97969 16.5318C7.0599 16.5106 7.13646 16.4929 7.20938 16.4788L7.625 16.3939Z" fill="#696F88"/>
</svg>
