<svg preserveAspectRatio="none" width="100%" height="100%" overflow="visible" style="display: block;" viewBox="0 0 18 18" fill="none" xmlns="http://www.w3.org/2000/svg">
<path id="vector" fill-rule="evenodd" clip-rule="evenodd" d="M6.93272 14.8539V7.22609H9H11.0673V14.8539C10.7746 15.0852 10.4209 15.3312 10.0481 15.5234C9.60076 15.7541 9.24541 15.8452 9 15.8452C8.75459 15.8452 8.39924 15.7541 7.95191 15.5234C7.57913 15.3312 7.2254 15.0852 6.93272 14.8539ZM13.1346 7.22609C13.1346 6.03604 12.209 5.07131 11.0673 5.07131C11.0673 4.87833 11.0429 4.69128 10.9973 4.51331L13.8655 1.52366L12.4037 0L9.53559 2.98955C9.36477 2.94192 9.18523 2.91653 9 2.91653C8.81481 2.91653 8.63532 2.94191 8.46453 2.98952L5.59642 0L4.13463 1.52366L7.00274 4.51318C6.95707 4.69119 6.93272 4.87829 6.93272 5.07131C5.791 5.07131 4.86545 6.03604 4.86545 7.22609V8.30357H3.22632L1.46178 6.46434L0 7.988L2.37002 10.4583H4.86545V12.613H2.37002L0 15.0834L1.46178 16.607L3.22632 14.7678H4.86545V14.9527C4.86545 15.5242 5.08122 16.076 5.51078 16.4311C6.28256 17.0692 7.64128 18 9 18C10.3587 18 11.7174 17.0692 12.4892 16.4311C12.9188 16.076 13.1346 15.5242 13.1346 14.9527V14.7678H14.7737L16.5382 16.607L18 15.0834L15.63 12.613H13.1346V10.4583H15.63L18 7.988L16.5382 6.46434L14.7737 8.30357H13.1346V7.22609Z" fill="var(--fill-0, #696F88)"/>
</svg>
