<svg width="24" height="24" viewBox="0 0 24 24" fill="none" xmlns="http://www.w3.org/2000/svg">
<path d="M16 2H18V5H16V2Z" fill="#696F88"/>
<path d="M6 4H4V10H6V4Z" fill="#696F88"/>
<path fill-rule="evenodd" clip-rule="evenodd" d="M3.99959 15.0428C3.05107 15.3595 3.05143 15.3606 3.05143 15.3606L3.05188 15.3619L3.05306 15.3654L3.05656 15.3757L3.06811 15.4089C3.07782 15.4365 3.09159 15.4748 3.10943 15.5227C3.14506 15.6183 3.19711 15.7524 3.26566 15.915C3.40222 16.2388 3.60703 16.6822 3.88158 17.1621C4.41141 18.0884 5.28363 19.2988 6.55145 19.9343C7.76061 20.5405 9.19807 20.6673 10.2493 20.6676C10.5193 20.6676 10.7721 20.6593 10.9996 20.6467V22H12.9996V16.0961C13.2605 16.0915 13.5557 16.0741 13.8734 16.0344C15.0027 15.8936 16.4947 15.4618 17.7067 14.2499C18.9014 13.0553 19.458 11.464 19.7258 10.2585C19.8624 9.64362 19.9304 9.0985 19.9646 8.70548C19.9817 8.50835 19.9905 8.34782 19.9949 8.23394C19.9972 8.17696 19.9983 8.13152 19.9989 8.09887L19.9995 8.05961L19.9996 8.04743L19.9996 8.04326L19.9996 8.04097V7.15704L19.123 7.04802L18.9996 8.04038C19.123 7.04802 19.1215 7.04784 19.1215 7.04784L19.1196 7.04761L19.1148 7.04702L19.1007 7.04539L19.0555 7.04055C19.018 7.03672 18.9659 7.03186 18.9006 7.02683C18.7702 7.01679 18.5867 7.00605 18.3621 7.00184C17.9148 6.99346 17.2944 7.01074 16.601 7.11492C15.2402 7.31939 13.4461 7.88303 12.219 9.4153C11.0533 10.871 10.7496 12.3532 10.7496 13.4775C10.7496 14.0345 10.8237 14.501 10.8997 14.8339C10.9345 14.9862 10.9699 15.1119 10.9996 15.2069V15.4012C10.5915 14.9576 10.1014 14.5379 9.51409 14.1855C7.99128 13.2718 6.46956 13.2791 5.36602 13.4998C4.81529 13.6099 4.35773 13.7746 4.03541 13.9127C3.8735 13.9821 3.74354 14.0457 3.65059 14.094C3.60406 14.1182 3.5666 14.1387 3.53887 14.1543C3.52499 14.162 3.51353 14.1686 3.50455 14.1738L3.49296 14.1806L3.48858 14.1832L3.48591 14.1848L2.79688 14.5982L3.05107 15.3595L3.99959 15.0428ZM13.7802 10.6655C14.5531 9.70025 15.759 9.26389 16.8982 9.09272C17.2706 9.03676 17.6199 9.01178 17.9196 9.00342C17.8863 9.24874 17.8394 9.52742 17.7734 9.82483C17.5411 10.8705 17.0978 12.0305 16.2925 12.8357C15.5045 13.6236 14.4965 13.9412 13.6258 14.0498C13.314 14.0887 13.0297 14.0993 12.7949 14.0971C12.7688 13.9208 12.7496 13.7115 12.7496 13.4775C12.7496 12.7256 12.9459 11.7073 13.7802 10.6655ZM19.9996 8.04097C19.9996 8.04097 19.9996 8.04038 18.9996 8.04038L19.9996 8.04097ZM3.99959 15.0428L3.48591 14.1848C3.48591 14.1848 3.48514 14.1853 3.99959 15.0428ZM10.5309 18.2783C10.5924 18.4101 10.6469 18.5377 10.6949 18.6589C10.5546 18.6643 10.4054 18.6676 10.2499 18.6676C9.30112 18.6673 8.23858 18.5429 7.44774 18.1464C6.71556 17.7794 6.08778 16.991 5.61761 16.1691C5.49808 15.9601 5.39408 15.7585 5.30584 15.5751C5.44364 15.533 5.59531 15.4935 5.75817 15.461C6.52963 15.3067 7.50791 15.3141 8.4851 15.9005C9.50631 16.5132 10.1438 17.4488 10.5309 18.2783Z" fill="#696F88"/>
<path d="M12 5H10V7H12V5Z" fill="#696F88"/>
</svg>
