<svg width="24" height="24" viewBox="0 0 24 24" fill="none" xmlns="http://www.w3.org/2000/svg">
<path fill-rule="evenodd" clip-rule="evenodd" d="M11 15.3777V11.0232C9.93333 11.0232 8.90833 10.8189 7.925 10.4102C6.94167 10.0022 6.075 9.42323 5.325 8.67323C4.575 7.92323 4 7.05656 3.6 6.07323C3.2 5.0899 3 4.0649 3 2.99823V0.99823H5C6.05 0.99823 7.06667 1.20223 8.05 1.61023C9.03333 2.0189 9.9 2.59823 10.65 3.34823C11.1667 3.8649 11.596 4.43156 11.938 5.04823C12.2793 5.6649 12.5417 6.32323 12.725 7.02323C12.8083 6.90656 12.9 6.79423 13 6.68623C13.1 6.57756 13.2083 6.4649 13.325 6.34823C14.075 5.59823 14.9417 5.0189 15.925 4.61023C16.9083 4.20223 17.9333 3.99823 19 3.99823H21V5.99823C21 7.0649 20.796 8.0899 20.388 9.07323C19.9793 10.0566 19.4 10.9232 18.65 11.6732C17.9 12.4232 17.0373 12.9982 16.062 13.3982C15.0873 13.7982 14.0667 13.9982 13 13.9982V15.3773L17.0004 17.3775V20.6622L15.0004 21.6622V18.6136L13 17.6134V22.9982H11V17.6137L9.00035 18.6136V21.6622L7.00036 20.6622V17.3775L11 15.3777ZM11 8.99823C11 8.19823 10.846 7.43556 10.538 6.71023C10.2293 5.98556 9.79167 5.3399 9.225 4.77323C8.65833 4.20656 8.01233 3.76923 7.287 3.46123C6.56233 3.15256 5.8 2.99823 5 2.99823C5 3.79823 5.15 4.5649 5.45 5.29823C5.75 6.03156 6.18333 6.68156 6.75 7.24823C7.31667 7.8149 7.96667 8.24823 8.7 8.54823C9.43333 8.84823 10.2 8.99823 11 8.99823ZM13 11.9982C13.8 11.9982 14.5627 11.8482 15.288 11.5482C16.0127 11.2482 16.6583 10.8149 17.225 10.2482C17.7917 9.68156 18.2293 9.03156 18.538 8.29823C18.846 7.5649 19 6.79823 19 5.99823C18.2 5.99823 17.4333 6.15223 16.7 6.46023C15.9667 6.7689 15.3167 7.20656 14.75 7.77323C14.1833 8.3399 13.75 8.98556 13.45 9.71023C13.15 10.4356 13 11.1982 13 11.9982Z" fill="#696F88"/>
</svg>
