<svg width="24" height="24" viewBox="0 0 24 24" fill="none" xmlns="http://www.w3.org/2000/svg">
<path fill-rule="evenodd" clip-rule="evenodd" d="M20.1817 17.5249L18.3635 15.7067V7.29936C17.5886 7.02546 16.9744 6.41129 16.7005 5.63636H8.29318L6.475 3.81818L16.7005 3.81818C17.0749 2.75892 18.0852 2 19.2726 2C20.7789 2 21.9999 3.22104 21.9999 4.72727C21.9999 5.91474 21.241 6.92496 20.1817 7.29936L20.1817 17.5249ZM19.2726 5.63636C18.7706 5.63636 18.3635 5.22935 18.3635 4.72727C18.3635 4.2252 18.7706 3.81818 19.2726 3.81818C19.7747 3.81818 20.1817 4.2252 20.1817 4.72727C20.1817 5.22935 19.7747 5.63636 19.2726 5.63636Z" fill="#696F88"/>
<path fill-rule="evenodd" clip-rule="evenodd" d="M2.44742 2.61915L1.0332 4.03336L3.81808 6.81824V16.7006C2.75882 17.075 1.9999 18.0853 1.9999 19.2727C1.9999 20.779 3.22094 22 4.72717 22C5.91464 22 6.92486 21.2411 7.29926 20.1818H17.1817L19.9997 22.9999L21.4139 21.5857L17.2603 17.4319C17.2603 17.4319 17.2603 17.4319 17.2603 17.4319L2.44742 2.61915ZM5.63626 8.63642L15.3635 18.3636H7.29926C7.02536 17.5887 6.41119 16.9745 5.63626 16.7006V8.63642ZM3.81808 19.2727C3.81808 19.7748 4.2251 20.1818 4.72717 20.1818C5.22925 20.1818 5.63626 19.7748 5.63626 19.2727C5.63626 18.7707 5.22925 18.3636 4.72717 18.3636C4.2251 18.3636 3.81808 18.7707 3.81808 19.2727Z" fill="#696F88"/>
</svg>
