<svg width="24" height="24" viewBox="0 0 24 24" fill="none" xmlns="http://www.w3.org/2000/svg">
<path d="M11 17V11H13V17H11Z" fill="#696F88"/>
<path fill-rule="evenodd" clip-rule="evenodd" d="M17.93 12.9978H21V15.0078H17.93C17.88 15.3978 17.81 15.7778 17.71 16.1478L20.29 17.6378L19.29 19.3678L16.92 17.9978C15.84 19.8078 14.04 20.9978 12 20.9978C9.96 20.9978 8.16 19.8078 7.08 17.9978L4.71 19.3478L3.71 17.6178L6.29 16.1278C6.19 15.7578 6.12 15.3778 6.07 14.9878H3V12.9878H6.07C6.12 12.5978 6.19 12.2178 6.29 11.8478L3.71 10.3578L4.71 8.62781L7.08 9.99781C7.36 9.52781 7.7 9.09781 8.07 8.70781C7.97 8.15781 7.87 7.01781 8.65 5.81781L7 4.16781L8.41 2.75781L10.14 4.47781C10.77 4.14781 12.19 3.58781 13.87 4.47781L15.59 2.75781L17 4.16781L15.35 5.81781C16.13 7.01781 16.03 8.14781 15.93 8.70781C16.3 9.08781 16.64 9.51781 16.92 9.99781L19.29 8.63781L20.29 10.3678L17.71 11.8578C17.81 12.2278 17.88 12.6078 17.93 12.9978ZM13.88 7.35781C13.62 6.56781 12.88 5.99781 12 5.99781C11.12 5.99781 10.38 6.56781 10.12 7.35781C10.71 7.12781 11.34 6.99781 12 6.99781C12.66 6.99781 13.29 7.12781 13.88 7.35781ZM8 13.9978C8 16.7578 9.79 18.9978 12 18.9978C14.21 18.9978 16 16.7578 16 13.9978C16 11.2378 14.21 8.99781 12 8.99781C9.79 8.99781 8 11.2378 8 13.9978Z" fill="#696F88"/>
</svg>
