<svg width="24" height="24" viewBox="0 0 24 24" fill="none" xmlns="http://www.w3.org/2000/svg">
<path fill-rule="evenodd" clip-rule="evenodd" d="M12 2C7.03242 2 3 6.01514 3 10.9747C3 14.9088 5.53708 18.2471 9.0633 19.4605C9.36486 19.9678 9.8216 20.6422 10.2093 21.2014C10.413 21.4953 10.6082 21.7723 10.7699 22H13.2303C13.3916 21.773 13.5862 21.497 13.7894 21.2039C14.1774 20.6445 14.6346 19.9694 14.9369 19.4604C18.463 18.2469 21 14.9087 21 10.9747C21 6.01514 16.9676 2 12 2ZM12.1459 20.0642C12.0968 20.1352 12.0481 20.2051 12.0002 20.2736C11.9519 20.2044 11.9026 20.1336 11.8529 20.0619C11.3283 19.3051 10.8112 18.5261 10.6373 18.1794L10.4421 17.7902L10.0242 17.668C7.11757 16.8177 5 14.14 5 10.9747C5 7.12567 8.13102 4 12 4C15.869 4 19 7.12567 19 10.9747C19 14.14 16.8824 16.8177 13.9758 17.668L13.5579 17.7902L13.3627 18.1794C13.1872 18.5294 12.6699 19.3086 12.1459 20.0642Z" fill="#696F88"/>
</svg>
