<svg width="24" height="24" viewBox="0 0 24 24" fill="none" xmlns="http://www.w3.org/2000/svg">
<path d="M11 3V1H13V3H11Z" fill="#696F88"/>
<path d="M6.20711 2.79289L7.70711 4.29289L6.29289 5.70711L4.79289 4.20711L6.20711 2.79289Z" fill="#696F88"/>
<path d="M19.2071 4.20711L17.7071 5.70711L16.2929 4.29289L17.7929 2.79289L19.2071 4.20711Z" fill="#696F88"/>
<path d="M6 11H4V9H6V11Z" fill="#696F88"/>
<path d="M20 11H18V9H20V11Z" fill="#696F88"/>
<path fill-rule="evenodd" clip-rule="evenodd" d="M7.47063 11.1205C7.16871 10.4768 7 9.75809 7 9C7 6.23858 9.23858 4 12 4C14.7614 4 17 6.23858 17 9C17 10.5119 16.329 11.867 15.2685 12.7838C15.1816 12.859 15.092 12.9312 15 13.0004V16H9V13.0004C8.34836 12.5109 7.8202 11.8659 7.47063 11.1205ZM14.469 10.7046C14.113 11.2192 13.6004 11.6171 13 11.8293V14H11V11.8293C10.4174 11.6234 9.91741 11.2426 9.56305 10.75C9.2087 10.2575 9 9.6531 9 9C9 8.6691 9.05357 8.35071 9.15252 8.05303C9.42514 7.23284 10.0422 6.56991 10.8322 6.23576C11.1912 6.08395 11.5858 6 12 6C12.4347 6 12.8477 6.09244 13.2206 6.25873C13.9138 6.56785 14.4681 7.13215 14.7643 7.83227C14.9161 8.19118 15 8.58579 15 9C15 9.63316 14.8038 10.2205 14.469 10.7046Z" fill="#696F88"/>
<path d="M11.4075 20.3354C10.7721 17.9739 9.29473 16.7281 7.55773 16.3372C5.88801 15.9614 4.07899 16.3944 2.68828 17.1383L2 17.5064L2.3523 18.2064C3.07982 19.6519 3.89456 20.818 4.98228 21.6148C6.08798 22.4248 7.40079 22.7992 9.02032 22.7992H14.9797C16.5992 22.7992 17.912 22.4248 19.0177 21.6148C20.1054 20.818 20.9202 19.6519 21.6477 18.2064L22 17.5064L21.3117 17.1383C19.921 16.3944 18.112 15.9614 16.4423 16.3372C14.7053 16.7281 13.2279 17.9739 12.5925 20.3354L12.5891 20.3481L12 22.6888L11.4109 20.3481L11.4075 20.3354Z" fill="#696F88"/>
</svg>
