<svg width="24" height="24" viewBox="0 0 24 24" fill="none" xmlns="http://www.w3.org/2000/svg">
<path fill-rule="evenodd" clip-rule="evenodd" d="M22 8.00031V14.0603C22.62 14.6903 23 15.5503 23 16.5003C23 18.4303 21.43 20.0003 19.5 20.0003C17.57 20.0003 16 18.4303 16 16.5003C16 16.3728 16.0169 16.2453 16.0338 16.1178C16.0394 16.0753 16.045 16.0328 16.05 15.9903H10.89C10.83 16.2703 10.75 16.5503 10.65 16.8103L9.75 16.4103L9.54 16.8703L10.43 17.2703C9.91 18.3003 9.06 19.1203 8 19.5803L7.65 18.6503L7.18 18.8303L7.52 19.7403C7.04 19.8903 6.53 20.0003 6 20.0003C5.36 20.0003 4.74 19.8703 4.19 19.6503L4.59 18.7503L4.13 18.5403L3.73 19.4303C2.7 18.9103 1.88 18.0603 1.42 17.0003L2.35 16.6503L2.17 16.1803L1.26 16.5203C1.11 16.0403 1 15.5303 1 15.0003C1 14.3603 1.13 13.7403 1.35 13.1903L2.25 13.5903L2.46 13.1303L1.57 12.7303C2.09 11.7003 2.94 10.8803 4 10.4203L4.35 11.3503L4.82 11.1703L4.48 10.2603C4.96 10.1103 5.47 10.0003 6 10.0003C6.64 10.0003 7.26 10.1303 7.81 10.3503L7.41 11.2503L7.87 11.4603L8.27 10.5703C8.51 10.7003 8.74 10.8403 8.96 11.0003H11C12.1 11.0003 13 10.1003 13 9.00031V6.71031L11.94 5.65031L10.53 7.06031L9.82 6.35031L13.35 2.82031L14.06 3.53031L12.65 4.94031L13.71 6.00031H20C21.1 6.00031 22 6.90031 22 8.00031ZM3 15.0003C3 16.6603 4.34 18.0003 6 18.0003C7.66 18.0003 9 16.6603 9 15.0003C9 13.3403 7.66 12.0003 6 12.0003C4.34 12.0003 3 13.3403 3 15.0003ZM10.74 13.4803C10.79 13.6503 10.83 13.8203 10.87 14.0003H17.06C17.69 13.3803 18.55 13.0003 19.5 13.0003C19.632 13.0003 19.7641 13.0184 19.8914 13.0359C19.928 13.0409 19.9643 13.0458 20 13.0503V8.00031H15V9.00031C15 11.2103 13.21 13.0003 11 13.0003H10.58L9.65 13.3503L9.83 13.8203L10.74 13.4803ZM18 16.5003C18 17.3303 18.67 18.0003 19.5 18.0003C20.33 18.0003 21 17.3303 21 16.5003C21 15.6703 20.33 15.0003 19.5 15.0003C18.67 15.0003 18 15.6703 18 16.5003Z" fill="#696F88"/>
<path d="M9 9H4C3.45 9 3 8.55 3 8C3 7.45 3.45 7 4 7H7C8.1 7 9 7.9 9 9Z" fill="#696F88"/>
</svg>
