<svg width="24" height="24" viewBox="0 0 24 24" fill="none" xmlns="http://www.w3.org/2000/svg">
<path fill-rule="evenodd" clip-rule="evenodd" d="M18.3848 19.9419L17 21.0876V21.5H7.5V19.5H11.5V17H4.5L2.25 14L4.5 11H8.39121L7.56388 10H5L2.75 7L3.85879 5.52161L2.00003 3.2749L3.54102 2L18.3848 19.9419ZM10.0459 13H5.5L4.75 14L5.5 15H11.5V14.7576L10.0459 13ZM13.5 17.1751V19.5H15.4235L13.5 17.1751Z" fill="#696F88"/>
<path fill-rule="evenodd" clip-rule="evenodd" d="M11.5 2V4H7.19567L8.85032 6H11.5V8H10.505L14.6416 13H20L22.3204 9.90616L19.4142 7H13.5V2H11.5ZM19 11H13.5V9H18.5858L19.6796 10.0938L19 11Z" fill="#696F88"/>
</svg>
