<svg width="24" height="24" viewBox="0 0 24 24" fill="none" xmlns="http://www.w3.org/2000/svg">
<path fill-rule="evenodd" clip-rule="evenodd" d="M18.5422 4.46192L17.814 4.34918C16.7021 4.17702 14.8898 4 12 4C9.1102 4 7.29792 4.17702 6.18602 4.34918L5.45784 4.46192L5.34711 5.20418C5.16928 6.39628 5 8.46997 5 12C5 15.53 5.16928 17.6037 5.34711 18.7958L5.46295 19.5724L6.15334 19.6772C7.22117 19.8394 9.02312 20 12 20C14.9769 20 16.7788 19.8394 17.8467 19.6772L18.537 19.5724L18.6529 18.7958C18.8307 17.6037 19 15.53 19 12C19 8.46997 18.8307 6.39628 18.6529 5.20418L18.5422 4.46192ZM3.369 4.90909C3.171 6.23636 3 8.41818 3 12C3 15.5818 3.171 17.7636 3.369 19.0909C3.135 19.4 3 19.7727 3 20.1818C3 21.1818 3.81 22 4.8 22C5.196 22 5.556 21.8636 5.853 21.6545C7.05 21.8364 8.958 22 12 22C15.042 22 16.95 21.8364 18.147 21.6545C18.444 21.8636 18.804 22 19.2 22C20.19 22 21 21.1818 21 20.1818C21 19.7727 20.865 19.4 20.631 19.0909C20.829 17.7636 21 15.5818 21 12C21 8.41818 20.829 6.23636 20.631 4.90909C20.865 4.6 21 4.22727 21 3.81818C21 2.81818 20.19 2 19.2 2C18.795 2 18.417 2.14545 18.12 2.37273C16.887 2.18182 14.97 2 12 2C9.03 2 7.113 2.18182 5.88 2.37273C5.583 2.14545 5.205 2 4.8 2C3.81 2 3 2.81818 3 3.81818C3 4.22727 3.135 4.6 3.369 4.90909Z" fill="#696F88"/>
<path d="M10.4073 10.7782C11.1922 10.273 11.1983 9.06746 10.4211 8.08541C9.64384 7.10336 8.37753 6.71673 7.59269 7.22184C6.80785 7.72695 6.80168 8.93254 7.57892 9.91459C8.35616 10.8966 9.62247 11.2833 10.4073 10.7782Z" fill="#696F88"/>
<path d="M11.7338 16.3526C12.284 15.539 11.9539 14.2738 10.9963 13.5268C10.0388 12.7797 8.81647 12.8338 8.26622 13.6474C7.71597 14.461 8.04614 15.7262 9.00368 16.4732C9.96123 17.2203 11.1835 17.1662 11.7338 16.3526Z" fill="#696F88"/>
<path d="M13.5789 11.0854C12.8017 12.0675 12.8078 13.273 13.5927 13.7782C14.3775 14.2833 15.6438 13.8966 16.4211 12.9146C17.1983 11.9325 17.1922 10.727 16.4073 10.2218C15.6225 9.71673 14.3562 10.1034 13.5789 11.0854Z" fill="#696F88"/>
</svg>
