<svg width="24" height="24" viewBox="0 0 24 24" fill="none" xmlns="http://www.w3.org/2000/svg">
<path fill-rule="evenodd" clip-rule="evenodd" d="M4.53501 9.48528C6.48764 11.4379 9.17859 11.9128 10.5454 10.5459C11.9123 9.1791 11.4374 6.48815 9.48476 4.53553C7.53214 2.58291 4.84119 2.10804 3.47435 3.47487C2.10752 4.84171 2.58239 7.53266 4.53501 9.48528ZM8.10746 9.29084C8.75175 9.40454 9.03593 9.22701 9.13121 9.13173C9.22649 9.03645 9.40402 8.75226 9.29032 8.10798C9.17796 7.47128 8.79228 6.67148 8.07055 5.94975C7.34881 5.22801 6.54901 4.84233 5.91232 4.72997C5.26803 4.61628 4.98385 4.79381 4.88857 4.88909C4.79329 4.98437 4.61576 5.26855 4.72945 5.91284C4.84181 6.54953 5.22749 7.34933 5.94923 8.07107C6.67096 8.7928 7.47076 9.17848 8.10746 9.29084Z" fill="#696F88"/>
<path fill-rule="evenodd" clip-rule="evenodd" d="M9.57064 21.0556C12.238 21.7703 14.8058 20.8361 15.3061 18.9689C15.8064 17.1018 14.0497 15.0088 11.3824 14.2941C8.71504 13.5794 6.14717 14.5136 5.64688 16.3807C5.14658 18.2479 6.90331 20.3409 9.57064 21.0556ZM12.5672 19.101C13.1821 18.8773 13.3394 18.5814 13.3743 18.4513C13.4092 18.3211 13.4208 17.9863 13.0002 17.4851C12.5846 16.9899 11.8506 16.4901 10.8647 16.2259C9.87883 15.9618 8.99334 16.0277 8.38576 16.2487C7.77095 16.4724 7.6136 16.7682 7.57873 16.8984C7.54385 17.0285 7.5322 17.3634 7.95281 17.8645C8.36846 18.3597 9.10237 18.8595 10.0883 19.1237C11.0742 19.3879 11.9597 19.322 12.5672 19.101Z" fill="#696F88"/>
<path fill-rule="evenodd" clip-rule="evenodd" d="M13.7671 13.5459C15.1339 14.9128 17.8249 14.4379 19.7775 12.4853C21.7301 10.5327 22.205 7.84171 20.8382 6.47487C19.4713 5.10804 16.7804 5.58291 14.8278 7.53553C12.8751 9.48815 12.4003 12.1791 13.7671 13.5459ZM15.1813 12.1317C15.2766 12.227 15.5608 12.4045 16.2051 12.2908C16.8418 12.1785 17.6416 11.7928 18.3633 11.0711C19.085 10.3493 19.4707 9.54953 19.5831 8.91284C19.6968 8.26855 19.5192 7.98437 19.424 7.88909C19.3287 7.79381 19.0445 7.61628 18.4002 7.72997C17.7635 7.84233 16.9637 8.22801 16.242 8.94975C15.5202 9.67148 15.1346 10.4713 15.0222 11.108C14.9085 11.7523 15.086 12.0364 15.1813 12.1317Z" fill="#696F88"/>
</svg>
