<svg width="24" height="24" viewBox="0 0 24 24" fill="none" xmlns="http://www.w3.org/2000/svg">
<path fill-rule="evenodd" clip-rule="evenodd" d="M14.7545 6.28543C15.1799 6.3605 15.3675 6.24329 15.4304 6.18039C15.4933 6.11748 15.6105 5.92986 15.5354 5.50449C15.4613 5.08413 15.2066 4.55609 14.7301 4.07959C14.2536 3.60309 13.7256 3.34846 13.3052 3.27428C12.8799 3.19922 12.6922 3.31642 12.6293 3.37933C12.5664 3.44224 12.4492 3.62986 12.5243 4.05523C12.5985 4.47558 12.8531 5.00362 13.3296 5.48012C13.8061 5.95662 14.3341 6.21125 14.7545 6.28543Z" fill="#696F88"/>
<path fill-rule="evenodd" clip-rule="evenodd" d="M17.0387 10.1214C17.4446 9.97369 17.5485 9.77837 17.5715 9.69244C17.5945 9.60651 17.6022 9.38542 17.3245 9.05458C17.0501 8.72763 16.5656 8.39765 15.9147 8.22324C15.2638 8.04882 14.6791 8.09233 14.278 8.23826C13.8721 8.38594 13.7682 8.58125 13.7452 8.66718C13.7222 8.75312 13.7145 8.9742 13.9922 9.30505C14.2666 9.632 14.7511 9.96198 15.402 10.1364C16.053 10.3108 16.6376 10.2673 17.0387 10.1214Z" fill="#696F88"/>
<path fill-rule="evenodd" clip-rule="evenodd" d="M18.1043 7.50082C18.1672 7.56372 18.3549 7.68093 18.7802 7.60586C19.2006 7.53168 19.7286 7.27705 20.2051 6.80055C20.6816 6.32405 20.9362 5.79601 21.0104 5.37566C21.0855 4.95029 20.9683 4.76267 20.9054 4.69976C20.8425 4.63685 20.6549 4.51965 20.2295 4.59471C19.8091 4.66889 19.2811 4.92352 18.8046 5.40002C18.3281 5.87652 18.0735 6.40457 17.9993 6.82492C17.9242 7.25029 18.0414 7.43791 18.1043 7.50082Z" fill="#696F88"/>
<path d="M22.5 17.25V18.25L14.5 20.75L7.5 18.81V20.25H1.5V9.25H9.47L15.63 11.55C16.75 11.97 17.5 13.05 17.5 14.25H19.5C21.16 14.25 22.5 15.59 22.5 17.25ZM5.5 18.25V11.25H3.5V18.25H5.5ZM20.4 16.82C20.24 16.49 19.89 16.26 19.5 16.26H14.15C13.61 16.26 13.08 16.17 12.57 16L10.19 15.21L10.82 13.31L13.2 14.1C13.51 14.2 15.5 14.25 15.5 14.25C15.5 13.88 15.27 13.55 14.93 13.42L9.11 11.25H7.5V16.73L14.47 18.66L20.4 16.82Z" fill="#696F88"/>
</svg>
