<svg width="24" height="24" viewBox="0 0 24 24" fill="none" xmlns="http://www.w3.org/2000/svg">
<path d="M12.4811 4.00218C12.4171 4.1129 12.3459 4.21506 12.2692 4.30764C12.6922 4.52418 13.0822 4.78485 13.4312 5.08247C13.4858 4.96285 13.5753 4.8383 13.7067 4.7069C14.4138 3.99979 14.8887 4.47466 15.4745 5.06045C16.0603 5.64624 16.2186 6.43769 15.828 6.82822C15.6001 7.05614 15.2356 7.09712 14.8552 6.97528C14.9985 7.30305 15.1055 7.64658 15.1721 8.00209C15.1149 8.00071 15.0575 8.00002 15 8.00002C14.7152 8.00002 14.4344 8.01702 14.1585 8.05008C13.8309 6.63263 12.6651 5.40209 11.0389 4.87174C11.0124 4.865 10.9863 4.85674 10.9608 4.84691C10.4339 4.68381 9.86008 4.59377 9.25195 4.59377C6.36473 4.59377 4.25195 6.6235 4.25195 8.86394C4.25195 9.28309 4.32275 9.68957 4.45658 10.0752C4.12067 10.1698 3.8206 10.3499 3.58136 10.5905C3.36791 10.0496 3.25195 9.46867 3.25195 8.86394C3.25195 8.13453 3.42065 7.43973 3.72565 6.80801C3.20102 7.15817 2.61189 7.20663 2.29191 6.88666C1.90139 6.49614 2.05968 5.70468 2.64547 5.11889C3.23125 4.53311 3.72926 4.08137 4.41323 4.76534C4.63306 4.98516 4.73865 5.18254 4.76219 5.36779C5.13668 4.99702 5.56979 4.67297 6.04876 4.40684C5.93862 4.2898 5.83707 4.15405 5.74939 4.00218C5.33518 3.28474 5.38712 2.47928 5.86542 2.20314C6.34371 1.927 7.06723 2.28474 7.48144 3.00218C7.62634 3.25315 7.7142 3.5149 7.74671 3.76099C8.22772 3.65183 8.73211 3.59377 9.25195 3.59377C9.67701 3.59377 10.0918 3.63259 10.4918 3.70643C10.5295 3.47644 10.6148 3.23469 10.749 3.00218C11.1632 2.28474 11.8868 1.927 12.365 2.20314C12.8433 2.47928 12.8953 3.28474 12.4811 4.00218Z" fill="#696F88"/>
<path d="M11.9522 8.6966C11.8237 8.29265 11.4455 8.00002 10.999 8.00002C10.4467 8.00002 9.99902 8.44773 9.99902 9.00002C9.99902 9.30644 10.1368 9.58068 10.3539 9.76411C10.8325 9.33908 11.3698 8.97868 11.9522 8.6966Z" fill="#696F88"/>
<path fill-rule="evenodd" clip-rule="evenodd" d="M9.25469 11H4.99902C3.89445 11 2.99902 11.8954 2.99902 13C2.99902 14.1046 3.89445 15 4.99902 15H8C8 13.5128 8.46381 12.1339 9.25469 11ZM6.99902 14C7.5513 14 7.99902 13.5523 7.99902 13C7.99902 12.4477 7.5513 12 6.99902 12C6.44673 12 5.99902 12.4477 5.99902 13C5.99902 13.5523 6.44673 14 6.99902 14Z" fill="#696F88"/>
<path d="M7.99902 9.00002C7.99902 9.5523 7.5513 10 6.99902 10C6.44673 10 5.99902 9.5523 5.99902 9.00002C5.99902 8.44773 6.44673 8.00002 6.99902 8.00002C7.5513 8.00002 7.99902 8.44773 7.99902 9.00002Z" fill="#696F88"/>
<path fill-rule="evenodd" clip-rule="evenodd" d="M15 21C18.3137 21 21 18.3137 21 15C21 11.6863 18.3137 9.00002 15 9.00002C11.6863 9.00002 9 11.6863 9 15C9 18.3137 11.6863 21 15 21ZM15 22C18.866 22 22 18.866 22 15C22 11.134 18.866 8.00002 15 8.00002C11.134 8.00002 8 11.134 8 15C8 18.866 11.134 22 15 22Z" fill="#696F88"/>
<path d="M14.4348 20.9942V19.403L14.3676 19.4102C14.2596 19.4222 14.142 19.4342 13.9896 19.4342C13.5756 19.4342 13.2312 19.3046 12.9672 19.0502C12.6336 18.7298 12.414 18.203 12.3144 17.483C12.474 17.4314 12.6888 17.3822 13.0536 17.3822C13.4376 17.3822 13.7592 17.4938 14.0112 17.7158L14.0136 17.717C14.2692 17.9234 14.4588 18.2438 14.5944 18.695C14.7492 19.2338 14.952 19.3694 15.0876 19.4594C15.234 19.553 15.3492 19.6274 15.3492 20.129V20.993H14.4348V20.9942ZM16.0332 18.9422C15.6864 18.9422 15.4704 18.8882 15.306 18.8306C15.4008 18.119 15.618 17.5946 15.9504 17.2706C16.2192 17.0102 16.566 16.8782 16.9824 16.8782C17.3292 16.8782 17.5524 16.9346 17.7096 16.9898C17.5392 18.2858 16.9752 18.9422 16.0332 18.9422ZM13.9908 17.0582C13.5768 17.0582 13.2324 16.9286 12.9684 16.6742C12.6348 16.3538 12.4152 15.827 12.3156 15.107C12.4752 15.0554 12.69 15.0062 13.0548 15.0062C13.986 15.0062 14.5488 15.6614 14.73 16.955C14.5332 17.0114 14.3208 17.0582 13.9908 17.0582ZM16.0332 16.5662C15.6864 16.5662 15.4704 16.5122 15.306 16.4546C15.4008 15.743 15.618 15.2186 15.9504 14.8946C16.2192 14.6342 16.566 14.5022 16.9824 14.5022C17.3292 14.5022 17.5524 14.5586 17.7096 14.6138C17.5392 15.9098 16.9752 16.5662 16.0332 16.5662ZM13.9908 14.6822C13.5768 14.6822 13.2324 14.5526 12.9684 14.2982C12.6348 13.9778 12.4152 13.451 12.3156 12.731C12.5196 12.6626 12.7296 12.6182 13.0548 12.6182C13.4652 12.6182 13.8096 12.7502 14.0772 13.0118C14.4108 13.337 14.6292 13.8638 14.73 14.579C14.5332 14.6354 14.3208 14.6822 13.9908 14.6822ZM16.0332 14.1902C15.6864 14.1902 15.4704 14.1362 15.306 14.0786C15.4008 13.367 15.618 12.8426 15.9504 12.5186C16.2192 12.2582 16.566 12.1262 16.9824 12.1262C17.3292 12.1262 17.5524 12.1826 17.7096 12.2378C17.5392 13.5338 16.9752 14.1902 16.0332 14.1902ZM14.892 12.8738C14.7612 12.7574 14.508 12.5174 14.2848 12.233C14.0532 11.9378 13.9308 11.6894 13.9308 11.5142C13.9308 11.333 14.0532 11.081 14.2848 10.7846C14.5068 10.499 14.7612 10.259 14.892 10.1426C15.0228 10.259 15.2772 10.5002 15.4992 10.7846C15.7308 11.081 15.8532 11.333 15.8532 11.5142C15.8532 11.6894 15.7308 11.939 15.4992 12.233C15.276 12.5186 15.0216 12.7574 14.892 12.8738Z" fill="#696F88"/>
</svg>
