<svg width="24" height="24" viewBox="0 0 24 24" fill="none" xmlns="http://www.w3.org/2000/svg">
<path d="M12.4811 4.00218C12.4171 4.1129 12.3459 4.21506 12.2692 4.30764C12.6922 4.52418 13.0822 4.78485 13.4312 5.08247C13.4858 4.96285 13.5753 4.8383 13.7067 4.7069C14.4138 3.99979 14.8887 4.47466 15.4745 5.06045C16.0603 5.64624 16.2186 6.43769 15.828 6.82822C15.6001 7.05614 15.2356 7.09712 14.8552 6.97528C14.9985 7.30305 15.1055 7.64658 15.1721 8.00209C15.1149 8.00071 15.0575 8.00002 15 8.00002C14.7152 8.00002 14.4344 8.01702 14.1585 8.05008C13.8309 6.63263 12.6651 5.40209 11.0389 4.87174C11.0124 4.865 10.9863 4.85674 10.9608 4.84691C10.4339 4.68381 9.86008 4.59377 9.25195 4.59377C6.36473 4.59377 4.25195 6.6235 4.25195 8.86394C4.25195 9.28309 4.32275 9.68957 4.45658 10.0752C4.12067 10.1698 3.8206 10.3499 3.58136 10.5905C3.36791 10.0496 3.25195 9.46867 3.25195 8.86394C3.25195 8.13453 3.42065 7.43973 3.72565 6.80801C3.20102 7.15817 2.61189 7.20663 2.29191 6.88666C1.90139 6.49614 2.05968 5.70468 2.64547 5.11889C3.23125 4.53311 3.72926 4.08136 4.41323 4.76534C4.63306 4.98516 4.73865 5.18254 4.76219 5.36779C5.13668 4.99702 5.56979 4.67297 6.04876 4.40684C5.93862 4.2898 5.83707 4.15405 5.74939 4.00218C5.33518 3.28474 5.38712 2.47928 5.86542 2.20314C6.34371 1.927 7.06723 2.28474 7.48144 3.00218C7.62634 3.25315 7.7142 3.5149 7.74671 3.76099C8.22772 3.65183 8.73211 3.59377 9.25195 3.59377C9.67701 3.59377 10.0918 3.63259 10.4918 3.70643C10.5295 3.47644 10.6148 3.23469 10.749 3.00218C11.1632 2.28474 11.8868 1.927 12.365 2.20314C12.8433 2.47928 12.8953 3.28474 12.4811 4.00218Z" fill="#696F88"/>
<path d="M11.9522 8.6966C11.8237 8.29265 11.4455 8.00002 10.999 8.00002C10.4467 8.00002 9.99902 8.44773 9.99902 9.00002C9.99902 9.30644 10.1368 9.58068 10.3539 9.76411C10.8325 9.33908 11.3698 8.97868 11.9522 8.6966Z" fill="#696F88"/>
<path fill-rule="evenodd" clip-rule="evenodd" d="M9.25469 11H4.99902C3.89445 11 2.99902 11.8954 2.99902 13C2.99902 14.1046 3.89445 15 4.99902 15H8C8 13.5128 8.46381 12.1339 9.25469 11ZM6.99902 14C7.5513 14 7.99902 13.5523 7.99902 13C7.99902 12.4477 7.5513 12 6.99902 12C6.44673 12 5.99902 12.4477 5.99902 13C5.99902 13.5523 6.44673 14 6.99902 14Z" fill="#696F88"/>
<path d="M7.99902 9.00002C7.99902 9.5523 7.5513 10 6.99902 10C6.44673 10 5.99902 9.5523 5.99902 9.00002C5.99902 8.44773 6.44673 8.00002 6.99902 8.00002C7.5513 8.00002 7.99902 8.44773 7.99902 9.00002Z" fill="#696F88"/>
<path fill-rule="evenodd" clip-rule="evenodd" d="M15 21C18.3137 21 21 18.3137 21 15C21 11.6863 18.3137 9.00002 15 9.00002C11.6863 9.00002 9 11.6863 9 15C9 18.3137 11.6863 21 15 21ZM15 22C18.866 22 22 18.866 22 15C22 11.134 18.866 8.00002 15 8.00002C11.134 8.00002 8 11.134 8 15C8 18.866 11.134 22 15 22Z" fill="#696F88"/>
<path d="M17.3784 20.9936C17.0544 20.3612 16.8132 19.5476 16.68 18.752C16.572 18.1568 16.5324 17.4272 16.5732 16.7492C16.6068 16.0952 16.7172 15.4256 16.8816 14.8568C17.088 15.0116 17.3232 15.098 17.5992 15.1208C17.5404 15.3284 17.3784 15.9572 17.3304 16.814V16.8152C17.3064 17.6144 17.3544 18.1052 17.4396 18.638C17.538 19.2068 17.7084 19.9808 18.2292 20.9924H17.3784V20.9936ZM14.142 20.9936C14.3172 20.5652 14.6292 19.5188 14.76 18.3116C14.8512 17.4668 14.8356 16.7108 14.712 16.0028C14.5728 15.1436 14.2896 14.402 13.8696 13.7984C14.1072 13.7024 14.2992 13.5572 14.4924 13.3292C15.0012 14.0828 15.3252 14.9252 15.4824 15.9032C15.6072 16.6748 15.6192 17.5436 15.5184 18.4184C15.384 19.7048 15.042 20.7644 14.9592 20.9936H14.142ZM11.5644 20.9936C12.0852 19.9208 12.1512 19.118 12.186 18.7148L12.1872 18.6956C12.222 18.3248 12.2064 18.0452 12.1956 17.918C12.2352 17.9216 12.2736 17.9228 12.312 17.9228C12.5364 17.9228 12.7464 17.8748 12.9528 17.7764C13.0044 18.398 12.9912 19.6496 12.402 20.9948H11.5644V20.9936ZM12.0456 17.3336C11.3508 17.3336 10.5444 16.8512 10.5444 16.2296C10.5444 16.0376 10.6188 15.86 10.7532 15.7268C10.8864 15.5948 11.064 15.5216 11.2536 15.5216C11.5344 15.5216 11.82 15.7268 12.1056 16.1324L12.2112 16.2836L12.2148 16.0988C12.222 15.6812 12.3288 14.9816 12.972 14.9816C13.41 14.9816 13.7052 15.3044 13.7052 15.7856C13.7052 16.1588 13.5252 16.5464 13.212 16.8476C12.888 17.1572 12.4632 17.3336 12.0456 17.3336ZM18.0504 14.5376C17.61 14.5376 17.1948 14.3552 16.8828 14.0228C16.5864 13.7084 16.4172 13.292 16.4172 12.8816C16.4172 12.6428 16.494 12.4268 16.6344 12.2756C16.7664 12.1328 16.9452 12.0536 17.1384 12.0536C17.358 12.0536 17.5428 12.1388 17.6724 12.3008C17.802 12.4628 17.8704 12.6932 17.8704 12.9656C17.8704 13.0484 17.8608 13.1312 17.85 13.226L17.8272 13.4288L17.9484 13.3076C18.2808 12.9752 18.5532 12.8216 18.8064 12.8216C19.1772 12.8216 19.5036 13.1408 19.5036 13.5056C19.5036 13.79 19.3416 14.054 19.0488 14.2496C18.7728 14.432 18.4092 14.5376 18.0504 14.5376ZM12.5856 13.4816C12.2664 13.4816 11.9808 13.4024 11.7804 13.2572C11.5764 13.1108 11.4684 12.9056 11.4684 12.6656C11.4684 12.4796 11.5416 12.3044 11.676 12.1724C11.808 12.0416 11.982 11.9696 12.1656 11.9696C12.3636 11.9696 12.6132 12.044 12.9072 12.1916L13.0596 12.2672L12.9888 12.1124C12.8532 11.8172 12.7896 11.5928 12.7896 11.4056C12.7896 11.2088 12.8676 11.0252 13.0104 10.8872C13.1436 10.7588 13.3164 10.6856 13.4868 10.6856C13.7148 10.6856 13.9236 10.8008 14.0748 11.012C14.22 11.2148 14.304 11.4932 14.304 11.7776C14.304 12.248 14.1336 12.6788 13.824 12.9908C13.5096 13.3076 13.0704 13.4816 12.5856 13.4816Z" fill="#696F88"/>
</svg>
