<svg width="24" height="24" viewBox="0 0 24 24" fill="none" xmlns="http://www.w3.org/2000/svg">
<path d="M12.4811 4.00218C12.4171 4.1129 12.3459 4.21506 12.2692 4.30764C12.6922 4.52418 13.0822 4.78485 13.4312 5.08247C13.4858 4.96285 13.5753 4.8383 13.7067 4.7069C14.4138 3.99979 14.8887 4.47466 15.4745 5.06045C16.0603 5.64624 16.2186 6.43769 15.828 6.82822C15.6001 7.05614 15.2356 7.09712 14.8552 6.97528C14.9985 7.30305 15.1055 7.64658 15.1721 8.00209C15.1149 8.00071 15.0575 8.00002 15 8.00002C14.7152 8.00002 14.4344 8.01702 14.1585 8.05008C13.8309 6.63263 12.6651 5.40209 11.0389 4.87174C11.0124 4.865 10.9863 4.85674 10.9608 4.84691C10.4339 4.68381 9.86008 4.59377 9.25195 4.59377C6.36473 4.59377 4.25195 6.6235 4.25195 8.86394C4.25195 9.28309 4.32275 9.68957 4.45658 10.0752C4.12067 10.1698 3.8206 10.3499 3.58136 10.5905C3.36791 10.0496 3.25195 9.46867 3.25195 8.86394C3.25195 8.13453 3.42065 7.43973 3.72565 6.80801C3.20102 7.15817 2.61189 7.20663 2.29191 6.88666C1.90139 6.49614 2.05968 5.70468 2.64547 5.11889C3.23125 4.53311 3.72926 4.08137 4.41323 4.76534C4.63306 4.98516 4.73865 5.18254 4.76219 5.36779C5.13668 4.99702 5.56979 4.67297 6.04876 4.40684C5.93862 4.2898 5.83707 4.15405 5.74939 4.00218C5.33518 3.28474 5.38712 2.47928 5.86542 2.20314C6.34371 1.927 7.06723 2.28474 7.48144 3.00218C7.62634 3.25315 7.7142 3.5149 7.74671 3.76099C8.22772 3.65183 8.73211 3.59377 9.25195 3.59377C9.67701 3.59377 10.0918 3.63259 10.4918 3.70643C10.5295 3.47644 10.6148 3.23469 10.749 3.00218C11.1632 2.28474 11.8868 1.927 12.365 2.20314C12.8433 2.47928 12.8953 3.28474 12.4811 4.00218Z" fill="#696F88"/>
<path d="M11.9522 8.6966C11.8237 8.29265 11.4455 8.00002 10.999 8.00002C10.4467 8.00002 9.99902 8.44773 9.99902 9.00002C9.99902 9.30644 10.1368 9.58068 10.3539 9.76411C10.8325 9.33908 11.3698 8.97868 11.9522 8.6966Z" fill="#696F88"/>
<path fill-rule="evenodd" clip-rule="evenodd" d="M9.25469 11H4.99902C3.89445 11 2.99902 11.8954 2.99902 13C2.99902 14.1046 3.89445 15 4.99902 15H8C8 13.5128 8.46381 12.1339 9.25469 11ZM6.99902 14C7.5513 14 7.99902 13.5523 7.99902 13C7.99902 12.4477 7.5513 12 6.99902 12C6.44673 12 5.99902 12.4477 5.99902 13C5.99902 13.5523 6.44673 14 6.99902 14Z" fill="#696F88"/>
<path d="M7.99902 9.00002C7.99902 9.5523 7.5513 10 6.99902 10C6.44673 10 5.99902 9.5523 5.99902 9.00002C5.99902 8.44773 6.44673 8.00002 6.99902 8.00002C7.5513 8.00002 7.99902 8.44773 7.99902 9.00002Z" fill="#696F88"/>
<path fill-rule="evenodd" clip-rule="evenodd" d="M15 21C18.3137 21 21 18.3137 21 15C21 11.6863 18.3137 9.00002 15 9.00002C11.6863 9.00002 9 11.6863 9 15C9 18.3137 11.6863 21 15 21ZM15 22C18.866 22 22 18.866 22 15C22 11.134 18.866 8.00002 15 8.00002C11.134 8.00002 8 11.134 8 15C8 18.866 11.134 22 15 22Z" fill="#696F88"/>
<path d="M14.5715 20.9946V19.7466C14.5715 19.5606 14.4659 19.4946 14.3675 19.4946C14.3075 19.4946 14.2571 19.5114 14.2043 19.5294C14.1335 19.5522 14.0543 19.5786 13.9235 19.5786C13.6139 19.5786 13.2815 19.4274 12.9599 19.1418C12.6191 18.8382 12.3047 18.399 12.0227 17.8351L12.7859 17.9778L12.5003 17.3227C13.2047 17.4895 13.7567 17.7079 14.1443 17.9754C14.5319 18.243 14.7275 18.5394 14.7275 18.8574C14.7275 18.9162 14.7167 18.9786 14.7059 19.0458C14.6927 19.1238 14.6795 19.203 14.6795 19.2894C14.6795 19.5186 14.8583 19.593 15.0647 19.6794C15.1175 19.701 15.1727 19.725 15.2291 19.7514C15.4211 19.8414 15.4835 19.9458 15.4835 20.1774V20.9934H14.5715V20.9946ZM16.1327 19.1466C15.6743 19.1466 15.3275 18.837 15.3275 18.4266C15.3275 18.1087 15.5243 17.8111 15.9107 17.5447C16.2983 17.2771 16.8503 17.0587 17.5547 16.8919L17.2691 17.5471L18.0311 17.4043C17.7491 17.9646 17.4347 18.4026 17.0951 18.7062C16.7735 18.9942 16.4411 19.1466 16.1327 19.1466ZM13.9223 17.1667C13.6127 17.1667 13.2803 17.0155 12.9587 16.7299C12.6179 16.4263 12.3035 15.9871 12.0215 15.4231L12.7847 15.5659L12.4991 14.9107C13.2035 15.0775 13.7555 15.2959 14.1431 15.5635C14.5307 15.8311 14.7263 16.1275 14.7263 16.4455C14.7275 16.8571 14.3819 17.1667 13.9223 17.1667ZM16.1327 16.7347C15.6743 16.7347 15.3275 16.4251 15.3275 16.0147C15.3275 15.6967 15.5243 15.3991 15.9107 15.1327C16.2983 14.8651 16.8503 14.6467 17.5547 14.4799L17.2691 15.1351L18.0311 14.9923C17.7491 15.5527 17.4347 15.9907 17.0951 16.2943C16.7735 16.5823 16.4411 16.7347 16.1327 16.7347ZM13.9223 14.7547C13.6127 14.7547 13.2803 14.6035 12.9587 14.3179C12.6179 14.0143 12.3035 13.5751 12.0215 13.0111L12.7847 13.1539L12.4991 12.4999C13.2059 12.6715 13.7579 12.8923 14.1431 13.1563C14.5307 13.4215 14.7263 13.7167 14.7263 14.0335C14.7275 14.4451 14.3819 14.7547 13.9223 14.7547ZM16.1327 14.3227C15.6743 14.3227 15.3275 14.0131 15.3275 13.6027C15.3275 13.2847 15.5243 12.9871 15.9107 12.7207C16.2983 12.4531 16.8503 12.2347 17.5547 12.0679L17.2691 12.7231L18.0311 12.5803C17.7491 13.1407 17.4347 13.5787 17.0951 13.8823C16.7735 14.1703 16.4411 14.3227 16.1327 14.3227ZM14.8835 12.6427C14.4407 12.6427 14.0663 12.1975 14.0663 11.6707C14.0663 11.1103 14.3051 10.5511 14.5247 10.1563L14.8823 10.7287L15.2399 10.1563C15.4595 10.5523 15.6983 11.1115 15.6983 11.6707C15.7007 12.1975 15.3263 12.6427 14.8835 12.6427Z" fill="#696F88"/>
</svg>
