<svg preserveAspectRatio="none" width="100%" height="100%" overflow="visible" style="display: block;" viewBox="0 0 13.9984 21" fill="none" xmlns="http://www.w3.org/2000/svg">
<g id="icon/for_review/spray_24px">
<path fill-rule="evenodd" clip-rule="evenodd" d="M5.49934 10H8.49934L9.87644 13.6467C10.1234 14.3008 9.6401 15 8.94092 15H5.05879C4.35971 15 3.87637 14.301 4.12318 13.647L5.49934 10ZM6.49934 12L5.99934 13H7.99934L7.49934 12H6.49934Z" fill="#696F88"/>
<path fill-rule="evenodd" clip-rule="evenodd" d="M5.99934 21L5.99934 17H7.99934L7.99934 21H5.99934Z" fill="#696F88"/>
<path fill-rule="evenodd" clip-rule="evenodd" d="M10.8314 19.0508L9.16731 16.5547L10.8314 15.4453L12.4955 17.9414L10.8314 19.0508Z" fill="#696F88"/>
<path fill-rule="evenodd" clip-rule="evenodd" d="M1.50321 17.9415L3.16731 15.4453L4.83141 16.5547L3.16731 19.0509L1.50321 17.9415Z" fill="#696F88"/>
<path fill-rule="evenodd" clip-rule="evenodd" d="M0.188665 1.58212C-0.285107 0.920364 0.187896 0 1.00177 0H12.9966C13.8105 0 14.2835 0.92034 13.8097 1.5821L8.49934 9H5.49934L0.188665 1.58212ZM2.94236 2L6.51378 7H7.48455L11.056 2H2.94236Z" fill="#696F88"/>
</g>
</svg>
