<svg width="24" height="24" viewBox="0 0 24 24" fill="none" xmlns="http://www.w3.org/2000/svg">
<path fill-rule="evenodd" clip-rule="evenodd" d="M5 6C5.55228 6 6 5.55228 6 5C6 4.44772 5.55228 4 5 4C4.44772 4 4 4.44772 4 5C4 5.55228 4.44772 6 5 6ZM5 8C6.30622 8 7.41746 7.16519 7.82929 6H9.17071C9.58254 7.16519 10.6938 8 12 8C13.3062 8 14.4175 7.16519 14.8293 6H16.1707C16.5825 7.16519 17.6938 8 19 8C20.6569 8 22 6.65685 22 5C22 3.34315 20.6569 2 19 2C17.6938 2 16.5825 2.83481 16.1707 4H14.8293C14.4175 2.83481 13.3062 2 12 2C10.6938 2 9.58254 2.83481 9.17071 4H7.82929C7.41746 2.83481 6.30622 2 5 2C3.34315 2 2 3.34315 2 5C2 6.65685 3.34315 8 5 8ZM12 6C12.5523 6 13 5.55228 13 5C13 4.44772 12.5523 4 12 4C11.4477 4 11 4.44772 11 5C11 5.55228 11.4477 6 12 6ZM12 15C13.3062 15 14.4175 14.1652 14.8293 13H16.1707C16.5825 14.1652 17.6938 15 19 15C20.6569 15 22 13.6569 22 12C22 10.3431 20.6569 9 19 9C17.6938 9 16.5825 9.83481 16.1707 11H14.8293C14.4175 9.83481 13.3062 9 12 9C10.6938 9 9.58254 9.83481 9.17071 11H7.82929C7.41746 9.83481 6.30622 9 5 9C3.34315 9 2 10.3431 2 12C2 13.6569 3.34315 15 5 15C6.30622 15 7.41746 14.1652 7.82929 13H9.17071C9.58254 14.1652 10.6938 15 12 15ZM13 19C13 19.5523 12.5523 20 12 20C11.4477 20 11 19.5523 11 19C11 18.4477 11.4477 18 12 18C12.5523 18 13 18.4477 13 19ZM14.8293 20C14.4175 21.1652 13.3062 22 12 22C10.6938 22 9.58254 21.1652 9.17071 20H7.82929C7.41746 21.1652 6.30622 22 5 22C3.34315 22 2 20.6569 2 19C2 17.3431 3.34315 16 5 16C6.30622 16 7.41746 16.8348 7.82929 18H9.17071C9.58254 16.8348 10.6938 16 12 16C13.3062 16 14.4175 16.8348 14.8293 18H16.1707C16.5825 16.8348 17.6938 16 19 16C20.6569 16 22 17.3431 22 19C22 20.6569 20.6569 22 19 22C17.6938 22 16.5825 21.1652 16.1707 20H14.8293ZM5 20C5.55228 20 6 19.5523 6 19C6 18.4477 5.55228 18 5 18C4.44772 18 4 18.4477 4 19C4 19.5523 4.44772 20 5 20ZM20 5C20 5.55228 19.5523 6 19 6C18.4477 6 18 5.55228 18 5C18 4.44772 18.4477 4 19 4C19.5523 4 20 4.44772 20 5ZM20 19C20 19.5523 19.5523 20 19 20C18.4477 20 18 19.5523 18 19C18 18.4477 18.4477 18 19 18C19.5523 18 20 18.4477 20 19Z" fill="#696F88"/>
</svg>
