<svg width="24" height="24" viewBox="0 0 24 24" fill="none" xmlns="http://www.w3.org/2000/svg">
<path fill-rule="evenodd" clip-rule="evenodd" d="M16.2061 8.00608C16.2388 8.23437 16.2702 8.45352 16.2702 8.69358C16.2702 8.93364 16.2388 9.15279 16.2061 9.38108C16.2047 9.39103 16.2033 9.40099 16.2019 9.41097L17.5 10.5611L16.3613 12.5311L14.7101 11.9731C14.3458 12.2805 13.9358 12.5197 13.4803 12.6905L13.1387 14.3872H10.8613L10.5197 12.6905C10.0642 12.5197 9.65424 12.2805 9.28986 11.9731L7.63872 12.5311L6.5 10.5611L7.79814 9.41097C7.79671 9.40099 7.79528 9.39102 7.79386 9.38108C7.76118 9.15278 7.72981 8.93364 7.72981 8.69358C7.72981 8.45352 7.76118 8.23438 7.79386 8.00608C7.79528 7.99614 7.79671 7.98617 7.79814 7.97619L6.5 6.82609L7.63872 4.85611L9.28986 5.41408C9.65424 5.10663 10.0642 4.86749 10.5197 4.69669L10.8613 3H13.1387L13.4803 4.69669C13.9358 4.86749 14.3458 5.10663 14.7101 5.41408L16.3613 4.85611L17.5 6.82609L16.2019 7.97619C16.2033 7.98617 16.2047 7.99613 16.2061 8.00608ZM9.72257 8.69358C9.72257 9.94617 10.7474 10.971 12 10.971C13.2526 10.971 14.2774 9.94617 14.2774 8.69358C14.2774 7.44099 13.2526 6.41615 12 6.41615C10.7474 6.41615 9.72257 7.44099 9.72257 8.69358Z" fill="#696F88"/>
<path fill-rule="evenodd" clip-rule="evenodd" d="M1 15C1 13.8954 1.89543 13 3 13H5.21922C6.14526 13 6.85523 13.614 7.18208 14.2904C7.63068 15.2189 8.86039 17 12 17C15.1396 17 16.3693 15.2189 16.8179 14.2904C17.1448 13.614 17.8547 13 18.7808 13H21C22.1046 13 23 13.8954 23 15V23H1V15ZM3 15V21H21V15H18.7808C18.7808 15 18.7772 15 18.77 15.0024C18.762 15.0051 18.7482 15.0112 18.73 15.0241C18.6912 15.0515 18.6484 15.0991 18.6187 15.1606C17.9531 16.538 16.1432 19 12 19C7.85681 19 6.04685 16.538 5.38128 15.1606C5.35156 15.0991 5.30878 15.0515 5.26998 15.0241C5.25184 15.0112 5.23796 15.0051 5.22997 15.0024C5.22277 15 5.21925 15 5.21925 15H3Z" fill="#696F88"/>
</svg>
