<svg width="24" height="24" viewBox="0 0 24 24" fill="none" xmlns="http://www.w3.org/2000/svg">
<path d="M22.0003 12.7597C21.2803 12.2797 20.4303 11.9997 19.5003 11.9997C17.1903 11.9997 15.3003 13.7497 15.0503 15.9997H11.9103C11.9603 15.6697 12.0003 15.3397 12.0003 14.9997C12.0003 13.4597 11.4103 12.0597 10.4603 10.9997H11.0003C12.1003 10.9997 13.0003 10.0997 13.0003 8.9997V6.7097L11.9403 5.6497L10.5303 7.0597L9.82031 6.3497L13.3503 2.8197L14.0603 3.5297L12.6503 4.9397L13.7103 5.9997H20.0003C21.1003 5.9997 22.0003 6.8997 22.0003 7.9997V12.7597Z" fill="#696F88"/>
<path fill-rule="evenodd" clip-rule="evenodd" d="M16 16.4994C16 14.5694 17.57 12.9994 19.5 12.9994C21.43 12.9994 23 14.5694 23 16.4994C23 18.4294 21.43 19.9994 19.5 19.9994C17.57 19.9994 16 18.4294 16 16.4994ZM18 16.4994C18 17.3294 18.67 17.9994 19.5 17.9994C20.33 17.9994 21 17.3294 21 16.4994C21 15.6694 20.33 14.9994 19.5 14.9994C18.67 14.9994 18 15.6694 18 16.4994Z" fill="#696F88"/>
<path d="M4 8.99939H9C9 7.89939 8.1 6.99939 7 6.99939H4C3.45 6.99939 3 7.44939 3 7.99939C3 8.54939 3.45 8.99939 4 8.99939Z" fill="#696F88"/>
<path fill-rule="evenodd" clip-rule="evenodd" d="M9.65 13.3494L9.83 13.8194L10.74 13.4794C10.89 13.9594 11 14.4694 11 14.9994C11 15.6394 10.87 16.2594 10.65 16.8094L9.75 16.4094L9.54 16.8694L10.43 17.2694C9.91 18.2994 9.06 19.1194 8 19.5794L7.65 18.6494L7.18 18.8294L7.52 19.7394C7.04 19.8894 6.53 19.9994 6 19.9994C5.36 19.9994 4.74 19.8694 4.19 19.6494L4.59 18.7494L4.13 18.5394L3.73 19.4294C2.7 18.9094 1.88 18.0594 1.42 16.9994L2.35 16.6494L2.17 16.1794L1.26 16.5194C1.11 16.0394 1 15.5294 1 14.9994C1 14.3594 1.13 13.7394 1.35 13.1894L2.25 13.5894L2.46 13.1294L1.57 12.7294C2.09 11.6994 2.94 10.8794 4 10.4194L4.35 11.3494L4.82 11.1694L4.48 10.2594C4.96 10.1094 5.47 9.99939 6 9.99939C6.64 9.99939 7.26 10.1294 7.81 10.3494L7.41 11.2494L7.87 11.4594L8.27 10.5694C9.3 11.0894 10.12 11.9394 10.58 12.9994L9.65 13.3494ZM3.23 16.1494C3.86 17.6794 5.62 18.3994 7.15 17.7694C8.68 17.1394 9.41 15.3794 8.77 13.8494C8.14 12.3194 6.38 11.5994 4.85 12.2294C3.32 12.8594 2.6 14.6194 3.23 16.1494Z" fill="#696F88"/>
</svg>
