<svg width="24" height="24" viewBox="0 0 24 24" fill="none" xmlns="http://www.w3.org/2000/svg">
<path fill-rule="evenodd" clip-rule="evenodd" d="M8.28341 6.87839C8.06575 7.5814 7.60588 8.20487 6.92172 8.59987C5.48411 9.42987 3.65364 8.9394 2.82364 7.50179C1.99364 6.06419 2.48411 4.23372 3.92172 3.40372C5.35932 2.57372 7.18979 3.06419 8.01979 4.50179C8.13979 4.70964 8.22015 4.92883 8.29185 5.15301H9.12976C9.20146 4.92883 9.28181 4.70964 9.40182 4.50179C9.90744 3.62602 10.7844 3.10174 11.7176 3.01335C11.8117 3.00442 11.9059 3 11.9999 3C12.0939 3 12.1881 3.00442 12.2822 3.01335C13.2154 3.10174 14.0923 3.62602 14.598 4.50179C14.718 4.70964 14.7983 4.92883 14.87 5.15301H15.7079C15.7796 4.92883 15.86 4.70964 15.98 4.50179C16.81 3.06419 18.6405 2.57372 20.0781 3.40372C21.5157 4.23372 22.0061 6.06419 21.1761 7.50179C20.3461 8.9394 18.5157 9.42987 17.0781 8.59987C16.3939 8.20487 15.934 7.5814 15.7164 6.87839H14.8616C14.6439 7.5814 14.1841 8.20487 13.4999 8.59987C13.3376 8.69357 13.1703 8.77044 13 8.83102V11H19C20.1 11 21 11.9 21 13V19C21 20.1 20.1 21 19 21H5C3.9 21 3 20.1 3 19V13C3 11.9 3.9 11 5 11H11V8.8311C10.8296 8.77051 10.6623 8.69361 10.4999 8.59987C9.81573 8.20487 9.35585 7.5814 9.1382 6.87839H8.28341ZM5.41992 7C4.86992 7 4.41992 6.55 4.41992 6C4.41992 5.45 4.86992 5 5.41992 5C5.96992 5 6.41992 5.45 6.41992 6C6.41992 6.55 5.96992 7 5.41992 7ZM17.5698 6C17.5698 6.55 18.0198 7 18.5698 7C19.1198 7 19.5698 6.55 19.5698 6C19.5698 5.45 19.1198 5 18.5698 5C18.0198 5 17.5698 5.45 17.5698 6ZM12.02 7C11.47 7 11.02 6.55 11.02 6C11.02 5.45 11.47 5 12.02 5C12.57 5 13.02 5.45 13.02 6C13.02 6.55 12.57 7 12.02 7ZM5 19H19V17H5V19ZM5 13V15H8V14H10V15H19V13H5Z" fill="#696F88"/>
</svg>
