<svg width="24" height="24" viewBox="0 0 24 24" fill="none" xmlns="http://www.w3.org/2000/svg">
<path d="M2.80965 2.80859L1.38965 4.21859L4.07965 6.90859C2.77965 8.59859 1.99965 10.7086 1.99965 12.9986C1.99965 15.7586 3.11965 18.2586 4.92965 20.0686L6.34965 18.6486C4.89965 17.2086 3.99965 15.2086 3.99965 12.9986C3.99965 11.2486 4.56965 9.64859 5.50965 8.33859L6.93965 9.76859C6.34965 10.6986 5.99965 11.8086 5.99965 12.9986C5.99965 14.6586 6.67965 16.1486 7.75965 17.2386L9.17965 15.8186C8.44965 15.0986 7.99965 14.1086 7.99965 12.9986C7.99965 12.3686 8.14965 11.7686 8.40965 11.2386L10.0196 12.8486C10.0196 12.8986 9.99965 12.9486 9.99965 12.9986C9.99965 13.5486 10.2296 14.0486 10.5896 14.4086C10.9496 14.7686 11.4496 14.9986 11.9996 14.9986C12.0496 14.9986 12.0996 14.9886 12.1596 14.9786L19.7796 22.5986L21.1896 21.1886L2.80965 2.80859ZM17.6996 14.8686C17.8897 14.2786 17.9996 13.6486 17.9996 12.9986C17.9996 9.68859 15.3096 6.99859 11.9996 6.99859C11.3496 6.99859 10.7196 7.09859 10.1296 7.29859L11.8396 9.00859C11.8896 8.99859 11.9496 8.99859 11.9996 8.99859C14.2096 8.99859 15.9996 10.7886 15.9996 12.9986C15.9996 13.0486 15.9996 13.1086 15.9896 13.1586L17.6996 14.8686ZM11.9996 4.99859C16.4196 4.99859 19.9996 8.57859 19.9996 12.9986C19.9996 14.2186 19.7296 15.3686 19.2296 16.3986L20.7196 17.8886C21.5296 16.4486 21.9996 14.7786 21.9996 12.9986C21.9996 7.47859 17.5196 2.99859 11.9996 2.99859C10.2196 2.99859 8.55965 3.45859 7.10965 4.27859L8.58965 5.75859C9.62965 5.26859 10.7796 4.99859 11.9996 4.99859Z" fill="#696F88"/>
</svg>
