<svg preserveAspectRatio="none" width="100%" height="100%" overflow="visible" style="display: block;" viewBox="0 0 22.1693 20" fill="none" xmlns="http://www.w3.org/2000/svg">
<g id="vector">
<path d="M16.29 2.29L14 0H20V6L17.71 3.71L11.41 10L7.41 6L1.41 12L0 10.59L7.41 3.17L11.41 7.17L16.29 2.29Z" fill="var(--fill-0, #696F88)"/>
<path d="M16.5821 13.1615V12.3434H17.6264V13.1615H16.5821Z" fill="var(--fill-0, #696F88)"/>
<path fill-rule="evenodd" clip-rule="evenodd" d="M17.5782 20C17.3809 20 17.0521 19.9824 16.9494 19.9503L16.9462 19.9487C16.7248 19.8893 16.5772 19.7032 16.5772 19.4867C16.5772 19.4482 16.5821 19.4065 16.5917 19.3728L16.6109 19.2958L16.5355 19.2749C16.1971 19.1835 15.8891 18.999 15.6196 18.7247C15.2025 18.298 14.8849 17.6772 14.6491 16.8286C14.2304 15.3592 13.9545 14.8555 13.5807 14.2572C13.4556 14.0582 13.3513 13.9091 13.2679 13.7904L13.2671 13.7893C13.0784 13.519 13 13.4067 13 13.1936C13 13.0268 13.069 12.8696 13.1957 12.7509C13.3288 12.6257 13.5165 12.5568 13.7235 12.5568C13.916 12.5568 14.309 12.6177 14.8335 12.7878L14.933 12.8198L14.9394 12.7156C15.0244 11.2045 15.3212 9.79282 15.7736 8.7405C16.0094 8.19028 16.2805 7.76197 16.5772 7.46681C16.8868 7.15721 17.2205 7 17.5686 7C17.9167 7 18.2504 7.15721 18.56 7.46681C18.8567 7.76197 19.1262 8.19188 19.3636 8.7405C19.816 9.79282 20.1128 11.2061 20.1978 12.7204L20.2042 12.8247L20.3037 12.791C20.748 12.6434 21.125 12.5648 21.3977 12.5648C21.6463 12.5648 21.8485 12.6289 21.9848 12.7493C22.1051 12.8551 22.1693 13.0011 22.1693 13.1695C22.1693 13.3769 22.0662 13.5239 21.8806 13.7888L21.8773 13.7936L21.8641 13.8123C21.7719 13.9436 21.6595 14.1035 21.534 14.3101C20.9533 15.2389 20.7528 15.9287 20.4994 16.8013L20.4881 16.8382C20.2267 17.7446 19.9171 18.3525 19.5128 18.7504C19.2514 19.0054 18.961 19.1739 18.6225 19.2653L18.5487 19.2845L18.5648 19.3599C18.5744 19.4017 18.5792 19.4434 18.5792 19.4819C18.5792 19.7096 18.4348 19.8957 18.2103 19.9551L18.2071 19.9567C18.1268 19.9808 17.7707 20 17.5782 20ZM14.4742 13.8497C15.0389 14.7817 15.3164 15.5501 15.6051 16.5623C15.9548 17.7991 16.4265 18.4007 17.0473 18.4007C17.275 18.4007 17.8076 18.3108 17.8076 17.4863C17.8076 16.9762 17.5654 16.0907 16.8836 15.2742C16.4778 14.7865 15.7463 14.124 14.5672 13.731L14.3603 13.662L14.4742 13.8497ZM20.5619 13.7326C19.3989 14.1064 18.5985 14.7416 18.1317 15.2068L18.0867 15.2517L18.1188 15.3063C18.6145 16.1212 18.8471 17.0323 18.7765 17.8729L18.7541 18.1376L18.9193 17.929C19.1551 17.6323 19.354 17.1863 19.5273 16.5639C19.7743 15.6945 20.0294 14.8892 20.6534 13.8513L20.7641 13.6684L20.5619 13.7326ZM16.0703 11.4339C15.9885 12.0033 15.9404 12.6017 15.9308 13.208L15.9292 13.2562L15.9725 13.2786C16.5596 13.5962 17.0489 13.9684 17.429 14.3855L17.4852 14.4464L17.5445 14.3887C17.9456 14.0021 18.5022 13.6187 19.1535 13.2786L19.1968 13.2562V13.208C19.1968 12.9963 19.1872 12.7621 19.1695 12.5118L19.1647 12.4381H18.3482V11.6199H19.0765L19.0637 11.5285C19.0268 11.2558 18.9835 10.9895 18.9337 10.7377L18.9209 10.6719H18.0434V9.85378H18.7236L18.6931 9.75111C18.5407 9.23137 18.361 8.79664 18.1734 8.49186C17.9696 8.1598 17.7627 7.99297 17.5622 7.99297C17.3488 7.99297 17.1227 8.19028 16.9093 8.56244L16.8403 8.68275H17.498V9.38857H16.5468L16.5275 9.44311C16.4281 9.72865 16.3366 10.0671 16.2516 10.4473L16.2307 10.5452H17.097V11.3633H16.08L16.0703 11.4339Z" fill="var(--fill-0, #696F88)"/>
<path d="M8.25543 14.1103V14.7396H9.05873V14.1103H8.25543Z" fill="var(--fill-0, #696F88)"/>
<path fill-rule="evenodd" clip-rule="evenodd" d="M8.538 19.9617C8.61698 19.9864 8.86994 20 9.02171 20C9.16979 20 9.44373 19.9852 9.50543 19.9667L9.50789 19.9655C9.68065 19.9198 9.7917 19.7767 9.7917 19.6014C9.7917 19.5718 9.788 19.5397 9.7806 19.5077L9.76826 19.4497L9.82502 19.4348C10.0854 19.3645 10.3087 19.2349 10.5099 19.0387C10.8208 18.7327 11.059 18.2651 11.2601 17.5679L11.2688 17.5395C11.4637 16.8682 11.618 16.3376 12.0647 15.6231C12.1612 15.4642 12.2476 15.3413 12.3185 15.2403L12.3287 15.2258L12.3313 15.2222C12.474 15.0184 12.5533 14.9053 12.5533 14.7458C12.5533 14.6162 12.5039 14.5039 12.4114 14.4225C12.3065 14.33 12.151 14.2806 11.9598 14.2806C11.75 14.2806 11.46 14.3411 11.1182 14.4546L11.0417 14.4805L11.0368 14.4003C10.9714 13.2354 10.7431 12.1483 10.3951 11.3388C10.2125 10.9168 10.0052 10.5861 9.7769 10.3591C9.53874 10.1209 9.28208 10 9.01431 10C8.74654 10 8.48988 10.1209 8.25173 10.3591C8.02344 10.5861 7.8149 10.9156 7.63351 11.3388C7.28554 12.1483 7.05725 13.2342 6.99185 14.3966L6.98692 14.4768L6.91041 14.4521C6.50691 14.3213 6.20459 14.2744 6.05651 14.2744C5.89733 14.2744 5.75296 14.3275 5.65054 14.4237C5.55306 14.5151 5.5 14.636 5.5 14.7643C5.5 14.9282 5.5603 15.0146 5.70549 15.2225L5.70607 15.2233C5.77024 15.3147 5.85044 15.4294 5.94669 15.5824C6.2342 16.0427 6.44644 16.4302 6.76851 17.5605C6.9499 18.2132 7.19422 18.6908 7.51505 19.019C7.72236 19.23 7.95928 19.3719 8.21964 19.4423L8.27764 19.4583L8.26283 19.5175C8.25543 19.5434 8.25173 19.5755 8.25173 19.6051C8.25173 19.7717 8.36525 19.9149 8.53553 19.9605L8.538 19.9617ZM7.50395 17.3556C7.28183 16.577 7.06836 15.9859 6.63401 15.269L6.5464 15.1246L6.70558 15.1777C7.61253 15.48 8.17522 15.9896 8.48741 16.3648C9.01184 16.9928 9.19817 17.674 9.19817 18.0664C9.19817 18.7006 8.7885 18.7697 8.61327 18.7697C8.13573 18.7697 7.77295 18.307 7.50395 17.3556ZM9.44743 16.3129C9.80651 15.9551 10.4223 15.4664 11.3169 15.1789L11.4724 15.1296L11.3872 15.2702C10.9072 16.0686 10.711 16.6881 10.521 17.3569C10.3877 17.8356 10.2347 18.1787 10.0533 18.407L9.9262 18.5674L9.94348 18.3638C9.99777 17.7172 9.81885 17.0163 9.43756 16.3894L9.41288 16.3475L9.44743 16.3129ZM7.75444 14.7754C7.76184 14.309 7.79886 13.8487 7.86179 13.4107L7.8692 13.3564H8.65153V12.727H7.98519L8.00123 12.6518C8.06663 12.3593 8.13697 12.099 8.21347 11.8793L8.22828 11.8374H8.96002V11.2944H8.45409L8.50715 11.2019C8.67127 10.9156 8.84526 10.7638 9.00937 10.7638C9.16362 10.7638 9.3228 10.8922 9.47951 11.1476C9.62389 11.382 9.76209 11.7164 9.87931 12.1162L9.90276 12.1952H9.37956V12.8245H10.0545L10.0644 12.8751C10.1027 13.0689 10.136 13.2737 10.1644 13.4835L10.1742 13.5538H9.61401V14.1831H10.2421L10.2458 14.2399C10.2594 14.4324 10.2668 14.6125 10.2668 14.7754V14.8124L10.2335 14.8297C9.73247 15.0913 9.30429 15.3862 8.9958 15.6836L8.95014 15.728L8.90696 15.6811C8.61451 15.3603 8.23815 15.074 7.78652 14.8297L7.75321 14.8124L7.75444 14.7754Z" fill="var(--fill-0, #696F88)"/>
<path d="M1.9288 15.8772V16.3177H2.49111V15.8772H1.9288Z" fill="var(--fill-0, #696F88)"/>
<path fill-rule="evenodd" clip-rule="evenodd" d="M2.1266 19.9732C2.18188 19.9905 2.35896 20 2.4652 20C2.56885 20 2.76061 19.9896 2.8038 19.9767L2.80553 19.9758C2.92645 19.9439 3.00419 19.8437 3.00419 19.721C3.00419 19.7003 3.0016 19.6778 2.99642 19.6554L2.98778 19.6148L3.02751 19.6044C3.20977 19.5552 3.36611 19.4645 3.50691 19.3271C3.72458 19.1129 3.89128 18.7855 4.03208 18.2975L4.03813 18.2776C4.1746 17.8078 4.28257 17.4363 4.59526 16.9362C4.66283 16.8249 4.72333 16.7389 4.77301 16.6682L4.7801 16.6581L4.78189 16.6555C4.88183 16.5129 4.93731 16.4337 4.93731 16.3221C4.93731 16.2314 4.90276 16.1528 4.83798 16.0958C4.76456 16.031 4.65572 15.9964 4.52184 15.9964C4.375 15.9964 4.17201 16.0387 3.93275 16.1182L3.87919 16.1364L3.87574 16.0802C3.82996 15.2648 3.67016 14.5038 3.42658 13.9372C3.29874 13.6418 3.15362 13.4103 2.99383 13.2514C2.82712 13.0846 2.64746 13 2.46002 13C2.27258 13 2.09292 13.0846 1.92621 13.2514C1.76641 13.4103 1.62043 13.6409 1.49346 13.9372C1.24988 14.5038 1.09008 15.2639 1.0443 16.0776L1.04084 16.1338L0.987289 16.1165C0.704836 16.0249 0.493213 15.9921 0.38956 15.9921C0.278134 15.9921 0.177073 16.0292 0.10538 16.0966C0.0371421 16.1605 0 16.2452 0 16.335C0 16.4497 0.0422125 16.5102 0.143844 16.6558C0.18876 16.7197 0.245311 16.8006 0.312685 16.9077C0.513943 17.2299 0.662512 17.5011 0.887956 18.2923C1.01493 18.7493 1.18596 19.0835 1.41054 19.3133C1.55565 19.461 1.72149 19.5603 1.90375 19.6096L1.94435 19.6208L1.93398 19.6623C1.9288 19.6804 1.92621 19.7029 1.92621 19.7236C1.92621 19.8402 2.00567 19.9404 2.12487 19.9724L2.1266 19.9732ZM1.40276 18.1489C1.24728 17.6039 1.09785 17.1902 0.793805 16.6883L0.732477 16.5872L0.843903 16.6244C1.47877 16.836 1.87265 17.1927 2.09119 17.4553C2.45829 17.895 2.58872 18.3718 2.58872 18.6465C2.58872 19.0905 2.30195 19.1388 2.17929 19.1388C1.84501 19.1388 1.59106 18.8149 1.40276 18.1489ZM2.7632 17.4191C3.01456 17.1686 3.44558 16.8265 4.07181 16.6252L4.18065 16.5907L4.12105 16.6892C3.78504 17.248 3.6477 17.6816 3.51468 18.1498C3.42139 18.4849 3.31429 18.7251 3.18731 18.8849L3.09834 18.9972L3.11044 18.8546C3.14844 18.402 3.0232 17.9114 2.75629 17.4726L2.73902 17.4432L2.7632 17.4191ZM1.57811 16.3428C1.58329 16.0163 1.6092 15.6941 1.65326 15.3875L1.65844 15.3495H2.20607V14.9089H1.73963L1.75086 14.8562C1.79664 14.6515 1.84588 14.4693 1.89943 14.3155L1.9098 14.2862H2.42201V13.9061H2.06787L2.10501 13.8413C2.21989 13.6409 2.34168 13.5347 2.45656 13.5347C2.56453 13.5347 2.67596 13.6245 2.78566 13.8033C2.88672 13.9674 2.98346 14.2015 3.06552 14.4814L3.08193 14.5366H2.71569V14.9772H3.18818L3.19509 15.0126C3.22186 15.1482 3.24518 15.2916 3.26505 15.4384L3.27196 15.4877H2.87981V15.9282H3.31947L3.32206 15.9679C3.33156 16.1027 3.33674 16.2288 3.33674 16.3428V16.3687L3.31342 16.3808C2.96273 16.5639 2.663 16.7704 2.44706 16.9785L2.4151 17.0096L2.38487 16.9768C2.18016 16.7522 1.91671 16.5518 1.60057 16.3808L1.57724 16.3687L1.57811 16.3428Z" fill="var(--fill-0, #696F88)"/>
</g>
</svg>
